{
  "header": {
    "PPQ": 96,
    "timeSignature": [
      4,
      4
    ],
    "bpm": 122.99996925000768,
    "name": ""
  },
  "startTime": 1.9512200000000015,
  "duration": 146.22971135418103,
  "tracks": [
    {
      "startTime": 1.9512200000000015,
      "duration": 146.22971135418103,
      "length": 6174,
      "notes": [
        {
          "name": "B5",
          "midi": 83,
          "time": 1.9512200000000015,
          "velocity": 0.6220472440944882,
          "duration": 0.4369919791666663
        },
        {
          "name": "A1",
          "midi": 33,
          "time": 1.9512200000000015,
          "velocity": 0.6456692913385826,
          "duration": 0.5182928124999999
        },
        {
          "name": "F3",
          "midi": 53,
          "time": 1.9512200000000015,
          "velocity": 0.7401574803149606,
          "duration": 0.0101626041666667
        },
        {
          "name": "A2",
          "midi": 45,
          "time": 1.9512200000000015,
          "velocity": 0.7952755905511811,
          "duration": 0.2743903125
        },
        {
          "name": "A4",
          "midi": 69,
          "time": 1.9512200000000015,
          "velocity": 0.5748031496062992,
          "duration": 0.5284554166666666
        },
        {
          "name": "F#5",
          "midi": 78,
          "time": 1.9512200000000015,
          "velocity": 0.6850393700787402,
          "duration": 0.4878049999999998
        },
        {
          "name": "D2",
          "midi": 38,
          "time": 1.9512200000000015,
          "velocity": 1,
          "duration": 0.0101626041666667
        },
        {
          "name": "C5",
          "midi": 72,
          "time": 1.9512200000000015,
          "velocity": 0.5275590551181102,
          "duration": 0.00508130208333335
        },
        {
          "name": "F#4",
          "midi": 66,
          "time": 1.9512200000000015,
          "velocity": 0.6850393700787402,
          "duration": 0.4878049999999998
        },
        {
          "name": "E4",
          "midi": 64,
          "time": 1.9512200000000015,
          "velocity": 0.6220472440944882,
          "duration": 0.5386180208333333
        },
        {
          "name": "G4",
          "midi": 67,
          "time": 1.9512200000000015,
          "velocity": 0.7637795275590551,
          "duration": 0.4369919791666663
        },
        {
          "name": "C5",
          "midi": 72,
          "time": 1.9563013020833349,
          "velocity": 0.8110236220472441,
          "duration": 0.41666677083333314
        },
        {
          "name": "E5",
          "midi": 76,
          "time": 1.9664639062500016,
          "velocity": 0.8346456692913385,
          "duration": 0.4217480729166663
        },
        {
          "name": "B5",
          "midi": 83,
          "time": 1.971545208333335,
          "velocity": 0.937007874015748,
          "duration": 0.5182928124999999
        },
        {
          "name": "C5",
          "midi": 72,
          "time": 2.002033020833335,
          "velocity": 0.5433070866141733,
          "duration": 0.523374114583333
        },
        {
          "name": "C5",
          "midi": 72,
          "time": 2.002033020833335,
          "velocity": 0.5433070866141733,
          "duration": 0.523374114583333
        },
        {
          "name": "D2",
          "midi": 38,
          "time": 2.0731712500000015,
          "velocity": 1,
          "duration": 0.0101626041666667
        },
        {
          "name": "D2",
          "midi": 38,
          "time": 2.1951225000000014,
          "velocity": 0.9212598425196851,
          "duration": 0.0101626041666667
        },
        {
          "name": "F#2",
          "midi": 42,
          "time": 2.1951225000000014,
          "velocity": 0.47244094488188976,
          "duration": 0.0101626041666667
        },
        {
          "name": "D2",
          "midi": 38,
          "time": 2.3170737500000014,
          "velocity": 1,
          "duration": 0.0101626041666667
        },
        {
          "name": "D#2",
          "midi": 39,
          "time": 2.4390250000000013,
          "velocity": 1,
          "duration": 0.0101626041666667
        },
        {
          "name": "D2",
          "midi": 38,
          "time": 2.5609762500000013,
          "velocity": 0.4251968503937008,
          "duration": 0.0101626041666667
        },
        {
          "name": "F#2",
          "midi": 42,
          "time": 2.6829275000000012,
          "velocity": 0.47244094488188976,
          "duration": 0.0101626041666667
        },
        {
          "name": "D2",
          "midi": 38,
          "time": 2.6829275000000012,
          "velocity": 0.8503937007874016,
          "duration": 0.0101626041666667
        },
        {
          "name": "D2",
          "midi": 38,
          "time": 2.804878750000001,
          "velocity": 1,
          "duration": 0.0101626041666667
        },
        {
          "name": "A2",
          "midi": 45,
          "time": 2.926830000000001,
          "velocity": 0.7952755905511811,
          "duration": 0.25914640624999885
        },
        {
          "name": "A4",
          "midi": 69,
          "time": 2.926830000000001,
          "velocity": 0.5984251968503937,
          "duration": 0.5691058333333316
        },
        {
          "name": "F#4",
          "midi": 66,
          "time": 2.926830000000001,
          "velocity": 0.6850393700787402,
          "duration": 0.5284554166666653
        },
        {
          "name": "C5",
          "midi": 72,
          "time": 2.926830000000001,
          "velocity": 0.5748031496062992,
          "duration": 0.020325208333332956
        },
        {
          "name": "E4",
          "midi": 64,
          "time": 2.926830000000001,
          "velocity": 0.6220472440944882,
          "duration": 0.5741871354166648
        },
        {
          "name": "D2",
          "midi": 38,
          "time": 2.926830000000001,
          "velocity": 1,
          "duration": 0.0101626041666667
        },
        {
          "name": "B5",
          "midi": 83,
          "time": 2.926830000000001,
          "velocity": 0.6220472440944882,
          "duration": 0.4878049999999985
        },
        {
          "name": "G4",
          "midi": 67,
          "time": 2.926830000000001,
          "velocity": 0.7165354330708661,
          "duration": 0.4217480729166656
        },
        {
          "name": "F3",
          "midi": 53,
          "time": 2.926830000000001,
          "velocity": 0.8110236220472441,
          "duration": 0.0101626041666667
        },
        {
          "name": "C5",
          "midi": 72,
          "time": 2.926830000000001,
          "velocity": 0.5748031496062992,
          "duration": 0.45223588541666526
        },
        {
          "name": "F#5",
          "midi": 78,
          "time": 2.926830000000001,
          "velocity": 0.6850393700787402,
          "duration": 0.5284554166666653
        },
        {
          "name": "A1",
          "midi": 33,
          "time": 2.926830000000001,
          "velocity": 0.6850393700787402,
          "duration": 0.46239848958333196
        },
        {
          "name": "C5",
          "midi": 72,
          "time": 2.936992604166668,
          "velocity": 0.3464566929133858,
          "duration": 0.5436993229166651
        },
        {
          "name": "E5",
          "midi": 76,
          "time": 2.942073906250001,
          "velocity": 0.8346456692913385,
          "duration": 0.4319106770833323
        },
        {
          "name": "B5",
          "midi": 83,
          "time": 2.9522365104166672,
          "velocity": 0.8976377952755905,
          "duration": 0.5487806249999987
        },
        {
          "name": "C5",
          "midi": 72,
          "time": 2.967480416666667,
          "velocity": 0.6614173228346457,
          "duration": 0.5132115104166659
        },
        {
          "name": "D2",
          "midi": 38,
          "time": 3.04878125,
          "velocity": 0.968503937007874,
          "duration": 0.0101626041666667
        },
        {
          "name": "F#2",
          "midi": 42,
          "time": 3.1707325,
          "velocity": 0.47244094488188976,
          "duration": 0.0101626041666667
        },
        {
          "name": "D2",
          "midi": 38,
          "time": 3.1707325,
          "velocity": 0.9763779527559056,
          "duration": 0.0101626041666667
        },
        {
          "name": "D2",
          "midi": 38,
          "time": 3.29268375,
          "velocity": 1,
          "duration": 0.0101626041666667
        },
        {
          "name": "D#2",
          "midi": 39,
          "time": 3.4146349999999996,
          "velocity": 0.984251968503937,
          "duration": 0.0101626041666667
        },
        {
          "name": "F#2",
          "midi": 42,
          "time": 3.658537499999999,
          "velocity": 0.47244094488188976,
          "duration": 0.0101626041666667
        },
        {
          "name": "D2",
          "midi": 38,
          "time": 3.658537499999999,
          "velocity": 0.9763779527559056,
          "duration": 0.0101626041666667
        },
        {
          "name": "D2",
          "midi": 38,
          "time": 3.780488749999999,
          "velocity": 1,
          "duration": 0.0101626041666667
        },
        {
          "name": "A2",
          "midi": 45,
          "time": 3.902439999999999,
          "velocity": 0.7952755905511811,
          "duration": 0.18292687499999927
        },
        {
          "name": "C5",
          "midi": 72,
          "time": 3.902439999999999,
          "velocity": 0.5039370078740157,
          "duration": 0.24390249999999947
        },
        {
          "name": "A4",
          "midi": 69,
          "time": 3.902439999999999,
          "velocity": 0.5984251968503937,
          "duration": 0.3302846354166644
        },
        {
          "name": "E4",
          "midi": 64,
          "time": 3.902439999999999,
          "velocity": 0.5275590551181102,
          "duration": 0.3252033333333313
        },
        {
          "name": "F#4",
          "midi": 66,
          "time": 3.902439999999999,
          "velocity": 0.6850393700787402,
          "duration": 0.27947161458333136
        },
        {
          "name": "F3",
          "midi": 53,
          "time": 3.902439999999999,
          "velocity": 0.6220472440944882,
          "duration": 0.0101626041666667
        },
        {
          "name": "F#5",
          "midi": 78,
          "time": 3.902439999999999,
          "velocity": 0.6850393700787402,
          "duration": 0.27947161458333136
        },
        {
          "name": "C5",
          "midi": 72,
          "time": 3.902439999999999,
          "velocity": 0.5039370078740157,
          "duration": 0.309959427083331
        },
        {
          "name": "D2",
          "midi": 38,
          "time": 3.902439999999999,
          "velocity": 1,
          "duration": 0.0101626041666667
        },
        {
          "name": "C5",
          "midi": 72,
          "time": 3.902439999999999,
          "velocity": 0.7716535433070866,
          "duration": 0.309959427083331
        },
        {
          "name": "A1",
          "midi": 33,
          "time": 3.902439999999999,
          "velocity": 0.6220472440944882,
          "duration": 0.25914640624999885
        },
        {
          "name": "B5",
          "midi": 83,
          "time": 3.902439999999999,
          "velocity": 0.5275590551181102,
          "duration": 0.2845529166666645
        },
        {
          "name": "E5",
          "midi": 76,
          "time": 3.9227652083333324,
          "velocity": 0.5748031496062992,
          "duration": 0.2489838020833317
        },
        {
          "name": "B5",
          "midi": 83,
          "time": 3.932927812499999,
          "velocity": 0.937007874015748,
          "duration": 0.2947155208333312
        },
        {
          "name": "D2",
          "midi": 38,
          "time": 4.024391249999999,
          "velocity": 0.8188976377952756,
          "duration": 0.010162604166666256
        },
        {
          "name": "D2",
          "midi": 38,
          "time": 4.1463424999999985,
          "velocity": 0.905511811023622,
          "duration": 0.010162604166666256
        },
        {
          "name": "F#2",
          "midi": 42,
          "time": 4.1463424999999985,
          "velocity": 0.47244094488188976,
          "duration": 0.010162604166666256
        },
        {
          "name": "D2",
          "midi": 38,
          "time": 4.268293749999997,
          "velocity": 1,
          "duration": 0.010162604166666256
        },
        {
          "name": "B5",
          "midi": 83,
          "time": 4.3851636979166635,
          "velocity": 0.8031496062992126,
          "duration": 0.015243906249999384
        },
        {
          "name": "F3",
          "midi": 53,
          "time": 4.390244999999997,
          "velocity": 0.7716535433070866,
          "duration": 0.010162604166666256
        },
        {
          "name": "D#2",
          "midi": 39,
          "time": 4.390244999999997,
          "velocity": 0.984251968503937,
          "duration": 0.010162604166666256
        },
        {
          "name": "B5",
          "midi": 83,
          "time": 4.390244999999997,
          "velocity": 0.6220472440944882,
          "duration": 0.2591464062499984
        },
        {
          "name": "A1",
          "midi": 33,
          "time": 4.390244999999997,
          "velocity": 0.6850393700787402,
          "duration": 0.2540651041666653
        },
        {
          "name": "C5",
          "midi": 72,
          "time": 4.390244999999997,
          "velocity": 0.5748031496062992,
          "duration": 0.2540651041666653
        },
        {
          "name": "E4",
          "midi": 64,
          "time": 4.390244999999997,
          "velocity": 0.6220472440944882,
          "duration": 0.2743903124999987
        },
        {
          "name": "C5",
          "midi": 72,
          "time": 4.390244999999997,
          "velocity": 0.5748031496062992,
          "duration": 0.2743903124999987
        },
        {
          "name": "C5",
          "midi": 72,
          "time": 4.390244999999997,
          "velocity": 0.8346456692913385,
          "duration": 0.2743903124999987
        },
        {
          "name": "A4",
          "midi": 69,
          "time": 4.390244999999997,
          "velocity": 0.5984251968503937,
          "duration": 0.28455291666666493
        },
        {
          "name": "A2",
          "midi": 45,
          "time": 4.390244999999997,
          "velocity": 0.7952755905511811,
          "duration": 0.18292687499999882
        },
        {
          "name": "F#5",
          "midi": 78,
          "time": 4.390244999999997,
          "velocity": 0.6850393700787402,
          "duration": 0.28455291666666493
        },
        {
          "name": "F#4",
          "midi": 66,
          "time": 4.390244999999997,
          "velocity": 0.6850393700787402,
          "duration": 0.28455291666666493
        },
        {
          "name": "E5",
          "midi": 76,
          "time": 4.400407604166663,
          "velocity": 0.5433070866141733,
          "duration": 0.24898380208333215
        },
        {
          "name": "B5",
          "midi": 83,
          "time": 4.405488906249996,
          "velocity": 0.937007874015748,
          "duration": 0.2591464062499993
        },
        {
          "name": "D2",
          "midi": 38,
          "time": 4.512196249999996,
          "velocity": 0.905511811023622,
          "duration": 0.010162604166666256
        },
        {
          "name": "F#2",
          "midi": 42,
          "time": 4.634147499999996,
          "velocity": 0.47244094488188976,
          "duration": 0.010162604166666256
        },
        {
          "name": "D2",
          "midi": 38,
          "time": 4.634147499999996,
          "velocity": 0.9212598425196851,
          "duration": 0.010162604166666256
        },
        {
          "name": "D2",
          "midi": 38,
          "time": 4.756098749999995,
          "velocity": 1,
          "duration": 0.010162604166666256
        },
        {
          "name": "A4",
          "midi": 69,
          "time": 4.878049999999995,
          "velocity": 0.5984251968503937,
          "duration": 0.2947155208333312
        },
        {
          "name": "F#4",
          "midi": 66,
          "time": 4.878049999999995,
          "velocity": 0.6220472440944882,
          "duration": 0.28963421874999806
        },
        {
          "name": "F#5",
          "midi": 78,
          "time": 4.878049999999995,
          "velocity": 0.6220472440944882,
          "duration": 0.28963421874999806
        },
        {
          "name": "C5",
          "midi": 72,
          "time": 4.878049999999995,
          "velocity": 0.5748031496062992,
          "duration": 0.26930901041666555
        },
        {
          "name": "A1",
          "midi": 33,
          "time": 4.878049999999995,
          "velocity": 0.6850393700787402,
          "duration": 0.25406510416666617
        },
        {
          "name": "F3",
          "midi": 53,
          "time": 4.878049999999995,
          "velocity": 0.5748031496062992,
          "duration": 0.010162604166666256
        },
        {
          "name": "B5",
          "midi": 83,
          "time": 4.878049999999995,
          "velocity": 0.5984251968503937,
          "duration": 0.2794716145833318
        },
        {
          "name": "C5",
          "midi": 72,
          "time": 4.878049999999995,
          "velocity": 0.5748031496062992,
          "duration": 0.28455291666666493
        },
        {
          "name": "E4",
          "midi": 64,
          "time": 4.878049999999995,
          "velocity": 0.5984251968503937,
          "duration": 0.28963421874999806
        },
        {
          "name": "G4",
          "midi": 67,
          "time": 4.878049999999995,
          "velocity": 0.5118110236220472,
          "duration": 0.2591464062499993
        },
        {
          "name": "A2",
          "midi": 45,
          "time": 4.878049999999995,
          "velocity": 0.6299212598425197,
          "duration": 0.18800817708333284
        },
        {
          "name": "C5",
          "midi": 72,
          "time": 4.883131302083328,
          "velocity": 0.8346456692913385,
          "duration": 0.2794716145833318
        },
        {
          "name": "E5",
          "midi": 76,
          "time": 4.893293906249994,
          "velocity": 0.5748031496062992,
          "duration": 0.28963421874999806
        },
        {
          "name": "B5",
          "midi": 83,
          "time": 4.898375208333327,
          "velocity": 0.937007874015748,
          "duration": 0.26930901041666555
        },
        {
          "name": "D2",
          "midi": 38,
          "time": 5.000001249999994,
          "velocity": 1,
          "duration": 0.010162604166666256
        },
        {
          "name": "F#2",
          "midi": 42,
          "time": 5.121952499999995,
          "velocity": 0.47244094488188976,
          "duration": 0.010162604166666256
        },
        {
          "name": "D2",
          "midi": 38,
          "time": 5.121952499999995,
          "velocity": 0.8503937007874016,
          "duration": 0.010162604166666256
        },
        {
          "name": "D2",
          "midi": 38,
          "time": 5.243903749999992,
          "velocity": 1,
          "duration": 0.010162604166666256
        },
        {
          "name": "A4",
          "midi": 69,
          "time": 5.365854999999992,
          "velocity": 0.6614173228346457,
          "duration": 0.2947155208333312
        },
        {
          "name": "E4",
          "midi": 64,
          "time": 5.365854999999992,
          "velocity": 0.5984251968503937,
          "duration": 0.28455291666666493
        },
        {
          "name": "C5",
          "midi": 72,
          "time": 5.365854999999992,
          "velocity": 0.5984251968503937,
          "duration": 0.24898380208333215
        },
        {
          "name": "F#5",
          "midi": 78,
          "time": 5.365854999999992,
          "velocity": 0.6456692913385826,
          "duration": 0.2947155208333312
        },
        {
          "name": "B5",
          "midi": 83,
          "time": 5.365854999999992,
          "velocity": 0.5984251968503937,
          "duration": 0.26422770833333153
        },
        {
          "name": "A2",
          "midi": 45,
          "time": 5.365854999999992,
          "velocity": 0.7086614173228346,
          "duration": 0.1778455729166657
        },
        {
          "name": "C5",
          "midi": 72,
          "time": 5.365854999999992,
          "velocity": 0.5984251968503937,
          "duration": 0.28455291666666493
        },
        {
          "name": "D#2",
          "midi": 39,
          "time": 5.365854999999992,
          "velocity": 0.984251968503937,
          "duration": 0.010162604166666256
        },
        {
          "name": "A1",
          "midi": 33,
          "time": 5.365854999999992,
          "velocity": 0.7322834645669292,
          "duration": 0.26422770833333153
        },
        {
          "name": "F#4",
          "midi": 66,
          "time": 5.365854999999992,
          "velocity": 0.6456692913385826,
          "duration": 0.2947155208333312
        },
        {
          "name": "F3",
          "midi": 53,
          "time": 5.365854999999992,
          "velocity": 0.8740157480314961,
          "duration": 0.010162604166666256
        },
        {
          "name": "G4",
          "midi": 67,
          "time": 5.370936302083325,
          "velocity": 0.3700787401574803,
          "duration": 0.24390249999999902
        },
        {
          "name": "C5",
          "midi": 72,
          "time": 5.376017604166658,
          "velocity": 0.8346456692913385,
          "duration": 0.2743903124999987
        },
        {
          "name": "E5",
          "midi": 76,
          "time": 5.391261510416658,
          "velocity": 0.7480314960629921,
          "duration": 0.2184959895833325
        },
        {
          "name": "B5",
          "midi": 83,
          "time": 5.391261510416658,
          "velocity": 0.937007874015748,
          "duration": 0.2591464062499984
        },
        {
          "name": "D2",
          "midi": 38,
          "time": 5.487806249999991,
          "velocity": 0.8503937007874016,
          "duration": 0.010162604166666256
        },
        {
          "name": "D2",
          "midi": 38,
          "time": 5.609757499999991,
          "velocity": 0.8503937007874016,
          "duration": 0.010162604166666256
        },
        {
          "name": "F#2",
          "midi": 42,
          "time": 5.609757499999991,
          "velocity": 0.47244094488188976,
          "duration": 0.010162604166666256
        },
        {
          "name": "D2",
          "midi": 38,
          "time": 5.7317087499999895,
          "velocity": 1,
          "duration": 0.010162604166666256
        },
        {
          "name": "C5",
          "midi": 72,
          "time": 5.853659999999989,
          "velocity": 0.5748031496062992,
          "duration": 0.10162604166666522
        },
        {
          "name": "A1",
          "midi": 33,
          "time": 5.853659999999989,
          "velocity": 0.7559055118110236,
          "duration": 0.1930894791666642
        },
        {
          "name": "C5",
          "midi": 72,
          "time": 5.853659999999989,
          "velocity": 0.5748031496062992,
          "duration": 0.11178864583333148
        },
        {
          "name": "D2",
          "midi": 38,
          "time": 5.853659999999989,
          "velocity": 1,
          "duration": 0.010162604166666256
        },
        {
          "name": "A2",
          "midi": 45,
          "time": 5.853659999999989,
          "velocity": 0.7637795275590551,
          "duration": 0.13719515624999712
        },
        {
          "name": "F#4",
          "midi": 66,
          "time": 5.853659999999989,
          "velocity": 0.6850393700787402,
          "duration": 0.09146343749999897
        },
        {
          "name": "F3",
          "midi": 53,
          "time": 5.853659999999989,
          "velocity": 0.47244094488188976,
          "duration": 0.010162604166666256
        },
        {
          "name": "A4",
          "midi": 69,
          "time": 5.853659999999989,
          "velocity": 0.5748031496062992,
          "duration": 0.08638213541666584
        },
        {
          "name": "B5",
          "midi": 83,
          "time": 5.853659999999989,
          "velocity": 0.5433070866141733,
          "duration": 0.09146343749999897
        },
        {
          "name": "G4",
          "midi": 67,
          "time": 5.853659999999989,
          "velocity": 0.5275590551181102,
          "duration": 0.07621953124999958
        },
        {
          "name": "E4",
          "midi": 64,
          "time": 5.853659999999989,
          "velocity": 0.5433070866141733,
          "duration": 0.09146343749999897
        },
        {
          "name": "F#5",
          "midi": 78,
          "time": 5.853659999999989,
          "velocity": 0.6850393700787402,
          "duration": 0.09146343749999897
        },
        {
          "name": "C5",
          "midi": 72,
          "time": 5.858741302083322,
          "velocity": 0.8661417322834646,
          "duration": 0.10670734374999835
        },
        {
          "name": "E5",
          "midi": 76,
          "time": 5.868903906249988,
          "velocity": 0.8346456692913385,
          "duration": 0.08638213541666584
        },
        {
          "name": "B5",
          "midi": 83,
          "time": 5.8739852083333215,
          "velocity": 0.8818897637795275,
          "duration": 0.09146343749999897
        },
        {
          "name": "D2",
          "midi": 38,
          "time": 5.975611249999987,
          "velocity": 1,
          "duration": 0.010162604166666256
        },
        {
          "name": "D2",
          "midi": 38,
          "time": 6.097562499999986,
          "velocity": 0.9212598425196851,
          "duration": 0.010162604166666256
        },
        {
          "name": "E4",
          "midi": 64,
          "time": 6.097562499999986,
          "velocity": 0.4881889763779528,
          "duration": 0.09654473958333298
        },
        {
          "name": "B5",
          "midi": 83,
          "time": 6.097562499999986,
          "velocity": 0.4881889763779528,
          "duration": 0.09654473958333298
        },
        {
          "name": "F3",
          "midi": 53,
          "time": 6.097562499999986,
          "velocity": 0.4330708661417323,
          "duration": 0.010162604166666256
        },
        {
          "name": "A2",
          "midi": 45,
          "time": 6.097562499999986,
          "velocity": 0.5826771653543307,
          "duration": 0.1168699479166655
        },
        {
          "name": "C5",
          "midi": 72,
          "time": 6.097562499999986,
          "velocity": 0.5433070866141733,
          "duration": 0.10162604166666611
        },
        {
          "name": "F#4",
          "midi": 66,
          "time": 6.097562499999986,
          "velocity": 0.6456692913385826,
          "duration": 0.08130083333333271
        },
        {
          "name": "F#5",
          "midi": 78,
          "time": 6.097562499999986,
          "velocity": 0.6456692913385826,
          "duration": 0.08130083333333271
        },
        {
          "name": "C5",
          "midi": 72,
          "time": 6.097562499999986,
          "velocity": 0.5433070866141733,
          "duration": 0.10670734374999924
        },
        {
          "name": "A4",
          "midi": 69,
          "time": 6.097562499999986,
          "velocity": 0.6220472440944882,
          "duration": 0.09654473958333298
        },
        {
          "name": "G4",
          "midi": 67,
          "time": 6.097562499999986,
          "velocity": 0.5275590551181102,
          "duration": 0.07621953124999958
        },
        {
          "name": "A1",
          "midi": 33,
          "time": 6.097562499999986,
          "velocity": 0.5275590551181102,
          "duration": 0.13211385416666488
        },
        {
          "name": "F#2",
          "midi": 42,
          "time": 6.097562499999986,
          "velocity": 0.47244094488188976,
          "duration": 0.010162604166666256
        },
        {
          "name": "C5",
          "midi": 72,
          "time": 6.102643802083319,
          "velocity": 0.8661417322834646,
          "duration": 0.10162604166666611
        },
        {
          "name": "E5",
          "midi": 76,
          "time": 6.112806406249986,
          "velocity": 0.8346456692913385,
          "duration": 0.08638213541666673
        },
        {
          "name": "B5",
          "midi": 83,
          "time": 6.117887708333319,
          "velocity": 0.8818897637795275,
          "duration": 0.09146343749999986
        },
        {
          "name": "D2",
          "midi": 38,
          "time": 6.219513749999985,
          "velocity": 1,
          "duration": 0.010162604166666256
        },
        {
          "name": "F#4",
          "midi": 66,
          "time": 6.341464999999984,
          "velocity": 0.6456692913385826,
          "duration": 0.07621953124999958
        },
        {
          "name": "A1",
          "midi": 33,
          "time": 6.341464999999984,
          "velocity": 0.5590551181102362,
          "duration": 0.15243906249999828
        },
        {
          "name": "C5",
          "midi": 72,
          "time": 6.341464999999984,
          "velocity": 0.5275590551181102,
          "duration": 0.10162604166666611
        },
        {
          "name": "A4",
          "midi": 69,
          "time": 6.341464999999984,
          "velocity": 0.5984251968503937,
          "duration": 0.09654473958333298
        },
        {
          "name": "E4",
          "midi": 64,
          "time": 6.341464999999984,
          "velocity": 0.5275590551181102,
          "duration": 0.10162604166666611
        },
        {
          "name": "B5",
          "midi": 83,
          "time": 6.341464999999984,
          "velocity": 0.5275590551181102,
          "duration": 0.10162604166666611
        },
        {
          "name": "G4",
          "midi": 67,
          "time": 6.341464999999984,
          "velocity": 0.5275590551181102,
          "duration": 0.07621953124999958
        },
        {
          "name": "C5",
          "midi": 72,
          "time": 6.341464999999984,
          "velocity": 0.5275590551181102,
          "duration": 0.1168699479166655
        },
        {
          "name": "A2",
          "midi": 45,
          "time": 6.341464999999984,
          "velocity": 0.6456692913385826,
          "duration": 0.1168699479166655
        },
        {
          "name": "F3",
          "midi": 53,
          "time": 6.341464999999984,
          "velocity": 0.49606299212598426,
          "duration": 0.010162604166666256
        },
        {
          "name": "F#5",
          "midi": 78,
          "time": 6.341464999999984,
          "velocity": 0.6456692913385826,
          "duration": 0.07621953124999958
        },
        {
          "name": "D#2",
          "midi": 39,
          "time": 6.341464999999984,
          "velocity": 1,
          "duration": 0.010162604166666256
        },
        {
          "name": "C5",
          "midi": 72,
          "time": 6.3465463020833175,
          "velocity": 0.8661417322834646,
          "duration": 0.11178864583333237
        },
        {
          "name": "E5",
          "midi": 76,
          "time": 6.356708906249984,
          "velocity": 0.8346456692913385,
          "duration": 0.08638213541666673
        },
        {
          "name": "B5",
          "midi": 83,
          "time": 6.361790208333317,
          "velocity": 0.8818897637795275,
          "duration": 0.09146343749999986
        },
        {
          "name": "D2",
          "midi": 38,
          "time": 6.463416249999983,
          "velocity": 0.4251968503937008,
          "duration": 0.010162604166666256
        },
        {
          "name": "F3",
          "midi": 53,
          "time": 6.5853674999999825,
          "velocity": 0.3779527559055118,
          "duration": 0.010162604166666256
        },
        {
          "name": "C5",
          "midi": 72,
          "time": 6.5853674999999825,
          "velocity": 0.5748031496062992,
          "duration": 0.10162604166666522
        },
        {
          "name": "C5",
          "midi": 72,
          "time": 6.5853674999999825,
          "velocity": 0.5748031496062992,
          "duration": 0.11686994791666461
        },
        {
          "name": "D2",
          "midi": 38,
          "time": 6.5853674999999825,
          "velocity": 0.8503937007874016,
          "duration": 0.010162604166666256
        },
        {
          "name": "B5",
          "midi": 83,
          "time": 6.5853674999999825,
          "velocity": 0.5196850393700787,
          "duration": 0.10162604166666522
        },
        {
          "name": "G4",
          "midi": 67,
          "time": 6.5853674999999825,
          "velocity": 0.5275590551181102,
          "duration": 0.0762195312499987
        },
        {
          "name": "F#2",
          "midi": 42,
          "time": 6.5853674999999825,
          "velocity": 0.47244094488188976,
          "duration": 0.010162604166666256
        },
        {
          "name": "E4",
          "midi": 64,
          "time": 6.5853674999999825,
          "velocity": 0.5196850393700787,
          "duration": 0.10162604166666522
        },
        {
          "name": "F#5",
          "midi": 78,
          "time": 6.5853674999999825,
          "velocity": 0.6220472440944882,
          "duration": 0.07113822916666557
        },
        {
          "name": "A1",
          "midi": 33,
          "time": 6.5853674999999825,
          "velocity": 0.5748031496062992,
          "duration": 0.13719515624999712
        },
        {
          "name": "A4",
          "midi": 69,
          "time": 6.5853674999999825,
          "velocity": 0.5748031496062992,
          "duration": 0.10162604166666522
        },
        {
          "name": "F#4",
          "midi": 66,
          "time": 6.5853674999999825,
          "velocity": 0.6220472440944882,
          "duration": 0.07113822916666557
        },
        {
          "name": "A2",
          "midi": 45,
          "time": 6.5853674999999825,
          "velocity": 0.6850393700787402,
          "duration": 0.12195124999999774
        },
        {
          "name": "C5",
          "midi": 72,
          "time": 6.590448802083316,
          "velocity": 0.8661417322834646,
          "duration": 0.11178864583333148
        },
        {
          "name": "E5",
          "midi": 76,
          "time": 6.600611406249982,
          "velocity": 0.8346456692913385,
          "duration": 0.08638213541666584
        },
        {
          "name": "B5",
          "midi": 83,
          "time": 6.605692708333315,
          "velocity": 0.8818897637795275,
          "duration": 0.09146343749999897
        },
        {
          "name": "D2",
          "midi": 38,
          "time": 6.70731874999998,
          "velocity": 1,
          "duration": 0.010162604166666256
        },
        {
          "name": "A4",
          "midi": 69,
          "time": 6.82926999999998,
          "velocity": 0.6220472440944882,
          "duration": 0.10670734374999924
        },
        {
          "name": "G4",
          "midi": 67,
          "time": 6.82926999999998,
          "velocity": 0.5275590551181102,
          "duration": 0.07621953124999958
        },
        {
          "name": "E4",
          "midi": 64,
          "time": 6.82926999999998,
          "velocity": 0.5354330708661418,
          "duration": 0.10670734374999924
        },
        {
          "name": "A1",
          "midi": 33,
          "time": 6.82926999999998,
          "velocity": 0.5984251968503937,
          "duration": 0.12195124999999862
        },
        {
          "name": "B5",
          "midi": 83,
          "time": 6.82926999999998,
          "velocity": 0.5354330708661418,
          "duration": 0.10670734374999924
        },
        {
          "name": "D2",
          "midi": 38,
          "time": 6.82926999999998,
          "velocity": 1,
          "duration": 0.010162604166666256
        },
        {
          "name": "F#5",
          "midi": 78,
          "time": 6.82926999999998,
          "velocity": 0.6220472440944882,
          "duration": 0.07621953124999958
        },
        {
          "name": "C5",
          "midi": 72,
          "time": 6.82926999999998,
          "velocity": 0.6220472440944882,
          "duration": 0.10162604166666611
        },
        {
          "name": "C5",
          "midi": 72,
          "time": 6.82926999999998,
          "velocity": 0.6220472440944882,
          "duration": 0.12195124999999862
        },
        {
          "name": "A2",
          "midi": 45,
          "time": 6.82926999999998,
          "velocity": 0.5748031496062992,
          "duration": 0.12703255208333175
        },
        {
          "name": "F#4",
          "midi": 66,
          "time": 6.82926999999998,
          "velocity": 0.6220472440944882,
          "duration": 0.07621953124999958
        },
        {
          "name": "F3",
          "midi": 53,
          "time": 6.82926999999998,
          "velocity": 0.47244094488188976,
          "duration": 0.010162604166666256
        },
        {
          "name": "C5",
          "midi": 72,
          "time": 6.834351302083313,
          "velocity": 0.8661417322834646,
          "duration": 0.1168699479166655
        },
        {
          "name": "E5",
          "midi": 76,
          "time": 6.844513906249979,
          "velocity": 0.8346456692913385,
          "duration": 0.08638213541666673
        },
        {
          "name": "B5",
          "midi": 83,
          "time": 6.849595208333312,
          "velocity": 0.8818897637795275,
          "duration": 0.09146343749999986
        },
        {
          "name": "D2",
          "midi": 38,
          "time": 6.951221249999978,
          "velocity": 0.968503937007874,
          "duration": 0.010162604166666256
        },
        {
          "name": "C5",
          "midi": 72,
          "time": 7.073172499999978,
          "velocity": 0.5748031496062992,
          "duration": 0.10162604166666611
        },
        {
          "name": "A4",
          "midi": 69,
          "time": 7.073172499999978,
          "velocity": 0.5590551181102362,
          "duration": 0.10162604166666611
        },
        {
          "name": "A2",
          "midi": 45,
          "time": 7.073172499999978,
          "velocity": 0.6456692913385826,
          "duration": 0.1168699479166655
        },
        {
          "name": "E4",
          "midi": 64,
          "time": 7.073172499999978,
          "velocity": 0.4881889763779528,
          "duration": 0.10162604166666611
        },
        {
          "name": "D2",
          "midi": 38,
          "time": 7.073172499999978,
          "velocity": 0.9763779527559056,
          "duration": 0.010162604166666256
        },
        {
          "name": "C5",
          "midi": 72,
          "time": 7.073172499999978,
          "velocity": 0.5748031496062992,
          "duration": 0.10670734374999924
        },
        {
          "name": "G4",
          "midi": 67,
          "time": 7.073172499999978,
          "velocity": 0.5275590551181102,
          "duration": 0.07621953124999958
        },
        {
          "name": "F3",
          "midi": 53,
          "time": 7.073172499999978,
          "velocity": 0.47244094488188976,
          "duration": 0.010162604166666256
        },
        {
          "name": "F#2",
          "midi": 42,
          "time": 7.073172499999978,
          "velocity": 0.47244094488188976,
          "duration": 0.010162604166666256
        },
        {
          "name": "F#4",
          "midi": 66,
          "time": 7.073172499999978,
          "velocity": 0.6456692913385826,
          "duration": 0.07621953124999958
        },
        {
          "name": "B5",
          "midi": 83,
          "time": 7.073172499999978,
          "velocity": 0.4881889763779528,
          "duration": 0.10162604166666611
        },
        {
          "name": "A1",
          "midi": 33,
          "time": 7.073172499999978,
          "velocity": 0.6220472440944882,
          "duration": 0.10670734374999924
        },
        {
          "name": "F#5",
          "midi": 78,
          "time": 7.073172499999978,
          "velocity": 0.6456692913385826,
          "duration": 0.07621953124999958
        },
        {
          "name": "C5",
          "midi": 72,
          "time": 7.078253802083311,
          "velocity": 0.8661417322834646,
          "duration": 0.10162604166666611
        },
        {
          "name": "E5",
          "midi": 76,
          "time": 7.088416406249977,
          "velocity": 0.8346456692913385,
          "duration": 0.08638213541666673
        },
        {
          "name": "B5",
          "midi": 83,
          "time": 7.09349770833331,
          "velocity": 0.8818897637795275,
          "duration": 0.09146343749999986
        },
        {
          "name": "D2",
          "midi": 38,
          "time": 7.1951237499999765,
          "velocity": 1,
          "duration": 0.010162604166666256
        },
        {
          "name": "E4",
          "midi": 64,
          "time": 7.317074999999976,
          "velocity": 0.5275590551181102,
          "duration": 0.0965447395833321
        },
        {
          "name": "G4",
          "midi": 67,
          "time": 7.317074999999976,
          "velocity": 0.5275590551181102,
          "duration": 0.0762195312499987
        },
        {
          "name": "F#5",
          "midi": 78,
          "time": 7.317074999999976,
          "velocity": 0.6456692913385826,
          "duration": 0.07113822916666557
        },
        {
          "name": "B5",
          "midi": 83,
          "time": 7.317074999999976,
          "velocity": 0.5275590551181102,
          "duration": 0.0965447395833321
        },
        {
          "name": "A2",
          "midi": 45,
          "time": 7.317074999999976,
          "velocity": 0.6850393700787402,
          "duration": 0.12703255208333175
        },
        {
          "name": "F#4",
          "midi": 66,
          "time": 7.317074999999976,
          "velocity": 0.6456692913385826,
          "duration": 0.07113822916666557
        },
        {
          "name": "D#2",
          "midi": 39,
          "time": 7.317074999999976,
          "velocity": 0.984251968503937,
          "duration": 0.010162604166666256
        },
        {
          "name": "A1",
          "midi": 33,
          "time": 7.317074999999976,
          "velocity": 0.6456692913385826,
          "duration": 0.10670734374999835
        },
        {
          "name": "C5",
          "midi": 72,
          "time": 7.317074999999976,
          "velocity": 0.6220472440944882,
          "duration": 0.10162604166666522
        },
        {
          "name": "F3",
          "midi": 53,
          "time": 7.317074999999976,
          "velocity": 0.5433070866141733,
          "duration": 0.010162604166666256
        },
        {
          "name": "A4",
          "midi": 69,
          "time": 7.317074999999976,
          "velocity": 0.6220472440944882,
          "duration": 0.10162604166666522
        },
        {
          "name": "C5",
          "midi": 72,
          "time": 7.317074999999976,
          "velocity": 0.6220472440944882,
          "duration": 0.10670734374999835
        },
        {
          "name": "C5",
          "midi": 72,
          "time": 7.322156302083309,
          "velocity": 0.8661417322834646,
          "duration": 0.10162604166666522
        },
        {
          "name": "E5",
          "midi": 76,
          "time": 7.332318906249975,
          "velocity": 0.8346456692913385,
          "duration": 0.08638213541666584
        },
        {
          "name": "B5",
          "midi": 83,
          "time": 7.3374002083333085,
          "velocity": 0.8818897637795275,
          "duration": 0.09146343749999897
        },
        {
          "name": "A1",
          "midi": 33,
          "time": 7.560977499999974,
          "velocity": 0.6850393700787402,
          "duration": 0.12195124999999862
        },
        {
          "name": "C5",
          "midi": 72,
          "time": 7.560977499999974,
          "velocity": 0.5748031496062992,
          "duration": 0.10162604166666611
        },
        {
          "name": "E4",
          "midi": 64,
          "time": 7.560977499999974,
          "velocity": 0.5433070866141733,
          "duration": 0.11178864583333237
        },
        {
          "name": "A2",
          "midi": 45,
          "time": 7.560977499999974,
          "velocity": 0.6850393700787402,
          "duration": 0.11178864583333237
        },
        {
          "name": "F3",
          "midi": 53,
          "time": 7.560977499999974,
          "velocity": 0.49606299212598426,
          "duration": 0.010162604166666256
        },
        {
          "name": "F#2",
          "midi": 42,
          "time": 7.560977499999974,
          "velocity": 0.47244094488188976,
          "duration": 0.010162604166666256
        },
        {
          "name": "D2",
          "midi": 38,
          "time": 7.560977499999974,
          "velocity": 0.9763779527559056,
          "duration": 0.010162604166666256
        },
        {
          "name": "A4",
          "midi": 69,
          "time": 7.560977499999974,
          "velocity": 0.5984251968503937,
          "duration": 0.1168699479166655
        },
        {
          "name": "C5",
          "midi": 72,
          "time": 7.560977499999974,
          "velocity": 0.5748031496062992,
          "duration": 0.12195124999999862
        },
        {
          "name": "F#4",
          "midi": 66,
          "time": 7.560977499999974,
          "velocity": 0.6456692913385826,
          "duration": 0.08130083333333271
        },
        {
          "name": "B5",
          "midi": 83,
          "time": 7.560977499999974,
          "velocity": 0.5433070866141733,
          "duration": 0.11178864583333237
        },
        {
          "name": "G4",
          "midi": 67,
          "time": 7.560977499999974,
          "velocity": 0.5275590551181102,
          "duration": 0.07621953124999958
        },
        {
          "name": "F#5",
          "midi": 78,
          "time": 7.560977499999974,
          "velocity": 0.6456692913385826,
          "duration": 0.08130083333333271
        },
        {
          "name": "C5",
          "midi": 72,
          "time": 7.566058802083307,
          "velocity": 0.8661417322834646,
          "duration": 0.1168699479166655
        },
        {
          "name": "E5",
          "midi": 76,
          "time": 7.5762214062499735,
          "velocity": 0.8346456692913385,
          "duration": 0.08638213541666673
        },
        {
          "name": "B5",
          "midi": 83,
          "time": 7.581302708333307,
          "velocity": 0.8818897637795275,
          "duration": 0.09146343749999986
        },
        {
          "name": "D2",
          "midi": 38,
          "time": 7.682928749999973,
          "velocity": 1,
          "duration": 0.010162604166666256
        },
        {
          "name": "D2",
          "midi": 38,
          "time": 7.804879999999972,
          "velocity": 1,
          "duration": 0.010162604166666256
        },
        {
          "name": "B5",
          "midi": 83,
          "time": 7.804879999999972,
          "velocity": 0.47244094488188976,
          "duration": 0.10162604166666522
        },
        {
          "name": "E4",
          "midi": 64,
          "time": 7.804879999999972,
          "velocity": 0.47244094488188976,
          "duration": 0.10162604166666522
        },
        {
          "name": "F3",
          "midi": 53,
          "time": 7.804879999999972,
          "velocity": 0.48031496062992124,
          "duration": 0.010162604166666256
        },
        {
          "name": "F#5",
          "midi": 78,
          "time": 7.804879999999972,
          "velocity": 0.6456692913385826,
          "duration": 0.07113822916666557
        },
        {
          "name": "A4",
          "midi": 69,
          "time": 7.804879999999972,
          "velocity": 0.5354330708661418,
          "duration": 0.10670734374999835
        },
        {
          "name": "G4",
          "midi": 67,
          "time": 7.804879999999972,
          "velocity": 0.5275590551181102,
          "duration": 0.0762195312499987
        },
        {
          "name": "C5",
          "midi": 72,
          "time": 7.804879999999972,
          "velocity": 0.5275590551181102,
          "duration": 0.10162604166666522
        },
        {
          "name": "A1",
          "midi": 33,
          "time": 7.804879999999972,
          "velocity": 0.6220472440944882,
          "duration": 0.10670734374999835
        },
        {
          "name": "A2",
          "midi": 45,
          "time": 7.804879999999972,
          "velocity": 0.6850393700787402,
          "duration": 0.11686994791666461
        },
        {
          "name": "F#4",
          "midi": 66,
          "time": 7.804879999999972,
          "velocity": 0.6456692913385826,
          "duration": 0.07113822916666557
        },
        {
          "name": "C5",
          "midi": 72,
          "time": 7.804879999999972,
          "velocity": 0.5275590551181102,
          "duration": 0.10670734374999835
        },
        {
          "name": "C5",
          "midi": 72,
          "time": 7.809961302083305,
          "velocity": 0.8661417322834646,
          "duration": 0.10162604166666522
        },
        {
          "name": "E5",
          "midi": 76,
          "time": 7.820123906249972,
          "velocity": 0.8346456692913385,
          "duration": 0.08638213541666584
        },
        {
          "name": "B5",
          "midi": 83,
          "time": 7.825205208333305,
          "velocity": 0.8818897637795275,
          "duration": 0.09146343749999897
        },
        {
          "name": "D2",
          "midi": 38,
          "time": 7.92683124999997,
          "velocity": 0.8188976377952756,
          "duration": 0.010162604166666256
        },
        {
          "name": "A4",
          "midi": 69,
          "time": 8.04878249999997,
          "velocity": 0.5984251968503937,
          "duration": 0.10162604166666434
        },
        {
          "name": "E4",
          "midi": 64,
          "time": 8.04878249999997,
          "velocity": 0.5433070866141733,
          "duration": 0.09654473958333121
        },
        {
          "name": "A2",
          "midi": 45,
          "time": 8.04878249999997,
          "velocity": 0.6456692913385826,
          "duration": 0.11178864583333059
        },
        {
          "name": "F#5",
          "midi": 78,
          "time": 8.04878249999997,
          "velocity": 0.6456692913385826,
          "duration": 0.0762195312499987
        },
        {
          "name": "D2",
          "midi": 38,
          "time": 8.04878249999997,
          "velocity": 0.905511811023622,
          "duration": 0.010162604166666256
        },
        {
          "name": "C5",
          "midi": 72,
          "time": 8.04878249999997,
          "velocity": 0.5433070866141733,
          "duration": 0.10162604166666434
        },
        {
          "name": "C5",
          "midi": 72,
          "time": 8.04878249999997,
          "velocity": 0.5433070866141733,
          "duration": 0.10162604166666434
        },
        {
          "name": "F#4",
          "midi": 66,
          "time": 8.04878249999997,
          "velocity": 0.6456692913385826,
          "duration": 0.0762195312499987
        },
        {
          "name": "F3",
          "midi": 53,
          "time": 8.04878249999997,
          "velocity": 0.48031496062992124,
          "duration": 0.010162604166666256
        },
        {
          "name": "A1",
          "midi": 33,
          "time": 8.04878249999997,
          "velocity": 0.6456692913385826,
          "duration": 0.11686994791666372
        },
        {
          "name": "G4",
          "midi": 67,
          "time": 8.04878249999997,
          "velocity": 0.5275590551181102,
          "duration": 0.0762195312499987
        },
        {
          "name": "B5",
          "midi": 83,
          "time": 8.04878249999997,
          "velocity": 0.5433070866141733,
          "duration": 0.09654473958333121
        },
        {
          "name": "F#2",
          "midi": 42,
          "time": 8.04878249999997,
          "velocity": 0.47244094488188976,
          "duration": 0.010162604166666256
        },
        {
          "name": "C5",
          "midi": 72,
          "time": 8.053863802083303,
          "velocity": 0.8661417322834646,
          "duration": 0.09654473958333121
        },
        {
          "name": "E5",
          "midi": 76,
          "time": 8.064026406249969,
          "velocity": 0.8346456692913385,
          "duration": 0.08638213541666495
        },
        {
          "name": "B5",
          "midi": 83,
          "time": 8.069107708333302,
          "velocity": 0.8818897637795275,
          "duration": 0.09146343749999808
        },
        {
          "name": "D2",
          "midi": 38,
          "time": 8.170733749999966,
          "velocity": 1,
          "duration": 0.010162604166666256
        },
        {
          "name": "F3",
          "midi": 53,
          "time": 8.292684999999967,
          "velocity": 0.49606299212598426,
          "duration": 0.010162604166666256
        },
        {
          "name": "C5",
          "midi": 72,
          "time": 8.292684999999967,
          "velocity": 0.5984251968503937,
          "duration": 0.10162604166666434
        },
        {
          "name": "A2",
          "midi": 45,
          "time": 8.292684999999967,
          "velocity": 0.6850393700787402,
          "duration": 0.11178864583333059
        },
        {
          "name": "C5",
          "midi": 72,
          "time": 8.292684999999967,
          "velocity": 0.5984251968503937,
          "duration": 0.10670734374999746
        },
        {
          "name": "B5",
          "midi": 83,
          "time": 8.292684999999967,
          "velocity": 0.5196850393700787,
          "duration": 0.10162604166666434
        },
        {
          "name": "F#5",
          "midi": 78,
          "time": 8.292684999999967,
          "velocity": 0.6456692913385826,
          "duration": 0.08638213541666495
        },
        {
          "name": "D#2",
          "midi": 39,
          "time": 8.292684999999967,
          "velocity": 0.984251968503937,
          "duration": 0.010162604166666256
        },
        {
          "name": "G4",
          "midi": 67,
          "time": 8.292684999999967,
          "velocity": 0.5275590551181102,
          "duration": 0.0762195312499987
        },
        {
          "name": "F#4",
          "midi": 66,
          "time": 8.292684999999967,
          "velocity": 0.6456692913385826,
          "duration": 0.08638213541666495
        },
        {
          "name": "A1",
          "midi": 33,
          "time": 8.292684999999967,
          "velocity": 0.6850393700787402,
          "duration": 0.11686994791666372
        },
        {
          "name": "A4",
          "midi": 69,
          "time": 8.292684999999967,
          "velocity": 0.5433070866141733,
          "duration": 0.10670734374999746
        },
        {
          "name": "E4",
          "midi": 64,
          "time": 8.292684999999967,
          "velocity": 0.5196850393700787,
          "duration": 0.10162604166666434
        },
        {
          "name": "C5",
          "midi": 72,
          "time": 8.2977663020833,
          "velocity": 0.8661417322834646,
          "duration": 0.10162604166666434
        },
        {
          "name": "E5",
          "midi": 76,
          "time": 8.307928906249966,
          "velocity": 0.8346456692913385,
          "duration": 0.08638213541666495
        },
        {
          "name": "B5",
          "midi": 83,
          "time": 8.3130102083333,
          "velocity": 0.8818897637795275,
          "duration": 0.09146343749999808
        },
        {
          "name": "D2",
          "midi": 38,
          "time": 8.414636249999964,
          "velocity": 0.905511811023622,
          "duration": 0.010162604166666256
        },
        {
          "name": "G4",
          "midi": 67,
          "time": 8.536587499999964,
          "velocity": 0.5275590551181102,
          "duration": 0.0762195312499987
        },
        {
          "name": "A4",
          "midi": 69,
          "time": 8.536587499999964,
          "velocity": 0.5748031496062992,
          "duration": 0.11178864583333059
        },
        {
          "name": "A2",
          "midi": 45,
          "time": 8.536587499999964,
          "velocity": 0.5984251968503937,
          "duration": 0.11178864583333059
        },
        {
          "name": "F#5",
          "midi": 78,
          "time": 8.536587499999964,
          "velocity": 0.5433070866141733,
          "duration": 0.08130083333333182
        },
        {
          "name": "C5",
          "midi": 72,
          "time": 8.536587499999964,
          "velocity": 0.5354330708661418,
          "duration": 0.10162604166666434
        },
        {
          "name": "F#2",
          "midi": 42,
          "time": 8.536587499999964,
          "velocity": 0.47244094488188976,
          "duration": 0.010162604166666256
        },
        {
          "name": "A1",
          "midi": 33,
          "time": 8.536587499999964,
          "velocity": 0.6850393700787402,
          "duration": 0.12195124999999685
        },
        {
          "name": "F#4",
          "midi": 66,
          "time": 8.536587499999964,
          "velocity": 0.5433070866141733,
          "duration": 0.08130083333333182
        },
        {
          "name": "B5",
          "midi": 83,
          "time": 8.536587499999964,
          "velocity": 0.5196850393700787,
          "duration": 0.09654473958333121
        },
        {
          "name": "C5",
          "midi": 72,
          "time": 8.536587499999964,
          "velocity": 0.5354330708661418,
          "duration": 0.10670734374999746
        },
        {
          "name": "D2",
          "midi": 38,
          "time": 8.536587499999964,
          "velocity": 0.9212598425196851,
          "duration": 0.010162604166666256
        },
        {
          "name": "E4",
          "midi": 64,
          "time": 8.536587499999964,
          "velocity": 0.5196850393700787,
          "duration": 0.09654473958333121
        },
        {
          "name": "F3",
          "midi": 53,
          "time": 8.536587499999964,
          "velocity": 0.5984251968503937,
          "duration": 0.010162604166666256
        },
        {
          "name": "C5",
          "midi": 72,
          "time": 8.541668802083297,
          "velocity": 0.8661417322834646,
          "duration": 0.10162604166666434
        },
        {
          "name": "E5",
          "midi": 76,
          "time": 8.551831406249963,
          "velocity": 0.8346456692913385,
          "duration": 0.08638213541666495
        },
        {
          "name": "B5",
          "midi": 83,
          "time": 8.556912708333297,
          "velocity": 0.8818897637795275,
          "duration": 0.09146343749999808
        },
        {
          "name": "D2",
          "midi": 38,
          "time": 8.65853874999996,
          "velocity": 1,
          "duration": 0.010162604166666256
        },
        {
          "name": "E4",
          "midi": 64,
          "time": 8.780489999999961,
          "velocity": 0.5433070866141733,
          "duration": 0.10670734374999746
        },
        {
          "name": "A2",
          "midi": 45,
          "time": 8.780489999999961,
          "velocity": 0.6850393700787402,
          "duration": 0.11178864583333059
        },
        {
          "name": "F#4",
          "midi": 66,
          "time": 8.780489999999961,
          "velocity": 0.5590551181102362,
          "duration": 0.08130083333333182
        },
        {
          "name": "C5",
          "midi": 72,
          "time": 8.780489999999961,
          "velocity": 0.5748031496062992,
          "duration": 0.10162604166666434
        },
        {
          "name": "C5",
          "midi": 72,
          "time": 8.780489999999961,
          "velocity": 0.5748031496062992,
          "duration": 0.11686994791666372
        },
        {
          "name": "F3",
          "midi": 53,
          "time": 8.780489999999961,
          "velocity": 0.5196850393700787,
          "duration": 0.010162604166666256
        },
        {
          "name": "A4",
          "midi": 69,
          "time": 8.780489999999961,
          "velocity": 0.5984251968503937,
          "duration": 0.11178864583333059
        },
        {
          "name": "B5",
          "midi": 83,
          "time": 8.780489999999961,
          "velocity": 0.5433070866141733,
          "duration": 0.10670734374999746
        },
        {
          "name": "A1",
          "midi": 33,
          "time": 8.780489999999961,
          "velocity": 0.6850393700787402,
          "duration": 0.12703255208332997
        },
        {
          "name": "G4",
          "midi": 67,
          "time": 8.780489999999961,
          "velocity": 0.5275590551181102,
          "duration": 0.0762195312499987
        },
        {
          "name": "F#5",
          "midi": 78,
          "time": 8.780489999999961,
          "velocity": 0.5590551181102362,
          "duration": 0.08130083333333182
        },
        {
          "name": "C5",
          "midi": 72,
          "time": 8.785571302083294,
          "velocity": 0.8661417322834646,
          "duration": 0.11178864583333059
        },
        {
          "name": "E5",
          "midi": 76,
          "time": 8.79573390624996,
          "velocity": 0.8346456692913385,
          "duration": 0.08638213541666495
        },
        {
          "name": "B5",
          "midi": 83,
          "time": 8.800815208333294,
          "velocity": 0.8818897637795275,
          "duration": 0.09146343749999808
        },
        {
          "name": "D2",
          "midi": 38,
          "time": 8.902441249999958,
          "velocity": 1,
          "duration": 0.010162604166666256
        },
        {
          "name": "B5",
          "midi": 83,
          "time": 9.024392499999959,
          "velocity": 0.5039370078740157,
          "duration": 0.10670734374999746
        },
        {
          "name": "A4",
          "midi": 69,
          "time": 9.024392499999959,
          "velocity": 0.5984251968503937,
          "duration": 0.11686994791666372
        },
        {
          "name": "C5",
          "midi": 72,
          "time": 9.024392499999959,
          "velocity": 0.5433070866141733,
          "duration": 0.10162604166666434
        },
        {
          "name": "F#5",
          "midi": 78,
          "time": 9.024392499999959,
          "velocity": 0.5984251968503937,
          "duration": 0.09146343749999808
        },
        {
          "name": "F#2",
          "midi": 42,
          "time": 9.024392499999959,
          "velocity": 0.47244094488188976,
          "duration": 0.010162604166666256
        },
        {
          "name": "A2",
          "midi": 45,
          "time": 9.024392499999959,
          "velocity": 0.6614173228346457,
          "duration": 0.10670734374999746
        },
        {
          "name": "E4",
          "midi": 64,
          "time": 9.024392499999959,
          "velocity": 0.5039370078740157,
          "duration": 0.10670734374999746
        },
        {
          "name": "F3",
          "midi": 53,
          "time": 9.024392499999959,
          "velocity": 0.5984251968503937,
          "duration": 0.010162604166666256
        },
        {
          "name": "F#4",
          "midi": 66,
          "time": 9.024392499999959,
          "velocity": 0.5984251968503937,
          "duration": 0.09146343749999808
        },
        {
          "name": "G4",
          "midi": 67,
          "time": 9.024392499999959,
          "velocity": 0.5275590551181102,
          "duration": 0.0762195312499987
        },
        {
          "name": "A1",
          "midi": 33,
          "time": 9.024392499999959,
          "velocity": 0.6220472440944882,
          "duration": 0.1321138541666631
        },
        {
          "name": "D2",
          "midi": 38,
          "time": 9.024392499999959,
          "velocity": 0.8503937007874016,
          "duration": 0.010162604166666256
        },
        {
          "name": "C5",
          "midi": 72,
          "time": 9.024392499999959,
          "velocity": 0.5433070866141733,
          "duration": 0.11178864583333059
        },
        {
          "name": "C5",
          "midi": 72,
          "time": 9.029473802083292,
          "velocity": 0.8661417322834646,
          "duration": 0.10670734374999746
        },
        {
          "name": "E5",
          "midi": 76,
          "time": 9.039636406249958,
          "velocity": 0.8346456692913385,
          "duration": 0.08638213541666495
        },
        {
          "name": "B5",
          "midi": 83,
          "time": 9.044717708333291,
          "velocity": 0.8818897637795275,
          "duration": 0.09146343749999808
        },
        {
          "name": "D2",
          "midi": 38,
          "time": 9.146343749999955,
          "velocity": 1,
          "duration": 0.010162604166666256
        },
        {
          "name": "A4",
          "midi": 69,
          "time": 9.268294999999956,
          "velocity": 0.5984251968503937,
          "duration": 0.11178864583333059
        },
        {
          "name": "D#2",
          "midi": 39,
          "time": 9.268294999999956,
          "velocity": 0.984251968503937,
          "duration": 0.010162604166666256
        },
        {
          "name": "B5",
          "midi": 83,
          "time": 9.268294999999956,
          "velocity": 0.4881889763779528,
          "duration": 0.10162604166666434
        },
        {
          "name": "A1",
          "midi": 33,
          "time": 9.268294999999956,
          "velocity": 0.5433070866141733,
          "duration": 0.12195124999999685
        },
        {
          "name": "F#5",
          "midi": 78,
          "time": 9.268294999999956,
          "velocity": 0.5984251968503937,
          "duration": 0.08130083333333182
        },
        {
          "name": "G4",
          "midi": 67,
          "time": 9.268294999999956,
          "velocity": 0.5275590551181102,
          "duration": 0.0762195312499987
        },
        {
          "name": "E4",
          "midi": 64,
          "time": 9.268294999999956,
          "velocity": 0.4881889763779528,
          "duration": 0.10162604166666434
        },
        {
          "name": "A2",
          "midi": 45,
          "time": 9.268294999999956,
          "velocity": 0.5826771653543307,
          "duration": 0.12703255208332997
        },
        {
          "name": "C5",
          "midi": 72,
          "time": 9.268294999999956,
          "velocity": 0.5984251968503937,
          "duration": 0.10162604166666434
        },
        {
          "name": "F#4",
          "midi": 66,
          "time": 9.268294999999956,
          "velocity": 0.5984251968503937,
          "duration": 0.08130083333333182
        },
        {
          "name": "C5",
          "midi": 72,
          "time": 9.268294999999956,
          "velocity": 0.5984251968503937,
          "duration": 0.10670734374999746
        },
        {
          "name": "F3",
          "midi": 53,
          "time": 9.268294999999956,
          "velocity": 0.5748031496062992,
          "duration": 0.010162604166666256
        },
        {
          "name": "C5",
          "midi": 72,
          "time": 9.273376302083289,
          "velocity": 0.8661417322834646,
          "duration": 0.10162604166666434
        },
        {
          "name": "E5",
          "midi": 76,
          "time": 9.283538906249955,
          "velocity": 0.8346456692913385,
          "duration": 0.08638213541666495
        },
        {
          "name": "B5",
          "midi": 83,
          "time": 9.288620208333288,
          "velocity": 0.8818897637795275,
          "duration": 0.09146343749999808
        },
        {
          "name": "D2",
          "midi": 38,
          "time": 9.390246249999953,
          "velocity": 0.8503937007874016,
          "duration": 0.010162604166666256
        },
        {
          "name": "F#4",
          "midi": 66,
          "time": 9.512197499999953,
          "velocity": 0.5984251968503937,
          "duration": 0.08638213541666495
        },
        {
          "name": "C5",
          "midi": 72,
          "time": 9.512197499999953,
          "velocity": 0.5748031496062992,
          "duration": 0.10162604166666434
        },
        {
          "name": "B5",
          "midi": 83,
          "time": 9.512197499999953,
          "velocity": 0.5354330708661418,
          "duration": 0.11178864583333059
        },
        {
          "name": "A4",
          "midi": 69,
          "time": 9.512197499999953,
          "velocity": 0.5984251968503937,
          "duration": 0.12195124999999685
        },
        {
          "name": "G4",
          "midi": 67,
          "time": 9.512197499999953,
          "velocity": 0.5275590551181102,
          "duration": 0.0762195312499987
        },
        {
          "name": "C5",
          "midi": 72,
          "time": 9.512197499999953,
          "velocity": 0.5748031496062992,
          "duration": 0.12195124999999685
        },
        {
          "name": "F3",
          "midi": 53,
          "time": 9.512197499999953,
          "velocity": 0.5433070866141733,
          "duration": 0.010162604166666256
        },
        {
          "name": "D2",
          "midi": 38,
          "time": 9.512197499999953,
          "velocity": 0.8503937007874016,
          "duration": 0.010162604166666256
        },
        {
          "name": "A1",
          "midi": 33,
          "time": 9.512197499999953,
          "velocity": 0.6456692913385826,
          "duration": 0.1473577604166625
        },
        {
          "name": "E4",
          "midi": 64,
          "time": 9.512197499999953,
          "velocity": 0.5354330708661418,
          "duration": 0.11178864583333059
        },
        {
          "name": "F#5",
          "midi": 78,
          "time": 9.512197499999953,
          "velocity": 0.5984251968503937,
          "duration": 0.08638213541666495
        },
        {
          "name": "A2",
          "midi": 45,
          "time": 9.512197499999953,
          "velocity": 0.6614173228346457,
          "duration": 0.1473577604166625
        },
        {
          "name": "F#2",
          "midi": 42,
          "time": 9.512197499999953,
          "velocity": 0.47244094488188976,
          "duration": 0.010162604166666256
        },
        {
          "name": "C5",
          "midi": 72,
          "time": 9.517278802083286,
          "velocity": 0.8661417322834646,
          "duration": 0.11686994791666372
        },
        {
          "name": "E5",
          "midi": 76,
          "time": 9.527441406249952,
          "velocity": 0.8346456692913385,
          "duration": 0.08638213541666495
        },
        {
          "name": "B5",
          "midi": 83,
          "time": 9.532522708333286,
          "velocity": 0.8818897637795275,
          "duration": 0.09146343749999808
        },
        {
          "name": "D2",
          "midi": 38,
          "time": 9.63414874999995,
          "velocity": 1,
          "duration": 0.010162604166666256
        },
        {
          "name": "A3",
          "midi": 57,
          "time": 9.756099999999948,
          "velocity": 0.5354330708661418,
          "duration": 0.09146343749999808
        },
        {
          "name": "G4",
          "midi": 67,
          "time": 9.756099999999948,
          "velocity": 0.5433070866141733,
          "duration": 0.07113822916666557
        },
        {
          "name": "A1",
          "midi": 33,
          "time": 9.756099999999948,
          "velocity": 0.5590551181102362,
          "duration": 0.25914640624999485
        },
        {
          "name": "E4",
          "midi": 64,
          "time": 9.756099999999948,
          "velocity": 1,
          "duration": 0.11178864583333059
        },
        {
          "name": "C4",
          "midi": 60,
          "time": 9.756099999999948,
          "velocity": 0.5275590551181102,
          "duration": 0.08638213541666495
        },
        {
          "name": "C4",
          "midi": 60,
          "time": 9.756099999999948,
          "velocity": 0.5275590551181102,
          "duration": 0.08638213541666495
        },
        {
          "name": "A1",
          "midi": 33,
          "time": 9.756099999999948,
          "velocity": 0.8110236220472441,
          "duration": 0.3099594270833279
        },
        {
          "name": "D2",
          "midi": 38,
          "time": 9.756099999999948,
          "velocity": 1,
          "duration": 0.010162604166666256
        },
        {
          "name": "E4",
          "midi": 64,
          "time": 9.756099999999948,
          "velocity": 0.5275590551181102,
          "duration": 0.11178864583333059
        },
        {
          "name": "E4",
          "midi": 64,
          "time": 9.756099999999948,
          "velocity": 0.5275590551181102,
          "duration": 0.4674797916666602
        },
        {
          "name": "C5",
          "midi": 72,
          "time": 9.761181302083282,
          "velocity": 0.8661417322834646,
          "duration": 0.09654473958333121
        },
        {
          "name": "E5",
          "midi": 76,
          "time": 9.771343906249948,
          "velocity": 0.6692913385826772,
          "duration": 0.08638213541666495
        },
        {
          "name": "B5",
          "midi": 83,
          "time": 9.776425208333281,
          "velocity": 0.8818897637795275,
          "duration": 0.08638213541666495
        },
        {
          "name": "D2",
          "midi": 38,
          "time": 9.878051249999945,
          "velocity": 1,
          "duration": 0.010162604166666256
        },
        {
          "name": "D2",
          "midi": 38,
          "time": 10.000002499999944,
          "velocity": 0.9212598425196851,
          "duration": 0.010162604166666256
        },
        {
          "name": "F#2",
          "midi": 42,
          "time": 10.000002499999944,
          "velocity": 0.47244094488188976,
          "duration": 0.010162604166666256
        },
        {
          "name": "G4",
          "midi": 67,
          "time": 10.000002499999944,
          "velocity": 0.4094488188976378,
          "duration": 0.06097562499999931
        },
        {
          "name": "C5",
          "midi": 72,
          "time": 10.005083802083277,
          "velocity": 0.8110236220472441,
          "duration": 0.10162604166666611
        },
        {
          "name": "E5",
          "midi": 76,
          "time": 10.015246406249943,
          "velocity": 0.6692913385826772,
          "duration": 0.09146343749999986
        },
        {
          "name": "B5",
          "midi": 83,
          "time": 10.020327708333276,
          "velocity": 0.8818897637795275,
          "duration": 0.09146343749999986
        },
        {
          "name": "D2",
          "midi": 38,
          "time": 10.121953749999943,
          "velocity": 1,
          "duration": 0.010162604166666256
        },
        {
          "name": "G4",
          "midi": 67,
          "time": 10.233742395833275,
          "velocity": 0.4094488188976378,
          "duration": 0.10162604166666611
        },
        {
          "name": "B4",
          "midi": 71,
          "time": 10.243904999999941,
          "velocity": 0.952755905511811,
          "duration": 0.36585374999999587
        },
        {
          "name": "C2",
          "midi": 36,
          "time": 10.243904999999941,
          "velocity": 0.8110236220472441,
          "duration": 0.3150407291666628
        },
        {
          "name": "D#2",
          "midi": 39,
          "time": 10.243904999999941,
          "velocity": 1,
          "duration": 0.010162604166666256
        },
        {
          "name": "C5",
          "midi": 72,
          "time": 10.248986302083274,
          "velocity": 0.7874015748031497,
          "duration": 0.09654473958333298
        },
        {
          "name": "E5",
          "midi": 76,
          "time": 10.254067604166607,
          "velocity": 0.5039370078740157,
          "duration": 0.0813008333333336
        },
        {
          "name": "B5",
          "midi": 83,
          "time": 10.25914890624994,
          "velocity": 0.8818897637795275,
          "duration": 0.08638213541666673
        },
        {
          "name": "D2",
          "midi": 38,
          "time": 10.36585624999994,
          "velocity": 0.4251968503937008,
          "duration": 0.010162604166666256
        },
        {
          "name": "C2",
          "midi": 36,
          "time": 10.487807499999938,
          "velocity": 0.5590551181102362,
          "duration": 0.1930894791666642
        },
        {
          "name": "C5",
          "midi": 72,
          "time": 10.487807499999938,
          "velocity": 0.8503937007874016,
          "duration": 0.10670734374999924
        },
        {
          "name": "D#2",
          "midi": 39,
          "time": 10.487807499999938,
          "velocity": 0.9448818897637795,
          "duration": 0.030487812499998768
        },
        {
          "name": "F#2",
          "midi": 42,
          "time": 10.487807499999938,
          "velocity": 0.47244094488188976,
          "duration": 0.010162604166666256
        },
        {
          "name": "G4",
          "midi": 67,
          "time": 10.487807499999938,
          "velocity": 0.4094488188976378,
          "duration": 0.06097562499999931
        },
        {
          "name": "A3",
          "midi": 57,
          "time": 10.487807499999938,
          "velocity": 0.6220472440944882,
          "duration": 0.4319106770833283
        },
        {
          "name": "E4",
          "midi": 64,
          "time": 10.487807499999938,
          "velocity": 0.5590551181102362,
          "duration": 0.4471545833333277
        },
        {
          "name": "C4",
          "midi": 60,
          "time": 10.487807499999938,
          "velocity": 0.5984251968503937,
          "duration": 0.43699197916666144
        },
        {
          "name": "C4",
          "midi": 60,
          "time": 10.487807499999938,
          "velocity": 0.5984251968503937,
          "duration": 0.43699197916666144
        },
        {
          "name": "E4",
          "midi": 64,
          "time": 10.487807499999938,
          "velocity": 0.5590551181102362,
          "duration": 0.4471545833333277
        },
        {
          "name": "E5",
          "midi": 76,
          "time": 10.497970104166605,
          "velocity": 0.5590551181102362,
          "duration": 0.09146343749999986
        },
        {
          "name": "B5",
          "midi": 83,
          "time": 10.508132708333271,
          "velocity": 0.8818897637795275,
          "duration": 0.10162604166666611
        },
        {
          "name": "D2",
          "midi": 38,
          "time": 10.609758749999937,
          "velocity": 1,
          "duration": 0.010162604166666256
        },
        {
          "name": "G4",
          "midi": 67,
          "time": 10.72154739583327,
          "velocity": 0.5826771653543307,
          "duration": 0.09654473958333298
        },
        {
          "name": "C5",
          "midi": 72,
          "time": 10.726628697916603,
          "velocity": 0.8110236220472441,
          "duration": 0.10670734374999924
        },
        {
          "name": "E5",
          "midi": 76,
          "time": 10.731709999999936,
          "velocity": 0.6850393700787402,
          "duration": 0.1168699479166655
        },
        {
          "name": "D2",
          "midi": 38,
          "time": 10.731709999999936,
          "velocity": 1,
          "duration": 0.010162604166666256
        },
        {
          "name": "A#4",
          "midi": 70,
          "time": 10.731709999999936,
          "velocity": 1,
          "duration": 0.0406504166666668
        },
        {
          "name": "B5",
          "midi": 83,
          "time": 10.731709999999936,
          "velocity": 0.8818897637795275,
          "duration": 0.12195124999999862
        },
        {
          "name": "E2",
          "midi": 40,
          "time": 10.731709999999936,
          "velocity": 0.8110236220472441,
          "duration": 0.2896342187499954
        },
        {
          "name": "B4",
          "midi": 71,
          "time": 10.772360416666602,
          "velocity": 1,
          "duration": 0.6910570833333214
        },
        {
          "name": "D2",
          "midi": 38,
          "time": 10.853661249999934,
          "velocity": 1,
          "duration": 0.010162604166666256
        },
        {
          "name": "F#4",
          "midi": 66,
          "time": 10.955287291666599,
          "velocity": 0.3700787401574803,
          "duration": 0.010162604166666256
        },
        {
          "name": "C4",
          "midi": 60,
          "time": 10.975612499999931,
          "velocity": 0.5984251968503937,
          "duration": 0.050813020833333056
        },
        {
          "name": "D2",
          "midi": 38,
          "time": 10.975612499999931,
          "velocity": 0.9212598425196851,
          "duration": 0.010162604166666256
        },
        {
          "name": "C4",
          "midi": 60,
          "time": 10.975612499999931,
          "velocity": 0.5984251968503937,
          "duration": 0.050813020833333056
        },
        {
          "name": "E5",
          "midi": 76,
          "time": 10.975612499999931,
          "velocity": 0.6614173228346457,
          "duration": 0.10162604166666611
        },
        {
          "name": "E4",
          "midi": 64,
          "time": 10.975612499999931,
          "velocity": 0.5196850393700787,
          "duration": 0.055894322916666184
        },
        {
          "name": "F#2",
          "midi": 42,
          "time": 10.975612499999931,
          "velocity": 0.47244094488188976,
          "duration": 0.010162604166666256
        },
        {
          "name": "E4",
          "midi": 64,
          "time": 10.975612499999931,
          "velocity": 0.5196850393700787,
          "duration": 0.055894322916666184
        },
        {
          "name": "A3",
          "midi": 57,
          "time": 10.975612499999931,
          "velocity": 0.5748031496062992,
          "duration": 0.050813020833333056
        },
        {
          "name": "E2",
          "midi": 40,
          "time": 10.975612499999931,
          "velocity": 0.5590551181102362,
          "duration": 0.27947161458332914
        },
        {
          "name": "C5",
          "midi": 72,
          "time": 10.975612499999931,
          "velocity": 0.8110236220472441,
          "duration": 0.10162604166666611
        },
        {
          "name": "G4",
          "midi": 67,
          "time": 10.975612499999931,
          "velocity": 0.5196850393700787,
          "duration": 0.09146343749999986
        },
        {
          "name": "B5",
          "midi": 83,
          "time": 10.985775104166597,
          "velocity": 0.8818897637795275,
          "duration": 0.12195124999999862
        },
        {
          "name": "D2",
          "midi": 38,
          "time": 11.09756374999993,
          "velocity": 1,
          "duration": 0.010162604166666256
        },
        {
          "name": "G4",
          "midi": 67,
          "time": 11.199189791666596,
          "velocity": 0.49606299212598426,
          "duration": 0.13719515624999623
        },
        {
          "name": "C4",
          "midi": 60,
          "time": 11.219514999999928,
          "velocity": 0.49606299212598426,
          "duration": 0.05081302083333128
        },
        {
          "name": "E4",
          "midi": 64,
          "time": 11.219514999999928,
          "velocity": 0.47244094488188976,
          "duration": 0.060975624999997535
        },
        {
          "name": "F#2",
          "midi": 42,
          "time": 11.219514999999928,
          "velocity": 0.5590551181102362,
          "duration": 0.2286585937499961
        },
        {
          "name": "D#2",
          "midi": 39,
          "time": 11.219514999999928,
          "velocity": 1,
          "duration": 0.010162604166666256
        },
        {
          "name": "C4",
          "midi": 60,
          "time": 11.219514999999928,
          "velocity": 0.49606299212598426,
          "duration": 0.05081302083333128
        },
        {
          "name": "E4",
          "midi": 64,
          "time": 11.219514999999928,
          "velocity": 0.47244094488188976,
          "duration": 0.060975624999997535
        },
        {
          "name": "A3",
          "midi": 57,
          "time": 11.219514999999928,
          "velocity": 0.48031496062992124,
          "duration": 0.060975624999997535
        },
        {
          "name": "C5",
          "midi": 72,
          "time": 11.219514999999928,
          "velocity": 0.7559055118110236,
          "duration": 0.11686994791666372
        },
        {
          "name": "C2",
          "midi": 36,
          "time": 11.219514999999928,
          "velocity": 0.8110236220472441,
          "duration": 0.27439031249999424
        },
        {
          "name": "E5",
          "midi": 76,
          "time": 11.234758906249928,
          "velocity": 0.6614173228346457,
          "duration": 0.10162604166666434
        },
        {
          "name": "B5",
          "midi": 83,
          "time": 11.239840208333261,
          "velocity": 0.8818897637795275,
          "duration": 0.09146343749999808
        },
        {
          "name": "D2",
          "midi": 38,
          "time": 11.341466249999925,
          "velocity": 0.4251968503937008,
          "duration": 0.010162604166666256
        },
        {
          "name": "G4",
          "midi": 67,
          "time": 11.453254895833258,
          "velocity": 0.3464566929133858,
          "duration": 0.02540651041666564
        },
        {
          "name": "C5",
          "midi": 72,
          "time": 11.463417499999924,
          "velocity": 0.84251968503937,
          "duration": 0.1168699479166655
        },
        {
          "name": "A4",
          "midi": 69,
          "time": 11.463417499999924,
          "velocity": 1,
          "duration": 0.21341468749999848
        },
        {
          "name": "E2",
          "midi": 40,
          "time": 11.463417499999924,
          "velocity": 0.5590551181102362,
          "duration": 0.21341468749999848
        },
        {
          "name": "F#2",
          "midi": 42,
          "time": 11.463417499999924,
          "velocity": 0.47244094488188976,
          "duration": 0.010162604166666256
        },
        {
          "name": "D2",
          "midi": 38,
          "time": 11.463417499999924,
          "velocity": 0.8503937007874016,
          "duration": 0.010162604166666256
        },
        {
          "name": "E5",
          "midi": 76,
          "time": 11.468498802083257,
          "velocity": 0.5748031496062992,
          "duration": 0.1168699479166655
        },
        {
          "name": "B5",
          "midi": 83,
          "time": 11.47358010416659,
          "velocity": 0.8818897637795275,
          "duration": 0.10670734374999924
        },
        {
          "name": "D2",
          "midi": 38,
          "time": 11.585368749999922,
          "velocity": 1,
          "duration": 0.010162604166666256
        },
        {
          "name": "C4",
          "midi": 60,
          "time": 11.707319999999923,
          "velocity": 0.5275590551181102,
          "duration": 0.08638213541666673
        },
        {
          "name": "E4",
          "midi": 64,
          "time": 11.707319999999923,
          "velocity": 0.5275590551181102,
          "duration": 0.11178864583333237
        },
        {
          "name": "D2",
          "midi": 38,
          "time": 11.707319999999923,
          "velocity": 1,
          "duration": 0.010162604166666256
        },
        {
          "name": "A1",
          "midi": 33,
          "time": 11.707319999999923,
          "velocity": 0.5590551181102362,
          "duration": 0.274390312499996
        },
        {
          "name": "E4",
          "midi": 64,
          "time": 11.707319999999923,
          "velocity": 1,
          "duration": 0.11178864583333237
        },
        {
          "name": "G4",
          "midi": 67,
          "time": 11.707319999999923,
          "velocity": 0.6929133858267716,
          "duration": 0.11178864583333237
        },
        {
          "name": "C4",
          "midi": 60,
          "time": 11.707319999999923,
          "velocity": 0.5275590551181102,
          "duration": 0.08638213541666673
        },
        {
          "name": "E4",
          "midi": 64,
          "time": 11.707319999999923,
          "velocity": 0.5275590551181102,
          "duration": 0.233739895833331
        },
        {
          "name": "A3",
          "midi": 57,
          "time": 11.707319999999923,
          "velocity": 0.5354330708661418,
          "duration": 0.09146343749999986
        },
        {
          "name": "A1",
          "midi": 33,
          "time": 11.707319999999923,
          "velocity": 0.7874015748031497,
          "duration": 0.30487812499999656
        },
        {
          "name": "E5",
          "midi": 76,
          "time": 11.71748260416659,
          "velocity": 0.8188976377952756,
          "duration": 0.13211385416666488
        },
        {
          "name": "C5",
          "midi": 72,
          "time": 11.71748260416659,
          "velocity": 0.8267716535433071,
          "duration": 0.11178864583333237
        },
        {
          "name": "B5",
          "midi": 83,
          "time": 11.727645208333255,
          "velocity": 0.8818897637795275,
          "duration": 0.12195124999999862
        },
        {
          "name": "D2",
          "midi": 38,
          "time": 11.829271249999922,
          "velocity": 1,
          "duration": 0.010162604166666256
        },
        {
          "name": "F#4",
          "midi": 66,
          "time": 11.946141197916587,
          "velocity": 0.28346456692913385,
          "duration": 0.005081302083333128
        },
        {
          "name": "A4",
          "midi": 69,
          "time": 11.95122249999992,
          "velocity": 0.889763779527559,
          "duration": 0.233739895833331
        },
        {
          "name": "G4",
          "midi": 67,
          "time": 11.95122249999992,
          "velocity": 0.49606299212598426,
          "duration": 0.08130083333333182
        },
        {
          "name": "D2",
          "midi": 38,
          "time": 11.95122249999992,
          "velocity": 0.9212598425196851,
          "duration": 0.010162604166666256
        },
        {
          "name": "F#2",
          "midi": 42,
          "time": 11.95122249999992,
          "velocity": 0.47244094488188976,
          "duration": 0.010162604166666256
        },
        {
          "name": "C5",
          "midi": 72,
          "time": 11.956303802083253,
          "velocity": 0.8503937007874016,
          "duration": 0.10670734374999924
        },
        {
          "name": "E5",
          "midi": 76,
          "time": 11.961385104166586,
          "velocity": 0.6456692913385826,
          "duration": 0.13211385416666488
        },
        {
          "name": "B5",
          "midi": 83,
          "time": 11.96646640624992,
          "velocity": 0.8582677165354331,
          "duration": 0.1168699479166655
        },
        {
          "name": "D2",
          "midi": 38,
          "time": 12.073173749999919,
          "velocity": 1,
          "duration": 0.010162604166666256
        },
        {
          "name": "G4",
          "midi": 67,
          "time": 12.190043697916584,
          "velocity": 0.48031496062992124,
          "duration": 0.015243906249999384
        },
        {
          "name": "B4",
          "midi": 71,
          "time": 12.195124999999917,
          "velocity": 0.952755905511811,
          "duration": 0.233739895833331
        },
        {
          "name": "D#2",
          "midi": 39,
          "time": 12.195124999999917,
          "velocity": 1,
          "duration": 0.010162604166666256
        },
        {
          "name": "C2",
          "midi": 36,
          "time": 12.195124999999917,
          "velocity": 0.84251968503937,
          "duration": 0.32520333333332907
        },
        {
          "name": "C5",
          "midi": 72,
          "time": 12.195124999999917,
          "velocity": 0.8267716535433071,
          "duration": 0.1168699479166655
        },
        {
          "name": "E5",
          "midi": 76,
          "time": 12.20020630208325,
          "velocity": 0.6377952755905512,
          "duration": 0.11178864583333237
        },
        {
          "name": "B5",
          "midi": 83,
          "time": 12.205287604166584,
          "velocity": 0.8818897637795275,
          "duration": 0.1168699479166655
        },
        {
          "name": "D2",
          "midi": 38,
          "time": 12.317076249999916,
          "velocity": 0.4251968503937008,
          "duration": 0.010162604166666256
        },
        {
          "name": "G4",
          "midi": 67,
          "time": 12.428864895833248,
          "velocity": 0.5826771653543307,
          "duration": 0.1168699479166655
        },
        {
          "name": "C5",
          "midi": 72,
          "time": 12.433946197916582,
          "velocity": 0.7637795275590551,
          "duration": 0.12195124999999862
        },
        {
          "name": "C5",
          "midi": 72,
          "time": 12.439027499999915,
          "velocity": 0.8582677165354331,
          "duration": 0.233739895833331
        },
        {
          "name": "D#2",
          "midi": 39,
          "time": 12.439027499999915,
          "velocity": 0.9448818897637795,
          "duration": 0.030487812499998768
        },
        {
          "name": "F#2",
          "midi": 42,
          "time": 12.439027499999915,
          "velocity": 0.47244094488188976,
          "duration": 0.010162604166666256
        },
        {
          "name": "C4",
          "midi": 60,
          "time": 12.439027499999915,
          "velocity": 0.5984251968503937,
          "duration": 0.43699197916666144
        },
        {
          "name": "A3",
          "midi": 57,
          "time": 12.439027499999915,
          "velocity": 0.6220472440944882,
          "duration": 0.4319106770833283
        },
        {
          "name": "E5",
          "midi": 76,
          "time": 12.439027499999915,
          "velocity": 0.6141732283464567,
          "duration": 0.10670734374999924
        },
        {
          "name": "E4",
          "midi": 64,
          "time": 12.439027499999915,
          "velocity": 0.5590551181102362,
          "duration": 0.4471545833333277
        },
        {
          "name": "C2",
          "midi": 36,
          "time": 12.439027499999915,
          "velocity": 0.5590551181102362,
          "duration": 0.21341468749999848
        },
        {
          "name": "C4",
          "midi": 60,
          "time": 12.439027499999915,
          "velocity": 0.5984251968503937,
          "duration": 0.43699197916666144
        },
        {
          "name": "E4",
          "midi": 64,
          "time": 12.439027499999915,
          "velocity": 0.5590551181102362,
          "duration": 0.4471545833333277
        },
        {
          "name": "B5",
          "midi": 83,
          "time": 12.449190104166581,
          "velocity": 0.8346456692913385,
          "duration": 0.10162604166666611
        },
        {
          "name": "D2",
          "midi": 38,
          "time": 12.560978749999913,
          "velocity": 1,
          "duration": 0.010162604166666256
        },
        {
          "name": "G4",
          "midi": 67,
          "time": 12.677848697916579,
          "velocity": 0.5590551181102362,
          "duration": 0.11178864583333237
        },
        {
          "name": "D2",
          "midi": 38,
          "time": 12.682929999999912,
          "velocity": 1,
          "duration": 0.010162604166666256
        },
        {
          "name": "E2",
          "midi": 40,
          "time": 12.682929999999912,
          "velocity": 0.7559055118110236,
          "duration": 0.32012203124999594
        },
        {
          "name": "C5",
          "midi": 72,
          "time": 12.688011302083245,
          "velocity": 0.8110236220472441,
          "duration": 0.09654473958333298
        },
        {
          "name": "A#4",
          "midi": 70,
          "time": 12.698173906249911,
          "velocity": 1,
          "duration": 0.0406504166666668
        },
        {
          "name": "E5",
          "midi": 76,
          "time": 12.698173906249911,
          "velocity": 0.6692913385826772,
          "duration": 0.09654473958333298
        },
        {
          "name": "B5",
          "midi": 83,
          "time": 12.703255208333244,
          "velocity": 0.7322834645669292,
          "duration": 0.010162604166666256
        },
        {
          "name": "B5",
          "midi": 83,
          "time": 12.71341781249991,
          "velocity": 0.8818897637795275,
          "duration": 0.07113822916666734
        },
        {
          "name": "B4",
          "midi": 71,
          "time": 12.738824322916578,
          "velocity": 1,
          "duration": 0.6910570833333232
        },
        {
          "name": "D2",
          "midi": 38,
          "time": 12.80488124999991,
          "velocity": 1,
          "duration": 0.010162604166666256
        },
        {
          "name": "G4",
          "midi": 67,
          "time": 12.91158859374991,
          "velocity": 0.5275590551181102,
          "duration": 0.08130083333333182
        },
        {
          "name": "C5",
          "midi": 72,
          "time": 12.916669895833243,
          "velocity": 0.7559055118110236,
          "duration": 0.08130083333333182
        },
        {
          "name": "E5",
          "midi": 76,
          "time": 12.921751197916576,
          "velocity": 0.6377952755905512,
          "duration": 0.09146343749999808
        },
        {
          "name": "A3",
          "midi": 57,
          "time": 12.92683249999991,
          "velocity": 0.5748031496062992,
          "duration": 0.050813020833333056
        },
        {
          "name": "E4",
          "midi": 64,
          "time": 12.92683249999991,
          "velocity": 0.5196850393700787,
          "duration": 0.055894322916666184
        },
        {
          "name": "C4",
          "midi": 60,
          "time": 12.92683249999991,
          "velocity": 0.5984251968503937,
          "duration": 0.050813020833333056
        },
        {
          "name": "E2",
          "midi": 40,
          "time": 12.92683249999991,
          "velocity": 0.5590551181102362,
          "duration": 0.29979682291666343
        },
        {
          "name": "E4",
          "midi": 64,
          "time": 12.92683249999991,
          "velocity": 0.5196850393700787,
          "duration": 0.055894322916666184
        },
        {
          "name": "F#2",
          "midi": 42,
          "time": 12.92683249999991,
          "velocity": 0.47244094488188976,
          "duration": 0.010162604166666256
        },
        {
          "name": "C4",
          "midi": 60,
          "time": 12.92683249999991,
          "velocity": 0.5984251968503937,
          "duration": 0.050813020833333056
        },
        {
          "name": "D2",
          "midi": 38,
          "time": 12.92683249999991,
          "velocity": 0.9212598425196851,
          "duration": 0.010162604166666256
        },
        {
          "name": "B5",
          "midi": 83,
          "time": 12.936995104166575,
          "velocity": 0.8818897637795275,
          "duration": 0.07113822916666557
        },
        {
          "name": "D2",
          "midi": 38,
          "time": 13.048783749999908,
          "velocity": 1,
          "duration": 0.010162604166666256
        },
        {
          "name": "G4",
          "midi": 67,
          "time": 13.150409791666574,
          "velocity": 0.5039370078740157,
          "duration": 0.10162604166666434
        },
        {
          "name": "F#2",
          "midi": 42,
          "time": 13.170734999999906,
          "velocity": 0.5590551181102362,
          "duration": 0.2489838020833286
        },
        {
          "name": "A3",
          "midi": 57,
          "time": 13.170734999999906,
          "velocity": 0.48031496062992124,
          "duration": 0.06097562499999931
        },
        {
          "name": "C5",
          "midi": 72,
          "time": 13.170734999999906,
          "velocity": 0.7716535433070866,
          "duration": 0.09654473958333121
        },
        {
          "name": "E4",
          "midi": 64,
          "time": 13.170734999999906,
          "velocity": 0.47244094488188976,
          "duration": 0.06097562499999931
        },
        {
          "name": "E4",
          "midi": 64,
          "time": 13.170734999999906,
          "velocity": 0.47244094488188976,
          "duration": 0.06097562499999931
        },
        {
          "name": "D#2",
          "midi": 39,
          "time": 13.170734999999906,
          "velocity": 1,
          "duration": 0.010162604166666256
        },
        {
          "name": "C4",
          "midi": 60,
          "time": 13.170734999999906,
          "velocity": 0.49606299212598426,
          "duration": 0.050813020833333056
        },
        {
          "name": "C2",
          "midi": 36,
          "time": 13.170734999999906,
          "velocity": 0.7244094488188977,
          "duration": 0.19308947916666241
        },
        {
          "name": "C4",
          "midi": 60,
          "time": 13.170734999999906,
          "velocity": 0.49606299212598426,
          "duration": 0.050813020833333056
        },
        {
          "name": "E5",
          "midi": 76,
          "time": 13.185978906249906,
          "velocity": 0.6929133858267716,
          "duration": 0.08638213541666495
        },
        {
          "name": "B5",
          "midi": 83,
          "time": 13.196141510416572,
          "velocity": 0.8818897637795275,
          "duration": 0.10162604166666434
        },
        {
          "name": "D2",
          "midi": 38,
          "time": 13.292686249999903,
          "velocity": 0.4251968503937008,
          "duration": 0.010162604166666256
        },
        {
          "name": "G#4",
          "midi": 68,
          "time": 13.399393593749902,
          "velocity": 0.3464566929133858,
          "duration": 0.010162604166666256
        },
        {
          "name": "E2",
          "midi": 40,
          "time": 13.414637499999902,
          "velocity": 0.5590551181102362,
          "duration": 0.18800817708333106
        },
        {
          "name": "G4",
          "midi": 67,
          "time": 13.414637499999902,
          "velocity": 0.4094488188976378,
          "duration": 0.10670734374999924
        },
        {
          "name": "D2",
          "midi": 38,
          "time": 13.414637499999902,
          "velocity": 0.8503937007874016,
          "duration": 0.010162604166666256
        },
        {
          "name": "F#2",
          "midi": 42,
          "time": 13.414637499999902,
          "velocity": 0.47244094488188976,
          "duration": 0.010162604166666256
        },
        {
          "name": "C5",
          "midi": 72,
          "time": 13.419718802083235,
          "velocity": 0.7637795275590551,
          "duration": 0.10670734374999924
        },
        {
          "name": "E5",
          "midi": 76,
          "time": 13.424800104166568,
          "velocity": 0.5590551181102362,
          "duration": 0.0813008333333336
        },
        {
          "name": "B5",
          "midi": 83,
          "time": 13.429881406249901,
          "velocity": 0.7637795275590551,
          "duration": 0.1168699479166655
        },
        {
          "name": "D2",
          "midi": 38,
          "time": 13.5365887499999,
          "velocity": 1,
          "duration": 0.010162604166666256
        },
        {
          "name": "D4",
          "midi": 62,
          "time": 13.658539999999899,
          "velocity": 0.5748031496062992,
          "duration": 0.035569114583331896
        },
        {
          "name": "A4",
          "midi": 69,
          "time": 13.658539999999899,
          "velocity": 0.889763779527559,
          "duration": 0.09654473958333121
        },
        {
          "name": "D4",
          "midi": 62,
          "time": 13.658539999999899,
          "velocity": 0.5748031496062992,
          "duration": 0.035569114583331896
        },
        {
          "name": "A3",
          "midi": 57,
          "time": 13.658539999999899,
          "velocity": 0.5433070866141733,
          "duration": 0.05081302083333128
        },
        {
          "name": "F4",
          "midi": 65,
          "time": 13.658539999999899,
          "velocity": 0.6614173228346457,
          "duration": 0.04573171874999815
        },
        {
          "name": "D2",
          "midi": 38,
          "time": 13.658539999999899,
          "velocity": 0.8110236220472441,
          "duration": 0.010162604166666256
        },
        {
          "name": "F4",
          "midi": 65,
          "time": 13.658539999999899,
          "velocity": 0.6614173228346457,
          "duration": 0.04573171874999815
        },
        {
          "name": "D2",
          "midi": 38,
          "time": 13.658539999999899,
          "velocity": 1,
          "duration": 0.1321138541666631
        },
        {
          "name": "D2",
          "midi": 38,
          "time": 13.658539999999899,
          "velocity": 0.5590551181102362,
          "duration": 0.2540651041666617
        },
        {
          "name": "C4",
          "midi": 60,
          "time": 13.658539999999899,
          "velocity": 0.4881889763779528,
          "duration": 0.0762195312499987
        },
        {
          "name": "F4",
          "midi": 65,
          "time": 13.663621302083232,
          "velocity": 0.9212598425196851,
          "duration": 0.09654473958333121
        },
        {
          "name": "A4",
          "midi": 69,
          "time": 13.673783906249898,
          "velocity": 0.6062992125984252,
          "duration": 0.21849598958332983
        },
        {
          "name": "E5",
          "midi": 76,
          "time": 13.678865208333232,
          "velocity": 0.937007874015748,
          "duration": 0.08638213541666495
        },
        {
          "name": "D2",
          "midi": 38,
          "time": 13.780491249999896,
          "velocity": 1,
          "duration": 0.16768296874999855
        },
        {
          "name": "D2",
          "midi": 38,
          "time": 13.902442499999895,
          "velocity": 0.9212598425196851,
          "duration": 0.11178864583333237
        },
        {
          "name": "F#2",
          "midi": 42,
          "time": 13.902442499999895,
          "velocity": 0.47244094488188976,
          "duration": 0.010162604166666256
        },
        {
          "name": "D5",
          "midi": 74,
          "time": 13.902442499999895,
          "velocity": 0.8976377952755905,
          "duration": 0.233739895833331
        },
        {
          "name": "E5",
          "midi": 76,
          "time": 13.902442499999895,
          "velocity": 0.9133858267716536,
          "duration": 0.010162604166666256
        },
        {
          "name": "F4",
          "midi": 65,
          "time": 13.907523802083228,
          "velocity": 0.9212598425196851,
          "duration": 0.10162604166666611
        },
        {
          "name": "A4",
          "midi": 69,
          "time": 13.917686406249894,
          "velocity": 0.6062992125984252,
          "duration": 0.09146343749999986
        },
        {
          "name": "E5",
          "midi": 76,
          "time": 13.922767708333227,
          "velocity": 0.937007874015748,
          "duration": 0.09146343749999986
        },
        {
          "name": "D2",
          "midi": 38,
          "time": 14.024393749999893,
          "velocity": 1,
          "duration": 0.010162604166666256
        },
        {
          "name": "C4",
          "midi": 60,
          "time": 14.136182395833226,
          "velocity": 0.3700787401574803,
          "duration": 0.10162604166666611
        },
        {
          "name": "F2",
          "midi": 41,
          "time": 14.146344999999892,
          "velocity": 0.8110236220472441,
          "duration": 0.3099594270833297
        },
        {
          "name": "D#2",
          "midi": 39,
          "time": 14.146344999999892,
          "velocity": 1,
          "duration": 0.010162604166666256
        },
        {
          "name": "E5",
          "midi": 76,
          "time": 14.146344999999892,
          "velocity": 0.9133858267716536,
          "duration": 0.10162604166666611
        },
        {
          "name": "F4",
          "midi": 65,
          "time": 14.151426302083225,
          "velocity": 0.8503937007874016,
          "duration": 0.09654473958333298
        },
        {
          "name": "A4",
          "midi": 69,
          "time": 14.156507604166558,
          "velocity": 0.4566929133858268,
          "duration": 0.0813008333333336
        },
        {
          "name": "E5",
          "midi": 76,
          "time": 14.161588906249891,
          "velocity": 0.937007874015748,
          "duration": 0.2184959895833316
        },
        {
          "name": "D2",
          "midi": 38,
          "time": 14.26829624999989,
          "velocity": 0.4251968503937008,
          "duration": 0.010162604166666256
        },
        {
          "name": "A3",
          "midi": 57,
          "time": 14.390247499999889,
          "velocity": 0.6220472440944882,
          "duration": 0.594512343749992
        },
        {
          "name": "F4",
          "midi": 65,
          "time": 14.390247499999889,
          "velocity": 0.7322834645669292,
          "duration": 0.10670734374999924
        },
        {
          "name": "D4",
          "midi": 62,
          "time": 14.390247499999889,
          "velocity": 0.6850393700787402,
          "duration": 0.594512343749992
        },
        {
          "name": "E5",
          "midi": 76,
          "time": 14.390247499999889,
          "velocity": 0.7244094488188977,
          "duration": 0.005081302083333128
        },
        {
          "name": "F2",
          "midi": 41,
          "time": 14.390247499999889,
          "velocity": 0.5590551181102362,
          "duration": 0.26422770833332976
        },
        {
          "name": "F#2",
          "midi": 42,
          "time": 14.390247499999889,
          "velocity": 0.47244094488188976,
          "duration": 0.010162604166666256
        },
        {
          "name": "F5",
          "midi": 77,
          "time": 14.390247499999889,
          "velocity": 0.8346456692913385,
          "duration": 0.233739895833331
        },
        {
          "name": "D4",
          "midi": 62,
          "time": 14.390247499999889,
          "velocity": 0.6850393700787402,
          "duration": 0.594512343749992
        },
        {
          "name": "F4",
          "midi": 65,
          "time": 14.390247499999889,
          "velocity": 0.6456692913385826,
          "duration": 0.3455285416666616
        },
        {
          "name": "F4",
          "midi": 65,
          "time": 14.390247499999889,
          "velocity": 0.6456692913385826,
          "duration": 0.5894310416666588
        },
        {
          "name": "D#2",
          "midi": 39,
          "time": 14.390247499999889,
          "velocity": 0.9448818897637795,
          "duration": 0.030487812499998768
        },
        {
          "name": "A4",
          "midi": 69,
          "time": 14.400410104166555,
          "velocity": 0.5039370078740157,
          "duration": 0.09146343749999986
        },
        {
          "name": "E5",
          "midi": 76,
          "time": 14.410572708333222,
          "velocity": 0.8661417322834646,
          "duration": 0.10162604166666611
        },
        {
          "name": "D2",
          "midi": 38,
          "time": 14.512198749999888,
          "velocity": 1,
          "duration": 0.010162604166666256
        },
        {
          "name": "C4",
          "midi": 60,
          "time": 14.62398739583322,
          "velocity": 0.5275590551181102,
          "duration": 0.09654473958333121
        },
        {
          "name": "F4",
          "midi": 65,
          "time": 14.629068697916553,
          "velocity": 0.7322834645669292,
          "duration": 0.3658537499999941
        },
        {
          "name": "E5",
          "midi": 76,
          "time": 14.634149999999886,
          "velocity": 1,
          "duration": 0.12195124999999685
        },
        {
          "name": "E5",
          "midi": 76,
          "time": 14.634149999999886,
          "velocity": 0.8818897637795275,
          "duration": 0.37601635416666035
        },
        {
          "name": "D2",
          "midi": 38,
          "time": 14.634149999999886,
          "velocity": 1,
          "duration": 0.010162604166666256
        },
        {
          "name": "A4",
          "midi": 69,
          "time": 14.634149999999886,
          "velocity": 0.6220472440944882,
          "duration": 0.11686994791666372
        },
        {
          "name": "A2",
          "midi": 45,
          "time": 14.634149999999886,
          "velocity": 0.8110236220472441,
          "duration": 0.29979682291666165
        },
        {
          "name": "D2",
          "midi": 38,
          "time": 14.756101249999883,
          "velocity": 1,
          "duration": 0.010162604166666256
        },
        {
          "name": "B3",
          "midi": 59,
          "time": 14.85772729166655,
          "velocity": 0.5590551181102362,
          "duration": 0.02540651041666564
        },
        {
          "name": "F#2",
          "midi": 42,
          "time": 14.878052499999882,
          "velocity": 0.47244094488188976,
          "duration": 0.010162604166666256
        },
        {
          "name": "D2",
          "midi": 38,
          "time": 14.878052499999882,
          "velocity": 0.9212598425196851,
          "duration": 0.010162604166666256
        },
        {
          "name": "A2",
          "midi": 45,
          "time": 14.878052499999882,
          "velocity": 0.5590551181102362,
          "duration": 0.24390249999999725
        },
        {
          "name": "A4",
          "midi": 69,
          "time": 14.878052499999882,
          "velocity": 0.5984251968503937,
          "duration": 0.10162604166666611
        },
        {
          "name": "C4",
          "midi": 60,
          "time": 14.878052499999882,
          "velocity": 0.47244094488188976,
          "duration": 0.09146343749999986
        },
        {
          "name": "F4",
          "midi": 65,
          "time": 14.878052499999882,
          "velocity": 0.9212598425196851,
          "duration": 0.1168699479166655
        },
        {
          "name": "E5",
          "midi": 76,
          "time": 14.888215104166548,
          "velocity": 0.8818897637795275,
          "duration": 0.3455285416666616
        },
        {
          "name": "D2",
          "midi": 38,
          "time": 15.00000374999988,
          "velocity": 1,
          "duration": 0.010162604166666256
        },
        {
          "name": "C4",
          "midi": 60,
          "time": 15.101629791666547,
          "velocity": 0.44881889763779526,
          "duration": 0.13719515624999623
        },
        {
          "name": "D4",
          "midi": 62,
          "time": 15.121954999999879,
          "velocity": 0.5590551181102362,
          "duration": 0.06605692708333066
        },
        {
          "name": "F4",
          "midi": 65,
          "time": 15.121954999999879,
          "velocity": 0.6456692913385826,
          "duration": 0.07113822916666379
        },
        {
          "name": "D4",
          "midi": 62,
          "time": 15.121954999999879,
          "velocity": 0.5590551181102362,
          "duration": 0.06605692708333066
        },
        {
          "name": "A3",
          "midi": 57,
          "time": 15.121954999999879,
          "velocity": 0.5748031496062992,
          "duration": 0.07113822916666379
        },
        {
          "name": "B2",
          "midi": 47,
          "time": 15.121954999999879,
          "velocity": 0.5590551181102362,
          "duration": 0.21849598958332983
        },
        {
          "name": "D#2",
          "midi": 39,
          "time": 15.121954999999879,
          "velocity": 1,
          "duration": 0.010162604166666256
        },
        {
          "name": "F4",
          "midi": 65,
          "time": 15.121954999999879,
          "velocity": 0.8661417322834646,
          "duration": 0.07113822916666379
        },
        {
          "name": "F4",
          "midi": 65,
          "time": 15.121954999999879,
          "velocity": 0.6456692913385826,
          "duration": 0.11686994791666372
        },
        {
          "name": "F2",
          "midi": 41,
          "time": 15.121954999999879,
          "velocity": 0.8110236220472441,
          "duration": 0.35569114583332784
        },
        {
          "name": "A4",
          "midi": 69,
          "time": 15.137198906249878,
          "velocity": 0.5984251968503937,
          "duration": 0.10162604166666434
        },
        {
          "name": "E5",
          "midi": 76,
          "time": 15.142280208333212,
          "velocity": 0.9291338582677166,
          "duration": 0.34044723958332845
        },
        {
          "name": "D2",
          "midi": 38,
          "time": 15.243906249999876,
          "velocity": 0.4251968503937008,
          "duration": 0.010162604166666256
        },
        {
          "name": "C4",
          "midi": 60,
          "time": 15.355694895833208,
          "velocity": 0.31496062992125984,
          "duration": 0.02540651041666564
        },
        {
          "name": "D2",
          "midi": 38,
          "time": 15.365857499999874,
          "velocity": 0.8503937007874016,
          "duration": 0.010162604166666256
        },
        {
          "name": "F4",
          "midi": 65,
          "time": 15.365857499999874,
          "velocity": 0.8110236220472441,
          "duration": 0.1168699479166655
        },
        {
          "name": "A2",
          "midi": 45,
          "time": 15.365857499999874,
          "velocity": 0.5590551181102362,
          "duration": 0.22865859374999964
        },
        {
          "name": "F#2",
          "midi": 42,
          "time": 15.365857499999874,
          "velocity": 0.47244094488188976,
          "duration": 0.010162604166666256
        },
        {
          "name": "A4",
          "midi": 69,
          "time": 15.370938802083208,
          "velocity": 0.5196850393700787,
          "duration": 0.1168699479166655
        },
        {
          "name": "E5",
          "midi": 76,
          "time": 15.37602010416654,
          "velocity": 0.937007874015748,
          "duration": 0.19308947916666597
        },
        {
          "name": "D2",
          "midi": 38,
          "time": 15.487808749999873,
          "velocity": 1,
          "duration": 0.010162604166666256
        },
        {
          "name": "D4",
          "midi": 62,
          "time": 15.609759999999874,
          "velocity": 0.48031496062992124,
          "duration": 0.06097562499999931
        },
        {
          "name": "D2",
          "midi": 38,
          "time": 15.609759999999874,
          "velocity": 0.8110236220472441,
          "duration": 0.010162604166666256
        },
        {
          "name": "F4",
          "midi": 65,
          "time": 15.609759999999874,
          "velocity": 0.4015748031496063,
          "duration": 0.06097562499999931
        },
        {
          "name": "A3",
          "midi": 57,
          "time": 15.609759999999874,
          "velocity": 0.2992125984251969,
          "duration": 0.050813020833333056
        },
        {
          "name": "D2",
          "midi": 38,
          "time": 15.609759999999874,
          "velocity": 1,
          "duration": 0.13211385416666488
        },
        {
          "name": "C4",
          "midi": 60,
          "time": 15.609759999999874,
          "velocity": 0.6299212598425197,
          "duration": 0.11178864583333237
        },
        {
          "name": "F4",
          "midi": 65,
          "time": 15.609759999999874,
          "velocity": 0.4015748031496063,
          "duration": 0.06097562499999931
        },
        {
          "name": "D4",
          "midi": 62,
          "time": 15.609759999999874,
          "velocity": 0.48031496062992124,
          "duration": 0.06097562499999931
        },
        {
          "name": "A4",
          "midi": 69,
          "time": 15.609759999999874,
          "velocity": 0.8346456692913385,
          "duration": 0.14227645833333114
        },
        {
          "name": "D2",
          "midi": 38,
          "time": 15.609759999999874,
          "velocity": 0.5590551181102362,
          "duration": 0.2540651041666635
        },
        {
          "name": "A4",
          "midi": 69,
          "time": 15.61992260416654,
          "velocity": 0.7401574803149606,
          "duration": 0.22357729166666473
        },
        {
          "name": "F4",
          "midi": 65,
          "time": 15.61992260416654,
          "velocity": 0.8503937007874016,
          "duration": 0.11178864583333237
        },
        {
          "name": "E5",
          "midi": 76,
          "time": 15.630085208333206,
          "velocity": 0.889763779527559,
          "duration": 0.12195124999999862
        },
        {
          "name": "D2",
          "midi": 38,
          "time": 15.731711249999872,
          "velocity": 1,
          "duration": 0.13211385416666488
        },
        {
          "name": "B3",
          "midi": 59,
          "time": 15.848581197916538,
          "velocity": 0.5669291338582677,
          "duration": 0.020325208333332512
        },
        {
          "name": "D5",
          "midi": 74,
          "time": 15.85366249999987,
          "velocity": 0.9133858267716536,
          "duration": 0.233739895833331
        },
        {
          "name": "D2",
          "midi": 38,
          "time": 15.85366249999987,
          "velocity": 0.9212598425196851,
          "duration": 0.02540651041666564
        },
        {
          "name": "F#2",
          "midi": 42,
          "time": 15.85366249999987,
          "velocity": 0.47244094488188976,
          "duration": 0.010162604166666256
        },
        {
          "name": "C4",
          "midi": 60,
          "time": 15.85366249999987,
          "velocity": 0.44881889763779526,
          "duration": 0.08130083333333182
        },
        {
          "name": "F4",
          "midi": 65,
          "time": 15.858743802083204,
          "velocity": 0.8346456692913385,
          "duration": 0.10670734374999924
        },
        {
          "name": "A4",
          "midi": 69,
          "time": 15.863825104166537,
          "velocity": 0.5826771653543307,
          "duration": 0.13211385416666488
        },
        {
          "name": "E5",
          "midi": 76,
          "time": 15.86890640624987,
          "velocity": 0.8267716535433071,
          "duration": 0.1168699479166655
        },
        {
          "name": "D2",
          "midi": 38,
          "time": 15.97561374999987,
          "velocity": 1,
          "duration": 0.010162604166666256
        },
        {
          "name": "C4",
          "midi": 60,
          "time": 16.092483697916535,
          "velocity": 0.4330708661417323,
          "duration": 0.015243906249999384
        },
        {
          "name": "F2",
          "midi": 41,
          "time": 16.097564999999868,
          "velocity": 0.6850393700787402,
          "duration": 0.31504072916666104
        },
        {
          "name": "D#2",
          "midi": 39,
          "time": 16.097564999999868,
          "velocity": 1,
          "duration": 0.010162604166666256
        },
        {
          "name": "E5",
          "midi": 76,
          "time": 16.097564999999868,
          "velocity": 0.7244094488188977,
          "duration": 0.12703255208333175
        },
        {
          "name": "F4",
          "midi": 65,
          "time": 16.097564999999868,
          "velocity": 0.7716535433070866,
          "duration": 0.1168699479166655
        },
        {
          "name": "A4",
          "midi": 69,
          "time": 16.1026463020832,
          "velocity": 0.5748031496062992,
          "duration": 0.11178864583333237
        },
        {
          "name": "E5",
          "midi": 76,
          "time": 16.107727604166534,
          "velocity": 0.8976377952755905,
          "duration": 0.22357729166666473
        },
        {
          "name": "D2",
          "midi": 38,
          "time": 16.219516249999867,
          "velocity": 0.4251968503937008,
          "duration": 0.010162604166666256
        },
        {
          "name": "C4",
          "midi": 60,
          "time": 16.3313048958332,
          "velocity": 0.5275590551181102,
          "duration": 0.11686994791666194
        },
        {
          "name": "F4",
          "midi": 65,
          "time": 16.336386197916532,
          "velocity": 0.7480314960629921,
          "duration": 0.12195124999999507
        },
        {
          "name": "F2",
          "midi": 41,
          "time": 16.341467499999865,
          "velocity": 0.5590551181102362,
          "duration": 0.2591464062499931
        },
        {
          "name": "F5",
          "midi": 77,
          "time": 16.341467499999865,
          "velocity": 0.8661417322834646,
          "duration": 0.23373989583332744
        },
        {
          "name": "A4",
          "midi": 69,
          "time": 16.341467499999865,
          "velocity": 0.5590551181102362,
          "duration": 0.10670734374999569
        },
        {
          "name": "A3",
          "midi": 57,
          "time": 16.341467499999865,
          "velocity": 0.5196850393700787,
          "duration": 0.3760163541666586
        },
        {
          "name": "F4",
          "midi": 65,
          "time": 16.341467499999865,
          "velocity": 0.5748031496062992,
          "duration": 0.3455285416666598
        },
        {
          "name": "D#2",
          "midi": 39,
          "time": 16.341467499999865,
          "velocity": 0.9448818897637795,
          "duration": 0.030487812499998768
        },
        {
          "name": "D4",
          "midi": 62,
          "time": 16.341467499999865,
          "velocity": 0.6456692913385826,
          "duration": 0.40650416666665734
        },
        {
          "name": "F#2",
          "midi": 42,
          "time": 16.341467499999865,
          "velocity": 0.47244094488188976,
          "duration": 0.010162604166666256
        },
        {
          "name": "F4",
          "midi": 65,
          "time": 16.341467499999865,
          "velocity": 0.5748031496062992,
          "duration": 0.40650416666665734
        },
        {
          "name": "D4",
          "midi": 62,
          "time": 16.341467499999865,
          "velocity": 0.6456692913385826,
          "duration": 0.40650416666665734
        },
        {
          "name": "E5",
          "midi": 76,
          "time": 16.35163010416653,
          "velocity": 0.8031496062992126,
          "duration": 0.10162604166666256
        },
        {
          "name": "D2",
          "midi": 38,
          "time": 16.46341874999986,
          "velocity": 1,
          "duration": 0.010162604166666256
        },
        {
          "name": "C4",
          "midi": 60,
          "time": 16.580288697916526,
          "velocity": 0.5039370078740157,
          "duration": 0.11178864583333237
        },
        {
          "name": "A2",
          "midi": 45,
          "time": 16.58536999999986,
          "velocity": 0.7559055118110236,
          "duration": 0.2947155208333285
        },
        {
          "name": "D2",
          "midi": 38,
          "time": 16.58536999999986,
          "velocity": 1,
          "duration": 0.010162604166666256
        },
        {
          "name": "E5",
          "midi": 76,
          "time": 16.58536999999986,
          "velocity": 0.8031496062992126,
          "duration": 0.030487812499998768
        },
        {
          "name": "F4",
          "midi": 65,
          "time": 16.590451302083192,
          "velocity": 0.84251968503937,
          "duration": 0.15752036458333052
        },
        {
          "name": "A4",
          "midi": 69,
          "time": 16.60061390624986,
          "velocity": 0.6062992125984252,
          "duration": 0.09654473958333298
        },
        {
          "name": "E5",
          "midi": 76,
          "time": 16.60569520833319,
          "velocity": 0.7086614173228346,
          "duration": 0.0813008333333336
        },
        {
          "name": "E5",
          "midi": 76,
          "time": 16.615857812499858,
          "velocity": 0.9133858267716536,
          "duration": 0.233739895833331
        },
        {
          "name": "D2",
          "midi": 38,
          "time": 16.707321249999858,
          "velocity": 1,
          "duration": 0.010162604166666256
        },
        {
          "name": "C4",
          "midi": 60,
          "time": 16.814028593749857,
          "velocity": 0.48031496062992124,
          "duration": 0.08130083333333005
        },
        {
          "name": "F4",
          "midi": 65,
          "time": 16.81910989583319,
          "velocity": 0.7559055118110236,
          "duration": 0.07621953124999692
        },
        {
          "name": "A4",
          "midi": 69,
          "time": 16.824191197916523,
          "velocity": 0.5748031496062992,
          "duration": 0.0914634374999963
        },
        {
          "name": "D2",
          "midi": 38,
          "time": 16.829272499999856,
          "velocity": 0.9212598425196851,
          "duration": 0.010162604166666256
        },
        {
          "name": "F#2",
          "midi": 42,
          "time": 16.829272499999856,
          "velocity": 0.47244094488188976,
          "duration": 0.010162604166666256
        },
        {
          "name": "A3",
          "midi": 57,
          "time": 16.829272499999856,
          "velocity": 0.47244094488188976,
          "duration": 0.060975624999997535
        },
        {
          "name": "A2",
          "midi": 45,
          "time": 16.829272499999856,
          "velocity": 0.5590551181102362,
          "duration": 0.2439024999999937
        },
        {
          "name": "E5",
          "midi": 76,
          "time": 16.829272499999856,
          "velocity": 0.7559055118110236,
          "duration": 0.10162604166666256
        },
        {
          "name": "D4",
          "midi": 62,
          "time": 16.829272499999856,
          "velocity": 0.5275590551181102,
          "duration": 0.060975624999997535
        },
        {
          "name": "F4",
          "midi": 65,
          "time": 16.829272499999856,
          "velocity": 0.5275590551181102,
          "duration": 0.06605692708333066
        },
        {
          "name": "D4",
          "midi": 62,
          "time": 16.829272499999856,
          "velocity": 0.5275590551181102,
          "duration": 0.060975624999997535
        },
        {
          "name": "F4",
          "midi": 65,
          "time": 16.829272499999856,
          "velocity": 0.5275590551181102,
          "duration": 0.07113822916666379
        },
        {
          "name": "E5",
          "midi": 76,
          "time": 16.859760312499855,
          "velocity": 0.8661417322834646,
          "duration": 0.1727642708333299
        },
        {
          "name": "D2",
          "midi": 38,
          "time": 16.95122374999985,
          "velocity": 1,
          "duration": 0.010162604166666256
        },
        {
          "name": "C4",
          "midi": 60,
          "time": 17.052849791666517,
          "velocity": 0.4566929133858268,
          "duration": 0.10162604166666611
        },
        {
          "name": "D5",
          "midi": 74,
          "time": 17.07317499999985,
          "velocity": 0.889763779527559,
          "duration": 0.4471545833333259
        },
        {
          "name": "D#2",
          "midi": 39,
          "time": 17.07317499999985,
          "velocity": 1,
          "duration": 0.010162604166666256
        },
        {
          "name": "F4",
          "midi": 65,
          "time": 17.07317499999985,
          "velocity": 0.5196850393700787,
          "duration": 0.08638213541666673
        },
        {
          "name": "A3",
          "midi": 57,
          "time": 17.07317499999985,
          "velocity": 0.5196850393700787,
          "duration": 0.07113822916666734
        },
        {
          "name": "F2",
          "midi": 41,
          "time": 17.07317499999985,
          "velocity": 0.7244094488188977,
          "duration": 0.27947161458332914
        },
        {
          "name": "B2",
          "midi": 47,
          "time": 17.07317499999985,
          "velocity": 0.5590551181102362,
          "duration": 0.24898380208333037
        },
        {
          "name": "D4",
          "midi": 62,
          "time": 17.07317499999985,
          "velocity": 0.5196850393700787,
          "duration": 0.08638213541666673
        },
        {
          "name": "F4",
          "midi": 65,
          "time": 17.07317499999985,
          "velocity": 0.5196850393700787,
          "duration": 0.08638213541666673
        },
        {
          "name": "F4",
          "midi": 65,
          "time": 17.07317499999985,
          "velocity": 0.8661417322834646,
          "duration": 0.09654473958333298
        },
        {
          "name": "D4",
          "midi": 62,
          "time": 17.07317499999985,
          "velocity": 0.5196850393700787,
          "duration": 0.08638213541666673
        },
        {
          "name": "A4",
          "midi": 69,
          "time": 17.08841890624985,
          "velocity": 0.6299212598425197,
          "duration": 0.08638213541666673
        },
        {
          "name": "E5",
          "midi": 76,
          "time": 17.098581510416516,
          "velocity": 0.937007874015748,
          "duration": 0.10162604166666611
        },
        {
          "name": "D2",
          "midi": 38,
          "time": 17.19512624999985,
          "velocity": 0.4251968503937008,
          "duration": 0.010162604166666256
        },
        {
          "name": "C#4",
          "midi": 61,
          "time": 17.301833593749848,
          "velocity": 0.31496062992125984,
          "duration": 0.010162604166666256
        },
        {
          "name": "F#2",
          "midi": 42,
          "time": 17.317077499999847,
          "velocity": 0.47244094488188976,
          "duration": 0.010162604166666256
        },
        {
          "name": "D2",
          "midi": 38,
          "time": 17.317077499999847,
          "velocity": 0.8503937007874016,
          "duration": 0.010162604166666256
        },
        {
          "name": "C4",
          "midi": 60,
          "time": 17.317077499999847,
          "velocity": 0.3700787401574803,
          "duration": 0.10670734374999924
        },
        {
          "name": "A2",
          "midi": 45,
          "time": 17.317077499999847,
          "velocity": 0.5590551181102362,
          "duration": 0.04573171874999815
        },
        {
          "name": "F4",
          "midi": 65,
          "time": 17.32215880208318,
          "velocity": 0.6771653543307087,
          "duration": 0.10670734374999924
        },
        {
          "name": "A4",
          "midi": 69,
          "time": 17.327240104166513,
          "velocity": 0.5039370078740157,
          "duration": 0.0813008333333336
        },
        {
          "name": "E5",
          "midi": 76,
          "time": 17.332321406249847,
          "velocity": 0.7322834645669292,
          "duration": 0.1168699479166655
        },
        {
          "name": "D2",
          "midi": 38,
          "time": 17.439028749999846,
          "velocity": 1,
          "duration": 0.010162604166666256
        },
        {
          "name": "G#3",
          "midi": 56,
          "time": 17.56097999999984,
          "velocity": 0.5196850393700787,
          "duration": 0.07113822916666734
        },
        {
          "name": "E4",
          "midi": 64,
          "time": 17.56097999999984,
          "velocity": 0.5039370078740157,
          "duration": 0.08638213541666673
        },
        {
          "name": "E4",
          "midi": 64,
          "time": 17.56097999999984,
          "velocity": 0.5039370078740157,
          "duration": 0.08638213541666673
        },
        {
          "name": "E2",
          "midi": 40,
          "time": 17.56097999999984,
          "velocity": 0.8110236220472441,
          "duration": 0.48780499999999094
        },
        {
          "name": "D2",
          "midi": 38,
          "time": 17.56097999999984,
          "velocity": 1,
          "duration": 0.010162604166666256
        },
        {
          "name": "E1",
          "midi": 28,
          "time": 17.56097999999984,
          "velocity": 0.5590551181102362,
          "duration": 0.27439031249999246
        },
        {
          "name": "B3",
          "midi": 59,
          "time": 17.56097999999984,
          "velocity": 0.5984251968503937,
          "duration": 0.07113822916666734
        },
        {
          "name": "D5",
          "midi": 74,
          "time": 17.57622390624984,
          "velocity": 0.7874015748031497,
          "duration": 0.11178864583333237
        },
        {
          "name": "G#5",
          "midi": 80,
          "time": 17.581305208333173,
          "velocity": 0.937007874015748,
          "duration": 0.137195156249998
        },
        {
          "name": "D2",
          "midi": 38,
          "time": 17.68293124999984,
          "velocity": 1,
          "duration": 0.010162604166666256
        },
        {
          "name": "B4",
          "midi": 71,
          "time": 17.7998011979165,
          "velocity": 0.7716535433070866,
          "duration": 0.12703255208333175
        },
        {
          "name": "F#2",
          "midi": 42,
          "time": 17.804882499999835,
          "velocity": 0.47244094488188976,
          "duration": 0.010162604166666256
        },
        {
          "name": "D2",
          "midi": 38,
          "time": 17.804882499999835,
          "velocity": 0.9212598425196851,
          "duration": 0.010162604166666256
        },
        {
          "name": "D5",
          "midi": 74,
          "time": 17.809963802083168,
          "velocity": 0.8031496062992126,
          "duration": 0.10670734374999924
        },
        {
          "name": "G#5",
          "midi": 80,
          "time": 17.820126406249834,
          "velocity": 0.937007874015748,
          "duration": 0.11178864583333237
        },
        {
          "name": "D2",
          "midi": 38,
          "time": 17.926833749999833,
          "velocity": 1,
          "duration": 0.010162604166666256
        },
        {
          "name": "B4",
          "midi": 71,
          "time": 18.0437036979165,
          "velocity": 0.7401574803149606,
          "duration": 0.12703255208333175
        },
        {
          "name": "D#2",
          "midi": 39,
          "time": 18.04878499999983,
          "velocity": 1,
          "duration": 0.010162604166666256
        },
        {
          "name": "G#5",
          "midi": 80,
          "time": 18.058947604166498,
          "velocity": 0.8976377952755905,
          "duration": 0.1168699479166655
        },
        {
          "name": "D5",
          "midi": 74,
          "time": 18.058947604166498,
          "velocity": 0.7244094488188977,
          "duration": 0.09654473958333298
        },
        {
          "name": "D2",
          "midi": 38,
          "time": 18.17073624999983,
          "velocity": 0.4251968503937008,
          "duration": 0.010162604166666256
        },
        {
          "name": "B4",
          "midi": 71,
          "time": 18.287606197916496,
          "velocity": 0.8976377952755905,
          "duration": 0.10670734374999924
        },
        {
          "name": "D#2",
          "midi": 39,
          "time": 18.29268749999983,
          "velocity": 0.9448818897637795,
          "duration": 0.030487812499998768
        },
        {
          "name": "F#2",
          "midi": 42,
          "time": 18.29268749999983,
          "velocity": 0.47244094488188976,
          "duration": 0.010162604166666256
        },
        {
          "name": "G#1",
          "midi": 32,
          "time": 18.29268749999983,
          "velocity": 0.5590551181102362,
          "duration": 0.21341468749999848
        },
        {
          "name": "B3",
          "midi": 59,
          "time": 18.29268749999983,
          "velocity": 0.6220472440944882,
          "duration": 0.40142286458332777
        },
        {
          "name": "G#2",
          "midi": 44,
          "time": 18.29268749999983,
          "velocity": 0.6850393700787402,
          "duration": 0.3201220312499977
        },
        {
          "name": "E4",
          "midi": 64,
          "time": 18.29268749999983,
          "velocity": 0.5748031496062992,
          "duration": 0.3912602604166615
        },
        {
          "name": "G#3",
          "midi": 56,
          "time": 18.29268749999983,
          "velocity": 0.5039370078740157,
          "duration": 0.4065041666666609
        },
        {
          "name": "E4",
          "midi": 64,
          "time": 18.29268749999983,
          "velocity": 0.5748031496062992,
          "duration": 0.3912602604166615
        },
        {
          "name": "D5",
          "midi": 74,
          "time": 18.297768802083162,
          "velocity": 0.8267716535433071,
          "duration": 0.09654473958333298
        },
        {
          "name": "G#5",
          "midi": 80,
          "time": 18.302850104166495,
          "velocity": 0.937007874015748,
          "duration": 0.10670734374999924
        },
        {
          "name": "D2",
          "midi": 38,
          "time": 18.414638749999828,
          "velocity": 1,
          "duration": 0.010162604166666256
        },
        {
          "name": "B4",
          "midi": 71,
          "time": 18.531508697916493,
          "velocity": 0.7401574803149606,
          "duration": 0.12703255208333175
        },
        {
          "name": "D2",
          "midi": 38,
          "time": 18.536589999999826,
          "velocity": 1,
          "duration": 0.010162604166666256
        },
        {
          "name": "D5",
          "midi": 74,
          "time": 18.546752604166493,
          "velocity": 0.7244094488188977,
          "duration": 0.09654473958333298
        },
        {
          "name": "G#5",
          "midi": 80,
          "time": 18.546752604166493,
          "velocity": 0.8976377952755905,
          "duration": 0.1168699479166655
        },
        {
          "name": "D2",
          "midi": 38,
          "time": 18.658541249999825,
          "velocity": 1,
          "duration": 0.010162604166666256
        },
        {
          "name": "B4",
          "midi": 71,
          "time": 18.775411197916487,
          "velocity": 0.8976377952755905,
          "duration": 0.10670734374999569
        },
        {
          "name": "E4",
          "midi": 64,
          "time": 18.78049249999982,
          "velocity": 0.48031496062992124,
          "duration": 0.10162604166666256
        },
        {
          "name": "G#3",
          "midi": 56,
          "time": 18.78049249999982,
          "velocity": 0.4881889763779528,
          "duration": 0.07621953124999692
        },
        {
          "name": "B1",
          "midi": 35,
          "time": 18.78049249999982,
          "velocity": 0.5590551181102362,
          "duration": 0.2997968229166581
        },
        {
          "name": "E6",
          "midi": 88,
          "time": 18.78049249999982,
          "velocity": 0.5669291338582677,
          "duration": 0.040650416666665024
        },
        {
          "name": "B3",
          "midi": 59,
          "time": 18.78049249999982,
          "velocity": 0.5275590551181102,
          "duration": 0.08638213541666317
        },
        {
          "name": "E4",
          "midi": 64,
          "time": 18.78049249999982,
          "velocity": 0.48031496062992124,
          "duration": 0.10162604166666256
        },
        {
          "name": "F#2",
          "midi": 42,
          "time": 18.78049249999982,
          "velocity": 0.47244094488188976,
          "duration": 0.010162604166666256
        },
        {
          "name": "D2",
          "midi": 38,
          "time": 18.78049249999982,
          "velocity": 0.9212598425196851,
          "duration": 0.010162604166666256
        },
        {
          "name": "B2",
          "midi": 47,
          "time": 18.78049249999982,
          "velocity": 0.6062992125984252,
          "duration": 0.13211385416666133
        },
        {
          "name": "D5",
          "midi": 74,
          "time": 18.785573802083153,
          "velocity": 0.8267716535433071,
          "duration": 0.09654473958332943
        },
        {
          "name": "G#5",
          "midi": 80,
          "time": 18.790655104166486,
          "velocity": 0.937007874015748,
          "duration": 0.10670734374999569
        },
        {
          "name": "D2",
          "midi": 38,
          "time": 18.902443749999815,
          "velocity": 1,
          "duration": 0.010162604166666256
        },
        {
          "name": "B4",
          "midi": 71,
          "time": 19.01931369791648,
          "velocity": 0.7401574803149606,
          "duration": 0.12703255208333175
        },
        {
          "name": "D#2",
          "midi": 39,
          "time": 19.024394999999814,
          "velocity": 1,
          "duration": 0.010162604166666256
        },
        {
          "name": "E4",
          "midi": 64,
          "time": 19.024394999999814,
          "velocity": 0.2047244094488189,
          "duration": 0.035569114583331896
        },
        {
          "name": "B4",
          "midi": 71,
          "time": 19.024394999999814,
          "velocity": 0.984251968503937,
          "duration": 0.233739895833331
        },
        {
          "name": "E4",
          "midi": 64,
          "time": 19.024394999999814,
          "velocity": 0.2047244094488189,
          "duration": 0.035569114583331896
        },
        {
          "name": "B3",
          "midi": 59,
          "time": 19.024394999999814,
          "velocity": 0.49606299212598426,
          "duration": 0.05589432291666441
        },
        {
          "name": "E3",
          "midi": 52,
          "time": 19.024394999999814,
          "velocity": 0.6062992125984252,
          "duration": 0.19308947916666597
        },
        {
          "name": "G#3",
          "midi": 56,
          "time": 19.024394999999814,
          "velocity": 0.4409448818897638,
          "duration": 0.05589432291666441
        },
        {
          "name": "D2",
          "midi": 38,
          "time": 19.024394999999814,
          "velocity": 0.5590551181102362,
          "duration": 0.13211385416666488
        },
        {
          "name": "G#5",
          "midi": 80,
          "time": 19.03455760416648,
          "velocity": 0.8976377952755905,
          "duration": 0.1168699479166655
        },
        {
          "name": "D5",
          "midi": 74,
          "time": 19.03455760416648,
          "velocity": 0.7244094488188977,
          "duration": 0.09654473958333298
        },
        {
          "name": "D2",
          "midi": 38,
          "time": 19.146346249999812,
          "velocity": 0.4251968503937008,
          "duration": 0.12703255208333175
        },
        {
          "name": "B4",
          "midi": 71,
          "time": 19.263216197916478,
          "velocity": 0.8976377952755905,
          "duration": 0.10670734374999924
        },
        {
          "name": "F#2",
          "midi": 42,
          "time": 19.26829749999981,
          "velocity": 0.47244094488188976,
          "duration": 0.010162604166666256
        },
        {
          "name": "C5",
          "midi": 72,
          "time": 19.26829749999981,
          "velocity": 0.6771653543307087,
          "duration": 0.15752036458333052
        },
        {
          "name": "B2",
          "midi": 47,
          "time": 19.26829749999981,
          "velocity": 0.5196850393700787,
          "duration": 0.15752036458333052
        },
        {
          "name": "B1",
          "midi": 35,
          "time": 19.26829749999981,
          "velocity": 0.5590551181102362,
          "duration": 0.1880081770833293
        },
        {
          "name": "D2",
          "midi": 38,
          "time": 19.26829749999981,
          "velocity": 0.8503937007874016,
          "duration": 0.010162604166666256
        },
        {
          "name": "D5",
          "midi": 74,
          "time": 19.273378802083144,
          "velocity": 0.8267716535433071,
          "duration": 0.09654473958333298
        },
        {
          "name": "G#5",
          "midi": 80,
          "time": 19.278460104166477,
          "velocity": 0.937007874015748,
          "duration": 0.10670734374999924
        },
        {
          "name": "D2",
          "midi": 38,
          "time": 19.39024874999981,
          "velocity": 1,
          "duration": 0.010162604166666256
        },
        {
          "name": "E4",
          "midi": 64,
          "time": 19.512199999999808,
          "velocity": 0.4409448818897638,
          "duration": 0.08638213541666317
        },
        {
          "name": "E1",
          "midi": 28,
          "time": 19.512199999999808,
          "velocity": 0.5590551181102362,
          "duration": 0.27439031249999246
        },
        {
          "name": "B3",
          "midi": 59,
          "time": 19.512199999999808,
          "velocity": 0.41732283464566927,
          "duration": 0.07621953124999692
        },
        {
          "name": "E4",
          "midi": 64,
          "time": 19.512199999999808,
          "velocity": 0.4409448818897638,
          "duration": 0.08638213541666317
        },
        {
          "name": "G#3",
          "midi": 56,
          "time": 19.512199999999808,
          "velocity": 0.4330708661417323,
          "duration": 0.06605692708333066
        },
        {
          "name": "B4",
          "midi": 71,
          "time": 19.512199999999808,
          "velocity": 0.7401574803149606,
          "duration": 0.1270325520833282
        },
        {
          "name": "D2",
          "midi": 38,
          "time": 19.512199999999808,
          "velocity": 1,
          "duration": 0.010162604166666256
        },
        {
          "name": "E2",
          "midi": 40,
          "time": 19.512199999999808,
          "velocity": 0.8110236220472441,
          "duration": 0.48780499999999094
        },
        {
          "name": "D5",
          "midi": 74,
          "time": 19.512199999999808,
          "velocity": 0.7165354330708661,
          "duration": 0.10670734374999569
        },
        {
          "name": "D5",
          "midi": 74,
          "time": 19.522362604166474,
          "velocity": 0.7244094488188977,
          "duration": 0.31504072916666104
        },
        {
          "name": "G#5",
          "midi": 80,
          "time": 19.522362604166474,
          "velocity": 0.8976377952755905,
          "duration": 0.11686994791666194
        },
        {
          "name": "D2",
          "midi": 38,
          "time": 19.634151249999803,
          "velocity": 1,
          "duration": 0.010162604166666256
        },
        {
          "name": "B4",
          "midi": 71,
          "time": 19.75102119791647,
          "velocity": 0.8976377952755905,
          "duration": 0.10670734374999924
        },
        {
          "name": "D2",
          "midi": 38,
          "time": 19.756102499999802,
          "velocity": 0.9212598425196851,
          "duration": 0.010162604166666256
        },
        {
          "name": "F#2",
          "midi": 42,
          "time": 19.756102499999802,
          "velocity": 0.47244094488188976,
          "duration": 0.010162604166666256
        },
        {
          "name": "D5",
          "midi": 74,
          "time": 19.761183802083135,
          "velocity": 0.8267716535433071,
          "duration": 0.09654473958333298
        },
        {
          "name": "G#5",
          "midi": 80,
          "time": 19.766265104166468,
          "velocity": 0.937007874015748,
          "duration": 0.10670734374999924
        },
        {
          "name": "D2",
          "midi": 38,
          "time": 19.8780537499998,
          "velocity": 1,
          "duration": 0.010162604166666256
        },
        {
          "name": "B4",
          "midi": 71,
          "time": 19.994923697916466,
          "velocity": 0.7401574803149606,
          "duration": 0.12703255208333175
        },
        {
          "name": "D5",
          "midi": 74,
          "time": 20.0000049999998,
          "velocity": 0.8661417322834646,
          "duration": 0.10670734374999924
        },
        {
          "name": "D#2",
          "midi": 39,
          "time": 20.0000049999998,
          "velocity": 1,
          "duration": 0.010162604166666256
        },
        {
          "name": "G#5",
          "midi": 80,
          "time": 20.010167604166465,
          "velocity": 0.8976377952755905,
          "duration": 0.1168699479166655
        },
        {
          "name": "D5",
          "midi": 74,
          "time": 20.010167604166465,
          "velocity": 0.7244094488188977,
          "duration": 0.22357729166666473
        },
        {
          "name": "D2",
          "midi": 38,
          "time": 20.121956249999798,
          "velocity": 0.4251968503937008,
          "duration": 0.010162604166666256
        },
        {
          "name": "B4",
          "midi": 71,
          "time": 20.238826197916463,
          "velocity": 0.8976377952755905,
          "duration": 0.10670734374999924
        },
        {
          "name": "E4",
          "midi": 64,
          "time": 20.243907499999796,
          "velocity": 0.5196850393700787,
          "duration": 0.3912602604166615
        },
        {
          "name": "G#2",
          "midi": 44,
          "time": 20.243907499999796,
          "velocity": 0.6850393700787402,
          "duration": 0.3201220312499977
        },
        {
          "name": "F#2",
          "midi": 42,
          "time": 20.243907499999796,
          "velocity": 0.47244094488188976,
          "duration": 0.010162604166666256
        },
        {
          "name": "D#2",
          "midi": 39,
          "time": 20.243907499999796,
          "velocity": 0.9448818897637795,
          "duration": 0.030487812499998768
        },
        {
          "name": "B3",
          "midi": 59,
          "time": 20.243907499999796,
          "velocity": 0.5433070866141733,
          "duration": 0.36585374999999587
        },
        {
          "name": "E4",
          "midi": 64,
          "time": 20.243907499999796,
          "velocity": 0.5196850393700787,
          "duration": 0.3912602604166615
        },
        {
          "name": "E5",
          "midi": 76,
          "time": 20.243907499999796,
          "velocity": 0.8661417322834646,
          "duration": 0.233739895833331
        },
        {
          "name": "G#1",
          "midi": 32,
          "time": 20.243907499999796,
          "velocity": 0.5590551181102362,
          "duration": 0.21341468749999848
        },
        {
          "name": "G#3",
          "midi": 56,
          "time": 20.243907499999796,
          "velocity": 0.5748031496062992,
          "duration": 0.36585374999999587
        },
        {
          "name": "D5",
          "midi": 74,
          "time": 20.24898880208313,
          "velocity": 0.8267716535433071,
          "duration": 0.09654473958333298
        },
        {
          "name": "G#5",
          "midi": 80,
          "time": 20.254070104166463,
          "velocity": 0.937007874015748,
          "duration": 0.10670734374999924
        },
        {
          "name": "D2",
          "midi": 38,
          "time": 20.365858749999795,
          "velocity": 1,
          "duration": 0.010162604166666256
        },
        {
          "name": "B4",
          "midi": 71,
          "time": 20.48272869791646,
          "velocity": 0.7401574803149606,
          "duration": 0.12703255208333175
        },
        {
          "name": "D2",
          "midi": 38,
          "time": 20.487809999999794,
          "velocity": 1,
          "duration": 0.010162604166666256
        },
        {
          "name": "D5",
          "midi": 74,
          "time": 20.487809999999794,
          "velocity": 0.8346456692913385,
          "duration": 0.10670734374999924
        },
        {
          "name": "G#5",
          "midi": 80,
          "time": 20.49797260416646,
          "velocity": 0.8976377952755905,
          "duration": 0.1168699479166655
        },
        {
          "name": "D5",
          "midi": 74,
          "time": 20.49797260416646,
          "velocity": 0.7244094488188977,
          "duration": 0.233739895833331
        },
        {
          "name": "D2",
          "midi": 38,
          "time": 20.609761249999792,
          "velocity": 1,
          "duration": 0.010162604166666256
        },
        {
          "name": "B4",
          "midi": 71,
          "time": 20.726631197916458,
          "velocity": 0.8976377952755905,
          "duration": 0.10670734374999924
        },
        {
          "name": "B3",
          "midi": 59,
          "time": 20.73171249999979,
          "velocity": 0.5433070866141733,
          "duration": 0.05589432291666796
        },
        {
          "name": "B1",
          "midi": 35,
          "time": 20.73171249999979,
          "velocity": 0.5590551181102362,
          "duration": 0.29979682291666165
        },
        {
          "name": "D2",
          "midi": 38,
          "time": 20.73171249999979,
          "velocity": 0.9212598425196851,
          "duration": 0.010162604166666256
        },
        {
          "name": "B2",
          "midi": 47,
          "time": 20.73171249999979,
          "velocity": 0.6062992125984252,
          "duration": 0.13211385416666488
        },
        {
          "name": "C5",
          "midi": 72,
          "time": 20.73171249999979,
          "velocity": 0.7165354330708661,
          "duration": 0.12195124999999862
        },
        {
          "name": "E4",
          "midi": 64,
          "time": 20.73171249999979,
          "velocity": 0.49606299212598426,
          "duration": 0.07113822916666734
        },
        {
          "name": "G#3",
          "midi": 56,
          "time": 20.73171249999979,
          "velocity": 0.49606299212598426,
          "duration": 0.06097562500000109
        },
        {
          "name": "F#2",
          "midi": 42,
          "time": 20.73171249999979,
          "velocity": 0.47244094488188976,
          "duration": 0.010162604166666256
        },
        {
          "name": "E4",
          "midi": 64,
          "time": 20.73171249999979,
          "velocity": 0.49606299212598426,
          "duration": 0.07113822916666734
        },
        {
          "name": "D5",
          "midi": 74,
          "time": 20.736793802083124,
          "velocity": 0.8267716535433071,
          "duration": 0.09654473958333298
        },
        {
          "name": "G#5",
          "midi": 80,
          "time": 20.741875104166457,
          "velocity": 0.937007874015748,
          "duration": 0.10670734374999924
        },
        {
          "name": "D2",
          "midi": 38,
          "time": 20.85366374999979,
          "velocity": 1,
          "duration": 0.010162604166666256
        },
        {
          "name": "B4",
          "midi": 71,
          "time": 20.970533697916455,
          "velocity": 0.7401574803149606,
          "duration": 0.1270325520833282
        },
        {
          "name": "E4",
          "midi": 64,
          "time": 20.975614999999788,
          "velocity": 0.4881889763779528,
          "duration": 0.06605692708333066
        },
        {
          "name": "B3",
          "midi": 59,
          "time": 20.975614999999788,
          "velocity": 0.5748031496062992,
          "duration": 0.05081302083333128
        },
        {
          "name": "D#2",
          "midi": 39,
          "time": 20.975614999999788,
          "velocity": 1,
          "duration": 0.010162604166666256
        },
        {
          "name": "B4",
          "midi": 71,
          "time": 20.975614999999788,
          "velocity": 0.8031496062992126,
          "duration": 0.23882119791666412
        },
        {
          "name": "D2",
          "midi": 38,
          "time": 20.975614999999788,
          "velocity": 0.5590551181102362,
          "duration": 0.13211385416666133
        },
        {
          "name": "D3",
          "midi": 50,
          "time": 20.975614999999788,
          "velocity": 0.6062992125984252,
          "duration": 0.19308947916666241
        },
        {
          "name": "E4",
          "midi": 64,
          "time": 20.975614999999788,
          "velocity": 0.4881889763779528,
          "duration": 0.06605692708333066
        },
        {
          "name": "G#3",
          "midi": 56,
          "time": 20.975614999999788,
          "velocity": 0.47244094488188976,
          "duration": 0.05081302083333128
        },
        {
          "name": "G#5",
          "midi": 80,
          "time": 20.985777604166454,
          "velocity": 0.8976377952755905,
          "duration": 0.11686994791666194
        },
        {
          "name": "D5",
          "midi": 74,
          "time": 20.985777604166454,
          "velocity": 0.7244094488188977,
          "duration": 0.09654473958332943
        },
        {
          "name": "D2",
          "midi": 38,
          "time": 21.097566249999783,
          "velocity": 0.4251968503937008,
          "duration": 0.1270325520833353
        },
        {
          "name": "B4",
          "midi": 71,
          "time": 21.214436197916452,
          "velocity": 0.8976377952755905,
          "duration": 0.10670734374999924
        },
        {
          "name": "B1",
          "midi": 35,
          "time": 21.219517499999785,
          "velocity": 0.5590551181102362,
          "duration": 0.1880081770833293
        },
        {
          "name": "B2",
          "midi": 47,
          "time": 21.219517499999785,
          "velocity": 0.5196850393700787,
          "duration": 0.15752036458333052
        },
        {
          "name": "C5",
          "midi": 72,
          "time": 21.219517499999785,
          "velocity": 0.952755905511811,
          "duration": 0.20325208333332867
        },
        {
          "name": "F#2",
          "midi": 42,
          "time": 21.219517499999785,
          "velocity": 0.47244094488188976,
          "duration": 0.010162604166666256
        },
        {
          "name": "D2",
          "midi": 38,
          "time": 21.219517499999785,
          "velocity": 0.8503937007874016,
          "duration": 0.010162604166666256
        },
        {
          "name": "D5",
          "midi": 74,
          "time": 21.22459880208312,
          "velocity": 0.8267716535433071,
          "duration": 0.09654473958333298
        },
        {
          "name": "G#5",
          "midi": 80,
          "time": 21.22968010416645,
          "velocity": 0.937007874015748,
          "duration": 0.10670734374999924
        },
        {
          "name": "D2",
          "midi": 38,
          "time": 21.341468749999784,
          "velocity": 1,
          "duration": 0.010162604166666256
        },
        {
          "name": "G4",
          "midi": 67,
          "time": 21.46341999999978,
          "velocity": 0.5433070866141733,
          "duration": 0.07113822916666379
        },
        {
          "name": "A3",
          "midi": 57,
          "time": 21.46341999999978,
          "velocity": 0.4566929133858268,
          "duration": 0.05081302083333128
        },
        {
          "name": "E4",
          "midi": 64,
          "time": 21.46341999999978,
          "velocity": 0.4094488188976378,
          "duration": 0.07113822916666379
        },
        {
          "name": "C4",
          "midi": 60,
          "time": 21.46341999999978,
          "velocity": 0.48031496062992124,
          "duration": 0.060975624999997535
        },
        {
          "name": "E4",
          "midi": 64,
          "time": 21.46341999999978,
          "velocity": 0.4094488188976378,
          "duration": 0.07113822916666379
        },
        {
          "name": "A1",
          "midi": 33,
          "time": 21.46341999999978,
          "velocity": 0.5590551181102362,
          "duration": 0.2591464062499931
        },
        {
          "name": "C4",
          "midi": 60,
          "time": 21.46341999999978,
          "velocity": 0.48031496062992124,
          "duration": 0.060975624999997535
        },
        {
          "name": "D2",
          "midi": 38,
          "time": 21.46341999999978,
          "velocity": 1,
          "duration": 0.010162604166666256
        },
        {
          "name": "A2",
          "midi": 45,
          "time": 21.46341999999978,
          "velocity": 0.8110236220472441,
          "duration": 0.30995942708332436
        },
        {
          "name": "C5",
          "midi": 72,
          "time": 21.468501302083112,
          "velocity": 0.8661417322834646,
          "duration": 0.09654473958332943
        },
        {
          "name": "G#4",
          "midi": 68,
          "time": 21.473582604166445,
          "velocity": 1,
          "duration": 0.030487812499998768
        },
        {
          "name": "E5",
          "midi": 76,
          "time": 21.47866390624978,
          "velocity": 0.6692913385826772,
          "duration": 0.08638213541666317
        },
        {
          "name": "B5",
          "midi": 83,
          "time": 21.48374520833311,
          "velocity": 0.8818897637795275,
          "duration": 0.08638213541666317
        },
        {
          "name": "A4",
          "midi": 69,
          "time": 21.524395624999777,
          "velocity": 0.8346456692913385,
          "duration": 1.869919166666616
        },
        {
          "name": "D2",
          "midi": 38,
          "time": 21.585371249999774,
          "velocity": 1,
          "duration": 0.010162604166666256
        },
        {
          "name": "D2",
          "midi": 38,
          "time": 21.707322499999773,
          "velocity": 0.9212598425196851,
          "duration": 0.010162604166666256
        },
        {
          "name": "F#2",
          "midi": 42,
          "time": 21.707322499999773,
          "velocity": 0.47244094488188976,
          "duration": 0.010162604166666256
        },
        {
          "name": "G4",
          "midi": 67,
          "time": 21.707322499999773,
          "velocity": 0.4094488188976378,
          "duration": 0.060975624999997535
        },
        {
          "name": "C5",
          "midi": 72,
          "time": 21.712403802083106,
          "velocity": 0.8110236220472441,
          "duration": 0.10162604166666256
        },
        {
          "name": "E5",
          "midi": 76,
          "time": 21.722566406249772,
          "velocity": 0.6692913385826772,
          "duration": 0.0914634374999963
        },
        {
          "name": "B5",
          "midi": 83,
          "time": 21.727647708333105,
          "velocity": 0.8818897637795275,
          "duration": 0.0914634374999963
        },
        {
          "name": "D2",
          "midi": 38,
          "time": 21.829273749999768,
          "velocity": 1,
          "duration": 0.010162604166666256
        },
        {
          "name": "G4",
          "midi": 67,
          "time": 21.9410623958331,
          "velocity": 0.4094488188976378,
          "duration": 0.10162604166666611
        },
        {
          "name": "D#2",
          "midi": 39,
          "time": 21.951224999999766,
          "velocity": 1,
          "duration": 0.010162604166666256
        },
        {
          "name": "C2",
          "midi": 36,
          "time": 21.951224999999766,
          "velocity": 0.8110236220472441,
          "duration": 0.31504072916666104
        },
        {
          "name": "C5",
          "midi": 72,
          "time": 21.9563063020831,
          "velocity": 0.7874015748031497,
          "duration": 0.09654473958333298
        },
        {
          "name": "E5",
          "midi": 76,
          "time": 21.961387604166433,
          "velocity": 0.5039370078740157,
          "duration": 0.0813008333333336
        },
        {
          "name": "B5",
          "midi": 83,
          "time": 21.966468906249766,
          "velocity": 0.8818897637795275,
          "duration": 0.08638213541666673
        },
        {
          "name": "D2",
          "midi": 38,
          "time": 22.073176249999765,
          "velocity": 0.4251968503937008,
          "duration": 0.010162604166666256
        },
        {
          "name": "A3",
          "midi": 57,
          "time": 22.195127499999764,
          "velocity": 0.5984251968503937,
          "duration": 0.39634156249998753
        },
        {
          "name": "C4",
          "midi": 60,
          "time": 22.195127499999764,
          "velocity": 0.5748031496062992,
          "duration": 0.42174807291665317
        },
        {
          "name": "C2",
          "midi": 36,
          "time": 22.195127499999764,
          "velocity": 0.5590551181102362,
          "duration": 0.19308947916665886
        },
        {
          "name": "C5",
          "midi": 72,
          "time": 22.195127499999764,
          "velocity": 0.8503937007874016,
          "duration": 0.10670734374999569
        },
        {
          "name": "G4",
          "midi": 67,
          "time": 22.195127499999764,
          "velocity": 0.4094488188976378,
          "duration": 0.060975624999997535
        },
        {
          "name": "E4",
          "midi": 64,
          "time": 22.195127499999764,
          "velocity": 0.5433070866141733,
          "duration": 0.4471545833333188
        },
        {
          "name": "E4",
          "midi": 64,
          "time": 22.195127499999764,
          "velocity": 0.5433070866141733,
          "duration": 0.4471545833333188
        },
        {
          "name": "C4",
          "midi": 60,
          "time": 22.195127499999764,
          "velocity": 0.5748031496062992,
          "duration": 0.42174807291665317
        },
        {
          "name": "F#2",
          "midi": 42,
          "time": 22.195127499999764,
          "velocity": 0.47244094488188976,
          "duration": 0.010162604166666256
        },
        {
          "name": "D#2",
          "midi": 39,
          "time": 22.195127499999764,
          "velocity": 0.9448818897637795,
          "duration": 0.030487812499998768
        },
        {
          "name": "E5",
          "midi": 76,
          "time": 22.20529010416643,
          "velocity": 0.5590551181102362,
          "duration": 0.0914634374999963
        },
        {
          "name": "B5",
          "midi": 83,
          "time": 22.215452708333096,
          "velocity": 0.8818897637795275,
          "duration": 0.10162604166666256
        },
        {
          "name": "D2",
          "midi": 38,
          "time": 22.31707874999976,
          "velocity": 1,
          "duration": 0.010162604166666256
        },
        {
          "name": "G4",
          "midi": 67,
          "time": 22.428867395833088,
          "velocity": 0.5826771653543307,
          "duration": 0.09654473958333298
        },
        {
          "name": "C5",
          "midi": 72,
          "time": 22.43394869791642,
          "velocity": 0.8110236220472441,
          "duration": 0.10670734374999924
        },
        {
          "name": "B5",
          "midi": 83,
          "time": 22.439029999999754,
          "velocity": 0.8818897637795275,
          "duration": 0.12195124999999862
        },
        {
          "name": "D2",
          "midi": 38,
          "time": 22.439029999999754,
          "velocity": 1,
          "duration": 0.010162604166666256
        },
        {
          "name": "E5",
          "midi": 76,
          "time": 22.439029999999754,
          "velocity": 0.6850393700787402,
          "duration": 0.1168699479166655
        },
        {
          "name": "E2",
          "midi": 40,
          "time": 22.439029999999754,
          "velocity": 0.8110236220472441,
          "duration": 0.28963421874999185
        },
        {
          "name": "D2",
          "midi": 38,
          "time": 22.560981249999752,
          "velocity": 1,
          "duration": 0.010162604166666256
        },
        {
          "name": "F#4",
          "midi": 66,
          "time": 22.662607291666415,
          "velocity": 0.3700787401574803,
          "duration": 0.010162604166666256
        },
        {
          "name": "F#2",
          "midi": 42,
          "time": 22.682932499999747,
          "velocity": 0.47244094488188976,
          "duration": 0.010162604166666256
        },
        {
          "name": "D2",
          "midi": 38,
          "time": 22.682932499999747,
          "velocity": 0.9212598425196851,
          "duration": 0.010162604166666256
        },
        {
          "name": "C5",
          "midi": 72,
          "time": 22.682932499999747,
          "velocity": 0.8110236220472441,
          "duration": 0.10162604166666256
        },
        {
          "name": "C4",
          "midi": 60,
          "time": 22.682932499999747,
          "velocity": 0.47244094488188976,
          "duration": 0.07113822916666379
        },
        {
          "name": "E4",
          "midi": 64,
          "time": 22.682932499999747,
          "velocity": 0.49606299212598426,
          "duration": 0.07113822916666379
        },
        {
          "name": "E4",
          "midi": 64,
          "time": 22.682932499999747,
          "velocity": 0.49606299212598426,
          "duration": 0.07113822916666379
        },
        {
          "name": "C4",
          "midi": 60,
          "time": 22.682932499999747,
          "velocity": 0.47244094488188976,
          "duration": 0.07113822916666379
        },
        {
          "name": "E2",
          "midi": 40,
          "time": 22.682932499999747,
          "velocity": 0.5590551181102362,
          "duration": 0.27947161458332204
        },
        {
          "name": "E5",
          "midi": 76,
          "time": 22.682932499999747,
          "velocity": 0.6614173228346457,
          "duration": 0.10162604166666256
        },
        {
          "name": "A3",
          "midi": 57,
          "time": 22.682932499999747,
          "velocity": 0.4330708661417323,
          "duration": 0.05589432291666441
        },
        {
          "name": "G4",
          "midi": 67,
          "time": 22.682932499999747,
          "velocity": 0.5196850393700787,
          "duration": 0.0914634374999963
        },
        {
          "name": "B5",
          "midi": 83,
          "time": 22.693095104166414,
          "velocity": 0.8818897637795275,
          "duration": 0.12195124999999507
        },
        {
          "name": "D2",
          "midi": 38,
          "time": 22.804883749999743,
          "velocity": 1,
          "duration": 0.010162604166666256
        },
        {
          "name": "G4",
          "midi": 67,
          "time": 22.906509791666405,
          "velocity": 0.49606299212598426,
          "duration": 0.13719515624999445
        },
        {
          "name": "A3",
          "midi": 57,
          "time": 22.926834999999738,
          "velocity": 0.5196850393700787,
          "duration": 0.07113822916666379
        },
        {
          "name": "E4",
          "midi": 64,
          "time": 22.926834999999738,
          "velocity": 0.8661417322834646,
          "duration": 0.08130083333333005
        },
        {
          "name": "C5",
          "midi": 72,
          "time": 22.926834999999738,
          "velocity": 0.7559055118110236,
          "duration": 0.11686994791666194
        },
        {
          "name": "F#2",
          "midi": 42,
          "time": 22.926834999999738,
          "velocity": 0.5590551181102362,
          "duration": 0.2286585937499943
        },
        {
          "name": "C4",
          "midi": 60,
          "time": 22.926834999999738,
          "velocity": 0.4566929133858268,
          "duration": 0.07113822916666379
        },
        {
          "name": "C2",
          "midi": 36,
          "time": 22.926834999999738,
          "velocity": 0.8110236220472441,
          "duration": 0.27439031249999246
        },
        {
          "name": "E4",
          "midi": 64,
          "time": 22.926834999999738,
          "velocity": 0.5039370078740157,
          "duration": 0.08130083333333005
        },
        {
          "name": "D#2",
          "midi": 39,
          "time": 22.926834999999738,
          "velocity": 1,
          "duration": 0.010162604166666256
        },
        {
          "name": "C4",
          "midi": 60,
          "time": 22.926834999999738,
          "velocity": 0.4566929133858268,
          "duration": 0.07113822916666379
        },
        {
          "name": "E4",
          "midi": 64,
          "time": 22.926834999999738,
          "velocity": 0.5039370078740157,
          "duration": 0.4674797916666549
        },
        {
          "name": "E5",
          "midi": 76,
          "time": 22.942078906249737,
          "velocity": 0.6614173228346457,
          "duration": 0.10162604166666256
        },
        {
          "name": "B5",
          "midi": 83,
          "time": 22.94716020833307,
          "velocity": 0.8818897637795275,
          "duration": 0.0914634374999963
        },
        {
          "name": "E4",
          "midi": 64,
          "time": 22.94716020833307,
          "velocity": 0.8661417322834646,
          "duration": 0.4674797916666549
        },
        {
          "name": "D2",
          "midi": 38,
          "time": 23.048786249999733,
          "velocity": 0.4251968503937008,
          "duration": 0.010162604166666256
        },
        {
          "name": "G4",
          "midi": 67,
          "time": 23.160574895833065,
          "velocity": 0.3464566929133858,
          "duration": 0.02540651041666564
        },
        {
          "name": "D2",
          "midi": 38,
          "time": 23.17073749999973,
          "velocity": 0.8503937007874016,
          "duration": 0.010162604166666256
        },
        {
          "name": "E2",
          "midi": 40,
          "time": 23.17073749999973,
          "velocity": 0.5590551181102362,
          "duration": 0.21341468749999493
        },
        {
          "name": "C5",
          "midi": 72,
          "time": 23.17073749999973,
          "velocity": 0.84251968503937,
          "duration": 0.11686994791666194
        },
        {
          "name": "F#2",
          "midi": 42,
          "time": 23.17073749999973,
          "velocity": 0.47244094488188976,
          "duration": 0.010162604166666256
        },
        {
          "name": "E5",
          "midi": 76,
          "time": 23.175818802083064,
          "velocity": 0.5748031496062992,
          "duration": 0.11686994791666194
        },
        {
          "name": "B5",
          "midi": 83,
          "time": 23.180900104166398,
          "velocity": 0.8818897637795275,
          "duration": 0.10670734374999569
        },
        {
          "name": "D2",
          "midi": 38,
          "time": 23.292688749999726,
          "velocity": 1,
          "duration": 0.010162604166666256
        },
        {
          "name": "B4",
          "midi": 71,
          "time": 23.414639999999725,
          "velocity": 0.9606299212598425,
          "duration": 0.9654473958333156
        },
        {
          "name": "A1",
          "midi": 33,
          "time": 23.414639999999725,
          "velocity": 0.7874015748031497,
          "duration": 0.27439031249999246
        },
        {
          "name": "A3",
          "midi": 57,
          "time": 23.414639999999725,
          "velocity": 0.5275590551181102,
          "duration": 0.06605692708333066
        },
        {
          "name": "C4",
          "midi": 60,
          "time": 23.414639999999725,
          "velocity": 0.5275590551181102,
          "duration": 0.07621953124999692
        },
        {
          "name": "G4",
          "midi": 67,
          "time": 23.414639999999725,
          "velocity": 0.6929133858267716,
          "duration": 0.11178864583332881
        },
        {
          "name": "E4",
          "midi": 64,
          "time": 23.414639999999725,
          "velocity": 0.5196850393700787,
          "duration": 0.08130083333333005
        },
        {
          "name": "A1",
          "midi": 33,
          "time": 23.414639999999725,
          "velocity": 0.5590551181102362,
          "duration": 0.30487812499999123
        },
        {
          "name": "D2",
          "midi": 38,
          "time": 23.414639999999725,
          "velocity": 1,
          "duration": 0.010162604166666256
        },
        {
          "name": "C4",
          "midi": 60,
          "time": 23.414639999999725,
          "velocity": 0.5275590551181102,
          "duration": 0.07621953124999692
        },
        {
          "name": "E4",
          "midi": 64,
          "time": 23.414639999999725,
          "velocity": 0.5196850393700787,
          "duration": 0.08130083333333005
        },
        {
          "name": "E5",
          "midi": 76,
          "time": 23.42480260416639,
          "velocity": 0.8188976377952756,
          "duration": 0.13211385416666133
        },
        {
          "name": "C5",
          "midi": 72,
          "time": 23.42480260416639,
          "velocity": 0.8267716535433071,
          "duration": 0.11178864583332881
        },
        {
          "name": "B5",
          "midi": 83,
          "time": 23.434965208333058,
          "velocity": 0.8818897637795275,
          "duration": 0.12195124999999507
        },
        {
          "name": "B4",
          "midi": 71,
          "time": 23.434965208333058,
          "velocity": 0.9606299212598425,
          "duration": 0.9654473958333156
        },
        {
          "name": "D2",
          "midi": 38,
          "time": 23.53659124999972,
          "velocity": 1,
          "duration": 0.010162604166666256
        },
        {
          "name": "F#4",
          "midi": 66,
          "time": 23.653461197916386,
          "velocity": 0.28346456692913385,
          "duration": 0.005081302083333128
        },
        {
          "name": "G4",
          "midi": 67,
          "time": 23.65854249999972,
          "velocity": 0.49606299212598426,
          "duration": 0.08130083333333005
        },
        {
          "name": "D2",
          "midi": 38,
          "time": 23.65854249999972,
          "velocity": 0.9212598425196851,
          "duration": 0.010162604166666256
        },
        {
          "name": "F#2",
          "midi": 42,
          "time": 23.65854249999972,
          "velocity": 0.47244094488188976,
          "duration": 0.010162604166666256
        },
        {
          "name": "C5",
          "midi": 72,
          "time": 23.663623802083052,
          "velocity": 0.8503937007874016,
          "duration": 0.10670734374999569
        },
        {
          "name": "E5",
          "midi": 76,
          "time": 23.668705104166385,
          "velocity": 0.6456692913385826,
          "duration": 0.13211385416666133
        },
        {
          "name": "B5",
          "midi": 83,
          "time": 23.673786406249718,
          "velocity": 0.8582677165354331,
          "duration": 0.11686994791666194
        },
        {
          "name": "D2",
          "midi": 38,
          "time": 23.780493749999714,
          "velocity": 1,
          "duration": 0.010162604166666256
        },
        {
          "name": "G4",
          "midi": 67,
          "time": 23.89736369791638,
          "velocity": 0.48031496062992124,
          "duration": 0.015243906249999384
        },
        {
          "name": "D#2",
          "midi": 39,
          "time": 23.902444999999712,
          "velocity": 1,
          "duration": 0.010162604166666256
        },
        {
          "name": "C2",
          "midi": 36,
          "time": 23.902444999999712,
          "velocity": 0.84251968503937,
          "duration": 0.32520333333333085
        },
        {
          "name": "C5",
          "midi": 72,
          "time": 23.902444999999712,
          "velocity": 0.8267716535433071,
          "duration": 0.1168699479166655
        },
        {
          "name": "E5",
          "midi": 76,
          "time": 23.907526302083046,
          "velocity": 0.6377952755905512,
          "duration": 0.11178864583333237
        },
        {
          "name": "B5",
          "midi": 83,
          "time": 23.91260760416638,
          "velocity": 0.8818897637795275,
          "duration": 0.1168699479166655
        },
        {
          "name": "D2",
          "midi": 38,
          "time": 24.02439624999971,
          "velocity": 0.4251968503937008,
          "duration": 0.010162604166666256
        },
        {
          "name": "G4",
          "midi": 67,
          "time": 24.136184895833043,
          "velocity": 0.5826771653543307,
          "duration": 0.1168699479166655
        },
        {
          "name": "C5",
          "midi": 72,
          "time": 24.141266197916377,
          "velocity": 0.7637795275590551,
          "duration": 0.12195124999999862
        },
        {
          "name": "F#2",
          "midi": 42,
          "time": 24.14634749999971,
          "velocity": 0.47244094488188976,
          "duration": 0.010162604166666256
        },
        {
          "name": "D#2",
          "midi": 39,
          "time": 24.14634749999971,
          "velocity": 0.9448818897637795,
          "duration": 0.030487812499998768
        },
        {
          "name": "E4",
          "midi": 64,
          "time": 24.14634749999971,
          "velocity": 0.6220472440944882,
          "duration": 0.370935052083329
        },
        {
          "name": "C4",
          "midi": 60,
          "time": 24.14634749999971,
          "velocity": 0.6220472440944882,
          "duration": 0.36585374999999587
        },
        {
          "name": "E5",
          "midi": 76,
          "time": 24.14634749999971,
          "velocity": 0.6141732283464567,
          "duration": 0.10670734374999924
        },
        {
          "name": "C4",
          "midi": 60,
          "time": 24.14634749999971,
          "velocity": 0.6220472440944882,
          "duration": 0.36585374999999587
        },
        {
          "name": "C2",
          "midi": 36,
          "time": 24.14634749999971,
          "velocity": 0.5590551181102362,
          "duration": 0.21341468749999848
        },
        {
          "name": "A3",
          "midi": 57,
          "time": 24.14634749999971,
          "velocity": 0.5748031496062992,
          "duration": 0.34552854166666336
        },
        {
          "name": "E4",
          "midi": 64,
          "time": 24.14634749999971,
          "velocity": 0.6220472440944882,
          "duration": 0.370935052083329
        },
        {
          "name": "B5",
          "midi": 83,
          "time": 24.156510104166376,
          "velocity": 0.8346456692913385,
          "duration": 0.10162604166666611
        },
        {
          "name": "D2",
          "midi": 38,
          "time": 24.26829874999971,
          "velocity": 1,
          "duration": 0.010162604166666256
        },
        {
          "name": "G4",
          "midi": 67,
          "time": 24.385168697916374,
          "velocity": 0.5590551181102362,
          "duration": 0.11178864583333237
        },
        {
          "name": "D2",
          "midi": 38,
          "time": 24.390249999999707,
          "velocity": 1,
          "duration": 0.010162604166666256
        },
        {
          "name": "E2",
          "midi": 40,
          "time": 24.390249999999707,
          "velocity": 0.7559055118110236,
          "duration": 0.3201220312499977
        },
        {
          "name": "A4",
          "midi": 69,
          "time": 24.390249999999707,
          "velocity": 0.8661417322834646,
          "duration": 0.8536587499999868
        },
        {
          "name": "C5",
          "midi": 72,
          "time": 24.39533130208304,
          "velocity": 0.8110236220472441,
          "duration": 0.09654473958333298
        },
        {
          "name": "E5",
          "midi": 76,
          "time": 24.405493906249706,
          "velocity": 0.6692913385826772,
          "duration": 0.09654473958333298
        },
        {
          "name": "A4",
          "midi": 69,
          "time": 24.41057520833304,
          "velocity": 0.8661417322834646,
          "duration": 0.8536587499999868
        },
        {
          "name": "B5",
          "midi": 83,
          "time": 24.41057520833304,
          "velocity": 0.7322834645669292,
          "duration": 0.010162604166666256
        },
        {
          "name": "B5",
          "midi": 83,
          "time": 24.420737812499706,
          "velocity": 0.8818897637795275,
          "duration": 0.07113822916666734
        },
        {
          "name": "D2",
          "midi": 38,
          "time": 24.512201249999706,
          "velocity": 1,
          "duration": 0.010162604166666256
        },
        {
          "name": "G4",
          "midi": 67,
          "time": 24.618908593749705,
          "velocity": 0.5275590551181102,
          "duration": 0.0813008333333336
        },
        {
          "name": "C5",
          "midi": 72,
          "time": 24.623989895833038,
          "velocity": 0.7559055118110236,
          "duration": 0.0813008333333336
        },
        {
          "name": "E5",
          "midi": 76,
          "time": 24.62907119791637,
          "velocity": 0.6377952755905512,
          "duration": 0.09146343749999986
        },
        {
          "name": "C4",
          "midi": 60,
          "time": 24.634152499999704,
          "velocity": 0.5590551181102362,
          "duration": 0.06605692708333422
        },
        {
          "name": "E4",
          "midi": 64,
          "time": 24.634152499999704,
          "velocity": 0.5196850393700787,
          "duration": 0.06605692708333422
        },
        {
          "name": "A3",
          "midi": 57,
          "time": 24.634152499999704,
          "velocity": 0.49606299212598426,
          "duration": 0.06097562500000109
        },
        {
          "name": "E2",
          "midi": 40,
          "time": 24.634152499999704,
          "velocity": 0.5590551181102362,
          "duration": 0.29979682291666165
        },
        {
          "name": "C4",
          "midi": 60,
          "time": 24.634152499999704,
          "velocity": 0.5590551181102362,
          "duration": 0.06605692708333422
        },
        {
          "name": "E4",
          "midi": 64,
          "time": 24.634152499999704,
          "velocity": 0.5196850393700787,
          "duration": 0.06605692708333422
        },
        {
          "name": "F#2",
          "midi": 42,
          "time": 24.634152499999704,
          "velocity": 0.47244094488188976,
          "duration": 0.010162604166666256
        },
        {
          "name": "D2",
          "midi": 38,
          "time": 24.634152499999704,
          "velocity": 0.9212598425196851,
          "duration": 0.010162604166666256
        },
        {
          "name": "B5",
          "midi": 83,
          "time": 24.64431510416637,
          "velocity": 0.8818897637795275,
          "duration": 0.07113822916666734
        },
        {
          "name": "D2",
          "midi": 38,
          "time": 24.756103749999703,
          "velocity": 1,
          "duration": 0.010162604166666256
        },
        {
          "name": "G4",
          "midi": 67,
          "time": 24.85772979166637,
          "velocity": 0.5039370078740157,
          "duration": 0.10162604166666256
        },
        {
          "name": "C4",
          "midi": 60,
          "time": 24.8780549999997,
          "velocity": 0.5748031496062992,
          "duration": 0.09654473958332943
        },
        {
          "name": "C5",
          "midi": 72,
          "time": 24.8780549999997,
          "velocity": 0.7716535433070866,
          "duration": 0.09654473958332943
        },
        {
          "name": "A3",
          "midi": 57,
          "time": 24.8780549999997,
          "velocity": 0.5590551181102362,
          "duration": 0.09654473958332943
        },
        {
          "name": "E4",
          "midi": 64,
          "time": 24.8780549999997,
          "velocity": 0.5748031496062992,
          "duration": 0.10670734374999569
        },
        {
          "name": "D#2",
          "midi": 39,
          "time": 24.8780549999997,
          "velocity": 1,
          "duration": 0.010162604166666256
        },
        {
          "name": "F#2",
          "midi": 42,
          "time": 24.8780549999997,
          "velocity": 0.5590551181102362,
          "duration": 0.24898380208332682
        },
        {
          "name": "C2",
          "midi": 36,
          "time": 24.8780549999997,
          "velocity": 0.7244094488188977,
          "duration": 0.19308947916666241
        },
        {
          "name": "C4",
          "midi": 60,
          "time": 24.8780549999997,
          "velocity": 0.5748031496062992,
          "duration": 0.09654473958332943
        },
        {
          "name": "E4",
          "midi": 64,
          "time": 24.8780549999997,
          "velocity": 0.5748031496062992,
          "duration": 0.10670734374999569
        },
        {
          "name": "E5",
          "midi": 76,
          "time": 24.8932989062497,
          "velocity": 0.6929133858267716,
          "duration": 0.08638213541666317
        },
        {
          "name": "B5",
          "midi": 83,
          "time": 24.903461510416367,
          "velocity": 0.8818897637795275,
          "duration": 0.10162604166666256
        },
        {
          "name": "D2",
          "midi": 38,
          "time": 25.000006249999696,
          "velocity": 0.4251968503937008,
          "duration": 0.010162604166666256
        },
        {
          "name": "G#4",
          "midi": 68,
          "time": 25.106713593749696,
          "velocity": 0.3464566929133858,
          "duration": 0.010162604166666256
        },
        {
          "name": "D2",
          "midi": 38,
          "time": 25.121957499999695,
          "velocity": 0.8503937007874016,
          "duration": 0.010162604166666256
        },
        {
          "name": "F#2",
          "midi": 42,
          "time": 25.121957499999695,
          "velocity": 0.47244094488188976,
          "duration": 0.010162604166666256
        },
        {
          "name": "E2",
          "midi": 40,
          "time": 25.121957499999695,
          "velocity": 0.5590551181102362,
          "duration": 0.18800817708333284
        },
        {
          "name": "G4",
          "midi": 67,
          "time": 25.121957499999695,
          "velocity": 0.4094488188976378,
          "duration": 0.10670734374999924
        },
        {
          "name": "C5",
          "midi": 72,
          "time": 25.127038802083028,
          "velocity": 0.7637795275590551,
          "duration": 0.10670734374999924
        },
        {
          "name": "E5",
          "midi": 76,
          "time": 25.13212010416636,
          "velocity": 0.5590551181102362,
          "duration": 0.0813008333333336
        },
        {
          "name": "B5",
          "midi": 83,
          "time": 25.137201406249694,
          "velocity": 0.7637795275590551,
          "duration": 0.1168699479166655
        },
        {
          "name": "D2",
          "midi": 38,
          "time": 25.243908749999694,
          "velocity": 1,
          "duration": 0.010162604166666256
        },
        {
          "name": "C4",
          "midi": 60,
          "time": 25.365859999999696,
          "velocity": 0.5275590551181102,
          "duration": 0.08638213541666673
        },
        {
          "name": "G4",
          "midi": 67,
          "time": 25.365859999999696,
          "velocity": 0.5433070866141733,
          "duration": 0.07113822916666734
        },
        {
          "name": "D2",
          "midi": 38,
          "time": 25.365859999999696,
          "velocity": 1,
          "duration": 0.010162604166666256
        },
        {
          "name": "E4",
          "midi": 64,
          "time": 25.365859999999696,
          "velocity": 1,
          "duration": 0.11178864583333237
        },
        {
          "name": "A1",
          "midi": 33,
          "time": 25.365859999999696,
          "velocity": 0.5590551181102362,
          "duration": 0.25914640624999663
        },
        {
          "name": "E4",
          "midi": 64,
          "time": 25.365859999999696,
          "velocity": 0.5275590551181102,
          "duration": 0.11178864583333237
        },
        {
          "name": "A1",
          "midi": 33,
          "time": 25.365859999999696,
          "velocity": 0.8110236220472441,
          "duration": 0.3099594270833279
        },
        {
          "name": "C4",
          "midi": 60,
          "time": 25.365859999999696,
          "velocity": 0.5275590551181102,
          "duration": 0.08638213541666673
        },
        {
          "name": "A3",
          "midi": 57,
          "time": 25.365859999999696,
          "velocity": 0.5354330708661418,
          "duration": 0.09146343749999986
        },
        {
          "name": "E4",
          "midi": 64,
          "time": 25.365859999999696,
          "velocity": 0.5275590551181102,
          "duration": 0.46747979166665843
        },
        {
          "name": "C5",
          "midi": 72,
          "time": 25.37094130208303,
          "velocity": 0.8661417322834646,
          "duration": 0.09654473958333298
        },
        {
          "name": "E5",
          "midi": 76,
          "time": 25.381103906249695,
          "velocity": 0.6692913385826772,
          "duration": 0.08638213541666673
        },
        {
          "name": "B5",
          "midi": 83,
          "time": 25.38618520833303,
          "velocity": 0.8818897637795275,
          "duration": 0.08638213541666673
        },
        {
          "name": "D2",
          "midi": 38,
          "time": 25.487811249999694,
          "velocity": 1,
          "duration": 0.010162604166666256
        },
        {
          "name": "D2",
          "midi": 38,
          "time": 25.609762499999693,
          "velocity": 0.9212598425196851,
          "duration": 0.010162604166666256
        },
        {
          "name": "F#2",
          "midi": 42,
          "time": 25.609762499999693,
          "velocity": 0.47244094488188976,
          "duration": 0.010162604166666256
        },
        {
          "name": "G4",
          "midi": 67,
          "time": 25.609762499999693,
          "velocity": 0.4094488188976378,
          "duration": 0.060975624999997535
        },
        {
          "name": "C5",
          "midi": 72,
          "time": 25.614843802083026,
          "velocity": 0.8110236220472441,
          "duration": 0.10162604166666256
        },
        {
          "name": "E5",
          "midi": 76,
          "time": 25.625006406249693,
          "velocity": 0.6692913385826772,
          "duration": 0.0914634374999963
        },
        {
          "name": "B5",
          "midi": 83,
          "time": 25.630087708333026,
          "velocity": 0.8818897637795275,
          "duration": 0.0914634374999963
        },
        {
          "name": "D2",
          "midi": 38,
          "time": 25.731713749999688,
          "velocity": 1,
          "duration": 0.010162604166666256
        },
        {
          "name": "G4",
          "midi": 67,
          "time": 25.84350239583302,
          "velocity": 0.4094488188976378,
          "duration": 0.10162604166666611
        },
        {
          "name": "D#2",
          "midi": 39,
          "time": 25.853664999999687,
          "velocity": 1,
          "duration": 0.010162604166666256
        },
        {
          "name": "B4",
          "midi": 71,
          "time": 25.853664999999687,
          "velocity": 0.952755905511811,
          "duration": 0.3658537499999923
        },
        {
          "name": "C2",
          "midi": 36,
          "time": 25.853664999999687,
          "velocity": 0.8110236220472441,
          "duration": 0.31504072916666104
        },
        {
          "name": "C5",
          "midi": 72,
          "time": 25.85874630208302,
          "velocity": 0.7874015748031497,
          "duration": 0.09654473958333298
        },
        {
          "name": "E5",
          "midi": 76,
          "time": 25.863827604166353,
          "velocity": 0.5039370078740157,
          "duration": 0.0813008333333336
        },
        {
          "name": "B5",
          "midi": 83,
          "time": 25.868908906249686,
          "velocity": 0.8818897637795275,
          "duration": 0.08638213541666673
        },
        {
          "name": "D2",
          "midi": 38,
          "time": 25.975616249999685,
          "velocity": 0.4251968503937008,
          "duration": 0.010162604166666256
        },
        {
          "name": "F#2",
          "midi": 42,
          "time": 26.097567499999684,
          "velocity": 0.47244094488188976,
          "duration": 0.010162604166666256
        },
        {
          "name": "A3",
          "midi": 57,
          "time": 26.097567499999684,
          "velocity": 0.6220472440944882,
          "duration": 0.43191067708332653
        },
        {
          "name": "E4",
          "midi": 64,
          "time": 26.097567499999684,
          "velocity": 0.5590551181102362,
          "duration": 0.4471545833333259
        },
        {
          "name": "C4",
          "midi": 60,
          "time": 26.097567499999684,
          "velocity": 0.5984251968503937,
          "duration": 0.43699197916665966
        },
        {
          "name": "C5",
          "midi": 72,
          "time": 26.097567499999684,
          "velocity": 0.8503937007874016,
          "duration": 0.10670734374999569
        },
        {
          "name": "C2",
          "midi": 36,
          "time": 26.097567499999684,
          "velocity": 0.5590551181102362,
          "duration": 0.19308947916666241
        },
        {
          "name": "D#2",
          "midi": 39,
          "time": 26.097567499999684,
          "velocity": 0.9448818897637795,
          "duration": 0.030487812499998768
        },
        {
          "name": "E4",
          "midi": 64,
          "time": 26.097567499999684,
          "velocity": 0.5590551181102362,
          "duration": 0.4471545833333259
        },
        {
          "name": "G4",
          "midi": 67,
          "time": 26.097567499999684,
          "velocity": 0.4094488188976378,
          "duration": 0.060975624999997535
        },
        {
          "name": "C4",
          "midi": 60,
          "time": 26.097567499999684,
          "velocity": 0.5984251968503937,
          "duration": 0.43699197916665966
        },
        {
          "name": "E5",
          "midi": 76,
          "time": 26.10773010416635,
          "velocity": 0.5590551181102362,
          "duration": 0.0914634374999963
        },
        {
          "name": "B5",
          "midi": 83,
          "time": 26.117892708333017,
          "velocity": 0.8818897637795275,
          "duration": 0.10162604166666256
        },
        {
          "name": "D2",
          "midi": 38,
          "time": 26.21951874999968,
          "velocity": 1,
          "duration": 0.010162604166666256
        },
        {
          "name": "G4",
          "midi": 67,
          "time": 26.33130739583301,
          "velocity": 0.5826771653543307,
          "duration": 0.09654473958333298
        },
        {
          "name": "C5",
          "midi": 72,
          "time": 26.336388697916345,
          "velocity": 0.8110236220472441,
          "duration": 0.10670734374999924
        },
        {
          "name": "A#4",
          "midi": 70,
          "time": 26.341469999999678,
          "velocity": 1,
          "duration": 0.040650416666665024
        },
        {
          "name": "D2",
          "midi": 38,
          "time": 26.341469999999678,
          "velocity": 1,
          "duration": 0.010162604166666256
        },
        {
          "name": "E2",
          "midi": 40,
          "time": 26.341469999999678,
          "velocity": 0.8110236220472441,
          "duration": 0.2896342187499954
        },
        {
          "name": "B5",
          "midi": 83,
          "time": 26.341469999999678,
          "velocity": 0.8818897637795275,
          "duration": 0.12195124999999862
        },
        {
          "name": "E5",
          "midi": 76,
          "time": 26.341469999999678,
          "velocity": 0.6850393700787402,
          "duration": 0.1168699479166655
        },
        {
          "name": "B4",
          "midi": 71,
          "time": 26.382120416666343,
          "velocity": 1,
          "duration": 0.6910570833333232
        },
        {
          "name": "D2",
          "midi": 38,
          "time": 26.463421249999676,
          "velocity": 1,
          "duration": 0.010162604166666256
        },
        {
          "name": "F#4",
          "midi": 66,
          "time": 26.565047291666342,
          "velocity": 0.3700787401574803,
          "duration": 0.010162604166666256
        },
        {
          "name": "E2",
          "midi": 40,
          "time": 26.585372499999675,
          "velocity": 0.5590551181102362,
          "duration": 0.2794716145833256
        },
        {
          "name": "A3",
          "midi": 57,
          "time": 26.585372499999675,
          "velocity": 0.5748031496062992,
          "duration": 0.05081302083333128
        },
        {
          "name": "C5",
          "midi": 72,
          "time": 26.585372499999675,
          "velocity": 0.8110236220472441,
          "duration": 0.10162604166666256
        },
        {
          "name": "E5",
          "midi": 76,
          "time": 26.585372499999675,
          "velocity": 0.6614173228346457,
          "duration": 0.10162604166666256
        },
        {
          "name": "C4",
          "midi": 60,
          "time": 26.585372499999675,
          "velocity": 0.5984251968503937,
          "duration": 0.05081302083333128
        },
        {
          "name": "E4",
          "midi": 64,
          "time": 26.585372499999675,
          "velocity": 0.5196850393700787,
          "duration": 0.05589432291666441
        },
        {
          "name": "F#2",
          "midi": 42,
          "time": 26.585372499999675,
          "velocity": 0.47244094488188976,
          "duration": 0.010162604166666256
        },
        {
          "name": "D2",
          "midi": 38,
          "time": 26.585372499999675,
          "velocity": 0.9212598425196851,
          "duration": 0.010162604166666256
        },
        {
          "name": "C4",
          "midi": 60,
          "time": 26.585372499999675,
          "velocity": 0.5984251968503937,
          "duration": 0.05081302083333128
        },
        {
          "name": "G4",
          "midi": 67,
          "time": 26.585372499999675,
          "velocity": 0.5196850393700787,
          "duration": 0.0914634374999963
        },
        {
          "name": "E4",
          "midi": 64,
          "time": 26.585372499999675,
          "velocity": 0.5196850393700787,
          "duration": 0.05589432291666441
        },
        {
          "name": "B5",
          "midi": 83,
          "time": 26.59553510416634,
          "velocity": 0.8818897637795275,
          "duration": 0.12195124999999507
        },
        {
          "name": "D2",
          "midi": 38,
          "time": 26.70732374999967,
          "velocity": 1,
          "duration": 0.010162604166666256
        },
        {
          "name": "G4",
          "midi": 67,
          "time": 26.808949791666336,
          "velocity": 0.49606299212598426,
          "duration": 0.137195156249998
        },
        {
          "name": "C5",
          "midi": 72,
          "time": 26.82927499999967,
          "velocity": 0.7559055118110236,
          "duration": 0.1168699479166655
        },
        {
          "name": "F#2",
          "midi": 42,
          "time": 26.82927499999967,
          "velocity": 0.5590551181102362,
          "duration": 0.22865859374999786
        },
        {
          "name": "C2",
          "midi": 36,
          "time": 26.82927499999967,
          "velocity": 0.8110236220472441,
          "duration": 0.274390312499996
        },
        {
          "name": "C4",
          "midi": 60,
          "time": 26.82927499999967,
          "velocity": 0.49606299212598426,
          "duration": 0.05081302083333128
        },
        {
          "name": "E4",
          "midi": 64,
          "time": 26.82927499999967,
          "velocity": 0.47244094488188976,
          "duration": 0.060975624999997535
        },
        {
          "name": "C4",
          "midi": 60,
          "time": 26.82927499999967,
          "velocity": 0.49606299212598426,
          "duration": 0.05081302083333128
        },
        {
          "name": "A3",
          "midi": 57,
          "time": 26.82927499999967,
          "velocity": 0.48031496062992124,
          "duration": 0.060975624999997535
        },
        {
          "name": "E4",
          "midi": 64,
          "time": 26.82927499999967,
          "velocity": 0.47244094488188976,
          "duration": 0.060975624999997535
        },
        {
          "name": "D#2",
          "midi": 39,
          "time": 26.82927499999967,
          "velocity": 1,
          "duration": 0.010162604166666256
        },
        {
          "name": "E5",
          "midi": 76,
          "time": 26.844518906249668,
          "velocity": 0.6614173228346457,
          "duration": 0.10162604166666611
        },
        {
          "name": "B5",
          "midi": 83,
          "time": 26.849600208333,
          "velocity": 0.8818897637795275,
          "duration": 0.09146343749999986
        },
        {
          "name": "D2",
          "midi": 38,
          "time": 26.951226249999667,
          "velocity": 0.4251968503937008,
          "duration": 0.010162604166666256
        },
        {
          "name": "G4",
          "midi": 67,
          "time": 27.063014895833,
          "velocity": 0.3464566929133858,
          "duration": 0.02540651041666564
        },
        {
          "name": "F#2",
          "midi": 42,
          "time": 27.073177499999666,
          "velocity": 0.47244094488188976,
          "duration": 0.010162604166666256
        },
        {
          "name": "E2",
          "midi": 40,
          "time": 27.073177499999666,
          "velocity": 0.5590551181102362,
          "duration": 0.21341468749999848
        },
        {
          "name": "D2",
          "midi": 38,
          "time": 27.073177499999666,
          "velocity": 0.8503937007874016,
          "duration": 0.010162604166666256
        },
        {
          "name": "C5",
          "midi": 72,
          "time": 27.073177499999666,
          "velocity": 0.84251968503937,
          "duration": 0.1168699479166655
        },
        {
          "name": "A4",
          "midi": 69,
          "time": 27.073177499999666,
          "velocity": 1,
          "duration": 0.21341468749999848
        },
        {
          "name": "E5",
          "midi": 76,
          "time": 27.078258802083,
          "velocity": 0.5748031496062992,
          "duration": 0.1168699479166655
        },
        {
          "name": "B5",
          "midi": 83,
          "time": 27.083340104166332,
          "velocity": 0.8818897637795275,
          "duration": 0.10670734374999924
        },
        {
          "name": "D2",
          "midi": 38,
          "time": 27.195128749999665,
          "velocity": 1,
          "duration": 0.010162604166666256
        },
        {
          "name": "E4",
          "midi": 64,
          "time": 27.317079999999663,
          "velocity": 0.5275590551181102,
          "duration": 0.11178864583333237
        },
        {
          "name": "A1",
          "midi": 33,
          "time": 27.317079999999663,
          "velocity": 0.5590551181102362,
          "duration": 0.274390312499996
        },
        {
          "name": "C4",
          "midi": 60,
          "time": 27.317079999999663,
          "velocity": 0.5275590551181102,
          "duration": 0.08638213541666673
        },
        {
          "name": "D2",
          "midi": 38,
          "time": 27.317079999999663,
          "velocity": 1,
          "duration": 0.010162604166666256
        },
        {
          "name": "A1",
          "midi": 33,
          "time": 27.317079999999663,
          "velocity": 0.7874015748031497,
          "duration": 0.3048781249999948
        },
        {
          "name": "C4",
          "midi": 60,
          "time": 27.317079999999663,
          "velocity": 0.5275590551181102,
          "duration": 0.08638213541666673
        },
        {
          "name": "E4",
          "midi": 64,
          "time": 27.317079999999663,
          "velocity": 0.5275590551181102,
          "duration": 0.11178864583333237
        },
        {
          "name": "E4",
          "midi": 64,
          "time": 27.317079999999663,
          "velocity": 1,
          "duration": 0.233739895833331
        },
        {
          "name": "G4",
          "midi": 67,
          "time": 27.317079999999663,
          "velocity": 0.6929133858267716,
          "duration": 0.11178864583333237
        },
        {
          "name": "A3",
          "midi": 57,
          "time": 27.317079999999663,
          "velocity": 0.5354330708661418,
          "duration": 0.09146343749999986
        },
        {
          "name": "E5",
          "midi": 76,
          "time": 27.32724260416633,
          "velocity": 0.8188976377952756,
          "duration": 0.13211385416666488
        },
        {
          "name": "C5",
          "midi": 72,
          "time": 27.32724260416633,
          "velocity": 0.8267716535433071,
          "duration": 0.11178864583333237
        },
        {
          "name": "B5",
          "midi": 83,
          "time": 27.337405208332996,
          "velocity": 0.8818897637795275,
          "duration": 0.12195124999999862
        },
        {
          "name": "D2",
          "midi": 38,
          "time": 27.439031249999662,
          "velocity": 1,
          "duration": 0.010162604166666256
        },
        {
          "name": "F#4",
          "midi": 66,
          "time": 27.555901197916327,
          "velocity": 0.28346456692913385,
          "duration": 0.005081302083333128
        },
        {
          "name": "G4",
          "midi": 67,
          "time": 27.56098249999966,
          "velocity": 0.49606299212598426,
          "duration": 0.08130083333333005
        },
        {
          "name": "D2",
          "midi": 38,
          "time": 27.56098249999966,
          "velocity": 0.9212598425196851,
          "duration": 0.010162604166666256
        },
        {
          "name": "F#2",
          "midi": 42,
          "time": 27.56098249999966,
          "velocity": 0.47244094488188976,
          "duration": 0.010162604166666256
        },
        {
          "name": "A4",
          "midi": 69,
          "time": 27.56098249999966,
          "velocity": 0.889763779527559,
          "duration": 0.23373989583332744
        },
        {
          "name": "C5",
          "midi": 72,
          "time": 27.566063802082994,
          "velocity": 0.8503937007874016,
          "duration": 0.10670734374999569
        },
        {
          "name": "E5",
          "midi": 76,
          "time": 27.571145104166327,
          "velocity": 0.6456692913385826,
          "duration": 0.13211385416666133
        },
        {
          "name": "B5",
          "midi": 83,
          "time": 27.57622640624966,
          "velocity": 0.8582677165354331,
          "duration": 0.11686994791666194
        },
        {
          "name": "D2",
          "midi": 38,
          "time": 27.682933749999656,
          "velocity": 1,
          "duration": 0.010162604166666256
        },
        {
          "name": "G4",
          "midi": 67,
          "time": 27.79980369791632,
          "velocity": 0.48031496062992124,
          "duration": 0.015243906249999384
        },
        {
          "name": "D#2",
          "midi": 39,
          "time": 27.804884999999654,
          "velocity": 1,
          "duration": 0.010162604166666256
        },
        {
          "name": "C2",
          "midi": 36,
          "time": 27.804884999999654,
          "velocity": 0.84251968503937,
          "duration": 0.32520333333333085
        },
        {
          "name": "C5",
          "midi": 72,
          "time": 27.804884999999654,
          "velocity": 0.8267716535433071,
          "duration": 0.1168699479166655
        },
        {
          "name": "B4",
          "midi": 71,
          "time": 27.804884999999654,
          "velocity": 0.952755905511811,
          "duration": 0.233739895833331
        },
        {
          "name": "E5",
          "midi": 76,
          "time": 27.809966302082987,
          "velocity": 0.6377952755905512,
          "duration": 0.11178864583333237
        },
        {
          "name": "B5",
          "midi": 83,
          "time": 27.81504760416632,
          "velocity": 0.8818897637795275,
          "duration": 0.1168699479166655
        },
        {
          "name": "D2",
          "midi": 38,
          "time": 27.926836249999653,
          "velocity": 0.4251968503937008,
          "duration": 0.010162604166666256
        },
        {
          "name": "G4",
          "midi": 67,
          "time": 28.038624895832985,
          "velocity": 0.5826771653543307,
          "duration": 0.1168699479166655
        },
        {
          "name": "C5",
          "midi": 72,
          "time": 28.04370619791632,
          "velocity": 0.7637795275590551,
          "duration": 0.12195124999999862
        },
        {
          "name": "F#2",
          "midi": 42,
          "time": 28.04878749999965,
          "velocity": 0.47244094488188976,
          "duration": 0.010162604166666256
        },
        {
          "name": "C5",
          "midi": 72,
          "time": 28.04878749999965,
          "velocity": 0.8582677165354331,
          "duration": 0.233739895833331
        },
        {
          "name": "E4",
          "midi": 64,
          "time": 28.04878749999965,
          "velocity": 0.5590551181102362,
          "duration": 0.44715458333332947
        },
        {
          "name": "D#2",
          "midi": 39,
          "time": 28.04878749999965,
          "velocity": 0.9448818897637795,
          "duration": 0.030487812499998768
        },
        {
          "name": "A3",
          "midi": 57,
          "time": 28.04878749999965,
          "velocity": 0.6220472440944882,
          "duration": 0.4319106770833301
        },
        {
          "name": "C2",
          "midi": 36,
          "time": 28.04878749999965,
          "velocity": 0.5590551181102362,
          "duration": 0.21341468749999848
        },
        {
          "name": "C4",
          "midi": 60,
          "time": 28.04878749999965,
          "velocity": 0.5984251968503937,
          "duration": 0.4369919791666632
        },
        {
          "name": "C4",
          "midi": 60,
          "time": 28.04878749999965,
          "velocity": 0.5984251968503937,
          "duration": 0.4369919791666632
        },
        {
          "name": "E5",
          "midi": 76,
          "time": 28.04878749999965,
          "velocity": 0.6141732283464567,
          "duration": 0.10670734374999924
        },
        {
          "name": "E4",
          "midi": 64,
          "time": 28.04878749999965,
          "velocity": 0.5590551181102362,
          "duration": 0.44715458333332947
        },
        {
          "name": "B5",
          "midi": 83,
          "time": 28.058950104166318,
          "velocity": 0.8346456692913385,
          "duration": 0.10162604166666611
        },
        {
          "name": "D2",
          "midi": 38,
          "time": 28.17073874999965,
          "velocity": 1,
          "duration": 0.010162604166666256
        },
        {
          "name": "G4",
          "midi": 67,
          "time": 28.287608697916315,
          "velocity": 0.5590551181102362,
          "duration": 0.11178864583333237
        },
        {
          "name": "D2",
          "midi": 38,
          "time": 28.29268999999965,
          "velocity": 1,
          "duration": 0.010162604166666256
        },
        {
          "name": "E2",
          "midi": 40,
          "time": 28.29268999999965,
          "velocity": 0.7559055118110236,
          "duration": 0.32012203124999417
        },
        {
          "name": "C5",
          "midi": 72,
          "time": 28.29777130208298,
          "velocity": 0.8110236220472441,
          "duration": 0.09654473958333298
        },
        {
          "name": "A#4",
          "midi": 70,
          "time": 28.307933906249648,
          "velocity": 1,
          "duration": 0.040650416666665024
        },
        {
          "name": "E5",
          "midi": 76,
          "time": 28.307933906249648,
          "velocity": 0.6692913385826772,
          "duration": 0.09654473958333298
        },
        {
          "name": "B5",
          "midi": 83,
          "time": 28.31301520833298,
          "velocity": 0.7322834645669292,
          "duration": 0.010162604166666256
        },
        {
          "name": "B5",
          "midi": 83,
          "time": 28.323177812499647,
          "velocity": 0.8818897637795275,
          "duration": 0.07113822916666734
        },
        {
          "name": "B4",
          "midi": 71,
          "time": 28.348584322916313,
          "velocity": 1,
          "duration": 0.6910570833333196
        },
        {
          "name": "D2",
          "midi": 38,
          "time": 28.414641249999647,
          "velocity": 1,
          "duration": 0.010162604166666256
        },
        {
          "name": "G4",
          "midi": 67,
          "time": 28.521348593749646,
          "velocity": 0.5275590551181102,
          "duration": 0.08130083333333005
        },
        {
          "name": "C5",
          "midi": 72,
          "time": 28.52642989583298,
          "velocity": 0.7559055118110236,
          "duration": 0.08130083333333005
        },
        {
          "name": "E5",
          "midi": 76,
          "time": 28.531511197916313,
          "velocity": 0.6377952755905512,
          "duration": 0.0914634374999963
        },
        {
          "name": "E4",
          "midi": 64,
          "time": 28.536592499999646,
          "velocity": 0.5196850393700787,
          "duration": 0.05589432291666441
        },
        {
          "name": "E2",
          "midi": 40,
          "time": 28.536592499999646,
          "velocity": 0.5590551181102362,
          "duration": 0.2997968229166581
        },
        {
          "name": "C4",
          "midi": 60,
          "time": 28.536592499999646,
          "velocity": 0.5984251968503937,
          "duration": 0.05081302083333128
        },
        {
          "name": "A3",
          "midi": 57,
          "time": 28.536592499999646,
          "velocity": 0.5748031496062992,
          "duration": 0.05081302083333128
        },
        {
          "name": "F#2",
          "midi": 42,
          "time": 28.536592499999646,
          "velocity": 0.47244094488188976,
          "duration": 0.010162604166666256
        },
        {
          "name": "C4",
          "midi": 60,
          "time": 28.536592499999646,
          "velocity": 0.5984251968503937,
          "duration": 0.05081302083333128
        },
        {
          "name": "E4",
          "midi": 64,
          "time": 28.536592499999646,
          "velocity": 0.5196850393700787,
          "duration": 0.05589432291666441
        },
        {
          "name": "D2",
          "midi": 38,
          "time": 28.536592499999646,
          "velocity": 0.9212598425196851,
          "duration": 0.010162604166666256
        },
        {
          "name": "B5",
          "midi": 83,
          "time": 28.546755104166312,
          "velocity": 0.8818897637795275,
          "duration": 0.07113822916666379
        },
        {
          "name": "D2",
          "midi": 38,
          "time": 28.65854374999964,
          "velocity": 1,
          "duration": 0.010162604166666256
        },
        {
          "name": "G4",
          "midi": 67,
          "time": 28.760169791666307,
          "velocity": 0.5039370078740157,
          "duration": 0.10162604166666256
        },
        {
          "name": "C4",
          "midi": 60,
          "time": 28.78049499999964,
          "velocity": 0.49606299212598426,
          "duration": 0.05081302083333128
        },
        {
          "name": "C5",
          "midi": 72,
          "time": 28.78049499999964,
          "velocity": 0.7716535433070866,
          "duration": 0.09654473958332943
        },
        {
          "name": "E4",
          "midi": 64,
          "time": 28.78049499999964,
          "velocity": 0.47244094488188976,
          "duration": 0.060975624999997535
        },
        {
          "name": "E4",
          "midi": 64,
          "time": 28.78049499999964,
          "velocity": 0.47244094488188976,
          "duration": 0.060975624999997535
        },
        {
          "name": "C4",
          "midi": 60,
          "time": 28.78049499999964,
          "velocity": 0.49606299212598426,
          "duration": 0.05081302083333128
        },
        {
          "name": "C2",
          "midi": 36,
          "time": 28.78049499999964,
          "velocity": 0.7244094488188977,
          "duration": 0.19308947916666241
        },
        {
          "name": "F#2",
          "midi": 42,
          "time": 28.78049499999964,
          "velocity": 0.5590551181102362,
          "duration": 0.24898380208332682
        },
        {
          "name": "A3",
          "midi": 57,
          "time": 28.78049499999964,
          "velocity": 0.48031496062992124,
          "duration": 0.060975624999997535
        },
        {
          "name": "D#2",
          "midi": 39,
          "time": 28.78049499999964,
          "velocity": 1,
          "duration": 0.010162604166666256
        },
        {
          "name": "E5",
          "midi": 76,
          "time": 28.79573890624964,
          "velocity": 0.6929133858267716,
          "duration": 0.08638213541666317
        },
        {
          "name": "B5",
          "midi": 83,
          "time": 28.805901510416305,
          "velocity": 0.8818897637795275,
          "duration": 0.10162604166666256
        },
        {
          "name": "D2",
          "midi": 38,
          "time": 28.902446249999635,
          "velocity": 0.4251968503937008,
          "duration": 0.010162604166666256
        },
        {
          "name": "G#4",
          "midi": 68,
          "time": 29.009153593749634,
          "velocity": 0.3464566929133858,
          "duration": 0.010162604166666256
        },
        {
          "name": "E2",
          "midi": 40,
          "time": 29.024397499999633,
          "velocity": 0.5590551181102362,
          "duration": 0.18800817708333284
        },
        {
          "name": "D2",
          "midi": 38,
          "time": 29.024397499999633,
          "velocity": 0.8503937007874016,
          "duration": 0.010162604166666256
        },
        {
          "name": "F#2",
          "midi": 42,
          "time": 29.024397499999633,
          "velocity": 0.47244094488188976,
          "duration": 0.010162604166666256
        },
        {
          "name": "G4",
          "midi": 67,
          "time": 29.024397499999633,
          "velocity": 0.4094488188976378,
          "duration": 0.10670734374999924
        },
        {
          "name": "C5",
          "midi": 72,
          "time": 29.029478802082966,
          "velocity": 0.7637795275590551,
          "duration": 0.10670734374999924
        },
        {
          "name": "E5",
          "midi": 76,
          "time": 29.0345601041663,
          "velocity": 0.5590551181102362,
          "duration": 0.0813008333333336
        },
        {
          "name": "B5",
          "midi": 83,
          "time": 29.039641406249633,
          "velocity": 0.7637795275590551,
          "duration": 0.1168699479166655
        },
        {
          "name": "D2",
          "midi": 38,
          "time": 29.146348749999632,
          "velocity": 1,
          "duration": 0.010162604166666256
        },
        {
          "name": "F4",
          "midi": 65,
          "time": 29.268299999999634,
          "velocity": 0.6614173228346457,
          "duration": 0.04573171874999815
        },
        {
          "name": "D4",
          "midi": 62,
          "time": 29.268299999999634,
          "velocity": 0.5748031496062992,
          "duration": 0.035569114583331896
        },
        {
          "name": "C4",
          "midi": 60,
          "time": 29.268299999999634,
          "velocity": 0.4881889763779528,
          "duration": 0.07621953124999692
        },
        {
          "name": "D2",
          "midi": 38,
          "time": 29.268299999999634,
          "velocity": 1,
          "duration": 0.010162604166666256
        },
        {
          "name": "D2",
          "midi": 38,
          "time": 29.268299999999634,
          "velocity": 0.5590551181102362,
          "duration": 0.13211385416666133
        },
        {
          "name": "D4",
          "midi": 62,
          "time": 29.268299999999634,
          "velocity": 0.5748031496062992,
          "duration": 0.035569114583331896
        },
        {
          "name": "A4",
          "midi": 69,
          "time": 29.268299999999634,
          "velocity": 0.889763779527559,
          "duration": 0.10162604166666256
        },
        {
          "name": "A3",
          "midi": 57,
          "time": 29.268299999999634,
          "velocity": 0.5433070866141733,
          "duration": 0.05081302083333128
        },
        {
          "name": "D2",
          "midi": 38,
          "time": 29.268299999999634,
          "velocity": 0.8110236220472441,
          "duration": 0.25406510416665995
        },
        {
          "name": "F4",
          "midi": 65,
          "time": 29.268299999999634,
          "velocity": 0.6614173228346457,
          "duration": 0.04573171874999815
        },
        {
          "name": "F4",
          "midi": 65,
          "time": 29.273381302082967,
          "velocity": 0.9212598425196851,
          "duration": 0.09654473958332943
        },
        {
          "name": "E5",
          "midi": 76,
          "time": 29.288625208332967,
          "velocity": 0.937007874015748,
          "duration": 0.0914634374999963
        },
        {
          "name": "A4",
          "midi": 69,
          "time": 29.288625208332967,
          "velocity": 0.6062992125984252,
          "duration": 0.21341468749999493
        },
        {
          "name": "D2",
          "midi": 38,
          "time": 29.39025124999963,
          "velocity": 1,
          "duration": 0.16768296874999677
        },
        {
          "name": "E5",
          "midi": 76,
          "time": 29.512202499999628,
          "velocity": 0.9133858267716536,
          "duration": 0.010162604166666256
        },
        {
          "name": "D2",
          "midi": 38,
          "time": 29.512202499999628,
          "velocity": 0.9212598425196851,
          "duration": 0.11178864583333237
        },
        {
          "name": "F#2",
          "midi": 42,
          "time": 29.512202499999628,
          "velocity": 0.47244094488188976,
          "duration": 0.010162604166666256
        },
        {
          "name": "D5",
          "midi": 74,
          "time": 29.512202499999628,
          "velocity": 0.8976377952755905,
          "duration": 0.233739895833331
        },
        {
          "name": "F4",
          "midi": 65,
          "time": 29.51728380208296,
          "velocity": 0.9212598425196851,
          "duration": 0.10162604166666611
        },
        {
          "name": "A4",
          "midi": 69,
          "time": 29.527446406249627,
          "velocity": 0.6062992125984252,
          "duration": 0.09146343749999986
        },
        {
          "name": "E5",
          "midi": 76,
          "time": 29.53252770833296,
          "velocity": 0.937007874015748,
          "duration": 0.09146343749999986
        },
        {
          "name": "D2",
          "midi": 38,
          "time": 29.634153749999626,
          "velocity": 1,
          "duration": 0.010162604166666256
        },
        {
          "name": "C4",
          "midi": 60,
          "time": 29.74594239583296,
          "velocity": 0.3700787401574803,
          "duration": 0.10162604166666611
        },
        {
          "name": "E5",
          "midi": 76,
          "time": 29.756104999999625,
          "velocity": 0.9133858267716536,
          "duration": 0.10162604166666611
        },
        {
          "name": "F2",
          "midi": 41,
          "time": 29.756104999999625,
          "velocity": 0.8110236220472441,
          "duration": 0.3099594270833279
        },
        {
          "name": "D#2",
          "midi": 39,
          "time": 29.756104999999625,
          "velocity": 1,
          "duration": 0.010162604166666256
        },
        {
          "name": "F4",
          "midi": 65,
          "time": 29.761186302082958,
          "velocity": 0.8503937007874016,
          "duration": 0.09654473958333298
        },
        {
          "name": "A4",
          "midi": 69,
          "time": 29.771348906249624,
          "velocity": 0.4566929133858268,
          "duration": 0.08638213541666673
        },
        {
          "name": "E5",
          "midi": 76,
          "time": 29.776430208332958,
          "velocity": 0.937007874015748,
          "duration": 0.21341468749999848
        },
        {
          "name": "D2",
          "midi": 38,
          "time": 29.878056249999624,
          "velocity": 0.4251968503937008,
          "duration": 0.010162604166666256
        },
        {
          "name": "F4",
          "midi": 65,
          "time": 30.000007499999622,
          "velocity": 0.6456692913385826,
          "duration": 0.10670734374999569
        },
        {
          "name": "F2",
          "midi": 41,
          "time": 30.000007499999622,
          "velocity": 0.5590551181102362,
          "duration": 0.2642277083333262
        },
        {
          "name": "D4",
          "midi": 62,
          "time": 30.000007499999622,
          "velocity": 0.6850393700787402,
          "duration": 0.5945123437499902
        },
        {
          "name": "F#2",
          "midi": 42,
          "time": 30.000007499999622,
          "velocity": 0.47244094488188976,
          "duration": 0.010162604166666256
        },
        {
          "name": "F4",
          "midi": 65,
          "time": 30.000007499999622,
          "velocity": 0.6456692913385826,
          "duration": 0.3455285416666598
        },
        {
          "name": "D4",
          "midi": 62,
          "time": 30.000007499999622,
          "velocity": 0.6850393700787402,
          "duration": 0.5945123437499902
        },
        {
          "name": "F4",
          "midi": 65,
          "time": 30.000007499999622,
          "velocity": 0.7322834645669292,
          "duration": 0.589431041666657
        },
        {
          "name": "E5",
          "midi": 76,
          "time": 30.000007499999622,
          "velocity": 0.7244094488188977,
          "duration": 0.005081302083333128
        },
        {
          "name": "D#2",
          "midi": 39,
          "time": 30.000007499999622,
          "velocity": 0.9448818897637795,
          "duration": 0.030487812499998768
        },
        {
          "name": "A3",
          "midi": 57,
          "time": 30.000007499999622,
          "velocity": 0.6220472440944882,
          "duration": 0.5945123437499902
        },
        {
          "name": "F5",
          "midi": 77,
          "time": 30.000007499999622,
          "velocity": 0.8346456692913385,
          "duration": 0.23373989583332744
        },
        {
          "name": "A4",
          "midi": 69,
          "time": 30.01017010416629,
          "velocity": 0.5039370078740157,
          "duration": 0.0914634374999963
        },
        {
          "name": "E5",
          "midi": 76,
          "time": 30.020332708332955,
          "velocity": 0.8661417322834646,
          "duration": 0.10162604166666256
        },
        {
          "name": "D2",
          "midi": 38,
          "time": 30.121958749999617,
          "velocity": 1,
          "duration": 0.010162604166666256
        },
        {
          "name": "C4",
          "midi": 60,
          "time": 30.23374739583295,
          "velocity": 0.5275590551181102,
          "duration": 0.09654473958333298
        },
        {
          "name": "F4",
          "midi": 65,
          "time": 30.238828697916283,
          "velocity": 0.7322834645669292,
          "duration": 0.36585374999999587
        },
        {
          "name": "A4",
          "midi": 69,
          "time": 30.243909999999616,
          "velocity": 0.6220472440944882,
          "duration": 0.1168699479166655
        },
        {
          "name": "A2",
          "midi": 45,
          "time": 30.243909999999616,
          "velocity": 0.8110236220472441,
          "duration": 0.2997968229166652
        },
        {
          "name": "D2",
          "midi": 38,
          "time": 30.243909999999616,
          "velocity": 1,
          "duration": 0.010162604166666256
        },
        {
          "name": "E5",
          "midi": 76,
          "time": 30.243909999999616,
          "velocity": 1,
          "duration": 0.12195124999999862
        },
        {
          "name": "E5",
          "midi": 76,
          "time": 30.243909999999616,
          "velocity": 0.8818897637795275,
          "duration": 0.24390249999999725
        },
        {
          "name": "D2",
          "midi": 38,
          "time": 30.365861249999615,
          "velocity": 1,
          "duration": 0.010162604166666256
        },
        {
          "name": "B3",
          "midi": 59,
          "time": 30.46748729166628,
          "velocity": 0.5590551181102362,
          "duration": 0.02540651041666564
        },
        {
          "name": "D2",
          "midi": 38,
          "time": 30.487812499999613,
          "velocity": 0.9212598425196851,
          "duration": 0.010162604166666256
        },
        {
          "name": "F4",
          "midi": 65,
          "time": 30.487812499999613,
          "velocity": 0.9212598425196851,
          "duration": 0.1168699479166655
        },
        {
          "name": "D5",
          "midi": 74,
          "time": 30.487812499999613,
          "velocity": 1,
          "duration": 0.20325208333333222
        },
        {
          "name": "C4",
          "midi": 60,
          "time": 30.487812499999613,
          "velocity": 0.47244094488188976,
          "duration": 0.09146343749999986
        },
        {
          "name": "A2",
          "midi": 45,
          "time": 30.487812499999613,
          "velocity": 0.5590551181102362,
          "duration": 0.24390249999999725
        },
        {
          "name": "F#2",
          "midi": 42,
          "time": 30.487812499999613,
          "velocity": 0.47244094488188976,
          "duration": 0.010162604166666256
        },
        {
          "name": "A4",
          "midi": 69,
          "time": 30.487812499999613,
          "velocity": 0.5984251968503937,
          "duration": 0.10162604166666611
        },
        {
          "name": "E5",
          "midi": 76,
          "time": 30.49797510416628,
          "velocity": 0.8818897637795275,
          "duration": 0.12195124999999862
        },
        {
          "name": "D2",
          "midi": 38,
          "time": 30.609763749999612,
          "velocity": 1,
          "duration": 0.010162604166666256
        },
        {
          "name": "C4",
          "midi": 60,
          "time": 30.711389791666278,
          "velocity": 0.44881889763779526,
          "duration": 0.137195156249998
        },
        {
          "name": "D#2",
          "midi": 39,
          "time": 30.73171499999961,
          "velocity": 1,
          "duration": 0.010162604166666256
        },
        {
          "name": "F4",
          "midi": 65,
          "time": 30.73171499999961,
          "velocity": 0.6456692913385826,
          "duration": 0.07113822916666734
        },
        {
          "name": "D4",
          "midi": 62,
          "time": 30.73171499999961,
          "velocity": 0.5590551181102362,
          "duration": 0.06605692708333422
        },
        {
          "name": "F4",
          "midi": 65,
          "time": 30.73171499999961,
          "velocity": 0.6456692913385826,
          "duration": 0.07113822916666734
        },
        {
          "name": "B2",
          "midi": 47,
          "time": 30.73171499999961,
          "velocity": 0.5590551181102362,
          "duration": 0.2184959895833316
        },
        {
          "name": "D4",
          "midi": 62,
          "time": 30.73171499999961,
          "velocity": 0.5590551181102362,
          "duration": 0.06605692708333422
        },
        {
          "name": "A3",
          "midi": 57,
          "time": 30.73171499999961,
          "velocity": 0.5748031496062992,
          "duration": 0.07113822916666734
        },
        {
          "name": "F2",
          "midi": 41,
          "time": 30.73171499999961,
          "velocity": 0.8110236220472441,
          "duration": 0.3556911458333296
        },
        {
          "name": "F4",
          "midi": 65,
          "time": 30.73171499999961,
          "velocity": 0.8661417322834646,
          "duration": 0.1168699479166655
        },
        {
          "name": "A4",
          "midi": 69,
          "time": 30.74695890624961,
          "velocity": 0.5984251968503937,
          "duration": 0.10162604166666611
        },
        {
          "name": "E5",
          "midi": 76,
          "time": 30.752040208332943,
          "velocity": 0.9291338582677166,
          "duration": 0.09146343749999986
        },
        {
          "name": "D2",
          "midi": 38,
          "time": 30.85366624999961,
          "velocity": 0.4251968503937008,
          "duration": 0.010162604166666256
        },
        {
          "name": "C4",
          "midi": 60,
          "time": 30.96545489583294,
          "velocity": 0.31496062992125984,
          "duration": 0.02540651041666564
        },
        {
          "name": "F#2",
          "midi": 42,
          "time": 30.975617499999608,
          "velocity": 0.47244094488188976,
          "duration": 0.010162604166666256
        },
        {
          "name": "D2",
          "midi": 38,
          "time": 30.975617499999608,
          "velocity": 0.8503937007874016,
          "duration": 0.010162604166666256
        },
        {
          "name": "D5",
          "midi": 74,
          "time": 30.975617499999608,
          "velocity": 1,
          "duration": 0.1829268749999997
        },
        {
          "name": "A2",
          "midi": 45,
          "time": 30.975617499999608,
          "velocity": 0.5590551181102362,
          "duration": 0.22865859375000142
        },
        {
          "name": "F4",
          "midi": 65,
          "time": 30.975617499999608,
          "velocity": 0.8110236220472441,
          "duration": 0.1168699479166655
        },
        {
          "name": "A4",
          "midi": 69,
          "time": 30.98069880208294,
          "velocity": 0.5196850393700787,
          "duration": 0.1168699479166655
        },
        {
          "name": "E5",
          "midi": 76,
          "time": 30.985780104166274,
          "velocity": 0.937007874015748,
          "duration": 0.10670734374999924
        },
        {
          "name": "D2",
          "midi": 38,
          "time": 31.097568749999606,
          "velocity": 1,
          "duration": 0.010162604166666256
        },
        {
          "name": "F4",
          "midi": 65,
          "time": 31.21951999999961,
          "velocity": 0.4015748031496063,
          "duration": 0.060975624999997535
        },
        {
          "name": "D2",
          "midi": 38,
          "time": 31.21951999999961,
          "velocity": 1,
          "duration": 0.010162604166666256
        },
        {
          "name": "D4",
          "midi": 62,
          "time": 31.21951999999961,
          "velocity": 0.48031496062992124,
          "duration": 0.060975624999997535
        },
        {
          "name": "F4",
          "midi": 65,
          "time": 31.21951999999961,
          "velocity": 0.4015748031496063,
          "duration": 0.060975624999997535
        },
        {
          "name": "C4",
          "midi": 60,
          "time": 31.21951999999961,
          "velocity": 0.6299212598425197,
          "duration": 0.11178864583333237
        },
        {
          "name": "D4",
          "midi": 62,
          "time": 31.21951999999961,
          "velocity": 0.48031496062992124,
          "duration": 0.060975624999997535
        },
        {
          "name": "A4",
          "midi": 69,
          "time": 31.21951999999961,
          "velocity": 0.8346456692913385,
          "duration": 0.14227645833333114
        },
        {
          "name": "A3",
          "midi": 57,
          "time": 31.21951999999961,
          "velocity": 0.2992125984251969,
          "duration": 0.05081302083333128
        },
        {
          "name": "D2",
          "midi": 38,
          "time": 31.21951999999961,
          "velocity": 0.5590551181102362,
          "duration": 0.13211385416666488
        },
        {
          "name": "D2",
          "midi": 38,
          "time": 31.21951999999961,
          "velocity": 0.8110236220472441,
          "duration": 0.2540651041666635
        },
        {
          "name": "A4",
          "midi": 69,
          "time": 31.229682604166275,
          "velocity": 0.7401574803149606,
          "duration": 0.22357729166666473
        },
        {
          "name": "F4",
          "midi": 65,
          "time": 31.229682604166275,
          "velocity": 0.8503937007874016,
          "duration": 0.11178864583333237
        },
        {
          "name": "E5",
          "midi": 76,
          "time": 31.23984520833294,
          "velocity": 0.889763779527559,
          "duration": 0.12195124999999862
        },
        {
          "name": "D2",
          "midi": 38,
          "time": 31.341471249999607,
          "velocity": 1,
          "duration": 0.13211385416666488
        },
        {
          "name": "B3",
          "midi": 59,
          "time": 31.458341197916273,
          "velocity": 0.5669291338582677,
          "duration": 0.020325208333332512
        },
        {
          "name": "D2",
          "midi": 38,
          "time": 31.463422499999606,
          "velocity": 0.9212598425196851,
          "duration": 0.02540651041666564
        },
        {
          "name": "C4",
          "midi": 60,
          "time": 31.463422499999606,
          "velocity": 0.44881889763779526,
          "duration": 0.0813008333333336
        },
        {
          "name": "F#2",
          "midi": 42,
          "time": 31.463422499999606,
          "velocity": 0.47244094488188976,
          "duration": 0.010162604166666256
        },
        {
          "name": "D5",
          "midi": 74,
          "time": 31.463422499999606,
          "velocity": 0.9133858267716536,
          "duration": 0.233739895833331
        },
        {
          "name": "F4",
          "midi": 65,
          "time": 31.46850380208294,
          "velocity": 0.8346456692913385,
          "duration": 0.10670734374999924
        },
        {
          "name": "A4",
          "midi": 69,
          "time": 31.473585104166272,
          "velocity": 0.5826771653543307,
          "duration": 0.13211385416666488
        },
        {
          "name": "E5",
          "midi": 76,
          "time": 31.478666406249605,
          "velocity": 0.8267716535433071,
          "duration": 0.1168699479166655
        },
        {
          "name": "D2",
          "midi": 38,
          "time": 31.585373749999604,
          "velocity": 1,
          "duration": 0.010162604166666256
        },
        {
          "name": "C4",
          "midi": 60,
          "time": 31.70224369791627,
          "velocity": 0.4330708661417323,
          "duration": 0.015243906249999384
        },
        {
          "name": "F2",
          "midi": 41,
          "time": 31.707324999999603,
          "velocity": 0.6850393700787402,
          "duration": 0.3150407291666646
        },
        {
          "name": "F4",
          "midi": 65,
          "time": 31.707324999999603,
          "velocity": 0.7716535433070866,
          "duration": 0.1168699479166655
        },
        {
          "name": "E5",
          "midi": 76,
          "time": 31.707324999999603,
          "velocity": 0.7244094488188977,
          "duration": 0.12703255208333175
        },
        {
          "name": "D#2",
          "midi": 39,
          "time": 31.707324999999603,
          "velocity": 1,
          "duration": 0.010162604166666256
        },
        {
          "name": "A4",
          "midi": 69,
          "time": 31.712406302082936,
          "velocity": 0.5748031496062992,
          "duration": 0.11178864583333237
        },
        {
          "name": "E5",
          "midi": 76,
          "time": 31.71748760416627,
          "velocity": 0.8976377952755905,
          "duration": 0.22357729166666473
        },
        {
          "name": "D2",
          "midi": 38,
          "time": 31.8292762499996,
          "velocity": 0.4251968503937008,
          "duration": 0.010162604166666256
        },
        {
          "name": "C4",
          "midi": 60,
          "time": 31.941064895832934,
          "velocity": 0.5275590551181102,
          "duration": 0.1168699479166655
        },
        {
          "name": "F4",
          "midi": 65,
          "time": 31.946146197916267,
          "velocity": 0.7480314960629921,
          "duration": 0.12195124999999862
        },
        {
          "name": "A4",
          "midi": 69,
          "time": 31.9512274999996,
          "velocity": 0.5590551181102362,
          "duration": 0.10670734374999924
        },
        {
          "name": "A3",
          "midi": 57,
          "time": 31.9512274999996,
          "velocity": 0.5196850393700787,
          "duration": 0.3760163541666621
        },
        {
          "name": "F2",
          "midi": 41,
          "time": 31.9512274999996,
          "velocity": 0.5590551181102362,
          "duration": 0.2591464062500002
        },
        {
          "name": "D4",
          "midi": 62,
          "time": 31.9512274999996,
          "velocity": 0.6456692913385826,
          "duration": 0.4065041666666609
        },
        {
          "name": "D4",
          "midi": 62,
          "time": 31.9512274999996,
          "velocity": 0.6456692913385826,
          "duration": 0.4065041666666609
        },
        {
          "name": "F4",
          "midi": 65,
          "time": 31.9512274999996,
          "velocity": 0.5748031496062992,
          "duration": 0.34552854166666336
        },
        {
          "name": "D#2",
          "midi": 39,
          "time": 31.9512274999996,
          "velocity": 0.9448818897637795,
          "duration": 0.030487812499998768
        },
        {
          "name": "F4",
          "midi": 65,
          "time": 31.9512274999996,
          "velocity": 0.5748031496062992,
          "duration": 0.4065041666666609
        },
        {
          "name": "F#2",
          "midi": 42,
          "time": 31.9512274999996,
          "velocity": 0.47244094488188976,
          "duration": 0.010162604166666256
        },
        {
          "name": "F5",
          "midi": 77,
          "time": 31.9512274999996,
          "velocity": 0.8661417322834646,
          "duration": 0.23373989583333454
        },
        {
          "name": "E5",
          "midi": 76,
          "time": 31.961390104166266,
          "velocity": 0.8031496062992126,
          "duration": 0.10162604166666611
        },
        {
          "name": "D2",
          "midi": 38,
          "time": 32.0731787499996,
          "velocity": 1,
          "duration": 0.010162604166666256
        },
        {
          "name": "C4",
          "midi": 60,
          "time": 32.19004869791627,
          "velocity": 0.5039370078740157,
          "duration": 0.11178864583332881
        },
        {
          "name": "E5",
          "midi": 76,
          "time": 32.1951299999996,
          "velocity": 0.8031496062992126,
          "duration": 0.030487812499998768
        },
        {
          "name": "D2",
          "midi": 38,
          "time": 32.1951299999996,
          "velocity": 1,
          "duration": 0.010162604166666256
        },
        {
          "name": "A2",
          "midi": 45,
          "time": 32.1951299999996,
          "velocity": 0.7559055118110236,
          "duration": 0.2947155208333214
        },
        {
          "name": "F4",
          "midi": 65,
          "time": 32.200211302082934,
          "velocity": 0.84251968503937,
          "duration": 0.15752036458332697
        },
        {
          "name": "A4",
          "midi": 69,
          "time": 32.2103739062496,
          "velocity": 0.6062992125984252,
          "duration": 0.09654473958332943
        },
        {
          "name": "E5",
          "midi": 76,
          "time": 32.21545520833293,
          "velocity": 0.7086614173228346,
          "duration": 0.08130083333333005
        },
        {
          "name": "E5",
          "midi": 76,
          "time": 32.2256178124996,
          "velocity": 0.9133858267716536,
          "duration": 0.23373989583332389
        },
        {
          "name": "D2",
          "midi": 38,
          "time": 32.317081249999596,
          "velocity": 1,
          "duration": 0.010162604166666256
        },
        {
          "name": "C4",
          "midi": 60,
          "time": 32.42378859374959,
          "velocity": 0.48031496062992124,
          "duration": 0.08130083333333005
        },
        {
          "name": "F4",
          "midi": 65,
          "time": 32.428869895832925,
          "velocity": 0.7559055118110236,
          "duration": 0.07621953124999692
        },
        {
          "name": "A4",
          "midi": 69,
          "time": 32.43395119791626,
          "velocity": 0.5748031496062992,
          "duration": 0.0914634374999963
        },
        {
          "name": "F4",
          "midi": 65,
          "time": 32.43903249999959,
          "velocity": 0.5275590551181102,
          "duration": 0.06605692708333066
        },
        {
          "name": "D4",
          "midi": 62,
          "time": 32.43903249999959,
          "velocity": 0.5275590551181102,
          "duration": 0.060975624999997535
        },
        {
          "name": "A3",
          "midi": 57,
          "time": 32.43903249999959,
          "velocity": 0.47244094488188976,
          "duration": 0.060975624999997535
        },
        {
          "name": "D2",
          "midi": 38,
          "time": 32.43903249999959,
          "velocity": 0.9212598425196851,
          "duration": 0.010162604166666256
        },
        {
          "name": "A2",
          "midi": 45,
          "time": 32.43903249999959,
          "velocity": 0.5590551181102362,
          "duration": 0.24390249999999014
        },
        {
          "name": "E5",
          "midi": 76,
          "time": 32.43903249999959,
          "velocity": 0.7559055118110236,
          "duration": 0.10162604166666256
        },
        {
          "name": "F4",
          "midi": 65,
          "time": 32.43903249999959,
          "velocity": 0.5275590551181102,
          "duration": 0.07113822916666379
        },
        {
          "name": "F#2",
          "midi": 42,
          "time": 32.43903249999959,
          "velocity": 0.47244094488188976,
          "duration": 0.010162604166666256
        },
        {
          "name": "D4",
          "midi": 62,
          "time": 32.43903249999959,
          "velocity": 0.5275590551181102,
          "duration": 0.060975624999997535
        },
        {
          "name": "E5",
          "midi": 76,
          "time": 32.46952031249959,
          "velocity": 0.8661417322834646,
          "duration": 0.17276427083332635
        },
        {
          "name": "D2",
          "midi": 38,
          "time": 32.560983749999586,
          "velocity": 1,
          "duration": 0.010162604166666256
        },
        {
          "name": "C4",
          "midi": 60,
          "time": 32.66260979166625,
          "velocity": 0.4566929133858268,
          "duration": 0.10162604166666256
        },
        {
          "name": "D#2",
          "midi": 39,
          "time": 32.68293499999958,
          "velocity": 1,
          "duration": 0.010162604166666256
        },
        {
          "name": "B2",
          "midi": 47,
          "time": 32.68293499999958,
          "velocity": 0.5590551181102362,
          "duration": 0.24898380208333037
        },
        {
          "name": "F4",
          "midi": 65,
          "time": 32.68293499999958,
          "velocity": 0.5196850393700787,
          "duration": 0.08638213541666317
        },
        {
          "name": "A3",
          "midi": 57,
          "time": 32.68293499999958,
          "velocity": 0.5196850393700787,
          "duration": 0.07113822916666379
        },
        {
          "name": "F4",
          "midi": 65,
          "time": 32.68293499999958,
          "velocity": 0.8661417322834646,
          "duration": 0.08638213541666317
        },
        {
          "name": "F4",
          "midi": 65,
          "time": 32.68293499999958,
          "velocity": 0.5196850393700787,
          "duration": 0.09654473958332943
        },
        {
          "name": "F2",
          "midi": 41,
          "time": 32.68293499999958,
          "velocity": 0.7244094488188977,
          "duration": 0.27947161458332914
        },
        {
          "name": "D4",
          "midi": 62,
          "time": 32.68293499999958,
          "velocity": 0.5196850393700787,
          "duration": 0.08638213541666317
        },
        {
          "name": "D4",
          "midi": 62,
          "time": 32.68293499999958,
          "velocity": 0.5196850393700787,
          "duration": 0.08638213541666317
        },
        {
          "name": "D5",
          "midi": 74,
          "time": 32.68293499999958,
          "velocity": 0.889763779527559,
          "duration": 0.44715458333332236
        },
        {
          "name": "A4",
          "midi": 69,
          "time": 32.69817890624958,
          "velocity": 0.6299212598425197,
          "duration": 0.08638213541666317
        },
        {
          "name": "E5",
          "midi": 76,
          "time": 32.70834151041625,
          "velocity": 0.937007874015748,
          "duration": 0.10162604166666256
        },
        {
          "name": "D2",
          "midi": 38,
          "time": 32.804886249999576,
          "velocity": 0.4251968503937008,
          "duration": 0.010162604166666256
        },
        {
          "name": "C4",
          "midi": 60,
          "time": 32.91159359374958,
          "velocity": 0.3700787401574803,
          "duration": 0.11178864583332881
        },
        {
          "name": "F#2",
          "midi": 42,
          "time": 32.92683749999958,
          "velocity": 0.47244094488188976,
          "duration": 0.010162604166666256
        },
        {
          "name": "A2",
          "midi": 45,
          "time": 32.92683749999958,
          "velocity": 0.5590551181102362,
          "duration": 0.04573171874999815
        },
        {
          "name": "D2",
          "midi": 38,
          "time": 32.92683749999958,
          "velocity": 0.8503937007874016,
          "duration": 0.010162604166666256
        },
        {
          "name": "F4",
          "midi": 65,
          "time": 32.93191880208291,
          "velocity": 0.6771653543307087,
          "duration": 0.10670734374999569
        },
        {
          "name": "A4",
          "midi": 69,
          "time": 32.937000104166245,
          "velocity": 0.5039370078740157,
          "duration": 0.08130083333333005
        },
        {
          "name": "E5",
          "midi": 76,
          "time": 32.94208140624958,
          "velocity": 0.7322834645669292,
          "duration": 0.11686994791666194
        },
        {
          "name": "D2",
          "midi": 38,
          "time": 33.048788749999574,
          "velocity": 1,
          "duration": 0.010162604166666256
        },
        {
          "name": "G#3",
          "midi": 56,
          "time": 33.17073999999957,
          "velocity": 0.5196850393700787,
          "duration": 0.07113822916666379
        },
        {
          "name": "E2",
          "midi": 40,
          "time": 33.17073999999957,
          "velocity": 0.8110236220472441,
          "duration": 0.4878049999999874
        },
        {
          "name": "E4",
          "midi": 64,
          "time": 33.17073999999957,
          "velocity": 0.5039370078740157,
          "duration": 0.08638213541666317
        },
        {
          "name": "E4",
          "midi": 64,
          "time": 33.17073999999957,
          "velocity": 0.5039370078740157,
          "duration": 0.08638213541666317
        },
        {
          "name": "B3",
          "midi": 59,
          "time": 33.17073999999957,
          "velocity": 0.5984251968503937,
          "duration": 0.07113822916666379
        },
        {
          "name": "E1",
          "midi": 28,
          "time": 33.17073999999957,
          "velocity": 0.5590551181102362,
          "duration": 0.2743903124999889
        },
        {
          "name": "D2",
          "midi": 38,
          "time": 33.17073999999957,
          "velocity": 1,
          "duration": 0.010162604166666256
        },
        {
          "name": "G#5",
          "midi": 80,
          "time": 33.18598390624957,
          "velocity": 0.937007874015748,
          "duration": 0.13211385416666133
        },
        {
          "name": "D5",
          "midi": 74,
          "time": 33.1910652083329,
          "velocity": 0.7874015748031497,
          "duration": 0.11178864583332881
        },
        {
          "name": "D2",
          "midi": 38,
          "time": 33.292691249999564,
          "velocity": 1,
          "duration": 0.010162604166666256
        },
        {
          "name": "B4",
          "midi": 71,
          "time": 33.409561197916226,
          "velocity": 0.7716535433070866,
          "duration": 0.1270325520833282
        },
        {
          "name": "F#2",
          "midi": 42,
          "time": 33.41464249999956,
          "velocity": 0.47244094488188976,
          "duration": 0.010162604166666256
        },
        {
          "name": "D2",
          "midi": 38,
          "time": 33.41464249999956,
          "velocity": 0.9212598425196851,
          "duration": 0.010162604166666256
        },
        {
          "name": "D5",
          "midi": 74,
          "time": 33.41972380208289,
          "velocity": 0.8031496062992126,
          "duration": 0.10670734374999569
        },
        {
          "name": "G#5",
          "midi": 80,
          "time": 33.42988640624956,
          "velocity": 0.937007874015748,
          "duration": 0.11178864583332881
        },
        {
          "name": "D2",
          "midi": 38,
          "time": 33.536593749999554,
          "velocity": 1,
          "duration": 0.010162604166666256
        },
        {
          "name": "B4",
          "midi": 71,
          "time": 33.65346369791622,
          "velocity": 0.7401574803149606,
          "duration": 0.1270325520833353
        },
        {
          "name": "D#2",
          "midi": 39,
          "time": 33.658544999999556,
          "velocity": 1,
          "duration": 0.010162604166666256
        },
        {
          "name": "D5",
          "midi": 74,
          "time": 33.66870760416622,
          "velocity": 0.7244094488188977,
          "duration": 0.09654473958333654
        },
        {
          "name": "G#5",
          "midi": 80,
          "time": 33.66870760416622,
          "velocity": 0.8976377952755905,
          "duration": 0.11686994791666905
        },
        {
          "name": "D2",
          "midi": 38,
          "time": 33.78049624999956,
          "velocity": 0.4251968503937008,
          "duration": 0.010162604166666256
        },
        {
          "name": "B4",
          "midi": 71,
          "time": 33.89736619791623,
          "velocity": 0.8976377952755905,
          "duration": 0.10670734374999569
        },
        {
          "name": "E4",
          "midi": 64,
          "time": 33.90244749999956,
          "velocity": 0.5748031496062992,
          "duration": 0.39126026041665085
        },
        {
          "name": "G#3",
          "midi": 56,
          "time": 33.90244749999956,
          "velocity": 0.5039370078740157,
          "duration": 0.40650416666665024
        },
        {
          "name": "G#2",
          "midi": 44,
          "time": 33.90244749999956,
          "velocity": 0.6850393700787402,
          "duration": 0.32012203124998706
        },
        {
          "name": "F#2",
          "midi": 42,
          "time": 33.90244749999956,
          "velocity": 0.47244094488188976,
          "duration": 0.010162604166666256
        },
        {
          "name": "E4",
          "midi": 64,
          "time": 33.90244749999956,
          "velocity": 0.5748031496062992,
          "duration": 0.39126026041665085
        },
        {
          "name": "G#1",
          "midi": 32,
          "time": 33.90244749999956,
          "velocity": 0.5590551181102362,
          "duration": 0.21341468749999137
        },
        {
          "name": "B3",
          "midi": 59,
          "time": 33.90244749999956,
          "velocity": 0.6220472440944882,
          "duration": 0.4014228645833171
        },
        {
          "name": "D#2",
          "midi": 39,
          "time": 33.90244749999956,
          "velocity": 0.9448818897637795,
          "duration": 0.030487812499998768
        },
        {
          "name": "D5",
          "midi": 74,
          "time": 33.90752880208289,
          "velocity": 0.8267716535433071,
          "duration": 0.09654473958332943
        },
        {
          "name": "G#5",
          "midi": 80,
          "time": 33.91261010416623,
          "velocity": 0.937007874015748,
          "duration": 0.10670734374999569
        },
        {
          "name": "D2",
          "midi": 38,
          "time": 34.024398749999555,
          "velocity": 1,
          "duration": 0.010162604166666256
        },
        {
          "name": "B4",
          "midi": 71,
          "time": 34.14126869791622,
          "velocity": 0.7401574803149606,
          "duration": 0.1270325520833282
        },
        {
          "name": "D2",
          "midi": 38,
          "time": 34.14634999999955,
          "velocity": 1,
          "duration": 0.010162604166666256
        },
        {
          "name": "G#5",
          "midi": 80,
          "time": 34.15651260416622,
          "velocity": 0.8976377952755905,
          "duration": 0.11686994791666194
        },
        {
          "name": "D5",
          "midi": 74,
          "time": 34.15651260416622,
          "velocity": 0.7244094488188977,
          "duration": 0.09654473958332943
        },
        {
          "name": "D2",
          "midi": 38,
          "time": 34.268301249999546,
          "velocity": 1,
          "duration": 0.010162604166666256
        },
        {
          "name": "B4",
          "midi": 71,
          "time": 34.38517119791621,
          "velocity": 0.8976377952755905,
          "duration": 0.10670734374999569
        },
        {
          "name": "E6",
          "midi": 88,
          "time": 34.39025249999954,
          "velocity": 0.5669291338582677,
          "duration": 0.040650416666665024
        },
        {
          "name": "E4",
          "midi": 64,
          "time": 34.39025249999954,
          "velocity": 0.48031496062992124,
          "duration": 0.10162604166666256
        },
        {
          "name": "G#3",
          "midi": 56,
          "time": 34.39025249999954,
          "velocity": 0.4881889763779528,
          "duration": 0.07621953124999692
        },
        {
          "name": "E4",
          "midi": 64,
          "time": 34.39025249999954,
          "velocity": 0.48031496062992124,
          "duration": 0.10162604166666256
        },
        {
          "name": "B2",
          "midi": 47,
          "time": 34.39025249999954,
          "velocity": 0.6062992125984252,
          "duration": 0.13211385416666133
        },
        {
          "name": "D2",
          "midi": 38,
          "time": 34.39025249999954,
          "velocity": 0.9212598425196851,
          "duration": 0.010162604166666256
        },
        {
          "name": "F#2",
          "midi": 42,
          "time": 34.39025249999954,
          "velocity": 0.47244094488188976,
          "duration": 0.010162604166666256
        },
        {
          "name": "B3",
          "midi": 59,
          "time": 34.39025249999954,
          "velocity": 0.5275590551181102,
          "duration": 0.08638213541666317
        },
        {
          "name": "B1",
          "midi": 35,
          "time": 34.39025249999954,
          "velocity": 0.5590551181102362,
          "duration": 0.29979682291666165
        },
        {
          "name": "D5",
          "midi": 74,
          "time": 34.395333802082874,
          "velocity": 0.8267716535433071,
          "duration": 0.09654473958332943
        },
        {
          "name": "G#5",
          "midi": 80,
          "time": 34.40041510416621,
          "velocity": 0.937007874015748,
          "duration": 0.10670734374999569
        },
        {
          "name": "D2",
          "midi": 38,
          "time": 34.512203749999536,
          "velocity": 1,
          "duration": 0.010162604166666256
        },
        {
          "name": "B4",
          "midi": 71,
          "time": 34.629073697916205,
          "velocity": 0.7401574803149606,
          "duration": 0.1270325520833282
        },
        {
          "name": "D2",
          "midi": 38,
          "time": 34.63415499999954,
          "velocity": 0.5590551181102362,
          "duration": 0.13211385416666133
        },
        {
          "name": "E4",
          "midi": 64,
          "time": 34.63415499999954,
          "velocity": 0.2047244094488189,
          "duration": 0.035569114583331896
        },
        {
          "name": "E3",
          "midi": 52,
          "time": 34.63415499999954,
          "velocity": 0.6062992125984252,
          "duration": 0.19308947916665886
        },
        {
          "name": "E4",
          "midi": 64,
          "time": 34.63415499999954,
          "velocity": 0.2047244094488189,
          "duration": 0.035569114583331896
        },
        {
          "name": "B4",
          "midi": 71,
          "time": 34.63415499999954,
          "velocity": 0.984251968503937,
          "duration": 0.23373989583332389
        },
        {
          "name": "D#2",
          "midi": 39,
          "time": 34.63415499999954,
          "velocity": 1,
          "duration": 0.010162604166666256
        },
        {
          "name": "G#3",
          "midi": 56,
          "time": 34.63415499999954,
          "velocity": 0.4409448818897638,
          "duration": 0.05589432291666441
        },
        {
          "name": "B3",
          "midi": 59,
          "time": 34.63415499999954,
          "velocity": 0.49606299212598426,
          "duration": 0.05589432291666441
        },
        {
          "name": "D5",
          "midi": 74,
          "time": 34.644317604166204,
          "velocity": 0.7244094488188977,
          "duration": 0.09654473958332943
        },
        {
          "name": "G#5",
          "midi": 80,
          "time": 34.644317604166204,
          "velocity": 0.8976377952755905,
          "duration": 0.11686994791666194
        },
        {
          "name": "D2",
          "midi": 38,
          "time": 34.75610624999953,
          "velocity": 0.4251968503937008,
          "duration": 0.1270325520833282
        },
        {
          "name": "B4",
          "midi": 71,
          "time": 34.872976197916195,
          "velocity": 0.8976377952755905,
          "duration": 0.10670734375000279
        },
        {
          "name": "B2",
          "midi": 47,
          "time": 34.87805749999953,
          "velocity": 0.5196850393700787,
          "duration": 0.15752036458333407
        },
        {
          "name": "C5",
          "midi": 72,
          "time": 34.87805749999953,
          "velocity": 0.6771653543307087,
          "duration": 0.15752036458333407
        },
        {
          "name": "B1",
          "midi": 35,
          "time": 34.87805749999953,
          "velocity": 0.5590551181102362,
          "duration": 0.18800817708333284
        },
        {
          "name": "F#2",
          "midi": 42,
          "time": 34.87805749999953,
          "velocity": 0.47244094488188976,
          "duration": 0.010162604166666256
        },
        {
          "name": "D2",
          "midi": 38,
          "time": 34.87805749999953,
          "velocity": 0.8503937007874016,
          "duration": 0.010162604166666256
        },
        {
          "name": "D5",
          "midi": 74,
          "time": 34.88313880208286,
          "velocity": 0.8267716535433071,
          "duration": 0.09654473958333654
        },
        {
          "name": "G#5",
          "midi": 80,
          "time": 34.888220104166194,
          "velocity": 0.937007874015748,
          "duration": 0.10670734375000279
        },
        {
          "name": "D2",
          "midi": 38,
          "time": 35.00000874999953,
          "velocity": 1,
          "duration": 0.010162604166666256
        },
        {
          "name": "B4",
          "midi": 71,
          "time": 35.11687869791619,
          "velocity": 0.7401574803149606,
          "duration": 0.1270325520833282
        },
        {
          "name": "D2",
          "midi": 38,
          "time": 35.121959999999525,
          "velocity": 1,
          "duration": 0.010162604166666256
        },
        {
          "name": "G#3",
          "midi": 56,
          "time": 35.121959999999525,
          "velocity": 0.4330708661417323,
          "duration": 0.06605692708333066
        },
        {
          "name": "E4",
          "midi": 64,
          "time": 35.121959999999525,
          "velocity": 0.4409448818897638,
          "duration": 0.08638213541666317
        },
        {
          "name": "E4",
          "midi": 64,
          "time": 35.121959999999525,
          "velocity": 0.4409448818897638,
          "duration": 0.08638213541666317
        },
        {
          "name": "D5",
          "midi": 74,
          "time": 35.121959999999525,
          "velocity": 0.7165354330708661,
          "duration": 0.10670734374999569
        },
        {
          "name": "B3",
          "midi": 59,
          "time": 35.121959999999525,
          "velocity": 0.41732283464566927,
          "duration": 0.07621953124999692
        },
        {
          "name": "E1",
          "midi": 28,
          "time": 35.121959999999525,
          "velocity": 0.5590551181102362,
          "duration": 0.274390312499996
        },
        {
          "name": "E2",
          "midi": 40,
          "time": 35.121959999999525,
          "velocity": 0.8110236220472441,
          "duration": 0.4878049999999945
        },
        {
          "name": "D5",
          "midi": 74,
          "time": 35.13212260416619,
          "velocity": 0.7244094488188977,
          "duration": 0.31504072916666104
        },
        {
          "name": "G#5",
          "midi": 80,
          "time": 35.13212260416619,
          "velocity": 0.8976377952755905,
          "duration": 0.11686994791666194
        },
        {
          "name": "D2",
          "midi": 38,
          "time": 35.24391124999952,
          "velocity": 1,
          "duration": 0.010162604166666256
        },
        {
          "name": "B4",
          "midi": 71,
          "time": 35.36078119791619,
          "velocity": 0.8976377952755905,
          "duration": 0.10670734374999569
        },
        {
          "name": "F#2",
          "midi": 42,
          "time": 35.36586249999952,
          "velocity": 0.47244094488188976,
          "duration": 0.010162604166666256
        },
        {
          "name": "D2",
          "midi": 38,
          "time": 35.36586249999952,
          "velocity": 0.9212598425196851,
          "duration": 0.010162604166666256
        },
        {
          "name": "D5",
          "midi": 74,
          "time": 35.370943802082856,
          "velocity": 0.8267716535433071,
          "duration": 0.09654473958332943
        },
        {
          "name": "G#5",
          "midi": 80,
          "time": 35.37602510416619,
          "velocity": 0.937007874015748,
          "duration": 0.10670734374999569
        },
        {
          "name": "D2",
          "midi": 38,
          "time": 35.48781374999952,
          "velocity": 1,
          "duration": 0.010162604166666256
        },
        {
          "name": "B4",
          "midi": 71,
          "time": 35.60468369791619,
          "velocity": 0.7401574803149606,
          "duration": 0.1270325520833282
        },
        {
          "name": "D#2",
          "midi": 39,
          "time": 35.60976499999952,
          "velocity": 1,
          "duration": 0.010162604166666256
        },
        {
          "name": "D5",
          "midi": 74,
          "time": 35.60976499999952,
          "velocity": 0.8661417322834646,
          "duration": 0.10670734374999569
        },
        {
          "name": "D5",
          "midi": 74,
          "time": 35.619927604166186,
          "velocity": 0.7244094488188977,
          "duration": 0.22357729166666473
        },
        {
          "name": "G#5",
          "midi": 80,
          "time": 35.619927604166186,
          "velocity": 0.8976377952755905,
          "duration": 0.11686994791666194
        },
        {
          "name": "D2",
          "midi": 38,
          "time": 35.731716249999515,
          "velocity": 0.4251968503937008,
          "duration": 0.010162604166666256
        },
        {
          "name": "B4",
          "midi": 71,
          "time": 35.848586197916184,
          "velocity": 0.8976377952755905,
          "duration": 0.10670734374999569
        },
        {
          "name": "G#3",
          "midi": 56,
          "time": 35.85366749999952,
          "velocity": 0.5748031496062992,
          "duration": 0.3658537499999852
        },
        {
          "name": "G#1",
          "midi": 32,
          "time": 35.85366749999952,
          "velocity": 0.5590551181102362,
          "duration": 0.21341468749999137
        },
        {
          "name": "E5",
          "midi": 76,
          "time": 35.85366749999952,
          "velocity": 0.8661417322834646,
          "duration": 0.23373989583332389
        },
        {
          "name": "E4",
          "midi": 64,
          "time": 35.85366749999952,
          "velocity": 0.5196850393700787,
          "duration": 0.39126026041665085
        },
        {
          "name": "G#2",
          "midi": 44,
          "time": 35.85366749999952,
          "velocity": 0.6850393700787402,
          "duration": 0.32012203124998706
        },
        {
          "name": "B3",
          "midi": 59,
          "time": 35.85366749999952,
          "velocity": 0.5433070866141733,
          "duration": 0.3658537499999852
        },
        {
          "name": "F#2",
          "midi": 42,
          "time": 35.85366749999952,
          "velocity": 0.47244094488188976,
          "duration": 0.010162604166666256
        },
        {
          "name": "D#2",
          "midi": 39,
          "time": 35.85366749999952,
          "velocity": 0.9448818897637795,
          "duration": 0.030487812499998768
        },
        {
          "name": "E4",
          "midi": 64,
          "time": 35.85366749999952,
          "velocity": 0.5196850393700787,
          "duration": 0.39126026041665085
        },
        {
          "name": "D5",
          "midi": 74,
          "time": 35.85874880208285,
          "velocity": 0.8267716535433071,
          "duration": 0.09654473958332943
        },
        {
          "name": "G#5",
          "midi": 80,
          "time": 35.86383010416618,
          "velocity": 0.937007874015748,
          "duration": 0.10670734374999569
        },
        {
          "name": "D2",
          "midi": 38,
          "time": 35.97561874999951,
          "velocity": 1,
          "duration": 0.010162604166666256
        },
        {
          "name": "B4",
          "midi": 71,
          "time": 36.092488697916174,
          "velocity": 0.7401574803149606,
          "duration": 0.1270325520833282
        },
        {
          "name": "D5",
          "midi": 74,
          "time": 36.09756999999951,
          "velocity": 0.8346456692913385,
          "duration": 0.10670734374999569
        },
        {
          "name": "D2",
          "midi": 38,
          "time": 36.09756999999951,
          "velocity": 1,
          "duration": 0.010162604166666256
        },
        {
          "name": "G#5",
          "midi": 80,
          "time": 36.10773260416617,
          "velocity": 0.8976377952755905,
          "duration": 0.11686994791666194
        },
        {
          "name": "D5",
          "midi": 74,
          "time": 36.10773260416617,
          "velocity": 0.7244094488188977,
          "duration": 0.233739895833331
        },
        {
          "name": "D2",
          "midi": 38,
          "time": 36.2195212499995,
          "velocity": 1,
          "duration": 0.010162604166666256
        },
        {
          "name": "B4",
          "midi": 71,
          "time": 36.33639119791617,
          "velocity": 0.8976377952755905,
          "duration": 0.10670734374999569
        },
        {
          "name": "B3",
          "midi": 59,
          "time": 36.341472499999504,
          "velocity": 0.5433070866141733,
          "duration": 0.05589432291666441
        },
        {
          "name": "D2",
          "midi": 38,
          "time": 36.341472499999504,
          "velocity": 0.9212598425196851,
          "duration": 0.010162604166666256
        },
        {
          "name": "F#2",
          "midi": 42,
          "time": 36.341472499999504,
          "velocity": 0.47244094488188976,
          "duration": 0.010162604166666256
        },
        {
          "name": "G#3",
          "midi": 56,
          "time": 36.341472499999504,
          "velocity": 0.49606299212598426,
          "duration": 0.060975624999997535
        },
        {
          "name": "E4",
          "midi": 64,
          "time": 36.341472499999504,
          "velocity": 0.49606299212598426,
          "duration": 0.07113822916666379
        },
        {
          "name": "E4",
          "midi": 64,
          "time": 36.341472499999504,
          "velocity": 0.49606299212598426,
          "duration": 0.07113822916666379
        },
        {
          "name": "C5",
          "midi": 72,
          "time": 36.341472499999504,
          "velocity": 0.7165354330708661,
          "duration": 0.12195124999999507
        },
        {
          "name": "B2",
          "midi": 47,
          "time": 36.341472499999504,
          "velocity": 0.6062992125984252,
          "duration": 0.13211385416666133
        },
        {
          "name": "B1",
          "midi": 35,
          "time": 36.341472499999504,
          "velocity": 0.5590551181102362,
          "duration": 0.29979682291666165
        },
        {
          "name": "D5",
          "midi": 74,
          "time": 36.34655380208284,
          "velocity": 0.8267716535433071,
          "duration": 0.09654473958332943
        },
        {
          "name": "G#5",
          "midi": 80,
          "time": 36.35163510416617,
          "velocity": 0.937007874015748,
          "duration": 0.10670734374999569
        },
        {
          "name": "D2",
          "midi": 38,
          "time": 36.4634237499995,
          "velocity": 1,
          "duration": 0.010162604166666256
        },
        {
          "name": "B4",
          "midi": 71,
          "time": 36.58029369791617,
          "velocity": 0.7401574803149606,
          "duration": 0.1270325520833282
        },
        {
          "name": "D3",
          "midi": 50,
          "time": 36.5853749999995,
          "velocity": 0.6062992125984252,
          "duration": 0.19308947916665886
        },
        {
          "name": "G#3",
          "midi": 56,
          "time": 36.5853749999995,
          "velocity": 0.47244094488188976,
          "duration": 0.05081302083333128
        },
        {
          "name": "E4",
          "midi": 64,
          "time": 36.5853749999995,
          "velocity": 0.4881889763779528,
          "duration": 0.06605692708333066
        },
        {
          "name": "B4",
          "midi": 71,
          "time": 36.5853749999995,
          "velocity": 0.8031496062992126,
          "duration": 0.238821197916657
        },
        {
          "name": "E4",
          "midi": 64,
          "time": 36.5853749999995,
          "velocity": 0.4881889763779528,
          "duration": 0.06605692708333066
        },
        {
          "name": "D2",
          "midi": 38,
          "time": 36.5853749999995,
          "velocity": 0.5590551181102362,
          "duration": 0.13211385416666133
        },
        {
          "name": "D#2",
          "midi": 39,
          "time": 36.5853749999995,
          "velocity": 1,
          "duration": 0.010162604166666256
        },
        {
          "name": "B3",
          "midi": 59,
          "time": 36.5853749999995,
          "velocity": 0.5748031496062992,
          "duration": 0.05081302083333128
        },
        {
          "name": "D5",
          "midi": 74,
          "time": 36.59553760416617,
          "velocity": 0.7244094488188977,
          "duration": 0.09654473958332943
        },
        {
          "name": "G#5",
          "midi": 80,
          "time": 36.59553760416617,
          "velocity": 0.8976377952755905,
          "duration": 0.11686994791666194
        },
        {
          "name": "D2",
          "midi": 38,
          "time": 36.7073262499995,
          "velocity": 0.4251968503937008,
          "duration": 0.1270325520833282
        },
        {
          "name": "B4",
          "midi": 71,
          "time": 36.82419619791616,
          "velocity": 0.8976377952755905,
          "duration": 0.10670734375000279
        },
        {
          "name": "D2",
          "midi": 38,
          "time": 36.82927749999949,
          "velocity": 0.8503937007874016,
          "duration": 0.010162604166666256
        },
        {
          "name": "B1",
          "midi": 35,
          "time": 36.82927749999949,
          "velocity": 0.5590551181102362,
          "duration": 0.18800817708333284
        },
        {
          "name": "C5",
          "midi": 72,
          "time": 36.82927749999949,
          "velocity": 0.952755905511811,
          "duration": 0.20325208333333222
        },
        {
          "name": "B2",
          "midi": 47,
          "time": 36.82927749999949,
          "velocity": 0.5196850393700787,
          "duration": 0.15752036458333407
        },
        {
          "name": "F#2",
          "midi": 42,
          "time": 36.82927749999949,
          "velocity": 0.47244094488188976,
          "duration": 0.010162604166666256
        },
        {
          "name": "D5",
          "midi": 74,
          "time": 36.834358802082825,
          "velocity": 0.8267716535433071,
          "duration": 0.09654473958333654
        },
        {
          "name": "G#5",
          "midi": 80,
          "time": 36.83944010416616,
          "velocity": 0.937007874015748,
          "duration": 0.10670734375000279
        },
        {
          "name": "D2",
          "midi": 38,
          "time": 36.951228749999494,
          "velocity": 1,
          "duration": 0.010162604166666256
        },
        {
          "name": "E4",
          "midi": 64,
          "time": 37.07317999999949,
          "velocity": 0.4094488188976378,
          "duration": 0.07113822916666379
        },
        {
          "name": "A3",
          "midi": 57,
          "time": 37.07317999999949,
          "velocity": 0.4566929133858268,
          "duration": 0.05081302083333128
        },
        {
          "name": "A2",
          "midi": 45,
          "time": 37.07317999999949,
          "velocity": 0.8110236220472441,
          "duration": 0.3099594270833279
        },
        {
          "name": "C4",
          "midi": 60,
          "time": 37.07317999999949,
          "velocity": 0.48031496062992124,
          "duration": 0.060975624999997535
        },
        {
          "name": "E4",
          "midi": 64,
          "time": 37.07317999999949,
          "velocity": 0.4094488188976378,
          "duration": 0.07113822916666379
        },
        {
          "name": "C4",
          "midi": 60,
          "time": 37.07317999999949,
          "velocity": 0.48031496062992124,
          "duration": 0.060975624999997535
        },
        {
          "name": "G4",
          "midi": 67,
          "time": 37.07317999999949,
          "velocity": 0.5433070866141733,
          "duration": 0.07113822916666379
        },
        {
          "name": "D2",
          "midi": 38,
          "time": 37.07317999999949,
          "velocity": 1,
          "duration": 0.010162604166666256
        },
        {
          "name": "A1",
          "midi": 33,
          "time": 37.07317999999949,
          "velocity": 0.5590551181102362,
          "duration": 0.25914640624999663
        },
        {
          "name": "C5",
          "midi": 72,
          "time": 37.07826130208282,
          "velocity": 0.8661417322834646,
          "duration": 0.09654473958332943
        },
        {
          "name": "G#4",
          "midi": 68,
          "time": 37.083342604166155,
          "velocity": 1,
          "duration": 0.030487812499998768
        },
        {
          "name": "E5",
          "midi": 76,
          "time": 37.08842390624949,
          "velocity": 0.6692913385826772,
          "duration": 0.08638213541666317
        },
        {
          "name": "B5",
          "midi": 83,
          "time": 37.09350520833282,
          "velocity": 0.8818897637795275,
          "duration": 0.08638213541666317
        },
        {
          "name": "A4",
          "midi": 69,
          "time": 37.13415562499949,
          "velocity": 0.8346456692913385,
          "duration": 1.8699191666666053
        },
        {
          "name": "D2",
          "midi": 38,
          "time": 37.195131249999484,
          "velocity": 1,
          "duration": 0.010162604166666256
        },
        {
          "name": "D2",
          "midi": 38,
          "time": 37.317082499999486,
          "velocity": 0.9212598425196851,
          "duration": 0.010162604166666256
        },
        {
          "name": "F#2",
          "midi": 42,
          "time": 37.317082499999486,
          "velocity": 0.47244094488188976,
          "duration": 0.010162604166666256
        },
        {
          "name": "G4",
          "midi": 67,
          "time": 37.317082499999486,
          "velocity": 0.4094488188976378,
          "duration": 0.060975624999997535
        },
        {
          "name": "C5",
          "midi": 72,
          "time": 37.32216380208282,
          "velocity": 0.8110236220472441,
          "duration": 0.10162604166666256
        },
        {
          "name": "E5",
          "midi": 76,
          "time": 37.332326406249486,
          "velocity": 0.6692913385826772,
          "duration": 0.0914634374999963
        },
        {
          "name": "B5",
          "midi": 83,
          "time": 37.33740770833282,
          "velocity": 0.8818897637795275,
          "duration": 0.0914634374999963
        },
        {
          "name": "D2",
          "midi": 38,
          "time": 37.43903374999948,
          "velocity": 1,
          "duration": 0.010162604166666256
        },
        {
          "name": "G4",
          "midi": 67,
          "time": 37.55082239583282,
          "velocity": 0.4094488188976378,
          "duration": 0.10162604166666256
        },
        {
          "name": "C2",
          "midi": 36,
          "time": 37.560984999999484,
          "velocity": 0.8110236220472441,
          "duration": 0.31504072916665393
        },
        {
          "name": "D#2",
          "midi": 39,
          "time": 37.560984999999484,
          "velocity": 1,
          "duration": 0.010162604166666256
        },
        {
          "name": "C5",
          "midi": 72,
          "time": 37.56606630208282,
          "velocity": 0.7874015748031497,
          "duration": 0.09654473958332943
        },
        {
          "name": "E5",
          "midi": 76,
          "time": 37.57114760416615,
          "velocity": 0.5039370078740157,
          "duration": 0.08130083333333005
        },
        {
          "name": "B5",
          "midi": 83,
          "time": 37.57622890624948,
          "velocity": 0.8818897637795275,
          "duration": 0.08638213541666317
        },
        {
          "name": "D2",
          "midi": 38,
          "time": 37.68293624999948,
          "velocity": 0.4251968503937008,
          "duration": 0.010162604166666256
        },
        {
          "name": "A3",
          "midi": 57,
          "time": 37.804887499999474,
          "velocity": 0.5984251968503937,
          "duration": 0.396341562499984
        },
        {
          "name": "E4",
          "midi": 64,
          "time": 37.804887499999474,
          "velocity": 0.5433070866141733,
          "duration": 0.44715458333331526
        },
        {
          "name": "C4",
          "midi": 60,
          "time": 37.804887499999474,
          "velocity": 0.5748031496062992,
          "duration": 0.4217480729166496
        },
        {
          "name": "C4",
          "midi": 60,
          "time": 37.804887499999474,
          "velocity": 0.5748031496062992,
          "duration": 0.4217480729166496
        },
        {
          "name": "C5",
          "midi": 72,
          "time": 37.804887499999474,
          "velocity": 0.8503937007874016,
          "duration": 0.10670734374999569
        },
        {
          "name": "C2",
          "midi": 36,
          "time": 37.804887499999474,
          "velocity": 0.5590551181102362,
          "duration": 0.19308947916665886
        },
        {
          "name": "E4",
          "midi": 64,
          "time": 37.804887499999474,
          "velocity": 0.5433070866141733,
          "duration": 0.44715458333331526
        },
        {
          "name": "D#2",
          "midi": 39,
          "time": 37.804887499999474,
          "velocity": 0.9448818897637795,
          "duration": 0.030487812499998768
        },
        {
          "name": "F#2",
          "midi": 42,
          "time": 37.804887499999474,
          "velocity": 0.47244094488188976,
          "duration": 0.010162604166666256
        },
        {
          "name": "G4",
          "midi": 67,
          "time": 37.804887499999474,
          "velocity": 0.4094488188976378,
          "duration": 0.060975624999997535
        },
        {
          "name": "E5",
          "midi": 76,
          "time": 37.81505010416614,
          "velocity": 0.5590551181102362,
          "duration": 0.0914634374999963
        },
        {
          "name": "B5",
          "midi": 83,
          "time": 37.825212708332806,
          "velocity": 0.8818897637795275,
          "duration": 0.10162604166666256
        },
        {
          "name": "D2",
          "midi": 38,
          "time": 37.92683874999947,
          "velocity": 1,
          "duration": 0.010162604166666256
        },
        {
          "name": "G4",
          "midi": 67,
          "time": 38.0386273958328,
          "velocity": 0.5826771653543307,
          "duration": 0.09654473958332943
        },
        {
          "name": "C5",
          "midi": 72,
          "time": 38.04370869791613,
          "velocity": 0.8110236220472441,
          "duration": 0.10670734374999569
        },
        {
          "name": "E2",
          "midi": 40,
          "time": 38.048789999999464,
          "velocity": 0.8110236220472441,
          "duration": 0.2896342187499883
        },
        {
          "name": "E5",
          "midi": 76,
          "time": 38.048789999999464,
          "velocity": 0.6850393700787402,
          "duration": 0.11686994791666194
        },
        {
          "name": "B5",
          "midi": 83,
          "time": 38.048789999999464,
          "velocity": 0.8818897637795275,
          "duration": 0.12195124999999507
        },
        {
          "name": "D2",
          "midi": 38,
          "time": 38.048789999999464,
          "velocity": 1,
          "duration": 0.010162604166666256
        },
        {
          "name": "D2",
          "midi": 38,
          "time": 38.17074124999946,
          "velocity": 1,
          "duration": 0.010162604166666256
        },
        {
          "name": "F#4",
          "midi": 66,
          "time": 38.27236729166612,
          "velocity": 0.3700787401574803,
          "duration": 0.010162604166666256
        },
        {
          "name": "C5",
          "midi": 72,
          "time": 38.292692499999454,
          "velocity": 0.8110236220472441,
          "duration": 0.10162604166666256
        },
        {
          "name": "C4",
          "midi": 60,
          "time": 38.292692499999454,
          "velocity": 0.47244094488188976,
          "duration": 0.07113822916666379
        },
        {
          "name": "E2",
          "midi": 40,
          "time": 38.292692499999454,
          "velocity": 0.5590551181102362,
          "duration": 0.27947161458332204
        },
        {
          "name": "E4",
          "midi": 64,
          "time": 38.292692499999454,
          "velocity": 0.49606299212598426,
          "duration": 0.07113822916666379
        },
        {
          "name": "E5",
          "midi": 76,
          "time": 38.292692499999454,
          "velocity": 0.6614173228346457,
          "duration": 0.10162604166666256
        },
        {
          "name": "F#2",
          "midi": 42,
          "time": 38.292692499999454,
          "velocity": 0.47244094488188976,
          "duration": 0.010162604166666256
        },
        {
          "name": "G4",
          "midi": 67,
          "time": 38.292692499999454,
          "velocity": 0.5196850393700787,
          "duration": 0.0914634374999963
        },
        {
          "name": "A3",
          "midi": 57,
          "time": 38.292692499999454,
          "velocity": 0.4330708661417323,
          "duration": 0.05589432291666441
        },
        {
          "name": "E4",
          "midi": 64,
          "time": 38.292692499999454,
          "velocity": 0.49606299212598426,
          "duration": 0.07113822916666379
        },
        {
          "name": "D2",
          "midi": 38,
          "time": 38.292692499999454,
          "velocity": 0.9212598425196851,
          "duration": 0.010162604166666256
        },
        {
          "name": "C4",
          "midi": 60,
          "time": 38.292692499999454,
          "velocity": 0.47244094488188976,
          "duration": 0.07113822916666379
        },
        {
          "name": "B5",
          "midi": 83,
          "time": 38.30285510416612,
          "velocity": 0.8818897637795275,
          "duration": 0.12195124999999507
        },
        {
          "name": "D2",
          "midi": 38,
          "time": 38.41464374999945,
          "velocity": 1,
          "duration": 0.010162604166666256
        },
        {
          "name": "G4",
          "midi": 67,
          "time": 38.51626979166611,
          "velocity": 0.49606299212598426,
          "duration": 0.13719515624999445
        },
        {
          "name": "C4",
          "midi": 60,
          "time": 38.536594999999444,
          "velocity": 0.4566929133858268,
          "duration": 0.07113822916666379
        },
        {
          "name": "F#2",
          "midi": 42,
          "time": 38.536594999999444,
          "velocity": 0.5590551181102362,
          "duration": 0.22865859374999076
        },
        {
          "name": "A3",
          "midi": 57,
          "time": 38.536594999999444,
          "velocity": 0.5196850393700787,
          "duration": 0.07113822916666379
        },
        {
          "name": "D#2",
          "midi": 39,
          "time": 38.536594999999444,
          "velocity": 1,
          "duration": 0.010162604166666256
        },
        {
          "name": "E4",
          "midi": 64,
          "time": 38.536594999999444,
          "velocity": 0.5039370078740157,
          "duration": 0.08130083333333005
        },
        {
          "name": "C2",
          "midi": 36,
          "time": 38.536594999999444,
          "velocity": 0.8110236220472441,
          "duration": 0.2743903124999889
        },
        {
          "name": "E4",
          "midi": 64,
          "time": 38.536594999999444,
          "velocity": 0.5039370078740157,
          "duration": 0.08130083333333005
        },
        {
          "name": "E4",
          "midi": 64,
          "time": 38.536594999999444,
          "velocity": 0.8661417322834646,
          "duration": 0.46747979166664777
        },
        {
          "name": "C4",
          "midi": 60,
          "time": 38.536594999999444,
          "velocity": 0.4566929133858268,
          "duration": 0.07113822916666379
        },
        {
          "name": "C5",
          "midi": 72,
          "time": 38.536594999999444,
          "velocity": 0.7559055118110236,
          "duration": 0.11686994791666194
        },
        {
          "name": "E5",
          "midi": 76,
          "time": 38.55183890624944,
          "velocity": 0.6614173228346457,
          "duration": 0.10162604166666256
        },
        {
          "name": "E4",
          "midi": 64,
          "time": 38.55692020833278,
          "velocity": 0.8661417322834646,
          "duration": 0.46747979166664777
        },
        {
          "name": "B5",
          "midi": 83,
          "time": 38.55692020833278,
          "velocity": 0.8818897637795275,
          "duration": 0.0914634374999963
        },
        {
          "name": "D2",
          "midi": 38,
          "time": 38.65854624999944,
          "velocity": 0.4251968503937008,
          "duration": 0.010162604166666256
        },
        {
          "name": "G4",
          "midi": 67,
          "time": 38.77033489583277,
          "velocity": 0.3464566929133858,
          "duration": 0.02540651041666564
        },
        {
          "name": "E2",
          "midi": 40,
          "time": 38.780497499999434,
          "velocity": 0.5590551181102362,
          "duration": 0.21341468749999137
        },
        {
          "name": "C5",
          "midi": 72,
          "time": 38.780497499999434,
          "velocity": 0.84251968503937,
          "duration": 0.11686994791666194
        },
        {
          "name": "D2",
          "midi": 38,
          "time": 38.780497499999434,
          "velocity": 0.8503937007874016,
          "duration": 0.010162604166666256
        },
        {
          "name": "F#2",
          "midi": 42,
          "time": 38.780497499999434,
          "velocity": 0.47244094488188976,
          "duration": 0.010162604166666256
        },
        {
          "name": "E5",
          "midi": 76,
          "time": 38.78557880208277,
          "velocity": 0.5748031496062992,
          "duration": 0.11686994791666194
        },
        {
          "name": "B5",
          "midi": 83,
          "time": 38.7906601041661,
          "velocity": 0.8818897637795275,
          "duration": 0.10670734374999569
        },
        {
          "name": "D2",
          "midi": 38,
          "time": 38.90244874999943,
          "velocity": 1,
          "duration": 0.010162604166666256
        },
        {
          "name": "E4",
          "midi": 64,
          "time": 39.024399999999424,
          "velocity": 0.5196850393700787,
          "duration": 0.08130083333333005
        },
        {
          "name": "C4",
          "midi": 60,
          "time": 39.024399999999424,
          "velocity": 0.5275590551181102,
          "duration": 0.07621953124999692
        },
        {
          "name": "A1",
          "midi": 33,
          "time": 39.024399999999424,
          "velocity": 0.5590551181102362,
          "duration": 0.274390312499996
        },
        {
          "name": "C4",
          "midi": 60,
          "time": 39.024399999999424,
          "velocity": 0.5275590551181102,
          "duration": 0.07621953124999692
        },
        {
          "name": "D2",
          "midi": 38,
          "time": 39.024399999999424,
          "velocity": 1,
          "duration": 0.010162604166666256
        },
        {
          "name": "A3",
          "midi": 57,
          "time": 39.024399999999424,
          "velocity": 0.5275590551181102,
          "duration": 0.06605692708333066
        },
        {
          "name": "E4",
          "midi": 64,
          "time": 39.024399999999424,
          "velocity": 0.5196850393700787,
          "duration": 0.08130083333333005
        },
        {
          "name": "A1",
          "midi": 33,
          "time": 39.024399999999424,
          "velocity": 0.7874015748031497,
          "duration": 0.3048781249999948
        },
        {
          "name": "G4",
          "midi": 67,
          "time": 39.024399999999424,
          "velocity": 0.6929133858267716,
          "duration": 0.11178864583332881
        },
        {
          "name": "B4",
          "midi": 71,
          "time": 39.024399999999424,
          "velocity": 0.9606299212598425,
          "duration": 0.9654473958333227
        },
        {
          "name": "C5",
          "midi": 72,
          "time": 39.03456260416609,
          "velocity": 0.8267716535433071,
          "duration": 0.11178864583332881
        },
        {
          "name": "E5",
          "midi": 76,
          "time": 39.03456260416609,
          "velocity": 0.8188976377952756,
          "duration": 0.13211385416666133
        },
        {
          "name": "B4",
          "midi": 71,
          "time": 39.04472520833276,
          "velocity": 0.9606299212598425,
          "duration": 0.9654473958333227
        },
        {
          "name": "B5",
          "midi": 83,
          "time": 39.04472520833276,
          "velocity": 0.8818897637795275,
          "duration": 0.12195124999999507
        },
        {
          "name": "D2",
          "midi": 38,
          "time": 39.14635124999942,
          "velocity": 1,
          "duration": 0.010162604166666256
        },
        {
          "name": "F#4",
          "midi": 66,
          "time": 39.26322119791609,
          "velocity": 0.28346456692913385,
          "duration": 0.005081302083333128
        },
        {
          "name": "G4",
          "midi": 67,
          "time": 39.26830249999942,
          "velocity": 0.49606299212598426,
          "duration": 0.08130083333333005
        },
        {
          "name": "D2",
          "midi": 38,
          "time": 39.26830249999942,
          "velocity": 0.9212598425196851,
          "duration": 0.010162604166666256
        },
        {
          "name": "F#2",
          "midi": 42,
          "time": 39.26830249999942,
          "velocity": 0.47244094488188976,
          "duration": 0.010162604166666256
        },
        {
          "name": "C5",
          "midi": 72,
          "time": 39.273383802082755,
          "velocity": 0.8503937007874016,
          "duration": 0.10670734374999569
        },
        {
          "name": "E5",
          "midi": 76,
          "time": 39.27846510416609,
          "velocity": 0.6456692913385826,
          "duration": 0.13211385416666133
        },
        {
          "name": "B5",
          "midi": 83,
          "time": 39.28354640624942,
          "velocity": 0.8582677165354331,
          "duration": 0.11686994791666194
        },
        {
          "name": "D2",
          "midi": 38,
          "time": 39.39025374999942,
          "velocity": 1,
          "duration": 0.010162604166666256
        },
        {
          "name": "G4",
          "midi": 67,
          "time": 39.507123697916086,
          "velocity": 0.48031496062992124,
          "duration": 0.015243906249999384
        },
        {
          "name": "C2",
          "midi": 36,
          "time": 39.51220499999942,
          "velocity": 0.84251968503937,
          "duration": 0.3252033333333344
        },
        {
          "name": "D#2",
          "midi": 39,
          "time": 39.51220499999942,
          "velocity": 1,
          "duration": 0.010162604166666256
        },
        {
          "name": "C5",
          "midi": 72,
          "time": 39.51220499999942,
          "velocity": 0.8267716535433071,
          "duration": 0.11686994791666905
        },
        {
          "name": "E5",
          "midi": 76,
          "time": 39.51728630208275,
          "velocity": 0.6377952755905512,
          "duration": 0.11178864583333592
        },
        {
          "name": "B5",
          "midi": 83,
          "time": 39.522367604166085,
          "velocity": 0.8818897637795275,
          "duration": 0.11686994791666905
        },
        {
          "name": "D2",
          "midi": 38,
          "time": 39.63415624999942,
          "velocity": 0.4251968503937008,
          "duration": 0.010162604166666256
        },
        {
          "name": "G4",
          "midi": 67,
          "time": 39.74594489583276,
          "velocity": 0.5826771653543307,
          "duration": 0.11686994791666194
        },
        {
          "name": "C5",
          "midi": 72,
          "time": 39.75102619791609,
          "velocity": 0.7637795275590551,
          "duration": 0.12195124999999507
        },
        {
          "name": "E5",
          "midi": 76,
          "time": 39.75610749999942,
          "velocity": 0.6141732283464567,
          "duration": 0.10670734374999569
        },
        {
          "name": "D#2",
          "midi": 39,
          "time": 39.75610749999942,
          "velocity": 0.9448818897637795,
          "duration": 0.030487812499998768
        },
        {
          "name": "F#2",
          "midi": 42,
          "time": 39.75610749999942,
          "velocity": 0.47244094488188976,
          "duration": 0.010162604166666256
        },
        {
          "name": "E4",
          "midi": 64,
          "time": 39.75610749999942,
          "velocity": 0.6220472440944882,
          "duration": 0.37093505208331834
        },
        {
          "name": "C4",
          "midi": 60,
          "time": 39.75610749999942,
          "velocity": 0.6220472440944882,
          "duration": 0.3658537499999852
        },
        {
          "name": "C4",
          "midi": 60,
          "time": 39.75610749999942,
          "velocity": 0.6220472440944882,
          "duration": 0.3658537499999852
        },
        {
          "name": "A3",
          "midi": 57,
          "time": 39.75610749999942,
          "velocity": 0.5748031496062992,
          "duration": 0.3455285416666527
        },
        {
          "name": "E4",
          "midi": 64,
          "time": 39.75610749999942,
          "velocity": 0.6220472440944882,
          "duration": 0.37093505208331834
        },
        {
          "name": "C2",
          "midi": 36,
          "time": 39.75610749999942,
          "velocity": 0.5590551181102362,
          "duration": 0.21341468749999137
        },
        {
          "name": "B5",
          "midi": 83,
          "time": 39.76627010416609,
          "velocity": 0.8346456692913385,
          "duration": 0.10162604166666256
        },
        {
          "name": "D2",
          "midi": 38,
          "time": 39.87805874999942,
          "velocity": 1,
          "duration": 0.010162604166666256
        },
        {
          "name": "G4",
          "midi": 67,
          "time": 39.99492869791608,
          "velocity": 0.5590551181102362,
          "duration": 0.11178864583332881
        },
        {
          "name": "E2",
          "midi": 40,
          "time": 40.00000999999941,
          "velocity": 0.7559055118110236,
          "duration": 0.32012203124999417
        },
        {
          "name": "A4",
          "midi": 69,
          "time": 40.00000999999941,
          "velocity": 0.8661417322834646,
          "duration": 0.8536587499999797
        },
        {
          "name": "D2",
          "midi": 38,
          "time": 40.00000999999941,
          "velocity": 1,
          "duration": 0.010162604166666256
        },
        {
          "name": "C5",
          "midi": 72,
          "time": 40.00509130208275,
          "velocity": 0.8110236220472441,
          "duration": 0.09654473958332943
        },
        {
          "name": "E5",
          "midi": 76,
          "time": 40.01525390624941,
          "velocity": 0.6692913385826772,
          "duration": 0.09654473958332943
        },
        {
          "name": "A4",
          "midi": 69,
          "time": 40.020335208332746,
          "velocity": 0.8661417322834646,
          "duration": 0.8536587499999797
        },
        {
          "name": "B5",
          "midi": 83,
          "time": 40.020335208332746,
          "velocity": 0.7322834645669292,
          "duration": 0.010162604166666256
        },
        {
          "name": "B5",
          "midi": 83,
          "time": 40.03049781249941,
          "velocity": 0.8818897637795275,
          "duration": 0.07113822916666379
        },
        {
          "name": "D2",
          "midi": 38,
          "time": 40.12196124999941,
          "velocity": 1,
          "duration": 0.010162604166666256
        },
        {
          "name": "G4",
          "midi": 67,
          "time": 40.22866859374941,
          "velocity": 0.5275590551181102,
          "duration": 0.08130083333333005
        },
        {
          "name": "C5",
          "midi": 72,
          "time": 40.233749895832744,
          "velocity": 0.7559055118110236,
          "duration": 0.08130083333333005
        },
        {
          "name": "E5",
          "midi": 76,
          "time": 40.23883119791608,
          "velocity": 0.6377952755905512,
          "duration": 0.0914634374999963
        },
        {
          "name": "F#2",
          "midi": 42,
          "time": 40.24391249999941,
          "velocity": 0.47244094488188976,
          "duration": 0.010162604166666256
        },
        {
          "name": "D2",
          "midi": 38,
          "time": 40.24391249999941,
          "velocity": 0.9212598425196851,
          "duration": 0.010162604166666256
        },
        {
          "name": "E2",
          "midi": 40,
          "time": 40.24391249999941,
          "velocity": 0.5590551181102362,
          "duration": 0.29979682291666165
        },
        {
          "name": "C4",
          "midi": 60,
          "time": 40.24391249999941,
          "velocity": 0.5590551181102362,
          "duration": 0.06605692708333066
        },
        {
          "name": "E4",
          "midi": 64,
          "time": 40.24391249999941,
          "velocity": 0.5196850393700787,
          "duration": 0.06605692708333066
        },
        {
          "name": "E4",
          "midi": 64,
          "time": 40.24391249999941,
          "velocity": 0.5196850393700787,
          "duration": 0.06605692708333066
        },
        {
          "name": "C4",
          "midi": 60,
          "time": 40.24391249999941,
          "velocity": 0.5590551181102362,
          "duration": 0.06605692708333066
        },
        {
          "name": "A3",
          "midi": 57,
          "time": 40.24391249999941,
          "velocity": 0.49606299212598426,
          "duration": 0.060975624999997535
        },
        {
          "name": "B5",
          "midi": 83,
          "time": 40.25407510416608,
          "velocity": 0.8818897637795275,
          "duration": 0.07113822916666379
        },
        {
          "name": "D2",
          "midi": 38,
          "time": 40.365863749999406,
          "velocity": 1,
          "duration": 0.010162604166666256
        },
        {
          "name": "G4",
          "midi": 67,
          "time": 40.467489791666075,
          "velocity": 0.5039370078740157,
          "duration": 0.10162604166666256
        },
        {
          "name": "E4",
          "midi": 64,
          "time": 40.48781499999941,
          "velocity": 0.5748031496062992,
          "duration": 0.10670734374999569
        },
        {
          "name": "C4",
          "midi": 60,
          "time": 40.48781499999941,
          "velocity": 0.5748031496062992,
          "duration": 0.09654473958332943
        },
        {
          "name": "C2",
          "midi": 36,
          "time": 40.48781499999941,
          "velocity": 0.7244094488188977,
          "duration": 0.19308947916665886
        },
        {
          "name": "C4",
          "midi": 60,
          "time": 40.48781499999941,
          "velocity": 0.5748031496062992,
          "duration": 0.09654473958332943
        },
        {
          "name": "C5",
          "midi": 72,
          "time": 40.48781499999941,
          "velocity": 0.7716535433070866,
          "duration": 0.09654473958332943
        },
        {
          "name": "E4",
          "midi": 64,
          "time": 40.48781499999941,
          "velocity": 0.5748031496062992,
          "duration": 0.10670734374999569
        },
        {
          "name": "D#2",
          "midi": 39,
          "time": 40.48781499999941,
          "velocity": 1,
          "duration": 0.010162604166666256
        },
        {
          "name": "A3",
          "midi": 57,
          "time": 40.48781499999941,
          "velocity": 0.5590551181102362,
          "duration": 0.09654473958332943
        },
        {
          "name": "F#2",
          "midi": 42,
          "time": 40.48781499999941,
          "velocity": 0.5590551181102362,
          "duration": 0.24898380208332327
        },
        {
          "name": "E5",
          "midi": 76,
          "time": 40.50305890624941,
          "velocity": 0.6929133858267716,
          "duration": 0.08638213541666317
        },
        {
          "name": "B5",
          "midi": 83,
          "time": 40.513221510416074,
          "velocity": 0.8818897637795275,
          "duration": 0.10162604166666256
        },
        {
          "name": "D2",
          "midi": 38,
          "time": 40.6097662499994,
          "velocity": 0.4251968503937008,
          "duration": 0.010162604166666256
        },
        {
          "name": "G#4",
          "midi": 68,
          "time": 40.7164735937494,
          "velocity": 0.3464566929133858,
          "duration": 0.010162604166666256
        },
        {
          "name": "G4",
          "midi": 67,
          "time": 40.7317174999994,
          "velocity": 1,
          "duration": 0.10670734374999569
        },
        {
          "name": "F#2",
          "midi": 42,
          "time": 40.7317174999994,
          "velocity": 0.47244094488188976,
          "duration": 0.010162604166666256
        },
        {
          "name": "E2",
          "midi": 40,
          "time": 40.7317174999994,
          "velocity": 0.5590551181102362,
          "duration": 0.18800817708332573
        },
        {
          "name": "D2",
          "midi": 38,
          "time": 40.7317174999994,
          "velocity": 0.8503937007874016,
          "duration": 0.010162604166666256
        },
        {
          "name": "G4",
          "midi": 67,
          "time": 40.7317174999994,
          "velocity": 0.4094488188976378,
          "duration": 0.23373989583332389
        },
        {
          "name": "C5",
          "midi": 72,
          "time": 40.73679880208273,
          "velocity": 0.7637795275590551,
          "duration": 0.10670734374999569
        },
        {
          "name": "E5",
          "midi": 76,
          "time": 40.741880104166064,
          "velocity": 0.5590551181102362,
          "duration": 0.08130083333333005
        },
        {
          "name": "B5",
          "midi": 83,
          "time": 40.7469614062494,
          "velocity": 0.7637795275590551,
          "duration": 0.11686994791666194
        },
        {
          "name": "D2",
          "midi": 38,
          "time": 40.85366874999939,
          "velocity": 1,
          "duration": 0.010162604166666256
        },
        {
          "name": "G2",
          "midi": 43,
          "time": 40.97561999999939,
          "velocity": 0.5433070866141733,
          "duration": 0.16768296874999322
        },
        {
          "name": "F3",
          "midi": 53,
          "time": 40.97561999999939,
          "velocity": 0.5196850393700787,
          "duration": 0.010162604166666256
        },
        {
          "name": "G1",
          "midi": 31,
          "time": 40.97561999999939,
          "velocity": 0.8110236220472441,
          "duration": 0.37093505208332544
        },
        {
          "name": "D4",
          "midi": 62,
          "time": 40.97561999999939,
          "velocity": 0.5275590551181102,
          "duration": 0.1626016666666601
        },
        {
          "name": "D4",
          "midi": 62,
          "time": 40.97561999999939,
          "velocity": 0.7716535433070866,
          "duration": 0.1626016666666601
        },
        {
          "name": "D#2",
          "midi": 39,
          "time": 40.97561999999939,
          "velocity": 0.8740157480314961,
          "duration": 0.010162604166666256
        },
        {
          "name": "B3",
          "midi": 59,
          "time": 40.97561999999939,
          "velocity": 0.5748031496062992,
          "duration": 0.15243906249999384
        },
        {
          "name": "G3",
          "midi": 55,
          "time": 40.97561999999939,
          "velocity": 0.49606299212598426,
          "duration": 0.15243906249999384
        },
        {
          "name": "D4",
          "midi": 62,
          "time": 40.97561999999939,
          "velocity": 0.5275590551181102,
          "duration": 1.4024393749999717
        },
        {
          "name": "G5",
          "midi": 79,
          "time": 40.97561999999939,
          "velocity": 0.9133858267716536,
          "duration": 0.1270325520833282
        },
        {
          "name": "G4",
          "midi": 67,
          "time": 40.99594520833272,
          "velocity": 0.6850393700787402,
          "duration": 1.8750004687499526
        },
        {
          "name": "D5",
          "midi": 74,
          "time": 41.09757124999938,
          "velocity": 0.5826771653543307,
          "duration": 0.005081302083333128
        },
        {
          "name": "G5",
          "midi": 79,
          "time": 41.09757124999938,
          "velocity": 0.5826771653543307,
          "duration": 0.02540651041666564
        },
        {
          "name": "D2",
          "midi": 38,
          "time": 41.09757124999938,
          "velocity": 1,
          "duration": 0.010162604166666256
        },
        {
          "name": "B4",
          "midi": 71,
          "time": 41.10773385416605,
          "velocity": 0.5511811023622047,
          "duration": 0.005081302083333128
        },
        {
          "name": "D#4",
          "midi": 63,
          "time": 41.117896458332716,
          "velocity": 0.3464566929133858,
          "duration": 0.005081302083333128
        },
        {
          "name": "G5",
          "midi": 79,
          "time": 41.21952249999938,
          "velocity": 0.8661417322834646,
          "duration": 0.14735776041666782
        },
        {
          "name": "D5",
          "midi": 74,
          "time": 41.21952249999938,
          "velocity": 0.8740157480314961,
          "duration": 0.12195125000000218
        },
        {
          "name": "F#2",
          "midi": 42,
          "time": 41.21952249999938,
          "velocity": 0.47244094488188976,
          "duration": 0.010162604166666256
        },
        {
          "name": "F3",
          "midi": 53,
          "time": 41.21952249999938,
          "velocity": 0.4566929133858268,
          "duration": 0.010162604166666256
        },
        {
          "name": "D2",
          "midi": 38,
          "time": 41.21952249999938,
          "velocity": 0.9212598425196851,
          "duration": 0.010162604166666256
        },
        {
          "name": "G5",
          "midi": 79,
          "time": 41.22460380208271,
          "velocity": 0.8740157480314961,
          "duration": 0.22865859374999786
        },
        {
          "name": "D#2",
          "midi": 39,
          "time": 41.34147374999938,
          "velocity": 0.5984251968503937,
          "duration": 0.010162604166666256
        },
        {
          "name": "B4",
          "midi": 71,
          "time": 41.35163635416605,
          "velocity": 0.8740157480314961,
          "duration": 0.10162604166666256
        },
        {
          "name": "D5",
          "midi": 74,
          "time": 41.35163635416605,
          "velocity": 0.8740157480314961,
          "duration": 0.10162604166666256
        },
        {
          "name": "D3",
          "midi": 50,
          "time": 41.36179895833271,
          "velocity": 0.44881889763779526,
          "duration": 0.005081302083333128
        },
        {
          "name": "D#2",
          "midi": 39,
          "time": 41.463424999999376,
          "velocity": 1,
          "duration": 0.010162604166666256
        },
        {
          "name": "G5",
          "midi": 79,
          "time": 41.463424999999376,
          "velocity": 0.889763779527559,
          "duration": 0.010162604166666256
        },
        {
          "name": "F3",
          "midi": 53,
          "time": 41.463424999999376,
          "velocity": 0.4881889763779528,
          "duration": 0.010162604166666256
        },
        {
          "name": "B1",
          "midi": 35,
          "time": 41.463424999999376,
          "velocity": 0.8110236220472441,
          "duration": 0.1829268749999997
        },
        {
          "name": "D5",
          "midi": 74,
          "time": 41.463424999999376,
          "velocity": 0.7165354330708661,
          "duration": 0.010162604166666256
        },
        {
          "name": "G5",
          "midi": 79,
          "time": 41.46850630208271,
          "velocity": 0.8740157480314961,
          "duration": 0.23882119791666412
        },
        {
          "name": "D2",
          "midi": 38,
          "time": 41.58537624999938,
          "velocity": 0.4251968503937008,
          "duration": 0.010162604166666256
        },
        {
          "name": "F3",
          "midi": 53,
          "time": 41.58537624999938,
          "velocity": 0.3779527559055118,
          "duration": 0.010162604166666256
        },
        {
          "name": "F5",
          "midi": 77,
          "time": 41.70732749999937,
          "velocity": 0.8976377952755905,
          "duration": 0.17276427083333346
        },
        {
          "name": "F#2",
          "midi": 42,
          "time": 41.70732749999937,
          "velocity": 0.47244094488188976,
          "duration": 0.010162604166666256
        },
        {
          "name": "G2",
          "midi": 43,
          "time": 41.70732749999937,
          "velocity": 0.5275590551181102,
          "duration": 0.6504066666666546
        },
        {
          "name": "F3",
          "midi": 53,
          "time": 41.70732749999937,
          "velocity": 0.5196850393700787,
          "duration": 0.010162604166666256
        },
        {
          "name": "D2",
          "midi": 38,
          "time": 41.70732749999937,
          "velocity": 0.8503937007874016,
          "duration": 0.010162604166666256
        },
        {
          "name": "G3",
          "midi": 55,
          "time": 41.70732749999937,
          "velocity": 0.5748031496062992,
          "duration": 0.6504066666666546
        },
        {
          "name": "D2",
          "midi": 38,
          "time": 41.70732749999937,
          "velocity": 0.6377952755905512,
          "duration": 0.13211385416666843
        },
        {
          "name": "D4",
          "midi": 62,
          "time": 41.70732749999937,
          "velocity": 0.5039370078740157,
          "duration": 0.6707318749999871
        },
        {
          "name": "B3",
          "midi": 59,
          "time": 41.70732749999937,
          "velocity": 0.5590551181102362,
          "duration": 0.6758131770833202
        },
        {
          "name": "D4",
          "midi": 62,
          "time": 41.70732749999937,
          "velocity": 0.5039370078740157,
          "duration": 0.8231709374999809
        },
        {
          "name": "D5",
          "midi": 74,
          "time": 41.712408802082706,
          "velocity": 0.8740157480314961,
          "duration": 0.22865859374999786
        },
        {
          "name": "G5",
          "midi": 79,
          "time": 41.71749010416604,
          "velocity": 0.8740157480314961,
          "duration": 0.11178864583333592
        },
        {
          "name": "D2",
          "midi": 38,
          "time": 41.829278749999375,
          "velocity": 1,
          "duration": 0.07621953124999692
        },
        {
          "name": "G5",
          "midi": 79,
          "time": 41.83944135416604,
          "velocity": 0.8740157480314961,
          "duration": 0.10670734374999569
        },
        {
          "name": "B4",
          "midi": 71,
          "time": 41.844522656249374,
          "velocity": 0.8740157480314961,
          "duration": 0.10162604166666256
        },
        {
          "name": "E4",
          "midi": 64,
          "time": 41.84960395833271,
          "velocity": 0.4015748031496063,
          "duration": 0.020325208333332512
        },
        {
          "name": "D#2",
          "midi": 39,
          "time": 41.95122999999937,
          "velocity": 0.9448818897637795,
          "duration": 0.010162604166666256
        },
        {
          "name": "G1",
          "midi": 31,
          "time": 41.95122999999937,
          "velocity": 0.8110236220472441,
          "duration": 0.4522358854166555
        },
        {
          "name": "G5",
          "midi": 79,
          "time": 41.95122999999937,
          "velocity": 0.984251968503937,
          "duration": 0.015243906249999384
        },
        {
          "name": "F3",
          "midi": 53,
          "time": 41.95122999999937,
          "velocity": 0.47244094488188976,
          "duration": 0.010162604166666256
        },
        {
          "name": "G5",
          "midi": 79,
          "time": 41.961392604166036,
          "velocity": 0.8740157480314961,
          "duration": 0.13211385416666843
        },
        {
          "name": "D2",
          "midi": 38,
          "time": 42.07318124999937,
          "velocity": 1,
          "duration": 0.010162604166666256
        },
        {
          "name": "G5",
          "midi": 79,
          "time": 42.078262552082705,
          "velocity": 0.8740157480314961,
          "duration": 0.11686994791666194
        },
        {
          "name": "B4",
          "midi": 71,
          "time": 42.08842515624937,
          "velocity": 0.49606299212598426,
          "duration": 0.005081302083333128
        },
        {
          "name": "D2",
          "midi": 38,
          "time": 42.19513249999937,
          "velocity": 0.9212598425196851,
          "duration": 0.010162604166666256
        },
        {
          "name": "F3",
          "midi": 53,
          "time": 42.19513249999937,
          "velocity": 0.5511811023622047,
          "duration": 0.010162604166666256
        },
        {
          "name": "F#2",
          "midi": 42,
          "time": 42.19513249999937,
          "velocity": 0.47244094488188976,
          "duration": 0.010162604166666256
        },
        {
          "name": "B4",
          "midi": 71,
          "time": 42.2002138020827,
          "velocity": 0.6614173228346457,
          "duration": 0.02540651041666564
        },
        {
          "name": "D5",
          "midi": 74,
          "time": 42.205295104166034,
          "velocity": 0.8740157480314961,
          "duration": 0.11686994791666194
        },
        {
          "name": "G5",
          "midi": 79,
          "time": 42.2154577083327,
          "velocity": 0.8740157480314961,
          "duration": 0.09654473958332943
        },
        {
          "name": "D2",
          "midi": 38,
          "time": 42.31708374999936,
          "velocity": 1,
          "duration": 0.010162604166666256
        },
        {
          "name": "G5",
          "midi": 79,
          "time": 42.322165052082696,
          "velocity": 0.8740157480314961,
          "duration": 0.23373989583332389
        },
        {
          "name": "D5",
          "midi": 74,
          "time": 42.32724635416603,
          "velocity": 0.8740157480314961,
          "duration": 0.11178864583332881
        },
        {
          "name": "F4",
          "midi": 65,
          "time": 42.337408958332695,
          "velocity": 0.3937007874015748,
          "duration": 0.010162604166666256
        },
        {
          "name": "B4",
          "midi": 71,
          "time": 42.337408958332695,
          "velocity": 0.8740157480314961,
          "duration": 0.23373989583332389
        },
        {
          "name": "G2",
          "midi": 43,
          "time": 42.43903499999936,
          "velocity": 0.48031496062992124,
          "duration": 0.08130083333333005
        },
        {
          "name": "B3",
          "midi": 59,
          "time": 42.43903499999936,
          "velocity": 0.4881889763779528,
          "duration": 0.06605692708333066
        },
        {
          "name": "D2",
          "midi": 38,
          "time": 42.43903499999936,
          "velocity": 1,
          "duration": 0.010162604166666256
        },
        {
          "name": "B1",
          "midi": 35,
          "time": 42.43903499999936,
          "velocity": 0.6850393700787402,
          "duration": 0.20325208333332512
        },
        {
          "name": "F3",
          "midi": 53,
          "time": 42.43903499999936,
          "velocity": 0.3937007874015748,
          "duration": 0.010162604166666256
        },
        {
          "name": "D4",
          "midi": 62,
          "time": 42.43903499999936,
          "velocity": 0.5748031496062992,
          "duration": 0.0914634374999963
        },
        {
          "name": "D4",
          "midi": 62,
          "time": 42.43903499999936,
          "velocity": 0.5748031496062992,
          "duration": 0.39126026041665085
        },
        {
          "name": "G3",
          "midi": 55,
          "time": 42.43903499999936,
          "velocity": 0.49606299212598426,
          "duration": 0.060975624999997535
        },
        {
          "name": "D5",
          "midi": 74,
          "time": 42.45427890624936,
          "velocity": 0.84251968503937,
          "duration": 0.11178864583332881
        },
        {
          "name": "D#2",
          "midi": 39,
          "time": 42.56098624999935,
          "velocity": 0.9448818897637795,
          "duration": 0.010162604166666256
        },
        {
          "name": "F3",
          "midi": 53,
          "time": 42.56098624999935,
          "velocity": 0.41732283464566927,
          "duration": 0.010162604166666256
        },
        {
          "name": "G5",
          "midi": 79,
          "time": 42.57114885416602,
          "velocity": 0.8740157480314961,
          "duration": 0.17276427083332635
        },
        {
          "name": "B4",
          "midi": 71,
          "time": 42.581311458332685,
          "velocity": 0.8031496062992126,
          "duration": 0.16768296874999322
        },
        {
          "name": "D5",
          "midi": 74,
          "time": 42.581311458332685,
          "velocity": 0.8740157480314961,
          "duration": 0.1626016666666601
        },
        {
          "name": "D#2",
          "midi": 39,
          "time": 42.68293749999935,
          "velocity": 0.49606299212598426,
          "duration": 0.010162604166666256
        },
        {
          "name": "F3",
          "midi": 53,
          "time": 42.68293749999935,
          "velocity": 0.5511811023622047,
          "duration": 0.010162604166666256
        },
        {
          "name": "F#2",
          "midi": 42,
          "time": 42.68293749999935,
          "velocity": 0.47244094488188976,
          "duration": 0.010162604166666256
        },
        {
          "name": "D2",
          "midi": 38,
          "time": 42.68293749999935,
          "velocity": 0.6692913385826772,
          "duration": 0.198170781249992
        },
        {
          "name": "D5",
          "midi": 74,
          "time": 42.68293749999935,
          "velocity": 1,
          "duration": 0.19308947916665886
        },
        {
          "name": "D#2",
          "midi": 39,
          "time": 42.80488874999934,
          "velocity": 0.9448818897637795,
          "duration": 0.010162604166666256
        },
        {
          "name": "C4",
          "midi": 60,
          "time": 42.92683999999934,
          "velocity": 0.5748031496062992,
          "duration": 0.15243906249999384
        },
        {
          "name": "E4",
          "midi": 64,
          "time": 42.92683999999934,
          "velocity": 0.5275590551181102,
          "duration": 0.1626016666666601
        },
        {
          "name": "C4",
          "midi": 60,
          "time": 42.92683999999934,
          "velocity": 0.7165354330708661,
          "duration": 0.15243906249999384
        },
        {
          "name": "E5",
          "midi": 76,
          "time": 42.92683999999934,
          "velocity": 1,
          "duration": 0.3658537499999923
        },
        {
          "name": "G3",
          "midi": 55,
          "time": 42.92683999999934,
          "velocity": 0.49606299212598426,
          "duration": 0.15243906249999384
        },
        {
          "name": "E4",
          "midi": 64,
          "time": 42.92683999999934,
          "velocity": 0.5275590551181102,
          "duration": 0.1626016666666601
        },
        {
          "name": "F3",
          "midi": 53,
          "time": 42.92683999999934,
          "velocity": 0.4330708661417323,
          "duration": 0.010162604166666256
        },
        {
          "name": "C2",
          "midi": 36,
          "time": 42.92683999999934,
          "velocity": 0.5433070866141733,
          "duration": 0.16768296874999322
        },
        {
          "name": "C4",
          "midi": 60,
          "time": 42.92683999999934,
          "velocity": 0.5748031496062992,
          "duration": 1.4075206770832978
        },
        {
          "name": "C2",
          "midi": 36,
          "time": 42.92683999999934,
          "velocity": 0.6692913385826772,
          "duration": 0.3963415624999911
        },
        {
          "name": "D#2",
          "midi": 39,
          "time": 42.92683999999934,
          "velocity": 0.8740157480314961,
          "duration": 0.010162604166666256
        },
        {
          "name": "E4",
          "midi": 64,
          "time": 42.94716520833267,
          "velocity": 0.6456692913385826,
          "duration": 0.5030489062499868
        },
        {
          "name": "A#4",
          "midi": 70,
          "time": 42.952246510416,
          "velocity": 0.7007874015748031,
          "duration": 0.005081302083333128
        },
        {
          "name": "D2",
          "midi": 38,
          "time": 43.04879124999933,
          "velocity": 1,
          "duration": 0.010162604166666256
        },
        {
          "name": "C5",
          "midi": 72,
          "time": 43.053872552082666,
          "velocity": 0.2992125984251969,
          "duration": 0.010162604166666256
        },
        {
          "name": "F#2",
          "midi": 42,
          "time": 43.17074249999933,
          "velocity": 0.47244094488188976,
          "duration": 0.010162604166666256
        },
        {
          "name": "F3",
          "midi": 53,
          "time": 43.17074249999933,
          "velocity": 0.4330708661417323,
          "duration": 0.010162604166666256
        },
        {
          "name": "D2",
          "midi": 38,
          "time": 43.17074249999933,
          "velocity": 0.9212598425196851,
          "duration": 0.010162604166666256
        },
        {
          "name": "G4",
          "midi": 67,
          "time": 43.18598640624933,
          "velocity": 0.8740157480314961,
          "duration": 0.20325208333333222
        },
        {
          "name": "C5",
          "midi": 72,
          "time": 43.19106770833266,
          "velocity": 0.8740157480314961,
          "duration": 0.09146343750000341
        },
        {
          "name": "D2",
          "midi": 38,
          "time": 43.29269374999933,
          "velocity": 1,
          "duration": 0.010162604166666256
        },
        {
          "name": "C5",
          "midi": 72,
          "time": 43.30793765624933,
          "velocity": 0.8740157480314961,
          "duration": 0.10670734374999569
        },
        {
          "name": "E4",
          "midi": 64,
          "time": 43.31301895833266,
          "velocity": 0.6614173228346457,
          "duration": 0.6097562499999825
        },
        {
          "name": "D#2",
          "midi": 39,
          "time": 43.414644999999325,
          "velocity": 1,
          "duration": 0.010162604166666256
        },
        {
          "name": "E5",
          "midi": 76,
          "time": 43.414644999999325,
          "velocity": 1,
          "duration": 0.12195124999999507
        },
        {
          "name": "E2",
          "midi": 40,
          "time": 43.414644999999325,
          "velocity": 0.7559055118110236,
          "duration": 0.22357729166665763
        },
        {
          "name": "F3",
          "midi": 53,
          "time": 43.414644999999325,
          "velocity": 0.36220472440944884,
          "duration": 0.010162604166666256
        },
        {
          "name": "G4",
          "midi": 67,
          "time": 43.44005151041599,
          "velocity": 0.7795275590551181,
          "duration": 0.010162604166666256
        },
        {
          "name": "A#5",
          "midi": 82,
          "time": 43.45529541666599,
          "velocity": 0.5275590551181102,
          "duration": 0.005081302083333128
        },
        {
          "name": "D2",
          "midi": 38,
          "time": 43.53659624999932,
          "velocity": 0.4251968503937008,
          "duration": 0.010162604166666256
        },
        {
          "name": "G4",
          "midi": 67,
          "time": 43.55692145833265,
          "velocity": 0.3700787401574803,
          "duration": 0.005081302083333128
        },
        {
          "name": "B4",
          "midi": 71,
          "time": 43.55692145833265,
          "velocity": 0.5826771653543307,
          "duration": 0.005081302083333128
        },
        {
          "name": "C4",
          "midi": 60,
          "time": 43.658547499999315,
          "velocity": 0.5590551181102362,
          "duration": 0.6758131770833202
        },
        {
          "name": "E4",
          "midi": 64,
          "time": 43.658547499999315,
          "velocity": 0.5039370078740157,
          "duration": 0.39126026041665796
        },
        {
          "name": "G3",
          "midi": 55,
          "time": 43.658547499999315,
          "velocity": 0.5748031496062992,
          "duration": 0.6504066666666546
        },
        {
          "name": "F3",
          "midi": 53,
          "time": 43.658547499999315,
          "velocity": 0.5511811023622047,
          "duration": 0.010162604166666256
        },
        {
          "name": "G2",
          "midi": 43,
          "time": 43.658547499999315,
          "velocity": 0.6850393700787402,
          "duration": 0.16768296875000033
        },
        {
          "name": "C2",
          "midi": 36,
          "time": 43.658547499999315,
          "velocity": 0.5275590551181102,
          "duration": 0.6351627604166552
        },
        {
          "name": "D2",
          "midi": 38,
          "time": 43.658547499999315,
          "velocity": 0.8503937007874016,
          "duration": 0.010162604166666256
        },
        {
          "name": "E5",
          "midi": 76,
          "time": 43.658547499999315,
          "velocity": 1,
          "duration": 0.44715458333332236
        },
        {
          "name": "E4",
          "midi": 64,
          "time": 43.658547499999315,
          "velocity": 0.5039370078740157,
          "duration": 0.6707318749999871
        },
        {
          "name": "F#2",
          "midi": 42,
          "time": 43.658547499999315,
          "velocity": 0.47244094488188976,
          "duration": 0.010162604166666256
        },
        {
          "name": "C4",
          "midi": 60,
          "time": 43.658547499999315,
          "velocity": 0.5590551181102362,
          "duration": 0.7977644270833153
        },
        {
          "name": "E4",
          "midi": 64,
          "time": 43.673791406249315,
          "velocity": 0.8740157480314961,
          "duration": 0.6554879687499877
        },
        {
          "name": "G4",
          "midi": 67,
          "time": 43.67887270833265,
          "velocity": 0.8740157480314961,
          "duration": 0.22865859374999786
        },
        {
          "name": "C5",
          "midi": 72,
          "time": 43.689035312499314,
          "velocity": 0.8740157480314961,
          "duration": 0.2184959895833316
        },
        {
          "name": "D#2",
          "midi": 39,
          "time": 43.78049874999932,
          "velocity": 0.47244094488188976,
          "duration": 0.010162604166666256
        },
        {
          "name": "D#2",
          "midi": 39,
          "time": 43.90244999999931,
          "velocity": 0.8740157480314961,
          "duration": 0.010162604166666256
        },
        {
          "name": "C2",
          "midi": 36,
          "time": 43.90244999999931,
          "velocity": 0.6692913385826772,
          "duration": 0.40650416666665734
        },
        {
          "name": "F3",
          "midi": 53,
          "time": 43.90244999999931,
          "velocity": 0.2992125984251969,
          "duration": 0.010162604166666256
        },
        {
          "name": "D2",
          "midi": 38,
          "time": 44.02440124999931,
          "velocity": 1,
          "duration": 0.010162604166666256
        },
        {
          "name": "B5",
          "midi": 83,
          "time": 44.034563854165974,
          "velocity": 0.3543307086614173,
          "duration": 0.005081302083333128
        },
        {
          "name": "F#5",
          "midi": 78,
          "time": 44.03964515624931,
          "velocity": 0.3779527559055118,
          "duration": 0.005081302083333128
        },
        {
          "name": "E4",
          "midi": 64,
          "time": 44.04472645833264,
          "velocity": 0.5669291338582677,
          "duration": 0.4369919791666561
        },
        {
          "name": "E4",
          "midi": 64,
          "time": 44.14127119791597,
          "velocity": 0.8740157480314961,
          "duration": 0.3404472395833267
        },
        {
          "name": "F3",
          "midi": 53,
          "time": 44.1463524999993,
          "velocity": 0.5196850393700787,
          "duration": 0.010162604166666256
        },
        {
          "name": "G4",
          "midi": 67,
          "time": 44.1463524999993,
          "velocity": 0.8740157480314961,
          "duration": 0.33536593749999355
        },
        {
          "name": "F#2",
          "midi": 42,
          "time": 44.1463524999993,
          "velocity": 0.47244094488188976,
          "duration": 0.010162604166666256
        },
        {
          "name": "D2",
          "midi": 38,
          "time": 44.1463524999993,
          "velocity": 0.9212598425196851,
          "duration": 0.010162604166666256
        },
        {
          "name": "C5",
          "midi": 72,
          "time": 44.15651510416597,
          "velocity": 0.8740157480314961,
          "duration": 0.09146343750000341
        },
        {
          "name": "C5",
          "midi": 72,
          "time": 44.268303749999305,
          "velocity": 0.8740157480314961,
          "duration": 0.11178864583332881
        },
        {
          "name": "D2",
          "midi": 38,
          "time": 44.268303749999305,
          "velocity": 1,
          "duration": 0.010162604166666256
        },
        {
          "name": "G3",
          "midi": 55,
          "time": 44.3902549999993,
          "velocity": 0.49606299212598426,
          "duration": 0.060975624999997535
        },
        {
          "name": "C4",
          "midi": 60,
          "time": 44.3902549999993,
          "velocity": 0.4881889763779528,
          "duration": 0.06605692708333066
        },
        {
          "name": "C2",
          "midi": 36,
          "time": 44.3902549999993,
          "velocity": 0.48031496062992124,
          "duration": 0.08130083333333005
        },
        {
          "name": "E4",
          "midi": 64,
          "time": 44.3902549999993,
          "velocity": 0.5748031496062992,
          "duration": 0.20833338541665825
        },
        {
          "name": "D#2",
          "midi": 39,
          "time": 44.3902549999993,
          "velocity": 1,
          "duration": 0.010162604166666256
        },
        {
          "name": "F3",
          "midi": 53,
          "time": 44.3902549999993,
          "velocity": 0.3937007874015748,
          "duration": 0.010162604166666256
        },
        {
          "name": "C5",
          "midi": 72,
          "time": 44.3902549999993,
          "velocity": 0.8740157480314961,
          "duration": 0.22357729166665763
        },
        {
          "name": "C4",
          "midi": 60,
          "time": 44.3902549999993,
          "velocity": 0.4881889763779528,
          "duration": 0.3607724479166521
        },
        {
          "name": "E4",
          "midi": 64,
          "time": 44.3902549999993,
          "velocity": 0.5748031496062992,
          "duration": 0.3048781249999877
        },
        {
          "name": "E2",
          "midi": 40,
          "time": 44.3902549999993,
          "velocity": 0.7086614173228346,
          "duration": 0.20833338541665825
        },
        {
          "name": "F3",
          "midi": 53,
          "time": 44.512206249999295,
          "velocity": 0.3937007874015748,
          "duration": 0.010162604166666256
        },
        {
          "name": "D#2",
          "midi": 39,
          "time": 44.512206249999295,
          "velocity": 0.7086614173228346,
          "duration": 0.010162604166666256
        },
        {
          "name": "G4",
          "midi": 67,
          "time": 44.51728755208263,
          "velocity": 0.7795275590551181,
          "duration": 0.0914634374999963
        },
        {
          "name": "E4",
          "midi": 64,
          "time": 44.62907619791596,
          "velocity": 0.8740157480314961,
          "duration": 0.15243906249999384
        },
        {
          "name": "F3",
          "midi": 53,
          "time": 44.63415749999929,
          "velocity": 0.5196850393700787,
          "duration": 0.010162604166666256
        },
        {
          "name": "F#2",
          "midi": 42,
          "time": 44.63415749999929,
          "velocity": 0.47244094488188976,
          "duration": 0.010162604166666256
        },
        {
          "name": "G4",
          "midi": 67,
          "time": 44.63415749999929,
          "velocity": 0.7795275590551181,
          "duration": 0.060975624999997535
        },
        {
          "name": "D2",
          "midi": 38,
          "time": 44.63415749999929,
          "velocity": 0.8503937007874016,
          "duration": 0.010162604166666256
        },
        {
          "name": "G2",
          "midi": 43,
          "time": 44.63415749999929,
          "velocity": 0.6771653543307087,
          "duration": 0.20833338541665825
        },
        {
          "name": "C5",
          "midi": 72,
          "time": 44.644320104165956,
          "velocity": 0.7795275590551181,
          "duration": 0.0914634374999963
        },
        {
          "name": "D2",
          "midi": 38,
          "time": 44.756108749999285,
          "velocity": 1,
          "duration": 0.010162604166666256
        },
        {
          "name": "E4",
          "midi": 64,
          "time": 44.87805999999928,
          "velocity": 0.5275590551181102,
          "duration": 0.1626016666666601
        },
        {
          "name": "F3",
          "midi": 53,
          "time": 44.87805999999928,
          "velocity": 0.5511811023622047,
          "duration": 0.010162604166666256
        },
        {
          "name": "E4",
          "midi": 64,
          "time": 44.87805999999928,
          "velocity": 0.5275590551181102,
          "duration": 0.1626016666666601
        },
        {
          "name": "D4",
          "midi": 62,
          "time": 44.87805999999928,
          "velocity": 0.6456692913385826,
          "duration": 1.8699191666666124
        },
        {
          "name": "B3",
          "midi": 59,
          "time": 44.87805999999928,
          "velocity": 0.5748031496062992,
          "duration": 0.15243906249999384
        },
        {
          "name": "D2",
          "midi": 38,
          "time": 44.87805999999928,
          "velocity": 1,
          "duration": 0.010162604166666256
        },
        {
          "name": "E2",
          "midi": 40,
          "time": 44.87805999999928,
          "velocity": 0.6850393700787402,
          "duration": 0.16768296874999322
        },
        {
          "name": "F5",
          "midi": 77,
          "time": 44.87805999999928,
          "velocity": 1,
          "duration": 0.24390249999999014
        },
        {
          "name": "G#3",
          "midi": 56,
          "time": 44.87805999999928,
          "velocity": 0.49606299212598426,
          "duration": 0.15243906249999384
        },
        {
          "name": "E2",
          "midi": 40,
          "time": 44.87805999999928,
          "velocity": 0.5433070866141733,
          "duration": 0.4522358854166555
        },
        {
          "name": "C#5",
          "midi": 73,
          "time": 44.88822260416595,
          "velocity": 0.5984251968503937,
          "duration": 0.005081302083333128
        },
        {
          "name": "F4",
          "midi": 65,
          "time": 44.89838520833261,
          "velocity": 0.7874015748031497,
          "duration": 1.8699191666666124
        },
        {
          "name": "D2",
          "midi": 38,
          "time": 45.000011249999275,
          "velocity": 1,
          "duration": 0.010162604166666256
        },
        {
          "name": "C#5",
          "midi": 73,
          "time": 45.01017385416594,
          "velocity": 0.7244094488188977,
          "duration": 0.010162604166666256
        },
        {
          "name": "G#4",
          "midi": 68,
          "time": 45.015255156249275,
          "velocity": 0.41732283464566927,
          "duration": 0.005081302083333128
        },
        {
          "name": "D2",
          "midi": 38,
          "time": 45.12196249999927,
          "velocity": 0.9212598425196851,
          "duration": 0.010162604166666256
        },
        {
          "name": "F3",
          "midi": 53,
          "time": 45.12196249999927,
          "velocity": 0.5905511811023622,
          "duration": 0.010162604166666256
        },
        {
          "name": "E5",
          "midi": 76,
          "time": 45.12196249999927,
          "velocity": 0.9133858267716536,
          "duration": 0.22865859374999786
        },
        {
          "name": "F#2",
          "midi": 42,
          "time": 45.12196249999927,
          "velocity": 0.47244094488188976,
          "duration": 0.010162604166666256
        },
        {
          "name": "E4",
          "midi": 64,
          "time": 45.13212510416594,
          "velocity": 0.7086614173228346,
          "duration": 0.1270325520833353
        },
        {
          "name": "G#4",
          "midi": 68,
          "time": 45.13720640624927,
          "velocity": 0.8740157480314961,
          "duration": 0.22357729166666473
        },
        {
          "name": "D5",
          "midi": 74,
          "time": 45.147369010415936,
          "velocity": 0.8740157480314961,
          "duration": 0.20325208333333222
        },
        {
          "name": "D#2",
          "midi": 39,
          "time": 45.24391374999927,
          "velocity": 0.4330708661417323,
          "duration": 0.010162604166666256
        },
        {
          "name": "E4",
          "midi": 64,
          "time": 45.27440156249927,
          "velocity": 0.6220472440944882,
          "duration": 0.10670734374999569
        },
        {
          "name": "D#2",
          "midi": 39,
          "time": 45.36586499999927,
          "velocity": 1,
          "duration": 0.010162604166666256
        },
        {
          "name": "G#2",
          "midi": 44,
          "time": 45.36586499999927,
          "velocity": 0.8110236220472441,
          "duration": 0.20325208333332512
        },
        {
          "name": "D5",
          "midi": 74,
          "time": 45.36586499999927,
          "velocity": 0.8346456692913385,
          "duration": 0.040650416666665024
        },
        {
          "name": "F3",
          "midi": 53,
          "time": 45.36586499999927,
          "velocity": 0.3779527559055118,
          "duration": 0.010162604166666256
        },
        {
          "name": "G#4",
          "midi": 68,
          "time": 45.3861902083326,
          "velocity": 0.7559055118110236,
          "duration": 0.010162604166666256
        },
        {
          "name": "D5",
          "midi": 74,
          "time": 45.396352812499266,
          "velocity": 0.8740157480314961,
          "duration": 0.11686994791666194
        },
        {
          "name": "F3",
          "midi": 53,
          "time": 45.48781624999926,
          "velocity": 0.14960629921259844,
          "duration": 0.010162604166666256
        },
        {
          "name": "D2",
          "midi": 38,
          "time": 45.48781624999926,
          "velocity": 0.4251968503937008,
          "duration": 0.010162604166666256
        },
        {
          "name": "D5",
          "midi": 74,
          "time": 45.508141458332595,
          "velocity": 0.5669291338582677,
          "duration": 0.035569114583331896
        },
        {
          "name": "E2",
          "midi": 40,
          "time": 45.60976749999926,
          "velocity": 0.5275590551181102,
          "duration": 0.6504066666666546
        },
        {
          "name": "B3",
          "midi": 59,
          "time": 45.60976749999926,
          "velocity": 0.5590551181102362,
          "duration": 0.6758131770833202
        },
        {
          "name": "F#2",
          "midi": 42,
          "time": 45.60976749999926,
          "velocity": 0.47244094488188976,
          "duration": 0.010162604166666256
        },
        {
          "name": "G#3",
          "midi": 56,
          "time": 45.60976749999926,
          "velocity": 0.5748031496062992,
          "duration": 0.6504066666666546
        },
        {
          "name": "E4",
          "midi": 64,
          "time": 45.60976749999926,
          "velocity": 0.5039370078740157,
          "duration": 0.27947161458332914
        },
        {
          "name": "D2",
          "midi": 38,
          "time": 45.60976749999926,
          "velocity": 0.8503937007874016,
          "duration": 0.010162604166666256
        },
        {
          "name": "C5",
          "midi": 72,
          "time": 45.60976749999926,
          "velocity": 0.6771653543307087,
          "duration": 0.233739895833331
        },
        {
          "name": "E4",
          "midi": 64,
          "time": 45.60976749999926,
          "velocity": 0.5039370078740157,
          "duration": 0.6707318749999871
        },
        {
          "name": "F3",
          "midi": 53,
          "time": 45.60976749999926,
          "velocity": 0.3937007874015748,
          "duration": 0.010162604166666256
        },
        {
          "name": "B2",
          "midi": 47,
          "time": 45.60976749999926,
          "velocity": 0.6220472440944882,
          "duration": 0.23882119791666412
        },
        {
          "name": "G#4",
          "midi": 68,
          "time": 45.63009270833259,
          "velocity": 0.8740157480314961,
          "duration": 0.1270325520833353
        },
        {
          "name": "D5",
          "midi": 74,
          "time": 45.63517401041592,
          "velocity": 0.8740157480314961,
          "duration": 0.09146343750000341
        },
        {
          "name": "D#2",
          "midi": 39,
          "time": 45.73171874999926,
          "velocity": 0.4330708661417323,
          "duration": 0.010162604166666256
        },
        {
          "name": "D5",
          "midi": 74,
          "time": 45.75204395833259,
          "velocity": 0.8740157480314961,
          "duration": 0.13719515624999445
        },
        {
          "name": "G#4",
          "midi": 68,
          "time": 45.76220656249926,
          "velocity": 0.8740157480314961,
          "duration": 0.09654473958332943
        },
        {
          "name": "E4",
          "midi": 64,
          "time": 45.76728786458259,
          "velocity": 0.3937007874015748,
          "duration": 0.513211510416653
        },
        {
          "name": "D#2",
          "midi": 39,
          "time": 45.853669999999255,
          "velocity": 0.8740157480314961,
          "duration": 0.010162604166666256
        },
        {
          "name": "E2",
          "midi": 40,
          "time": 45.853669999999255,
          "velocity": 0.7559055118110236,
          "duration": 0.472561093749988
        },
        {
          "name": "B4",
          "midi": 71,
          "time": 45.853669999999255,
          "velocity": 0.889763779527559,
          "duration": 0.3455285416666598
        },
        {
          "name": "F3",
          "midi": 53,
          "time": 45.853669999999255,
          "velocity": 0.4566929133858268,
          "duration": 0.010162604166666256
        },
        {
          "name": "G#4",
          "midi": 68,
          "time": 45.87399520833259,
          "velocity": 0.6850393700787402,
          "duration": 0.005081302083333128
        },
        {
          "name": "D2",
          "midi": 38,
          "time": 45.97562124999925,
          "velocity": 1,
          "duration": 0.010162604166666256
        },
        {
          "name": "G#4",
          "midi": 68,
          "time": 45.99594645833258,
          "velocity": 0.33070866141732286,
          "duration": 0.005081302083333128
        },
        {
          "name": "F3",
          "midi": 53,
          "time": 46.09757249999925,
          "velocity": 0.5669291338582677,
          "duration": 0.010162604166666256
        },
        {
          "name": "D2",
          "midi": 38,
          "time": 46.09757249999925,
          "velocity": 1,
          "duration": 0.010162604166666256
        },
        {
          "name": "F#2",
          "midi": 42,
          "time": 46.09757249999925,
          "velocity": 0.47244094488188976,
          "duration": 0.010162604166666256
        },
        {
          "name": "E4",
          "midi": 64,
          "time": 46.10773510416592,
          "velocity": 0.8346456692913385,
          "duration": 0.3252033333333202
        },
        {
          "name": "G#4",
          "midi": 68,
          "time": 46.11281640624925,
          "velocity": 0.8740157480314961,
          "duration": 0.11178864583332881
        },
        {
          "name": "D5",
          "midi": 74,
          "time": 46.117897708332585,
          "velocity": 0.8740157480314961,
          "duration": 0.0914634374999963
        },
        {
          "name": "D2",
          "midi": 38,
          "time": 46.21952374999925,
          "velocity": 1,
          "duration": 0.010162604166666256
        },
        {
          "name": "B4",
          "midi": 71,
          "time": 46.21952374999925,
          "velocity": 1,
          "duration": 0.040650416666665024
        },
        {
          "name": "D5",
          "midi": 74,
          "time": 46.22968635416591,
          "velocity": 0.8740157480314961,
          "duration": 0.4522358854166484
        },
        {
          "name": "G#4",
          "midi": 68,
          "time": 46.24493026041591,
          "velocity": 0.8740157480314961,
          "duration": 0.21341468749999137
        },
        {
          "name": "C5",
          "midi": 72,
          "time": 46.26017416666591,
          "velocity": 1,
          "duration": 0.24390249999999014
        },
        {
          "name": "G#2",
          "midi": 44,
          "time": 46.34147499999924,
          "velocity": 0.6377952755905512,
          "duration": 0.19308947916665886
        },
        {
          "name": "D2",
          "midi": 38,
          "time": 46.34147499999924,
          "velocity": 1,
          "duration": 0.010162604166666256
        },
        {
          "name": "B3",
          "midi": 59,
          "time": 46.34147499999924,
          "velocity": 0.4881889763779528,
          "duration": 0.06605692708333066
        },
        {
          "name": "E4",
          "midi": 64,
          "time": 46.34147499999924,
          "velocity": 0.5748031496062992,
          "duration": 0.0914634374999963
        },
        {
          "name": "E2",
          "midi": 40,
          "time": 46.34147499999924,
          "velocity": 0.48031496062992124,
          "duration": 0.08130083333333005
        },
        {
          "name": "E4",
          "midi": 64,
          "time": 46.34147499999924,
          "velocity": 0.5748031496062992,
          "duration": 0.3048781249999877
        },
        {
          "name": "F3",
          "midi": 53,
          "time": 46.34147499999924,
          "velocity": 0.3779527559055118,
          "duration": 0.010162604166666256
        },
        {
          "name": "G#3",
          "midi": 56,
          "time": 46.34147499999924,
          "velocity": 0.49606299212598426,
          "duration": 0.060975624999997535
        },
        {
          "name": "D2",
          "midi": 38,
          "time": 46.46342624999924,
          "velocity": 0.8110236220472441,
          "duration": 0.010162604166666256
        },
        {
          "name": "F3",
          "midi": 53,
          "time": 46.46342624999924,
          "velocity": 0.3937007874015748,
          "duration": 0.010162604166666256
        },
        {
          "name": "G#4",
          "midi": 68,
          "time": 46.48375145833257,
          "velocity": 0.7952755905511811,
          "duration": 0.0914634374999963
        },
        {
          "name": "D5",
          "midi": 74,
          "time": 46.58537749999923,
          "velocity": 0.9763779527559056,
          "duration": 0.23373989583332389
        },
        {
          "name": "B2",
          "midi": 47,
          "time": 46.58537749999923,
          "velocity": 0.6377952755905512,
          "duration": 0.1829268749999926
        },
        {
          "name": "F#2",
          "midi": 42,
          "time": 46.58537749999923,
          "velocity": 0.47244094488188976,
          "duration": 0.010162604166666256
        },
        {
          "name": "F3",
          "midi": 53,
          "time": 46.58537749999923,
          "velocity": 0.47244094488188976,
          "duration": 0.010162604166666256
        },
        {
          "name": "D#2",
          "midi": 39,
          "time": 46.58537749999923,
          "velocity": 0.49606299212598426,
          "duration": 0.010162604166666256
        },
        {
          "name": "G#4",
          "midi": 68,
          "time": 46.5955401041659,
          "velocity": 0.8740157480314961,
          "duration": 0.060975624999997535
        },
        {
          "name": "D#2",
          "midi": 39,
          "time": 46.70732874999923,
          "velocity": 0.7716535433070866,
          "duration": 0.010162604166666256
        },
        {
          "name": "A2",
          "midi": 45,
          "time": 46.82927999999922,
          "velocity": 0.5433070866141733,
          "duration": 0.16768296874999322
        },
        {
          "name": "A3",
          "midi": 57,
          "time": 46.82927999999922,
          "velocity": 0.49606299212598426,
          "duration": 0.15243906249999384
        },
        {
          "name": "F3",
          "midi": 53,
          "time": 46.82927999999922,
          "velocity": 0.4566929133858268,
          "duration": 0.010162604166666256
        },
        {
          "name": "E4",
          "midi": 64,
          "time": 46.82927999999922,
          "velocity": 0.5275590551181102,
          "duration": 0.1626016666666601
        },
        {
          "name": "C4",
          "midi": 60,
          "time": 46.82927999999922,
          "velocity": 0.5748031496062992,
          "duration": 0.15243906249999384
        },
        {
          "name": "D2",
          "midi": 38,
          "time": 46.82927999999922,
          "velocity": 1,
          "duration": 0.010162604166666256
        },
        {
          "name": "E4",
          "midi": 64,
          "time": 46.82927999999922,
          "velocity": 0.5275590551181102,
          "duration": 0.1626016666666601
        },
        {
          "name": "A2",
          "midi": 45,
          "time": 46.82927999999922,
          "velocity": 0.6377952755905512,
          "duration": 0.46239848958332175
        },
        {
          "name": "C4",
          "midi": 60,
          "time": 46.82927999999922,
          "velocity": 0.7165354330708661,
          "duration": 0.15243906249999384
        },
        {
          "name": "C4",
          "midi": 60,
          "time": 46.82927999999922,
          "velocity": 0.5748031496062992,
          "duration": 0.49796760416665364
        },
        {
          "name": "E5",
          "midi": 76,
          "time": 46.82927999999922,
          "velocity": 1,
          "duration": 0.665650572916654
        },
        {
          "name": "E4",
          "midi": 64,
          "time": 46.849605208332555,
          "velocity": 0.6456692913385826,
          "duration": 0.35569114583332606
        },
        {
          "name": "D2",
          "midi": 38,
          "time": 46.95123124999922,
          "velocity": 1,
          "duration": 0.010162604166666256
        },
        {
          "name": "B4",
          "midi": 71,
          "time": 46.96647515624922,
          "velocity": 0.5039370078740157,
          "duration": 0.005081302083333128
        },
        {
          "name": "E4",
          "midi": 64,
          "time": 47.07318249999921,
          "velocity": 0.6850393700787402,
          "duration": 0.233739895833331
        },
        {
          "name": "D2",
          "midi": 38,
          "time": 47.07318249999921,
          "velocity": 0.9212598425196851,
          "duration": 0.010162604166666256
        },
        {
          "name": "F3",
          "midi": 53,
          "time": 47.07318249999921,
          "velocity": 0.5511811023622047,
          "duration": 0.010162604166666256
        },
        {
          "name": "F#2",
          "midi": 42,
          "time": 47.07318249999921,
          "velocity": 0.47244094488188976,
          "duration": 0.010162604166666256
        },
        {
          "name": "C5",
          "midi": 72,
          "time": 47.078263802082546,
          "velocity": 0.8740157480314961,
          "duration": 0.11178864583333592
        },
        {
          "name": "D#2",
          "midi": 39,
          "time": 47.195133749999215,
          "velocity": 0.4330708661417323,
          "duration": 0.010162604166666256
        },
        {
          "name": "C5",
          "midi": 72,
          "time": 47.20529635416588,
          "velocity": 0.8740157480314961,
          "duration": 0.1270325520833282
        },
        {
          "name": "E4",
          "midi": 64,
          "time": 47.210377656249214,
          "velocity": 0.8740157480314961,
          "duration": 0.13211385416666133
        },
        {
          "name": "C4",
          "midi": 60,
          "time": 47.21545895833255,
          "velocity": 0.4645669291338583,
          "duration": 0.589431041666657
        },
        {
          "name": "C2",
          "midi": 36,
          "time": 47.31708499999921,
          "velocity": 0.7244094488188977,
          "duration": 0.19308947916666597
        },
        {
          "name": "D#2",
          "midi": 39,
          "time": 47.31708499999921,
          "velocity": 0.7874015748031497,
          "duration": 0.010162604166666256
        },
        {
          "name": "E4",
          "midi": 64,
          "time": 47.33232890624921,
          "velocity": 0.3937007874015748,
          "duration": 0.35569114583333317
        },
        {
          "name": "C5",
          "midi": 72,
          "time": 47.33741020833254,
          "velocity": 0.8740157480314961,
          "duration": 0.010162604166666256
        },
        {
          "name": "D2",
          "midi": 38,
          "time": 47.43903624999921,
          "velocity": 0.4251968503937008,
          "duration": 0.010162604166666256
        },
        {
          "name": "F3",
          "midi": 53,
          "time": 47.43903624999921,
          "velocity": 0.41732283464566927,
          "duration": 0.010162604166666256
        },
        {
          "name": "F#2",
          "midi": 42,
          "time": 47.56098749999921,
          "velocity": 0.47244094488188976,
          "duration": 0.010162604166666256
        },
        {
          "name": "A2",
          "midi": 45,
          "time": 47.56098749999921,
          "velocity": 0.5275590551181102,
          "duration": 0.6504066666666688
        },
        {
          "name": "E4",
          "midi": 64,
          "time": 47.56098749999921,
          "velocity": 0.5039370078740157,
          "duration": 0.24390249999999725
        },
        {
          "name": "F3",
          "midi": 53,
          "time": 47.56098749999921,
          "velocity": 0.4881889763779528,
          "duration": 0.010162604166666256
        },
        {
          "name": "A3",
          "midi": 57,
          "time": 47.56098749999921,
          "velocity": 0.5748031496062992,
          "duration": 0.6504066666666688
        },
        {
          "name": "E4",
          "midi": 64,
          "time": 47.56098749999921,
          "velocity": 0.5039370078740157,
          "duration": 0.39126026041666506
        },
        {
          "name": "E2",
          "midi": 40,
          "time": 47.56098749999921,
          "velocity": 0.6692913385826772,
          "duration": 0.18800817708333284
        },
        {
          "name": "C4",
          "midi": 60,
          "time": 47.56098749999921,
          "velocity": 0.5590551181102362,
          "duration": 0.6758131770833344
        },
        {
          "name": "D2",
          "midi": 38,
          "time": 47.56098749999921,
          "velocity": 0.8503937007874016,
          "duration": 0.010162604166666256
        },
        {
          "name": "C4",
          "midi": 60,
          "time": 47.56098749999921,
          "velocity": 0.5590551181102362,
          "duration": 0.6758131770833344
        },
        {
          "name": "E4",
          "midi": 64,
          "time": 47.56606880208254,
          "velocity": 0.7244094488188977,
          "duration": 0.6046749479166706
        },
        {
          "name": "C5",
          "midi": 72,
          "time": 47.57623140624921,
          "velocity": 0.8740157480314961,
          "duration": 0.10670734375000279
        },
        {
          "name": "D2",
          "midi": 38,
          "time": 47.68293874999921,
          "velocity": 1,
          "duration": 0.010162604166666256
        },
        {
          "name": "C5",
          "midi": 72,
          "time": 47.70326395833254,
          "velocity": 0.8740157480314961,
          "duration": 0.11178864583332881
        },
        {
          "name": "E4",
          "midi": 64,
          "time": 47.708345260415875,
          "velocity": 0.8740157480314961,
          "duration": 0.5233741145833335
        },
        {
          "name": "C4",
          "midi": 60,
          "time": 47.71342656249921,
          "velocity": 0.3858267716535433,
          "duration": 0.6453253645833286
        },
        {
          "name": "A1",
          "midi": 33,
          "time": 47.804889999999205,
          "velocity": 0.7244094488188977,
          "duration": 0.4369919791666703
        },
        {
          "name": "D2",
          "midi": 38,
          "time": 47.804889999999205,
          "velocity": 1,
          "duration": 0.010162604166666256
        },
        {
          "name": "F3",
          "midi": 53,
          "time": 47.804889999999205,
          "velocity": 0.47244094488188976,
          "duration": 0.010162604166666256
        },
        {
          "name": "C5",
          "midi": 72,
          "time": 47.820133906249204,
          "velocity": 0.8740157480314961,
          "duration": 0.010162604166666256
        },
        {
          "name": "D2",
          "midi": 38,
          "time": 47.92684124999921,
          "velocity": 1,
          "duration": 0.010162604166666256
        },
        {
          "name": "E4",
          "midi": 64,
          "time": 47.942085156249206,
          "velocity": 0.33070866141732286,
          "duration": 0.2896342187500025
        },
        {
          "name": "F3",
          "midi": 53,
          "time": 48.04879249999921,
          "velocity": 0.5669291338582677,
          "duration": 0.010162604166666256
        },
        {
          "name": "F#2",
          "midi": 42,
          "time": 48.04879249999921,
          "velocity": 0.47244094488188976,
          "duration": 0.010162604166666256
        },
        {
          "name": "D#2",
          "midi": 39,
          "time": 48.04879249999921,
          "velocity": 0.5433070866141733,
          "duration": 0.010162604166666256
        },
        {
          "name": "E4",
          "midi": 64,
          "time": 48.05387380208254,
          "velocity": 0.8740157480314961,
          "duration": 0.3302846354166604
        },
        {
          "name": "C5",
          "midi": 72,
          "time": 48.058955104165875,
          "velocity": 0.8740157480314961,
          "duration": 0.11178864583333592
        },
        {
          "name": "D#2",
          "midi": 39,
          "time": 48.17074374999921,
          "velocity": 0.5984251968503937,
          "duration": 0.010162604166666256
        },
        {
          "name": "C5",
          "midi": 72,
          "time": 48.18090635416588,
          "velocity": 0.8740157480314961,
          "duration": 0.35060984374998583
        },
        {
          "name": "E4",
          "midi": 64,
          "time": 48.18598765624921,
          "velocity": 0.7086614173228346,
          "duration": 0.198170781249992
        },
        {
          "name": "C2",
          "midi": 36,
          "time": 48.292694999999206,
          "velocity": 0.6377952755905512,
          "duration": 0.21341468749999137
        },
        {
          "name": "A3",
          "midi": 57,
          "time": 48.292694999999206,
          "velocity": 0.49606299212598426,
          "duration": 0.060975624999997535
        },
        {
          "name": "A2",
          "midi": 45,
          "time": 48.292694999999206,
          "velocity": 0.48031496062992124,
          "duration": 0.08130083333333005
        },
        {
          "name": "C4",
          "midi": 60,
          "time": 48.292694999999206,
          "velocity": 0.4881889763779528,
          "duration": 0.06605692708333066
        },
        {
          "name": "D#2",
          "midi": 39,
          "time": 48.292694999999206,
          "velocity": 1,
          "duration": 0.010162604166666256
        },
        {
          "name": "F3",
          "midi": 53,
          "time": 48.292694999999206,
          "velocity": 0.4881889763779528,
          "duration": 0.010162604166666256
        },
        {
          "name": "E4",
          "midi": 64,
          "time": 48.292694999999206,
          "velocity": 0.5748031496062992,
          "duration": 0.11686994791666194
        },
        {
          "name": "C4",
          "midi": 60,
          "time": 48.292694999999206,
          "velocity": 0.4881889763779528,
          "duration": 0.3607724479166521
        },
        {
          "name": "E4",
          "midi": 64,
          "time": 48.292694999999206,
          "velocity": 0.5748031496062992,
          "duration": 0.22865859374999076
        },
        {
          "name": "D#2",
          "midi": 39,
          "time": 48.4146462499992,
          "velocity": 0.25196850393700787,
          "duration": 0.010162604166666256
        },
        {
          "name": "F3",
          "midi": 53,
          "time": 48.4146462499992,
          "velocity": 0.4566929133858268,
          "duration": 0.010162604166666256
        },
        {
          "name": "E4",
          "midi": 64,
          "time": 48.419727552082534,
          "velocity": 0.6692913385826772,
          "duration": 0.1829268749999926
        },
        {
          "name": "E5",
          "midi": 76,
          "time": 48.536597499999196,
          "velocity": 1,
          "duration": 0.23373989583332389
        },
        {
          "name": "D#2",
          "midi": 39,
          "time": 48.536597499999196,
          "velocity": 0.49606299212598426,
          "duration": 0.010162604166666256
        },
        {
          "name": "E4",
          "midi": 64,
          "time": 48.536597499999196,
          "velocity": 0.8740157480314961,
          "duration": 0.1473577604166607
        },
        {
          "name": "E2",
          "midi": 40,
          "time": 48.536597499999196,
          "velocity": 0.6377952755905512,
          "duration": 0.09654473958332943
        },
        {
          "name": "F3",
          "midi": 53,
          "time": 48.536597499999196,
          "velocity": 0.5196850393700787,
          "duration": 0.010162604166666256
        },
        {
          "name": "F#2",
          "midi": 42,
          "time": 48.536597499999196,
          "velocity": 0.47244094488188976,
          "duration": 0.010162604166666256
        },
        {
          "name": "C5",
          "midi": 72,
          "time": 48.54167880208253,
          "velocity": 0.8740157480314961,
          "duration": 0.0914634374999963
        },
        {
          "name": "D#2",
          "midi": 39,
          "time": 48.65854874999919,
          "velocity": 0.8661417322834646,
          "duration": 0.010162604166666256
        },
        {
          "name": "F3",
          "midi": 53,
          "time": 48.780499999999186,
          "velocity": 0.2992125984251969,
          "duration": 0.010162604166666256
        },
        {
          "name": "D4",
          "midi": 62,
          "time": 48.780499999999186,
          "velocity": 0.7874015748031497,
          "duration": 1.814024843749955
        },
        {
          "name": "E2",
          "midi": 40,
          "time": 48.780499999999186,
          "velocity": 0.5433070866141733,
          "duration": 0.16768296874999322
        },
        {
          "name": "G#3",
          "midi": 56,
          "time": 48.780499999999186,
          "velocity": 0.49606299212598426,
          "duration": 0.15243906249999384
        },
        {
          "name": "D5",
          "midi": 74,
          "time": 48.780499999999186,
          "velocity": 0.8661417322834646,
          "duration": 0.15752036458332697
        },
        {
          "name": "E2",
          "midi": 40,
          "time": 48.780499999999186,
          "velocity": 0.6850393700787402,
          "duration": 0.4522358854166484
        },
        {
          "name": "E4",
          "midi": 64,
          "time": 48.780499999999186,
          "velocity": 0.5275590551181102,
          "duration": 0.1626016666666601
        },
        {
          "name": "D#2",
          "midi": 39,
          "time": 48.780499999999186,
          "velocity": 0.7086614173228346,
          "duration": 0.010162604166666256
        },
        {
          "name": "B3",
          "midi": 59,
          "time": 48.780499999999186,
          "velocity": 0.5748031496062992,
          "duration": 0.15243906249999384
        },
        {
          "name": "E4",
          "midi": 64,
          "time": 48.780499999999186,
          "velocity": 0.5275590551181102,
          "duration": 0.1626016666666601
        },
        {
          "name": "F4",
          "midi": 65,
          "time": 48.80082520833252,
          "velocity": 0.7716535433070866,
          "duration": 1.8191061458332882
        },
        {
          "name": "D2",
          "midi": 38,
          "time": 48.90245124999918,
          "velocity": 1,
          "duration": 0.010162604166666256
        },
        {
          "name": "D5",
          "midi": 74,
          "time": 48.92785776041585,
          "velocity": 0.5039370078740157,
          "duration": 0.08638213541666317
        },
        {
          "name": "C5",
          "midi": 72,
          "time": 49.02440249999918,
          "velocity": 0.8346456692913385,
          "duration": 0.23373989583332389
        },
        {
          "name": "D2",
          "midi": 38,
          "time": 49.02440249999918,
          "velocity": 0.9212598425196851,
          "duration": 0.010162604166666256
        },
        {
          "name": "F3",
          "midi": 53,
          "time": 49.02440249999918,
          "velocity": 0.5511811023622047,
          "duration": 0.010162604166666256
        },
        {
          "name": "F#2",
          "midi": 42,
          "time": 49.02440249999918,
          "velocity": 0.47244094488188976,
          "duration": 0.010162604166666256
        },
        {
          "name": "G#4",
          "midi": 68,
          "time": 49.04472770833251,
          "velocity": 0.8582677165354331,
          "duration": 0.04573171874999815
        },
        {
          "name": "D5",
          "midi": 74,
          "time": 49.04980901041584,
          "velocity": 0.8740157480314961,
          "duration": 0.24390249999999014
        },
        {
          "name": "D2",
          "midi": 38,
          "time": 49.14635374999917,
          "velocity": 1,
          "duration": 0.010162604166666256
        },
        {
          "name": "G#4",
          "midi": 68,
          "time": 49.1819228645825,
          "velocity": 0.7086614173228346,
          "duration": 0.10670734374999569
        },
        {
          "name": "D#2",
          "midi": 39,
          "time": 49.26830499999917,
          "velocity": 0.7086614173228346,
          "duration": 0.010162604166666256
        },
        {
          "name": "B4",
          "midi": 71,
          "time": 49.26830499999917,
          "velocity": 0.5826771653543307,
          "duration": 0.23373989583332389
        },
        {
          "name": "G#2",
          "midi": 44,
          "time": 49.26830499999917,
          "velocity": 0.8110236220472441,
          "duration": 0.20325208333332512
        },
        {
          "name": "F3",
          "midi": 53,
          "time": 49.26830499999917,
          "velocity": 0.4566929133858268,
          "duration": 0.010162604166666256
        },
        {
          "name": "G#4",
          "midi": 68,
          "time": 49.29371151041583,
          "velocity": 0.6771653543307087,
          "duration": 0.010162604166666256
        },
        {
          "name": "D5",
          "midi": 74,
          "time": 49.298792812499165,
          "velocity": 0.8740157480314961,
          "duration": 0.010162604166666256
        },
        {
          "name": "D2",
          "midi": 38,
          "time": 49.39025624999916,
          "velocity": 0.4251968503937008,
          "duration": 0.010162604166666256
        },
        {
          "name": "D5",
          "midi": 74,
          "time": 49.42074406249916,
          "velocity": 0.7401574803149606,
          "duration": 0.005081302083333128
        },
        {
          "name": "E4",
          "midi": 64,
          "time": 49.51220749999916,
          "velocity": 0.5039370078740157,
          "duration": 0.24390249999999725
        },
        {
          "name": "E4",
          "midi": 64,
          "time": 49.51220749999916,
          "velocity": 0.5039370078740157,
          "duration": 0.6707318750000013
        },
        {
          "name": "D2",
          "midi": 38,
          "time": 49.51220749999916,
          "velocity": 0.8503937007874016,
          "duration": 0.010162604166666256
        },
        {
          "name": "G#3",
          "midi": 56,
          "time": 49.51220749999916,
          "velocity": 0.5748031496062992,
          "duration": 0.6504066666666688
        },
        {
          "name": "A4",
          "midi": 69,
          "time": 49.51220749999916,
          "velocity": 0.8582677165354331,
          "duration": 0.233739895833331
        },
        {
          "name": "B3",
          "midi": 59,
          "time": 49.51220749999916,
          "velocity": 0.5590551181102362,
          "duration": 0.6758131770833344
        },
        {
          "name": "E2",
          "midi": 40,
          "time": 49.51220749999916,
          "velocity": 0.5275590551181102,
          "duration": 0.6504066666666688
        },
        {
          "name": "F3",
          "midi": 53,
          "time": 49.51220749999916,
          "velocity": 0.5511811023622047,
          "duration": 0.010162604166666256
        },
        {
          "name": "B2",
          "midi": 47,
          "time": 49.51220749999916,
          "velocity": 0.6220472440944882,
          "duration": 0.23882119791666412
        },
        {
          "name": "F#2",
          "midi": 42,
          "time": 49.51220749999916,
          "velocity": 0.47244094488188976,
          "duration": 0.010162604166666256
        },
        {
          "name": "D5",
          "midi": 74,
          "time": 49.527451406249156,
          "velocity": 0.8740157480314961,
          "duration": 0.11178864583333592
        },
        {
          "name": "D2",
          "midi": 38,
          "time": 49.63415874999916,
          "velocity": 1,
          "duration": 0.010162604166666256
        },
        {
          "name": "D5",
          "midi": 74,
          "time": 49.644321354165825,
          "velocity": 0.8740157480314961,
          "duration": 0.10162604166666256
        },
        {
          "name": "G#4",
          "midi": 68,
          "time": 49.64940265624916,
          "velocity": 0.8740157480314961,
          "duration": 0.10670734374999569
        },
        {
          "name": "E4",
          "midi": 64,
          "time": 49.659565260415825,
          "velocity": 0.48031496062992124,
          "duration": 0.5233741145833335
        },
        {
          "name": "E2",
          "midi": 40,
          "time": 49.756109999999154,
          "velocity": 0.7559055118110236,
          "duration": 0.4725610937500022
        },
        {
          "name": "F3",
          "midi": 53,
          "time": 49.756109999999154,
          "velocity": 0.2992125984251969,
          "duration": 0.010162604166666256
        },
        {
          "name": "D#2",
          "midi": 39,
          "time": 49.756109999999154,
          "velocity": 0.7086614173228346,
          "duration": 0.010162604166666256
        },
        {
          "name": "G#4",
          "midi": 68,
          "time": 49.756109999999154,
          "velocity": 1,
          "duration": 0.37093505208333966
        },
        {
          "name": "D2",
          "midi": 38,
          "time": 49.878061249999156,
          "velocity": 1,
          "duration": 0.010162604166666256
        },
        {
          "name": "D5",
          "midi": 74,
          "time": 49.893305156249156,
          "velocity": 0.7086614173228346,
          "duration": 0.010162604166666256
        },
        {
          "name": "F#2",
          "midi": 42,
          "time": 50.00001249999916,
          "velocity": 0.47244094488188976,
          "duration": 0.010162604166666256
        },
        {
          "name": "F3",
          "midi": 53,
          "time": 50.00001249999916,
          "velocity": 0.5511811023622047,
          "duration": 0.010162604166666256
        },
        {
          "name": "G#4",
          "midi": 68,
          "time": 50.00001249999916,
          "velocity": 0.33070866141732286,
          "duration": 0.233739895833331
        },
        {
          "name": "D2",
          "midi": 38,
          "time": 50.00001249999916,
          "velocity": 0.9212598425196851,
          "duration": 0.010162604166666256
        },
        {
          "name": "D5",
          "midi": 74,
          "time": 50.010175104165825,
          "velocity": 0.8740157480314961,
          "duration": 0.5487806249999849
        },
        {
          "name": "D2",
          "midi": 38,
          "time": 50.12196374999916,
          "velocity": 1,
          "duration": 0.010162604166666256
        },
        {
          "name": "G#4",
          "midi": 68,
          "time": 50.13212635416583,
          "velocity": 0.7086614173228346,
          "duration": 0.1829268749999926
        },
        {
          "name": "D#2",
          "midi": 39,
          "time": 50.243914999999156,
          "velocity": 1,
          "duration": 0.010162604166666256
        },
        {
          "name": "B3",
          "midi": 59,
          "time": 50.243914999999156,
          "velocity": 0.4881889763779528,
          "duration": 0.06605692708333066
        },
        {
          "name": "E2",
          "midi": 40,
          "time": 50.243914999999156,
          "velocity": 0.48031496062992124,
          "duration": 0.08130083333333005
        },
        {
          "name": "G#4",
          "midi": 68,
          "time": 50.243914999999156,
          "velocity": 0.6456692913385826,
          "duration": 0.1270325520833282
        },
        {
          "name": "E4",
          "midi": 64,
          "time": 50.243914999999156,
          "velocity": 0.5748031496062992,
          "duration": 0.0914634374999963
        },
        {
          "name": "G#3",
          "midi": 56,
          "time": 50.243914999999156,
          "velocity": 0.49606299212598426,
          "duration": 0.060975624999997535
        },
        {
          "name": "G#2",
          "midi": 44,
          "time": 50.243914999999156,
          "velocity": 0.6377952755905512,
          "duration": 0.19308947916665886
        },
        {
          "name": "F3",
          "midi": 53,
          "time": 50.243914999999156,
          "velocity": 0.3937007874015748,
          "duration": 0.010162604166666256
        },
        {
          "name": "E4",
          "midi": 64,
          "time": 50.243914999999156,
          "velocity": 0.5748031496062992,
          "duration": 0.0914634374999963
        },
        {
          "name": "F3",
          "midi": 53,
          "time": 50.36586624999915,
          "velocity": 0.36220472440944884,
          "duration": 0.010162604166666256
        },
        {
          "name": "D#2",
          "midi": 39,
          "time": 50.36586624999915,
          "velocity": 0.47244094488188976,
          "duration": 0.010162604166666256
        },
        {
          "name": "G#4",
          "midi": 68,
          "time": 50.38111015624915,
          "velocity": 0.8740157480314961,
          "duration": 0.1626016666666601
        },
        {
          "name": "E4",
          "midi": 64,
          "time": 50.38619145833248,
          "velocity": 0.47244094488188976,
          "duration": 0.15752036458332697
        },
        {
          "name": "F5",
          "midi": 77,
          "time": 50.487817499999146,
          "velocity": 1,
          "duration": 0.23373989583332389
        },
        {
          "name": "B2",
          "midi": 47,
          "time": 50.487817499999146,
          "velocity": 0.6377952755905512,
          "duration": 0.1829268749999926
        },
        {
          "name": "F3",
          "midi": 53,
          "time": 50.487817499999146,
          "velocity": 0.49606299212598426,
          "duration": 0.010162604166666256
        },
        {
          "name": "D#2",
          "midi": 39,
          "time": 50.487817499999146,
          "velocity": 0.49606299212598426,
          "duration": 0.010162604166666256
        },
        {
          "name": "F#2",
          "midi": 42,
          "time": 50.487817499999146,
          "velocity": 0.47244094488188976,
          "duration": 0.010162604166666256
        },
        {
          "name": "D#2",
          "midi": 39,
          "time": 50.60976874999914,
          "velocity": 0.7716535433070866,
          "duration": 0.010162604166666256
        },
        {
          "name": "E4",
          "midi": 64,
          "time": 50.731719999999136,
          "velocity": 0.5275590551181102,
          "duration": 0.1626016666666601
        },
        {
          "name": "C4",
          "midi": 60,
          "time": 50.731719999999136,
          "velocity": 0.7165354330708661,
          "duration": 0.15243906249999384
        },
        {
          "name": "F3",
          "midi": 53,
          "time": 50.731719999999136,
          "velocity": 0.5196850393700787,
          "duration": 0.010162604166666256
        },
        {
          "name": "E5",
          "midi": 76,
          "time": 50.731719999999136,
          "velocity": 0.984251968503937,
          "duration": 0.4878049999999874
        },
        {
          "name": "A2",
          "midi": 45,
          "time": 50.731719999999136,
          "velocity": 0.6377952755905512,
          "duration": 0.16768296874999322
        },
        {
          "name": "E4",
          "midi": 64,
          "time": 50.731719999999136,
          "velocity": 0.5275590551181102,
          "duration": 0.1626016666666601
        },
        {
          "name": "C4",
          "midi": 60,
          "time": 50.731719999999136,
          "velocity": 0.5748031496062992,
          "duration": 0.15243906249999384
        },
        {
          "name": "A2",
          "midi": 45,
          "time": 50.731719999999136,
          "velocity": 0.5433070866141733,
          "duration": 0.46239848958332175
        },
        {
          "name": "D#2",
          "midi": 39,
          "time": 50.731719999999136,
          "velocity": 0.8740157480314961,
          "duration": 0.010162604166666256
        },
        {
          "name": "A3",
          "midi": 57,
          "time": 50.731719999999136,
          "velocity": 0.49606299212598426,
          "duration": 0.15243906249999384
        },
        {
          "name": "C4",
          "midi": 60,
          "time": 50.731719999999136,
          "velocity": 0.5748031496062992,
          "duration": 0.513211510416653
        },
        {
          "name": "C5",
          "midi": 72,
          "time": 50.746963906249135,
          "velocity": 0.6692913385826772,
          "duration": 0.005081302083333128
        },
        {
          "name": "E4",
          "midi": 64,
          "time": 50.75204520833247,
          "velocity": 0.7165354330708661,
          "duration": 0.35060984374999293
        },
        {
          "name": "D2",
          "midi": 38,
          "time": 50.85367124999913,
          "velocity": 1,
          "duration": 0.010162604166666256
        },
        {
          "name": "E4",
          "midi": 64,
          "time": 50.975622499999126,
          "velocity": 0.4251968503937008,
          "duration": 0.23882119791666412
        },
        {
          "name": "F3",
          "midi": 53,
          "time": 50.975622499999126,
          "velocity": 0.4566929133858268,
          "duration": 0.010162604166666256
        },
        {
          "name": "D2",
          "midi": 38,
          "time": 50.975622499999126,
          "velocity": 0.9212598425196851,
          "duration": 0.010162604166666256
        },
        {
          "name": "F#2",
          "midi": 42,
          "time": 50.975622499999126,
          "velocity": 0.47244094488188976,
          "duration": 0.010162604166666256
        },
        {
          "name": "C5",
          "midi": 72,
          "time": 50.98578510416579,
          "velocity": 0.8740157480314961,
          "duration": 0.11178864583333592
        },
        {
          "name": "D2",
          "midi": 38,
          "time": 51.09757374999913,
          "velocity": 1,
          "duration": 0.010162604166666256
        },
        {
          "name": "C5",
          "midi": 72,
          "time": 51.107736354165795,
          "velocity": 0.8740157480314961,
          "duration": 0.11686994791666194
        },
        {
          "name": "E4",
          "midi": 64,
          "time": 51.11281765624913,
          "velocity": 0.8740157480314961,
          "duration": 0.1270325520833282
        },
        {
          "name": "C4",
          "midi": 60,
          "time": 51.11789895833246,
          "velocity": 0.47244094488188976,
          "duration": 0.5741871354166506
        },
        {
          "name": "D#2",
          "midi": 39,
          "time": 51.21952499999912,
          "velocity": 1,
          "duration": 0.010162604166666256
        },
        {
          "name": "C5",
          "midi": 72,
          "time": 51.21952499999912,
          "velocity": 0.9133858267716536,
          "duration": 0.030487812499998768
        },
        {
          "name": "C2",
          "midi": 36,
          "time": 51.21952499999912,
          "velocity": 0.7244094488188977,
          "duration": 0.19308947916666597
        },
        {
          "name": "F3",
          "midi": 53,
          "time": 51.21952499999912,
          "velocity": 0.4881889763779528,
          "duration": 0.010162604166666256
        },
        {
          "name": "E4",
          "midi": 64,
          "time": 51.22968760416579,
          "velocity": 0.5984251968503937,
          "duration": 0.14735776041666782
        },
        {
          "name": "C5",
          "midi": 72,
          "time": 51.239850208332456,
          "velocity": 0.8740157480314961,
          "duration": 0.1626016666666672
        },
        {
          "name": "D2",
          "midi": 38,
          "time": 51.341476249999126,
          "velocity": 0.4251968503937008,
          "duration": 0.010162604166666256
        },
        {
          "name": "E4",
          "midi": 64,
          "time": 51.36688276041579,
          "velocity": 0.33070866141732286,
          "duration": 0.32012203124998706
        },
        {
          "name": "C4",
          "midi": 60,
          "time": 51.46342749999912,
          "velocity": 0.5590551181102362,
          "duration": 0.675813177083306
        },
        {
          "name": "D2",
          "midi": 38,
          "time": 51.46342749999912,
          "velocity": 0.8503937007874016,
          "duration": 0.010162604166666256
        },
        {
          "name": "E4",
          "midi": 64,
          "time": 51.46342749999912,
          "velocity": 0.5039370078740157,
          "duration": 0.4878049999999803
        },
        {
          "name": "F3",
          "midi": 53,
          "time": 51.46342749999912,
          "velocity": 0.4881889763779528,
          "duration": 0.010162604166666256
        },
        {
          "name": "C4",
          "midi": 60,
          "time": 51.46342749999912,
          "velocity": 0.5590551181102362,
          "duration": 0.675813177083306
        },
        {
          "name": "A2",
          "midi": 45,
          "time": 51.46342749999912,
          "velocity": 0.5275590551181102,
          "duration": 0.41158546874998336
        },
        {
          "name": "E4",
          "midi": 64,
          "time": 51.46342749999912,
          "velocity": 0.5039370078740157,
          "duration": 0.6707318749999729
        },
        {
          "name": "C5",
          "midi": 72,
          "time": 51.46342749999912,
          "velocity": 1,
          "duration": 0.15243906249999384
        },
        {
          "name": "F#2",
          "midi": 42,
          "time": 51.46342749999912,
          "velocity": 0.47244094488188976,
          "duration": 0.010162604166666256
        },
        {
          "name": "A3",
          "midi": 57,
          "time": 51.46342749999912,
          "velocity": 0.5748031496062992,
          "duration": 0.6504066666666404
        },
        {
          "name": "E2",
          "midi": 40,
          "time": 51.46342749999912,
          "velocity": 0.6692913385826772,
          "duration": 0.18800817708332573
        },
        {
          "name": "E4",
          "midi": 64,
          "time": 51.48375270833245,
          "velocity": 0.8740157480314961,
          "duration": 0.6504066666666404
        },
        {
          "name": "C5",
          "midi": 72,
          "time": 51.488834010415786,
          "velocity": 0.8740157480314961,
          "duration": 0.22865859374999076
        },
        {
          "name": "D2",
          "midi": 38,
          "time": 51.585378749999116,
          "velocity": 1,
          "duration": 0.010162604166666256
        },
        {
          "name": "C5",
          "midi": 72,
          "time": 51.62602916666578,
          "velocity": 0.8740157480314961,
          "duration": 0.18800817708332573
        },
        {
          "name": "C4",
          "midi": 60,
          "time": 51.631110468749114,
          "velocity": 0.33070866141732286,
          "duration": 0.6300814583333079
        },
        {
          "name": "A2",
          "midi": 45,
          "time": 51.70732999999911,
          "velocity": 0.8110236220472441,
          "duration": 0.40650416666665024
        },
        {
          "name": "F3",
          "midi": 53,
          "time": 51.70732999999911,
          "velocity": 0.36220472440944884,
          "duration": 0.010162604166666256
        },
        {
          "name": "D2",
          "midi": 38,
          "time": 51.70732999999911,
          "velocity": 1,
          "duration": 0.010162604166666256
        },
        {
          "name": "E4",
          "midi": 64,
          "time": 51.72765520833244,
          "velocity": 0.7401574803149606,
          "duration": 0.46747979166664777
        },
        {
          "name": "C5",
          "midi": 72,
          "time": 51.732736510415776,
          "velocity": 0.8740157480314961,
          "duration": 0.2184959895833245
        },
        {
          "name": "D2",
          "midi": 38,
          "time": 51.78863083333244,
          "velocity": 1,
          "duration": 0.030487812499998768
        },
        {
          "name": "F3",
          "midi": 53,
          "time": 51.829281249999106,
          "velocity": 0.36220472440944884,
          "duration": 0.010162604166666256
        },
        {
          "name": "C5",
          "midi": 72,
          "time": 51.84960645833244,
          "velocity": 0.7795275590551181,
          "duration": 0.22357729166665763
        },
        {
          "name": "D2",
          "midi": 38,
          "time": 51.86993166666577,
          "velocity": 1,
          "duration": 0.030487812499998768
        },
        {
          "name": "D2",
          "midi": 38,
          "time": 51.9512324999991,
          "velocity": 1,
          "duration": 0.030487812499998768
        },
        {
          "name": "F3",
          "midi": 53,
          "time": 51.9512324999991,
          "velocity": 0.5196850393700787,
          "duration": 0.010162604166666256
        },
        {
          "name": "E2",
          "midi": 40,
          "time": 51.9512324999991,
          "velocity": 0.7244094488188977,
          "duration": 0.1626016666666601
        },
        {
          "name": "F#2",
          "midi": 42,
          "time": 51.9512324999991,
          "velocity": 0.47244094488188976,
          "duration": 0.010162604166666256
        },
        {
          "name": "E4",
          "midi": 64,
          "time": 51.96139510416577,
          "velocity": 0.7559055118110236,
          "duration": 0.3099594270833208
        },
        {
          "name": "C5",
          "midi": 72,
          "time": 51.9664764062491,
          "velocity": 0.8740157480314961,
          "duration": 0.16768296874999322
        },
        {
          "name": "D2",
          "midi": 38,
          "time": 52.03253333333243,
          "velocity": 1,
          "duration": 0.010162604166666256
        },
        {
          "name": "C5",
          "midi": 72,
          "time": 52.08334635416576,
          "velocity": 0.8740157480314961,
          "duration": 0.10162604166666256
        },
        {
          "name": "D2",
          "midi": 38,
          "time": 52.11383416666576,
          "velocity": 1,
          "duration": 0.030487812499998768
        },
        {
          "name": "C5",
          "midi": 72,
          "time": 52.154484583332426,
          "velocity": 0.8582677165354331,
          "duration": 0.04573171874999815
        },
        {
          "name": "A2",
          "midi": 45,
          "time": 52.19513499999909,
          "velocity": 0.8110236220472441,
          "duration": 0.08130083333333005
        },
        {
          "name": "C4",
          "midi": 60,
          "time": 52.19513499999909,
          "velocity": 0.4881889763779528,
          "duration": 0.06605692708333066
        },
        {
          "name": "E4",
          "midi": 64,
          "time": 52.19513499999909,
          "velocity": 0.5748031496062992,
          "duration": 0.0914634374999963
        },
        {
          "name": "C4",
          "midi": 60,
          "time": 52.19513499999909,
          "velocity": 0.4881889763779528,
          "duration": 0.198170781249992
        },
        {
          "name": "E4",
          "midi": 64,
          "time": 52.19513499999909,
          "velocity": 0.5748031496062992,
          "duration": 0.0914634374999963
        },
        {
          "name": "D#2",
          "midi": 39,
          "time": 52.19513499999909,
          "velocity": 1,
          "duration": 0.010162604166666256
        },
        {
          "name": "A3",
          "midi": 57,
          "time": 52.19513499999909,
          "velocity": 0.49606299212598426,
          "duration": 0.060975624999997535
        },
        {
          "name": "A2",
          "midi": 45,
          "time": 52.19513499999909,
          "velocity": 0.48031496062992124,
          "duration": 0.15752036458332697
        },
        {
          "name": "F3",
          "midi": 53,
          "time": 52.19513499999909,
          "velocity": 0.7559055118110236,
          "duration": 0.010162604166666256
        },
        {
          "name": "E4",
          "midi": 64,
          "time": 52.20529760416576,
          "velocity": 0.8740157480314961,
          "duration": 0.19308947916665886
        },
        {
          "name": "C5",
          "midi": 72,
          "time": 52.21037890624909,
          "velocity": 0.8740157480314961,
          "duration": 0.08638213541666317
        },
        {
          "name": "D2",
          "midi": 38,
          "time": 52.43903749999908,
          "velocity": 0.8503937007874016,
          "duration": 0.010162604166666256
        },
        {
          "name": "F#2",
          "midi": 42,
          "time": 52.43903749999908,
          "velocity": 0.47244094488188976,
          "duration": 0.010162604166666256
        },
        {
          "name": "C5",
          "midi": 72,
          "time": 52.43903749999908,
          "velocity": 0.889763779527559,
          "duration": 0.22357729166667184
        },
        {
          "name": "D2",
          "midi": 38,
          "time": 52.56098874999908,
          "velocity": 1,
          "duration": 0.010162604166666256
        },
        {
          "name": "B4",
          "midi": 71,
          "time": 52.682939999999086,
          "velocity": 0.8031496062992126,
          "duration": 0.04573171874999815
        },
        {
          "name": "F#4",
          "midi": 66,
          "time": 52.70834651041575,
          "velocity": 0.33858267716535434,
          "duration": 0.015243906249999384
        },
        {
          "name": "B4",
          "midi": 71,
          "time": 52.72359041666575,
          "velocity": 0.3543307086614173,
          "duration": 0.09654473958333654
        },
        {
          "name": "F#4",
          "midi": 66,
          "time": 52.92684249999909,
          "velocity": 0.8267716535433071,
          "duration": 0.07621953124999692
        },
        {
          "name": "B4",
          "midi": 71,
          "time": 52.92684249999909,
          "velocity": 0.5196850393700787,
          "duration": 0.08130083333333005
        },
        {
          "name": "D2",
          "midi": 38,
          "time": 52.92684249999909,
          "velocity": 0.9212598425196851,
          "duration": 0.010162604166666256
        },
        {
          "name": "B2",
          "midi": 47,
          "time": 52.92684249999909,
          "velocity": 0.5748031496062992,
          "duration": 0.08638213541666317
        },
        {
          "name": "D#4",
          "midi": 63,
          "time": 52.92684249999909,
          "velocity": 0.5433070866141733,
          "duration": 0.10162604166666256
        },
        {
          "name": "F3",
          "midi": 53,
          "time": 52.92684249999909,
          "velocity": 0.3937007874015748,
          "duration": 0.010162604166666256
        },
        {
          "name": "D#4",
          "midi": 63,
          "time": 52.92684249999909,
          "velocity": 0.5433070866141733,
          "duration": 0.10162604166666256
        },
        {
          "name": "B4",
          "midi": 71,
          "time": 52.92684249999909,
          "velocity": 0.5196850393700787,
          "duration": 0.1270325520833282
        },
        {
          "name": "F#4",
          "midi": 66,
          "time": 52.92684249999909,
          "velocity": 0.5196850393700787,
          "duration": 0.13211385416666133
        },
        {
          "name": "F#4",
          "midi": 66,
          "time": 52.92684249999909,
          "velocity": 0.5196850393700787,
          "duration": 0.13211385416666133
        },
        {
          "name": "B1",
          "midi": 35,
          "time": 52.92684249999909,
          "velocity": 0.84251968503937,
          "duration": 0.08130083333333005
        },
        {
          "name": "B4",
          "midi": 71,
          "time": 52.93192380208242,
          "velocity": 0.8740157480314961,
          "duration": 0.12195124999999507
        },
        {
          "name": "D#4",
          "midi": 63,
          "time": 53.17074499999909,
          "velocity": 0.6614173228346457,
          "duration": 0.15243906250000094
        },
        {
          "name": "F#4",
          "midi": 66,
          "time": 53.17074499999909,
          "velocity": 0.5984251968503937,
          "duration": 0.11686994791666905
        },
        {
          "name": "B2",
          "midi": 47,
          "time": 53.17074499999909,
          "velocity": 0.6850393700787402,
          "duration": 0.1829268749999997
        },
        {
          "name": "D#4",
          "midi": 63,
          "time": 53.17074499999909,
          "velocity": 0.8661417322834646,
          "duration": 0.20325208333333222
        },
        {
          "name": "D#2",
          "midi": 39,
          "time": 53.17074499999909,
          "velocity": 1,
          "duration": 0.010162604166666256
        },
        {
          "name": "B4",
          "midi": 71,
          "time": 53.17074499999909,
          "velocity": 0.5748031496062992,
          "duration": 0.11178864583333592
        },
        {
          "name": "F3",
          "midi": 53,
          "time": 53.17074499999909,
          "velocity": 0.4881889763779528,
          "duration": 0.010162604166666256
        },
        {
          "name": "B1",
          "midi": 35,
          "time": 53.17074499999909,
          "velocity": 0.84251968503937,
          "duration": 0.12195125000000218
        },
        {
          "name": "D#4",
          "midi": 63,
          "time": 53.17074499999909,
          "velocity": 0.6614173228346457,
          "duration": 0.20325208333333222
        },
        {
          "name": "F#4",
          "midi": 66,
          "time": 53.17074499999909,
          "velocity": 0.5984251968503937,
          "duration": 0.19308947916666597
        },
        {
          "name": "B4",
          "midi": 71,
          "time": 53.17074499999909,
          "velocity": 0.5748031496062992,
          "duration": 0.17784557291666658
        },
        {
          "name": "F#4",
          "midi": 66,
          "time": 53.17582630208242,
          "velocity": 0.8740157480314961,
          "duration": 0.18800817708333284
        },
        {
          "name": "B4",
          "midi": 71,
          "time": 53.18090760416575,
          "velocity": 0.8740157480314961,
          "duration": 0.16768296875000033
        },
        {
          "name": "C5",
          "midi": 72,
          "time": 53.414647499999084,
          "velocity": 1,
          "duration": 0.11178864583333592
        },
        {
          "name": "B4",
          "midi": 71,
          "time": 53.65854999999909,
          "velocity": 1,
          "duration": 0.3099594270833279
        },
        {
          "name": "D#4",
          "midi": 63,
          "time": 53.89737119791575,
          "velocity": 0.6614173228346457,
          "duration": 0.09654473958332943
        },
        {
          "name": "D#4",
          "midi": 63,
          "time": 53.902452499999086,
          "velocity": 0.5433070866141733,
          "duration": 0.0914634374999963
        },
        {
          "name": "F#4",
          "midi": 66,
          "time": 53.902452499999086,
          "velocity": 0.5354330708661418,
          "duration": 0.08638213541666317
        },
        {
          "name": "F3",
          "midi": 53,
          "time": 53.902452499999086,
          "velocity": 0.5669291338582677,
          "duration": 0.010162604166666256
        },
        {
          "name": "D#4",
          "midi": 63,
          "time": 53.902452499999086,
          "velocity": 0.5433070866141733,
          "duration": 0.14227645833332758
        },
        {
          "name": "D2",
          "midi": 38,
          "time": 53.902452499999086,
          "velocity": 0.9212598425196851,
          "duration": 0.010162604166666256
        },
        {
          "name": "B1",
          "midi": 35,
          "time": 53.902452499999086,
          "velocity": 0.7244094488188977,
          "duration": 0.08638213541666317
        },
        {
          "name": "B2",
          "midi": 47,
          "time": 53.902452499999086,
          "velocity": 0.6220472440944882,
          "duration": 0.11686994791666194
        },
        {
          "name": "F#4",
          "midi": 66,
          "time": 53.902452499999086,
          "velocity": 0.5354330708661418,
          "duration": 0.11178864583332881
        },
        {
          "name": "B4",
          "midi": 71,
          "time": 53.902452499999086,
          "velocity": 0.5748031496062992,
          "duration": 0.13211385416666133
        },
        {
          "name": "F#4",
          "midi": 66,
          "time": 53.902452499999086,
          "velocity": 0.8740157480314961,
          "duration": 0.11178864583332881
        },
        {
          "name": "B4",
          "midi": 71,
          "time": 53.902452499999086,
          "velocity": 0.5748031496062992,
          "duration": 0.13211385416666133
        },
        {
          "name": "B4",
          "midi": 71,
          "time": 53.91261510416575,
          "velocity": 0.8740157480314961,
          "duration": 0.19308947916665886
        },
        {
          "name": "B4",
          "midi": 71,
          "time": 54.146354999999076,
          "velocity": 0.6220472440944882,
          "duration": 0.13211385416666133
        },
        {
          "name": "B2",
          "midi": 47,
          "time": 54.146354999999076,
          "velocity": 0.6456692913385826,
          "duration": 0.2184959895833245
        },
        {
          "name": "B4",
          "midi": 71,
          "time": 54.146354999999076,
          "velocity": 0.6220472440944882,
          "duration": 0.14227645833332758
        },
        {
          "name": "F#4",
          "midi": 66,
          "time": 54.146354999999076,
          "velocity": 0.6220472440944882,
          "duration": 0.13211385416666133
        },
        {
          "name": "B1",
          "midi": 35,
          "time": 54.146354999999076,
          "velocity": 0.7874015748031497,
          "duration": 0.1473577604166607
        },
        {
          "name": "D#4",
          "midi": 63,
          "time": 54.146354999999076,
          "velocity": 0.6850393700787402,
          "duration": 0.1473577604166607
        },
        {
          "name": "F#4",
          "midi": 66,
          "time": 54.146354999999076,
          "velocity": 0.6220472440944882,
          "duration": 0.13719515624999445
        },
        {
          "name": "D#4",
          "midi": 63,
          "time": 54.146354999999076,
          "velocity": 0.6614173228346457,
          "duration": 0.1473577604166607
        },
        {
          "name": "D#2",
          "midi": 39,
          "time": 54.146354999999076,
          "velocity": 1,
          "duration": 0.010162604166666256
        },
        {
          "name": "D#4",
          "midi": 63,
          "time": 54.146354999999076,
          "velocity": 0.6614173228346457,
          "duration": 0.16768296874999322
        },
        {
          "name": "C5",
          "midi": 72,
          "time": 54.146354999999076,
          "velocity": 1,
          "duration": 0.4674797916666549
        },
        {
          "name": "F3",
          "midi": 53,
          "time": 54.146354999999076,
          "velocity": 0.5511811023622047,
          "duration": 0.010162604166666256
        },
        {
          "name": "F#4",
          "midi": 66,
          "time": 54.15143630208241,
          "velocity": 0.8267716535433071,
          "duration": 0.13211385416666133
        },
        {
          "name": "B4",
          "midi": 71,
          "time": 54.15651760416574,
          "velocity": 0.8740157480314961,
          "duration": 0.13211385416666133
        },
        {
          "name": "B4",
          "midi": 71,
          "time": 54.63415999999906,
          "velocity": 1,
          "duration": 1.6666670833332873
        },
        {
          "name": "F3",
          "midi": 53,
          "time": 54.63415999999906,
          "velocity": 0.30708661417322836,
          "duration": 0.010162604166666256
        },
        {
          "name": "D#4",
          "midi": 63,
          "time": 54.6392413020824,
          "velocity": 0.33858267716535434,
          "duration": 0.010162604166666256
        },
        {
          "name": "E4",
          "midi": 64,
          "time": 54.64940390624906,
          "velocity": 0.2283464566929134,
          "duration": 0.005081302083333128
        },
        {
          "name": "G#4",
          "midi": 68,
          "time": 54.64940390624906,
          "velocity": 0.5039370078740157,
          "duration": 0.005081302083333128
        },
        {
          "name": "E4",
          "midi": 64,
          "time": 54.878062499999054,
          "velocity": 0.48031496062992124,
          "duration": 0.08638213541666317
        },
        {
          "name": "B3",
          "midi": 59,
          "time": 54.878062499999054,
          "velocity": 0.5590551181102362,
          "duration": 0.07113822916666379
        },
        {
          "name": "B3",
          "midi": 59,
          "time": 54.878062499999054,
          "velocity": 0.6850393700787402,
          "duration": 0.10162604166666256
        },
        {
          "name": "E2",
          "midi": 40,
          "time": 54.878062499999054,
          "velocity": 0.84251968503937,
          "duration": 0.07621953124999692
        },
        {
          "name": "E4",
          "midi": 64,
          "time": 54.878062499999054,
          "velocity": 0.48031496062992124,
          "duration": 0.10670734374999569
        },
        {
          "name": "F3",
          "midi": 53,
          "time": 54.878062499999054,
          "velocity": 0.5511811023622047,
          "duration": 0.010162604166666256
        },
        {
          "name": "E2",
          "midi": 40,
          "time": 54.878062499999054,
          "velocity": 0.4881889763779528,
          "duration": 0.11686994791666194
        },
        {
          "name": "D#2",
          "midi": 39,
          "time": 54.878062499999054,
          "velocity": 0.7874015748031497,
          "duration": 0.010162604166666256
        },
        {
          "name": "F#2",
          "midi": 42,
          "time": 54.878062499999054,
          "velocity": 0.47244094488188976,
          "duration": 0.010162604166666256
        },
        {
          "name": "G#3",
          "midi": 56,
          "time": 54.878062499999054,
          "velocity": 0.47244094488188976,
          "duration": 0.08638213541666317
        },
        {
          "name": "G#4",
          "midi": 68,
          "time": 54.88822510416572,
          "velocity": 0.8740157480314961,
          "duration": 0.06605692708333066
        },
        {
          "name": "E4",
          "midi": 64,
          "time": 54.88822510416572,
          "velocity": 0.8582677165354331,
          "duration": 0.09654473958332943
        },
        {
          "name": "G6",
          "midi": 91,
          "time": 55.11688369791572,
          "velocity": 0.3937007874015748,
          "duration": 0.005081302083333128
        },
        {
          "name": "E4",
          "midi": 64,
          "time": 55.12196499999905,
          "velocity": 0.47244094488188976,
          "duration": 0.08130083333333005
        },
        {
          "name": "B3",
          "midi": 59,
          "time": 55.12196499999905,
          "velocity": 0.49606299212598426,
          "duration": 0.07113822916666379
        },
        {
          "name": "G#3",
          "midi": 56,
          "time": 55.12196499999905,
          "velocity": 0.41732283464566927,
          "duration": 0.11178864583332881
        },
        {
          "name": "E2",
          "midi": 40,
          "time": 55.12196499999905,
          "velocity": 0.4881889763779528,
          "duration": 0.08638213541666317
        },
        {
          "name": "B3",
          "midi": 59,
          "time": 55.12196499999905,
          "velocity": 0.7559055118110236,
          "duration": 0.11686994791666194
        },
        {
          "name": "D#2",
          "midi": 39,
          "time": 55.12196499999905,
          "velocity": 0.7874015748031497,
          "duration": 0.010162604166666256
        },
        {
          "name": "E2",
          "midi": 40,
          "time": 55.12196499999905,
          "velocity": 0.84251968503937,
          "duration": 0.12195124999999507
        },
        {
          "name": "E4",
          "midi": 64,
          "time": 55.12196499999905,
          "velocity": 0.47244094488188976,
          "duration": 0.11178864583332881
        },
        {
          "name": "E4",
          "midi": 64,
          "time": 55.13212760416572,
          "velocity": 0.6929133858267716,
          "duration": 0.10162604166666256
        },
        {
          "name": "G#4",
          "midi": 68,
          "time": 55.13720890624905,
          "velocity": 0.8740157480314961,
          "duration": 0.05081302083333128
        },
        {
          "name": "B3",
          "midi": 59,
          "time": 55.35570489583238,
          "velocity": 0.2677165354330709,
          "duration": 0.05589432291666441
        },
        {
          "name": "E4",
          "midi": 64,
          "time": 55.360786197915715,
          "velocity": 0.7165354330708661,
          "duration": 0.09654473958332943
        },
        {
          "name": "D#2",
          "midi": 39,
          "time": 55.36586749999905,
          "velocity": 0.7874015748031497,
          "duration": 0.010162604166666256
        },
        {
          "name": "B3",
          "midi": 59,
          "time": 55.36586749999905,
          "velocity": 0.49606299212598426,
          "duration": 0.10670734374999569
        },
        {
          "name": "G#3",
          "midi": 56,
          "time": 55.36586749999905,
          "velocity": 0.47244094488188976,
          "duration": 0.09654473958332943
        },
        {
          "name": "F3",
          "midi": 53,
          "time": 55.36586749999905,
          "velocity": 0.47244094488188976,
          "duration": 0.010162604166666256
        },
        {
          "name": "E4",
          "midi": 64,
          "time": 55.36586749999905,
          "velocity": 0.4881889763779528,
          "duration": 0.0914634374999963
        },
        {
          "name": "E2",
          "midi": 40,
          "time": 55.36586749999905,
          "velocity": 0.4881889763779528,
          "duration": 0.08638213541666317
        },
        {
          "name": "E4",
          "midi": 64,
          "time": 55.36586749999905,
          "velocity": 0.4881889763779528,
          "duration": 0.0914634374999963
        },
        {
          "name": "F#2",
          "midi": 42,
          "time": 55.36586749999905,
          "velocity": 0.47244094488188976,
          "duration": 0.010162604166666256
        },
        {
          "name": "E2",
          "midi": 40,
          "time": 55.36586749999905,
          "velocity": 0.8110236220472441,
          "duration": 0.11178864583332881
        },
        {
          "name": "G#4",
          "midi": 68,
          "time": 55.37094880208238,
          "velocity": 0.8740157480314961,
          "duration": 0.05081302083333128
        },
        {
          "name": "D#2",
          "midi": 39,
          "time": 55.60976999999904,
          "velocity": 0.7874015748031497,
          "duration": 0.010162604166666256
        },
        {
          "name": "B3",
          "midi": 59,
          "time": 55.60976999999904,
          "velocity": 0.4881889763779528,
          "duration": 0.05081302083333128
        },
        {
          "name": "E2",
          "midi": 40,
          "time": 55.60976999999904,
          "velocity": 0.7559055118110236,
          "duration": 0.09654473958332943
        },
        {
          "name": "E2",
          "midi": 40,
          "time": 55.60976999999904,
          "velocity": 0.48031496062992124,
          "duration": 0.11178864583332881
        },
        {
          "name": "E4",
          "midi": 64,
          "time": 55.60976999999904,
          "velocity": 0.47244094488188976,
          "duration": 0.0914634374999963
        },
        {
          "name": "E4",
          "midi": 64,
          "time": 55.60976999999904,
          "velocity": 0.47244094488188976,
          "duration": 0.10162604166666256
        },
        {
          "name": "G#3",
          "midi": 56,
          "time": 55.60976999999904,
          "velocity": 0.47244094488188976,
          "duration": 0.09654473958332943
        },
        {
          "name": "B3",
          "midi": 59,
          "time": 55.60976999999904,
          "velocity": 0.7401574803149606,
          "duration": 0.11178864583332881
        },
        {
          "name": "E4",
          "midi": 64,
          "time": 55.61485130208237,
          "velocity": 0.8740157480314961,
          "duration": 0.09654473958332943
        },
        {
          "name": "G#4",
          "midi": 68,
          "time": 55.619932604165705,
          "velocity": 0.8740157480314961,
          "duration": 0.05081302083333128
        },
        {
          "name": "F3",
          "midi": 53,
          "time": 55.73172124999903,
          "velocity": 0.5669291338582677,
          "duration": 0.010162604166666256
        },
        {
          "name": "F#2",
          "midi": 42,
          "time": 55.73172124999903,
          "velocity": 0.47244094488188976,
          "duration": 0.010162604166666256
        },
        {
          "name": "E2",
          "midi": 40,
          "time": 55.85367249999903,
          "velocity": 0.84251968503937,
          "duration": 0.10670734374999569
        },
        {
          "name": "D#2",
          "midi": 39,
          "time": 55.85367249999903,
          "velocity": 0.7874015748031497,
          "duration": 0.010162604166666256
        },
        {
          "name": "B3",
          "midi": 59,
          "time": 55.85367249999903,
          "velocity": 0.4881889763779528,
          "duration": 0.060975624999997535
        },
        {
          "name": "A#3",
          "midi": 58,
          "time": 55.85367249999903,
          "velocity": 0.5669291338582677,
          "duration": 0.005081302083333128
        },
        {
          "name": "G#3",
          "midi": 56,
          "time": 55.85367249999903,
          "velocity": 0.4566929133858268,
          "duration": 0.10670734374999569
        },
        {
          "name": "E4",
          "midi": 64,
          "time": 55.85367249999903,
          "velocity": 0.47244094488188976,
          "duration": 0.08130083333333005
        },
        {
          "name": "E4",
          "midi": 64,
          "time": 55.85367249999903,
          "velocity": 0.47244094488188976,
          "duration": 0.10670734374999569
        },
        {
          "name": "E2",
          "midi": 40,
          "time": 55.85367249999903,
          "velocity": 0.4881889763779528,
          "duration": 0.12195124999999507
        },
        {
          "name": "B3",
          "midi": 59,
          "time": 55.85875380208236,
          "velocity": 0.5039370078740157,
          "duration": 0.11178864583332881
        },
        {
          "name": "E4",
          "midi": 64,
          "time": 55.863835104165695,
          "velocity": 0.8740157480314961,
          "duration": 0.09654473958332943
        },
        {
          "name": "G#4",
          "midi": 68,
          "time": 55.86891640624903,
          "velocity": 0.8740157480314961,
          "duration": 0.05081302083333128
        },
        {
          "name": "F3",
          "midi": 53,
          "time": 55.97562374999902,
          "velocity": 0.5511811023622047,
          "duration": 0.010162604166666256
        },
        {
          "name": "G#3",
          "midi": 56,
          "time": 56.097574999999026,
          "velocity": 0.4094488188976378,
          "duration": 0.11686994791666194
        },
        {
          "name": "E4",
          "midi": 64,
          "time": 56.097574999999026,
          "velocity": 0.44881889763779526,
          "duration": 0.0914634374999963
        },
        {
          "name": "E2",
          "midi": 40,
          "time": 56.097574999999026,
          "velocity": 0.4409448818897638,
          "duration": 0.09654473958332943
        },
        {
          "name": "B3",
          "midi": 59,
          "time": 56.097574999999026,
          "velocity": 0.4566929133858268,
          "duration": 0.12195124999999507
        },
        {
          "name": "E2",
          "midi": 40,
          "time": 56.097574999999026,
          "velocity": 0.7559055118110236,
          "duration": 0.12195124999999507
        },
        {
          "name": "F#2",
          "midi": 42,
          "time": 56.097574999999026,
          "velocity": 0.47244094488188976,
          "duration": 0.010162604166666256
        },
        {
          "name": "D#2",
          "midi": 39,
          "time": 56.097574999999026,
          "velocity": 0.7874015748031497,
          "duration": 0.010162604166666256
        },
        {
          "name": "E4",
          "midi": 64,
          "time": 56.097574999999026,
          "velocity": 0.44881889763779526,
          "duration": 0.10162604166666256
        },
        {
          "name": "E4",
          "midi": 64,
          "time": 56.10265630208236,
          "velocity": 0.8740157480314961,
          "duration": 0.09654473958332943
        },
        {
          "name": "G#4",
          "midi": 68,
          "time": 56.10773760416569,
          "velocity": 0.8740157480314961,
          "duration": 0.07113822916666379
        },
        {
          "name": "E4",
          "midi": 64,
          "time": 56.341477499999016,
          "velocity": 0.8267716535433071,
          "duration": 0.0914634374999963
        },
        {
          "name": "E4",
          "midi": 64,
          "time": 56.341477499999016,
          "velocity": 0.5196850393700787,
          "duration": 0.11686994791666194
        },
        {
          "name": "E4",
          "midi": 64,
          "time": 56.341477499999016,
          "velocity": 0.5196850393700787,
          "duration": 0.11686994791666194
        },
        {
          "name": "B3",
          "midi": 59,
          "time": 56.341477499999016,
          "velocity": 0.5196850393700787,
          "duration": 0.12195124999999507
        },
        {
          "name": "F3",
          "midi": 53,
          "time": 56.341477499999016,
          "velocity": 0.48031496062992124,
          "duration": 0.030487812499998768
        },
        {
          "name": "E2",
          "midi": 40,
          "time": 56.341477499999016,
          "velocity": 0.5275590551181102,
          "duration": 0.11686994791666194
        },
        {
          "name": "G#3",
          "midi": 56,
          "time": 56.341477499999016,
          "velocity": 0.4409448818897638,
          "duration": 0.11178864583332881
        },
        {
          "name": "D#2",
          "midi": 39,
          "time": 56.341477499999016,
          "velocity": 0.7874015748031497,
          "duration": 0.010162604166666256
        },
        {
          "name": "E2",
          "midi": 40,
          "time": 56.341477499999016,
          "velocity": 0.84251968503937,
          "duration": 0.15752036458332697
        },
        {
          "name": "G#4",
          "midi": 68,
          "time": 56.34655880208235,
          "velocity": 0.8740157480314961,
          "duration": 0.07621953124999692
        },
        {
          "name": "C4",
          "midi": 60,
          "time": 56.585379999999006,
          "velocity": 0.5275590551181102,
          "duration": 0.08638213541666317
        },
        {
          "name": "E4",
          "midi": 64,
          "time": 56.585379999999006,
          "velocity": 1,
          "duration": 0.11178864583332881
        },
        {
          "name": "A3",
          "midi": 57,
          "time": 56.585379999999006,
          "velocity": 0.5354330708661418,
          "duration": 0.0914634374999963
        },
        {
          "name": "A1",
          "midi": 33,
          "time": 56.585379999999006,
          "velocity": 0.5590551181102362,
          "duration": 0.2591464062499895
        },
        {
          "name": "E4",
          "midi": 64,
          "time": 56.585379999999006,
          "velocity": 0.5275590551181102,
          "duration": 0.11178864583332881
        },
        {
          "name": "G4",
          "midi": 67,
          "time": 56.585379999999006,
          "velocity": 0.5433070866141733,
          "duration": 0.07113822916666379
        },
        {
          "name": "E4",
          "midi": 64,
          "time": 56.585379999999006,
          "velocity": 0.5275590551181102,
          "duration": 0.4674797916666549
        },
        {
          "name": "D2",
          "midi": 38,
          "time": 56.585379999999006,
          "velocity": 1,
          "duration": 0.010162604166666256
        },
        {
          "name": "C4",
          "midi": 60,
          "time": 56.585379999999006,
          "velocity": 0.5275590551181102,
          "duration": 0.08638213541666317
        },
        {
          "name": "A2",
          "midi": 45,
          "time": 56.585379999999006,
          "velocity": 0.8110236220472441,
          "duration": 0.3099594270833208
        },
        {
          "name": "C5",
          "midi": 72,
          "time": 56.59046130208234,
          "velocity": 0.8661417322834646,
          "duration": 0.09654473958332943
        },
        {
          "name": "E5",
          "midi": 76,
          "time": 56.600623906249005,
          "velocity": 0.6692913385826772,
          "duration": 0.08638213541666317
        },
        {
          "name": "B5",
          "midi": 83,
          "time": 56.60570520833234,
          "velocity": 0.8818897637795275,
          "duration": 0.08638213541666317
        },
        {
          "name": "D2",
          "midi": 38,
          "time": 56.707331249999,
          "velocity": 1,
          "duration": 0.010162604166666256
        },
        {
          "name": "G4",
          "midi": 67,
          "time": 56.829282499998996,
          "velocity": 0.4094488188976378,
          "duration": 0.060975624999997535
        },
        {
          "name": "F#2",
          "midi": 42,
          "time": 56.829282499998996,
          "velocity": 0.47244094488188976,
          "duration": 0.010162604166666256
        },
        {
          "name": "D2",
          "midi": 38,
          "time": 56.829282499998996,
          "velocity": 0.9212598425196851,
          "duration": 0.010162604166666256
        },
        {
          "name": "C5",
          "midi": 72,
          "time": 56.83436380208233,
          "velocity": 0.8110236220472441,
          "duration": 0.10162604166666256
        },
        {
          "name": "E5",
          "midi": 76,
          "time": 56.844526406248995,
          "velocity": 0.6692913385826772,
          "duration": 0.0914634374999963
        },
        {
          "name": "B5",
          "midi": 83,
          "time": 56.84960770833233,
          "velocity": 0.8818897637795275,
          "duration": 0.0914634374999963
        },
        {
          "name": "D2",
          "midi": 38,
          "time": 56.95123374999899,
          "velocity": 1,
          "duration": 0.010162604166666256
        },
        {
          "name": "G4",
          "midi": 67,
          "time": 57.06302239583233,
          "velocity": 0.4094488188976378,
          "duration": 0.10162604166666256
        },
        {
          "name": "C2",
          "midi": 36,
          "time": 57.07318499999899,
          "velocity": 0.8110236220472441,
          "duration": 0.31504072916665393
        },
        {
          "name": "B4",
          "midi": 71,
          "time": 57.07318499999899,
          "velocity": 0.952755905511811,
          "duration": 0.3658537499999852
        },
        {
          "name": "D#2",
          "midi": 39,
          "time": 57.07318499999899,
          "velocity": 1,
          "duration": 0.010162604166666256
        },
        {
          "name": "C5",
          "midi": 72,
          "time": 57.078266302082326,
          "velocity": 0.7874015748031497,
          "duration": 0.09654473958332943
        },
        {
          "name": "E5",
          "midi": 76,
          "time": 57.08334760416566,
          "velocity": 0.5039370078740157,
          "duration": 0.08130083333333005
        },
        {
          "name": "B5",
          "midi": 83,
          "time": 57.08842890624899,
          "velocity": 0.8818897637795275,
          "duration": 0.08638213541666317
        },
        {
          "name": "D2",
          "midi": 38,
          "time": 57.19513624999899,
          "velocity": 0.4251968503937008,
          "duration": 0.010162604166666256
        },
        {
          "name": "E4",
          "midi": 64,
          "time": 57.31708749999898,
          "velocity": 0.5590551181102362,
          "duration": 0.44715458333331526
        },
        {
          "name": "C4",
          "midi": 60,
          "time": 57.31708749999898,
          "velocity": 0.5984251968503937,
          "duration": 0.436991979166649
        },
        {
          "name": "D2",
          "midi": 38,
          "time": 57.31708749999898,
          "velocity": 0.8503937007874016,
          "duration": 0.010162604166666256
        },
        {
          "name": "A3",
          "midi": 57,
          "time": 57.31708749999898,
          "velocity": 0.6220472440944882,
          "duration": 0.4319106770833159
        },
        {
          "name": "F#2",
          "midi": 42,
          "time": 57.31708749999898,
          "velocity": 0.47244094488188976,
          "duration": 0.010162604166666256
        },
        {
          "name": "C4",
          "midi": 60,
          "time": 57.31708749999898,
          "velocity": 0.5984251968503937,
          "duration": 0.436991979166649
        },
        {
          "name": "C2",
          "midi": 36,
          "time": 57.31708749999898,
          "velocity": 0.5590551181102362,
          "duration": 0.19308947916665886
        },
        {
          "name": "G4",
          "midi": 67,
          "time": 57.31708749999898,
          "velocity": 0.4094488188976378,
          "duration": 0.060975624999997535
        },
        {
          "name": "E4",
          "midi": 64,
          "time": 57.31708749999898,
          "velocity": 0.5590551181102362,
          "duration": 0.44715458333331526
        },
        {
          "name": "C5",
          "midi": 72,
          "time": 57.31708749999898,
          "velocity": 0.8503937007874016,
          "duration": 0.10670734374999569
        },
        {
          "name": "E5",
          "midi": 76,
          "time": 57.32725010416565,
          "velocity": 0.5590551181102362,
          "duration": 0.0914634374999963
        },
        {
          "name": "B5",
          "midi": 83,
          "time": 57.337412708332316,
          "velocity": 0.8818897637795275,
          "duration": 0.10162604166666256
        },
        {
          "name": "D2",
          "midi": 38,
          "time": 57.43903874999898,
          "velocity": 1,
          "duration": 0.010162604166666256
        },
        {
          "name": "G4",
          "midi": 67,
          "time": 57.55082739583231,
          "velocity": 0.5826771653543307,
          "duration": 0.09654473958332943
        },
        {
          "name": "C5",
          "midi": 72,
          "time": 57.55590869791564,
          "velocity": 0.8110236220472441,
          "duration": 0.10670734374999569
        },
        {
          "name": "E2",
          "midi": 40,
          "time": 57.560989999998974,
          "velocity": 0.8110236220472441,
          "duration": 0.2896342187499883
        },
        {
          "name": "B5",
          "midi": 83,
          "time": 57.560989999998974,
          "velocity": 0.8818897637795275,
          "duration": 0.12195124999999507
        },
        {
          "name": "D2",
          "midi": 38,
          "time": 57.560989999998974,
          "velocity": 1,
          "duration": 0.010162604166666256
        },
        {
          "name": "E5",
          "midi": 76,
          "time": 57.560989999998974,
          "velocity": 0.6850393700787402,
          "duration": 0.11686994791666194
        },
        {
          "name": "A#4",
          "midi": 70,
          "time": 57.560989999998974,
          "velocity": 1,
          "duration": 0.040650416666665024
        },
        {
          "name": "B4",
          "midi": 71,
          "time": 57.60164041666564,
          "velocity": 1,
          "duration": 0.4878049999999874
        },
        {
          "name": "D2",
          "midi": 38,
          "time": 57.68294124999897,
          "velocity": 1,
          "duration": 0.010162604166666256
        },
        {
          "name": "F#4",
          "midi": 66,
          "time": 57.78456729166563,
          "velocity": 0.3700787401574803,
          "duration": 0.010162604166666256
        },
        {
          "name": "C4",
          "midi": 60,
          "time": 57.804892499998964,
          "velocity": 0.5984251968503937,
          "duration": 0.05081302083333128
        },
        {
          "name": "F#2",
          "midi": 42,
          "time": 57.804892499998964,
          "velocity": 0.47244094488188976,
          "duration": 0.010162604166666256
        },
        {
          "name": "E4",
          "midi": 64,
          "time": 57.804892499998964,
          "velocity": 0.5196850393700787,
          "duration": 0.05589432291666441
        },
        {
          "name": "E5",
          "midi": 76,
          "time": 57.804892499998964,
          "velocity": 0.6614173228346457,
          "duration": 0.10162604166666256
        },
        {
          "name": "E4",
          "midi": 64,
          "time": 57.804892499998964,
          "velocity": 0.5196850393700787,
          "duration": 0.05589432291666441
        },
        {
          "name": "A3",
          "midi": 57,
          "time": 57.804892499998964,
          "velocity": 0.5748031496062992,
          "duration": 0.05081302083333128
        },
        {
          "name": "G4",
          "midi": 67,
          "time": 57.804892499998964,
          "velocity": 0.5196850393700787,
          "duration": 0.0914634374999963
        },
        {
          "name": "D2",
          "midi": 38,
          "time": 57.804892499998964,
          "velocity": 0.9212598425196851,
          "duration": 0.010162604166666256
        },
        {
          "name": "C4",
          "midi": 60,
          "time": 57.804892499998964,
          "velocity": 0.5984251968503937,
          "duration": 0.05081302083333128
        },
        {
          "name": "E2",
          "midi": 40,
          "time": 57.804892499998964,
          "velocity": 0.5590551181102362,
          "duration": 0.27947161458332914
        },
        {
          "name": "C5",
          "midi": 72,
          "time": 57.804892499998964,
          "velocity": 0.8110236220472441,
          "duration": 0.10162604166666256
        },
        {
          "name": "B5",
          "midi": 83,
          "time": 57.81505510416563,
          "velocity": 0.8818897637795275,
          "duration": 0.12195124999999507
        },
        {
          "name": "D2",
          "midi": 38,
          "time": 57.92684374999896,
          "velocity": 1,
          "duration": 0.010162604166666256
        },
        {
          "name": "G4",
          "midi": 67,
          "time": 58.02846979166563,
          "velocity": 0.49606299212598426,
          "duration": 0.13719515624999445
        },
        {
          "name": "F#2",
          "midi": 42,
          "time": 58.04879499999896,
          "velocity": 0.5590551181102362,
          "duration": 0.22865859374999786
        },
        {
          "name": "C2",
          "midi": 36,
          "time": 58.04879499999896,
          "velocity": 0.8110236220472441,
          "duration": 0.274390312499996
        },
        {
          "name": "E4",
          "midi": 64,
          "time": 58.04879499999896,
          "velocity": 0.47244094488188976,
          "duration": 0.060975624999997535
        },
        {
          "name": "C4",
          "midi": 60,
          "time": 58.04879499999896,
          "velocity": 0.49606299212598426,
          "duration": 0.05081302083333128
        },
        {
          "name": "A3",
          "midi": 57,
          "time": 58.04879499999896,
          "velocity": 0.48031496062992124,
          "duration": 0.060975624999997535
        },
        {
          "name": "C4",
          "midi": 60,
          "time": 58.04879499999896,
          "velocity": 0.49606299212598426,
          "duration": 0.05081302083333128
        },
        {
          "name": "E4",
          "midi": 64,
          "time": 58.04879499999896,
          "velocity": 0.47244094488188976,
          "duration": 0.060975624999997535
        },
        {
          "name": "C5",
          "midi": 72,
          "time": 58.04879499999896,
          "velocity": 0.7559055118110236,
          "duration": 0.11686994791666194
        },
        {
          "name": "D#2",
          "midi": 39,
          "time": 58.04879499999896,
          "velocity": 1,
          "duration": 0.010162604166666256
        },
        {
          "name": "E5",
          "midi": 76,
          "time": 58.06403890624896,
          "velocity": 0.6614173228346457,
          "duration": 0.10162604166666256
        },
        {
          "name": "B5",
          "midi": 83,
          "time": 58.06912020833229,
          "velocity": 0.8818897637795275,
          "duration": 0.0914634374999963
        },
        {
          "name": "D2",
          "midi": 38,
          "time": 58.170746249998956,
          "velocity": 0.4251968503937008,
          "duration": 0.010162604166666256
        },
        {
          "name": "G4",
          "midi": 67,
          "time": 58.28253489583229,
          "velocity": 0.3464566929133858,
          "duration": 0.02540651041666564
        },
        {
          "name": "D2",
          "midi": 38,
          "time": 58.29269749999896,
          "velocity": 0.8503937007874016,
          "duration": 0.010162604166666256
        },
        {
          "name": "F#2",
          "midi": 42,
          "time": 58.29269749999896,
          "velocity": 0.47244094488188976,
          "duration": 0.010162604166666256
        },
        {
          "name": "C5",
          "midi": 72,
          "time": 58.29269749999896,
          "velocity": 0.84251968503937,
          "duration": 0.11686994791666194
        },
        {
          "name": "E2",
          "midi": 40,
          "time": 58.29269749999896,
          "velocity": 0.5590551181102362,
          "duration": 0.21341468749999137
        },
        {
          "name": "A4",
          "midi": 69,
          "time": 58.29269749999896,
          "velocity": 1,
          "duration": 0.1829268749999926
        },
        {
          "name": "E5",
          "midi": 76,
          "time": 58.29777880208229,
          "velocity": 0.5748031496062992,
          "duration": 0.11686994791666194
        },
        {
          "name": "B5",
          "midi": 83,
          "time": 58.302860104165624,
          "velocity": 0.8818897637795275,
          "duration": 0.10670734374999569
        },
        {
          "name": "D2",
          "midi": 38,
          "time": 58.41464874999895,
          "velocity": 1,
          "duration": 0.010162604166666256
        },
        {
          "name": "A1",
          "midi": 33,
          "time": 58.53659999999895,
          "velocity": 0.5590551181102362,
          "duration": 0.274390312499996
        },
        {
          "name": "E4",
          "midi": 64,
          "time": 58.53659999999895,
          "velocity": 1,
          "duration": 0.11178864583332881
        },
        {
          "name": "G4",
          "midi": 67,
          "time": 58.53659999999895,
          "velocity": 0.6929133858267716,
          "duration": 0.11178864583332881
        },
        {
          "name": "E4",
          "midi": 64,
          "time": 58.53659999999895,
          "velocity": 0.5275590551181102,
          "duration": 0.11178864583332881
        },
        {
          "name": "C4",
          "midi": 60,
          "time": 58.53659999999895,
          "velocity": 0.5275590551181102,
          "duration": 0.08638213541666317
        },
        {
          "name": "A2",
          "midi": 45,
          "time": 58.53659999999895,
          "velocity": 0.7874015748031497,
          "duration": 0.3048781249999948
        },
        {
          "name": "A3",
          "midi": 57,
          "time": 58.53659999999895,
          "velocity": 0.5354330708661418,
          "duration": 0.0914634374999963
        },
        {
          "name": "E4",
          "midi": 64,
          "time": 58.53659999999895,
          "velocity": 0.5275590551181102,
          "duration": 0.233739895833331
        },
        {
          "name": "C4",
          "midi": 60,
          "time": 58.53659999999895,
          "velocity": 0.5275590551181102,
          "duration": 0.08638213541666317
        },
        {
          "name": "D2",
          "midi": 38,
          "time": 58.53659999999895,
          "velocity": 1,
          "duration": 0.010162604166666256
        },
        {
          "name": "C5",
          "midi": 72,
          "time": 58.546762604165615,
          "velocity": 0.8267716535433071,
          "duration": 0.11178864583332881
        },
        {
          "name": "E5",
          "midi": 76,
          "time": 58.546762604165615,
          "velocity": 0.8188976377952756,
          "duration": 0.13211385416666133
        },
        {
          "name": "B5",
          "midi": 83,
          "time": 58.55692520833228,
          "velocity": 0.8818897637795275,
          "duration": 0.12195124999999507
        },
        {
          "name": "D2",
          "midi": 38,
          "time": 58.65855124999894,
          "velocity": 1,
          "duration": 0.010162604166666256
        },
        {
          "name": "F#4",
          "midi": 66,
          "time": 58.77542119791561,
          "velocity": 0.28346456692913385,
          "duration": 0.005081302083333128
        },
        {
          "name": "F#2",
          "midi": 42,
          "time": 58.780502499998946,
          "velocity": 0.47244094488188976,
          "duration": 0.010162604166666256
        },
        {
          "name": "D2",
          "midi": 38,
          "time": 58.780502499998946,
          "velocity": 0.9212598425196851,
          "duration": 0.010162604166666256
        },
        {
          "name": "A4",
          "midi": 69,
          "time": 58.780502499998946,
          "velocity": 0.889763779527559,
          "duration": 0.233739895833331
        },
        {
          "name": "G4",
          "midi": 67,
          "time": 58.780502499998946,
          "velocity": 0.49606299212598426,
          "duration": 0.08130083333333005
        },
        {
          "name": "C5",
          "midi": 72,
          "time": 58.78558380208228,
          "velocity": 0.8503937007874016,
          "duration": 0.10670734374999569
        },
        {
          "name": "E5",
          "midi": 76,
          "time": 58.79066510416561,
          "velocity": 0.6456692913385826,
          "duration": 0.13211385416666133
        },
        {
          "name": "B5",
          "midi": 83,
          "time": 58.795746406248945,
          "velocity": 0.8582677165354331,
          "duration": 0.11686994791666194
        },
        {
          "name": "D2",
          "midi": 38,
          "time": 58.90245374999894,
          "velocity": 1,
          "duration": 0.010162604166666256
        },
        {
          "name": "G4",
          "midi": 67,
          "time": 59.01932369791561,
          "velocity": 0.48031496062992124,
          "duration": 0.015243906249999384
        },
        {
          "name": "C2",
          "midi": 36,
          "time": 59.02440499999894,
          "velocity": 0.84251968503937,
          "duration": 0.3252033333333344
        },
        {
          "name": "C5",
          "midi": 72,
          "time": 59.02440499999894,
          "velocity": 0.8267716535433071,
          "duration": 0.11686994791666905
        },
        {
          "name": "D#2",
          "midi": 39,
          "time": 59.02440499999894,
          "velocity": 1,
          "duration": 0.010162604166666256
        },
        {
          "name": "B4",
          "midi": 71,
          "time": 59.02440499999894,
          "velocity": 0.952755905511811,
          "duration": 0.2337398958333381
        },
        {
          "name": "E5",
          "midi": 76,
          "time": 59.029486302082276,
          "velocity": 0.6377952755905512,
          "duration": 0.11178864583333592
        },
        {
          "name": "B5",
          "midi": 83,
          "time": 59.03456760416561,
          "velocity": 0.8818897637795275,
          "duration": 0.11686994791666905
        },
        {
          "name": "G4",
          "midi": 67,
          "time": 59.25814489583228,
          "velocity": 0.5826771653543307,
          "duration": 0.11686994791666194
        },
        {
          "name": "C5",
          "midi": 72,
          "time": 59.263226197915614,
          "velocity": 0.7637795275590551,
          "duration": 0.12195124999999507
        },
        {
          "name": "C2",
          "midi": 36,
          "time": 59.26830749999895,
          "velocity": 0.5590551181102362,
          "duration": 0.21341468749999137
        },
        {
          "name": "A3",
          "midi": 57,
          "time": 59.26830749999895,
          "velocity": 0.6220472440944882,
          "duration": 0.4319106770833159
        },
        {
          "name": "E4",
          "midi": 64,
          "time": 59.26830749999895,
          "velocity": 0.5590551181102362,
          "duration": 0.44715458333331526
        },
        {
          "name": "C5",
          "midi": 72,
          "time": 59.26830749999895,
          "velocity": 0.8582677165354331,
          "duration": 0.23373989583332389
        },
        {
          "name": "E4",
          "midi": 64,
          "time": 59.26830749999895,
          "velocity": 0.5590551181102362,
          "duration": 0.44715458333331526
        },
        {
          "name": "E5",
          "midi": 76,
          "time": 59.26830749999895,
          "velocity": 0.6141732283464567,
          "duration": 0.10670734374999569
        },
        {
          "name": "C4",
          "midi": 60,
          "time": 59.26830749999895,
          "velocity": 0.5984251968503937,
          "duration": 0.436991979166649
        },
        {
          "name": "D#2",
          "midi": 39,
          "time": 59.26830749999895,
          "velocity": 0.8661417322834646,
          "duration": 0.010162604166666256
        },
        {
          "name": "F#2",
          "midi": 42,
          "time": 59.26830749999895,
          "velocity": 0.47244094488188976,
          "duration": 0.010162604166666256
        },
        {
          "name": "C4",
          "midi": 60,
          "time": 59.26830749999895,
          "velocity": 0.5984251968503937,
          "duration": 0.436991979166649
        },
        {
          "name": "B5",
          "midi": 83,
          "time": 59.27847010416561,
          "velocity": 0.8346456692913385,
          "duration": 0.10162604166666256
        },
        {
          "name": "D2",
          "midi": 38,
          "time": 59.39025874999894,
          "velocity": 1,
          "duration": 0.010162604166666256
        },
        {
          "name": "G4",
          "midi": 67,
          "time": 59.507128697915604,
          "velocity": 0.5590551181102362,
          "duration": 0.11178864583332881
        },
        {
          "name": "E2",
          "midi": 40,
          "time": 59.51220999999894,
          "velocity": 0.7559055118110236,
          "duration": 0.32012203124998706
        },
        {
          "name": "D2",
          "midi": 38,
          "time": 59.51220999999894,
          "velocity": 1,
          "duration": 0.010162604166666256
        },
        {
          "name": "C5",
          "midi": 72,
          "time": 59.51729130208227,
          "velocity": 0.8110236220472441,
          "duration": 0.09654473958332943
        },
        {
          "name": "E5",
          "midi": 76,
          "time": 59.52745390624894,
          "velocity": 0.6692913385826772,
          "duration": 0.09654473958332943
        },
        {
          "name": "A#4",
          "midi": 70,
          "time": 59.52745390624894,
          "velocity": 1,
          "duration": 0.040650416666665024
        },
        {
          "name": "B5",
          "midi": 83,
          "time": 59.53253520833227,
          "velocity": 0.7322834645669292,
          "duration": 0.010162604166666256
        },
        {
          "name": "B5",
          "midi": 83,
          "time": 59.542697812498936,
          "velocity": 0.8818897637795275,
          "duration": 0.07113822916666379
        },
        {
          "name": "B4",
          "midi": 71,
          "time": 59.5681043229156,
          "velocity": 1,
          "duration": 0.4878049999999874
        },
        {
          "name": "D2",
          "midi": 38,
          "time": 59.63416124999893,
          "velocity": 1,
          "duration": 0.010162604166666256
        },
        {
          "name": "G4",
          "midi": 67,
          "time": 59.74086859374893,
          "velocity": 0.5275590551181102,
          "duration": 0.08130083333333005
        },
        {
          "name": "C5",
          "midi": 72,
          "time": 59.74594989583226,
          "velocity": 0.7559055118110236,
          "duration": 0.08130083333333005
        },
        {
          "name": "E5",
          "midi": 76,
          "time": 59.751031197915594,
          "velocity": 0.6377952755905512,
          "duration": 0.0914634374999963
        },
        {
          "name": "E2",
          "midi": 40,
          "time": 59.75611249999893,
          "velocity": 0.5590551181102362,
          "duration": 0.29979682291666165
        },
        {
          "name": "D2",
          "midi": 38,
          "time": 59.75611249999893,
          "velocity": 0.9212598425196851,
          "duration": 0.010162604166666256
        },
        {
          "name": "A3",
          "midi": 57,
          "time": 59.75611249999893,
          "velocity": 0.5748031496062992,
          "duration": 0.05081302083333128
        },
        {
          "name": "E4",
          "midi": 64,
          "time": 59.75611249999893,
          "velocity": 0.5196850393700787,
          "duration": 0.05589432291666441
        },
        {
          "name": "C4",
          "midi": 60,
          "time": 59.75611249999893,
          "velocity": 0.5984251968503937,
          "duration": 0.05081302083333128
        },
        {
          "name": "E4",
          "midi": 64,
          "time": 59.75611249999893,
          "velocity": 0.5196850393700787,
          "duration": 0.05589432291666441
        },
        {
          "name": "C4",
          "midi": 60,
          "time": 59.75611249999893,
          "velocity": 0.5984251968503937,
          "duration": 0.05081302083333128
        },
        {
          "name": "F#2",
          "midi": 42,
          "time": 59.75611249999893,
          "velocity": 0.47244094488188976,
          "duration": 0.010162604166666256
        },
        {
          "name": "B5",
          "midi": 83,
          "time": 59.766275104165594,
          "velocity": 0.8818897637795275,
          "duration": 0.07113822916666379
        },
        {
          "name": "D2",
          "midi": 38,
          "time": 59.87806374999892,
          "velocity": 1,
          "duration": 0.010162604166666256
        },
        {
          "name": "G4",
          "midi": 67,
          "time": 59.97968979166559,
          "velocity": 0.5039370078740157,
          "duration": 0.10162604166666256
        },
        {
          "name": "D#2",
          "midi": 39,
          "time": 60.000014999998925,
          "velocity": 1,
          "duration": 0.010162604166666256
        },
        {
          "name": "E4",
          "midi": 64,
          "time": 60.000014999998925,
          "velocity": 0.47244094488188976,
          "duration": 0.060975624999997535
        },
        {
          "name": "A3",
          "midi": 57,
          "time": 60.000014999998925,
          "velocity": 0.48031496062992124,
          "duration": 0.060975624999997535
        },
        {
          "name": "C2",
          "midi": 36,
          "time": 60.000014999998925,
          "velocity": 0.7244094488188977,
          "duration": 0.19308947916665886
        },
        {
          "name": "F#2",
          "midi": 42,
          "time": 60.000014999998925,
          "velocity": 0.5590551181102362,
          "duration": 0.24898380208332327
        },
        {
          "name": "E4",
          "midi": 64,
          "time": 60.000014999998925,
          "velocity": 0.47244094488188976,
          "duration": 0.060975624999997535
        },
        {
          "name": "C4",
          "midi": 60,
          "time": 60.000014999998925,
          "velocity": 0.49606299212598426,
          "duration": 0.05081302083333128
        },
        {
          "name": "C5",
          "midi": 72,
          "time": 60.000014999998925,
          "velocity": 0.7716535433070866,
          "duration": 0.09654473958332943
        },
        {
          "name": "C4",
          "midi": 60,
          "time": 60.000014999998925,
          "velocity": 0.49606299212598426,
          "duration": 0.05081302083333128
        },
        {
          "name": "E5",
          "midi": 76,
          "time": 60.015258906248924,
          "velocity": 0.6929133858267716,
          "duration": 0.08638213541666317
        },
        {
          "name": "B5",
          "midi": 83,
          "time": 60.02542151041559,
          "velocity": 0.8818897637795275,
          "duration": 0.10162604166666256
        },
        {
          "name": "D2",
          "midi": 38,
          "time": 60.12196624999892,
          "velocity": 0.4251968503937008,
          "duration": 0.010162604166666256
        },
        {
          "name": "G#4",
          "midi": 68,
          "time": 60.228673593748915,
          "velocity": 0.3464566929133858,
          "duration": 0.010162604166666256
        },
        {
          "name": "D2",
          "midi": 38,
          "time": 60.243917499998915,
          "velocity": 0.8503937007874016,
          "duration": 0.010162604166666256
        },
        {
          "name": "E2",
          "midi": 40,
          "time": 60.243917499998915,
          "velocity": 0.5590551181102362,
          "duration": 0.18800817708332573
        },
        {
          "name": "G4",
          "midi": 67,
          "time": 60.243917499998915,
          "velocity": 0.4094488188976378,
          "duration": 0.10670734374999569
        },
        {
          "name": "F#2",
          "midi": 42,
          "time": 60.243917499998915,
          "velocity": 0.47244094488188976,
          "duration": 0.010162604166666256
        },
        {
          "name": "C5",
          "midi": 72,
          "time": 60.24899880208225,
          "velocity": 0.7637795275590551,
          "duration": 0.10670734374999569
        },
        {
          "name": "E5",
          "midi": 76,
          "time": 60.25408010416558,
          "velocity": 0.5590551181102362,
          "duration": 0.08130083333333005
        },
        {
          "name": "B5",
          "midi": 83,
          "time": 60.259161406248914,
          "velocity": 0.7637795275590551,
          "duration": 0.11686994791666194
        },
        {
          "name": "D2",
          "midi": 38,
          "time": 60.36586874999891,
          "velocity": 1,
          "duration": 0.010162604166666256
        },
        {
          "name": "F4",
          "midi": 65,
          "time": 60.487819999998905,
          "velocity": 0.6614173228346457,
          "duration": 0.04573171874999815
        },
        {
          "name": "D4",
          "midi": 62,
          "time": 60.487819999998905,
          "velocity": 0.5748031496062992,
          "duration": 0.035569114583331896
        },
        {
          "name": "A4",
          "midi": 69,
          "time": 60.487819999998905,
          "velocity": 0.889763779527559,
          "duration": 0.09654473958332943
        },
        {
          "name": "F4",
          "midi": 65,
          "time": 60.487819999998905,
          "velocity": 0.6614173228346457,
          "duration": 0.04573171874999815
        },
        {
          "name": "D2",
          "midi": 38,
          "time": 60.487819999998905,
          "velocity": 1,
          "duration": 0.010162604166666256
        },
        {
          "name": "A3",
          "midi": 57,
          "time": 60.487819999998905,
          "velocity": 0.5433070866141733,
          "duration": 0.05081302083333128
        },
        {
          "name": "D2",
          "midi": 38,
          "time": 60.487819999998905,
          "velocity": 0.8110236220472441,
          "duration": 0.13211385416666133
        },
        {
          "name": "C4",
          "midi": 60,
          "time": 60.487819999998905,
          "velocity": 0.4881889763779528,
          "duration": 0.07621953124999692
        },
        {
          "name": "D4",
          "midi": 62,
          "time": 60.487819999998905,
          "velocity": 0.5748031496062992,
          "duration": 0.035569114583331896
        },
        {
          "name": "D2",
          "midi": 38,
          "time": 60.487819999998905,
          "velocity": 0.5590551181102362,
          "duration": 0.2540651041666635
        },
        {
          "name": "F4",
          "midi": 65,
          "time": 60.49290130208224,
          "velocity": 0.9212598425196851,
          "duration": 0.09654473958332943
        },
        {
          "name": "A4",
          "midi": 69,
          "time": 60.503063906248904,
          "velocity": 0.6062992125984252,
          "duration": 0.2184959895833316
        },
        {
          "name": "E5",
          "midi": 76,
          "time": 60.50814520833224,
          "velocity": 0.937007874015748,
          "duration": 0.08638213541666317
        },
        {
          "name": "D2",
          "midi": 38,
          "time": 60.6097712499989,
          "velocity": 1,
          "duration": 0.16768296875000033
        },
        {
          "name": "D2",
          "midi": 38,
          "time": 60.7317224999989,
          "velocity": 0.9212598425196851,
          "duration": 0.11178864583332881
        },
        {
          "name": "F#2",
          "midi": 42,
          "time": 60.7317224999989,
          "velocity": 0.47244094488188976,
          "duration": 0.010162604166666256
        },
        {
          "name": "E5",
          "midi": 76,
          "time": 60.7317224999989,
          "velocity": 0.9133858267716536,
          "duration": 0.010162604166666256
        },
        {
          "name": "D5",
          "midi": 74,
          "time": 60.7317224999989,
          "velocity": 0.8976377952755905,
          "duration": 0.233739895833331
        },
        {
          "name": "F4",
          "midi": 65,
          "time": 60.736803802082235,
          "velocity": 0.9212598425196851,
          "duration": 0.10162604166666256
        },
        {
          "name": "A4",
          "midi": 69,
          "time": 60.7469664062489,
          "velocity": 0.6062992125984252,
          "duration": 0.0914634374999963
        },
        {
          "name": "E5",
          "midi": 76,
          "time": 60.752047708332235,
          "velocity": 0.937007874015748,
          "duration": 0.0914634374999963
        },
        {
          "name": "D2",
          "midi": 38,
          "time": 60.8536737499989,
          "velocity": 1,
          "duration": 0.010162604166666256
        },
        {
          "name": "C4",
          "midi": 60,
          "time": 60.96546239583223,
          "velocity": 0.3700787401574803,
          "duration": 0.10162604166666256
        },
        {
          "name": "D#2",
          "midi": 39,
          "time": 60.9756249999989,
          "velocity": 1,
          "duration": 0.010162604166666256
        },
        {
          "name": "E5",
          "midi": 76,
          "time": 60.9756249999989,
          "velocity": 0.9133858267716536,
          "duration": 0.10162604166666256
        },
        {
          "name": "F2",
          "midi": 41,
          "time": 60.9756249999989,
          "velocity": 0.8110236220472441,
          "duration": 0.3099594270833279
        },
        {
          "name": "F4",
          "midi": 65,
          "time": 60.98070630208223,
          "velocity": 0.8503937007874016,
          "duration": 0.09654473958332943
        },
        {
          "name": "A4",
          "midi": 69,
          "time": 60.9908689062489,
          "velocity": 0.4566929133858268,
          "duration": 0.08638213541666317
        },
        {
          "name": "E5",
          "midi": 76,
          "time": 60.99595020833223,
          "velocity": 0.937007874015748,
          "duration": 0.21341468749999848
        },
        {
          "name": "F2",
          "midi": 41,
          "time": 61.2195274999989,
          "velocity": 0.5590551181102362,
          "duration": 0.26422770833332976
        },
        {
          "name": "D#2",
          "midi": 39,
          "time": 61.2195274999989,
          "velocity": 0.8661417322834646,
          "duration": 0.010162604166666256
        },
        {
          "name": "F5",
          "midi": 77,
          "time": 61.2195274999989,
          "velocity": 0.8346456692913385,
          "duration": 0.233739895833331
        },
        {
          "name": "F#2",
          "midi": 42,
          "time": 61.2195274999989,
          "velocity": 0.47244094488188976,
          "duration": 0.010162604166666256
        },
        {
          "name": "D4",
          "midi": 62,
          "time": 61.2195274999989,
          "velocity": 0.6850393700787402,
          "duration": 0.5945123437499902
        },
        {
          "name": "A3",
          "midi": 57,
          "time": 61.2195274999989,
          "velocity": 0.6220472440944882,
          "duration": 0.5945123437499902
        },
        {
          "name": "F4",
          "midi": 65,
          "time": 61.2195274999989,
          "velocity": 0.6456692913385826,
          "duration": 0.10670734374999569
        },
        {
          "name": "F4",
          "midi": 65,
          "time": 61.2195274999989,
          "velocity": 0.7322834645669292,
          "duration": 0.3455285416666598
        },
        {
          "name": "D4",
          "midi": 62,
          "time": 61.2195274999989,
          "velocity": 0.6850393700787402,
          "duration": 0.5945123437499902
        },
        {
          "name": "E5",
          "midi": 76,
          "time": 61.2195274999989,
          "velocity": 0.7244094488188977,
          "duration": 0.005081302083333128
        },
        {
          "name": "F4",
          "midi": 65,
          "time": 61.2195274999989,
          "velocity": 0.6456692913385826,
          "duration": 0.589431041666657
        },
        {
          "name": "A4",
          "midi": 69,
          "time": 61.22969010416556,
          "velocity": 0.5039370078740157,
          "duration": 0.0914634374999963
        },
        {
          "name": "E5",
          "midi": 76,
          "time": 61.23985270833223,
          "velocity": 0.8661417322834646,
          "duration": 0.10162604166666256
        },
        {
          "name": "D2",
          "midi": 38,
          "time": 61.34147874999889,
          "velocity": 1,
          "duration": 0.010162604166666256
        },
        {
          "name": "C4",
          "midi": 60,
          "time": 61.45326739583223,
          "velocity": 0.5275590551181102,
          "duration": 0.09654473958332943
        },
        {
          "name": "F4",
          "midi": 65,
          "time": 61.45834869791556,
          "velocity": 0.7322834645669292,
          "duration": 0.3658537499999923
        },
        {
          "name": "A2",
          "midi": 45,
          "time": 61.463429999998894,
          "velocity": 0.8110236220472441,
          "duration": 0.29979682291666165
        },
        {
          "name": "E5",
          "midi": 76,
          "time": 61.463429999998894,
          "velocity": 0.8818897637795275,
          "duration": 0.12195124999999507
        },
        {
          "name": "E5",
          "midi": 76,
          "time": 61.463429999998894,
          "velocity": 1,
          "duration": 0.3760163541666586
        },
        {
          "name": "A4",
          "midi": 69,
          "time": 61.463429999998894,
          "velocity": 0.6220472440944882,
          "duration": 0.11686994791666194
        },
        {
          "name": "D2",
          "midi": 38,
          "time": 61.463429999998894,
          "velocity": 1,
          "duration": 0.010162604166666256
        },
        {
          "name": "D2",
          "midi": 38,
          "time": 61.58538124999889,
          "velocity": 1,
          "duration": 0.010162604166666256
        },
        {
          "name": "B3",
          "midi": 59,
          "time": 61.68700729166556,
          "velocity": 0.5590551181102362,
          "duration": 0.02540651041666564
        },
        {
          "name": "F#2",
          "midi": 42,
          "time": 61.70733249999889,
          "velocity": 0.47244094488188976,
          "duration": 0.010162604166666256
        },
        {
          "name": "C4",
          "midi": 60,
          "time": 61.70733249999889,
          "velocity": 0.47244094488188976,
          "duration": 0.0914634374999963
        },
        {
          "name": "F4",
          "midi": 65,
          "time": 61.70733249999889,
          "velocity": 0.9212598425196851,
          "duration": 0.11686994791666194
        },
        {
          "name": "A4",
          "midi": 69,
          "time": 61.70733249999889,
          "velocity": 0.5984251968503937,
          "duration": 0.10162604166666256
        },
        {
          "name": "A2",
          "midi": 45,
          "time": 61.70733249999889,
          "velocity": 0.5590551181102362,
          "duration": 0.24390249999999725
        },
        {
          "name": "D2",
          "midi": 38,
          "time": 61.70733249999889,
          "velocity": 0.9212598425196851,
          "duration": 0.010162604166666256
        },
        {
          "name": "E5",
          "midi": 76,
          "time": 61.71749510416556,
          "velocity": 0.8818897637795275,
          "duration": 0.3455285416666598
        },
        {
          "name": "D2",
          "midi": 38,
          "time": 61.829283749998886,
          "velocity": 1,
          "duration": 0.010162604166666256
        },
        {
          "name": "C4",
          "midi": 60,
          "time": 61.930909791665556,
          "velocity": 0.44881889763779526,
          "duration": 0.13719515624999445
        },
        {
          "name": "B2",
          "midi": 47,
          "time": 61.95123499999889,
          "velocity": 0.5590551181102362,
          "duration": 0.2184959895833245
        },
        {
          "name": "D#2",
          "midi": 39,
          "time": 61.95123499999889,
          "velocity": 1,
          "duration": 0.010162604166666256
        },
        {
          "name": "F4",
          "midi": 65,
          "time": 61.95123499999889,
          "velocity": 0.6456692913385826,
          "duration": 0.07113822916666379
        },
        {
          "name": "D4",
          "midi": 62,
          "time": 61.95123499999889,
          "velocity": 0.5590551181102362,
          "duration": 0.06605692708333066
        },
        {
          "name": "F2",
          "midi": 41,
          "time": 61.95123499999889,
          "velocity": 0.8110236220472441,
          "duration": 0.35569114583332606
        },
        {
          "name": "F4",
          "midi": 65,
          "time": 61.95123499999889,
          "velocity": 0.6456692913385826,
          "duration": 0.07113822916666379
        },
        {
          "name": "A3",
          "midi": 57,
          "time": 61.95123499999889,
          "velocity": 0.5748031496062992,
          "duration": 0.07113822916666379
        },
        {
          "name": "F4",
          "midi": 65,
          "time": 61.95123499999889,
          "velocity": 0.8661417322834646,
          "duration": 0.11686994791666194
        },
        {
          "name": "D4",
          "midi": 62,
          "time": 61.95123499999889,
          "velocity": 0.5590551181102362,
          "duration": 0.06605692708333066
        },
        {
          "name": "A4",
          "midi": 69,
          "time": 61.96647890624889,
          "velocity": 0.5984251968503937,
          "duration": 0.10162604166666256
        },
        {
          "name": "E5",
          "midi": 76,
          "time": 61.97156020833222,
          "velocity": 0.9291338582677166,
          "duration": 0.3404472395833267
        },
        {
          "name": "D2",
          "midi": 38,
          "time": 62.073186249998884,
          "velocity": 0.4251968503937008,
          "duration": 0.010162604166666256
        },
        {
          "name": "C4",
          "midi": 60,
          "time": 62.18497489583221,
          "velocity": 0.31496062992125984,
          "duration": 0.02540651041666564
        },
        {
          "name": "F4",
          "midi": 65,
          "time": 62.19513749999888,
          "velocity": 0.8110236220472441,
          "duration": 0.11686994791666905
        },
        {
          "name": "D2",
          "midi": 38,
          "time": 62.19513749999888,
          "velocity": 0.8503937007874016,
          "duration": 0.010162604166666256
        },
        {
          "name": "A2",
          "midi": 45,
          "time": 62.19513749999888,
          "velocity": 0.5590551181102362,
          "duration": 0.22865859374999786
        },
        {
          "name": "F#2",
          "midi": 42,
          "time": 62.19513749999888,
          "velocity": 0.47244094488188976,
          "duration": 0.010162604166666256
        },
        {
          "name": "A4",
          "midi": 69,
          "time": 62.20021880208221,
          "velocity": 0.5196850393700787,
          "duration": 0.11686994791666905
        },
        {
          "name": "E5",
          "midi": 76,
          "time": 62.205300104165545,
          "velocity": 0.937007874015748,
          "duration": 0.19308947916666597
        },
        {
          "name": "D2",
          "midi": 38,
          "time": 62.31708874999888,
          "velocity": 1,
          "duration": 0.010162604166666256
        },
        {
          "name": "D2",
          "midi": 38,
          "time": 62.439039999998876,
          "velocity": 0.5590551181102362,
          "duration": 0.010162604166666256
        },
        {
          "name": "A3",
          "midi": 57,
          "time": 62.439039999998876,
          "velocity": 0.2992125984251969,
          "duration": 0.05081302083333128
        },
        {
          "name": "D4",
          "midi": 62,
          "time": 62.439039999998876,
          "velocity": 0.48031496062992124,
          "duration": 0.060975624999997535
        },
        {
          "name": "A4",
          "midi": 69,
          "time": 62.439039999998876,
          "velocity": 0.8346456692913385,
          "duration": 0.14227645833332758
        },
        {
          "name": "F4",
          "midi": 65,
          "time": 62.439039999998876,
          "velocity": 0.4015748031496063,
          "duration": 0.060975624999997535
        },
        {
          "name": "D4",
          "midi": 62,
          "time": 62.439039999998876,
          "velocity": 0.48031496062992124,
          "duration": 0.060975624999997535
        },
        {
          "name": "D2",
          "midi": 38,
          "time": 62.439039999998876,
          "velocity": 1,
          "duration": 0.13211385416666133
        },
        {
          "name": "F4",
          "midi": 65,
          "time": 62.439039999998876,
          "velocity": 0.4015748031496063,
          "duration": 0.060975624999997535
        },
        {
          "name": "D2",
          "midi": 38,
          "time": 62.439039999998876,
          "velocity": 0.8110236220472441,
          "duration": 0.2540651041666635
        },
        {
          "name": "C4",
          "midi": 60,
          "time": 62.439039999998876,
          "velocity": 0.6299212598425197,
          "duration": 0.11178864583332881
        },
        {
          "name": "F4",
          "midi": 65,
          "time": 62.44920260416554,
          "velocity": 0.8503937007874016,
          "duration": 0.11178864583332881
        },
        {
          "name": "A4",
          "midi": 69,
          "time": 62.44920260416554,
          "velocity": 0.7401574803149606,
          "duration": 0.22357729166666473
        },
        {
          "name": "E5",
          "midi": 76,
          "time": 62.45936520833221,
          "velocity": 0.889763779527559,
          "duration": 0.12195124999999507
        },
        {
          "name": "D2",
          "midi": 38,
          "time": 62.56099124999887,
          "velocity": 1,
          "duration": 0.13211385416666843
        },
        {
          "name": "B3",
          "midi": 59,
          "time": 62.67786119791554,
          "velocity": 0.5669291338582677,
          "duration": 0.020325208333332512
        },
        {
          "name": "D5",
          "midi": 74,
          "time": 62.68294249999887,
          "velocity": 0.9133858267716536,
          "duration": 0.233739895833331
        },
        {
          "name": "F#2",
          "midi": 42,
          "time": 62.68294249999887,
          "velocity": 0.47244094488188976,
          "duration": 0.010162604166666256
        },
        {
          "name": "C4",
          "midi": 60,
          "time": 62.68294249999887,
          "velocity": 0.44881889763779526,
          "duration": 0.08130083333333005
        },
        {
          "name": "D2",
          "midi": 38,
          "time": 62.68294249999887,
          "velocity": 0.9212598425196851,
          "duration": 0.02540651041666564
        },
        {
          "name": "F4",
          "midi": 65,
          "time": 62.688023802082206,
          "velocity": 0.8346456692913385,
          "duration": 0.10670734374999569
        },
        {
          "name": "A4",
          "midi": 69,
          "time": 62.69310510416554,
          "velocity": 0.5826771653543307,
          "duration": 0.13211385416666133
        },
        {
          "name": "E5",
          "midi": 76,
          "time": 62.69818640624887,
          "velocity": 0.8267716535433071,
          "duration": 0.11686994791666194
        },
        {
          "name": "D2",
          "midi": 38,
          "time": 62.80489374999887,
          "velocity": 1,
          "duration": 0.010162604166666256
        },
        {
          "name": "C4",
          "midi": 60,
          "time": 62.92176369791554,
          "velocity": 0.4330708661417323,
          "duration": 0.015243906249999384
        },
        {
          "name": "D#2",
          "midi": 39,
          "time": 62.92684499999887,
          "velocity": 1,
          "duration": 0.010162604166666256
        },
        {
          "name": "F4",
          "midi": 65,
          "time": 62.92684499999887,
          "velocity": 0.7716535433070866,
          "duration": 0.11686994791666905
        },
        {
          "name": "F2",
          "midi": 41,
          "time": 62.92684499999887,
          "velocity": 0.6850393700787402,
          "duration": 0.31504072916666814
        },
        {
          "name": "E5",
          "midi": 76,
          "time": 62.92684499999887,
          "velocity": 0.7244094488188977,
          "duration": 0.1270325520833353
        },
        {
          "name": "A4",
          "midi": 69,
          "time": 62.9319263020822,
          "velocity": 0.5748031496062992,
          "duration": 0.11178864583333592
        },
        {
          "name": "E5",
          "midi": 76,
          "time": 62.93700760416554,
          "velocity": 0.8976377952755905,
          "duration": 0.22357729166667184
        },
        {
          "name": "C4",
          "midi": 60,
          "time": 63.16058489583221,
          "velocity": 0.5275590551181102,
          "duration": 0.11686994791666194
        },
        {
          "name": "F4",
          "midi": 65,
          "time": 63.16566619791554,
          "velocity": 0.7480314960629921,
          "duration": 0.12195124999999507
        },
        {
          "name": "D#2",
          "midi": 39,
          "time": 63.170747499998875,
          "velocity": 0.8661417322834646,
          "duration": 0.010162604166666256
        },
        {
          "name": "A4",
          "midi": 69,
          "time": 63.170747499998875,
          "velocity": 0.5590551181102362,
          "duration": 0.10670734374999569
        },
        {
          "name": "F4",
          "midi": 65,
          "time": 63.170747499998875,
          "velocity": 0.5748031496062992,
          "duration": 0.3455285416666598
        },
        {
          "name": "F4",
          "midi": 65,
          "time": 63.170747499998875,
          "velocity": 0.5748031496062992,
          "duration": 0.40650416666665734
        },
        {
          "name": "D4",
          "midi": 62,
          "time": 63.170747499998875,
          "velocity": 0.6456692913385826,
          "duration": 0.40650416666665734
        },
        {
          "name": "A3",
          "midi": 57,
          "time": 63.170747499998875,
          "velocity": 0.5196850393700787,
          "duration": 0.3760163541666586
        },
        {
          "name": "F#2",
          "midi": 42,
          "time": 63.170747499998875,
          "velocity": 0.47244094488188976,
          "duration": 0.010162604166666256
        },
        {
          "name": "F2",
          "midi": 41,
          "time": 63.170747499998875,
          "velocity": 0.5590551181102362,
          "duration": 0.25914640624999663
        },
        {
          "name": "D4",
          "midi": 62,
          "time": 63.170747499998875,
          "velocity": 0.6456692913385826,
          "duration": 0.40650416666665734
        },
        {
          "name": "F5",
          "midi": 77,
          "time": 63.170747499998875,
          "velocity": 0.8661417322834646,
          "duration": 0.233739895833331
        },
        {
          "name": "E5",
          "midi": 76,
          "time": 63.18091010416554,
          "velocity": 0.8031496062992126,
          "duration": 0.10162604166666256
        },
        {
          "name": "D2",
          "midi": 38,
          "time": 63.29269874999887,
          "velocity": 1,
          "duration": 0.010162604166666256
        },
        {
          "name": "C4",
          "midi": 60,
          "time": 63.40956869791554,
          "velocity": 0.5039370078740157,
          "duration": 0.11178864583332881
        },
        {
          "name": "A2",
          "midi": 45,
          "time": 63.41464999999887,
          "velocity": 0.7559055118110236,
          "duration": 0.2947155208333214
        },
        {
          "name": "D2",
          "midi": 38,
          "time": 63.41464999999887,
          "velocity": 1,
          "duration": 0.010162604166666256
        },
        {
          "name": "E5",
          "midi": 76,
          "time": 63.41464999999887,
          "velocity": 0.8031496062992126,
          "duration": 0.030487812499998768
        },
        {
          "name": "F4",
          "midi": 65,
          "time": 63.419731302082205,
          "velocity": 0.84251968503937,
          "duration": 0.15752036458332697
        },
        {
          "name": "A4",
          "midi": 69,
          "time": 63.42989390624887,
          "velocity": 0.6062992125984252,
          "duration": 0.09654473958332943
        },
        {
          "name": "E5",
          "midi": 76,
          "time": 63.434975208332204,
          "velocity": 0.7086614173228346,
          "duration": 0.08130083333333005
        },
        {
          "name": "E5",
          "midi": 76,
          "time": 63.44513781249887,
          "velocity": 0.9133858267716536,
          "duration": 0.23373989583332389
        },
        {
          "name": "D2",
          "midi": 38,
          "time": 63.53660124999887,
          "velocity": 1,
          "duration": 0.010162604166666256
        },
        {
          "name": "C4",
          "midi": 60,
          "time": 63.64330859374886,
          "velocity": 0.48031496062992124,
          "duration": 0.08130083333333005
        },
        {
          "name": "F4",
          "midi": 65,
          "time": 63.648389895832196,
          "velocity": 0.7559055118110236,
          "duration": 0.07621953124999692
        },
        {
          "name": "A4",
          "midi": 69,
          "time": 63.65347119791553,
          "velocity": 0.5748031496062992,
          "duration": 0.0914634374999963
        },
        {
          "name": "F4",
          "midi": 65,
          "time": 63.65855249999886,
          "velocity": 0.5275590551181102,
          "duration": 0.06605692708333066
        },
        {
          "name": "D4",
          "midi": 62,
          "time": 63.65855249999886,
          "velocity": 0.5275590551181102,
          "duration": 0.060975624999997535
        },
        {
          "name": "D4",
          "midi": 62,
          "time": 63.65855249999886,
          "velocity": 0.5275590551181102,
          "duration": 0.060975624999997535
        },
        {
          "name": "A2",
          "midi": 45,
          "time": 63.65855249999886,
          "velocity": 0.5590551181102362,
          "duration": 0.24390249999999014
        },
        {
          "name": "A3",
          "midi": 57,
          "time": 63.65855249999886,
          "velocity": 0.47244094488188976,
          "duration": 0.060975624999997535
        },
        {
          "name": "D2",
          "midi": 38,
          "time": 63.65855249999886,
          "velocity": 0.9212598425196851,
          "duration": 0.010162604166666256
        },
        {
          "name": "E5",
          "midi": 76,
          "time": 63.65855249999886,
          "velocity": 0.7559055118110236,
          "duration": 0.10162604166666256
        },
        {
          "name": "F4",
          "midi": 65,
          "time": 63.65855249999886,
          "velocity": 0.5275590551181102,
          "duration": 0.07113822916666379
        },
        {
          "name": "F#2",
          "midi": 42,
          "time": 63.65855249999886,
          "velocity": 0.47244094488188976,
          "duration": 0.010162604166666256
        },
        {
          "name": "E5",
          "midi": 76,
          "time": 63.68904031249886,
          "velocity": 0.8661417322834646,
          "duration": 0.17276427083332635
        },
        {
          "name": "D2",
          "midi": 38,
          "time": 63.78050374999886,
          "velocity": 1,
          "duration": 0.010162604166666256
        },
        {
          "name": "C4",
          "midi": 60,
          "time": 63.88212979166552,
          "velocity": 0.4566929133858268,
          "duration": 0.10162604166666256
        },
        {
          "name": "B2",
          "midi": 47,
          "time": 63.90245499999885,
          "velocity": 0.5590551181102362,
          "duration": 0.248983802083373
        },
        {
          "name": "F4",
          "midi": 65,
          "time": 63.90245499999885,
          "velocity": 0.5196850393700787,
          "duration": 0.08638213541666317
        },
        {
          "name": "D4",
          "midi": 62,
          "time": 63.90245499999885,
          "velocity": 0.5196850393700787,
          "duration": 0.08638213541666317
        },
        {
          "name": "F2",
          "midi": 41,
          "time": 63.90245499999885,
          "velocity": 0.7244094488188977,
          "duration": 0.279471614583386
        },
        {
          "name": "F4",
          "midi": 65,
          "time": 63.90245499999885,
          "velocity": 0.5196850393700787,
          "duration": 0.08638213541666317
        },
        {
          "name": "F4",
          "midi": 65,
          "time": 63.90245499999885,
          "velocity": 0.8661417322834646,
          "duration": 0.09654473958332943
        },
        {
          "name": "D#2",
          "midi": 39,
          "time": 63.90245499999885,
          "velocity": 1,
          "duration": 0.010162604166666256
        },
        {
          "name": "D4",
          "midi": 62,
          "time": 63.90245499999885,
          "velocity": 0.5196850393700787,
          "duration": 0.08638213541666317
        },
        {
          "name": "A3",
          "midi": 57,
          "time": 63.90245499999885,
          "velocity": 0.5196850393700787,
          "duration": 0.07113822916666379
        },
        {
          "name": "D5",
          "midi": 74,
          "time": 63.90245499999885,
          "velocity": 0.889763779527559,
          "duration": 0.4471545833334005
        },
        {
          "name": "A4",
          "midi": 69,
          "time": 63.91769890624885,
          "velocity": 0.6299212598425197,
          "duration": 0.08638213541666317
        },
        {
          "name": "E5",
          "midi": 76,
          "time": 63.92786151041552,
          "velocity": 0.937007874015748,
          "duration": 0.10162604166666966
        },
        {
          "name": "D2",
          "midi": 38,
          "time": 64.02440624999885,
          "velocity": 0.4251968503937008,
          "duration": 0.010162604166680467
        },
        {
          "name": "C#4",
          "midi": 61,
          "time": 64.13111359374886,
          "velocity": 0.31496062992125984,
          "duration": 0.010162604166680467
        },
        {
          "name": "C4",
          "midi": 60,
          "time": 64.14635749999889,
          "velocity": 0.3700787401574803,
          "duration": 0.10670734375003121
        },
        {
          "name": "A2",
          "midi": 45,
          "time": 64.14635749999889,
          "velocity": 0.5590551181102362,
          "duration": 0.04573171875001947
        },
        {
          "name": "F#2",
          "midi": 42,
          "time": 64.14635749999889,
          "velocity": 0.47244094488188976,
          "duration": 0.010162604166680467
        },
        {
          "name": "D2",
          "midi": 38,
          "time": 64.14635749999889,
          "velocity": 0.8503937007874016,
          "duration": 0.010162604166680467
        },
        {
          "name": "F4",
          "midi": 65,
          "time": 64.15143880208223,
          "velocity": 0.6771653543307087,
          "duration": 0.10670734375003121
        },
        {
          "name": "A4",
          "midi": 69,
          "time": 64.15652010416557,
          "velocity": 0.5039370078740157,
          "duration": 0.08130083333334426
        },
        {
          "name": "E5",
          "midi": 76,
          "time": 64.1616014062489,
          "velocity": 0.7322834645669292,
          "duration": 0.11686994791668326
        },
        {
          "name": "D2",
          "midi": 38,
          "time": 64.26830874999892,
          "velocity": 1,
          "duration": 0.010162604166666256
        },
        {
          "name": "D2",
          "midi": 38,
          "time": 64.39025999999892,
          "velocity": 1,
          "duration": 0.010162604166666256
        },
        {
          "name": "E4",
          "midi": 64,
          "time": 64.39025999999892,
          "velocity": 0.5039370078740157,
          "duration": 0.08638213541668449
        },
        {
          "name": "E2",
          "midi": 40,
          "time": 64.39025999999892,
          "velocity": 0.8110236220472441,
          "duration": 0.4878050000001224
        },
        {
          "name": "E4",
          "midi": 64,
          "time": 64.39025999999892,
          "velocity": 0.5039370078740157,
          "duration": 0.08638213541668449
        },
        {
          "name": "G#3",
          "midi": 56,
          "time": 64.39025999999892,
          "velocity": 0.5196850393700787,
          "duration": 0.071138229166678
        },
        {
          "name": "B3",
          "midi": 59,
          "time": 64.39025999999892,
          "velocity": 0.5984251968503937,
          "duration": 0.071138229166678
        },
        {
          "name": "E1",
          "midi": 28,
          "time": 64.39025999999892,
          "velocity": 0.5590551181102362,
          "duration": 0.2743903125001026
        },
        {
          "name": "D5",
          "midi": 74,
          "time": 64.40550390624892,
          "velocity": 0.7874015748031497,
          "duration": 0.11178864583335724
        },
        {
          "name": "G#5",
          "midi": 80,
          "time": 64.41058520833226,
          "velocity": 0.937007874015748,
          "duration": 0.13719515625002998
        },
        {
          "name": "D2",
          "midi": 38,
          "time": 64.51221124999894,
          "velocity": 1,
          "duration": 0.010162604166680467
        },
        {
          "name": "B4",
          "midi": 71,
          "time": 64.62908119791565,
          "velocity": 0.7716535433070866,
          "duration": 0.12703255208336373
        },
        {
          "name": "D2",
          "midi": 38,
          "time": 64.634162499999,
          "velocity": 0.9212598425196851,
          "duration": 0.010162604166680467
        },
        {
          "name": "F#2",
          "midi": 42,
          "time": 64.634162499999,
          "velocity": 0.47244094488188976,
          "duration": 0.010162604166680467
        },
        {
          "name": "D5",
          "midi": 74,
          "time": 64.63924380208233,
          "velocity": 0.8031496062992126,
          "duration": 0.106707343750017
        },
        {
          "name": "G#5",
          "midi": 80,
          "time": 64.64940640624901,
          "velocity": 0.937007874015748,
          "duration": 0.11178864583334303
        },
        {
          "name": "D2",
          "midi": 38,
          "time": 64.75611374999902,
          "velocity": 1,
          "duration": 0.010162604166680467
        },
        {
          "name": "B4",
          "midi": 71,
          "time": 64.8729836979157,
          "velocity": 0.7401574803149606,
          "duration": 0.12703255208334951
        },
        {
          "name": "D#2",
          "midi": 39,
          "time": 64.87806499999904,
          "velocity": 1,
          "duration": 0.010162604166666256
        },
        {
          "name": "D5",
          "midi": 74,
          "time": 64.8882276041657,
          "velocity": 0.7244094488188977,
          "duration": 0.09654473958333654
        },
        {
          "name": "G#5",
          "midi": 80,
          "time": 64.8882276041657,
          "velocity": 0.8976377952755905,
          "duration": 0.11686994791668326
        },
        {
          "name": "B4",
          "midi": 71,
          "time": 65.11688619791572,
          "velocity": 0.8976377952755905,
          "duration": 0.106707343750017
        },
        {
          "name": "F#2",
          "midi": 42,
          "time": 65.12196749999906,
          "velocity": 0.47244094488188976,
          "duration": 0.010162604166680467
        },
        {
          "name": "B3",
          "midi": 59,
          "time": 65.12196749999906,
          "velocity": 0.6220472440944882,
          "duration": 0.40142286458339527
        },
        {
          "name": "G#3",
          "midi": 56,
          "time": 65.12196749999906,
          "velocity": 0.5039370078740157,
          "duration": 0.4065041666667355
        },
        {
          "name": "D#2",
          "midi": 39,
          "time": 65.12196749999906,
          "velocity": 0.8661417322834646,
          "duration": 0.010162604166680467
        },
        {
          "name": "E4",
          "midi": 64,
          "time": 65.12196749999906,
          "velocity": 0.5748031496062992,
          "duration": 0.391260260416729
        },
        {
          "name": "G#2",
          "midi": 44,
          "time": 65.12196749999906,
          "velocity": 0.6850393700787402,
          "duration": 0.3201220312500368
        },
        {
          "name": "G#1",
          "midi": 32,
          "time": 65.12196749999906,
          "velocity": 0.5590551181102362,
          "duration": 0.2134146875000198
        },
        {
          "name": "E4",
          "midi": 64,
          "time": 65.12196749999906,
          "velocity": 0.5748031496062992,
          "duration": 0.391260260416729
        },
        {
          "name": "D5",
          "midi": 74,
          "time": 65.1270488020824,
          "velocity": 0.8267716535433071,
          "duration": 0.09654473958333654
        },
        {
          "name": "G#5",
          "midi": 80,
          "time": 65.13213010416574,
          "velocity": 0.937007874015748,
          "duration": 0.10670734375000279
        },
        {
          "name": "D2",
          "midi": 38,
          "time": 65.24391874999908,
          "velocity": 1,
          "duration": 0.010162604166666256
        },
        {
          "name": "B4",
          "midi": 71,
          "time": 65.36078869791575,
          "velocity": 0.7401574803149606,
          "duration": 0.12703255208334951
        },
        {
          "name": "D2",
          "midi": 38,
          "time": 65.36586999999909,
          "velocity": 1,
          "duration": 0.010162604166666256
        },
        {
          "name": "D5",
          "midi": 74,
          "time": 65.37603260416576,
          "velocity": 0.7244094488188977,
          "duration": 0.09654473958333654
        },
        {
          "name": "G#5",
          "midi": 80,
          "time": 65.37603260416576,
          "velocity": 0.8976377952755905,
          "duration": 0.11686994791668326
        },
        {
          "name": "D2",
          "midi": 38,
          "time": 65.4878212499991,
          "velocity": 1,
          "duration": 0.010162604166680467
        },
        {
          "name": "B4",
          "midi": 71,
          "time": 65.60469119791581,
          "velocity": 0.8976377952755905,
          "duration": 0.10670734375003121
        },
        {
          "name": "B1",
          "midi": 35,
          "time": 65.60977249999915,
          "velocity": 0.5590551181102362,
          "duration": 0.2997968229167185
        },
        {
          "name": "E6",
          "midi": 88,
          "time": 65.60977249999915,
          "velocity": 0.5669291338582677,
          "duration": 0.040650416666679234
        },
        {
          "name": "E4",
          "midi": 64,
          "time": 65.60977249999915,
          "velocity": 0.48031496062992124,
          "duration": 0.10162604166669098
        },
        {
          "name": "F#2",
          "midi": 42,
          "time": 65.60977249999915,
          "velocity": 0.47244094488188976,
          "duration": 0.010162604166680467
        },
        {
          "name": "G#3",
          "midi": 56,
          "time": 65.60977249999915,
          "velocity": 0.4881889763779528,
          "duration": 0.07621953125001824
        },
        {
          "name": "D2",
          "midi": 38,
          "time": 65.60977249999915,
          "velocity": 0.9212598425196851,
          "duration": 0.010162604166680467
        },
        {
          "name": "B2",
          "midi": 47,
          "time": 65.60977249999915,
          "velocity": 0.6062992125984252,
          "duration": 0.13211385416670396
        },
        {
          "name": "B3",
          "midi": 59,
          "time": 65.60977249999915,
          "velocity": 0.5275590551181102,
          "duration": 0.08638213541668449
        },
        {
          "name": "E4",
          "midi": 64,
          "time": 65.60977249999915,
          "velocity": 0.48031496062992124,
          "duration": 0.10162604166669098
        },
        {
          "name": "D5",
          "midi": 74,
          "time": 65.6148538020825,
          "velocity": 0.8267716535433071,
          "duration": 0.09654473958335075
        },
        {
          "name": "G#5",
          "midi": 80,
          "time": 65.61993510416583,
          "velocity": 0.937007874015748,
          "duration": 0.106707343750017
        },
        {
          "name": "D2",
          "midi": 38,
          "time": 65.73172374999919,
          "velocity": 1,
          "duration": 0.010162604166666256
        },
        {
          "name": "B4",
          "midi": 71,
          "time": 65.84859369791586,
          "velocity": 0.7401574803149606,
          "duration": 0.12703255208334951
        },
        {
          "name": "E4",
          "midi": 64,
          "time": 65.8536749999992,
          "velocity": 0.2047244094488189,
          "duration": 0.035569114583339
        },
        {
          "name": "D3",
          "midi": 50,
          "time": 65.8536749999992,
          "velocity": 0.6062992125984252,
          "duration": 0.19308947916668728
        },
        {
          "name": "E4",
          "midi": 64,
          "time": 65.8536749999992,
          "velocity": 0.2047244094488189,
          "duration": 0.035569114583339
        },
        {
          "name": "D#2",
          "midi": 39,
          "time": 65.8536749999992,
          "velocity": 1,
          "duration": 0.010162604166666256
        },
        {
          "name": "B3",
          "midi": 59,
          "time": 65.8536749999992,
          "velocity": 0.49606299212598426,
          "duration": 0.05589432291667151
        },
        {
          "name": "G#3",
          "midi": 56,
          "time": 65.8536749999992,
          "velocity": 0.4409448818897638,
          "duration": 0.05589432291667151
        },
        {
          "name": "B4",
          "midi": 71,
          "time": 65.8536749999992,
          "velocity": 0.984251968503937,
          "duration": 0.2337398958333523
        },
        {
          "name": "D2",
          "midi": 38,
          "time": 65.8536749999992,
          "velocity": 0.5590551181102362,
          "duration": 0.13211385416668975
        },
        {
          "name": "D5",
          "midi": 74,
          "time": 65.86383760416587,
          "velocity": 0.7244094488188977,
          "duration": 0.09654473958333654
        },
        {
          "name": "G#5",
          "midi": 80,
          "time": 65.86383760416587,
          "velocity": 0.8976377952755905,
          "duration": 0.11686994791668326
        },
        {
          "name": "D2",
          "midi": 38,
          "time": 65.97562624999921,
          "velocity": 0.4251968503937008,
          "duration": 0.12703255208336373
        },
        {
          "name": "B4",
          "midi": 71,
          "time": 66.09249619791589,
          "velocity": 0.8976377952755905,
          "duration": 0.106707343750017
        },
        {
          "name": "B1",
          "midi": 35,
          "time": 66.09757749999923,
          "velocity": 0.5590551181102362,
          "duration": 0.18800817708336126
        },
        {
          "name": "D2",
          "midi": 38,
          "time": 66.09757749999923,
          "velocity": 0.8503937007874016,
          "duration": 0.010162604166680467
        },
        {
          "name": "C5",
          "midi": 72,
          "time": 66.09757749999923,
          "velocity": 0.6771653543307087,
          "duration": 0.1575203645833625
        },
        {
          "name": "F#2",
          "midi": 42,
          "time": 66.09757749999923,
          "velocity": 0.47244094488188976,
          "duration": 0.010162604166680467
        },
        {
          "name": "B2",
          "midi": 47,
          "time": 66.09757749999923,
          "velocity": 0.5196850393700787,
          "duration": 0.1575203645833625
        },
        {
          "name": "D5",
          "midi": 74,
          "time": 66.10265880208257,
          "velocity": 0.8267716535433071,
          "duration": 0.09654473958333654
        },
        {
          "name": "G#5",
          "midi": 80,
          "time": 66.10774010416591,
          "velocity": 0.937007874015748,
          "duration": 0.10670734375000279
        },
        {
          "name": "D2",
          "midi": 38,
          "time": 66.21952874999926,
          "velocity": 1,
          "duration": 0.010162604166666256
        },
        {
          "name": "B4",
          "midi": 71,
          "time": 66.33639869791593,
          "velocity": 0.7401574803149606,
          "duration": 0.12703255208336373
        },
        {
          "name": "E4",
          "midi": 64,
          "time": 66.34147999999927,
          "velocity": 0.4409448818897638,
          "duration": 0.08638213541668449
        },
        {
          "name": "E4",
          "midi": 64,
          "time": 66.34147999999927,
          "velocity": 0.4409448818897638,
          "duration": 0.08638213541668449
        },
        {
          "name": "E1",
          "midi": 28,
          "time": 66.34147999999927,
          "velocity": 0.5590551181102362,
          "duration": 0.27439031250005996
        },
        {
          "name": "G#3",
          "midi": 56,
          "time": 66.34147999999927,
          "velocity": 0.4330708661417323,
          "duration": 0.06605692708335198
        },
        {
          "name": "B3",
          "midi": 59,
          "time": 66.34147999999927,
          "velocity": 0.41732283464566927,
          "duration": 0.07621953125001824
        },
        {
          "name": "D2",
          "midi": 38,
          "time": 66.34147999999927,
          "velocity": 1,
          "duration": 0.010162604166666256
        },
        {
          "name": "D5",
          "midi": 74,
          "time": 66.34147999999927,
          "velocity": 0.7165354330708661,
          "duration": 0.106707343750017
        },
        {
          "name": "E2",
          "midi": 40,
          "time": 66.34147999999927,
          "velocity": 0.8110236220472441,
          "duration": 0.48780500000007976
        },
        {
          "name": "G#5",
          "midi": 80,
          "time": 66.35164260416593,
          "velocity": 0.8976377952755905,
          "duration": 0.11686994791669747
        },
        {
          "name": "D5",
          "midi": 74,
          "time": 66.35164260416593,
          "velocity": 0.7244094488188977,
          "duration": 0.315040729166725
        },
        {
          "name": "D2",
          "midi": 38,
          "time": 66.46343124999929,
          "velocity": 1,
          "duration": 0.010162604166680467
        },
        {
          "name": "B4",
          "midi": 71,
          "time": 66.58030119791597,
          "velocity": 0.8976377952755905,
          "duration": 0.106707343750017
        },
        {
          "name": "D2",
          "midi": 38,
          "time": 66.58538249999931,
          "velocity": 0.9212598425196851,
          "duration": 0.010162604166680467
        },
        {
          "name": "F#2",
          "midi": 42,
          "time": 66.58538249999931,
          "velocity": 0.47244094488188976,
          "duration": 0.010162604166680467
        },
        {
          "name": "D5",
          "midi": 74,
          "time": 66.59046380208265,
          "velocity": 0.8267716535433071,
          "duration": 0.09654473958333654
        },
        {
          "name": "G#5",
          "midi": 80,
          "time": 66.59554510416599,
          "velocity": 0.937007874015748,
          "duration": 0.10670734375000279
        },
        {
          "name": "D2",
          "midi": 38,
          "time": 66.70733374999934,
          "velocity": 1,
          "duration": 0.010162604166666256
        },
        {
          "name": "B4",
          "midi": 71,
          "time": 66.824203697916,
          "velocity": 0.7401574803149606,
          "duration": 0.12703255208336373
        },
        {
          "name": "D5",
          "midi": 74,
          "time": 66.82928499999935,
          "velocity": 0.8661417322834646,
          "duration": 0.106707343750017
        },
        {
          "name": "D#2",
          "midi": 39,
          "time": 66.82928499999935,
          "velocity": 1,
          "duration": 0.010162604166666256
        },
        {
          "name": "D5",
          "midi": 74,
          "time": 66.83944760416601,
          "velocity": 0.7244094488188977,
          "duration": 0.22357729166670026
        },
        {
          "name": "G#5",
          "midi": 80,
          "time": 66.83944760416601,
          "velocity": 0.8976377952755905,
          "duration": 0.11686994791669747
        },
        {
          "name": "B4",
          "midi": 71,
          "time": 67.06810619791605,
          "velocity": 0.8976377952755905,
          "duration": 0.106707343750017
        },
        {
          "name": "G#3",
          "midi": 56,
          "time": 67.07318749999939,
          "velocity": 0.5748031496062992,
          "duration": 0.36585375000004206
        },
        {
          "name": "E4",
          "midi": 64,
          "time": 67.07318749999939,
          "velocity": 0.5196850393700787,
          "duration": 0.391260260416729
        },
        {
          "name": "B3",
          "midi": 59,
          "time": 67.07318749999939,
          "velocity": 0.5433070866141733,
          "duration": 0.36585375000004206
        },
        {
          "name": "E4",
          "midi": 64,
          "time": 67.07318749999939,
          "velocity": 0.5196850393700787,
          "duration": 0.391260260416729
        },
        {
          "name": "G#1",
          "midi": 32,
          "time": 67.07318749999939,
          "velocity": 0.5590551181102362,
          "duration": 0.2134146875000198
        },
        {
          "name": "D#2",
          "midi": 39,
          "time": 67.07318749999939,
          "velocity": 0.8661417322834646,
          "duration": 0.010162604166680467
        },
        {
          "name": "F#2",
          "midi": 42,
          "time": 67.07318749999939,
          "velocity": 0.47244094488188976,
          "duration": 0.010162604166680467
        },
        {
          "name": "G#2",
          "midi": 44,
          "time": 67.07318749999939,
          "velocity": 0.6850393700787402,
          "duration": 0.3201220312500368
        },
        {
          "name": "E5",
          "midi": 76,
          "time": 67.07318749999939,
          "velocity": 0.8661417322834646,
          "duration": 0.2337398958333523
        },
        {
          "name": "D5",
          "midi": 74,
          "time": 67.07826880208273,
          "velocity": 0.8267716535433071,
          "duration": 0.09654473958333654
        },
        {
          "name": "G#5",
          "midi": 80,
          "time": 67.08335010416607,
          "velocity": 0.937007874015748,
          "duration": 0.10670734375000279
        },
        {
          "name": "D2",
          "midi": 38,
          "time": 67.19513874999942,
          "velocity": 1,
          "duration": 0.010162604166666256
        },
        {
          "name": "B4",
          "midi": 71,
          "time": 67.31200869791608,
          "velocity": 0.7401574803149606,
          "duration": 0.12703255208334951
        },
        {
          "name": "D2",
          "midi": 38,
          "time": 67.31708999999942,
          "velocity": 1,
          "duration": 0.010162604166666256
        },
        {
          "name": "D5",
          "midi": 74,
          "time": 67.31708999999942,
          "velocity": 0.8346456692913385,
          "duration": 0.10670734375000279
        },
        {
          "name": "G#5",
          "midi": 80,
          "time": 67.32725260416609,
          "velocity": 0.8976377952755905,
          "duration": 0.11686994791668326
        },
        {
          "name": "D5",
          "midi": 74,
          "time": 67.32725260416609,
          "velocity": 0.7244094488188977,
          "duration": 0.23373989583336652
        },
        {
          "name": "D2",
          "midi": 38,
          "time": 67.43904124999943,
          "velocity": 1,
          "duration": 0.010162604166680467
        },
        {
          "name": "B4",
          "midi": 71,
          "time": 67.55591119791612,
          "velocity": 0.8976377952755905,
          "duration": 0.10670734375003121
        },
        {
          "name": "F#2",
          "midi": 42,
          "time": 67.56099249999946,
          "velocity": 0.47244094488188976,
          "duration": 0.010162604166680467
        },
        {
          "name": "B1",
          "midi": 35,
          "time": 67.56099249999946,
          "velocity": 0.5590551181102362,
          "duration": 0.2997968229167185
        },
        {
          "name": "E4",
          "midi": 64,
          "time": 67.56099249999946,
          "velocity": 0.49606299212598426,
          "duration": 0.07113822916669221
        },
        {
          "name": "B3",
          "midi": 59,
          "time": 67.56099249999946,
          "velocity": 0.5433070866141733,
          "duration": 0.055894322916685724
        },
        {
          "name": "G#3",
          "midi": 56,
          "time": 67.56099249999946,
          "velocity": 0.49606299212598426,
          "duration": 0.06097562500002596
        },
        {
          "name": "D2",
          "midi": 38,
          "time": 67.56099249999946,
          "velocity": 0.9212598425196851,
          "duration": 0.010162604166680467
        },
        {
          "name": "E4",
          "midi": 64,
          "time": 67.56099249999946,
          "velocity": 0.49606299212598426,
          "duration": 0.07113822916669221
        },
        {
          "name": "B2",
          "midi": 47,
          "time": 67.56099249999946,
          "velocity": 0.6062992125984252,
          "duration": 0.13211385416670396
        },
        {
          "name": "C5",
          "midi": 72,
          "time": 67.56099249999946,
          "velocity": 0.7165354330708661,
          "duration": 0.1219512500000377
        },
        {
          "name": "D5",
          "midi": 74,
          "time": 67.5660738020828,
          "velocity": 0.8267716535433071,
          "duration": 0.09654473958335075
        },
        {
          "name": "G#5",
          "midi": 80,
          "time": 67.57115510416614,
          "velocity": 0.937007874015748,
          "duration": 0.106707343750017
        },
        {
          "name": "D2",
          "midi": 38,
          "time": 67.6829437499995,
          "velocity": 1,
          "duration": 0.010162604166666256
        },
        {
          "name": "B4",
          "midi": 71,
          "time": 67.79981369791616,
          "velocity": 0.7401574803149606,
          "duration": 0.12703255208334951
        },
        {
          "name": "E4",
          "midi": 64,
          "time": 67.8048949999995,
          "velocity": 0.4881889763779528,
          "duration": 0.06605692708333777
        },
        {
          "name": "D2",
          "midi": 38,
          "time": 67.8048949999995,
          "velocity": 0.5590551181102362,
          "duration": 0.13211385416668975
        },
        {
          "name": "G#3",
          "midi": 56,
          "time": 67.8048949999995,
          "velocity": 0.47244094488188976,
          "duration": 0.05081302083333128
        },
        {
          "name": "E4",
          "midi": 64,
          "time": 67.8048949999995,
          "velocity": 0.4881889763779528,
          "duration": 0.06605692708333777
        },
        {
          "name": "D#2",
          "midi": 39,
          "time": 67.8048949999995,
          "velocity": 1,
          "duration": 0.010162604166666256
        },
        {
          "name": "B3",
          "midi": 59,
          "time": 67.8048949999995,
          "velocity": 0.5748031496062992,
          "duration": 0.05081302083333128
        },
        {
          "name": "B4",
          "midi": 71,
          "time": 67.8048949999995,
          "velocity": 0.8031496062992126,
          "duration": 0.23882119791669254
        },
        {
          "name": "D3",
          "midi": 50,
          "time": 67.8048949999995,
          "velocity": 0.6062992125984252,
          "duration": 0.19308947916668728
        },
        {
          "name": "D5",
          "midi": 74,
          "time": 67.81505760416617,
          "velocity": 0.7244094488188977,
          "duration": 0.09654473958333654
        },
        {
          "name": "G#5",
          "midi": 80,
          "time": 67.81505760416617,
          "velocity": 0.8976377952755905,
          "duration": 0.11686994791668326
        },
        {
          "name": "D2",
          "midi": 38,
          "time": 67.92684624999951,
          "velocity": 0.4251968503937008,
          "duration": 0.12703255208336373
        },
        {
          "name": "B4",
          "midi": 71,
          "time": 68.0437161979162,
          "velocity": 0.8976377952755905,
          "duration": 0.106707343750017
        },
        {
          "name": "B2",
          "midi": 47,
          "time": 68.04879749999954,
          "velocity": 0.5196850393700787,
          "duration": 0.1575203645833625
        },
        {
          "name": "D2",
          "midi": 38,
          "time": 68.04879749999954,
          "velocity": 0.8503937007874016,
          "duration": 0.010162604166680467
        },
        {
          "name": "F#2",
          "midi": 42,
          "time": 68.04879749999954,
          "velocity": 0.47244094488188976,
          "duration": 0.010162604166680467
        },
        {
          "name": "B1",
          "midi": 35,
          "time": 68.04879749999954,
          "velocity": 0.5590551181102362,
          "duration": 0.18800817708336126
        },
        {
          "name": "C5",
          "midi": 72,
          "time": 68.04879749999954,
          "velocity": 0.952755905511811,
          "duration": 0.20325208333336775
        },
        {
          "name": "D5",
          "midi": 74,
          "time": 68.05387880208288,
          "velocity": 0.8267716535433071,
          "duration": 0.09654473958333654
        },
        {
          "name": "G#5",
          "midi": 80,
          "time": 68.05896010416622,
          "velocity": 0.937007874015748,
          "duration": 0.10670734375000279
        },
        {
          "name": "D2",
          "midi": 38,
          "time": 68.17074874999956,
          "velocity": 1,
          "duration": 0.010162604166666256
        },
        {
          "name": "A3",
          "midi": 57,
          "time": 68.29269999999957,
          "velocity": 0.4566929133858268,
          "duration": 0.0508130208333597
        },
        {
          "name": "D2",
          "midi": 38,
          "time": 68.29269999999957,
          "velocity": 1,
          "duration": 0.010162604166680467
        },
        {
          "name": "A2",
          "midi": 45,
          "time": 68.29269999999957,
          "velocity": 0.8110236220472441,
          "duration": 0.30995942708339896
        },
        {
          "name": "E4",
          "midi": 64,
          "time": 68.29269999999957,
          "velocity": 0.4094488188976378,
          "duration": 0.07113822916669221
        },
        {
          "name": "A1",
          "midi": 33,
          "time": 68.29269999999957,
          "velocity": 0.5590551181102362,
          "duration": 0.2591464062500535
        },
        {
          "name": "C4",
          "midi": 60,
          "time": 68.29269999999957,
          "velocity": 0.48031496062992124,
          "duration": 0.06097562500002596
        },
        {
          "name": "E4",
          "midi": 64,
          "time": 68.29269999999957,
          "velocity": 0.4094488188976378,
          "duration": 0.07113822916669221
        },
        {
          "name": "C4",
          "midi": 60,
          "time": 68.29269999999957,
          "velocity": 0.48031496062992124,
          "duration": 0.06097562500002596
        },
        {
          "name": "G4",
          "midi": 67,
          "time": 68.29269999999957,
          "velocity": 0.5433070866141733,
          "duration": 0.07113822916669221
        },
        {
          "name": "C5",
          "midi": 72,
          "time": 68.29778130208291,
          "velocity": 0.8661417322834646,
          "duration": 0.09654473958335075
        },
        {
          "name": "G#4",
          "midi": 68,
          "time": 68.30286260416625,
          "velocity": 1,
          "duration": 0.03048781250001298
        },
        {
          "name": "E5",
          "midi": 76,
          "time": 68.30794390624959,
          "velocity": 0.6692913385826772,
          "duration": 0.08638213541667028
        },
        {
          "name": "B5",
          "midi": 83,
          "time": 68.31302520833293,
          "velocity": 0.8818897637795275,
          "duration": 0.08638213541667028
        },
        {
          "name": "D2",
          "midi": 38,
          "time": 68.3536756249996,
          "velocity": 1,
          "duration": 0.030487812499998768
        },
        {
          "name": "A4",
          "midi": 69,
          "time": 68.3536756249996,
          "velocity": 0.8346456692913385,
          "duration": 1.869919166666918
        },
        {
          "name": "D2",
          "midi": 38,
          "time": 68.41465124999961,
          "velocity": 1,
          "duration": 0.010162604166666256
        },
        {
          "name": "D2",
          "midi": 38,
          "time": 68.45530166666627,
          "velocity": 1,
          "duration": 0.030487812499998768
        },
        {
          "name": "D2",
          "midi": 38,
          "time": 68.5366024999996,
          "velocity": 0.9212598425196851,
          "duration": 0.010162604166680467
        },
        {
          "name": "F#2",
          "midi": 42,
          "time": 68.5366024999996,
          "velocity": 0.47244094488188976,
          "duration": 0.010162604166680467
        },
        {
          "name": "G4",
          "midi": 67,
          "time": 68.5366024999996,
          "velocity": 0.4094488188976378,
          "duration": 0.06097562500002596
        },
        {
          "name": "C5",
          "midi": 72,
          "time": 68.54168380208294,
          "velocity": 0.8110236220472441,
          "duration": 0.10162604166670519
        },
        {
          "name": "E5",
          "midi": 76,
          "time": 68.55184640624962,
          "velocity": 0.6692913385826772,
          "duration": 0.09146343750002472
        },
        {
          "name": "B5",
          "midi": 83,
          "time": 68.55692770833296,
          "velocity": 0.8818897637795275,
          "duration": 0.09146343750002472
        },
        {
          "name": "D2",
          "midi": 38,
          "time": 68.59757812499963,
          "velocity": 1,
          "duration": 0.03048781250001298
        },
        {
          "name": "D2",
          "midi": 38,
          "time": 68.65855374999965,
          "velocity": 1,
          "duration": 0.010162604166666256
        },
        {
          "name": "G4",
          "midi": 67,
          "time": 68.77034239583298,
          "velocity": 0.4094488188976378,
          "duration": 0.10162604166669098
        },
        {
          "name": "D#2",
          "midi": 39,
          "time": 68.78050499999965,
          "velocity": 1,
          "duration": 0.010162604166680467
        },
        {
          "name": "C2",
          "midi": 36,
          "time": 68.78050499999965,
          "velocity": 0.8110236220472441,
          "duration": 0.31504072916669656
        },
        {
          "name": "C5",
          "midi": 72,
          "time": 68.78558630208299,
          "velocity": 0.7874015748031497,
          "duration": 0.09654473958335075
        },
        {
          "name": "E5",
          "midi": 76,
          "time": 68.79066760416633,
          "velocity": 0.5039370078740157,
          "duration": 0.08130083333334426
        },
        {
          "name": "B5",
          "midi": 83,
          "time": 68.79574890624967,
          "velocity": 0.8818897637795275,
          "duration": 0.08638213541667028
        },
        {
          "name": "D#2",
          "midi": 39,
          "time": 69.02440749999968,
          "velocity": 0.8661417322834646,
          "duration": 0.010162604166666256
        },
        {
          "name": "A3",
          "midi": 57,
          "time": 69.02440749999968,
          "velocity": 0.5984251968503937,
          "duration": 0.3963415625000408
        },
        {
          "name": "F#2",
          "midi": 42,
          "time": 69.02440749999968,
          "velocity": 0.47244094488188976,
          "duration": 0.010162604166666256
        },
        {
          "name": "E4",
          "midi": 64,
          "time": 69.02440749999968,
          "velocity": 0.5433070866141733,
          "duration": 0.4471545833333863
        },
        {
          "name": "C2",
          "midi": 36,
          "time": 69.02440749999968,
          "velocity": 0.5590551181102362,
          "duration": 0.19308947916667307
        },
        {
          "name": "E4",
          "midi": 64,
          "time": 69.02440749999968,
          "velocity": 0.5433070866141733,
          "duration": 0.4471545833333863
        },
        {
          "name": "C4",
          "midi": 60,
          "time": 69.02440749999968,
          "velocity": 0.5748031496062992,
          "duration": 0.42174807291671357
        },
        {
          "name": "G4",
          "midi": 67,
          "time": 69.02440749999968,
          "velocity": 0.4094488188976378,
          "duration": 0.060975624999997535
        },
        {
          "name": "C5",
          "midi": 72,
          "time": 69.02440749999968,
          "velocity": 0.8503937007874016,
          "duration": 0.10670734375000279
        },
        {
          "name": "C4",
          "midi": 60,
          "time": 69.02440749999968,
          "velocity": 0.5748031496062992,
          "duration": 0.42174807291671357
        },
        {
          "name": "E5",
          "midi": 76,
          "time": 69.03457010416635,
          "velocity": 0.5590551181102362,
          "duration": 0.0914634374999963
        },
        {
          "name": "B5",
          "midi": 83,
          "time": 69.04473270833302,
          "velocity": 0.8818897637795275,
          "duration": 0.10162604166667677
        },
        {
          "name": "D2",
          "midi": 38,
          "time": 69.14635874999969,
          "velocity": 1,
          "duration": 0.010162604166666256
        },
        {
          "name": "G4",
          "midi": 67,
          "time": 69.25814739583302,
          "velocity": 0.5826771653543307,
          "duration": 0.09654473958335075
        },
        {
          "name": "C5",
          "midi": 72,
          "time": 69.26322869791636,
          "velocity": 0.8110236220472441,
          "duration": 0.106707343750017
        },
        {
          "name": "B5",
          "midi": 83,
          "time": 69.2683099999997,
          "velocity": 0.8818897637795275,
          "duration": 0.12195125000002349
        },
        {
          "name": "D2",
          "midi": 38,
          "time": 69.2683099999997,
          "velocity": 1,
          "duration": 0.010162604166666256
        },
        {
          "name": "E2",
          "midi": 40,
          "time": 69.2683099999997,
          "velocity": 0.8110236220472441,
          "duration": 0.28963421875003803
        },
        {
          "name": "E5",
          "midi": 76,
          "time": 69.2683099999997,
          "velocity": 0.6850393700787402,
          "duration": 0.11686994791668326
        },
        {
          "name": "D2",
          "midi": 38,
          "time": 69.39026124999972,
          "velocity": 1,
          "duration": 0.010162604166666256
        },
        {
          "name": "F#4",
          "midi": 66,
          "time": 69.4918872916664,
          "velocity": 0.3700787401574803,
          "duration": 0.010162604166666256
        },
        {
          "name": "E2",
          "midi": 40,
          "time": 69.51221249999973,
          "velocity": 0.5590551181102362,
          "duration": 0.27947161458335756
        },
        {
          "name": "E5",
          "midi": 76,
          "time": 69.51221249999973,
          "velocity": 0.6614173228346457,
          "duration": 0.10162604166667677
        },
        {
          "name": "A3",
          "midi": 57,
          "time": 69.51221249999973,
          "velocity": 0.4330708661417323,
          "duration": 0.05589432291667151
        },
        {
          "name": "E4",
          "midi": 64,
          "time": 69.51221249999973,
          "velocity": 0.49606299212598426,
          "duration": 0.071138229166678
        },
        {
          "name": "G4",
          "midi": 67,
          "time": 69.51221249999973,
          "velocity": 0.5196850393700787,
          "duration": 0.09146343750001051
        },
        {
          "name": "C4",
          "midi": 60,
          "time": 69.51221249999973,
          "velocity": 0.47244094488188976,
          "duration": 0.071138229166678
        },
        {
          "name": "C5",
          "midi": 72,
          "time": 69.51221249999973,
          "velocity": 0.8110236220472441,
          "duration": 0.10162604166667677
        },
        {
          "name": "E4",
          "midi": 64,
          "time": 69.51221249999973,
          "velocity": 0.49606299212598426,
          "duration": 0.071138229166678
        },
        {
          "name": "C4",
          "midi": 60,
          "time": 69.51221249999973,
          "velocity": 0.47244094488188976,
          "duration": 0.071138229166678
        },
        {
          "name": "F#2",
          "midi": 42,
          "time": 69.51221249999973,
          "velocity": 0.47244094488188976,
          "duration": 0.010162604166666256
        },
        {
          "name": "D2",
          "midi": 38,
          "time": 69.51221249999973,
          "velocity": 0.9212598425196851,
          "duration": 0.010162604166666256
        },
        {
          "name": "B5",
          "midi": 83,
          "time": 69.5223751041664,
          "velocity": 0.8818897637795275,
          "duration": 0.12195125000000928
        },
        {
          "name": "D2",
          "midi": 38,
          "time": 69.63416374999974,
          "velocity": 1,
          "duration": 0.010162604166666256
        },
        {
          "name": "G4",
          "midi": 67,
          "time": 69.7357897916664,
          "velocity": 0.49606299212598426,
          "duration": 0.1371951562500442
        },
        {
          "name": "C4",
          "midi": 60,
          "time": 69.75611499999974,
          "velocity": 0.4566929133858268,
          "duration": 0.07113822916669221
        },
        {
          "name": "E4",
          "midi": 64,
          "time": 69.75611499999974,
          "velocity": 0.5039370078740157,
          "duration": 0.08130083333335847
        },
        {
          "name": "D#2",
          "midi": 39,
          "time": 69.75611499999974,
          "velocity": 1,
          "duration": 0.010162604166666256
        },
        {
          "name": "E4",
          "midi": 64,
          "time": 69.75611499999974,
          "velocity": 0.8661417322834646,
          "duration": 0.08130083333335847
        },
        {
          "name": "A3",
          "midi": 57,
          "time": 69.75611499999974,
          "velocity": 0.5196850393700787,
          "duration": 0.07113822916669221
        },
        {
          "name": "F#2",
          "midi": 42,
          "time": 69.75611499999974,
          "velocity": 0.5590551181102362,
          "duration": 0.2286585937500547
        },
        {
          "name": "E4",
          "midi": 64,
          "time": 69.75611499999974,
          "velocity": 0.5039370078740157,
          "duration": 0.46747979166677567
        },
        {
          "name": "C2",
          "midi": 36,
          "time": 69.75611499999974,
          "velocity": 0.8110236220472441,
          "duration": 0.2743903125001026
        },
        {
          "name": "C4",
          "midi": 60,
          "time": 69.75611499999974,
          "velocity": 0.4566929133858268,
          "duration": 0.07113822916669221
        },
        {
          "name": "C5",
          "midi": 72,
          "time": 69.75611499999974,
          "velocity": 0.7559055118110236,
          "duration": 0.11686994791671168
        },
        {
          "name": "E5",
          "midi": 76,
          "time": 69.77135890624974,
          "velocity": 0.6614173228346457,
          "duration": 0.10162604166670519
        },
        {
          "name": "B5",
          "midi": 83,
          "time": 69.77644020833309,
          "velocity": 0.8818897637795275,
          "duration": 0.09146343750002472
        },
        {
          "name": "E4",
          "midi": 64,
          "time": 69.77644020833309,
          "velocity": 0.8661417322834646,
          "duration": 0.46747979166676146
        },
        {
          "name": "D2",
          "midi": 38,
          "time": 69.87806624999979,
          "velocity": 0.4251968503937008,
          "duration": 0.010162604166666256
        },
        {
          "name": "G4",
          "midi": 67,
          "time": 69.98985489583313,
          "velocity": 0.3464566929133858,
          "duration": 0.025406510416701167
        },
        {
          "name": "F#2",
          "midi": 42,
          "time": 70.00001749999981,
          "velocity": 0.47244094488188976,
          "duration": 0.010162604166680467
        },
        {
          "name": "C5",
          "midi": 72,
          "time": 70.00001749999981,
          "velocity": 0.84251968503937,
          "duration": 0.11686994791669747
        },
        {
          "name": "E2",
          "midi": 40,
          "time": 70.00001749999981,
          "velocity": 0.5590551181102362,
          "duration": 0.213414687500034
        },
        {
          "name": "D2",
          "midi": 38,
          "time": 70.00001749999981,
          "velocity": 0.8503937007874016,
          "duration": 0.010162604166680467
        },
        {
          "name": "E5",
          "midi": 76,
          "time": 70.00509880208315,
          "velocity": 0.5748031496062992,
          "duration": 0.11686994791669747
        },
        {
          "name": "B5",
          "midi": 83,
          "time": 70.0101801041665,
          "velocity": 0.8818897637795275,
          "duration": 0.106707343750017
        },
        {
          "name": "D2",
          "midi": 38,
          "time": 70.12196874999985,
          "velocity": 1,
          "duration": 0.010162604166666256
        },
        {
          "name": "E4",
          "midi": 64,
          "time": 70.24391999999985,
          "velocity": 0.5196850393700787,
          "duration": 0.0813008333334011
        },
        {
          "name": "B4",
          "midi": 71,
          "time": 70.24391999999985,
          "velocity": 0.9606299212598425,
          "duration": 0.9654473958335359
        },
        {
          "name": "D2",
          "midi": 38,
          "time": 70.24391999999985,
          "velocity": 1,
          "duration": 0.010162604166680467
        },
        {
          "name": "A2",
          "midi": 45,
          "time": 70.24391999999985,
          "velocity": 0.7874015748031497,
          "duration": 0.3048781250001298
        },
        {
          "name": "G4",
          "midi": 67,
          "time": 70.24391999999985,
          "velocity": 0.6929133858267716,
          "duration": 0.11178864583341408
        },
        {
          "name": "A3",
          "midi": 57,
          "time": 70.24391999999985,
          "velocity": 0.5275590551181102,
          "duration": 0.0660569270833804
        },
        {
          "name": "C4",
          "midi": 60,
          "time": 70.24391999999985,
          "velocity": 0.5275590551181102,
          "duration": 0.07621953125006087
        },
        {
          "name": "E4",
          "midi": 64,
          "time": 70.24391999999985,
          "velocity": 0.5196850393700787,
          "duration": 0.0813008333334011
        },
        {
          "name": "A1",
          "midi": 33,
          "time": 70.24391999999985,
          "velocity": 0.5590551181102362,
          "duration": 0.274390312500131
        },
        {
          "name": "C4",
          "midi": 60,
          "time": 70.24391999999985,
          "velocity": 0.5275590551181102,
          "duration": 0.07621953125006087
        },
        {
          "name": "E5",
          "midi": 76,
          "time": 70.24900130208319,
          "velocity": 0.8188976377952756,
          "duration": 0.1321138541667608
        },
        {
          "name": "C5",
          "midi": 72,
          "time": 70.24900130208319,
          "velocity": 0.8267716535433071,
          "duration": 0.11178864583341408
        },
        {
          "name": "B5",
          "midi": 83,
          "time": 70.25916390624987,
          "velocity": 0.8818897637795275,
          "duration": 0.12195125000008034
        },
        {
          "name": "B4",
          "midi": 71,
          "time": 70.26424520833321,
          "velocity": 0.9606299212598425,
          "duration": 0.9654473958335359
        },
        {
          "name": "A1",
          "midi": 33,
          "time": 70.30489562499989,
          "velocity": 0.5984251968503937,
          "duration": 0.35569114583341843
        },
        {
          "name": "D2",
          "midi": 38,
          "time": 70.36587124999994,
          "velocity": 1,
          "duration": 0.010162604166666256
        },
        {
          "name": "F#4",
          "midi": 66,
          "time": 70.48274119791661,
          "velocity": 0.28346456692913385,
          "duration": 0.005081302083340233
        },
        {
          "name": "D2",
          "midi": 38,
          "time": 70.48782249999995,
          "velocity": 0.9212598425196851,
          "duration": 0.010162604166680467
        },
        {
          "name": "G4",
          "midi": 67,
          "time": 70.48782249999995,
          "velocity": 0.49606299212598426,
          "duration": 0.08130083333335847
        },
        {
          "name": "F#2",
          "midi": 42,
          "time": 70.48782249999995,
          "velocity": 0.47244094488188976,
          "duration": 0.010162604166680467
        },
        {
          "name": "C5",
          "midi": 72,
          "time": 70.49290380208329,
          "velocity": 0.8503937007874016,
          "duration": 0.106707343750017
        },
        {
          "name": "E5",
          "midi": 76,
          "time": 70.49798510416663,
          "velocity": 0.6456692913385826,
          "duration": 0.13211385416667554
        },
        {
          "name": "B5",
          "midi": 83,
          "time": 70.50306640624997,
          "velocity": 0.8582677165354331,
          "duration": 0.11686994791666905
        },
        {
          "name": "D2",
          "midi": 38,
          "time": 70.60977374999997,
          "velocity": 1,
          "duration": 0.010162604166666256
        },
        {
          "name": "G4",
          "midi": 67,
          "time": 70.72664369791664,
          "velocity": 0.48031496062992124,
          "duration": 0.0152439062500207
        },
        {
          "name": "C5",
          "midi": 72,
          "time": 70.73172499999998,
          "velocity": 0.8267716535433071,
          "duration": 0.11686994791668326
        },
        {
          "name": "C2",
          "midi": 36,
          "time": 70.73172499999998,
          "velocity": 0.84251968503937,
          "duration": 0.32520333333337703
        },
        {
          "name": "D#2",
          "midi": 39,
          "time": 70.73172499999998,
          "velocity": 1,
          "duration": 0.010162604166680467
        },
        {
          "name": "E5",
          "midi": 76,
          "time": 70.73680630208332,
          "velocity": 0.6377952755905512,
          "duration": 0.11178864583334303
        },
        {
          "name": "B5",
          "midi": 83,
          "time": 70.74188760416666,
          "velocity": 0.8818897637795275,
          "duration": 0.11686994791666905
        },
        {
          "name": "G4",
          "midi": 67,
          "time": 70.96546489583334,
          "velocity": 0.5826771653543307,
          "duration": 0.11686994791669747
        },
        {
          "name": "C5",
          "midi": 72,
          "time": 70.97054619791668,
          "velocity": 0.7637795275590551,
          "duration": 0.1219512500000377
        },
        {
          "name": "A3",
          "midi": 57,
          "time": 70.97562750000002,
          "velocity": 0.5748031496062992,
          "duration": 0.34552854166673796
        },
        {
          "name": "C2",
          "midi": 36,
          "time": 70.97562750000002,
          "velocity": 0.8346456692913385,
          "duration": 0.213414687500034
        },
        {
          "name": "C4",
          "midi": 60,
          "time": 70.97562750000002,
          "velocity": 0.6220472440944882,
          "duration": 0.3658537500000847
        },
        {
          "name": "E4",
          "midi": 64,
          "time": 70.97562750000002,
          "velocity": 0.6220472440944882,
          "duration": 0.3709350520834249
        },
        {
          "name": "C4",
          "midi": 60,
          "time": 70.97562750000002,
          "velocity": 0.6220472440944882,
          "duration": 0.3658537500000847
        },
        {
          "name": "E5",
          "midi": 76,
          "time": 70.97562750000002,
          "velocity": 0.6141732283464567,
          "duration": 0.106707343750017
        },
        {
          "name": "D#2",
          "midi": 39,
          "time": 70.97562750000002,
          "velocity": 0.8661417322834646,
          "duration": 0.010162604166666256
        },
        {
          "name": "E4",
          "midi": 64,
          "time": 70.97562750000002,
          "velocity": 0.6220472440944882,
          "duration": 0.3709350520834249
        },
        {
          "name": "F#2",
          "midi": 42,
          "time": 70.97562750000002,
          "velocity": 0.47244094488188976,
          "duration": 0.010162604166666256
        },
        {
          "name": "B5",
          "midi": 83,
          "time": 70.98579010416668,
          "velocity": 0.8346456692913385,
          "duration": 0.10162604166669098
        },
        {
          "name": "D2",
          "midi": 38,
          "time": 71.09757875000005,
          "velocity": 1,
          "duration": 0.010162604166666256
        },
        {
          "name": "G4",
          "midi": 67,
          "time": 71.21444869791672,
          "velocity": 0.5590551181102362,
          "duration": 0.11178864583337145
        },
        {
          "name": "E2",
          "midi": 40,
          "time": 71.21953000000006,
          "velocity": 0.7559055118110236,
          "duration": 0.32012203125009364
        },
        {
          "name": "A4",
          "midi": 69,
          "time": 71.21953000000006,
          "velocity": 0.8661417322834646,
          "duration": 0.8536587500002071
        },
        {
          "name": "D2",
          "midi": 38,
          "time": 71.21953000000006,
          "velocity": 1,
          "duration": 0.010162604166680467
        },
        {
          "name": "C5",
          "midi": 72,
          "time": 71.2246113020834,
          "velocity": 0.8110236220472441,
          "duration": 0.09654473958335075
        },
        {
          "name": "E5",
          "midi": 76,
          "time": 71.23477390625008,
          "velocity": 0.6692913385826772,
          "duration": 0.09654473958335075
        },
        {
          "name": "A4",
          "midi": 69,
          "time": 71.23985520833342,
          "velocity": 0.8661417322834646,
          "duration": 0.8536587500001787
        },
        {
          "name": "B5",
          "midi": 83,
          "time": 71.23985520833342,
          "velocity": 0.7322834645669292,
          "duration": 0.010162604166666256
        },
        {
          "name": "B5",
          "midi": 83,
          "time": 71.25001781250009,
          "velocity": 0.8818897637795275,
          "duration": 0.07113822916666379
        },
        {
          "name": "D2",
          "midi": 38,
          "time": 71.3414812500001,
          "velocity": 1,
          "duration": 0.010162604166680467
        },
        {
          "name": "G4",
          "midi": 67,
          "time": 71.44818859375012,
          "velocity": 0.5275590551181102,
          "duration": 0.08130083333335847
        },
        {
          "name": "C5",
          "midi": 72,
          "time": 71.45326989583346,
          "velocity": 0.7559055118110236,
          "duration": 0.08130083333335847
        },
        {
          "name": "E5",
          "midi": 76,
          "time": 71.4583511979168,
          "velocity": 0.6377952755905512,
          "duration": 0.09146343750003894
        },
        {
          "name": "C4",
          "midi": 60,
          "time": 71.46343250000014,
          "velocity": 0.5590551181102362,
          "duration": 0.06605692708333777
        },
        {
          "name": "E2",
          "midi": 40,
          "time": 71.46343250000014,
          "velocity": 0.8346456692913385,
          "duration": 0.2997968229167043
        },
        {
          "name": "F#2",
          "midi": 42,
          "time": 71.46343250000014,
          "velocity": 0.47244094488188976,
          "duration": 0.010162604166666256
        },
        {
          "name": "A3",
          "midi": 57,
          "time": 71.46343250000014,
          "velocity": 0.49606299212598426,
          "duration": 0.060975624999997535
        },
        {
          "name": "C4",
          "midi": 60,
          "time": 71.46343250000014,
          "velocity": 0.5590551181102362,
          "duration": 0.06605692708333777
        },
        {
          "name": "D2",
          "midi": 38,
          "time": 71.46343250000014,
          "velocity": 0.9212598425196851,
          "duration": 0.010162604166666256
        },
        {
          "name": "E4",
          "midi": 64,
          "time": 71.46343250000014,
          "velocity": 0.5196850393700787,
          "duration": 0.06605692708333777
        },
        {
          "name": "E4",
          "midi": 64,
          "time": 71.46343250000014,
          "velocity": 0.5196850393700787,
          "duration": 0.06605692708333777
        },
        {
          "name": "B5",
          "midi": 83,
          "time": 71.4735951041668,
          "velocity": 0.8818897637795275,
          "duration": 0.07113822916669221
        },
        {
          "name": "D2",
          "midi": 38,
          "time": 71.58538375000018,
          "velocity": 1,
          "duration": 0.010162604166666256
        },
        {
          "name": "G4",
          "midi": 67,
          "time": 71.68700979166684,
          "velocity": 0.5039370078740157,
          "duration": 0.10162604166667677
        },
        {
          "name": "F#2",
          "midi": 42,
          "time": 71.70733500000017,
          "velocity": 0.8346456692913385,
          "duration": 0.24898380208340143
        },
        {
          "name": "C4",
          "midi": 60,
          "time": 71.70733500000017,
          "velocity": 0.5748031496062992,
          "duration": 0.09654473958335075
        },
        {
          "name": "E4",
          "midi": 64,
          "time": 71.70733500000017,
          "velocity": 0.5748031496062992,
          "duration": 0.10670734375003121
        },
        {
          "name": "A3",
          "midi": 57,
          "time": 71.70733500000017,
          "velocity": 0.5590551181102362,
          "duration": 0.09654473958335075
        },
        {
          "name": "E4",
          "midi": 64,
          "time": 71.70733500000017,
          "velocity": 0.5748031496062992,
          "duration": 0.10670734375003121
        },
        {
          "name": "D#2",
          "midi": 39,
          "time": 71.70733500000017,
          "velocity": 1,
          "duration": 0.010162604166666256
        },
        {
          "name": "C2",
          "midi": 36,
          "time": 71.70733500000017,
          "velocity": 0.7244094488188977,
          "duration": 0.1930894791667157
        },
        {
          "name": "C4",
          "midi": 60,
          "time": 71.70733500000017,
          "velocity": 0.5748031496062992,
          "duration": 0.09654473958335075
        },
        {
          "name": "C5",
          "midi": 72,
          "time": 71.70733500000017,
          "velocity": 0.7716535433070866,
          "duration": 0.09654473958335075
        },
        {
          "name": "E5",
          "midi": 76,
          "time": 71.72257890625018,
          "velocity": 0.6929133858267716,
          "duration": 0.08638213541668449
        },
        {
          "name": "B5",
          "midi": 83,
          "time": 71.73274151041684,
          "velocity": 0.8818897637795275,
          "duration": 0.10162604166670519
        },
        {
          "name": "D2",
          "midi": 38,
          "time": 71.82928625000021,
          "velocity": 0.4251968503937008,
          "duration": 0.010162604166680467
        },
        {
          "name": "G#4",
          "midi": 68,
          "time": 71.93599359375023,
          "velocity": 0.3464566929133858,
          "duration": 0.010162604166666256
        },
        {
          "name": "D2",
          "midi": 38,
          "time": 71.95123750000023,
          "velocity": 0.8503937007874016,
          "duration": 0.010162604166680467
        },
        {
          "name": "F#2",
          "midi": 42,
          "time": 71.95123750000023,
          "velocity": 0.47244094488188976,
          "duration": 0.010162604166680467
        },
        {
          "name": "E2",
          "midi": 40,
          "time": 71.95123750000023,
          "velocity": 0.8346456692913385,
          "duration": 0.18800817708337547
        },
        {
          "name": "G4",
          "midi": 67,
          "time": 71.95123750000023,
          "velocity": 0.4094488188976378,
          "duration": 0.10670734375003121
        },
        {
          "name": "C5",
          "midi": 72,
          "time": 71.95631880208357,
          "velocity": 0.7637795275590551,
          "duration": 0.10670734375003121
        },
        {
          "name": "E5",
          "midi": 76,
          "time": 71.96140010416691,
          "velocity": 0.5590551181102362,
          "duration": 0.08130083333334426
        },
        {
          "name": "B5",
          "midi": 83,
          "time": 71.96648140625025,
          "velocity": 0.7637795275590551,
          "duration": 0.11686994791668326
        },
        {
          "name": "D2",
          "midi": 38,
          "time": 72.07318875000027,
          "velocity": 1,
          "duration": 0.010162604166666256
        },
        {
          "name": "E4",
          "midi": 64,
          "time": 72.19514000000028,
          "velocity": 0.5275590551181102,
          "duration": 0.11178864583338566
        },
        {
          "name": "E4",
          "midi": 64,
          "time": 72.19514000000028,
          "velocity": 0.5275590551181102,
          "duration": 0.11178864583338566
        },
        {
          "name": "A1",
          "midi": 33,
          "time": 72.19514000000028,
          "velocity": 1,
          "duration": 0.2591464062500677
        },
        {
          "name": "C4",
          "midi": 60,
          "time": 72.19514000000028,
          "velocity": 0.5275590551181102,
          "duration": 0.0863821354166987
        },
        {
          "name": "C4",
          "midi": 60,
          "time": 72.19514000000028,
          "velocity": 0.5275590551181102,
          "duration": 0.0863821354166987
        },
        {
          "name": "G4",
          "midi": 67,
          "time": 72.19514000000028,
          "velocity": 0.5433070866141733,
          "duration": 0.07113822916669221
        },
        {
          "name": "A3",
          "midi": 57,
          "time": 72.19514000000028,
          "velocity": 0.5354330708661418,
          "duration": 0.09146343750003894
        },
        {
          "name": "A1",
          "midi": 33,
          "time": 72.19514000000028,
          "velocity": 0.8110236220472441,
          "duration": 0.3099594270834132
        },
        {
          "name": "D2",
          "midi": 38,
          "time": 72.19514000000028,
          "velocity": 1,
          "duration": 0.010162604166680467
        },
        {
          "name": "E4",
          "midi": 64,
          "time": 72.19514000000028,
          "velocity": 0.7559055118110236,
          "duration": 1.178862083333513
        },
        {
          "name": "C5",
          "midi": 72,
          "time": 72.20022130208362,
          "velocity": 0.8661417322834646,
          "duration": 0.09654473958336496
        },
        {
          "name": "E5",
          "midi": 76,
          "time": 72.2103839062503,
          "velocity": 0.6692913385826772,
          "duration": 0.08638213541668449
        },
        {
          "name": "B5",
          "midi": 83,
          "time": 72.21546520833364,
          "velocity": 0.8818897637795275,
          "duration": 0.08638213541668449
        },
        {
          "name": "D2",
          "midi": 38,
          "time": 72.31709125000033,
          "velocity": 1,
          "duration": 0.010162604166666256
        },
        {
          "name": "A4",
          "midi": 69,
          "time": 72.43904250000033,
          "velocity": 0.7401574803149606,
          "duration": 0.20325208333336775
        },
        {
          "name": "F#2",
          "midi": 42,
          "time": 72.43904250000033,
          "velocity": 0.47244094488188976,
          "duration": 0.010162604166680467
        },
        {
          "name": "G4",
          "midi": 67,
          "time": 72.43904250000033,
          "velocity": 0.4094488188976378,
          "duration": 0.06097562500002596
        },
        {
          "name": "D2",
          "midi": 38,
          "time": 72.43904250000033,
          "velocity": 0.9212598425196851,
          "duration": 0.010162604166680467
        },
        {
          "name": "C5",
          "midi": 72,
          "time": 72.44412380208367,
          "velocity": 0.8110236220472441,
          "duration": 0.10162604166669098
        },
        {
          "name": "E5",
          "midi": 76,
          "time": 72.45428640625035,
          "velocity": 0.6692913385826772,
          "duration": 0.09146343750001051
        },
        {
          "name": "B5",
          "midi": 83,
          "time": 72.45936770833369,
          "velocity": 0.8818897637795275,
          "duration": 0.09146343750001051
        },
        {
          "name": "D2",
          "midi": 38,
          "time": 72.56099375000036,
          "velocity": 1,
          "duration": 0.010162604166666256
        },
        {
          "name": "G4",
          "midi": 67,
          "time": 72.67278239583369,
          "velocity": 0.4094488188976378,
          "duration": 0.10162604166669098
        },
        {
          "name": "C2",
          "midi": 36,
          "time": 72.68294500000036,
          "velocity": 0.8110236220472441,
          "duration": 0.31504072916669656
        },
        {
          "name": "B4",
          "midi": 71,
          "time": 72.68294500000036,
          "velocity": 0.9291338582677166,
          "duration": 0.19817078125002752
        },
        {
          "name": "D#2",
          "midi": 39,
          "time": 72.68294500000036,
          "velocity": 1,
          "duration": 0.010162604166680467
        },
        {
          "name": "C5",
          "midi": 72,
          "time": 72.6880263020837,
          "velocity": 0.7874015748031497,
          "duration": 0.09654473958335075
        },
        {
          "name": "E5",
          "midi": 76,
          "time": 72.69310760416704,
          "velocity": 0.5039370078740157,
          "duration": 0.08130083333334426
        },
        {
          "name": "B5",
          "midi": 83,
          "time": 72.69818890625038,
          "velocity": 0.8818897637795275,
          "duration": 0.08638213541667028
        },
        {
          "name": "F#2",
          "midi": 42,
          "time": 72.92684750000039,
          "velocity": 0.47244094488188976,
          "duration": 0.010162604166666256
        },
        {
          "name": "E4",
          "midi": 64,
          "time": 72.92684750000039,
          "velocity": 0.5590551181102362,
          "duration": 0.4471545833334005
        },
        {
          "name": "G4",
          "midi": 67,
          "time": 72.92684750000039,
          "velocity": 0.4094488188976378,
          "duration": 0.060975624999997535
        },
        {
          "name": "C2",
          "midi": 36,
          "time": 72.92684750000039,
          "velocity": 1,
          "duration": 0.19308947916668728
        },
        {
          "name": "C4",
          "midi": 60,
          "time": 72.92684750000039,
          "velocity": 0.5984251968503937,
          "duration": 0.43699197916673427
        },
        {
          "name": "C5",
          "midi": 72,
          "time": 72.92684750000039,
          "velocity": 0.8503937007874016,
          "duration": 0.10670734375000279
        },
        {
          "name": "D#2",
          "midi": 39,
          "time": 72.92684750000039,
          "velocity": 0.8661417322834646,
          "duration": 0.010162604166666256
        },
        {
          "name": "E4",
          "midi": 64,
          "time": 72.92684750000039,
          "velocity": 0.5590551181102362,
          "duration": 0.5436993229167513
        },
        {
          "name": "A3",
          "midi": 57,
          "time": 72.92684750000039,
          "velocity": 0.6220472440944882,
          "duration": 0.43191067708339403
        },
        {
          "name": "C5",
          "midi": 72,
          "time": 72.92684750000039,
          "velocity": 0.9133858267716536,
          "duration": 0.1778455729166808
        },
        {
          "name": "C4",
          "midi": 60,
          "time": 72.92684750000039,
          "velocity": 0.5984251968503937,
          "duration": 0.43699197916673427
        },
        {
          "name": "E5",
          "midi": 76,
          "time": 72.93701010416706,
          "velocity": 0.5590551181102362,
          "duration": 0.0914634374999963
        },
        {
          "name": "B5",
          "midi": 83,
          "time": 72.94717270833372,
          "velocity": 0.8818897637795275,
          "duration": 0.10162604166667677
        },
        {
          "name": "D2",
          "midi": 38,
          "time": 73.0487987500004,
          "velocity": 1,
          "duration": 0.010162604166666256
        },
        {
          "name": "G4",
          "midi": 67,
          "time": 73.16058739583374,
          "velocity": 0.5826771653543307,
          "duration": 0.09654473958335075
        },
        {
          "name": "C5",
          "midi": 72,
          "time": 73.16566869791708,
          "velocity": 0.8110236220472441,
          "duration": 0.106707343750017
        },
        {
          "name": "E2",
          "midi": 40,
          "time": 73.17075000000042,
          "velocity": 0.8110236220472441,
          "duration": 0.28963421875003803
        },
        {
          "name": "B5",
          "midi": 83,
          "time": 73.17075000000042,
          "velocity": 0.8818897637795275,
          "duration": 0.12195125000002349
        },
        {
          "name": "B4",
          "midi": 71,
          "time": 73.17075000000042,
          "velocity": 0.8503937007874016,
          "duration": 0.6910570833334617
        },
        {
          "name": "D2",
          "midi": 38,
          "time": 73.17075000000042,
          "velocity": 1,
          "duration": 0.010162604166666256
        },
        {
          "name": "E5",
          "midi": 76,
          "time": 73.17075000000042,
          "velocity": 0.6850393700787402,
          "duration": 0.11686994791668326
        },
        {
          "name": "E4",
          "midi": 64,
          "time": 73.17075000000042,
          "velocity": 0.889763779527559,
          "duration": 0.2997968229167185
        },
        {
          "name": "E4",
          "midi": 64,
          "time": 73.19107520833376,
          "velocity": 0.889763779527559,
          "duration": 0.45223588541672655
        },
        {
          "name": "D2",
          "midi": 38,
          "time": 73.29270125000045,
          "velocity": 1,
          "duration": 0.010162604166666256
        },
        {
          "name": "F#4",
          "midi": 66,
          "time": 73.39432729166712,
          "velocity": 0.3700787401574803,
          "duration": 0.010162604166666256
        },
        {
          "name": "E2",
          "midi": 40,
          "time": 73.41465250000046,
          "velocity": 1,
          "duration": 0.2794716145834002
        },
        {
          "name": "A3",
          "midi": 57,
          "time": 73.41465250000046,
          "velocity": 0.5748031496062992,
          "duration": 0.05081302083334549
        },
        {
          "name": "E4",
          "midi": 64,
          "time": 73.41465250000046,
          "velocity": 0.5196850393700787,
          "duration": 0.248983802083373
        },
        {
          "name": "C4",
          "midi": 60,
          "time": 73.41465250000046,
          "velocity": 0.5984251968503937,
          "duration": 0.05081302083334549
        },
        {
          "name": "C5",
          "midi": 72,
          "time": 73.41465250000046,
          "velocity": 0.8110236220472441,
          "duration": 0.10162604166669098
        },
        {
          "name": "G4",
          "midi": 67,
          "time": 73.41465250000046,
          "velocity": 0.5196850393700787,
          "duration": 0.09146343750002472
        },
        {
          "name": "D2",
          "midi": 38,
          "time": 73.41465250000046,
          "velocity": 0.9212598425196851,
          "duration": 0.010162604166666256
        },
        {
          "name": "F#2",
          "midi": 42,
          "time": 73.41465250000046,
          "velocity": 0.47244094488188976,
          "duration": 0.010162604166666256
        },
        {
          "name": "E5",
          "midi": 76,
          "time": 73.41465250000046,
          "velocity": 0.6614173228346457,
          "duration": 0.10162604166669098
        },
        {
          "name": "E4",
          "midi": 64,
          "time": 73.41465250000046,
          "velocity": 0.5196850393700787,
          "duration": 0.30487812500007294
        },
        {
          "name": "C4",
          "midi": 60,
          "time": 73.41465250000046,
          "velocity": 0.5984251968503937,
          "duration": 0.05081302083334549
        },
        {
          "name": "B5",
          "midi": 83,
          "time": 73.42481510416712,
          "velocity": 0.8818897637795275,
          "duration": 0.12195125000002349
        },
        {
          "name": "D2",
          "midi": 38,
          "time": 73.53660375000048,
          "velocity": 1,
          "duration": 0.010162604166666256
        },
        {
          "name": "G4",
          "midi": 67,
          "time": 73.63822979166714,
          "velocity": 0.49606299212598426,
          "duration": 0.13719515625007261
        },
        {
          "name": "C4",
          "midi": 60,
          "time": 73.65855500000049,
          "velocity": 0.49606299212598426,
          "duration": 0.05081302083337391
        },
        {
          "name": "C2",
          "midi": 36,
          "time": 73.65855500000049,
          "velocity": 0.8110236220472441,
          "duration": 0.2743903125001026
        },
        {
          "name": "B4",
          "midi": 71,
          "time": 73.65855500000049,
          "velocity": 0.8346456692913385,
          "duration": 0.4522358854167834
        },
        {
          "name": "E4",
          "midi": 64,
          "time": 73.65855500000049,
          "velocity": 0.47244094488188976,
          "duration": 0.06097562500004017
        },
        {
          "name": "E4",
          "midi": 64,
          "time": 73.65855500000049,
          "velocity": 0.47244094488188976,
          "duration": 0.12195125000006612
        },
        {
          "name": "C4",
          "midi": 60,
          "time": 73.65855500000049,
          "velocity": 0.49606299212598426,
          "duration": 0.05081302083337391
        },
        {
          "name": "D#2",
          "midi": 39,
          "time": 73.65855500000049,
          "velocity": 1,
          "duration": 0.010162604166680467
        },
        {
          "name": "F#2",
          "midi": 42,
          "time": 73.65855500000049,
          "velocity": 1,
          "duration": 0.22865859375006892
        },
        {
          "name": "C5",
          "midi": 72,
          "time": 73.65855500000049,
          "velocity": 0.7559055118110236,
          "duration": 0.11686994791672589
        },
        {
          "name": "A3",
          "midi": 57,
          "time": 73.65855500000049,
          "velocity": 0.48031496062992124,
          "duration": 0.06097562500004017
        },
        {
          "name": "E5",
          "midi": 76,
          "time": 73.67379890625051,
          "velocity": 0.6614173228346457,
          "duration": 0.10162604166670519
        },
        {
          "name": "B4",
          "midi": 71,
          "time": 73.67888020833385,
          "velocity": 0.8346456692913385,
          "duration": 0.4522358854167692
        },
        {
          "name": "B5",
          "midi": 83,
          "time": 73.67888020833385,
          "velocity": 0.8818897637795275,
          "duration": 0.09146343750002472
        },
        {
          "name": "D2",
          "midi": 38,
          "time": 73.78050625000056,
          "velocity": 0.4251968503937008,
          "duration": 0.010162604166666256
        },
        {
          "name": "G4",
          "midi": 67,
          "time": 73.8922948958339,
          "velocity": 0.3464566929133858,
          "duration": 0.025406510416686956
        },
        {
          "name": "A4",
          "midi": 69,
          "time": 73.90245750000057,
          "velocity": 0.9921259842519685,
          "duration": 0.2439025000000612
        },
        {
          "name": "C5",
          "midi": 72,
          "time": 73.90245750000057,
          "velocity": 0.84251968503937,
          "duration": 0.11686994791669747
        },
        {
          "name": "D2",
          "midi": 38,
          "time": 73.90245750000057,
          "velocity": 0.8503937007874016,
          "duration": 0.010162604166680467
        },
        {
          "name": "E2",
          "midi": 40,
          "time": 73.90245750000057,
          "velocity": 1,
          "duration": 0.21341468750004822
        },
        {
          "name": "F#2",
          "midi": 42,
          "time": 73.90245750000057,
          "velocity": 0.47244094488188976,
          "duration": 0.010162604166680467
        },
        {
          "name": "E5",
          "midi": 76,
          "time": 73.9075388020839,
          "velocity": 0.5748031496062992,
          "duration": 0.11686994791669747
        },
        {
          "name": "B5",
          "midi": 83,
          "time": 73.91262010416725,
          "velocity": 0.8818897637795275,
          "duration": 0.106707343750017
        },
        {
          "name": "D2",
          "midi": 38,
          "time": 74.0244087500006,
          "velocity": 1,
          "duration": 0.010162604166666256
        },
        {
          "name": "A1",
          "midi": 33,
          "time": 74.14636000000063,
          "velocity": 1,
          "duration": 0.27439031250004575
        },
        {
          "name": "E4",
          "midi": 64,
          "time": 74.14636000000063,
          "velocity": 0.7322834645669292,
          "duration": 0.11178864583334303
        },
        {
          "name": "D2",
          "midi": 38,
          "time": 74.14636000000063,
          "velocity": 1,
          "duration": 0.010162604166666256
        },
        {
          "name": "C4",
          "midi": 60,
          "time": 74.14636000000063,
          "velocity": 0.5275590551181102,
          "duration": 0.08638213541667028
        },
        {
          "name": "A4",
          "midi": 69,
          "time": 74.14636000000063,
          "velocity": 0.7244094488188977,
          "duration": 0.41666677083337333
        },
        {
          "name": "G4",
          "midi": 67,
          "time": 74.14636000000063,
          "velocity": 0.6929133858267716,
          "duration": 0.11178864583334303
        },
        {
          "name": "A1",
          "midi": 33,
          "time": 74.14636000000063,
          "velocity": 0.7874015748031497,
          "duration": 0.3048781250000445
        },
        {
          "name": "E4",
          "midi": 64,
          "time": 74.14636000000063,
          "velocity": 0.5275590551181102,
          "duration": 0.11178864583334303
        },
        {
          "name": "C4",
          "midi": 60,
          "time": 74.14636000000063,
          "velocity": 0.5275590551181102,
          "duration": 0.08638213541667028
        },
        {
          "name": "E4",
          "midi": 64,
          "time": 74.14636000000063,
          "velocity": 0.5275590551181102,
          "duration": 0.9146343750001051
        },
        {
          "name": "A3",
          "midi": 57,
          "time": 74.14636000000063,
          "velocity": 0.5354330708661418,
          "duration": 0.09146343750001051
        },
        {
          "name": "E5",
          "midi": 76,
          "time": 74.1565226041673,
          "velocity": 0.8188976377952756,
          "duration": 0.13211385416667554
        },
        {
          "name": "C5",
          "midi": 72,
          "time": 74.1565226041673,
          "velocity": 0.8267716535433071,
          "duration": 0.11178864583334303
        },
        {
          "name": "B5",
          "midi": 83,
          "time": 74.16668520833396,
          "velocity": 0.8818897637795275,
          "duration": 0.12195125000000928
        },
        {
          "name": "A4",
          "midi": 69,
          "time": 74.16668520833396,
          "velocity": 0.7244094488188977,
          "duration": 0.9502034895834583
        },
        {
          "name": "D2",
          "midi": 38,
          "time": 74.26831125000064,
          "velocity": 1,
          "duration": 0.010162604166666256
        },
        {
          "name": "F#4",
          "midi": 66,
          "time": 74.3851811979173,
          "velocity": 0.28346456692913385,
          "duration": 0.005081302083340233
        },
        {
          "name": "F#2",
          "midi": 42,
          "time": 74.39026250000065,
          "velocity": 0.47244094488188976,
          "duration": 0.010162604166680467
        },
        {
          "name": "D2",
          "midi": 38,
          "time": 74.39026250000065,
          "velocity": 0.9212598425196851,
          "duration": 0.010162604166680467
        },
        {
          "name": "A4",
          "midi": 69,
          "time": 74.39026250000065,
          "velocity": 1,
          "duration": 0.7469514062501332
        },
        {
          "name": "G4",
          "midi": 67,
          "time": 74.39026250000065,
          "velocity": 0.49606299212598426,
          "duration": 0.08130083333335847
        },
        {
          "name": "C5",
          "midi": 72,
          "time": 74.39534380208399,
          "velocity": 0.8503937007874016,
          "duration": 0.106707343750017
        },
        {
          "name": "E5",
          "midi": 76,
          "time": 74.40042510416733,
          "velocity": 0.6456692913385826,
          "duration": 0.13211385416667554
        },
        {
          "name": "B5",
          "midi": 83,
          "time": 74.40550640625067,
          "velocity": 0.8582677165354331,
          "duration": 0.11686994791666905
        },
        {
          "name": "D2",
          "midi": 38,
          "time": 74.51221375000067,
          "velocity": 1,
          "duration": 0.010162604166666256
        },
        {
          "name": "G4",
          "midi": 67,
          "time": 74.62908369791734,
          "velocity": 0.48031496062992124,
          "duration": 0.0152439062500207
        },
        {
          "name": "C2",
          "midi": 36,
          "time": 74.63416500000068,
          "velocity": 0.84251968503937,
          "duration": 0.3252033333333628
        },
        {
          "name": "D#2",
          "midi": 39,
          "time": 74.63416500000068,
          "velocity": 1,
          "duration": 0.010162604166680467
        },
        {
          "name": "C5",
          "midi": 72,
          "time": 74.63416500000068,
          "velocity": 0.8267716535433071,
          "duration": 0.11686994791668326
        },
        {
          "name": "B4",
          "midi": 71,
          "time": 74.63416500000068,
          "velocity": 0.905511811023622,
          "duration": 0.20325208333335354
        },
        {
          "name": "E5",
          "midi": 76,
          "time": 74.63924630208402,
          "velocity": 0.6377952755905512,
          "duration": 0.11178864583334303
        },
        {
          "name": "B5",
          "midi": 83,
          "time": 74.64432760416736,
          "velocity": 0.8818897637795275,
          "duration": 0.11686994791666905
        },
        {
          "name": "G4",
          "midi": 67,
          "time": 74.86790489583403,
          "velocity": 0.5826771653543307,
          "duration": 0.11686994791668326
        },
        {
          "name": "C5",
          "midi": 72,
          "time": 74.87298619791737,
          "velocity": 0.7637795275590551,
          "duration": 0.12195125000002349
        },
        {
          "name": "E4",
          "midi": 64,
          "time": 74.87806750000071,
          "velocity": 0.5590551181102362,
          "duration": 0.44715458333342895
        },
        {
          "name": "C4",
          "midi": 60,
          "time": 74.87806750000071,
          "velocity": 0.5984251968503937,
          "duration": 0.4369919791667627
        },
        {
          "name": "C5",
          "midi": 72,
          "time": 74.87806750000071,
          "velocity": 0.952755905511811,
          "duration": 0.19817078125002752
        },
        {
          "name": "C4",
          "midi": 60,
          "time": 74.87806750000071,
          "velocity": 0.5984251968503937,
          "duration": 0.4369919791667627
        },
        {
          "name": "C2",
          "midi": 36,
          "time": 74.87806750000071,
          "velocity": 1,
          "duration": 0.213414687500034
        },
        {
          "name": "A3",
          "midi": 57,
          "time": 74.87806750000071,
          "velocity": 0.6220472440944882,
          "duration": 0.43191067708342246
        },
        {
          "name": "E4",
          "midi": 64,
          "time": 74.87806750000071,
          "velocity": 0.5590551181102362,
          "duration": 0.44715458333342895
        },
        {
          "name": "F#2",
          "midi": 42,
          "time": 74.87806750000071,
          "velocity": 0.47244094488188976,
          "duration": 0.010162604166666256
        },
        {
          "name": "D#2",
          "midi": 39,
          "time": 74.87806750000071,
          "velocity": 0.8661417322834646,
          "duration": 0.010162604166666256
        },
        {
          "name": "E5",
          "midi": 76,
          "time": 74.87806750000071,
          "velocity": 0.6141732283464567,
          "duration": 0.10670734375000279
        },
        {
          "name": "B5",
          "midi": 83,
          "time": 74.88823010416738,
          "velocity": 0.8346456692913385,
          "duration": 0.10162604166667677
        },
        {
          "name": "D2",
          "midi": 38,
          "time": 75.00001875000073,
          "velocity": 1,
          "duration": 0.010162604166666256
        },
        {
          "name": "G4",
          "midi": 67,
          "time": 75.11688869791742,
          "velocity": 0.5590551181102362,
          "duration": 0.11178864583337145
        },
        {
          "name": "D2",
          "midi": 38,
          "time": 75.12197000000076,
          "velocity": 1,
          "duration": 0.010162604166680467
        },
        {
          "name": "E4",
          "midi": 64,
          "time": 75.12197000000076,
          "velocity": 0.8346456692913385,
          "duration": 0.2997968229167469
        },
        {
          "name": "E2",
          "midi": 40,
          "time": 75.12197000000076,
          "velocity": 0.7559055118110236,
          "duration": 0.32012203125009364
        },
        {
          "name": "B4",
          "midi": 71,
          "time": 75.12197000000076,
          "velocity": 0.9291338582677166,
          "duration": 0.5436993229168081
        },
        {
          "name": "C5",
          "midi": 72,
          "time": 75.1270513020841,
          "velocity": 0.8110236220472441,
          "duration": 0.09654473958335075
        },
        {
          "name": "E5",
          "midi": 76,
          "time": 75.13721390625078,
          "velocity": 0.6692913385826772,
          "duration": 0.09654473958335075
        },
        {
          "name": "B5",
          "midi": 83,
          "time": 75.14229520833412,
          "velocity": 0.7322834645669292,
          "duration": 0.010162604166666256
        },
        {
          "name": "E4",
          "midi": 64,
          "time": 75.14229520833412,
          "velocity": 0.8346456692913385,
          "duration": 0.279471614583386
        },
        {
          "name": "B5",
          "midi": 83,
          "time": 75.15245781250078,
          "velocity": 0.8818897637795275,
          "duration": 0.07113822916666379
        },
        {
          "name": "D2",
          "midi": 38,
          "time": 75.2439212500008,
          "velocity": 1,
          "duration": 0.010162604166666256
        },
        {
          "name": "G4",
          "midi": 67,
          "time": 75.35062859375081,
          "velocity": 0.5275590551181102,
          "duration": 0.08130083333335847
        },
        {
          "name": "C5",
          "midi": 72,
          "time": 75.35570989583415,
          "velocity": 0.7559055118110236,
          "duration": 0.08130083333335847
        },
        {
          "name": "E5",
          "midi": 76,
          "time": 75.3607911979175,
          "velocity": 0.6377952755905512,
          "duration": 0.09146343750003894
        },
        {
          "name": "E2",
          "midi": 40,
          "time": 75.36587250000083,
          "velocity": 1,
          "duration": 0.2997968229167327
        },
        {
          "name": "E4",
          "midi": 64,
          "time": 75.36587250000083,
          "velocity": 0.5196850393700787,
          "duration": 0.30487812500007294
        },
        {
          "name": "D2",
          "midi": 38,
          "time": 75.36587250000083,
          "velocity": 0.9212598425196851,
          "duration": 0.010162604166666256
        },
        {
          "name": "E4",
          "midi": 64,
          "time": 75.36587250000083,
          "velocity": 0.5196850393700787,
          "duration": 0.30487812500007294
        },
        {
          "name": "C4",
          "midi": 60,
          "time": 75.36587250000083,
          "velocity": 0.5984251968503937,
          "duration": 0.05081302083333128
        },
        {
          "name": "A3",
          "midi": 57,
          "time": 75.36587250000083,
          "velocity": 0.5748031496062992,
          "duration": 0.05081302083333128
        },
        {
          "name": "C4",
          "midi": 60,
          "time": 75.36587250000083,
          "velocity": 0.5984251968503937,
          "duration": 0.05081302083333128
        },
        {
          "name": "F#2",
          "midi": 42,
          "time": 75.36587250000083,
          "velocity": 0.47244094488188976,
          "duration": 0.010162604166666256
        },
        {
          "name": "B5",
          "midi": 83,
          "time": 75.3760351041675,
          "velocity": 0.8818897637795275,
          "duration": 0.07113822916669221
        },
        {
          "name": "D2",
          "midi": 38,
          "time": 75.48782375000087,
          "velocity": 1,
          "duration": 0.010162604166666256
        },
        {
          "name": "G4",
          "midi": 67,
          "time": 75.58944979166753,
          "velocity": 0.5039370078740157,
          "duration": 0.10162604166670519
        },
        {
          "name": "E4",
          "midi": 64,
          "time": 75.60977500000087,
          "velocity": 0.47244094488188976,
          "duration": 0.06097562500004017
        },
        {
          "name": "D#2",
          "midi": 39,
          "time": 75.60977500000087,
          "velocity": 1,
          "duration": 0.010162604166666256
        },
        {
          "name": "C2",
          "midi": 36,
          "time": 75.60977500000087,
          "velocity": 0.7244094488188977,
          "duration": 0.19308947916672992
        },
        {
          "name": "B4",
          "midi": 71,
          "time": 75.60977500000087,
          "velocity": 0.8346456692913385,
          "duration": 0.4878050000001224
        },
        {
          "name": "C4",
          "midi": 60,
          "time": 75.60977500000087,
          "velocity": 0.49606299212598426,
          "duration": 0.0508130208333597
        },
        {
          "name": "A3",
          "midi": 57,
          "time": 75.60977500000087,
          "velocity": 0.48031496062992124,
          "duration": 0.06097562500004017
        },
        {
          "name": "B4",
          "midi": 71,
          "time": 75.60977500000087,
          "velocity": 0.8346456692913385,
          "duration": 0.4878050000001224
        },
        {
          "name": "C5",
          "midi": 72,
          "time": 75.60977500000087,
          "velocity": 0.7716535433070866,
          "duration": 0.09654473958337917
        },
        {
          "name": "F#2",
          "midi": 42,
          "time": 75.60977500000087,
          "velocity": 1,
          "duration": 0.24898380208341564
        },
        {
          "name": "C4",
          "midi": 60,
          "time": 75.60977500000087,
          "velocity": 0.49606299212598426,
          "duration": 0.0508130208333597
        },
        {
          "name": "E4",
          "midi": 64,
          "time": 75.60977500000087,
          "velocity": 0.47244094488188976,
          "duration": 0.08130083333337268
        },
        {
          "name": "E5",
          "midi": 76,
          "time": 75.62501890625087,
          "velocity": 0.6929133858267716,
          "duration": 0.08638213541671291
        },
        {
          "name": "B5",
          "midi": 83,
          "time": 75.63518151041755,
          "velocity": 0.8818897637795275,
          "duration": 0.10162604166670519
        },
        {
          "name": "D2",
          "midi": 38,
          "time": 75.73172625000092,
          "velocity": 0.4251968503937008,
          "duration": 0.010162604166680467
        },
        {
          "name": "G#4",
          "midi": 68,
          "time": 75.83843359375093,
          "velocity": 0.3464566929133858,
          "duration": 0.010162604166666256
        },
        {
          "name": "F#2",
          "midi": 42,
          "time": 75.85367750000094,
          "velocity": 0.47244094488188976,
          "duration": 0.010162604166680467
        },
        {
          "name": "G4",
          "midi": 67,
          "time": 75.85367750000094,
          "velocity": 0.4094488188976378,
          "duration": 0.10670734375003121
        },
        {
          "name": "D2",
          "midi": 38,
          "time": 75.85367750000094,
          "velocity": 0.8503937007874016,
          "duration": 0.010162604166680467
        },
        {
          "name": "E2",
          "midi": 40,
          "time": 75.85367750000094,
          "velocity": 1,
          "duration": 0.18800817708337547
        },
        {
          "name": "C5",
          "midi": 72,
          "time": 75.85875880208428,
          "velocity": 0.7637795275590551,
          "duration": 0.10670734375003121
        },
        {
          "name": "E5",
          "midi": 76,
          "time": 75.86384010416762,
          "velocity": 0.5590551181102362,
          "duration": 0.08130083333334426
        },
        {
          "name": "B5",
          "midi": 83,
          "time": 75.86892140625096,
          "velocity": 0.7637795275590551,
          "duration": 0.11686994791668326
        },
        {
          "name": "D2",
          "midi": 38,
          "time": 75.97562875000098,
          "velocity": 1,
          "duration": 0.010162604166666256
        },
        {
          "name": "A4",
          "midi": 69,
          "time": 76.09758000000099,
          "velocity": 0.7086614173228346,
          "duration": 0.10162604166670519
        },
        {
          "name": "D2",
          "midi": 38,
          "time": 76.09758000000099,
          "velocity": 1,
          "duration": 0.010162604166680467
        },
        {
          "name": "D4",
          "midi": 62,
          "time": 76.09758000000099,
          "velocity": 0.5748031496062992,
          "duration": 0.03556911458335321
        },
        {
          "name": "A4",
          "midi": 69,
          "time": 76.09758000000099,
          "velocity": 0.7007874015748031,
          "duration": 0.18800817708337547
        },
        {
          "name": "D2",
          "midi": 38,
          "time": 76.09758000000099,
          "velocity": 0.8110236220472441,
          "duration": 0.13211385416670396
        },
        {
          "name": "A3",
          "midi": 57,
          "time": 76.09758000000099,
          "velocity": 0.5433070866141733,
          "duration": 0.0508130208333597
        },
        {
          "name": "F4",
          "midi": 65,
          "time": 76.09758000000099,
          "velocity": 0.6614173228346457,
          "duration": 0.04573171875001947
        },
        {
          "name": "C4",
          "midi": 60,
          "time": 76.09758000000099,
          "velocity": 0.4881889763779528,
          "duration": 0.07621953125003245
        },
        {
          "name": "D2",
          "midi": 38,
          "time": 76.09758000000099,
          "velocity": 1,
          "duration": 0.25406510416672745
        },
        {
          "name": "F4",
          "midi": 65,
          "time": 76.09758000000099,
          "velocity": 0.6614173228346457,
          "duration": 0.04573171875001947
        },
        {
          "name": "D4",
          "midi": 62,
          "time": 76.09758000000099,
          "velocity": 0.5748031496062992,
          "duration": 0.03556911458335321
        },
        {
          "name": "F4",
          "midi": 65,
          "time": 76.10266130208433,
          "velocity": 0.9212598425196851,
          "duration": 0.09654473958336496
        },
        {
          "name": "E5",
          "midi": 76,
          "time": 76.11790520833434,
          "velocity": 0.937007874015748,
          "duration": 0.09146343750002472
        },
        {
          "name": "A4",
          "midi": 69,
          "time": 76.11790520833434,
          "velocity": 0.6062992125984252,
          "duration": 0.3302846354167315
        },
        {
          "name": "A4",
          "midi": 69,
          "time": 76.11790520833434,
          "velocity": 0.7007874015748031,
          "duration": 0.569105833333424
        },
        {
          "name": "D2",
          "midi": 38,
          "time": 76.21953125000103,
          "velocity": 1,
          "duration": 0.16768296875004296
        },
        {
          "name": "D2",
          "midi": 38,
          "time": 76.34148250000104,
          "velocity": 0.9212598425196851,
          "duration": 0.11178864583337145
        },
        {
          "name": "E5",
          "midi": 76,
          "time": 76.34148250000104,
          "velocity": 0.9133858267716536,
          "duration": 0.010162604166680467
        },
        {
          "name": "D5",
          "midi": 74,
          "time": 76.34148250000104,
          "velocity": 0.8818897637795275,
          "duration": 0.16260166666670273
        },
        {
          "name": "F#2",
          "midi": 42,
          "time": 76.34148250000104,
          "velocity": 0.47244094488188976,
          "duration": 0.010162604166680467
        },
        {
          "name": "F4",
          "midi": 65,
          "time": 76.34656380208438,
          "velocity": 0.9212598425196851,
          "duration": 0.10162604166669098
        },
        {
          "name": "A4",
          "midi": 69,
          "time": 76.35672640625106,
          "velocity": 0.6062992125984252,
          "duration": 0.5741871354167216
        },
        {
          "name": "E5",
          "midi": 76,
          "time": 76.3618077083344,
          "velocity": 0.937007874015748,
          "duration": 0.09146343750001051
        },
        {
          "name": "D2",
          "midi": 38,
          "time": 76.46343375000107,
          "velocity": 1,
          "duration": 0.010162604166666256
        },
        {
          "name": "C4",
          "midi": 60,
          "time": 76.5752223958344,
          "velocity": 0.3700787401574803,
          "duration": 0.10162604166669098
        },
        {
          "name": "F2",
          "midi": 41,
          "time": 76.58538500000107,
          "velocity": 0.8110236220472441,
          "duration": 0.30995942708337054
        },
        {
          "name": "E5",
          "midi": 76,
          "time": 76.58538500000107,
          "velocity": 1,
          "duration": 0.10162604166669098
        },
        {
          "name": "D#2",
          "midi": 39,
          "time": 76.58538500000107,
          "velocity": 1,
          "duration": 0.010162604166680467
        },
        {
          "name": "F4",
          "midi": 65,
          "time": 76.59046630208441,
          "velocity": 0.8503937007874016,
          "duration": 0.09654473958335075
        },
        {
          "name": "A4",
          "midi": 69,
          "time": 76.60062890625109,
          "velocity": 0.4566929133858268,
          "duration": 0.5894310416667281
        },
        {
          "name": "E5",
          "midi": 76,
          "time": 76.60571020833443,
          "velocity": 0.937007874015748,
          "duration": 0.1829268749999926
        },
        {
          "name": "D4",
          "midi": 62,
          "time": 76.82928750000109,
          "velocity": 0.6850393700787402,
          "duration": 0.5945123437500968
        },
        {
          "name": "F4",
          "midi": 65,
          "time": 76.82928750000109,
          "velocity": 0.6456692913385826,
          "duration": 0.10670734375003121
        },
        {
          "name": "F4",
          "midi": 65,
          "time": 76.82928750000109,
          "velocity": 0.6456692913385826,
          "duration": 0.34552854166672375
        },
        {
          "name": "F2",
          "midi": 41,
          "time": 76.82928750000109,
          "velocity": 1,
          "duration": 0.2642277083333795
        },
        {
          "name": "D#2",
          "midi": 39,
          "time": 76.82928750000109,
          "velocity": 0.8661417322834646,
          "duration": 0.010162604166680467
        },
        {
          "name": "D4",
          "midi": 62,
          "time": 76.82928750000109,
          "velocity": 0.6850393700787402,
          "duration": 0.5945123437500968
        },
        {
          "name": "A3",
          "midi": 57,
          "time": 76.82928750000109,
          "velocity": 0.6220472440944882,
          "duration": 0.5945123437500968
        },
        {
          "name": "F4",
          "midi": 65,
          "time": 76.82928750000109,
          "velocity": 0.7322834645669292,
          "duration": 0.5894310416667565
        },
        {
          "name": "F#2",
          "midi": 42,
          "time": 76.82928750000109,
          "velocity": 0.47244094488188976,
          "duration": 0.010162604166680467
        },
        {
          "name": "F5",
          "midi": 77,
          "time": 76.82928750000109,
          "velocity": 1,
          "duration": 0.1930894791667015
        },
        {
          "name": "E5",
          "midi": 76,
          "time": 76.82928750000109,
          "velocity": 0.7244094488188977,
          "duration": 0.005081302083340233
        },
        {
          "name": "A4",
          "midi": 69,
          "time": 76.83945010416777,
          "velocity": 0.5039370078740157,
          "duration": 0.5792684375000761
        },
        {
          "name": "E5",
          "midi": 76,
          "time": 76.84961270833443,
          "velocity": 0.8661417322834646,
          "duration": 0.10162604166669098
        },
        {
          "name": "D2",
          "midi": 38,
          "time": 76.95123875000112,
          "velocity": 1,
          "duration": 0.010162604166666256
        },
        {
          "name": "C4",
          "midi": 60,
          "time": 77.06302739583445,
          "velocity": 0.5275590551181102,
          "duration": 0.09654473958335075
        },
        {
          "name": "F4",
          "midi": 65,
          "time": 77.0681086979178,
          "velocity": 0.7322834645669292,
          "duration": 0.36585375000005627
        },
        {
          "name": "A4",
          "midi": 69,
          "time": 77.07319000000113,
          "velocity": 0.6220472440944882,
          "duration": 0.4471545833333863
        },
        {
          "name": "A2",
          "midi": 45,
          "time": 77.07319000000113,
          "velocity": 0.8110236220472441,
          "duration": 0.2997968229167043
        },
        {
          "name": "E5",
          "midi": 76,
          "time": 77.07319000000113,
          "velocity": 1,
          "duration": 0.12195125000002349
        },
        {
          "name": "E5",
          "midi": 76,
          "time": 77.07319000000113,
          "velocity": 0.8818897637795275,
          "duration": 0.3760163541667225
        },
        {
          "name": "D2",
          "midi": 38,
          "time": 77.07319000000113,
          "velocity": 1,
          "duration": 0.010162604166666256
        },
        {
          "name": "D2",
          "midi": 38,
          "time": 77.19514125000116,
          "velocity": 1,
          "duration": 0.010162604166666256
        },
        {
          "name": "B3",
          "midi": 59,
          "time": 77.29676729166782,
          "velocity": 0.5590551181102362,
          "duration": 0.025406510416672745
        },
        {
          "name": "F4",
          "midi": 65,
          "time": 77.31709250000115,
          "velocity": 0.9212598425196851,
          "duration": 0.11686994791669747
        },
        {
          "name": "F#2",
          "midi": 42,
          "time": 77.31709250000115,
          "velocity": 0.47244094488188976,
          "duration": 0.010162604166680467
        },
        {
          "name": "D2",
          "midi": 38,
          "time": 77.31709250000115,
          "velocity": 0.9212598425196851,
          "duration": 0.010162604166680467
        },
        {
          "name": "A2",
          "midi": 45,
          "time": 77.31709250000115,
          "velocity": 1,
          "duration": 0.24390250000003277
        },
        {
          "name": "A4",
          "midi": 69,
          "time": 77.31709250000115,
          "velocity": 0.5984251968503937,
          "duration": 0.22357729166670026
        },
        {
          "name": "C4",
          "midi": 60,
          "time": 77.31709250000115,
          "velocity": 0.47244094488188976,
          "duration": 0.09146343750002472
        },
        {
          "name": "E5",
          "midi": 76,
          "time": 77.32725510416783,
          "velocity": 0.8818897637795275,
          "duration": 0.34552854166672375
        },
        {
          "name": "D2",
          "midi": 38,
          "time": 77.43904375000119,
          "velocity": 1,
          "duration": 0.010162604166666256
        },
        {
          "name": "C4",
          "midi": 60,
          "time": 77.54066979166785,
          "velocity": 0.44881889763779526,
          "duration": 0.1371951562500442
        },
        {
          "name": "F4",
          "midi": 65,
          "time": 77.56099500000118,
          "velocity": 0.8661417322834646,
          "duration": 0.07113822916669221
        },
        {
          "name": "F4",
          "midi": 65,
          "time": 77.56099500000118,
          "velocity": 0.6456692913385826,
          "duration": 0.07113822916669221
        },
        {
          "name": "D#2",
          "midi": 39,
          "time": 77.56099500000118,
          "velocity": 1,
          "duration": 0.010162604166666256
        },
        {
          "name": "D4",
          "midi": 62,
          "time": 77.56099500000118,
          "velocity": 0.5590551181102362,
          "duration": 0.06605692708335198
        },
        {
          "name": "B2",
          "midi": 47,
          "time": 77.56099500000118,
          "velocity": 1,
          "duration": 0.21849598958338845
        },
        {
          "name": "A3",
          "midi": 57,
          "time": 77.56099500000118,
          "velocity": 0.5748031496062992,
          "duration": 0.07113822916669221
        },
        {
          "name": "F2",
          "midi": 41,
          "time": 77.56099500000118,
          "velocity": 0.8110236220472441,
          "duration": 0.35569114583341843
        },
        {
          "name": "F4",
          "midi": 65,
          "time": 77.56099500000118,
          "velocity": 0.6456692913385826,
          "duration": 0.11686994791671168
        },
        {
          "name": "E5",
          "midi": 76,
          "time": 77.56099500000118,
          "velocity": 0.8346456692913385,
          "duration": 0.18292687500004945
        },
        {
          "name": "D4",
          "midi": 62,
          "time": 77.56099500000118,
          "velocity": 0.5590551181102362,
          "duration": 0.06605692708335198
        },
        {
          "name": "A4",
          "midi": 69,
          "time": 77.57623890625119,
          "velocity": 0.5984251968503937,
          "duration": 0.10162604166670519
        },
        {
          "name": "E5",
          "midi": 76,
          "time": 77.58132020833453,
          "velocity": 0.8346456692913385,
          "duration": 0.34044723958341194
        },
        {
          "name": "E5",
          "midi": 76,
          "time": 77.58132020833453,
          "velocity": 0.9291338582677166,
          "duration": 0.4573171875000952
        },
        {
          "name": "D2",
          "midi": 38,
          "time": 77.68294625000124,
          "velocity": 0.4251968503937008,
          "duration": 0.010162604166666256
        },
        {
          "name": "C4",
          "midi": 60,
          "time": 77.79473489583458,
          "velocity": 0.31496062992125984,
          "duration": 0.025406510416686956
        },
        {
          "name": "F4",
          "midi": 65,
          "time": 77.80489750000125,
          "velocity": 0.8110236220472441,
          "duration": 0.11686994791669747
        },
        {
          "name": "D2",
          "midi": 38,
          "time": 77.80489750000125,
          "velocity": 0.8503937007874016,
          "duration": 0.010162604166680467
        },
        {
          "name": "F#2",
          "midi": 42,
          "time": 77.80489750000125,
          "velocity": 0.47244094488188976,
          "duration": 0.010162604166680467
        },
        {
          "name": "D5",
          "midi": 74,
          "time": 77.80489750000125,
          "velocity": 0.9291338582677166,
          "duration": 0.24390250000004698
        },
        {
          "name": "A2",
          "midi": 45,
          "time": 77.80489750000125,
          "velocity": 1,
          "duration": 0.2286585937500405
        },
        {
          "name": "A4",
          "midi": 69,
          "time": 77.80997880208459,
          "velocity": 0.5196850393700787,
          "duration": 0.11686994791669747
        },
        {
          "name": "E5",
          "midi": 76,
          "time": 77.81506010416793,
          "velocity": 0.937007874015748,
          "duration": 0.24390250000003277
        },
        {
          "name": "D2",
          "midi": 38,
          "time": 77.92684875000128,
          "velocity": 1,
          "duration": 0.010162604166666256
        },
        {
          "name": "F4",
          "midi": 65,
          "time": 78.0488000000013,
          "velocity": 0.4015748031496063,
          "duration": 0.060975625000011746
        },
        {
          "name": "D4",
          "midi": 62,
          "time": 78.0488000000013,
          "velocity": 0.48031496062992124,
          "duration": 0.060975625000011746
        },
        {
          "name": "D2",
          "midi": 38,
          "time": 78.0488000000013,
          "velocity": 1,
          "duration": 0.010162604166666256
        },
        {
          "name": "C4",
          "midi": 60,
          "time": 78.0488000000013,
          "velocity": 0.6299212598425197,
          "duration": 0.11178864583335724
        },
        {
          "name": "D2",
          "midi": 38,
          "time": 78.0488000000013,
          "velocity": 0.8110236220472441,
          "duration": 0.13211385416668975
        },
        {
          "name": "D4",
          "midi": 62,
          "time": 78.0488000000013,
          "velocity": 0.48031496062992124,
          "duration": 0.060975625000011746
        },
        {
          "name": "F4",
          "midi": 65,
          "time": 78.0488000000013,
          "velocity": 0.4015748031496063,
          "duration": 0.060975625000011746
        },
        {
          "name": "A4",
          "midi": 69,
          "time": 78.0488000000013,
          "velocity": 0.7480314960629921,
          "duration": 0.142276458333356
        },
        {
          "name": "D2",
          "midi": 38,
          "time": 78.0488000000013,
          "velocity": 1,
          "duration": 0.25406510416672745
        },
        {
          "name": "A3",
          "midi": 57,
          "time": 78.0488000000013,
          "velocity": 0.2992125984251969,
          "duration": 0.05081302083334549
        },
        {
          "name": "A4",
          "midi": 69,
          "time": 78.05896260416796,
          "velocity": 0.7401574803149606,
          "duration": 0.20833338541669377
        },
        {
          "name": "F4",
          "midi": 65,
          "time": 78.05896260416796,
          "velocity": 0.8503937007874016,
          "duration": 0.11178864583335724
        },
        {
          "name": "E5",
          "midi": 76,
          "time": 78.06912520833463,
          "velocity": 0.889763779527559,
          "duration": 0.12195125000002349
        },
        {
          "name": "D5",
          "midi": 74,
          "time": 78.1097756250013,
          "velocity": 0.889763779527559,
          "duration": 0.350609843750064
        },
        {
          "name": "D5",
          "midi": 74,
          "time": 78.13010083333464,
          "velocity": 0.889763779527559,
          "duration": 0.7621953125001113
        },
        {
          "name": "D2",
          "midi": 38,
          "time": 78.17075125000132,
          "velocity": 1,
          "duration": 0.13211385416670396
        },
        {
          "name": "B3",
          "midi": 59,
          "time": 78.287621197918,
          "velocity": 0.5669291338582677,
          "duration": 0.020325208333360933
        },
        {
          "name": "D2",
          "midi": 38,
          "time": 78.29270250000134,
          "velocity": 0.9212598425196851,
          "duration": 0.025406510416686956
        },
        {
          "name": "D5",
          "midi": 74,
          "time": 78.29270250000134,
          "velocity": 1,
          "duration": 0.6199188541667553
        },
        {
          "name": "C4",
          "midi": 60,
          "time": 78.29270250000134,
          "velocity": 0.44881889763779526,
          "duration": 0.08130083333335847
        },
        {
          "name": "F#2",
          "midi": 42,
          "time": 78.29270250000134,
          "velocity": 0.47244094488188976,
          "duration": 0.010162604166680467
        },
        {
          "name": "F4",
          "midi": 65,
          "time": 78.29778380208468,
          "velocity": 0.8346456692913385,
          "duration": 0.106707343750017
        },
        {
          "name": "A4",
          "midi": 69,
          "time": 78.30286510416802,
          "velocity": 0.5826771653543307,
          "duration": 0.13211385416667554
        },
        {
          "name": "E5",
          "midi": 76,
          "time": 78.30794640625136,
          "velocity": 0.8267716535433071,
          "duration": 0.11686994791666905
        },
        {
          "name": "D2",
          "midi": 38,
          "time": 78.41465375000136,
          "velocity": 1,
          "duration": 0.010162604166666256
        },
        {
          "name": "C4",
          "midi": 60,
          "time": 78.53152369791803,
          "velocity": 0.4330708661417323,
          "duration": 0.0152439062500207
        },
        {
          "name": "D#2",
          "midi": 39,
          "time": 78.53660500000137,
          "velocity": 1,
          "duration": 0.010162604166680467
        },
        {
          "name": "F2",
          "midi": 41,
          "time": 78.53660500000137,
          "velocity": 0.6850393700787402,
          "duration": 0.31504072916669656
        },
        {
          "name": "F4",
          "midi": 65,
          "time": 78.53660500000137,
          "velocity": 0.7716535433070866,
          "duration": 0.11686994791668326
        },
        {
          "name": "E5",
          "midi": 76,
          "time": 78.53660500000137,
          "velocity": 1,
          "duration": 0.12703255208334951
        },
        {
          "name": "A4",
          "midi": 69,
          "time": 78.54168630208471,
          "velocity": 0.5748031496062992,
          "duration": 0.11178864583334303
        },
        {
          "name": "E5",
          "midi": 76,
          "time": 78.54676760416805,
          "velocity": 0.8976377952755905,
          "duration": 0.18292687500000682
        },
        {
          "name": "C4",
          "midi": 60,
          "time": 78.77034489583473,
          "velocity": 0.5275590551181102,
          "duration": 0.11686994791668326
        },
        {
          "name": "F4",
          "midi": 65,
          "time": 78.77542619791807,
          "velocity": 0.7480314960629921,
          "duration": 0.12195125000002349
        },
        {
          "name": "A3",
          "midi": 57,
          "time": 78.7805075000014,
          "velocity": 0.5196850393700787,
          "duration": 0.37601635416673673
        },
        {
          "name": "F4",
          "midi": 65,
          "time": 78.7805075000014,
          "velocity": 0.5748031496062992,
          "duration": 0.34552854166672375
        },
        {
          "name": "F5",
          "midi": 77,
          "time": 78.7805075000014,
          "velocity": 0.968503937007874,
          "duration": 0.20325208333335354
        },
        {
          "name": "A4",
          "midi": 69,
          "time": 78.7805075000014,
          "velocity": 0.5590551181102362,
          "duration": 0.10670734375000279
        },
        {
          "name": "D4",
          "midi": 62,
          "time": 78.7805075000014,
          "velocity": 0.6456692913385826,
          "duration": 0.4065041666667355
        },
        {
          "name": "F2",
          "midi": 41,
          "time": 78.7805075000014,
          "velocity": 1,
          "duration": 0.2591464062500535
        },
        {
          "name": "D4",
          "midi": 62,
          "time": 78.7805075000014,
          "velocity": 0.6456692913385826,
          "duration": 0.4065041666667355
        },
        {
          "name": "D#2",
          "midi": 39,
          "time": 78.7805075000014,
          "velocity": 0.8661417322834646,
          "duration": 0.010162604166666256
        },
        {
          "name": "F4",
          "midi": 65,
          "time": 78.7805075000014,
          "velocity": 0.5748031496062992,
          "duration": 0.4065041666667355
        },
        {
          "name": "F#2",
          "midi": 42,
          "time": 78.7805075000014,
          "velocity": 0.47244094488188976,
          "duration": 0.010162604166666256
        },
        {
          "name": "E5",
          "midi": 76,
          "time": 78.79067010416807,
          "velocity": 0.8031496062992126,
          "duration": 0.10162604166667677
        },
        {
          "name": "D2",
          "midi": 38,
          "time": 78.90245875000143,
          "velocity": 1,
          "duration": 0.010162604166666256
        },
        {
          "name": "C4",
          "midi": 60,
          "time": 79.0193286979181,
          "velocity": 0.5039370078740157,
          "duration": 0.11178864583337145
        },
        {
          "name": "A2",
          "midi": 45,
          "time": 79.02441000000144,
          "velocity": 0.7559055118110236,
          "duration": 0.2947155208333925
        },
        {
          "name": "E5",
          "midi": 76,
          "time": 79.02441000000144,
          "velocity": 1,
          "duration": 0.03048781250002719
        },
        {
          "name": "D2",
          "midi": 38,
          "time": 79.02441000000144,
          "velocity": 1,
          "duration": 0.010162604166680467
        },
        {
          "name": "F4",
          "midi": 65,
          "time": 79.02949130208478,
          "velocity": 0.84251968503937,
          "duration": 0.1575203645833625
        },
        {
          "name": "A4",
          "midi": 69,
          "time": 79.03965390625146,
          "velocity": 0.6062992125984252,
          "duration": 0.09654473958335075
        },
        {
          "name": "E5",
          "midi": 76,
          "time": 79.0447352083348,
          "velocity": 0.7086614173228346,
          "duration": 0.08130083333333005
        },
        {
          "name": "E5",
          "midi": 76,
          "time": 79.05489781250147,
          "velocity": 0.9133858267716536,
          "duration": 0.23373989583336652
        },
        {
          "name": "D2",
          "midi": 38,
          "time": 79.14636125000148,
          "velocity": 1,
          "duration": 0.010162604166666256
        },
        {
          "name": "C4",
          "midi": 60,
          "time": 79.25306859375148,
          "velocity": 0.48031496062992124,
          "duration": 0.08130083333335847
        },
        {
          "name": "F4",
          "midi": 65,
          "time": 79.25814989583482,
          "velocity": 0.7559055118110236,
          "duration": 0.07621953125001824
        },
        {
          "name": "A4",
          "midi": 69,
          "time": 79.26323119791816,
          "velocity": 0.5748031496062992,
          "duration": 0.09146343750002472
        },
        {
          "name": "A3",
          "midi": 57,
          "time": 79.2683125000015,
          "velocity": 0.47244094488188976,
          "duration": 0.060975624999997535
        },
        {
          "name": "E5",
          "midi": 76,
          "time": 79.2683125000015,
          "velocity": 0.7559055118110236,
          "duration": 0.10162604166669098
        },
        {
          "name": "F#2",
          "midi": 42,
          "time": 79.2683125000015,
          "velocity": 0.47244094488188976,
          "duration": 0.010162604166666256
        },
        {
          "name": "D4",
          "midi": 62,
          "time": 79.2683125000015,
          "velocity": 0.5275590551181102,
          "duration": 0.060975624999997535
        },
        {
          "name": "F4",
          "midi": 65,
          "time": 79.2683125000015,
          "velocity": 0.5275590551181102,
          "duration": 0.06605692708333777
        },
        {
          "name": "D2",
          "midi": 38,
          "time": 79.2683125000015,
          "velocity": 0.9212598425196851,
          "duration": 0.010162604166666256
        },
        {
          "name": "A2",
          "midi": 45,
          "time": 79.2683125000015,
          "velocity": 1,
          "duration": 0.24390250000003277
        },
        {
          "name": "D4",
          "midi": 62,
          "time": 79.2683125000015,
          "velocity": 0.5275590551181102,
          "duration": 0.060975624999997535
        },
        {
          "name": "F4",
          "midi": 65,
          "time": 79.2683125000015,
          "velocity": 0.5275590551181102,
          "duration": 0.071138229166678
        },
        {
          "name": "E5",
          "midi": 76,
          "time": 79.2988003125015,
          "velocity": 0.8661417322834646,
          "duration": 0.1575203645833625
        },
        {
          "name": "D2",
          "midi": 38,
          "time": 79.39026375000152,
          "velocity": 1,
          "duration": 0.010162604166666256
        },
        {
          "name": "C4",
          "midi": 60,
          "time": 79.4918897916682,
          "velocity": 0.4566929133858268,
          "duration": 0.10162604166667677
        },
        {
          "name": "B2",
          "midi": 47,
          "time": 79.51221500000153,
          "velocity": 1,
          "duration": 0.24898380208340143
        },
        {
          "name": "F2",
          "midi": 41,
          "time": 79.51221500000153,
          "velocity": 0.7244094488188977,
          "duration": 0.2794716145834144
        },
        {
          "name": "D4",
          "midi": 62,
          "time": 79.51221500000153,
          "velocity": 0.5196850393700787,
          "duration": 0.08638213541668449
        },
        {
          "name": "A3",
          "midi": 57,
          "time": 79.51221500000153,
          "velocity": 0.5196850393700787,
          "duration": 0.071138229166678
        },
        {
          "name": "D#2",
          "midi": 39,
          "time": 79.51221500000153,
          "velocity": 1,
          "duration": 0.010162604166666256
        },
        {
          "name": "D4",
          "midi": 62,
          "time": 79.51221500000153,
          "velocity": 0.5196850393700787,
          "duration": 0.08638213541668449
        },
        {
          "name": "F4",
          "midi": 65,
          "time": 79.51221500000153,
          "velocity": 0.5196850393700787,
          "duration": 0.08638213541668449
        },
        {
          "name": "D5",
          "midi": 74,
          "time": 79.51221500000153,
          "velocity": 0.889763779527559,
          "duration": 0.44715458333342895
        },
        {
          "name": "F4",
          "midi": 65,
          "time": 79.51221500000153,
          "velocity": 0.8661417322834646,
          "duration": 0.08638213541668449
        },
        {
          "name": "F4",
          "midi": 65,
          "time": 79.51221500000153,
          "velocity": 0.5196850393700787,
          "duration": 0.09654473958335075
        },
        {
          "name": "A4",
          "midi": 69,
          "time": 79.52745890625154,
          "velocity": 0.6299212598425197,
          "duration": 0.08638213541668449
        },
        {
          "name": "E5",
          "midi": 76,
          "time": 79.5376215104182,
          "velocity": 0.937007874015748,
          "duration": 0.10162604166669098
        },
        {
          "name": "D2",
          "midi": 38,
          "time": 79.63416625000156,
          "velocity": 0.4251968503937008,
          "duration": 0.010162604166680467
        },
        {
          "name": "C#4",
          "midi": 61,
          "time": 79.74087359375157,
          "velocity": 0.31496062992125984,
          "duration": 0.010162604166680467
        },
        {
          "name": "A2",
          "midi": 45,
          "time": 79.7561175000016,
          "velocity": 1,
          "duration": 0.04573171875001947
        },
        {
          "name": "D2",
          "midi": 38,
          "time": 79.7561175000016,
          "velocity": 0.8503937007874016,
          "duration": 0.010162604166680467
        },
        {
          "name": "F#2",
          "midi": 42,
          "time": 79.7561175000016,
          "velocity": 0.47244094488188976,
          "duration": 0.010162604166680467
        },
        {
          "name": "C4",
          "midi": 60,
          "time": 79.7561175000016,
          "velocity": 0.3700787401574803,
          "duration": 0.10670734375003121
        },
        {
          "name": "F4",
          "midi": 65,
          "time": 79.76119880208493,
          "velocity": 0.6771653543307087,
          "duration": 0.10670734375003121
        },
        {
          "name": "A4",
          "midi": 69,
          "time": 79.76628010416827,
          "velocity": 0.5039370078740157,
          "duration": 0.08130083333334426
        },
        {
          "name": "E5",
          "midi": 76,
          "time": 79.77136140625161,
          "velocity": 0.7322834645669292,
          "duration": 0.11686994791668326
        },
        {
          "name": "D2",
          "midi": 38,
          "time": 79.87806875000163,
          "velocity": 1,
          "duration": 0.010162604166666256
        },
        {
          "name": "E2",
          "midi": 40,
          "time": 80.00002000000163,
          "velocity": 0.8110236220472441,
          "duration": 0.4878050000001224
        },
        {
          "name": "E4",
          "midi": 64,
          "time": 80.00002000000163,
          "velocity": 0.5039370078740157,
          "duration": 0.08638213541668449
        },
        {
          "name": "E4",
          "midi": 64,
          "time": 80.00002000000163,
          "velocity": 0.5039370078740157,
          "duration": 0.08638213541668449
        },
        {
          "name": "B3",
          "midi": 59,
          "time": 80.00002000000163,
          "velocity": 0.5984251968503937,
          "duration": 0.071138229166678
        },
        {
          "name": "D2",
          "midi": 38,
          "time": 80.00002000000163,
          "velocity": 1,
          "duration": 0.010162604166666256
        },
        {
          "name": "G#3",
          "midi": 56,
          "time": 80.00002000000163,
          "velocity": 0.5196850393700787,
          "duration": 0.071138229166678
        },
        {
          "name": "E1",
          "midi": 28,
          "time": 80.00002000000163,
          "velocity": 0.5590551181102362,
          "duration": 0.2743903125001026
        },
        {
          "name": "D5",
          "midi": 74,
          "time": 80.01526390625163,
          "velocity": 0.7874015748031497,
          "duration": 0.11178864583335724
        },
        {
          "name": "G#5",
          "midi": 80,
          "time": 80.02034520833497,
          "velocity": 0.937007874015748,
          "duration": 0.13719515625002998
        },
        {
          "name": "D2",
          "midi": 38,
          "time": 80.12197125000165,
          "velocity": 1,
          "duration": 0.010162604166680467
        },
        {
          "name": "B4",
          "midi": 71,
          "time": 80.23884119791836,
          "velocity": 0.7716535433070866,
          "duration": 0.12703255208336373
        },
        {
          "name": "F#2",
          "midi": 42,
          "time": 80.2439225000017,
          "velocity": 0.47244094488188976,
          "duration": 0.010162604166680467
        },
        {
          "name": "D2",
          "midi": 38,
          "time": 80.2439225000017,
          "velocity": 0.9212598425196851,
          "duration": 0.010162604166680467
        },
        {
          "name": "D5",
          "midi": 74,
          "time": 80.24900380208504,
          "velocity": 0.8031496062992126,
          "duration": 0.106707343750017
        },
        {
          "name": "G#5",
          "midi": 80,
          "time": 80.25916640625172,
          "velocity": 0.937007874015748,
          "duration": 0.11178864583334303
        },
        {
          "name": "D2",
          "midi": 38,
          "time": 80.36587375000173,
          "velocity": 1,
          "duration": 0.010162604166680467
        },
        {
          "name": "B4",
          "midi": 71,
          "time": 80.48274369791841,
          "velocity": 0.7401574803149606,
          "duration": 0.12703255208334951
        },
        {
          "name": "D#2",
          "midi": 39,
          "time": 80.48782500000175,
          "velocity": 1,
          "duration": 0.010162604166666256
        },
        {
          "name": "D5",
          "midi": 74,
          "time": 80.49798760416842,
          "velocity": 0.7244094488188977,
          "duration": 0.09654473958333654
        },
        {
          "name": "G#5",
          "midi": 80,
          "time": 80.49798760416842,
          "velocity": 0.8976377952755905,
          "duration": 0.11686994791668326
        },
        {
          "name": "B4",
          "midi": 71,
          "time": 80.72664619791843,
          "velocity": 0.8976377952755905,
          "duration": 0.106707343750017
        },
        {
          "name": "G#2",
          "midi": 44,
          "time": 80.73172750000177,
          "velocity": 0.6850393700787402,
          "duration": 0.3201220312500368
        },
        {
          "name": "E4",
          "midi": 64,
          "time": 80.73172750000177,
          "velocity": 0.5748031496062992,
          "duration": 0.391260260416729
        },
        {
          "name": "F#2",
          "midi": 42,
          "time": 80.73172750000177,
          "velocity": 0.47244094488188976,
          "duration": 0.010162604166680467
        },
        {
          "name": "D#2",
          "midi": 39,
          "time": 80.73172750000177,
          "velocity": 0.8661417322834646,
          "duration": 0.010162604166680467
        },
        {
          "name": "B3",
          "midi": 59,
          "time": 80.73172750000177,
          "velocity": 0.6220472440944882,
          "duration": 0.40142286458339527
        },
        {
          "name": "G#1",
          "midi": 32,
          "time": 80.73172750000177,
          "velocity": 0.5590551181102362,
          "duration": 0.2134146875000198
        },
        {
          "name": "G#3",
          "midi": 56,
          "time": 80.73172750000177,
          "velocity": 0.5039370078740157,
          "duration": 0.4065041666667355
        },
        {
          "name": "E4",
          "midi": 64,
          "time": 80.73172750000177,
          "velocity": 0.5748031496062992,
          "duration": 0.391260260416729
        },
        {
          "name": "D5",
          "midi": 74,
          "time": 80.73680880208511,
          "velocity": 0.8267716535433071,
          "duration": 0.09654473958333654
        },
        {
          "name": "G#5",
          "midi": 80,
          "time": 80.74189010416845,
          "velocity": 0.937007874015748,
          "duration": 0.10670734375000279
        },
        {
          "name": "D2",
          "midi": 38,
          "time": 80.85367875000179,
          "velocity": 1,
          "duration": 0.010162604166666256
        },
        {
          "name": "B4",
          "midi": 71,
          "time": 80.97054869791846,
          "velocity": 0.7401574803149606,
          "duration": 0.12703255208334951
        },
        {
          "name": "D2",
          "midi": 38,
          "time": 80.9756300000018,
          "velocity": 1,
          "duration": 0.010162604166666256
        },
        {
          "name": "G#5",
          "midi": 80,
          "time": 80.98579260416847,
          "velocity": 0.8976377952755905,
          "duration": 0.11686994791668326
        },
        {
          "name": "D5",
          "midi": 74,
          "time": 80.98579260416847,
          "velocity": 0.7244094488188977,
          "duration": 0.09654473958333654
        },
        {
          "name": "D2",
          "midi": 38,
          "time": 81.09758125000181,
          "velocity": 1,
          "duration": 0.010162604166680467
        },
        {
          "name": "B4",
          "midi": 71,
          "time": 81.21445119791852,
          "velocity": 0.8976377952755905,
          "duration": 0.10670734375003121
        },
        {
          "name": "E4",
          "midi": 64,
          "time": 81.21953250000186,
          "velocity": 0.48031496062992124,
          "duration": 0.10162604166669098
        },
        {
          "name": "E6",
          "midi": 88,
          "time": 81.21953250000186,
          "velocity": 0.5669291338582677,
          "duration": 0.040650416666679234
        },
        {
          "name": "G#3",
          "midi": 56,
          "time": 81.21953250000186,
          "velocity": 0.4881889763779528,
          "duration": 0.07621953125001824
        },
        {
          "name": "E4",
          "midi": 64,
          "time": 81.21953250000186,
          "velocity": 0.48031496062992124,
          "duration": 0.10162604166669098
        },
        {
          "name": "B1",
          "midi": 35,
          "time": 81.21953250000186,
          "velocity": 0.5590551181102362,
          "duration": 0.2997968229167185
        },
        {
          "name": "B3",
          "midi": 59,
          "time": 81.21953250000186,
          "velocity": 0.5275590551181102,
          "duration": 0.08638213541668449
        },
        {
          "name": "F#2",
          "midi": 42,
          "time": 81.21953250000186,
          "velocity": 0.47244094488188976,
          "duration": 0.010162604166680467
        },
        {
          "name": "B2",
          "midi": 47,
          "time": 81.21953250000186,
          "velocity": 0.6062992125984252,
          "duration": 0.13211385416670396
        },
        {
          "name": "D2",
          "midi": 38,
          "time": 81.21953250000186,
          "velocity": 0.9212598425196851,
          "duration": 0.010162604166680467
        },
        {
          "name": "D5",
          "midi": 74,
          "time": 81.2246138020852,
          "velocity": 0.8267716535433071,
          "duration": 0.09654473958335075
        },
        {
          "name": "G#5",
          "midi": 80,
          "time": 81.22969510416854,
          "velocity": 0.937007874015748,
          "duration": 0.106707343750017
        },
        {
          "name": "D2",
          "midi": 38,
          "time": 81.3414837500019,
          "velocity": 1,
          "duration": 0.010162604166666256
        },
        {
          "name": "B4",
          "midi": 71,
          "time": 81.45835369791857,
          "velocity": 0.7401574803149606,
          "duration": 0.12703255208334951
        },
        {
          "name": "B4",
          "midi": 71,
          "time": 81.46343500000191,
          "velocity": 0.984251968503937,
          "duration": 0.2337398958333523
        },
        {
          "name": "E4",
          "midi": 64,
          "time": 81.46343500000191,
          "velocity": 0.2047244094488189,
          "duration": 0.035569114583339
        },
        {
          "name": "D#2",
          "midi": 39,
          "time": 81.46343500000191,
          "velocity": 1,
          "duration": 0.010162604166666256
        },
        {
          "name": "E3",
          "midi": 52,
          "time": 81.46343500000191,
          "velocity": 0.6062992125984252,
          "duration": 0.19308947916668728
        },
        {
          "name": "D2",
          "midi": 38,
          "time": 81.46343500000191,
          "velocity": 0.5590551181102362,
          "duration": 0.13211385416668975
        },
        {
          "name": "G#3",
          "midi": 56,
          "time": 81.46343500000191,
          "velocity": 0.4409448818897638,
          "duration": 0.05589432291667151
        },
        {
          "name": "E4",
          "midi": 64,
          "time": 81.46343500000191,
          "velocity": 0.2047244094488189,
          "duration": 0.035569114583339
        },
        {
          "name": "B3",
          "midi": 59,
          "time": 81.46343500000191,
          "velocity": 0.49606299212598426,
          "duration": 0.05589432291667151
        },
        {
          "name": "D5",
          "midi": 74,
          "time": 81.47359760416857,
          "velocity": 0.7244094488188977,
          "duration": 0.09654473958333654
        },
        {
          "name": "G#5",
          "midi": 80,
          "time": 81.47359760416857,
          "velocity": 0.8976377952755905,
          "duration": 0.11686994791668326
        },
        {
          "name": "D2",
          "midi": 38,
          "time": 81.58538625000192,
          "velocity": 0.4251968503937008,
          "duration": 0.12703255208336373
        },
        {
          "name": "B4",
          "midi": 71,
          "time": 81.7022561979186,
          "velocity": 0.8976377952755905,
          "duration": 0.106707343750017
        },
        {
          "name": "B1",
          "midi": 35,
          "time": 81.70733750000194,
          "velocity": 0.5590551181102362,
          "duration": 0.18800817708336126
        },
        {
          "name": "C5",
          "midi": 72,
          "time": 81.70733750000194,
          "velocity": 0.6771653543307087,
          "duration": 0.1575203645833625
        },
        {
          "name": "F#2",
          "midi": 42,
          "time": 81.70733750000194,
          "velocity": 0.47244094488188976,
          "duration": 0.010162604166680467
        },
        {
          "name": "B2",
          "midi": 47,
          "time": 81.70733750000194,
          "velocity": 0.5196850393700787,
          "duration": 0.1575203645833625
        },
        {
          "name": "D2",
          "midi": 38,
          "time": 81.70733750000194,
          "velocity": 0.8503937007874016,
          "duration": 0.010162604166680467
        },
        {
          "name": "D5",
          "midi": 74,
          "time": 81.71241880208528,
          "velocity": 0.8267716535433071,
          "duration": 0.09654473958333654
        },
        {
          "name": "G#5",
          "midi": 80,
          "time": 81.71750010416862,
          "velocity": 0.937007874015748,
          "duration": 0.10670734375000279
        },
        {
          "name": "D2",
          "midi": 38,
          "time": 81.82928875000196,
          "velocity": 1,
          "duration": 0.010162604166666256
        },
        {
          "name": "B4",
          "midi": 71,
          "time": 81.94615869791863,
          "velocity": 0.7401574803149606,
          "duration": 0.12703255208336373
        },
        {
          "name": "D2",
          "midi": 38,
          "time": 81.95124000000197,
          "velocity": 1,
          "duration": 0.010162604166666256
        },
        {
          "name": "E1",
          "midi": 28,
          "time": 81.95124000000197,
          "velocity": 0.5590551181102362,
          "duration": 0.27439031250005996
        },
        {
          "name": "E2",
          "midi": 40,
          "time": 81.95124000000197,
          "velocity": 0.8110236220472441,
          "duration": 0.48780500000007976
        },
        {
          "name": "G#3",
          "midi": 56,
          "time": 81.95124000000197,
          "velocity": 0.4330708661417323,
          "duration": 0.06605692708335198
        },
        {
          "name": "E4",
          "midi": 64,
          "time": 81.95124000000197,
          "velocity": 0.4409448818897638,
          "duration": 0.08638213541668449
        },
        {
          "name": "D5",
          "midi": 74,
          "time": 81.95124000000197,
          "velocity": 0.7165354330708661,
          "duration": 0.106707343750017
        },
        {
          "name": "B3",
          "midi": 59,
          "time": 81.95124000000197,
          "velocity": 0.41732283464566927,
          "duration": 0.07621953125001824
        },
        {
          "name": "E4",
          "midi": 64,
          "time": 81.95124000000197,
          "velocity": 0.4409448818897638,
          "duration": 0.08638213541668449
        },
        {
          "name": "D5",
          "midi": 74,
          "time": 81.96140260416864,
          "velocity": 0.7244094488188977,
          "duration": 0.315040729166725
        },
        {
          "name": "G#5",
          "midi": 80,
          "time": 81.96140260416864,
          "velocity": 0.8976377952755905,
          "duration": 0.11686994791669747
        },
        {
          "name": "D2",
          "midi": 38,
          "time": 82.073191250002,
          "velocity": 1,
          "duration": 0.010162604166680467
        },
        {
          "name": "B4",
          "midi": 71,
          "time": 82.19006119791868,
          "velocity": 0.8976377952755905,
          "duration": 0.106707343750017
        },
        {
          "name": "D2",
          "midi": 38,
          "time": 82.19514250000202,
          "velocity": 0.9212598425196851,
          "duration": 0.010162604166680467
        },
        {
          "name": "F#2",
          "midi": 42,
          "time": 82.19514250000202,
          "velocity": 0.47244094488188976,
          "duration": 0.010162604166680467
        },
        {
          "name": "D5",
          "midi": 74,
          "time": 82.20022380208536,
          "velocity": 0.8267716535433071,
          "duration": 0.09654473958333654
        },
        {
          "name": "G#5",
          "midi": 80,
          "time": 82.2053051041687,
          "velocity": 0.937007874015748,
          "duration": 0.10670734375000279
        },
        {
          "name": "D2",
          "midi": 38,
          "time": 82.31709375000204,
          "velocity": 1,
          "duration": 0.010162604166666256
        },
        {
          "name": "B4",
          "midi": 71,
          "time": 82.43396369791871,
          "velocity": 0.7401574803149606,
          "duration": 0.12703255208336373
        },
        {
          "name": "D5",
          "midi": 74,
          "time": 82.43904500000205,
          "velocity": 0.8661417322834646,
          "duration": 0.106707343750017
        },
        {
          "name": "D#2",
          "midi": 39,
          "time": 82.43904500000205,
          "velocity": 1,
          "duration": 0.010162604166666256
        },
        {
          "name": "D5",
          "midi": 74,
          "time": 82.44920760416872,
          "velocity": 0.7244094488188977,
          "duration": 0.22357729166670026
        },
        {
          "name": "G#5",
          "midi": 80,
          "time": 82.44920760416872,
          "velocity": 0.8976377952755905,
          "duration": 0.11686994791669747
        },
        {
          "name": "B4",
          "midi": 71,
          "time": 82.67786619791876,
          "velocity": 0.8976377952755905,
          "duration": 0.106707343750017
        },
        {
          "name": "F#2",
          "midi": 42,
          "time": 82.6829475000021,
          "velocity": 0.47244094488188976,
          "duration": 0.010162604166680467
        },
        {
          "name": "G#2",
          "midi": 44,
          "time": 82.6829475000021,
          "velocity": 0.6850393700787402,
          "duration": 0.3201220312500368
        },
        {
          "name": "E4",
          "midi": 64,
          "time": 82.6829475000021,
          "velocity": 0.5196850393700787,
          "duration": 0.391260260416729
        },
        {
          "name": "G#3",
          "midi": 56,
          "time": 82.6829475000021,
          "velocity": 0.5748031496062992,
          "duration": 0.36585375000004206
        },
        {
          "name": "G#1",
          "midi": 32,
          "time": 82.6829475000021,
          "velocity": 0.5590551181102362,
          "duration": 0.2134146875000198
        },
        {
          "name": "E5",
          "midi": 76,
          "time": 82.6829475000021,
          "velocity": 0.8661417322834646,
          "duration": 0.2337398958333523
        },
        {
          "name": "B3",
          "midi": 59,
          "time": 82.6829475000021,
          "velocity": 0.5433070866141733,
          "duration": 0.36585375000004206
        },
        {
          "name": "E4",
          "midi": 64,
          "time": 82.6829475000021,
          "velocity": 0.5196850393700787,
          "duration": 0.391260260416729
        },
        {
          "name": "D#2",
          "midi": 39,
          "time": 82.6829475000021,
          "velocity": 0.8661417322834646,
          "duration": 0.010162604166680467
        },
        {
          "name": "D5",
          "midi": 74,
          "time": 82.68802880208544,
          "velocity": 0.8267716535433071,
          "duration": 0.09654473958333654
        },
        {
          "name": "G#5",
          "midi": 80,
          "time": 82.69311010416878,
          "velocity": 0.937007874015748,
          "duration": 0.10670734375000279
        },
        {
          "name": "D2",
          "midi": 38,
          "time": 82.80489875000212,
          "velocity": 1,
          "duration": 0.010162604166666256
        },
        {
          "name": "B4",
          "midi": 71,
          "time": 82.9217686979188,
          "velocity": 0.7401574803149606,
          "duration": 0.12703255208334951
        },
        {
          "name": "D2",
          "midi": 38,
          "time": 82.92685000000213,
          "velocity": 1,
          "duration": 0.010162604166666256
        },
        {
          "name": "D5",
          "midi": 74,
          "time": 82.92685000000213,
          "velocity": 0.8346456692913385,
          "duration": 0.10670734375000279
        },
        {
          "name": "D5",
          "midi": 74,
          "time": 82.9370126041688,
          "velocity": 0.7244094488188977,
          "duration": 0.23373989583336652
        },
        {
          "name": "G#5",
          "midi": 80,
          "time": 82.9370126041688,
          "velocity": 0.8976377952755905,
          "duration": 0.11686994791668326
        },
        {
          "name": "D2",
          "midi": 38,
          "time": 83.04880125000214,
          "velocity": 1,
          "duration": 0.010162604166680467
        },
        {
          "name": "B4",
          "midi": 71,
          "time": 83.16567119791883,
          "velocity": 0.8976377952755905,
          "duration": 0.10670734375003121
        },
        {
          "name": "F#2",
          "midi": 42,
          "time": 83.17075250000217,
          "velocity": 0.47244094488188976,
          "duration": 0.010162604166680467
        },
        {
          "name": "E4",
          "midi": 64,
          "time": 83.17075250000217,
          "velocity": 0.49606299212598426,
          "duration": 0.07113822916669221
        },
        {
          "name": "G#3",
          "midi": 56,
          "time": 83.17075250000217,
          "velocity": 0.49606299212598426,
          "duration": 0.06097562500002596
        },
        {
          "name": "E4",
          "midi": 64,
          "time": 83.17075250000217,
          "velocity": 0.49606299212598426,
          "duration": 0.07113822916669221
        },
        {
          "name": "D2",
          "midi": 38,
          "time": 83.17075250000217,
          "velocity": 0.9212598425196851,
          "duration": 0.010162604166680467
        },
        {
          "name": "C5",
          "midi": 72,
          "time": 83.17075250000217,
          "velocity": 0.7165354330708661,
          "duration": 0.1219512500000377
        },
        {
          "name": "B2",
          "midi": 47,
          "time": 83.17075250000217,
          "velocity": 0.6062992125984252,
          "duration": 0.13211385416670396
        },
        {
          "name": "B1",
          "midi": 35,
          "time": 83.17075250000217,
          "velocity": 0.5590551181102362,
          "duration": 0.2997968229167185
        },
        {
          "name": "B3",
          "midi": 59,
          "time": 83.17075250000217,
          "velocity": 0.5433070866141733,
          "duration": 0.055894322916685724
        },
        {
          "name": "D5",
          "midi": 74,
          "time": 83.1758338020855,
          "velocity": 0.8267716535433071,
          "duration": 0.09654473958335075
        },
        {
          "name": "G#5",
          "midi": 80,
          "time": 83.18091510416885,
          "velocity": 0.937007874015748,
          "duration": 0.106707343750017
        },
        {
          "name": "D2",
          "midi": 38,
          "time": 83.2927037500022,
          "velocity": 1,
          "duration": 0.010162604166666256
        },
        {
          "name": "B4",
          "midi": 71,
          "time": 83.40957369791887,
          "velocity": 0.7401574803149606,
          "duration": 0.12703255208334951
        },
        {
          "name": "B3",
          "midi": 59,
          "time": 83.41465500000221,
          "velocity": 0.5748031496062992,
          "duration": 0.05081302083333128
        },
        {
          "name": "D2",
          "midi": 38,
          "time": 83.41465500000221,
          "velocity": 0.5590551181102362,
          "duration": 0.13211385416668975
        },
        {
          "name": "D3",
          "midi": 50,
          "time": 83.41465500000221,
          "velocity": 0.6062992125984252,
          "duration": 0.19308947916668728
        },
        {
          "name": "B4",
          "midi": 71,
          "time": 83.41465500000221,
          "velocity": 0.8031496062992126,
          "duration": 0.23882119791669254
        },
        {
          "name": "G#3",
          "midi": 56,
          "time": 83.41465500000221,
          "velocity": 0.47244094488188976,
          "duration": 0.05081302083333128
        },
        {
          "name": "D#2",
          "midi": 39,
          "time": 83.41465500000221,
          "velocity": 1,
          "duration": 0.010162604166666256
        },
        {
          "name": "E4",
          "midi": 64,
          "time": 83.41465500000221,
          "velocity": 0.4881889763779528,
          "duration": 0.06605692708333777
        },
        {
          "name": "E4",
          "midi": 64,
          "time": 83.41465500000221,
          "velocity": 0.4881889763779528,
          "duration": 0.06605692708333777
        },
        {
          "name": "D5",
          "midi": 74,
          "time": 83.42481760416888,
          "velocity": 0.7244094488188977,
          "duration": 0.09654473958333654
        },
        {
          "name": "G#5",
          "midi": 80,
          "time": 83.42481760416888,
          "velocity": 0.8976377952755905,
          "duration": 0.11686994791668326
        },
        {
          "name": "D2",
          "midi": 38,
          "time": 83.53660625000222,
          "velocity": 0.4251968503937008,
          "duration": 0.12703255208336373
        },
        {
          "name": "B4",
          "midi": 71,
          "time": 83.6534761979189,
          "velocity": 0.8976377952755905,
          "duration": 0.106707343750017
        },
        {
          "name": "D2",
          "midi": 38,
          "time": 83.65855750000225,
          "velocity": 0.8503937007874016,
          "duration": 0.010162604166680467
        },
        {
          "name": "C5",
          "midi": 72,
          "time": 83.65855750000225,
          "velocity": 0.952755905511811,
          "duration": 0.20325208333336775
        },
        {
          "name": "F#2",
          "midi": 42,
          "time": 83.65855750000225,
          "velocity": 0.47244094488188976,
          "duration": 0.010162604166680467
        },
        {
          "name": "B2",
          "midi": 47,
          "time": 83.65855750000225,
          "velocity": 0.5196850393700787,
          "duration": 0.1575203645833625
        },
        {
          "name": "B1",
          "midi": 35,
          "time": 83.65855750000225,
          "velocity": 0.5590551181102362,
          "duration": 0.18800817708336126
        },
        {
          "name": "D5",
          "midi": 74,
          "time": 83.66363880208559,
          "velocity": 0.8267716535433071,
          "duration": 0.09654473958333654
        },
        {
          "name": "G#5",
          "midi": 80,
          "time": 83.66872010416893,
          "velocity": 0.937007874015748,
          "duration": 0.10670734375000279
        },
        {
          "name": "D2",
          "midi": 38,
          "time": 83.78050875000227,
          "velocity": 1,
          "duration": 0.010162604166666256
        },
        {
          "name": "E4",
          "midi": 64,
          "time": 83.90246000000228,
          "velocity": 0.4094488188976378,
          "duration": 0.07113822916669221
        },
        {
          "name": "C4",
          "midi": 60,
          "time": 83.90246000000228,
          "velocity": 0.48031496062992124,
          "duration": 0.06097562500002596
        },
        {
          "name": "C4",
          "midi": 60,
          "time": 83.90246000000228,
          "velocity": 0.48031496062992124,
          "duration": 0.06097562500002596
        },
        {
          "name": "A1",
          "midi": 33,
          "time": 83.90246000000228,
          "velocity": 0.5590551181102362,
          "duration": 0.2591464062500535
        },
        {
          "name": "D2",
          "midi": 38,
          "time": 83.90246000000228,
          "velocity": 1,
          "duration": 0.010162604166680467
        },
        {
          "name": "A3",
          "midi": 57,
          "time": 83.90246000000228,
          "velocity": 0.4566929133858268,
          "duration": 0.0508130208333597
        },
        {
          "name": "G4",
          "midi": 67,
          "time": 83.90246000000228,
          "velocity": 0.5433070866141733,
          "duration": 0.07113822916669221
        },
        {
          "name": "E4",
          "midi": 64,
          "time": 83.90246000000228,
          "velocity": 0.4094488188976378,
          "duration": 0.07113822916669221
        },
        {
          "name": "A2",
          "midi": 45,
          "time": 83.90246000000228,
          "velocity": 0.8110236220472441,
          "duration": 0.30995942708339896
        },
        {
          "name": "C5",
          "midi": 72,
          "time": 83.90754130208562,
          "velocity": 0.8661417322834646,
          "duration": 0.09654473958335075
        },
        {
          "name": "G#4",
          "midi": 68,
          "time": 83.91262260416896,
          "velocity": 1,
          "duration": 0.03048781250001298
        },
        {
          "name": "E5",
          "midi": 76,
          "time": 83.9177039062523,
          "velocity": 0.6692913385826772,
          "duration": 0.08638213541667028
        },
        {
          "name": "B5",
          "midi": 83,
          "time": 83.92278520833564,
          "velocity": 0.8818897637795275,
          "duration": 0.08638213541667028
        },
        {
          "name": "A4",
          "midi": 69,
          "time": 83.9634356250023,
          "velocity": 0.8346456692913385,
          "duration": 1.8699191666669037
        },
        {
          "name": "D2",
          "midi": 38,
          "time": 84.02441125000232,
          "velocity": 1,
          "duration": 0.010162604166666256
        },
        {
          "name": "G4",
          "midi": 67,
          "time": 84.14636250000231,
          "velocity": 0.4094488188976378,
          "duration": 0.06097562500002596
        },
        {
          "name": "D2",
          "midi": 38,
          "time": 84.14636250000231,
          "velocity": 0.9212598425196851,
          "duration": 0.010162604166680467
        },
        {
          "name": "F#2",
          "midi": 42,
          "time": 84.14636250000231,
          "velocity": 0.47244094488188976,
          "duration": 0.010162604166680467
        },
        {
          "name": "C5",
          "midi": 72,
          "time": 84.15144380208565,
          "velocity": 0.8110236220472441,
          "duration": 0.10162604166669098
        },
        {
          "name": "E5",
          "midi": 76,
          "time": 84.16160640625233,
          "velocity": 0.6692913385826772,
          "duration": 0.09146343750001051
        },
        {
          "name": "B5",
          "midi": 83,
          "time": 84.16668770833567,
          "velocity": 0.8818897637795275,
          "duration": 0.09146343750001051
        },
        {
          "name": "D2",
          "midi": 38,
          "time": 84.26831375000235,
          "velocity": 1,
          "duration": 0.010162604166666256
        },
        {
          "name": "G4",
          "midi": 67,
          "time": 84.38010239583568,
          "velocity": 0.4094488188976378,
          "duration": 0.10162604166669098
        },
        {
          "name": "D#2",
          "midi": 39,
          "time": 84.39026500000234,
          "velocity": 1,
          "duration": 0.010162604166680467
        },
        {
          "name": "C2",
          "midi": 36,
          "time": 84.39026500000234,
          "velocity": 0.8110236220472441,
          "duration": 0.31504072916669656
        },
        {
          "name": "C5",
          "midi": 72,
          "time": 84.39534630208568,
          "velocity": 0.7874015748031497,
          "duration": 0.09654473958335075
        },
        {
          "name": "E5",
          "midi": 76,
          "time": 84.40042760416902,
          "velocity": 0.5039370078740157,
          "duration": 0.08130083333334426
        },
        {
          "name": "B5",
          "midi": 83,
          "time": 84.40550890625236,
          "velocity": 0.8818897637795275,
          "duration": 0.08638213541667028
        },
        {
          "name": "C2",
          "midi": 36,
          "time": 84.63416750000238,
          "velocity": 0.5590551181102362,
          "duration": 0.19308947916667307
        },
        {
          "name": "C5",
          "midi": 72,
          "time": 84.63416750000238,
          "velocity": 0.8503937007874016,
          "duration": 0.10670734375000279
        },
        {
          "name": "C4",
          "midi": 60,
          "time": 84.63416750000238,
          "velocity": 0.5748031496062992,
          "duration": 0.42174807291671357
        },
        {
          "name": "C4",
          "midi": 60,
          "time": 84.63416750000238,
          "velocity": 0.5748031496062992,
          "duration": 0.42174807291671357
        },
        {
          "name": "D#2",
          "midi": 39,
          "time": 84.63416750000238,
          "velocity": 0.8661417322834646,
          "duration": 0.010162604166666256
        },
        {
          "name": "A3",
          "midi": 57,
          "time": 84.63416750000238,
          "velocity": 0.5984251968503937,
          "duration": 0.3963415625000408
        },
        {
          "name": "E4",
          "midi": 64,
          "time": 84.63416750000238,
          "velocity": 0.5433070866141733,
          "duration": 0.4471545833333863
        },
        {
          "name": "F#2",
          "midi": 42,
          "time": 84.63416750000238,
          "velocity": 0.47244094488188976,
          "duration": 0.010162604166666256
        },
        {
          "name": "E4",
          "midi": 64,
          "time": 84.63416750000238,
          "velocity": 0.5433070866141733,
          "duration": 0.4471545833333863
        },
        {
          "name": "G4",
          "midi": 67,
          "time": 84.63416750000238,
          "velocity": 0.4094488188976378,
          "duration": 0.060975624999997535
        },
        {
          "name": "E5",
          "midi": 76,
          "time": 84.64433010416904,
          "velocity": 0.5590551181102362,
          "duration": 0.0914634374999963
        },
        {
          "name": "B5",
          "midi": 83,
          "time": 84.65449270833571,
          "velocity": 0.8818897637795275,
          "duration": 0.10162604166667677
        },
        {
          "name": "D2",
          "midi": 38,
          "time": 84.75611875000239,
          "velocity": 1,
          "duration": 0.010162604166666256
        },
        {
          "name": "G4",
          "midi": 67,
          "time": 84.86790739583572,
          "velocity": 0.5826771653543307,
          "duration": 0.09654473958335075
        },
        {
          "name": "C5",
          "midi": 72,
          "time": 84.87298869791906,
          "velocity": 0.8110236220472441,
          "duration": 0.106707343750017
        },
        {
          "name": "E5",
          "midi": 76,
          "time": 84.8780700000024,
          "velocity": 0.6850393700787402,
          "duration": 0.11686994791668326
        },
        {
          "name": "D2",
          "midi": 38,
          "time": 84.8780700000024,
          "velocity": 1,
          "duration": 0.010162604166666256
        },
        {
          "name": "E2",
          "midi": 40,
          "time": 84.8780700000024,
          "velocity": 0.8110236220472441,
          "duration": 0.28963421875003803
        },
        {
          "name": "B5",
          "midi": 83,
          "time": 84.8780700000024,
          "velocity": 0.8818897637795275,
          "duration": 0.12195125000002349
        },
        {
          "name": "D2",
          "midi": 38,
          "time": 85.00002125000242,
          "velocity": 1,
          "duration": 0.010162604166666256
        },
        {
          "name": "F#4",
          "midi": 66,
          "time": 85.1016472916691,
          "velocity": 0.3700787401574803,
          "duration": 0.010162604166666256
        },
        {
          "name": "E4",
          "midi": 64,
          "time": 85.12197250000243,
          "velocity": 0.49606299212598426,
          "duration": 0.071138229166678
        },
        {
          "name": "E2",
          "midi": 40,
          "time": 85.12197250000243,
          "velocity": 0.5590551181102362,
          "duration": 0.27947161458335756
        },
        {
          "name": "E5",
          "midi": 76,
          "time": 85.12197250000243,
          "velocity": 0.6614173228346457,
          "duration": 0.10162604166667677
        },
        {
          "name": "F#2",
          "midi": 42,
          "time": 85.12197250000243,
          "velocity": 0.47244094488188976,
          "duration": 0.010162604166666256
        },
        {
          "name": "E4",
          "midi": 64,
          "time": 85.12197250000243,
          "velocity": 0.49606299212598426,
          "duration": 0.071138229166678
        },
        {
          "name": "C5",
          "midi": 72,
          "time": 85.12197250000243,
          "velocity": 0.8110236220472441,
          "duration": 0.10162604166667677
        },
        {
          "name": "G4",
          "midi": 67,
          "time": 85.12197250000243,
          "velocity": 0.5196850393700787,
          "duration": 0.09146343750001051
        },
        {
          "name": "A3",
          "midi": 57,
          "time": 85.12197250000243,
          "velocity": 0.4330708661417323,
          "duration": 0.05589432291667151
        },
        {
          "name": "D2",
          "midi": 38,
          "time": 85.12197250000243,
          "velocity": 0.9212598425196851,
          "duration": 0.010162604166666256
        },
        {
          "name": "C4",
          "midi": 60,
          "time": 85.12197250000243,
          "velocity": 0.47244094488188976,
          "duration": 0.071138229166678
        },
        {
          "name": "C4",
          "midi": 60,
          "time": 85.12197250000243,
          "velocity": 0.47244094488188976,
          "duration": 0.071138229166678
        },
        {
          "name": "B5",
          "midi": 83,
          "time": 85.1321351041691,
          "velocity": 0.8818897637795275,
          "duration": 0.12195125000000928
        },
        {
          "name": "D2",
          "midi": 38,
          "time": 85.24392375000244,
          "velocity": 1,
          "duration": 0.010162604166666256
        },
        {
          "name": "G4",
          "midi": 67,
          "time": 85.3455497916691,
          "velocity": 0.49606299212598426,
          "duration": 0.1371951562500442
        },
        {
          "name": "E4",
          "midi": 64,
          "time": 85.36587500000243,
          "velocity": 0.5039370078740157,
          "duration": 0.08130083333335847
        },
        {
          "name": "E4",
          "midi": 64,
          "time": 85.36587500000243,
          "velocity": 0.8661417322834646,
          "duration": 0.08130083333335847
        },
        {
          "name": "E4",
          "midi": 64,
          "time": 85.36587500000243,
          "velocity": 0.5039370078740157,
          "duration": 0.46747979166677567
        },
        {
          "name": "C4",
          "midi": 60,
          "time": 85.36587500000243,
          "velocity": 0.4566929133858268,
          "duration": 0.07113822916669221
        },
        {
          "name": "C5",
          "midi": 72,
          "time": 85.36587500000243,
          "velocity": 0.7559055118110236,
          "duration": 0.11686994791671168
        },
        {
          "name": "C2",
          "midi": 36,
          "time": 85.36587500000243,
          "velocity": 0.8110236220472441,
          "duration": 0.2743903125001026
        },
        {
          "name": "A3",
          "midi": 57,
          "time": 85.36587500000243,
          "velocity": 0.5196850393700787,
          "duration": 0.07113822916669221
        },
        {
          "name": "D#2",
          "midi": 39,
          "time": 85.36587500000243,
          "velocity": 1,
          "duration": 0.010162604166666256
        },
        {
          "name": "C4",
          "midi": 60,
          "time": 85.36587500000243,
          "velocity": 0.4566929133858268,
          "duration": 0.07113822916669221
        },
        {
          "name": "F#2",
          "midi": 42,
          "time": 85.36587500000243,
          "velocity": 0.5590551181102362,
          "duration": 0.2286585937500547
        },
        {
          "name": "E5",
          "midi": 76,
          "time": 85.38111890625244,
          "velocity": 0.6614173228346457,
          "duration": 0.10162604166670519
        },
        {
          "name": "B5",
          "midi": 83,
          "time": 85.38620020833578,
          "velocity": 0.8818897637795275,
          "duration": 0.09146343750002472
        },
        {
          "name": "E4",
          "midi": 64,
          "time": 85.38620020833578,
          "velocity": 0.8661417322834646,
          "duration": 0.46747979166676146
        },
        {
          "name": "D2",
          "midi": 38,
          "time": 85.48782625000248,
          "velocity": 0.4251968503937008,
          "duration": 0.010162604166666256
        },
        {
          "name": "G4",
          "midi": 67,
          "time": 85.59961489583583,
          "velocity": 0.3464566929133858,
          "duration": 0.025406510416701167
        },
        {
          "name": "C5",
          "midi": 72,
          "time": 85.60977750000251,
          "velocity": 0.84251968503937,
          "duration": 0.11686994791669747
        },
        {
          "name": "E2",
          "midi": 40,
          "time": 85.60977750000251,
          "velocity": 0.5590551181102362,
          "duration": 0.213414687500034
        },
        {
          "name": "F#2",
          "midi": 42,
          "time": 85.60977750000251,
          "velocity": 0.47244094488188976,
          "duration": 0.010162604166680467
        },
        {
          "name": "D2",
          "midi": 38,
          "time": 85.60977750000251,
          "velocity": 0.8503937007874016,
          "duration": 0.010162604166680467
        },
        {
          "name": "E5",
          "midi": 76,
          "time": 85.61485880208585,
          "velocity": 0.5748031496062992,
          "duration": 0.11686994791669747
        },
        {
          "name": "B5",
          "midi": 83,
          "time": 85.61994010416919,
          "velocity": 0.8818897637795275,
          "duration": 0.106707343750017
        },
        {
          "name": "D2",
          "midi": 38,
          "time": 85.73172875000255,
          "velocity": 1,
          "duration": 0.010162604166666256
        },
        {
          "name": "D2",
          "midi": 38,
          "time": 85.85368000000254,
          "velocity": 1,
          "duration": 0.010162604166666256
        },
        {
          "name": "E4",
          "midi": 64,
          "time": 85.85368000000254,
          "velocity": 0.5196850393700787,
          "duration": 0.08130083333335847
        },
        {
          "name": "A1",
          "midi": 33,
          "time": 85.85368000000254,
          "velocity": 0.5590551181102362,
          "duration": 0.2743903125000742
        },
        {
          "name": "A3",
          "midi": 57,
          "time": 85.85368000000254,
          "velocity": 0.5275590551181102,
          "duration": 0.06605692708333777
        },
        {
          "name": "C4",
          "midi": 60,
          "time": 85.85368000000254,
          "velocity": 0.5275590551181102,
          "duration": 0.07621953125001824
        },
        {
          "name": "C4",
          "midi": 60,
          "time": 85.85368000000254,
          "velocity": 0.5275590551181102,
          "duration": 0.07621953125001824
        },
        {
          "name": "E4",
          "midi": 64,
          "time": 85.85368000000254,
          "velocity": 0.5196850393700787,
          "duration": 0.08130083333335847
        },
        {
          "name": "B4",
          "midi": 71,
          "time": 85.85368000000254,
          "velocity": 0.9606299212598425,
          "duration": 0.965447395833479
        },
        {
          "name": "G4",
          "midi": 67,
          "time": 85.85368000000254,
          "velocity": 0.6929133858267716,
          "duration": 0.11178864583337145
        },
        {
          "name": "A1",
          "midi": 33,
          "time": 85.85368000000254,
          "velocity": 0.7874015748031497,
          "duration": 0.30487812500007294
        },
        {
          "name": "E5",
          "midi": 76,
          "time": 85.86384260416921,
          "velocity": 0.8188976377952756,
          "duration": 0.13211385416670396
        },
        {
          "name": "C5",
          "midi": 72,
          "time": 85.86384260416921,
          "velocity": 0.8267716535433071,
          "duration": 0.11178864583337145
        },
        {
          "name": "B5",
          "midi": 83,
          "time": 85.87400520833587,
          "velocity": 0.8818897637795275,
          "duration": 0.1219512500000377
        },
        {
          "name": "B4",
          "midi": 71,
          "time": 85.87400520833587,
          "velocity": 0.9606299212598425,
          "duration": 0.9654473958335075
        },
        {
          "name": "D2",
          "midi": 38,
          "time": 85.97563125000258,
          "velocity": 1,
          "duration": 0.010162604166666256
        },
        {
          "name": "F#4",
          "midi": 66,
          "time": 86.09250119791925,
          "velocity": 0.28346456692913385,
          "duration": 0.005081302083340233
        },
        {
          "name": "F#2",
          "midi": 42,
          "time": 86.09758250000259,
          "velocity": 0.47244094488188976,
          "duration": 0.010162604166680467
        },
        {
          "name": "G4",
          "midi": 67,
          "time": 86.09758250000259,
          "velocity": 0.49606299212598426,
          "duration": 0.08130083333335847
        },
        {
          "name": "D2",
          "midi": 38,
          "time": 86.09758250000259,
          "velocity": 0.9212598425196851,
          "duration": 0.010162604166680467
        },
        {
          "name": "C5",
          "midi": 72,
          "time": 86.10266380208593,
          "velocity": 0.8503937007874016,
          "duration": 0.106707343750017
        },
        {
          "name": "E5",
          "midi": 76,
          "time": 86.10774510416927,
          "velocity": 0.6456692913385826,
          "duration": 0.13211385416667554
        },
        {
          "name": "B5",
          "midi": 83,
          "time": 86.11282640625261,
          "velocity": 0.8582677165354331,
          "duration": 0.11686994791666905
        },
        {
          "name": "D2",
          "midi": 38,
          "time": 86.21953375000261,
          "velocity": 1,
          "duration": 0.010162604166666256
        },
        {
          "name": "G4",
          "midi": 67,
          "time": 86.33640369791928,
          "velocity": 0.48031496062992124,
          "duration": 0.0152439062500207
        },
        {
          "name": "C2",
          "midi": 36,
          "time": 86.34148500000262,
          "velocity": 0.84251968503937,
          "duration": 0.32520333333337703
        },
        {
          "name": "C5",
          "midi": 72,
          "time": 86.34148500000262,
          "velocity": 0.8267716535433071,
          "duration": 0.11686994791668326
        },
        {
          "name": "D#2",
          "midi": 39,
          "time": 86.34148500000262,
          "velocity": 1,
          "duration": 0.010162604166680467
        },
        {
          "name": "E5",
          "midi": 76,
          "time": 86.34656630208596,
          "velocity": 0.6377952755905512,
          "duration": 0.11178864583334303
        },
        {
          "name": "B5",
          "midi": 83,
          "time": 86.3516476041693,
          "velocity": 0.8818897637795275,
          "duration": 0.11686994791666905
        },
        {
          "name": "G4",
          "midi": 67,
          "time": 86.57522489583597,
          "velocity": 0.5826771653543307,
          "duration": 0.11686994791669747
        },
        {
          "name": "C5",
          "midi": 72,
          "time": 86.58030619791931,
          "velocity": 0.7637795275590551,
          "duration": 0.1219512500000377
        },
        {
          "name": "A3",
          "midi": 57,
          "time": 86.58538750000265,
          "velocity": 0.5748031496062992,
          "duration": 0.34552854166673796
        },
        {
          "name": "F#2",
          "midi": 42,
          "time": 86.58538750000265,
          "velocity": 0.47244094488188976,
          "duration": 0.010162604166666256
        },
        {
          "name": "C2",
          "midi": 36,
          "time": 86.58538750000265,
          "velocity": 0.8346456692913385,
          "duration": 0.213414687500034
        },
        {
          "name": "E5",
          "midi": 76,
          "time": 86.58538750000265,
          "velocity": 0.6141732283464567,
          "duration": 0.106707343750017
        },
        {
          "name": "E4",
          "midi": 64,
          "time": 86.58538750000265,
          "velocity": 0.6220472440944882,
          "duration": 0.3709350520834249
        },
        {
          "name": "D#2",
          "midi": 39,
          "time": 86.58538750000265,
          "velocity": 0.8661417322834646,
          "duration": 0.010162604166666256
        },
        {
          "name": "C4",
          "midi": 60,
          "time": 86.58538750000265,
          "velocity": 0.6220472440944882,
          "duration": 0.3658537500000847
        },
        {
          "name": "E4",
          "midi": 64,
          "time": 86.58538750000265,
          "velocity": 0.6220472440944882,
          "duration": 0.3709350520834249
        },
        {
          "name": "C4",
          "midi": 60,
          "time": 86.58538750000265,
          "velocity": 0.6220472440944882,
          "duration": 0.3658537500000847
        },
        {
          "name": "B5",
          "midi": 83,
          "time": 86.59555010416932,
          "velocity": 0.8346456692913385,
          "duration": 0.10162604166669098
        },
        {
          "name": "D2",
          "midi": 38,
          "time": 86.70733875000269,
          "velocity": 1,
          "duration": 0.010162604166666256
        },
        {
          "name": "G4",
          "midi": 67,
          "time": 86.82420869791936,
          "velocity": 0.5590551181102362,
          "duration": 0.11178864583337145
        },
        {
          "name": "A4",
          "midi": 69,
          "time": 86.8292900000027,
          "velocity": 0.8661417322834646,
          "duration": 0.8536587500002071
        },
        {
          "name": "D2",
          "midi": 38,
          "time": 86.8292900000027,
          "velocity": 1,
          "duration": 0.010162604166680467
        },
        {
          "name": "E2",
          "midi": 40,
          "time": 86.8292900000027,
          "velocity": 0.7559055118110236,
          "duration": 0.32012203125009364
        },
        {
          "name": "C5",
          "midi": 72,
          "time": 86.83437130208604,
          "velocity": 0.8110236220472441,
          "duration": 0.09654473958335075
        },
        {
          "name": "E5",
          "midi": 76,
          "time": 86.84453390625272,
          "velocity": 0.6692913385826772,
          "duration": 0.09654473958335075
        },
        {
          "name": "B5",
          "midi": 83,
          "time": 86.84961520833606,
          "velocity": 0.7322834645669292,
          "duration": 0.010162604166666256
        },
        {
          "name": "A4",
          "midi": 69,
          "time": 86.84961520833606,
          "velocity": 0.8661417322834646,
          "duration": 0.8536587500001787
        },
        {
          "name": "B5",
          "midi": 83,
          "time": 86.85977781250273,
          "velocity": 0.8818897637795275,
          "duration": 0.07113822916666379
        },
        {
          "name": "D2",
          "midi": 38,
          "time": 86.95124125000274,
          "velocity": 1,
          "duration": 0.010162604166680467
        },
        {
          "name": "G4",
          "midi": 67,
          "time": 87.05794859375276,
          "velocity": 0.5275590551181102,
          "duration": 0.08130083333335847
        },
        {
          "name": "C5",
          "midi": 72,
          "time": 87.0630298958361,
          "velocity": 0.7559055118110236,
          "duration": 0.08130083333335847
        },
        {
          "name": "E5",
          "midi": 76,
          "time": 87.06811119791944,
          "velocity": 0.6377952755905512,
          "duration": 0.09146343750003894
        },
        {
          "name": "F#2",
          "midi": 42,
          "time": 87.07319250000278,
          "velocity": 0.47244094488188976,
          "duration": 0.010162604166666256
        },
        {
          "name": "C4",
          "midi": 60,
          "time": 87.07319250000278,
          "velocity": 0.5590551181102362,
          "duration": 0.06605692708333777
        },
        {
          "name": "E4",
          "midi": 64,
          "time": 87.07319250000278,
          "velocity": 0.5196850393700787,
          "duration": 0.06605692708333777
        },
        {
          "name": "D2",
          "midi": 38,
          "time": 87.07319250000278,
          "velocity": 0.9212598425196851,
          "duration": 0.010162604166666256
        },
        {
          "name": "E4",
          "midi": 64,
          "time": 87.07319250000278,
          "velocity": 0.5196850393700787,
          "duration": 0.06605692708333777
        },
        {
          "name": "A3",
          "midi": 57,
          "time": 87.07319250000278,
          "velocity": 0.49606299212598426,
          "duration": 0.060975624999997535
        },
        {
          "name": "C4",
          "midi": 60,
          "time": 87.07319250000278,
          "velocity": 0.5590551181102362,
          "duration": 0.06605692708333777
        },
        {
          "name": "E2",
          "midi": 40,
          "time": 87.07319250000278,
          "velocity": 0.8346456692913385,
          "duration": 0.2997968229167043
        },
        {
          "name": "B5",
          "midi": 83,
          "time": 87.08335510416944,
          "velocity": 0.8818897637795275,
          "duration": 0.07113822916669221
        },
        {
          "name": "D2",
          "midi": 38,
          "time": 87.19514375000281,
          "velocity": 1,
          "duration": 0.010162604166666256
        },
        {
          "name": "G4",
          "midi": 67,
          "time": 87.29676979166948,
          "velocity": 0.5039370078740157,
          "duration": 0.10162604166667677
        },
        {
          "name": "E4",
          "midi": 64,
          "time": 87.31709500000281,
          "velocity": 0.5748031496062992,
          "duration": 0.10670734375003121
        },
        {
          "name": "D#2",
          "midi": 39,
          "time": 87.31709500000281,
          "velocity": 1,
          "duration": 0.010162604166666256
        },
        {
          "name": "C4",
          "midi": 60,
          "time": 87.31709500000281,
          "velocity": 0.5748031496062992,
          "duration": 0.09654473958335075
        },
        {
          "name": "E4",
          "midi": 64,
          "time": 87.31709500000281,
          "velocity": 0.5748031496062992,
          "duration": 0.10670734375003121
        },
        {
          "name": "C5",
          "midi": 72,
          "time": 87.31709500000281,
          "velocity": 0.7716535433070866,
          "duration": 0.09654473958335075
        },
        {
          "name": "A3",
          "midi": 57,
          "time": 87.31709500000281,
          "velocity": 0.5590551181102362,
          "duration": 0.09654473958335075
        },
        {
          "name": "F#2",
          "midi": 42,
          "time": 87.31709500000281,
          "velocity": 0.8346456692913385,
          "duration": 0.24898380208340143
        },
        {
          "name": "C4",
          "midi": 60,
          "time": 87.31709500000281,
          "velocity": 0.5748031496062992,
          "duration": 0.09654473958335075
        },
        {
          "name": "C2",
          "midi": 36,
          "time": 87.31709500000281,
          "velocity": 0.7244094488188977,
          "duration": 0.1930894791667157
        },
        {
          "name": "E5",
          "midi": 76,
          "time": 87.33233890625282,
          "velocity": 0.6929133858267716,
          "duration": 0.08638213541668449
        },
        {
          "name": "B5",
          "midi": 83,
          "time": 87.34250151041948,
          "velocity": 0.8818897637795275,
          "duration": 0.10162604166670519
        },
        {
          "name": "D2",
          "midi": 38,
          "time": 87.43904625000285,
          "velocity": 0.4251968503937008,
          "duration": 0.010162604166680467
        },
        {
          "name": "G#4",
          "midi": 68,
          "time": 87.54575359375286,
          "velocity": 0.3464566929133858,
          "duration": 0.010162604166666256
        },
        {
          "name": "E2",
          "midi": 40,
          "time": 87.56099750000287,
          "velocity": 0.8346456692913385,
          "duration": 0.18800817708337547
        },
        {
          "name": "G4",
          "midi": 67,
          "time": 87.56099750000287,
          "velocity": 0.4094488188976378,
          "duration": 0.10670734375003121
        },
        {
          "name": "D2",
          "midi": 38,
          "time": 87.56099750000287,
          "velocity": 0.8503937007874016,
          "duration": 0.010162604166680467
        },
        {
          "name": "F#2",
          "midi": 42,
          "time": 87.56099750000287,
          "velocity": 0.47244094488188976,
          "duration": 0.010162604166680467
        },
        {
          "name": "C5",
          "midi": 72,
          "time": 87.56607880208621,
          "velocity": 0.7637795275590551,
          "duration": 0.10670734375003121
        },
        {
          "name": "E5",
          "midi": 76,
          "time": 87.57116010416955,
          "velocity": 0.5590551181102362,
          "duration": 0.08130083333334426
        },
        {
          "name": "B5",
          "midi": 83,
          "time": 87.57624140625289,
          "velocity": 0.7637795275590551,
          "duration": 0.11686994791668326
        },
        {
          "name": "D2",
          "midi": 38,
          "time": 87.68294875000291,
          "velocity": 1,
          "duration": 0.010162604166666256
        },
        {
          "name": "D4",
          "midi": 62,
          "time": 87.80490000000292,
          "velocity": 0.5275590551181102,
          "duration": 0.16260166666673115
        },
        {
          "name": "B3",
          "midi": 59,
          "time": 87.80490000000292,
          "velocity": 0.5748031496062992,
          "duration": 0.1524390625000649
        },
        {
          "name": "G5",
          "midi": 79,
          "time": 87.80490000000292,
          "velocity": 0.9133858267716536,
          "duration": 0.12703255208336373
        },
        {
          "name": "G3",
          "midi": 55,
          "time": 87.80490000000292,
          "velocity": 0.49606299212598426,
          "duration": 0.1524390625000649
        },
        {
          "name": "D4",
          "midi": 62,
          "time": 87.80490000000292,
          "velocity": 0.7716535433070866,
          "duration": 0.16260166666673115
        },
        {
          "name": "G1",
          "midi": 31,
          "time": 87.80490000000292,
          "velocity": 0.8110236220472441,
          "duration": 0.3709350520834249
        },
        {
          "name": "G2",
          "midi": 43,
          "time": 87.80490000000292,
          "velocity": 0.5433070866141733,
          "duration": 0.16768296875007138
        },
        {
          "name": "F3",
          "midi": 53,
          "time": 87.80490000000292,
          "velocity": 0.5196850393700787,
          "duration": 0.010162604166666256
        },
        {
          "name": "D#2",
          "midi": 39,
          "time": 87.80490000000292,
          "velocity": 0.8740157480314961,
          "duration": 0.010162604166666256
        },
        {
          "name": "D4",
          "midi": 62,
          "time": 87.80490000000292,
          "velocity": 0.5275590551181102,
          "duration": 1.402439375000256
        },
        {
          "name": "G4",
          "midi": 67,
          "time": 87.82522520833626,
          "velocity": 0.6850393700787402,
          "duration": 1.875000468750315
        },
        {
          "name": "D5",
          "midi": 74,
          "time": 87.92685125000294,
          "velocity": 0.5826771653543307,
          "duration": 0.005081302083340233
        },
        {
          "name": "D2",
          "midi": 38,
          "time": 87.92685125000294,
          "velocity": 1,
          "duration": 0.010162604166680467
        },
        {
          "name": "G5",
          "midi": 79,
          "time": 87.92685125000294,
          "velocity": 0.5826771653543307,
          "duration": 0.025406510416701167
        },
        {
          "name": "B4",
          "midi": 71,
          "time": 87.93701385416962,
          "velocity": 0.5511811023622047,
          "duration": 0.005081302083340233
        },
        {
          "name": "D#4",
          "midi": 63,
          "time": 87.9471764583363,
          "velocity": 0.3464566929133858,
          "duration": 0.005081302083340233
        },
        {
          "name": "F#2",
          "midi": 42,
          "time": 88.04880250000299,
          "velocity": 0.47244094488188976,
          "duration": 0.010162604166680467
        },
        {
          "name": "G5",
          "midi": 79,
          "time": 88.04880250000299,
          "velocity": 0.8661417322834646,
          "duration": 0.14735776041669624
        },
        {
          "name": "D5",
          "midi": 74,
          "time": 88.04880250000299,
          "velocity": 0.8740157480314961,
          "duration": 0.12195125000000928
        },
        {
          "name": "D2",
          "midi": 38,
          "time": 88.04880250000299,
          "velocity": 0.9212598425196851,
          "duration": 0.010162604166680467
        },
        {
          "name": "F3",
          "midi": 53,
          "time": 88.04880250000299,
          "velocity": 0.4566929133858268,
          "duration": 0.010162604166680467
        },
        {
          "name": "G5",
          "midi": 79,
          "time": 88.05388380208633,
          "velocity": 0.8740157480314961,
          "duration": 0.22865859375002628
        },
        {
          "name": "D#2",
          "midi": 39,
          "time": 88.170753750003,
          "velocity": 0.5984251968503937,
          "duration": 0.010162604166680467
        },
        {
          "name": "B4",
          "midi": 71,
          "time": 88.18091635416968,
          "velocity": 0.8740157480314961,
          "duration": 0.10162604166667677
        },
        {
          "name": "D5",
          "midi": 74,
          "time": 88.18091635416968,
          "velocity": 0.8740157480314961,
          "duration": 0.10162604166667677
        },
        {
          "name": "D3",
          "midi": 50,
          "time": 88.19107895833635,
          "velocity": 0.44881889763779526,
          "duration": 0.005081302083340233
        },
        {
          "name": "F3",
          "midi": 53,
          "time": 88.29270500000302,
          "velocity": 0.4881889763779528,
          "duration": 0.010162604166680467
        },
        {
          "name": "D#2",
          "midi": 39,
          "time": 88.29270500000302,
          "velocity": 1,
          "duration": 0.010162604166680467
        },
        {
          "name": "B1",
          "midi": 35,
          "time": 88.29270500000302,
          "velocity": 0.8110236220472441,
          "duration": 0.18292687500000682
        },
        {
          "name": "D5",
          "midi": 74,
          "time": 88.29270500000302,
          "velocity": 0.7165354330708661,
          "duration": 0.010162604166680467
        },
        {
          "name": "G5",
          "midi": 79,
          "time": 88.29270500000302,
          "velocity": 0.889763779527559,
          "duration": 0.010162604166680467
        },
        {
          "name": "G5",
          "midi": 79,
          "time": 88.29778630208637,
          "velocity": 0.8740157480314961,
          "duration": 0.23882119791666412
        },
        {
          "name": "D2",
          "midi": 38,
          "time": 88.41465625000303,
          "velocity": 0.4251968503937008,
          "duration": 0.010162604166666256
        },
        {
          "name": "F3",
          "midi": 53,
          "time": 88.41465625000303,
          "velocity": 0.3779527559055118,
          "duration": 0.010162604166666256
        },
        {
          "name": "B3",
          "midi": 59,
          "time": 88.53660750000303,
          "velocity": 0.5590551181102362,
          "duration": 0.6758131770834837
        },
        {
          "name": "G3",
          "midi": 55,
          "time": 88.53660750000303,
          "velocity": 0.5748031496062992,
          "duration": 0.6504066666668109
        },
        {
          "name": "G2",
          "midi": 43,
          "time": 88.53660750000303,
          "velocity": 0.5275590551181102,
          "duration": 0.6504066666668109
        },
        {
          "name": "F#2",
          "midi": 42,
          "time": 88.53660750000303,
          "velocity": 0.47244094488188976,
          "duration": 0.010162604166680467
        },
        {
          "name": "D4",
          "midi": 62,
          "time": 88.53660750000303,
          "velocity": 0.5039370078740157,
          "duration": 0.6707318750001434
        },
        {
          "name": "F3",
          "midi": 53,
          "time": 88.53660750000303,
          "velocity": 0.5196850393700787,
          "duration": 0.010162604166680467
        },
        {
          "name": "D4",
          "midi": 62,
          "time": 88.53660750000303,
          "velocity": 0.5039370078740157,
          "duration": 0.8231709375001799
        },
        {
          "name": "F5",
          "midi": 77,
          "time": 88.53660750000303,
          "velocity": 0.8976377952755905,
          "duration": 0.17276427083335477
        },
        {
          "name": "D2",
          "midi": 38,
          "time": 88.53660750000303,
          "velocity": 0.8503937007874016,
          "duration": 0.010162604166680467
        },
        {
          "name": "D2",
          "midi": 38,
          "time": 88.53660750000303,
          "velocity": 0.6377952755905512,
          "duration": 0.13211385416667554
        },
        {
          "name": "D5",
          "midi": 74,
          "time": 88.54168880208637,
          "velocity": 0.8740157480314961,
          "duration": 0.22865859375002628
        },
        {
          "name": "G5",
          "midi": 79,
          "time": 88.54677010416971,
          "velocity": 0.8740157480314961,
          "duration": 0.11178864583332881
        },
        {
          "name": "D2",
          "midi": 38,
          "time": 88.65855875000304,
          "velocity": 1,
          "duration": 0.07621953125001824
        },
        {
          "name": "G5",
          "midi": 79,
          "time": 88.6687213541697,
          "velocity": 0.8740157480314961,
          "duration": 0.10670734375003121
        },
        {
          "name": "B4",
          "midi": 71,
          "time": 88.67380265625305,
          "velocity": 0.8740157480314961,
          "duration": 0.10162604166669098
        },
        {
          "name": "E4",
          "midi": 64,
          "time": 88.67888395833639,
          "velocity": 0.4015748031496063,
          "duration": 0.020325208333332512
        },
        {
          "name": "G5",
          "midi": 79,
          "time": 88.78051000000308,
          "velocity": 0.984251968503937,
          "duration": 0.01524390625000649
        },
        {
          "name": "D#2",
          "midi": 39,
          "time": 88.78051000000308,
          "velocity": 0.9448818897637795,
          "duration": 0.010162604166666256
        },
        {
          "name": "G1",
          "midi": 31,
          "time": 88.78051000000308,
          "velocity": 0.8110236220472441,
          "duration": 0.4522358854167692
        },
        {
          "name": "F3",
          "midi": 53,
          "time": 88.78051000000308,
          "velocity": 0.47244094488188976,
          "duration": 0.010162604166666256
        },
        {
          "name": "G5",
          "midi": 79,
          "time": 88.79067260416974,
          "velocity": 0.8740157480314961,
          "duration": 0.13211385416670396
        },
        {
          "name": "D2",
          "midi": 38,
          "time": 88.90246125000309,
          "velocity": 1,
          "duration": 0.010162604166680467
        },
        {
          "name": "G5",
          "midi": 79,
          "time": 88.90754255208643,
          "velocity": 0.8740157480314961,
          "duration": 0.11686994791671168
        },
        {
          "name": "B4",
          "midi": 71,
          "time": 88.9177051562531,
          "velocity": 0.49606299212598426,
          "duration": 0.005081302083340233
        },
        {
          "name": "F#2",
          "midi": 42,
          "time": 89.02441250000314,
          "velocity": 0.47244094488188976,
          "duration": 0.010162604166680467
        },
        {
          "name": "D2",
          "midi": 38,
          "time": 89.02441250000314,
          "velocity": 0.9212598425196851,
          "duration": 0.010162604166680467
        },
        {
          "name": "F3",
          "midi": 53,
          "time": 89.02441250000314,
          "velocity": 0.5511811023622047,
          "duration": 0.010162604166680467
        },
        {
          "name": "B4",
          "midi": 71,
          "time": 89.02949380208648,
          "velocity": 0.6614173228346457,
          "duration": 0.025406510416672745
        },
        {
          "name": "D5",
          "midi": 74,
          "time": 89.03457510416982,
          "velocity": 0.8740157480314961,
          "duration": 0.11686994791668326
        },
        {
          "name": "G5",
          "midi": 79,
          "time": 89.04473770833648,
          "velocity": 0.8740157480314961,
          "duration": 0.09654473958333654
        },
        {
          "name": "D2",
          "midi": 38,
          "time": 89.14636375000316,
          "velocity": 1,
          "duration": 0.010162604166680467
        },
        {
          "name": "G5",
          "midi": 79,
          "time": 89.1514450520865,
          "velocity": 0.8740157480314961,
          "duration": 0.23373989583338073
        },
        {
          "name": "D5",
          "midi": 74,
          "time": 89.15652635416984,
          "velocity": 0.8740157480314961,
          "duration": 0.11178864583334303
        },
        {
          "name": "F4",
          "midi": 65,
          "time": 89.16668895833651,
          "velocity": 0.3937007874015748,
          "duration": 0.010162604166666256
        },
        {
          "name": "B4",
          "midi": 71,
          "time": 89.16668895833651,
          "velocity": 0.8740157480314961,
          "duration": 0.23373989583339494
        },
        {
          "name": "D4",
          "midi": 62,
          "time": 89.26831500000318,
          "velocity": 0.5748031496062992,
          "duration": 0.09146343750002472
        },
        {
          "name": "D2",
          "midi": 38,
          "time": 89.26831500000318,
          "velocity": 1,
          "duration": 0.010162604166666256
        },
        {
          "name": "G3",
          "midi": 55,
          "time": 89.26831500000318,
          "velocity": 0.49606299212598426,
          "duration": 0.060975625000011746
        },
        {
          "name": "G2",
          "midi": 43,
          "time": 89.26831500000318,
          "velocity": 0.48031496062992124,
          "duration": 0.08130083333335847
        },
        {
          "name": "F3",
          "midi": 53,
          "time": 89.26831500000318,
          "velocity": 0.3937007874015748,
          "duration": 0.010162604166666256
        },
        {
          "name": "D4",
          "midi": 62,
          "time": 89.26831500000318,
          "velocity": 0.5748031496062992,
          "duration": 0.391260260416729
        },
        {
          "name": "B3",
          "midi": 59,
          "time": 89.26831500000318,
          "velocity": 0.4881889763779528,
          "duration": 0.06605692708335198
        },
        {
          "name": "B1",
          "midi": 35,
          "time": 89.26831500000318,
          "velocity": 0.6850393700787402,
          "duration": 0.20325208333338196
        },
        {
          "name": "D5",
          "midi": 74,
          "time": 89.28355890625319,
          "velocity": 0.84251968503937,
          "duration": 0.11178864583337145
        },
        {
          "name": "D#2",
          "midi": 39,
          "time": 89.39026625000322,
          "velocity": 0.9448818897637795,
          "duration": 0.010162604166680467
        },
        {
          "name": "F3",
          "midi": 53,
          "time": 89.39026625000322,
          "velocity": 0.41732283464566927,
          "duration": 0.010162604166680467
        },
        {
          "name": "G5",
          "midi": 79,
          "time": 89.4004288541699,
          "velocity": 0.8740157480314961,
          "duration": 0.17276427083332635
        },
        {
          "name": "B4",
          "midi": 71,
          "time": 89.41059145833657,
          "velocity": 0.8031496062992126,
          "duration": 0.16768296875000033
        },
        {
          "name": "D5",
          "midi": 74,
          "time": 89.41059145833657,
          "velocity": 0.8740157480314961,
          "duration": 0.1626016666666601
        },
        {
          "name": "F3",
          "midi": 53,
          "time": 89.51221750000323,
          "velocity": 0.5511811023622047,
          "duration": 0.010162604166666256
        },
        {
          "name": "D5",
          "midi": 74,
          "time": 89.51221750000323,
          "velocity": 1,
          "duration": 0.19308947916668728
        },
        {
          "name": "F#2",
          "midi": 42,
          "time": 89.51221750000323,
          "velocity": 0.47244094488188976,
          "duration": 0.010162604166666256
        },
        {
          "name": "D2",
          "midi": 38,
          "time": 89.51221750000323,
          "velocity": 0.6692913385826772,
          "duration": 0.19817078125002752
        },
        {
          "name": "D#2",
          "midi": 39,
          "time": 89.51221750000323,
          "velocity": 0.49606299212598426,
          "duration": 0.010162604166666256
        },
        {
          "name": "D#2",
          "midi": 39,
          "time": 89.63416875000324,
          "velocity": 0.9448818897637795,
          "duration": 0.010162604166666256
        },
        {
          "name": "C4",
          "midi": 60,
          "time": 89.75612000000326,
          "velocity": 0.7165354330708661,
          "duration": 0.1524390625000649
        },
        {
          "name": "D#2",
          "midi": 39,
          "time": 89.75612000000326,
          "velocity": 0.8740157480314961,
          "duration": 0.010162604166680467
        },
        {
          "name": "C2",
          "midi": 36,
          "time": 89.75612000000326,
          "velocity": 0.6692913385826772,
          "duration": 0.16768296875007138
        },
        {
          "name": "G3",
          "midi": 55,
          "time": 89.75612000000326,
          "velocity": 0.49606299212598426,
          "duration": 0.1524390625000649
        },
        {
          "name": "C2",
          "midi": 36,
          "time": 89.75612000000326,
          "velocity": 0.5433070866141733,
          "duration": 0.39634156250009767
        },
        {
          "name": "C4",
          "midi": 60,
          "time": 89.75612000000326,
          "velocity": 0.5748031496062992,
          "duration": 0.1524390625000649
        },
        {
          "name": "E4",
          "midi": 64,
          "time": 89.75612000000326,
          "velocity": 0.5275590551181102,
          "duration": 0.16260166666673115
        },
        {
          "name": "F3",
          "midi": 53,
          "time": 89.75612000000326,
          "velocity": 0.4330708661417323,
          "duration": 0.010162604166680467
        },
        {
          "name": "E4",
          "midi": 64,
          "time": 89.75612000000326,
          "velocity": 0.5275590551181102,
          "duration": 0.16260166666673115
        },
        {
          "name": "C4",
          "midi": 60,
          "time": 89.75612000000326,
          "velocity": 0.5748031496062992,
          "duration": 1.4075206770836104
        },
        {
          "name": "E5",
          "midi": 76,
          "time": 89.75612000000326,
          "velocity": 1,
          "duration": 0.3658537500000847
        },
        {
          "name": "E4",
          "midi": 64,
          "time": 89.77644520833661,
          "velocity": 0.6456692913385826,
          "duration": 0.5030489062501147
        },
        {
          "name": "A#4",
          "midi": 70,
          "time": 89.78152651041995,
          "velocity": 0.7007874015748031,
          "duration": 0.005081302083340233
        },
        {
          "name": "D2",
          "midi": 38,
          "time": 89.8780712500033,
          "velocity": 1,
          "duration": 0.010162604166680467
        },
        {
          "name": "C5",
          "midi": 72,
          "time": 89.88315255208664,
          "velocity": 0.2992125984251969,
          "duration": 0.010162604166680467
        },
        {
          "name": "F#2",
          "midi": 42,
          "time": 90.00002250000334,
          "velocity": 0.47244094488188976,
          "duration": 0.010162604166666256
        },
        {
          "name": "D2",
          "midi": 38,
          "time": 90.00002250000334,
          "velocity": 0.9212598425196851,
          "duration": 0.010162604166666256
        },
        {
          "name": "F3",
          "midi": 53,
          "time": 90.00002250000334,
          "velocity": 0.4330708661417323,
          "duration": 0.010162604166666256
        },
        {
          "name": "G4",
          "midi": 67,
          "time": 90.01526640625335,
          "velocity": 0.8740157480314961,
          "duration": 0.20325208333335354
        },
        {
          "name": "C5",
          "midi": 72,
          "time": 90.02034770833669,
          "velocity": 0.8740157480314961,
          "duration": 0.0914634374999963
        },
        {
          "name": "D2",
          "midi": 38,
          "time": 90.12197375000335,
          "velocity": 1,
          "duration": 0.010162604166666256
        },
        {
          "name": "C5",
          "midi": 72,
          "time": 90.13721765625336,
          "velocity": 0.8740157480314961,
          "duration": 0.106707343750017
        },
        {
          "name": "E4",
          "midi": 64,
          "time": 90.1422989583367,
          "velocity": 0.6614173228346457,
          "duration": 0.6097562500001033
        },
        {
          "name": "E2",
          "midi": 40,
          "time": 90.24392500000337,
          "velocity": 0.7559055118110236,
          "duration": 0.22357729166671447
        },
        {
          "name": "D#2",
          "midi": 39,
          "time": 90.24392500000337,
          "velocity": 1,
          "duration": 0.010162604166680467
        },
        {
          "name": "E5",
          "midi": 76,
          "time": 90.24392500000337,
          "velocity": 1,
          "duration": 0.1219512500000377
        },
        {
          "name": "F3",
          "midi": 53,
          "time": 90.24392500000337,
          "velocity": 0.36220472440944884,
          "duration": 0.010162604166680467
        },
        {
          "name": "G4",
          "midi": 67,
          "time": 90.26933151042006,
          "velocity": 0.7795275590551181,
          "duration": 0.010162604166666256
        },
        {
          "name": "A#5",
          "midi": 82,
          "time": 90.28457541667007,
          "velocity": 0.5275590551181102,
          "duration": 0.005081302083340233
        },
        {
          "name": "D2",
          "midi": 38,
          "time": 90.36587625000341,
          "velocity": 0.4251968503937008,
          "duration": 0.010162604166666256
        },
        {
          "name": "B4",
          "midi": 71,
          "time": 90.38620145833674,
          "velocity": 0.5826771653543307,
          "duration": 0.005081302083340233
        },
        {
          "name": "G4",
          "midi": 67,
          "time": 90.38620145833674,
          "velocity": 0.3700787401574803,
          "duration": 0.005081302083340233
        },
        {
          "name": "F3",
          "midi": 53,
          "time": 90.48782750000342,
          "velocity": 0.5511811023622047,
          "duration": 0.010162604166666256
        },
        {
          "name": "E5",
          "midi": 76,
          "time": 90.48782750000342,
          "velocity": 1,
          "duration": 0.44715458333342895
        },
        {
          "name": "C2",
          "midi": 36,
          "time": 90.48782750000342,
          "velocity": 0.5275590551181102,
          "duration": 0.635162760416776
        },
        {
          "name": "C4",
          "midi": 60,
          "time": 90.48782750000342,
          "velocity": 0.5590551181102362,
          "duration": 0.6758131770834552
        },
        {
          "name": "C4",
          "midi": 60,
          "time": 90.48782750000342,
          "velocity": 0.5590551181102362,
          "duration": 0.7977644270834645
        },
        {
          "name": "F#2",
          "midi": 42,
          "time": 90.48782750000342,
          "velocity": 0.47244094488188976,
          "duration": 0.010162604166666256
        },
        {
          "name": "D2",
          "midi": 38,
          "time": 90.48782750000342,
          "velocity": 0.8503937007874016,
          "duration": 0.010162604166666256
        },
        {
          "name": "G3",
          "midi": 55,
          "time": 90.48782750000342,
          "velocity": 0.5748031496062992,
          "duration": 0.6504066666667825
        },
        {
          "name": "G2",
          "midi": 43,
          "time": 90.48782750000342,
          "velocity": 0.6850393700787402,
          "duration": 0.16768296875002875
        },
        {
          "name": "E4",
          "midi": 64,
          "time": 90.48782750000342,
          "velocity": 0.5039370078740157,
          "duration": 0.39126026041675743
        },
        {
          "name": "E4",
          "midi": 64,
          "time": 90.48782750000342,
          "velocity": 0.5039370078740157,
          "duration": 0.670731875000115
        },
        {
          "name": "E4",
          "midi": 64,
          "time": 90.50307140625343,
          "velocity": 0.8740157480314961,
          "duration": 0.6554879687501085
        },
        {
          "name": "G4",
          "midi": 67,
          "time": 90.50815270833677,
          "velocity": 0.8740157480314961,
          "duration": 0.22865859375002628
        },
        {
          "name": "C5",
          "midi": 72,
          "time": 90.51831531250343,
          "velocity": 0.8740157480314961,
          "duration": 0.21849598958336003
        },
        {
          "name": "D#2",
          "midi": 39,
          "time": 90.60977875000343,
          "velocity": 0.47244094488188976,
          "duration": 0.010162604166680467
        },
        {
          "name": "F3",
          "midi": 53,
          "time": 90.73173000000345,
          "velocity": 0.2992125984251969,
          "duration": 0.010162604166680467
        },
        {
          "name": "C2",
          "midi": 36,
          "time": 90.73173000000345,
          "velocity": 0.6692913385826772,
          "duration": 0.4065041666667497
        },
        {
          "name": "D#2",
          "midi": 39,
          "time": 90.73173000000345,
          "velocity": 0.8740157480314961,
          "duration": 0.010162604166680467
        },
        {
          "name": "D2",
          "midi": 38,
          "time": 90.85368125000349,
          "velocity": 1,
          "duration": 0.010162604166666256
        },
        {
          "name": "B5",
          "midi": 83,
          "time": 90.86384385417016,
          "velocity": 0.3543307086614173,
          "duration": 0.005081302083340233
        },
        {
          "name": "F#5",
          "midi": 78,
          "time": 90.8689251562535,
          "velocity": 0.3779527559055118,
          "duration": 0.005081302083340233
        },
        {
          "name": "E4",
          "midi": 64,
          "time": 90.87400645833684,
          "velocity": 0.5669291338582677,
          "duration": 0.43699197916672006
        },
        {
          "name": "E4",
          "midi": 64,
          "time": 90.97055119792019,
          "velocity": 0.8740157480314961,
          "duration": 0.3404472395833693
        },
        {
          "name": "D2",
          "midi": 38,
          "time": 90.97563250000353,
          "velocity": 0.9212598425196851,
          "duration": 0.010162604166666256
        },
        {
          "name": "G4",
          "midi": 67,
          "time": 90.97563250000353,
          "velocity": 0.8740157480314961,
          "duration": 0.3353659375000291
        },
        {
          "name": "F3",
          "midi": 53,
          "time": 90.97563250000353,
          "velocity": 0.5196850393700787,
          "duration": 0.010162604166666256
        },
        {
          "name": "F#2",
          "midi": 42,
          "time": 90.97563250000353,
          "velocity": 0.47244094488188976,
          "duration": 0.010162604166666256
        },
        {
          "name": "C5",
          "midi": 72,
          "time": 90.9857951041702,
          "velocity": 0.8740157480314961,
          "duration": 0.0914634374999963
        },
        {
          "name": "D2",
          "midi": 38,
          "time": 91.09758375000352,
          "velocity": 1,
          "duration": 0.010162604166666256
        },
        {
          "name": "C5",
          "midi": 72,
          "time": 91.09758375000352,
          "velocity": 0.8740157480314961,
          "duration": 0.11178864583335724
        },
        {
          "name": "G3",
          "midi": 55,
          "time": 91.21953500000355,
          "velocity": 0.49606299212598426,
          "duration": 0.060975624999997535
        },
        {
          "name": "C2",
          "midi": 36,
          "time": 91.21953500000355,
          "velocity": 0.48031496062992124,
          "duration": 0.08130083333334426
        },
        {
          "name": "E2",
          "midi": 40,
          "time": 91.21953500000355,
          "velocity": 0.7086614173228346,
          "duration": 0.20833338541669377
        },
        {
          "name": "C4",
          "midi": 60,
          "time": 91.21953500000355,
          "velocity": 0.4881889763779528,
          "duration": 0.06605692708333777
        },
        {
          "name": "C5",
          "midi": 72,
          "time": 91.21953500000355,
          "velocity": 0.8740157480314961,
          "duration": 0.22357729166670026
        },
        {
          "name": "E4",
          "midi": 64,
          "time": 91.21953500000355,
          "velocity": 0.5748031496062992,
          "duration": 0.20833338541669377
        },
        {
          "name": "D#2",
          "midi": 39,
          "time": 91.21953500000355,
          "velocity": 1,
          "duration": 0.010162604166666256
        },
        {
          "name": "C4",
          "midi": 60,
          "time": 91.21953500000355,
          "velocity": 0.4881889763779528,
          "duration": 0.36077244791671603
        },
        {
          "name": "E4",
          "midi": 64,
          "time": 91.21953500000355,
          "velocity": 0.5748031496062992,
          "duration": 0.3048781250000445
        },
        {
          "name": "F3",
          "midi": 53,
          "time": 91.21953500000355,
          "velocity": 0.3937007874015748,
          "duration": 0.010162604166666256
        },
        {
          "name": "D#2",
          "midi": 39,
          "time": 91.34148625000356,
          "velocity": 0.7086614173228346,
          "duration": 0.010162604166680467
        },
        {
          "name": "F3",
          "midi": 53,
          "time": 91.34148625000356,
          "velocity": 0.3937007874015748,
          "duration": 0.010162604166680467
        },
        {
          "name": "G4",
          "midi": 67,
          "time": 91.3465675520869,
          "velocity": 0.7795275590551181,
          "duration": 0.09146343750001051
        },
        {
          "name": "E4",
          "midi": 64,
          "time": 91.45835619792025,
          "velocity": 0.8740157480314961,
          "duration": 0.15243906250002226
        },
        {
          "name": "F3",
          "midi": 53,
          "time": 91.4634375000036,
          "velocity": 0.5196850393700787,
          "duration": 0.010162604166666256
        },
        {
          "name": "F#2",
          "midi": 42,
          "time": 91.4634375000036,
          "velocity": 0.47244094488188976,
          "duration": 0.010162604166666256
        },
        {
          "name": "G2",
          "midi": 43,
          "time": 91.4634375000036,
          "velocity": 0.6771653543307087,
          "duration": 0.20833338541667956
        },
        {
          "name": "D2",
          "midi": 38,
          "time": 91.4634375000036,
          "velocity": 0.8503937007874016,
          "duration": 0.010162604166666256
        },
        {
          "name": "G4",
          "midi": 67,
          "time": 91.4634375000036,
          "velocity": 0.7795275590551181,
          "duration": 0.060975624999997535
        },
        {
          "name": "C5",
          "midi": 72,
          "time": 91.47360010417026,
          "velocity": 0.7795275590551181,
          "duration": 0.0914634374999963
        },
        {
          "name": "D2",
          "midi": 38,
          "time": 91.5853887500036,
          "velocity": 1,
          "duration": 0.010162604166666256
        },
        {
          "name": "E2",
          "midi": 40,
          "time": 91.70734000000361,
          "velocity": 0.6850393700787402,
          "duration": 0.16768296875005717
        },
        {
          "name": "E4",
          "midi": 64,
          "time": 91.70734000000361,
          "velocity": 0.5275590551181102,
          "duration": 0.16260166666671694
        },
        {
          "name": "D4",
          "midi": 62,
          "time": 91.70734000000361,
          "velocity": 0.6456692913385826,
          "duration": 1.8699191666669748
        },
        {
          "name": "E4",
          "midi": 64,
          "time": 91.70734000000361,
          "velocity": 0.5275590551181102,
          "duration": 0.16260166666671694
        },
        {
          "name": "F5",
          "midi": 77,
          "time": 91.70734000000361,
          "velocity": 1,
          "duration": 0.2439025000000612
        },
        {
          "name": "F3",
          "midi": 53,
          "time": 91.70734000000361,
          "velocity": 0.5511811023622047,
          "duration": 0.010162604166680467
        },
        {
          "name": "B3",
          "midi": 59,
          "time": 91.70734000000361,
          "velocity": 0.5748031496062992,
          "duration": 0.15243906250005068
        },
        {
          "name": "E2",
          "midi": 40,
          "time": 91.70734000000361,
          "velocity": 0.5433070866141733,
          "duration": 0.4522358854167692
        },
        {
          "name": "D2",
          "midi": 38,
          "time": 91.70734000000361,
          "velocity": 1,
          "duration": 0.010162604166680467
        },
        {
          "name": "G#3",
          "midi": 56,
          "time": 91.70734000000361,
          "velocity": 0.49606299212598426,
          "duration": 0.15243906250005068
        },
        {
          "name": "C#5",
          "midi": 73,
          "time": 91.71750260417029,
          "velocity": 0.5984251968503937,
          "duration": 0.005081302083340233
        },
        {
          "name": "F4",
          "midi": 65,
          "time": 91.72766520833697,
          "velocity": 0.7874015748031497,
          "duration": 1.8699191666669464
        },
        {
          "name": "D2",
          "midi": 38,
          "time": 91.82929125000365,
          "velocity": 1,
          "duration": 0.010162604166666256
        },
        {
          "name": "C#5",
          "midi": 73,
          "time": 91.83945385417032,
          "velocity": 0.7244094488188977,
          "duration": 0.010162604166680467
        },
        {
          "name": "G#4",
          "midi": 68,
          "time": 91.84453515625366,
          "velocity": 0.41732283464566927,
          "duration": 0.005081302083340233
        },
        {
          "name": "F3",
          "midi": 53,
          "time": 91.95124250000367,
          "velocity": 0.5905511811023622,
          "duration": 0.010162604166666256
        },
        {
          "name": "D2",
          "midi": 38,
          "time": 91.95124250000367,
          "velocity": 0.9212598425196851,
          "duration": 0.010162604166666256
        },
        {
          "name": "F#2",
          "midi": 42,
          "time": 91.95124250000367,
          "velocity": 0.47244094488188976,
          "duration": 0.010162604166666256
        },
        {
          "name": "E4",
          "midi": 64,
          "time": 91.96140510417034,
          "velocity": 0.7086614173228346,
          "duration": 0.12703255208336373
        },
        {
          "name": "G#4",
          "midi": 68,
          "time": 91.96648640625368,
          "velocity": 0.8740157480314961,
          "duration": 0.22357729166670026
        },
        {
          "name": "D5",
          "midi": 74,
          "time": 91.97664901042035,
          "velocity": 0.8740157480314961,
          "duration": 0.20325208333336775
        },
        {
          "name": "E5",
          "midi": 76,
          "time": 92.03254333333702,
          "velocity": 0.9133858267716536,
          "duration": 0.3048781250000445
        },
        {
          "name": "D#2",
          "midi": 39,
          "time": 92.0731937500037,
          "velocity": 0.4330708661417323,
          "duration": 0.010162604166666256
        },
        {
          "name": "E4",
          "midi": 64,
          "time": 92.10368156250371,
          "velocity": 0.6220472440944882,
          "duration": 0.106707343750017
        },
        {
          "name": "G#2",
          "midi": 44,
          "time": 92.19514500000372,
          "velocity": 0.8110236220472441,
          "duration": 0.20325208333335354
        },
        {
          "name": "D#2",
          "midi": 39,
          "time": 92.19514500000372,
          "velocity": 1,
          "duration": 0.010162604166666256
        },
        {
          "name": "F3",
          "midi": 53,
          "time": 92.19514500000372,
          "velocity": 0.3779527559055118,
          "duration": 0.010162604166666256
        },
        {
          "name": "G#4",
          "midi": 68,
          "time": 92.21547020833707,
          "velocity": 0.7559055118110236,
          "duration": 0.010162604166666256
        },
        {
          "name": "D5",
          "midi": 74,
          "time": 92.22563281250373,
          "velocity": 0.8740157480314961,
          "duration": 0.010162604166666256
        },
        {
          "name": "D2",
          "midi": 38,
          "time": 92.31709625000373,
          "velocity": 0.4251968503937008,
          "duration": 0.010162604166666256
        },
        {
          "name": "F3",
          "midi": 53,
          "time": 92.31709625000373,
          "velocity": 0.14960629921259844,
          "duration": 0.010162604166666256
        },
        {
          "name": "D5",
          "midi": 74,
          "time": 92.33742145833706,
          "velocity": 0.5669291338582677,
          "duration": 0.005081302083340233
        },
        {
          "name": "D5",
          "midi": 74,
          "time": 92.35774666667041,
          "velocity": 0.8346456692913385,
          "duration": 0.1626016666666743
        },
        {
          "name": "F#2",
          "midi": 42,
          "time": 92.43904750000374,
          "velocity": 0.47244094488188976,
          "duration": 0.010162604166666256
        },
        {
          "name": "D2",
          "midi": 38,
          "time": 92.43904750000374,
          "velocity": 0.8503937007874016,
          "duration": 0.010162604166666256
        },
        {
          "name": "E4",
          "midi": 64,
          "time": 92.43904750000374,
          "velocity": 0.5039370078740157,
          "duration": 0.2743903125000884
        },
        {
          "name": "F3",
          "midi": 53,
          "time": 92.43904750000374,
          "velocity": 0.3937007874015748,
          "duration": 0.010162604166666256
        },
        {
          "name": "B3",
          "midi": 59,
          "time": 92.43904750000374,
          "velocity": 0.5590551181102362,
          "duration": 0.6758131770834837
        },
        {
          "name": "G#3",
          "midi": 56,
          "time": 92.43904750000374,
          "velocity": 0.5748031496062992,
          "duration": 0.6504066666668109
        },
        {
          "name": "E4",
          "midi": 64,
          "time": 92.43904750000374,
          "velocity": 0.5039370078740157,
          "duration": 0.6707318750001434
        },
        {
          "name": "B2",
          "midi": 47,
          "time": 92.43904750000374,
          "velocity": 0.6220472440944882,
          "duration": 0.23882119791672096
        },
        {
          "name": "E2",
          "midi": 40,
          "time": 92.43904750000374,
          "velocity": 0.5275590551181102,
          "duration": 0.6504066666668109
        },
        {
          "name": "G#4",
          "midi": 68,
          "time": 92.45937270833707,
          "velocity": 0.8740157480314961,
          "duration": 0.11686994791669747
        },
        {
          "name": "D5",
          "midi": 74,
          "time": 92.46445401042041,
          "velocity": 0.8740157480314961,
          "duration": 0.09146343750001051
        },
        {
          "name": "C5",
          "midi": 72,
          "time": 92.52034833333708,
          "velocity": 0.6771653543307087,
          "duration": 0.16260166666671694
        },
        {
          "name": "D#2",
          "midi": 39,
          "time": 92.56099875000376,
          "velocity": 0.4330708661417323,
          "duration": 0.010162604166666256
        },
        {
          "name": "D5",
          "midi": 74,
          "time": 92.58132395833711,
          "velocity": 0.8740157480314961,
          "duration": 0.1371951562500584
        },
        {
          "name": "G#4",
          "midi": 68,
          "time": 92.58640526042045,
          "velocity": 0.8740157480314961,
          "duration": 0.10162604166669098
        },
        {
          "name": "E4",
          "midi": 64,
          "time": 92.59148656250379,
          "velocity": 0.3937007874015748,
          "duration": 0.5182928125000927
        },
        {
          "name": "F3",
          "midi": 53,
          "time": 92.6829500000038,
          "velocity": 0.4566929133858268,
          "duration": 0.010162604166680467
        },
        {
          "name": "E2",
          "midi": 40,
          "time": 92.6829500000038,
          "velocity": 0.7559055118110236,
          "duration": 0.4725610937500875
        },
        {
          "name": "D#2",
          "midi": 39,
          "time": 92.6829500000038,
          "velocity": 0.8740157480314961,
          "duration": 0.010162604166680467
        },
        {
          "name": "B4",
          "midi": 71,
          "time": 92.6829500000038,
          "velocity": 0.889763779527559,
          "duration": 0.34552854166672375
        },
        {
          "name": "G#4",
          "midi": 68,
          "time": 92.70327520833715,
          "velocity": 0.6850393700787402,
          "duration": 0.005081302083340233
        },
        {
          "name": "D2",
          "midi": 38,
          "time": 92.80490125000384,
          "velocity": 1,
          "duration": 0.010162604166666256
        },
        {
          "name": "G#4",
          "midi": 68,
          "time": 92.82522645833717,
          "velocity": 0.33070866141732286,
          "duration": 0.005081302083340233
        },
        {
          "name": "F3",
          "midi": 53,
          "time": 92.92685250000385,
          "velocity": 0.5669291338582677,
          "duration": 0.010162604166666256
        },
        {
          "name": "D2",
          "midi": 38,
          "time": 92.92685250000385,
          "velocity": 1,
          "duration": 0.010162604166666256
        },
        {
          "name": "F#2",
          "midi": 42,
          "time": 92.92685250000385,
          "velocity": 0.47244094488188976,
          "duration": 0.010162604166666256
        },
        {
          "name": "E4",
          "midi": 64,
          "time": 92.93701510417051,
          "velocity": 0.8346456692913385,
          "duration": 0.32520333333339124
        },
        {
          "name": "G#4",
          "midi": 68,
          "time": 92.94209640625385,
          "velocity": 0.8740157480314961,
          "duration": 0.11178864583334303
        },
        {
          "name": "D5",
          "midi": 74,
          "time": 92.9471777083372,
          "velocity": 0.8740157480314961,
          "duration": 0.0914634374999963
        },
        {
          "name": "D2",
          "midi": 38,
          "time": 93.04880375000386,
          "velocity": 1,
          "duration": 0.010162604166680467
        },
        {
          "name": "B4",
          "midi": 71,
          "time": 93.04880375000386,
          "velocity": 1,
          "duration": 0.040650416666693445
        },
        {
          "name": "D5",
          "midi": 74,
          "time": 93.05896635417054,
          "velocity": 0.8740157480314961,
          "duration": 0.45223588541671234
        },
        {
          "name": "G#4",
          "midi": 68,
          "time": 93.07421026042054,
          "velocity": 0.8740157480314961,
          "duration": 0.213414687500034
        },
        {
          "name": "C5",
          "midi": 72,
          "time": 93.08945416667055,
          "velocity": 1,
          "duration": 0.24390250000003277
        },
        {
          "name": "E2",
          "midi": 40,
          "time": 93.1707550000039,
          "velocity": 0.48031496062992124,
          "duration": 0.08130083333334426
        },
        {
          "name": "B3",
          "midi": 59,
          "time": 93.1707550000039,
          "velocity": 0.4881889763779528,
          "duration": 0.06605692708333777
        },
        {
          "name": "F3",
          "midi": 53,
          "time": 93.1707550000039,
          "velocity": 0.3779527559055118,
          "duration": 0.010162604166666256
        },
        {
          "name": "G#3",
          "midi": 56,
          "time": 93.1707550000039,
          "velocity": 0.49606299212598426,
          "duration": 0.060975624999997535
        },
        {
          "name": "E4",
          "midi": 64,
          "time": 93.1707550000039,
          "velocity": 0.5748031496062992,
          "duration": 0.09146343750001051
        },
        {
          "name": "G#2",
          "midi": 44,
          "time": 93.1707550000039,
          "velocity": 0.6377952755905512,
          "duration": 0.19308947916668728
        },
        {
          "name": "D2",
          "midi": 38,
          "time": 93.1707550000039,
          "velocity": 1,
          "duration": 0.010162604166666256
        },
        {
          "name": "E4",
          "midi": 64,
          "time": 93.1707550000039,
          "velocity": 0.5748031496062992,
          "duration": 0.3048781250000161
        },
        {
          "name": "F3",
          "midi": 53,
          "time": 93.29270625000392,
          "velocity": 0.3937007874015748,
          "duration": 0.010162604166666256
        },
        {
          "name": "D2",
          "midi": 38,
          "time": 93.29270625000392,
          "velocity": 0.8110236220472441,
          "duration": 0.010162604166666256
        },
        {
          "name": "G#4",
          "midi": 68,
          "time": 93.31303145833725,
          "velocity": 0.7952755905511811,
          "duration": 0.0914634374999963
        },
        {
          "name": "F#2",
          "midi": 42,
          "time": 93.41465750000391,
          "velocity": 0.47244094488188976,
          "duration": 0.010162604166666256
        },
        {
          "name": "D#2",
          "midi": 39,
          "time": 93.41465750000391,
          "velocity": 0.49606299212598426,
          "duration": 0.010162604166666256
        },
        {
          "name": "F3",
          "midi": 53,
          "time": 93.41465750000391,
          "velocity": 0.47244094488188976,
          "duration": 0.010162604166666256
        },
        {
          "name": "B2",
          "midi": 47,
          "time": 93.41465750000391,
          "velocity": 0.6377952755905512,
          "duration": 0.18292687500000682
        },
        {
          "name": "D5",
          "midi": 74,
          "time": 93.41465750000391,
          "velocity": 0.9763779527559056,
          "duration": 0.2337398958333381
        },
        {
          "name": "G#4",
          "midi": 68,
          "time": 93.42482010417058,
          "velocity": 0.8740157480314961,
          "duration": 0.060975624999997535
        },
        {
          "name": "D#2",
          "midi": 39,
          "time": 93.53660875000392,
          "velocity": 0.7716535433070866,
          "duration": 0.010162604166666256
        },
        {
          "name": "E4",
          "midi": 64,
          "time": 93.65856000000392,
          "velocity": 0.5275590551181102,
          "duration": 0.16260166666670273
        },
        {
          "name": "C4",
          "midi": 60,
          "time": 93.65856000000392,
          "velocity": 0.5748031496062992,
          "duration": 0.15243906250003647
        },
        {
          "name": "C4",
          "midi": 60,
          "time": 93.65856000000392,
          "velocity": 0.5748031496062992,
          "duration": 0.15243906250003647
        },
        {
          "name": "F3",
          "midi": 53,
          "time": 93.65856000000392,
          "velocity": 0.4566929133858268,
          "duration": 0.010162604166666256
        },
        {
          "name": "E5",
          "midi": 76,
          "time": 93.65856000000392,
          "velocity": 1,
          "duration": 0.6656505729167748
        },
        {
          "name": "A2",
          "midi": 45,
          "time": 93.65856000000392,
          "velocity": 0.6377952755905512,
          "duration": 0.16768296875004296
        },
        {
          "name": "E4",
          "midi": 64,
          "time": 93.65856000000392,
          "velocity": 0.5275590551181102,
          "duration": 0.16260166666670273
        },
        {
          "name": "A3",
          "midi": 57,
          "time": 93.65856000000392,
          "velocity": 0.49606299212598426,
          "duration": 0.15243906250003647
        },
        {
          "name": "C4",
          "midi": 60,
          "time": 93.65856000000392,
          "velocity": 0.7165354330708661,
          "duration": 0.5030489062501005
        },
        {
          "name": "A2",
          "midi": 45,
          "time": 93.65856000000392,
          "velocity": 0.5433070866141733,
          "duration": 0.462398489583407
        },
        {
          "name": "D2",
          "midi": 38,
          "time": 93.65856000000392,
          "velocity": 1,
          "duration": 0.010162604166666256
        },
        {
          "name": "E4",
          "midi": 64,
          "time": 93.67888520833726,
          "velocity": 0.6456692913385826,
          "duration": 0.35569114583339
        },
        {
          "name": "D2",
          "midi": 38,
          "time": 93.78051125000394,
          "velocity": 1,
          "duration": 0.010162604166666256
        },
        {
          "name": "B4",
          "midi": 71,
          "time": 93.79575515625395,
          "velocity": 0.5039370078740157,
          "duration": 0.005081302083340233
        },
        {
          "name": "D2",
          "midi": 38,
          "time": 93.90246250000396,
          "velocity": 0.9212598425196851,
          "duration": 0.010162604166680467
        },
        {
          "name": "F3",
          "midi": 53,
          "time": 93.90246250000396,
          "velocity": 0.5511811023622047,
          "duration": 0.010162604166680467
        },
        {
          "name": "E4",
          "midi": 64,
          "time": 93.90246250000396,
          "velocity": 0.6850393700787402,
          "duration": 0.23882119791669254
        },
        {
          "name": "F#2",
          "midi": 42,
          "time": 93.90246250000396,
          "velocity": 0.47244094488188976,
          "duration": 0.010162604166680467
        },
        {
          "name": "C5",
          "midi": 72,
          "time": 93.9075438020873,
          "velocity": 0.8740157480314961,
          "duration": 0.11178864583334303
        },
        {
          "name": "D#2",
          "midi": 39,
          "time": 94.02441375000399,
          "velocity": 0.4330708661417323,
          "duration": 0.010162604166666256
        },
        {
          "name": "C5",
          "midi": 72,
          "time": 94.03457635417065,
          "velocity": 0.8740157480314961,
          "duration": 0.12703255208336373
        },
        {
          "name": "E4",
          "midi": 64,
          "time": 94.04473895833732,
          "velocity": 0.8740157480314961,
          "duration": 0.13211385416670396
        },
        {
          "name": "C4",
          "midi": 60,
          "time": 94.04982026042066,
          "velocity": 0.4645669291338583,
          "duration": 0.5843497395834305
        },
        {
          "name": "C2",
          "midi": 36,
          "time": 94.146365000004,
          "velocity": 0.7244094488188977,
          "duration": 0.1930894791667015
        },
        {
          "name": "D#2",
          "midi": 39,
          "time": 94.146365000004,
          "velocity": 0.7874015748031497,
          "duration": 0.010162604166680467
        },
        {
          "name": "C5",
          "midi": 72,
          "time": 94.16669020833736,
          "velocity": 0.8740157480314961,
          "duration": 0.010162604166666256
        },
        {
          "name": "E4",
          "midi": 64,
          "time": 94.16669020833736,
          "velocity": 0.3937007874015748,
          "duration": 0.35060984375003557
        },
        {
          "name": "D2",
          "midi": 38,
          "time": 94.26831625000402,
          "velocity": 0.4251968503937008,
          "duration": 0.010162604166666256
        },
        {
          "name": "F3",
          "midi": 53,
          "time": 94.26831625000402,
          "velocity": 0.41732283464566927,
          "duration": 0.010162604166666256
        },
        {
          "name": "F#2",
          "midi": 42,
          "time": 94.39026750000403,
          "velocity": 0.47244094488188976,
          "duration": 0.010162604166680467
        },
        {
          "name": "E4",
          "midi": 64,
          "time": 94.39026750000403,
          "velocity": 0.5039370078740157,
          "duration": 0.2439025000000612
        },
        {
          "name": "F3",
          "midi": 53,
          "time": 94.39026750000403,
          "velocity": 0.4881889763779528,
          "duration": 0.010162604166680467
        },
        {
          "name": "A2",
          "midi": 45,
          "time": 94.39026750000403,
          "velocity": 0.5275590551181102,
          "duration": 0.6504066666667683
        },
        {
          "name": "E2",
          "midi": 40,
          "time": 94.39026750000403,
          "velocity": 0.6692913385826772,
          "duration": 0.18800817708338968
        },
        {
          "name": "C4",
          "midi": 60,
          "time": 94.39026750000403,
          "velocity": 0.5590551181102362,
          "duration": 0.675813177083441
        },
        {
          "name": "A3",
          "midi": 57,
          "time": 94.39026750000403,
          "velocity": 0.5748031496062992,
          "duration": 0.6504066666667683
        },
        {
          "name": "D2",
          "midi": 38,
          "time": 94.39026750000403,
          "velocity": 0.8503937007874016,
          "duration": 0.010162604166680467
        },
        {
          "name": "E4",
          "midi": 64,
          "time": 94.39026750000403,
          "velocity": 0.5039370078740157,
          "duration": 0.3912602604167432
        },
        {
          "name": "C4",
          "midi": 60,
          "time": 94.39026750000403,
          "velocity": 0.5590551181102362,
          "duration": 0.675813177083441
        },
        {
          "name": "E4",
          "midi": 64,
          "time": 94.39534880208737,
          "velocity": 0.7244094488188977,
          "duration": 0.6046749479167488
        },
        {
          "name": "C5",
          "midi": 72,
          "time": 94.40551140625405,
          "velocity": 0.8740157480314961,
          "duration": 0.10670734375000279
        },
        {
          "name": "D2",
          "midi": 38,
          "time": 94.51221875000405,
          "velocity": 1,
          "duration": 0.010162604166680467
        },
        {
          "name": "C5",
          "midi": 72,
          "time": 94.5325439583374,
          "velocity": 0.8740157480314961,
          "duration": 0.11178864583335724
        },
        {
          "name": "E4",
          "midi": 64,
          "time": 94.53762526042074,
          "velocity": 0.8740157480314961,
          "duration": 0.5233741145833903
        },
        {
          "name": "C4",
          "midi": 60,
          "time": 94.54270656250408,
          "velocity": 0.3858267716535433,
          "duration": 0.6453253645833996
        },
        {
          "name": "F3",
          "midi": 53,
          "time": 94.63417000000409,
          "velocity": 0.47244094488188976,
          "duration": 0.010162604166666256
        },
        {
          "name": "D2",
          "midi": 38,
          "time": 94.63417000000409,
          "velocity": 1,
          "duration": 0.010162604166666256
        },
        {
          "name": "A1",
          "midi": 33,
          "time": 94.63417000000409,
          "velocity": 0.7244094488188977,
          "duration": 0.43699197916672006
        },
        {
          "name": "C5",
          "midi": 72,
          "time": 94.6494139062541,
          "velocity": 0.8740157480314961,
          "duration": 0.010162604166666256
        },
        {
          "name": "D2",
          "midi": 38,
          "time": 94.7561212500041,
          "velocity": 1,
          "duration": 0.010162604166666256
        },
        {
          "name": "E4",
          "midi": 64,
          "time": 94.7713651562541,
          "velocity": 0.33070866141732286,
          "duration": 0.2896342187500238
        },
        {
          "name": "F#2",
          "midi": 42,
          "time": 94.87807250000411,
          "velocity": 0.47244094488188976,
          "duration": 0.010162604166680467
        },
        {
          "name": "F3",
          "midi": 53,
          "time": 94.87807250000411,
          "velocity": 0.5669291338582677,
          "duration": 0.010162604166680467
        },
        {
          "name": "D#2",
          "midi": 39,
          "time": 94.87807250000411,
          "velocity": 0.5433070866141733,
          "duration": 0.010162604166680467
        },
        {
          "name": "E4",
          "midi": 64,
          "time": 94.88315380208745,
          "velocity": 0.8740157480314961,
          "duration": 0.33028463541670305
        },
        {
          "name": "C5",
          "midi": 72,
          "time": 94.88823510417079,
          "velocity": 0.8740157480314961,
          "duration": 0.11178864583332881
        },
        {
          "name": "D#2",
          "midi": 39,
          "time": 95.00002375000412,
          "velocity": 0.5984251968503937,
          "duration": 0.010162604166666256
        },
        {
          "name": "C5",
          "midi": 72,
          "time": 95.01018635417078,
          "velocity": 0.8740157480314961,
          "duration": 0.350609843750064
        },
        {
          "name": "E4",
          "midi": 64,
          "time": 95.01526765625412,
          "velocity": 0.7086614173228346,
          "duration": 0.19817078125002752
        },
        {
          "name": "F3",
          "midi": 53,
          "time": 95.12197500000414,
          "velocity": 0.4881889763779528,
          "duration": 0.010162604166666256
        },
        {
          "name": "E4",
          "midi": 64,
          "time": 95.12197500000414,
          "velocity": 0.5748031496062992,
          "duration": 0.11686994791668326
        },
        {
          "name": "D#2",
          "midi": 39,
          "time": 95.12197500000414,
          "velocity": 1,
          "duration": 0.010162604166666256
        },
        {
          "name": "C4",
          "midi": 60,
          "time": 95.12197500000414,
          "velocity": 0.4881889763779528,
          "duration": 0.06605692708333777
        },
        {
          "name": "A2",
          "midi": 45,
          "time": 95.12197500000414,
          "velocity": 0.48031496062992124,
          "duration": 0.08130083333334426
        },
        {
          "name": "E4",
          "midi": 64,
          "time": 95.12197500000414,
          "velocity": 0.5748031496062992,
          "duration": 0.2286585937500405
        },
        {
          "name": "C2",
          "midi": 36,
          "time": 95.12197500000414,
          "velocity": 0.6377952755905512,
          "duration": 0.213414687500034
        },
        {
          "name": "C4",
          "midi": 60,
          "time": 95.12197500000414,
          "velocity": 0.4881889763779528,
          "duration": 0.36077244791673024
        },
        {
          "name": "A3",
          "midi": 57,
          "time": 95.12197500000414,
          "velocity": 0.49606299212598426,
          "duration": 0.060975624999997535
        },
        {
          "name": "D#2",
          "midi": 39,
          "time": 95.24392625000417,
          "velocity": 0.25196850393700787,
          "duration": 0.010162604166680467
        },
        {
          "name": "F3",
          "midi": 53,
          "time": 95.24392625000417,
          "velocity": 0.4566929133858268,
          "duration": 0.010162604166680467
        },
        {
          "name": "E4",
          "midi": 64,
          "time": 95.2490075520875,
          "velocity": 0.6692913385826772,
          "duration": 0.18292687500003524
        },
        {
          "name": "E5",
          "midi": 76,
          "time": 95.36587750000419,
          "velocity": 1,
          "duration": 0.23373989583336652
        },
        {
          "name": "F#2",
          "midi": 42,
          "time": 95.36587750000419,
          "velocity": 0.47244094488188976,
          "duration": 0.010162604166680467
        },
        {
          "name": "E4",
          "midi": 64,
          "time": 95.36587750000419,
          "velocity": 0.8740157480314961,
          "duration": 0.14735776041669624
        },
        {
          "name": "D#2",
          "midi": 39,
          "time": 95.36587750000419,
          "velocity": 0.49606299212598426,
          "duration": 0.010162604166680467
        },
        {
          "name": "E2",
          "midi": 40,
          "time": 95.36587750000419,
          "velocity": 0.6377952755905512,
          "duration": 0.09654473958335075
        },
        {
          "name": "F3",
          "midi": 53,
          "time": 95.36587750000419,
          "velocity": 0.5196850393700787,
          "duration": 0.010162604166680467
        },
        {
          "name": "C5",
          "midi": 72,
          "time": 95.37095880208753,
          "velocity": 0.8740157480314961,
          "duration": 0.09146343750001051
        },
        {
          "name": "D#2",
          "midi": 39,
          "time": 95.48782875000421,
          "velocity": 0.8661417322834646,
          "duration": 0.010162604166666256
        },
        {
          "name": "F3",
          "midi": 53,
          "time": 95.60978000000422,
          "velocity": 0.2992125984251969,
          "duration": 0.010162604166666256
        },
        {
          "name": "E2",
          "midi": 40,
          "time": 95.60978000000422,
          "velocity": 0.6850393700787402,
          "duration": 0.16768296875004296
        },
        {
          "name": "D4",
          "midi": 62,
          "time": 95.60978000000422,
          "velocity": 0.7874015748031497,
          "duration": 1.8140248437502322
        },
        {
          "name": "D#2",
          "midi": 39,
          "time": 95.60978000000422,
          "velocity": 0.7086614173228346,
          "duration": 0.010162604166666256
        },
        {
          "name": "E4",
          "midi": 64,
          "time": 95.60978000000422,
          "velocity": 0.5275590551181102,
          "duration": 0.16260166666670273
        },
        {
          "name": "G#3",
          "midi": 56,
          "time": 95.60978000000422,
          "velocity": 0.49606299212598426,
          "duration": 0.15243906250002226
        },
        {
          "name": "D5",
          "midi": 74,
          "time": 95.60978000000422,
          "velocity": 0.8661417322834646,
          "duration": 0.1575203645833625
        },
        {
          "name": "B3",
          "midi": 59,
          "time": 95.60978000000422,
          "velocity": 0.5748031496062992,
          "duration": 0.15243906250002226
        },
        {
          "name": "E4",
          "midi": 64,
          "time": 95.60978000000422,
          "velocity": 0.5275590551181102,
          "duration": 0.16260166666670273
        },
        {
          "name": "E2",
          "midi": 40,
          "time": 95.60978000000422,
          "velocity": 0.5433070866141733,
          "duration": 0.45223588541672655
        },
        {
          "name": "F4",
          "midi": 65,
          "time": 95.63010520833755,
          "velocity": 0.7716535433070866,
          "duration": 1.8191061458335724
        },
        {
          "name": "D2",
          "midi": 38,
          "time": 95.73173125000423,
          "velocity": 1,
          "duration": 0.010162604166666256
        },
        {
          "name": "D5",
          "midi": 74,
          "time": 95.7571377604209,
          "velocity": 0.5039370078740157,
          "duration": 0.0863821354166987
        },
        {
          "name": "D2",
          "midi": 38,
          "time": 95.85368250000427,
          "velocity": 0.9212598425196851,
          "duration": 0.010162604166666256
        },
        {
          "name": "F3",
          "midi": 53,
          "time": 95.85368250000427,
          "velocity": 0.5511811023622047,
          "duration": 0.010162604166666256
        },
        {
          "name": "F#2",
          "midi": 42,
          "time": 95.85368250000427,
          "velocity": 0.47244094488188976,
          "duration": 0.010162604166666256
        },
        {
          "name": "C5",
          "midi": 72,
          "time": 95.85368250000427,
          "velocity": 0.8346456692913385,
          "duration": 0.2337398958333523
        },
        {
          "name": "G#4",
          "midi": 68,
          "time": 95.8740077083376,
          "velocity": 0.8582677165354331,
          "duration": 0.04573171875000526
        },
        {
          "name": "D5",
          "midi": 74,
          "time": 95.87908901042094,
          "velocity": 0.8740157480314961,
          "duration": 0.24390250000003277
        },
        {
          "name": "D2",
          "midi": 38,
          "time": 95.97563375000428,
          "velocity": 1,
          "duration": 0.010162604166666256
        },
        {
          "name": "G#4",
          "midi": 68,
          "time": 96.01120286458762,
          "velocity": 0.7086614173228346,
          "duration": 0.106707343750017
        },
        {
          "name": "G#2",
          "midi": 44,
          "time": 96.09758500000429,
          "velocity": 0.8110236220472441,
          "duration": 0.20325208333338196
        },
        {
          "name": "B4",
          "midi": 71,
          "time": 96.09758500000429,
          "velocity": 0.5826771653543307,
          "duration": 0.23373989583338073
        },
        {
          "name": "F3",
          "midi": 53,
          "time": 96.09758500000429,
          "velocity": 0.4566929133858268,
          "duration": 0.010162604166680467
        },
        {
          "name": "D#2",
          "midi": 39,
          "time": 96.09758500000429,
          "velocity": 0.7086614173228346,
          "duration": 0.010162604166680467
        },
        {
          "name": "G#4",
          "midi": 68,
          "time": 96.12299151042097,
          "velocity": 0.6771653543307087,
          "duration": 0.010162604166680467
        },
        {
          "name": "D5",
          "midi": 74,
          "time": 96.12807281250431,
          "velocity": 0.8740157480314961,
          "duration": 0.010162604166680467
        },
        {
          "name": "D2",
          "midi": 38,
          "time": 96.21953625000432,
          "velocity": 0.4251968503937008,
          "duration": 0.010162604166666256
        },
        {
          "name": "D5",
          "midi": 74,
          "time": 96.25002406250432,
          "velocity": 0.7401574803149606,
          "duration": 0.005081302083340233
        },
        {
          "name": "E2",
          "midi": 40,
          "time": 96.34148750000433,
          "velocity": 0.5275590551181102,
          "duration": 0.6504066666667256
        },
        {
          "name": "F#2",
          "midi": 42,
          "time": 96.34148750000433,
          "velocity": 0.47244094488188976,
          "duration": 0.010162604166666256
        },
        {
          "name": "D2",
          "midi": 38,
          "time": 96.34148750000433,
          "velocity": 0.8503937007874016,
          "duration": 0.010162604166666256
        },
        {
          "name": "E4",
          "midi": 64,
          "time": 96.34148750000433,
          "velocity": 0.5039370078740157,
          "duration": 0.24390250000004698
        },
        {
          "name": "G#3",
          "midi": 56,
          "time": 96.34148750000433,
          "velocity": 0.5748031496062992,
          "duration": 0.6504066666667256
        },
        {
          "name": "F3",
          "midi": 53,
          "time": 96.34148750000433,
          "velocity": 0.5511811023622047,
          "duration": 0.010162604166666256
        },
        {
          "name": "B2",
          "midi": 47,
          "time": 96.34148750000433,
          "velocity": 0.6220472440944882,
          "duration": 0.23882119791670675
        },
        {
          "name": "A4",
          "midi": 69,
          "time": 96.34148750000433,
          "velocity": 0.8582677165354331,
          "duration": 0.23373989583336652
        },
        {
          "name": "E4",
          "midi": 64,
          "time": 96.34148750000433,
          "velocity": 0.5039370078740157,
          "duration": 0.6707318750000582
        },
        {
          "name": "B3",
          "midi": 59,
          "time": 96.34148750000433,
          "velocity": 0.5590551181102362,
          "duration": 0.6758131770833984
        },
        {
          "name": "D5",
          "midi": 74,
          "time": 96.35673140625434,
          "velocity": 0.8740157480314961,
          "duration": 0.11178864583334303
        },
        {
          "name": "D2",
          "midi": 38,
          "time": 96.46343875000434,
          "velocity": 1,
          "duration": 0.010162604166680467
        },
        {
          "name": "D5",
          "midi": 74,
          "time": 96.47360135417102,
          "velocity": 0.8740157480314961,
          "duration": 0.10162604166667677
        },
        {
          "name": "G#4",
          "midi": 68,
          "time": 96.47868265625436,
          "velocity": 0.8740157480314961,
          "duration": 0.106707343750017
        },
        {
          "name": "E4",
          "midi": 64,
          "time": 96.48884526042103,
          "velocity": 0.48031496062992124,
          "duration": 0.5233741145833619
        },
        {
          "name": "E2",
          "midi": 40,
          "time": 96.58539000000438,
          "velocity": 0.7559055118110236,
          "duration": 0.4725610937500164
        },
        {
          "name": "F3",
          "midi": 53,
          "time": 96.58539000000438,
          "velocity": 0.2992125984251969,
          "duration": 0.010162604166666256
        },
        {
          "name": "D#2",
          "midi": 39,
          "time": 96.58539000000438,
          "velocity": 0.7086614173228346,
          "duration": 0.010162604166666256
        },
        {
          "name": "G#4",
          "midi": 68,
          "time": 96.58539000000438,
          "velocity": 1,
          "duration": 0.37093505208333966
        },
        {
          "name": "D2",
          "midi": 38,
          "time": 96.70734125000438,
          "velocity": 1,
          "duration": 0.010162604166666256
        },
        {
          "name": "D5",
          "midi": 74,
          "time": 96.72258515625438,
          "velocity": 0.7086614173228346,
          "duration": 0.010162604166666256
        },
        {
          "name": "G#4",
          "midi": 68,
          "time": 96.82929250000439,
          "velocity": 0.33070866141732286,
          "duration": 0.2337398958333523
        },
        {
          "name": "D2",
          "midi": 38,
          "time": 96.82929250000439,
          "velocity": 0.9212598425196851,
          "duration": 0.010162604166666256
        },
        {
          "name": "F#2",
          "midi": 42,
          "time": 96.82929250000439,
          "velocity": 0.47244094488188976,
          "duration": 0.010162604166666256
        },
        {
          "name": "F3",
          "midi": 53,
          "time": 96.82929250000439,
          "velocity": 0.5511811023622047,
          "duration": 0.010162604166666256
        },
        {
          "name": "D5",
          "midi": 74,
          "time": 96.83945510417105,
          "velocity": 0.8740157480314961,
          "duration": 0.5487806250000631
        },
        {
          "name": "D2",
          "midi": 38,
          "time": 96.95124375000438,
          "velocity": 1,
          "duration": 0.010162604166680467
        },
        {
          "name": "G#4",
          "midi": 68,
          "time": 96.96140635417106,
          "velocity": 0.7086614173228346,
          "duration": 0.18292687500002103
        },
        {
          "name": "G#4",
          "midi": 68,
          "time": 97.0731950000044,
          "velocity": 0.6456692913385826,
          "duration": 0.12703255208334951
        },
        {
          "name": "G#3",
          "midi": 56,
          "time": 97.0731950000044,
          "velocity": 0.49606299212598426,
          "duration": 0.060975624999997535
        },
        {
          "name": "G#2",
          "midi": 44,
          "time": 97.0731950000044,
          "velocity": 0.6377952755905512,
          "duration": 0.1930894791667015
        },
        {
          "name": "E4",
          "midi": 64,
          "time": 97.0731950000044,
          "velocity": 0.5748031496062992,
          "duration": 0.09146343750001051
        },
        {
          "name": "E2",
          "midi": 40,
          "time": 97.0731950000044,
          "velocity": 0.48031496062992124,
          "duration": 0.08130083333334426
        },
        {
          "name": "F3",
          "midi": 53,
          "time": 97.0731950000044,
          "velocity": 0.3937007874015748,
          "duration": 0.010162604166666256
        },
        {
          "name": "D#2",
          "midi": 39,
          "time": 97.0731950000044,
          "velocity": 1,
          "duration": 0.010162604166666256
        },
        {
          "name": "B3",
          "midi": 59,
          "time": 97.0731950000044,
          "velocity": 0.4881889763779528,
          "duration": 0.06605692708333777
        },
        {
          "name": "E4",
          "midi": 64,
          "time": 97.0731950000044,
          "velocity": 0.5748031496062992,
          "duration": 0.09146343750001051
        },
        {
          "name": "D#2",
          "midi": 39,
          "time": 97.19514625000441,
          "velocity": 0.47244094488188976,
          "duration": 0.010162604166680467
        },
        {
          "name": "F3",
          "midi": 53,
          "time": 97.19514625000441,
          "velocity": 0.36220472440944884,
          "duration": 0.010162604166680467
        },
        {
          "name": "G#4",
          "midi": 68,
          "time": 97.21039015625443,
          "velocity": 0.8740157480314961,
          "duration": 0.1626016666666743
        },
        {
          "name": "E4",
          "midi": 64,
          "time": 97.21547145833777,
          "velocity": 0.47244094488188976,
          "duration": 0.15752036458333407
        },
        {
          "name": "F#2",
          "midi": 42,
          "time": 97.31709750000444,
          "velocity": 0.47244094488188976,
          "duration": 0.010162604166666256
        },
        {
          "name": "B2",
          "midi": 47,
          "time": 97.31709750000444,
          "velocity": 0.6377952755905512,
          "duration": 0.18292687500002103
        },
        {
          "name": "F3",
          "midi": 53,
          "time": 97.31709750000444,
          "velocity": 0.49606299212598426,
          "duration": 0.010162604166666256
        },
        {
          "name": "F5",
          "midi": 77,
          "time": 97.31709750000444,
          "velocity": 1,
          "duration": 0.2337398958333523
        },
        {
          "name": "D#2",
          "midi": 39,
          "time": 97.31709750000444,
          "velocity": 0.49606299212598426,
          "duration": 0.010162604166666256
        },
        {
          "name": "D#2",
          "midi": 39,
          "time": 97.43904875000446,
          "velocity": 0.7716535433070866,
          "duration": 0.010162604166666256
        },
        {
          "name": "C4",
          "midi": 60,
          "time": 97.56100000000446,
          "velocity": 0.7165354330708661,
          "duration": 0.15243906250002226
        },
        {
          "name": "E5",
          "midi": 76,
          "time": 97.56100000000446,
          "velocity": 0.984251968503937,
          "duration": 0.48780500000005134
        },
        {
          "name": "A2",
          "midi": 45,
          "time": 97.56100000000446,
          "velocity": 0.5433070866141733,
          "duration": 0.16768296875002875
        },
        {
          "name": "A2",
          "midi": 45,
          "time": 97.56100000000446,
          "velocity": 0.6377952755905512,
          "duration": 0.4623984895833786
        },
        {
          "name": "C4",
          "midi": 60,
          "time": 97.56100000000446,
          "velocity": 0.5748031496062992,
          "duration": 0.15243906250002226
        },
        {
          "name": "A3",
          "midi": 57,
          "time": 97.56100000000446,
          "velocity": 0.49606299212598426,
          "duration": 0.15243906250002226
        },
        {
          "name": "C4",
          "midi": 60,
          "time": 97.56100000000446,
          "velocity": 0.5748031496062992,
          "duration": 0.5182928125000643
        },
        {
          "name": "E4",
          "midi": 64,
          "time": 97.56100000000446,
          "velocity": 0.5275590551181102,
          "duration": 0.16260166666668852
        },
        {
          "name": "E4",
          "midi": 64,
          "time": 97.56100000000446,
          "velocity": 0.5275590551181102,
          "duration": 0.16260166666668852
        },
        {
          "name": "F3",
          "midi": 53,
          "time": 97.56100000000446,
          "velocity": 0.5196850393700787,
          "duration": 0.010162604166666256
        },
        {
          "name": "D#2",
          "midi": 39,
          "time": 97.56100000000446,
          "velocity": 0.8740157480314961,
          "duration": 0.010162604166666256
        },
        {
          "name": "C5",
          "midi": 72,
          "time": 97.57624390625446,
          "velocity": 0.6692913385826772,
          "duration": 0.005081302083340233
        },
        {
          "name": "E4",
          "midi": 64,
          "time": 97.5813252083378,
          "velocity": 0.7165354330708661,
          "duration": 0.3607724479166876
        },
        {
          "name": "D2",
          "midi": 38,
          "time": 97.68295125000448,
          "velocity": 1,
          "duration": 0.010162604166666256
        },
        {
          "name": "F#2",
          "midi": 42,
          "time": 97.80490250000449,
          "velocity": 0.47244094488188976,
          "duration": 0.010162604166666256
        },
        {
          "name": "F3",
          "midi": 53,
          "time": 97.80490250000449,
          "velocity": 0.4566929133858268,
          "duration": 0.010162604166666256
        },
        {
          "name": "D2",
          "midi": 38,
          "time": 97.80490250000449,
          "velocity": 0.9212598425196851,
          "duration": 0.010162604166666256
        },
        {
          "name": "E4",
          "midi": 64,
          "time": 97.80490250000449,
          "velocity": 0.4251968503937008,
          "duration": 0.24390250000001856
        },
        {
          "name": "C5",
          "midi": 72,
          "time": 97.81506510417115,
          "velocity": 0.8740157480314961,
          "duration": 0.11178864583332881
        },
        {
          "name": "D2",
          "midi": 38,
          "time": 97.92685375000448,
          "velocity": 1,
          "duration": 0.010162604166666256
        },
        {
          "name": "C5",
          "midi": 72,
          "time": 97.93701635417115,
          "velocity": 0.8740157480314961,
          "duration": 0.11686994791669747
        },
        {
          "name": "E4",
          "midi": 64,
          "time": 97.94717895833783,
          "velocity": 0.8740157480314961,
          "duration": 0.12195125000002349
        },
        {
          "name": "C4",
          "midi": 60,
          "time": 97.95226026042117,
          "velocity": 0.47244094488188976,
          "duration": 0.5691058333333956
        },
        {
          "name": "C5",
          "midi": 72,
          "time": 98.0488050000045,
          "velocity": 0.9133858267716536,
          "duration": 0.03048781250001298
        },
        {
          "name": "F3",
          "midi": 53,
          "time": 98.0488050000045,
          "velocity": 0.4881889763779528,
          "duration": 0.010162604166680467
        },
        {
          "name": "D#2",
          "midi": 39,
          "time": 98.0488050000045,
          "velocity": 1,
          "duration": 0.010162604166680467
        },
        {
          "name": "C2",
          "midi": 36,
          "time": 98.0488050000045,
          "velocity": 0.7244094488188977,
          "duration": 0.19308947916668728
        },
        {
          "name": "E4",
          "midi": 64,
          "time": 98.05896760417119,
          "velocity": 0.5984251968503937,
          "duration": 0.14735776041666782
        },
        {
          "name": "C5",
          "midi": 72,
          "time": 98.06913020833785,
          "velocity": 0.8740157480314961,
          "duration": 0.21341468750000558
        },
        {
          "name": "D2",
          "midi": 38,
          "time": 98.17075625000452,
          "velocity": 0.4251968503937008,
          "duration": 0.010162604166666256
        },
        {
          "name": "E4",
          "midi": 64,
          "time": 98.19616276042119,
          "velocity": 0.33070866141732286,
          "duration": 0.3201220312500368
        },
        {
          "name": "F#2",
          "midi": 42,
          "time": 98.29270750000452,
          "velocity": 0.47244094488188976,
          "duration": 0.010162604166680467
        },
        {
          "name": "C4",
          "midi": 60,
          "time": 98.29270750000452,
          "velocity": 0.5590551181102362,
          "duration": 0.6758131770834268
        },
        {
          "name": "F3",
          "midi": 53,
          "time": 98.29270750000452,
          "velocity": 0.4881889763779528,
          "duration": 0.010162604166680467
        },
        {
          "name": "D2",
          "midi": 38,
          "time": 98.29270750000452,
          "velocity": 0.8503937007874016,
          "duration": 0.010162604166680467
        },
        {
          "name": "E4",
          "midi": 64,
          "time": 98.29270750000452,
          "velocity": 0.5039370078740157,
          "duration": 0.48780500000007976
        },
        {
          "name": "E2",
          "midi": 40,
          "time": 98.29270750000452,
          "velocity": 0.6692913385826772,
          "duration": 0.18800817708336126
        },
        {
          "name": "A2",
          "midi": 45,
          "time": 98.29270750000452,
          "velocity": 0.5275590551181102,
          "duration": 0.41158546875007573
        },
        {
          "name": "E4",
          "midi": 64,
          "time": 98.29270750000452,
          "velocity": 0.5039370078740157,
          "duration": 0.6707318750000866
        },
        {
          "name": "C4",
          "midi": 60,
          "time": 98.29270750000452,
          "velocity": 0.5590551181102362,
          "duration": 0.6758131770834268
        },
        {
          "name": "C5",
          "midi": 72,
          "time": 98.29270750000452,
          "velocity": 0.7559055118110236,
          "duration": 0.15243906250002226
        },
        {
          "name": "A3",
          "midi": 57,
          "time": 98.29270750000452,
          "velocity": 0.5748031496062992,
          "duration": 0.6504066666667541
        },
        {
          "name": "E4",
          "midi": 64,
          "time": 98.31303270833787,
          "velocity": 0.8740157480314961,
          "duration": 0.6504066666667399
        },
        {
          "name": "C5",
          "midi": 72,
          "time": 98.31811401042121,
          "velocity": 0.8740157480314961,
          "duration": 0.22865859375002628
        },
        {
          "name": "D2",
          "midi": 38,
          "time": 98.41465875000455,
          "velocity": 1,
          "duration": 0.010162604166666256
        },
        {
          "name": "C5",
          "midi": 72,
          "time": 98.45530916667121,
          "velocity": 0.8740157480314961,
          "duration": 0.18800817708337547
        },
        {
          "name": "C4",
          "midi": 60,
          "time": 98.46039046875455,
          "velocity": 0.33070866141732286,
          "duration": 0.6300814583334358
        },
        {
          "name": "A2",
          "midi": 45,
          "time": 98.53661000000457,
          "velocity": 0.8110236220472441,
          "duration": 0.4065041666667071
        },
        {
          "name": "F3",
          "midi": 53,
          "time": 98.53661000000457,
          "velocity": 0.36220472440944884,
          "duration": 0.010162604166666256
        },
        {
          "name": "D2",
          "midi": 38,
          "time": 98.53661000000457,
          "velocity": 1,
          "duration": 0.010162604166666256
        },
        {
          "name": "E4",
          "midi": 64,
          "time": 98.5569352083379,
          "velocity": 0.7401574803149606,
          "duration": 0.4674797916667188
        },
        {
          "name": "C5",
          "midi": 72,
          "time": 98.56201651042124,
          "velocity": 0.8740157480314961,
          "duration": 0.21849598958336003
        },
        {
          "name": "D2",
          "midi": 38,
          "time": 98.61791083333792,
          "velocity": 1,
          "duration": 0.03048781250001298
        },
        {
          "name": "F3",
          "midi": 53,
          "time": 98.6585612500046,
          "velocity": 0.36220472440944884,
          "duration": 0.010162604166666256
        },
        {
          "name": "C5",
          "midi": 72,
          "time": 98.67888645833793,
          "velocity": 0.7795275590551181,
          "duration": 0.22357729166668605
        },
        {
          "name": "D2",
          "midi": 38,
          "time": 98.69921166667126,
          "velocity": 1,
          "duration": 0.03048781250001298
        },
        {
          "name": "F3",
          "midi": 53,
          "time": 98.7805125000046,
          "velocity": 0.5196850393700787,
          "duration": 0.010162604166666256
        },
        {
          "name": "D2",
          "midi": 38,
          "time": 98.7805125000046,
          "velocity": 1,
          "duration": 0.03048781250001298
        },
        {
          "name": "F#2",
          "midi": 42,
          "time": 98.7805125000046,
          "velocity": 0.47244094488188976,
          "duration": 0.010162604166666256
        },
        {
          "name": "E2",
          "midi": 40,
          "time": 98.7805125000046,
          "velocity": 0.7244094488188977,
          "duration": 0.1626016666666743
        },
        {
          "name": "E4",
          "midi": 64,
          "time": 98.79067510417127,
          "velocity": 0.7559055118110236,
          "duration": 0.30995942708338475
        },
        {
          "name": "C5",
          "midi": 72,
          "time": 98.79575640625461,
          "velocity": 0.8740157480314961,
          "duration": 0.16768296875000033
        },
        {
          "name": "D2",
          "midi": 38,
          "time": 98.86181333333795,
          "velocity": 1,
          "duration": 0.010162604166666256
        },
        {
          "name": "C5",
          "midi": 72,
          "time": 98.91262635417128,
          "velocity": 0.8740157480314961,
          "duration": 0.10162604166667677
        },
        {
          "name": "D2",
          "midi": 38,
          "time": 98.94311416667128,
          "velocity": 1,
          "duration": 0.03048781250001298
        },
        {
          "name": "C5",
          "midi": 72,
          "time": 98.98376458333796,
          "velocity": 0.8582677165354331,
          "duration": 0.04573171875000526
        },
        {
          "name": "A2",
          "midi": 45,
          "time": 99.02441500000462,
          "velocity": 0.48031496062992124,
          "duration": 0.08130083333337268
        },
        {
          "name": "E4",
          "midi": 64,
          "time": 99.02441500000462,
          "velocity": 0.5748031496062992,
          "duration": 0.09146343750003894
        },
        {
          "name": "F3",
          "midi": 53,
          "time": 99.02441500000462,
          "velocity": 0.7559055118110236,
          "duration": 0.010162604166680467
        },
        {
          "name": "D#2",
          "midi": 39,
          "time": 99.02441500000462,
          "velocity": 1,
          "duration": 0.010162604166680467
        },
        {
          "name": "A2",
          "midi": 45,
          "time": 99.02441500000462,
          "velocity": 0.8110236220472441,
          "duration": 0.1575203645833767
        },
        {
          "name": "E4",
          "midi": 64,
          "time": 99.02441500000462,
          "velocity": 0.5748031496062992,
          "duration": 0.09146343750003894
        },
        {
          "name": "C4",
          "midi": 60,
          "time": 99.02441500000462,
          "velocity": 0.4881889763779528,
          "duration": 0.06605692708336619
        },
        {
          "name": "A3",
          "midi": 57,
          "time": 99.02441500000462,
          "velocity": 0.49606299212598426,
          "duration": 0.06097562500002596
        },
        {
          "name": "C4",
          "midi": 60,
          "time": 99.02441500000462,
          "velocity": 0.4881889763779528,
          "duration": 0.19817078125004173
        },
        {
          "name": "E4",
          "midi": 64,
          "time": 99.0345776041713,
          "velocity": 0.8740157480314961,
          "duration": 0.1930894791667015
        },
        {
          "name": "C5",
          "midi": 72,
          "time": 99.03965890625464,
          "velocity": 0.8740157480314961,
          "duration": 0.08638213541668449
        },
        {
          "name": "C5",
          "midi": 72,
          "time": 99.26831750000467,
          "velocity": 0.889763779527559,
          "duration": 0.22357729166665763
        },
        {
          "name": "D2",
          "midi": 38,
          "time": 99.26831750000467,
          "velocity": 0.8503937007874016,
          "duration": 0.010162604166666256
        },
        {
          "name": "F#2",
          "midi": 42,
          "time": 99.26831750000467,
          "velocity": 0.47244094488188976,
          "duration": 0.010162604166666256
        },
        {
          "name": "D2",
          "midi": 38,
          "time": 99.39026875000467,
          "velocity": 1,
          "duration": 0.010162604166666256
        },
        {
          "name": "B4",
          "midi": 71,
          "time": 99.51222000000466,
          "velocity": 0.8031496062992126,
          "duration": 0.04573171875001947
        },
        {
          "name": "F#4",
          "midi": 66,
          "time": 99.53762651042133,
          "velocity": 0.33858267716535434,
          "duration": 0.01524390625000649
        },
        {
          "name": "B4",
          "midi": 71,
          "time": 99.55287041667134,
          "velocity": 0.3543307086614173,
          "duration": 0.09654473958333654
        },
        {
          "name": "D#4",
          "midi": 63,
          "time": 99.75612250000468,
          "velocity": 0.5433070866141733,
          "duration": 0.10162604166670519
        },
        {
          "name": "F#4",
          "midi": 66,
          "time": 99.75612250000468,
          "velocity": 0.5196850393700787,
          "duration": 0.07621953125001824
        },
        {
          "name": "B4",
          "midi": 71,
          "time": 99.75612250000468,
          "velocity": 0.5196850393700787,
          "duration": 0.08130083333335847
        },
        {
          "name": "D2",
          "midi": 38,
          "time": 99.75612250000468,
          "velocity": 0.9212598425196851,
          "duration": 0.010162604166680467
        },
        {
          "name": "F#4",
          "midi": 66,
          "time": 99.75612250000468,
          "velocity": 0.5196850393700787,
          "duration": 0.13211385416671817
        },
        {
          "name": "B4",
          "midi": 71,
          "time": 99.75612250000468,
          "velocity": 0.5196850393700787,
          "duration": 0.12703255208337794
        },
        {
          "name": "F#4",
          "midi": 66,
          "time": 99.75612250000468,
          "velocity": 0.8267716535433071,
          "duration": 0.13211385416671817
        },
        {
          "name": "B2",
          "midi": 47,
          "time": 99.75612250000468,
          "velocity": 0.5748031496062992,
          "duration": 0.0863821354166987
        },
        {
          "name": "F3",
          "midi": 53,
          "time": 99.75612250000468,
          "velocity": 0.3937007874015748,
          "duration": 0.010162604166680467
        },
        {
          "name": "D#4",
          "midi": 63,
          "time": 99.75612250000468,
          "velocity": 0.5433070866141733,
          "duration": 0.10162604166670519
        },
        {
          "name": "B1",
          "midi": 35,
          "time": 99.75612250000468,
          "velocity": 0.84251968503937,
          "duration": 0.08130083333335847
        },
        {
          "name": "B4",
          "midi": 71,
          "time": 99.76120380208802,
          "velocity": 0.8740157480314961,
          "duration": 0.1219512500000377
        },
        {
          "name": "B2",
          "midi": 47,
          "time": 100.00002500000473,
          "velocity": 0.6850393700787402,
          "duration": 0.18292687500003524
        },
        {
          "name": "D#4",
          "midi": 63,
          "time": 100.00002500000473,
          "velocity": 0.6614173228346457,
          "duration": 0.15243906250002226
        },
        {
          "name": "B4",
          "midi": 71,
          "time": 100.00002500000473,
          "velocity": 0.5748031496062992,
          "duration": 0.11178864583334303
        },
        {
          "name": "F#4",
          "midi": 66,
          "time": 100.00002500000473,
          "velocity": 0.5984251968503937,
          "duration": 0.11686994791668326
        },
        {
          "name": "D#2",
          "midi": 39,
          "time": 100.00002500000473,
          "velocity": 1,
          "duration": 0.010162604166680467
        },
        {
          "name": "F3",
          "midi": 53,
          "time": 100.00002500000473,
          "velocity": 0.4881889763779528,
          "duration": 0.010162604166680467
        },
        {
          "name": "D#4",
          "midi": 63,
          "time": 100.00002500000473,
          "velocity": 0.6614173228346457,
          "duration": 0.20325208333336775
        },
        {
          "name": "B1",
          "midi": 35,
          "time": 100.00002500000473,
          "velocity": 0.84251968503937,
          "duration": 0.12195125000002349
        },
        {
          "name": "B4",
          "midi": 71,
          "time": 100.00002500000473,
          "velocity": 0.5748031496062992,
          "duration": 0.177845572916695
        },
        {
          "name": "D#4",
          "midi": 63,
          "time": 100.00002500000473,
          "velocity": 0.8661417322834646,
          "duration": 0.20325208333336775
        },
        {
          "name": "F#4",
          "midi": 66,
          "time": 100.00002500000473,
          "velocity": 0.5984251968503937,
          "duration": 0.1930894791667015
        },
        {
          "name": "F#4",
          "midi": 66,
          "time": 100.00510630208807,
          "velocity": 0.8740157480314961,
          "duration": 0.18800817708336126
        },
        {
          "name": "B4",
          "midi": 71,
          "time": 100.0101876041714,
          "velocity": 0.8740157480314961,
          "duration": 0.16768296875001454
        },
        {
          "name": "C5",
          "midi": 72,
          "time": 100.24392750000476,
          "velocity": 1,
          "duration": 0.11178864583332881
        },
        {
          "name": "B4",
          "midi": 71,
          "time": 100.48783000000475,
          "velocity": 1,
          "duration": 0.30995942708335633
        },
        {
          "name": "D#4",
          "midi": 63,
          "time": 100.72665119792143,
          "velocity": 0.6614173228346457,
          "duration": 0.09654473958335075
        },
        {
          "name": "F3",
          "midi": 53,
          "time": 100.73173250000477,
          "velocity": 0.5669291338582677,
          "duration": 0.010162604166666256
        },
        {
          "name": "D#4",
          "midi": 63,
          "time": 100.73173250000477,
          "velocity": 0.5433070866141733,
          "duration": 0.09146343750001051
        },
        {
          "name": "B4",
          "midi": 71,
          "time": 100.73173250000477,
          "velocity": 0.5748031496062992,
          "duration": 0.13211385416668975
        },
        {
          "name": "F#4",
          "midi": 66,
          "time": 100.73173250000477,
          "velocity": 0.8740157480314961,
          "duration": 0.08638213541667028
        },
        {
          "name": "B1",
          "midi": 35,
          "time": 100.73173250000477,
          "velocity": 0.7244094488188977,
          "duration": 0.08638213541667028
        },
        {
          "name": "D#4",
          "midi": 63,
          "time": 100.73173250000477,
          "velocity": 0.5433070866141733,
          "duration": 0.142276458333356
        },
        {
          "name": "B4",
          "midi": 71,
          "time": 100.73173250000477,
          "velocity": 0.5748031496062992,
          "duration": 0.13211385416668975
        },
        {
          "name": "F#4",
          "midi": 66,
          "time": 100.73173250000477,
          "velocity": 0.5354330708661418,
          "duration": 0.11178864583334303
        },
        {
          "name": "F#4",
          "midi": 66,
          "time": 100.73173250000477,
          "velocity": 0.5354330708661418,
          "duration": 0.11178864583334303
        },
        {
          "name": "B2",
          "midi": 47,
          "time": 100.73173250000477,
          "velocity": 0.6220472440944882,
          "duration": 0.11686994791668326
        },
        {
          "name": "D2",
          "midi": 38,
          "time": 100.73173250000477,
          "velocity": 0.9212598425196851,
          "duration": 0.010162604166666256
        },
        {
          "name": "B4",
          "midi": 71,
          "time": 100.74189510417143,
          "velocity": 0.8740157480314961,
          "duration": 0.19308947916668728
        },
        {
          "name": "D#4",
          "midi": 63,
          "time": 100.97563500000479,
          "velocity": 0.6614173228346457,
          "duration": 0.14735776041671045
        },
        {
          "name": "F#4",
          "midi": 66,
          "time": 100.97563500000479,
          "velocity": 0.6220472440944882,
          "duration": 0.13211385416668975
        },
        {
          "name": "D#4",
          "midi": 63,
          "time": 100.97563500000479,
          "velocity": 0.6614173228346457,
          "duration": 0.14735776041671045
        },
        {
          "name": "C5",
          "midi": 72,
          "time": 100.97563500000479,
          "velocity": 1,
          "duration": 0.46747979166673304
        },
        {
          "name": "B1",
          "midi": 35,
          "time": 100.97563500000479,
          "velocity": 0.7874015748031497,
          "duration": 0.14735776041671045
        },
        {
          "name": "F3",
          "midi": 53,
          "time": 100.97563500000479,
          "velocity": 0.5511811023622047,
          "duration": 0.010162604166680467
        },
        {
          "name": "D#2",
          "midi": 39,
          "time": 100.97563500000479,
          "velocity": 1,
          "duration": 0.010162604166680467
        },
        {
          "name": "B2",
          "midi": 47,
          "time": 100.97563500000479,
          "velocity": 0.6456692913385826,
          "duration": 0.21849598958337424
        },
        {
          "name": "D#4",
          "midi": 63,
          "time": 100.97563500000479,
          "velocity": 0.6850393700787402,
          "duration": 0.16768296875004296
        },
        {
          "name": "B4",
          "midi": 71,
          "time": 100.97563500000479,
          "velocity": 0.6220472440944882,
          "duration": 0.13211385416668975
        },
        {
          "name": "B4",
          "midi": 71,
          "time": 100.97563500000479,
          "velocity": 0.6220472440944882,
          "duration": 0.14227645833337021
        },
        {
          "name": "F#4",
          "midi": 66,
          "time": 100.97563500000479,
          "velocity": 0.6220472440944882,
          "duration": 0.13719515625002998
        },
        {
          "name": "F#4",
          "midi": 66,
          "time": 100.98071630208813,
          "velocity": 0.8267716535433071,
          "duration": 0.13211385416668975
        },
        {
          "name": "B4",
          "midi": 71,
          "time": 100.98579760417147,
          "velocity": 0.8740157480314961,
          "duration": 0.13211385416668975
        },
        {
          "name": "F3",
          "midi": 53,
          "time": 101.46344000000485,
          "velocity": 0.30708661417322836,
          "duration": 0.010162604166680467
        },
        {
          "name": "B4",
          "midi": 71,
          "time": 101.46344000000485,
          "velocity": 1,
          "duration": 1.6666670833336497
        },
        {
          "name": "D#4",
          "midi": 63,
          "time": 101.46852130208819,
          "velocity": 0.33858267716535434,
          "duration": 0.010162604166680467
        },
        {
          "name": "E4",
          "midi": 64,
          "time": 101.47360260417153,
          "velocity": 0.2283464566929134,
          "duration": 0.005081302083340233
        },
        {
          "name": "G#4",
          "midi": 68,
          "time": 101.47868390625487,
          "velocity": 0.5039370078740157,
          "duration": 0.005081302083340233
        },
        {
          "name": "D#2",
          "midi": 39,
          "time": 101.70734250000487,
          "velocity": 0.7874015748031497,
          "duration": 0.010162604166666256
        },
        {
          "name": "F3",
          "midi": 53,
          "time": 101.70734250000487,
          "velocity": 0.5511811023622047,
          "duration": 0.010162604166666256
        },
        {
          "name": "F#2",
          "midi": 42,
          "time": 101.70734250000487,
          "velocity": 0.47244094488188976,
          "duration": 0.010162604166666256
        },
        {
          "name": "G#3",
          "midi": 56,
          "time": 101.70734250000487,
          "velocity": 0.47244094488188976,
          "duration": 0.08638213541667028
        },
        {
          "name": "E2",
          "midi": 40,
          "time": 101.70734250000487,
          "velocity": 0.84251968503937,
          "duration": 0.07621953125000402
        },
        {
          "name": "E4",
          "midi": 64,
          "time": 101.70734250000487,
          "velocity": 0.48031496062992124,
          "duration": 0.08638213541667028
        },
        {
          "name": "B3",
          "midi": 59,
          "time": 101.70734250000487,
          "velocity": 0.5590551181102362,
          "duration": 0.07113822916666379
        },
        {
          "name": "B3",
          "midi": 59,
          "time": 101.70734250000487,
          "velocity": 0.6850393700787402,
          "duration": 0.10162604166667677
        },
        {
          "name": "E2",
          "midi": 40,
          "time": 101.70734250000487,
          "velocity": 0.4881889763779528,
          "duration": 0.11686994791668326
        },
        {
          "name": "E4",
          "midi": 64,
          "time": 101.70734250000487,
          "velocity": 0.48031496062992124,
          "duration": 0.106707343750017
        },
        {
          "name": "G#4",
          "midi": 68,
          "time": 101.71750510417154,
          "velocity": 0.8740157480314961,
          "duration": 0.06605692708333777
        },
        {
          "name": "E4",
          "midi": 64,
          "time": 101.71750510417154,
          "velocity": 0.8582677165354331,
          "duration": 0.09654473958335075
        },
        {
          "name": "G6",
          "midi": 91,
          "time": 101.94616369792155,
          "velocity": 0.3937007874015748,
          "duration": 0.005081302083340233
        },
        {
          "name": "E2",
          "midi": 40,
          "time": 101.95124500000489,
          "velocity": 0.84251968503937,
          "duration": 0.08638213541668449
        },
        {
          "name": "G#3",
          "midi": 56,
          "time": 101.95124500000489,
          "velocity": 0.41732283464566927,
          "duration": 0.11178864583335724
        },
        {
          "name": "E2",
          "midi": 40,
          "time": 101.95124500000489,
          "velocity": 0.4881889763779528,
          "duration": 0.1219512500000377
        },
        {
          "name": "B3",
          "midi": 59,
          "time": 101.95124500000489,
          "velocity": 0.49606299212598426,
          "duration": 0.071138229166678
        },
        {
          "name": "E4",
          "midi": 64,
          "time": 101.95124500000489,
          "velocity": 0.47244094488188976,
          "duration": 0.07621953125001824
        },
        {
          "name": "B3",
          "midi": 59,
          "time": 101.95124500000489,
          "velocity": 0.7559055118110236,
          "duration": 0.11686994791669747
        },
        {
          "name": "E4",
          "midi": 64,
          "time": 101.95124500000489,
          "velocity": 0.47244094488188976,
          "duration": 0.11178864583335724
        },
        {
          "name": "D#2",
          "midi": 39,
          "time": 101.95124500000489,
          "velocity": 0.7874015748031497,
          "duration": 0.010162604166680467
        },
        {
          "name": "E4",
          "midi": 64,
          "time": 101.95632630208823,
          "velocity": 0.6929133858267716,
          "duration": 0.106707343750017
        },
        {
          "name": "G#4",
          "midi": 68,
          "time": 101.96140760417157,
          "velocity": 0.8740157480314961,
          "duration": 0.05081302083333128
        },
        {
          "name": "B3",
          "midi": 59,
          "time": 102.18498489583826,
          "velocity": 0.2677165354330709,
          "duration": 0.055894322916699934
        },
        {
          "name": "E4",
          "midi": 64,
          "time": 102.1900661979216,
          "velocity": 0.7165354330708661,
          "duration": 0.09654473958337917
        },
        {
          "name": "G#3",
          "midi": 56,
          "time": 102.19514750000494,
          "velocity": 0.47244094488188976,
          "duration": 0.09654473958337917
        },
        {
          "name": "E2",
          "midi": 40,
          "time": 102.19514750000494,
          "velocity": 0.8110236220472441,
          "duration": 0.0863821354166987
        },
        {
          "name": "E4",
          "midi": 64,
          "time": 102.19514750000494,
          "velocity": 0.4881889763779528,
          "duration": 0.09146343750003894
        },
        {
          "name": "B3",
          "midi": 59,
          "time": 102.19514750000494,
          "velocity": 0.49606299212598426,
          "duration": 0.10670734375005964
        },
        {
          "name": "E2",
          "midi": 40,
          "time": 102.19514750000494,
          "velocity": 0.4881889763779528,
          "duration": 0.11178864583339987
        },
        {
          "name": "F#2",
          "midi": 42,
          "time": 102.19514750000494,
          "velocity": 0.47244094488188976,
          "duration": 0.010162604166680467
        },
        {
          "name": "E4",
          "midi": 64,
          "time": 102.19514750000494,
          "velocity": 0.4881889763779528,
          "duration": 0.09146343750003894
        },
        {
          "name": "D#2",
          "midi": 39,
          "time": 102.19514750000494,
          "velocity": 0.7874015748031497,
          "duration": 0.010162604166680467
        },
        {
          "name": "F3",
          "midi": 53,
          "time": 102.19514750000494,
          "velocity": 0.47244094488188976,
          "duration": 0.010162604166680467
        },
        {
          "name": "G#4",
          "midi": 68,
          "time": 102.20022880208828,
          "velocity": 0.8740157480314961,
          "duration": 0.05081302083334549
        },
        {
          "name": "D#2",
          "midi": 39,
          "time": 102.43905000000504,
          "velocity": 0.7874015748031497,
          "duration": 0.010162604166680467
        },
        {
          "name": "E4",
          "midi": 64,
          "time": 102.43905000000504,
          "velocity": 0.47244094488188976,
          "duration": 0.09146343750005315
        },
        {
          "name": "B3",
          "midi": 59,
          "time": 102.43905000000504,
          "velocity": 0.4881889763779528,
          "duration": 0.05081302083337391
        },
        {
          "name": "E2",
          "midi": 40,
          "time": 102.43905000000504,
          "velocity": 0.48031496062992124,
          "duration": 0.09654473958339338
        },
        {
          "name": "B3",
          "midi": 59,
          "time": 102.43905000000504,
          "velocity": 0.7401574803149606,
          "duration": 0.11178864583339987
        },
        {
          "name": "E2",
          "midi": 40,
          "time": 102.43905000000504,
          "velocity": 0.7559055118110236,
          "duration": 0.11178864583339987
        },
        {
          "name": "G#3",
          "midi": 56,
          "time": 102.43905000000504,
          "velocity": 0.47244094488188976,
          "duration": 0.09654473958339338
        },
        {
          "name": "E4",
          "midi": 64,
          "time": 102.43905000000504,
          "velocity": 0.47244094488188976,
          "duration": 0.10162604166673361
        },
        {
          "name": "E4",
          "midi": 64,
          "time": 102.44413130208838,
          "velocity": 0.8740157480314961,
          "duration": 0.09654473958339338
        },
        {
          "name": "G#4",
          "midi": 68,
          "time": 102.45429390625506,
          "velocity": 0.8740157480314961,
          "duration": 0.055894322916699934
        },
        {
          "name": "F3",
          "midi": 53,
          "time": 102.5610012500051,
          "velocity": 0.5669291338582677,
          "duration": 0.010162604166666256
        },
        {
          "name": "F#2",
          "midi": 42,
          "time": 102.5610012500051,
          "velocity": 0.47244094488188976,
          "duration": 0.010162604166666256
        },
        {
          "name": "B3",
          "midi": 59,
          "time": 102.68295250000511,
          "velocity": 0.4881889763779528,
          "duration": 0.05589432291667151
        },
        {
          "name": "D#2",
          "midi": 39,
          "time": 102.68295250000511,
          "velocity": 0.7874015748031497,
          "duration": 0.010162604166666256
        },
        {
          "name": "E2",
          "midi": 40,
          "time": 102.68295250000511,
          "velocity": 0.4881889763779528,
          "duration": 0.106707343750017
        },
        {
          "name": "G#3",
          "midi": 56,
          "time": 102.68295250000511,
          "velocity": 0.4566929133858268,
          "duration": 0.106707343750017
        },
        {
          "name": "B3",
          "midi": 59,
          "time": 102.68295250000511,
          "velocity": 0.5039370078740157,
          "duration": 0.11686994791668326
        },
        {
          "name": "E2",
          "midi": 40,
          "time": 102.68295250000511,
          "velocity": 0.84251968503937,
          "duration": 0.12195125000002349
        },
        {
          "name": "E4",
          "midi": 64,
          "time": 102.68295250000511,
          "velocity": 0.47244094488188976,
          "duration": 0.08130083333334426
        },
        {
          "name": "E4",
          "midi": 64,
          "time": 102.68295250000511,
          "velocity": 0.47244094488188976,
          "duration": 0.106707343750017
        },
        {
          "name": "E4",
          "midi": 64,
          "time": 102.69311510417178,
          "velocity": 0.8740157480314961,
          "duration": 0.09654473958335075
        },
        {
          "name": "G#4",
          "midi": 68,
          "time": 102.69819640625512,
          "velocity": 0.8740157480314961,
          "duration": 0.05081302083333128
        },
        {
          "name": "F3",
          "midi": 53,
          "time": 102.80490375000514,
          "velocity": 0.5511811023622047,
          "duration": 0.010162604166666256
        },
        {
          "name": "B3",
          "midi": 59,
          "time": 102.92685500000513,
          "velocity": 0.4566929133858268,
          "duration": 0.1219512500000377
        },
        {
          "name": "E4",
          "midi": 64,
          "time": 102.92685500000513,
          "velocity": 0.44881889763779526,
          "duration": 0.09146343750001051
        },
        {
          "name": "D#2",
          "midi": 39,
          "time": 102.92685500000513,
          "velocity": 0.7874015748031497,
          "duration": 0.010162604166680467
        },
        {
          "name": "G#3",
          "midi": 56,
          "time": 102.92685500000513,
          "velocity": 0.4094488188976378,
          "duration": 0.11686994791669747
        },
        {
          "name": "F#2",
          "midi": 42,
          "time": 102.92685500000513,
          "velocity": 0.47244094488188976,
          "duration": 0.010162604166680467
        },
        {
          "name": "E4",
          "midi": 64,
          "time": 102.92685500000513,
          "velocity": 0.44881889763779526,
          "duration": 0.10162604166669098
        },
        {
          "name": "E2",
          "midi": 40,
          "time": 102.92685500000513,
          "velocity": 0.4409448818897638,
          "duration": 0.09654473958335075
        },
        {
          "name": "E2",
          "midi": 40,
          "time": 102.92685500000513,
          "velocity": 0.7559055118110236,
          "duration": 0.1219512500000377
        },
        {
          "name": "E4",
          "midi": 64,
          "time": 102.93193630208847,
          "velocity": 0.8740157480314961,
          "duration": 0.09654473958335075
        },
        {
          "name": "G#4",
          "midi": 68,
          "time": 102.93701760417181,
          "velocity": 0.8740157480314961,
          "duration": 0.07113822916666379
        },
        {
          "name": "G#3",
          "midi": 56,
          "time": 103.17075750000517,
          "velocity": 0.4409448818897638,
          "duration": 0.11178864583334303
        },
        {
          "name": "E4",
          "midi": 64,
          "time": 103.17075750000517,
          "velocity": 0.5196850393700787,
          "duration": 0.09146343750001051
        },
        {
          "name": "D#2",
          "midi": 39,
          "time": 103.17075750000517,
          "velocity": 0.7874015748031497,
          "duration": 0.010162604166680467
        },
        {
          "name": "E4",
          "midi": 64,
          "time": 103.17075750000517,
          "velocity": 0.5196850393700787,
          "duration": 0.11686994791668326
        },
        {
          "name": "B3",
          "midi": 59,
          "time": 103.17075750000517,
          "velocity": 0.5196850393700787,
          "duration": 0.12195125000002349
        },
        {
          "name": "F3",
          "midi": 53,
          "time": 103.17075750000517,
          "velocity": 0.48031496062992124,
          "duration": 0.03048781250001298
        },
        {
          "name": "E2",
          "midi": 40,
          "time": 103.17075750000517,
          "velocity": 0.5275590551181102,
          "duration": 0.11686994791668326
        },
        {
          "name": "E4",
          "midi": 64,
          "time": 103.17075750000517,
          "velocity": 0.8267716535433071,
          "duration": 0.11686994791668326
        },
        {
          "name": "E2",
          "midi": 40,
          "time": 103.17075750000517,
          "velocity": 0.84251968503937,
          "duration": 0.1575203645833625
        },
        {
          "name": "G#4",
          "midi": 68,
          "time": 103.1758388020885,
          "velocity": 0.8740157480314961,
          "duration": 0.07621953125000402
        },
        {
          "name": "E4",
          "midi": 64,
          "time": 103.4146600000052,
          "velocity": 1,
          "duration": 0.11178864583338566
        },
        {
          "name": "E4",
          "midi": 64,
          "time": 103.4146600000052,
          "velocity": 0.5275590551181102,
          "duration": 0.11178864583338566
        },
        {
          "name": "C4",
          "midi": 60,
          "time": 103.4146600000052,
          "velocity": 0.5275590551181102,
          "duration": 0.0863821354166987
        },
        {
          "name": "D2",
          "midi": 38,
          "time": 103.4146600000052,
          "velocity": 1,
          "duration": 0.010162604166680467
        },
        {
          "name": "G4",
          "midi": 67,
          "time": 103.4146600000052,
          "velocity": 0.5433070866141733,
          "duration": 0.07113822916669221
        },
        {
          "name": "A1",
          "midi": 33,
          "time": 103.4146600000052,
          "velocity": 0.5590551181102362,
          "duration": 0.2591464062500961
        },
        {
          "name": "A3",
          "midi": 57,
          "time": 103.4146600000052,
          "velocity": 0.5354330708661418,
          "duration": 0.09146343750003894
        },
        {
          "name": "A2",
          "midi": 45,
          "time": 103.4146600000052,
          "velocity": 0.8110236220472441,
          "duration": 0.3099594270834416
        },
        {
          "name": "C4",
          "midi": 60,
          "time": 103.4146600000052,
          "velocity": 0.5275590551181102,
          "duration": 0.0863821354166987
        },
        {
          "name": "E4",
          "midi": 64,
          "time": 103.4146600000052,
          "velocity": 0.5275590551181102,
          "duration": 0.46747979166677567
        },
        {
          "name": "C5",
          "midi": 72,
          "time": 103.41974130208854,
          "velocity": 0.8661417322834646,
          "duration": 0.09654473958336496
        },
        {
          "name": "E5",
          "midi": 76,
          "time": 103.42990390625522,
          "velocity": 0.6692913385826772,
          "duration": 0.08638213541668449
        },
        {
          "name": "B5",
          "midi": 83,
          "time": 103.43498520833856,
          "velocity": 0.8818897637795275,
          "duration": 0.08638213541668449
        },
        {
          "name": "D2",
          "midi": 38,
          "time": 103.53661125000525,
          "velocity": 1,
          "duration": 0.010162604166666256
        },
        {
          "name": "F#2",
          "midi": 42,
          "time": 103.65856250000527,
          "velocity": 0.47244094488188976,
          "duration": 0.010162604166680467
        },
        {
          "name": "G4",
          "midi": 67,
          "time": 103.65856250000527,
          "velocity": 0.4094488188976378,
          "duration": 0.06097562500002596
        },
        {
          "name": "D2",
          "midi": 38,
          "time": 103.65856250000527,
          "velocity": 0.9212598425196851,
          "duration": 0.010162604166680467
        },
        {
          "name": "C5",
          "midi": 72,
          "time": 103.66364380208861,
          "velocity": 0.8110236220472441,
          "duration": 0.10162604166669098
        },
        {
          "name": "E5",
          "midi": 76,
          "time": 103.6738064062553,
          "velocity": 0.6692913385826772,
          "duration": 0.09146343750001051
        },
        {
          "name": "B5",
          "midi": 83,
          "time": 103.67888770833864,
          "velocity": 0.8818897637795275,
          "duration": 0.09146343750001051
        },
        {
          "name": "D2",
          "midi": 38,
          "time": 103.78051375000531,
          "velocity": 1,
          "duration": 0.010162604166666256
        },
        {
          "name": "G4",
          "midi": 67,
          "time": 103.89230239583864,
          "velocity": 0.4094488188976378,
          "duration": 0.10162604166669098
        },
        {
          "name": "C2",
          "midi": 36,
          "time": 103.90246500000531,
          "velocity": 0.8110236220472441,
          "duration": 0.31504072916669656
        },
        {
          "name": "B4",
          "midi": 71,
          "time": 103.90246500000531,
          "velocity": 0.952755905511811,
          "duration": 0.36585375000004206
        },
        {
          "name": "D#2",
          "midi": 39,
          "time": 103.90246500000531,
          "velocity": 1,
          "duration": 0.010162604166680467
        },
        {
          "name": "C5",
          "midi": 72,
          "time": 103.90754630208865,
          "velocity": 0.7874015748031497,
          "duration": 0.09654473958335075
        },
        {
          "name": "E5",
          "midi": 76,
          "time": 103.91262760417199,
          "velocity": 0.5039370078740157,
          "duration": 0.08130083333334426
        },
        {
          "name": "B5",
          "midi": 83,
          "time": 103.91770890625533,
          "velocity": 0.8818897637795275,
          "duration": 0.08638213541667028
        },
        {
          "name": "C4",
          "midi": 60,
          "time": 104.14636750000534,
          "velocity": 0.5984251968503937,
          "duration": 0.43699197916672006
        },
        {
          "name": "C5",
          "midi": 72,
          "time": 104.14636750000534,
          "velocity": 0.8503937007874016,
          "duration": 0.10670734375000279
        },
        {
          "name": "E4",
          "midi": 64,
          "time": 104.14636750000534,
          "velocity": 0.5590551181102362,
          "duration": 0.4471545833333863
        },
        {
          "name": "G4",
          "midi": 67,
          "time": 104.14636750000534,
          "velocity": 0.4094488188976378,
          "duration": 0.060975624999997535
        },
        {
          "name": "D#2",
          "midi": 39,
          "time": 104.14636750000534,
          "velocity": 0.8661417322834646,
          "duration": 0.010162604166666256
        },
        {
          "name": "C2",
          "midi": 36,
          "time": 104.14636750000534,
          "velocity": 0.5590551181102362,
          "duration": 0.19308947916667307
        },
        {
          "name": "A3",
          "midi": 57,
          "time": 104.14636750000534,
          "velocity": 0.6220472440944882,
          "duration": 0.4319106770833798
        },
        {
          "name": "F#2",
          "midi": 42,
          "time": 104.14636750000534,
          "velocity": 0.47244094488188976,
          "duration": 0.010162604166666256
        },
        {
          "name": "E4",
          "midi": 64,
          "time": 104.14636750000534,
          "velocity": 0.5590551181102362,
          "duration": 0.4471545833333863
        },
        {
          "name": "C4",
          "midi": 60,
          "time": 104.14636750000534,
          "velocity": 0.5984251968503937,
          "duration": 0.43699197916672006
        },
        {
          "name": "E5",
          "midi": 76,
          "time": 104.156530104172,
          "velocity": 0.5590551181102362,
          "duration": 0.0914634374999963
        },
        {
          "name": "B5",
          "midi": 83,
          "time": 104.16669270833867,
          "velocity": 0.8818897637795275,
          "duration": 0.10162604166667677
        },
        {
          "name": "D2",
          "midi": 38,
          "time": 104.26831875000535,
          "velocity": 1,
          "duration": 0.010162604166666256
        },
        {
          "name": "G4",
          "midi": 67,
          "time": 104.38010739583868,
          "velocity": 0.5826771653543307,
          "duration": 0.09654473958335075
        },
        {
          "name": "C5",
          "midi": 72,
          "time": 104.38518869792202,
          "velocity": 0.8110236220472441,
          "duration": 0.106707343750017
        },
        {
          "name": "D2",
          "midi": 38,
          "time": 104.39027000000536,
          "velocity": 1,
          "duration": 0.010162604166666256
        },
        {
          "name": "B5",
          "midi": 83,
          "time": 104.39027000000536,
          "velocity": 0.8818897637795275,
          "duration": 0.12195125000002349
        },
        {
          "name": "A#4",
          "midi": 70,
          "time": 104.39027000000536,
          "velocity": 1,
          "duration": 0.040650416666665024
        },
        {
          "name": "E2",
          "midi": 40,
          "time": 104.39027000000536,
          "velocity": 0.8110236220472441,
          "duration": 0.28963421875003803
        },
        {
          "name": "E5",
          "midi": 76,
          "time": 104.39027000000536,
          "velocity": 0.6850393700787402,
          "duration": 0.11686994791668326
        },
        {
          "name": "B4",
          "midi": 71,
          "time": 104.43092041667202,
          "velocity": 1,
          "duration": 0.6910570833334333
        },
        {
          "name": "D2",
          "midi": 38,
          "time": 104.51222125000538,
          "velocity": 1,
          "duration": 0.010162604166666256
        },
        {
          "name": "F#4",
          "midi": 66,
          "time": 104.61384729167206,
          "velocity": 0.3700787401574803,
          "duration": 0.010162604166666256
        },
        {
          "name": "G4",
          "midi": 67,
          "time": 104.63417250000539,
          "velocity": 0.5196850393700787,
          "duration": 0.09146343750002472
        },
        {
          "name": "D2",
          "midi": 38,
          "time": 104.63417250000539,
          "velocity": 0.9212598425196851,
          "duration": 0.010162604166666256
        },
        {
          "name": "C4",
          "midi": 60,
          "time": 104.63417250000539,
          "velocity": 0.5984251968503937,
          "duration": 0.05081302083334549
        },
        {
          "name": "C4",
          "midi": 60,
          "time": 104.63417250000539,
          "velocity": 0.5984251968503937,
          "duration": 0.05081302083334549
        },
        {
          "name": "F#2",
          "midi": 42,
          "time": 104.63417250000539,
          "velocity": 0.47244094488188976,
          "duration": 0.010162604166666256
        },
        {
          "name": "C5",
          "midi": 72,
          "time": 104.63417250000539,
          "velocity": 0.8110236220472441,
          "duration": 0.10162604166669098
        },
        {
          "name": "A3",
          "midi": 57,
          "time": 104.63417250000539,
          "velocity": 0.5748031496062992,
          "duration": 0.05081302083334549
        },
        {
          "name": "E5",
          "midi": 76,
          "time": 104.63417250000539,
          "velocity": 0.6614173228346457,
          "duration": 0.10162604166669098
        },
        {
          "name": "E4",
          "midi": 64,
          "time": 104.63417250000539,
          "velocity": 0.5196850393700787,
          "duration": 0.055894322916685724
        },
        {
          "name": "E4",
          "midi": 64,
          "time": 104.63417250000539,
          "velocity": 0.5196850393700787,
          "duration": 0.055894322916685724
        },
        {
          "name": "E2",
          "midi": 40,
          "time": 104.63417250000539,
          "velocity": 0.5590551181102362,
          "duration": 0.2794716145833718
        },
        {
          "name": "B5",
          "midi": 83,
          "time": 104.64433510417206,
          "velocity": 0.8818897637795275,
          "duration": 0.12195125000002349
        },
        {
          "name": "D2",
          "midi": 38,
          "time": 104.75612375000541,
          "velocity": 1,
          "duration": 0.010162604166666256
        },
        {
          "name": "G4",
          "midi": 67,
          "time": 104.85774979167208,
          "velocity": 0.49606299212598426,
          "duration": 0.13719515625002998
        },
        {
          "name": "C5",
          "midi": 72,
          "time": 104.87807500000541,
          "velocity": 0.7559055118110236,
          "duration": 0.11686994791669747
        },
        {
          "name": "F#2",
          "midi": 42,
          "time": 104.87807500000541,
          "velocity": 0.5590551181102362,
          "duration": 0.2286585937500405
        },
        {
          "name": "E4",
          "midi": 64,
          "time": 104.87807500000541,
          "velocity": 0.47244094488188976,
          "duration": 0.06097562500002596
        },
        {
          "name": "A3",
          "midi": 57,
          "time": 104.87807500000541,
          "velocity": 0.48031496062992124,
          "duration": 0.06097562500002596
        },
        {
          "name": "C4",
          "midi": 60,
          "time": 104.87807500000541,
          "velocity": 0.49606299212598426,
          "duration": 0.0508130208333597
        },
        {
          "name": "C2",
          "midi": 36,
          "time": 104.87807500000541,
          "velocity": 0.8110236220472441,
          "duration": 0.2743903125000742
        },
        {
          "name": "E4",
          "midi": 64,
          "time": 104.87807500000541,
          "velocity": 0.47244094488188976,
          "duration": 0.06097562500002596
        },
        {
          "name": "C4",
          "midi": 60,
          "time": 104.87807500000541,
          "velocity": 0.49606299212598426,
          "duration": 0.0508130208333597
        },
        {
          "name": "D#2",
          "midi": 39,
          "time": 104.87807500000541,
          "velocity": 1,
          "duration": 0.010162604166666256
        },
        {
          "name": "E5",
          "midi": 76,
          "time": 104.89331890625542,
          "velocity": 0.6614173228346457,
          "duration": 0.10162604166669098
        },
        {
          "name": "B5",
          "midi": 83,
          "time": 104.89840020833876,
          "velocity": 0.8818897637795275,
          "duration": 0.09146343750001051
        },
        {
          "name": "D2",
          "midi": 38,
          "time": 105.00002625000545,
          "velocity": 0.4251968503937008,
          "duration": 0.010162604166666256
        },
        {
          "name": "G4",
          "midi": 67,
          "time": 105.11181489583879,
          "velocity": 0.3464566929133858,
          "duration": 0.025406510416686956
        },
        {
          "name": "F#2",
          "midi": 42,
          "time": 105.12197750000546,
          "velocity": 0.47244094488188976,
          "duration": 0.010162604166680467
        },
        {
          "name": "A4",
          "midi": 69,
          "time": 105.12197750000546,
          "velocity": 1,
          "duration": 0.213414687500034
        },
        {
          "name": "C5",
          "midi": 72,
          "time": 105.12197750000546,
          "velocity": 0.84251968503937,
          "duration": 0.11686994791669747
        },
        {
          "name": "D2",
          "midi": 38,
          "time": 105.12197750000546,
          "velocity": 0.8503937007874016,
          "duration": 0.010162604166680467
        },
        {
          "name": "E2",
          "midi": 40,
          "time": 105.12197750000546,
          "velocity": 0.5590551181102362,
          "duration": 0.213414687500034
        },
        {
          "name": "E5",
          "midi": 76,
          "time": 105.1270588020888,
          "velocity": 0.5748031496062992,
          "duration": 0.11686994791669747
        },
        {
          "name": "B5",
          "midi": 83,
          "time": 105.13214010417214,
          "velocity": 0.8818897637795275,
          "duration": 0.106707343750017
        },
        {
          "name": "D2",
          "midi": 38,
          "time": 105.2439287500055,
          "velocity": 1,
          "duration": 0.010162604166666256
        },
        {
          "name": "A2",
          "midi": 45,
          "time": 105.36588000000549,
          "velocity": 0.7874015748031497,
          "duration": 0.3048781250000445
        },
        {
          "name": "A3",
          "midi": 57,
          "time": 105.36588000000549,
          "velocity": 0.5354330708661418,
          "duration": 0.09146343750001051
        },
        {
          "name": "A1",
          "midi": 33,
          "time": 105.36588000000549,
          "velocity": 0.5590551181102362,
          "duration": 0.27439031250004575
        },
        {
          "name": "C4",
          "midi": 60,
          "time": 105.36588000000549,
          "velocity": 0.5275590551181102,
          "duration": 0.08638213541667028
        },
        {
          "name": "G4",
          "midi": 67,
          "time": 105.36588000000549,
          "velocity": 0.6929133858267716,
          "duration": 0.11178864583334303
        },
        {
          "name": "E4",
          "midi": 64,
          "time": 105.36588000000549,
          "velocity": 0.5275590551181102,
          "duration": 0.11178864583334303
        },
        {
          "name": "E4",
          "midi": 64,
          "time": 105.36588000000549,
          "velocity": 0.5275590551181102,
          "duration": 0.11178864583334303
        },
        {
          "name": "E4",
          "midi": 64,
          "time": 105.36588000000549,
          "velocity": 1,
          "duration": 0.2337398958333381
        },
        {
          "name": "D2",
          "midi": 38,
          "time": 105.36588000000549,
          "velocity": 1,
          "duration": 0.010162604166666256
        },
        {
          "name": "C4",
          "midi": 60,
          "time": 105.36588000000549,
          "velocity": 0.5275590551181102,
          "duration": 0.08638213541667028
        },
        {
          "name": "C5",
          "midi": 72,
          "time": 105.37604260417216,
          "velocity": 0.8267716535433071,
          "duration": 0.11178864583334303
        },
        {
          "name": "E5",
          "midi": 76,
          "time": 105.37604260417216,
          "velocity": 0.8188976377952756,
          "duration": 0.13211385416667554
        },
        {
          "name": "B5",
          "midi": 83,
          "time": 105.38620520833882,
          "velocity": 0.8818897637795275,
          "duration": 0.12195125000000928
        },
        {
          "name": "D2",
          "midi": 38,
          "time": 105.4878312500055,
          "velocity": 1,
          "duration": 0.010162604166666256
        },
        {
          "name": "F#4",
          "midi": 66,
          "time": 105.60470119792217,
          "velocity": 0.28346456692913385,
          "duration": 0.005081302083340233
        },
        {
          "name": "G4",
          "midi": 67,
          "time": 105.60978250000551,
          "velocity": 0.49606299212598426,
          "duration": 0.08130083333335847
        },
        {
          "name": "D2",
          "midi": 38,
          "time": 105.60978250000551,
          "velocity": 0.9212598425196851,
          "duration": 0.010162604166680467
        },
        {
          "name": "F#2",
          "midi": 42,
          "time": 105.60978250000551,
          "velocity": 0.47244094488188976,
          "duration": 0.010162604166680467
        },
        {
          "name": "A4",
          "midi": 69,
          "time": 105.60978250000551,
          "velocity": 0.889763779527559,
          "duration": 0.2337398958333523
        },
        {
          "name": "C5",
          "midi": 72,
          "time": 105.61486380208885,
          "velocity": 0.8503937007874016,
          "duration": 0.106707343750017
        },
        {
          "name": "E5",
          "midi": 76,
          "time": 105.61994510417219,
          "velocity": 0.6456692913385826,
          "duration": 0.13211385416667554
        },
        {
          "name": "B5",
          "midi": 83,
          "time": 105.62502640625553,
          "velocity": 0.8582677165354331,
          "duration": 0.11686994791666905
        },
        {
          "name": "D2",
          "midi": 38,
          "time": 105.73173375000553,
          "velocity": 1,
          "duration": 0.010162604166666256
        },
        {
          "name": "G4",
          "midi": 67,
          "time": 105.8486036979222,
          "velocity": 0.48031496062992124,
          "duration": 0.0152439062500207
        },
        {
          "name": "C5",
          "midi": 72,
          "time": 105.85368500000554,
          "velocity": 0.8267716535433071,
          "duration": 0.11686994791668326
        },
        {
          "name": "C2",
          "midi": 36,
          "time": 105.85368500000554,
          "velocity": 0.84251968503937,
          "duration": 0.3252033333333628
        },
        {
          "name": "B4",
          "midi": 71,
          "time": 105.85368500000554,
          "velocity": 0.952755905511811,
          "duration": 0.2337398958333523
        },
        {
          "name": "D#2",
          "midi": 39,
          "time": 105.85368500000554,
          "velocity": 1,
          "duration": 0.010162604166680467
        },
        {
          "name": "E5",
          "midi": 76,
          "time": 105.85876630208888,
          "velocity": 0.6377952755905512,
          "duration": 0.11178864583334303
        },
        {
          "name": "B5",
          "midi": 83,
          "time": 105.86384760417222,
          "velocity": 0.8818897637795275,
          "duration": 0.11686994791666905
        },
        {
          "name": "G4",
          "midi": 67,
          "time": 106.0874248958389,
          "velocity": 0.5826771653543307,
          "duration": 0.11686994791668326
        },
        {
          "name": "C5",
          "midi": 72,
          "time": 106.09250619792223,
          "velocity": 0.7637795275590551,
          "duration": 0.12195125000002349
        },
        {
          "name": "C5",
          "midi": 72,
          "time": 106.09758750000557,
          "velocity": 0.8582677165354331,
          "duration": 0.2337398958333523
        },
        {
          "name": "E4",
          "midi": 64,
          "time": 106.09758750000557,
          "velocity": 0.5590551181102362,
          "duration": 0.44715458333342895
        },
        {
          "name": "A3",
          "midi": 57,
          "time": 106.09758750000557,
          "velocity": 0.6220472440944882,
          "duration": 0.43191067708342246
        },
        {
          "name": "C4",
          "midi": 60,
          "time": 106.09758750000557,
          "velocity": 0.5984251968503937,
          "duration": 0.4369919791667627
        },
        {
          "name": "C4",
          "midi": 60,
          "time": 106.09758750000557,
          "velocity": 0.5984251968503937,
          "duration": 0.4369919791667627
        },
        {
          "name": "E4",
          "midi": 64,
          "time": 106.09758750000557,
          "velocity": 0.5590551181102362,
          "duration": 0.44715458333342895
        },
        {
          "name": "F#2",
          "midi": 42,
          "time": 106.09758750000557,
          "velocity": 0.47244094488188976,
          "duration": 0.010162604166666256
        },
        {
          "name": "D#2",
          "midi": 39,
          "time": 106.09758750000557,
          "velocity": 0.8661417322834646,
          "duration": 0.010162604166666256
        },
        {
          "name": "C2",
          "midi": 36,
          "time": 106.09758750000557,
          "velocity": 0.5590551181102362,
          "duration": 0.2134146875000198
        },
        {
          "name": "E5",
          "midi": 76,
          "time": 106.09758750000557,
          "velocity": 0.6141732283464567,
          "duration": 0.10670734375000279
        },
        {
          "name": "B5",
          "midi": 83,
          "time": 106.10775010417224,
          "velocity": 0.8346456692913385,
          "duration": 0.10162604166667677
        },
        {
          "name": "D2",
          "midi": 38,
          "time": 106.2195387500056,
          "velocity": 1,
          "duration": 0.010162604166666256
        },
        {
          "name": "G4",
          "midi": 67,
          "time": 106.33640869792227,
          "velocity": 0.5590551181102362,
          "duration": 0.11178864583338566
        },
        {
          "name": "D2",
          "midi": 38,
          "time": 106.3414900000056,
          "velocity": 1,
          "duration": 0.010162604166680467
        },
        {
          "name": "E2",
          "midi": 40,
          "time": 106.3414900000056,
          "velocity": 0.7559055118110236,
          "duration": 0.32012203125010785
        },
        {
          "name": "C5",
          "midi": 72,
          "time": 106.34657130208895,
          "velocity": 0.8110236220472441,
          "duration": 0.09654473958336496
        },
        {
          "name": "A#4",
          "midi": 70,
          "time": 106.35673390625563,
          "velocity": 1,
          "duration": 0.040650416666679234
        },
        {
          "name": "E5",
          "midi": 76,
          "time": 106.35673390625563,
          "velocity": 0.6692913385826772,
          "duration": 0.09654473958336496
        },
        {
          "name": "B5",
          "midi": 83,
          "time": 106.36181520833897,
          "velocity": 0.7322834645669292,
          "duration": 0.010162604166666256
        },
        {
          "name": "B5",
          "midi": 83,
          "time": 106.37197781250563,
          "velocity": 0.8818897637795275,
          "duration": 0.071138229166678
        },
        {
          "name": "B4",
          "midi": 71,
          "time": 106.3973843229223,
          "velocity": 1,
          "duration": 0.6910570833335044
        },
        {
          "name": "D2",
          "midi": 38,
          "time": 106.46344125000566,
          "velocity": 1,
          "duration": 0.010162604166666256
        },
        {
          "name": "G4",
          "midi": 67,
          "time": 106.57014859375568,
          "velocity": 0.5275590551181102,
          "duration": 0.08130083333335847
        },
        {
          "name": "C5",
          "midi": 72,
          "time": 106.57522989583902,
          "velocity": 0.7559055118110236,
          "duration": 0.08130083333335847
        },
        {
          "name": "E5",
          "midi": 76,
          "time": 106.58031119792236,
          "velocity": 0.6377952755905512,
          "duration": 0.09146343750003894
        },
        {
          "name": "F#2",
          "midi": 42,
          "time": 106.5853925000057,
          "velocity": 0.47244094488188976,
          "duration": 0.010162604166666256
        },
        {
          "name": "E2",
          "midi": 40,
          "time": 106.5853925000057,
          "velocity": 0.5590551181102362,
          "duration": 0.2997968229167185
        },
        {
          "name": "C4",
          "midi": 60,
          "time": 106.5853925000057,
          "velocity": 0.5984251968503937,
          "duration": 0.05081302083333128
        },
        {
          "name": "A3",
          "midi": 57,
          "time": 106.5853925000057,
          "velocity": 0.5748031496062992,
          "duration": 0.05081302083333128
        },
        {
          "name": "C4",
          "midi": 60,
          "time": 106.5853925000057,
          "velocity": 0.5984251968503937,
          "duration": 0.05081302083333128
        },
        {
          "name": "E4",
          "midi": 64,
          "time": 106.5853925000057,
          "velocity": 0.5196850393700787,
          "duration": 0.05589432291667151
        },
        {
          "name": "D2",
          "midi": 38,
          "time": 106.5853925000057,
          "velocity": 0.9212598425196851,
          "duration": 0.010162604166666256
        },
        {
          "name": "E4",
          "midi": 64,
          "time": 106.5853925000057,
          "velocity": 0.5196850393700787,
          "duration": 0.05589432291667151
        },
        {
          "name": "B5",
          "midi": 83,
          "time": 106.59555510417236,
          "velocity": 0.8818897637795275,
          "duration": 0.07113822916669221
        },
        {
          "name": "D2",
          "midi": 38,
          "time": 106.70734375000573,
          "velocity": 1,
          "duration": 0.010162604166666256
        },
        {
          "name": "G4",
          "midi": 67,
          "time": 106.8089697916724,
          "velocity": 0.5039370078740157,
          "duration": 0.10162604166669098
        },
        {
          "name": "C4",
          "midi": 60,
          "time": 106.82929500000573,
          "velocity": 0.49606299212598426,
          "duration": 0.05081302083334549
        },
        {
          "name": "E4",
          "midi": 64,
          "time": 106.82929500000573,
          "velocity": 0.47244094488188976,
          "duration": 0.06097562500002596
        },
        {
          "name": "C4",
          "midi": 60,
          "time": 106.82929500000573,
          "velocity": 0.49606299212598426,
          "duration": 0.05081302083334549
        },
        {
          "name": "E4",
          "midi": 64,
          "time": 106.82929500000573,
          "velocity": 0.47244094488188976,
          "duration": 0.06097562500002596
        },
        {
          "name": "F#2",
          "midi": 42,
          "time": 106.82929500000573,
          "velocity": 0.5590551181102362,
          "duration": 0.24898380208340143
        },
        {
          "name": "C2",
          "midi": 36,
          "time": 106.82929500000573,
          "velocity": 0.7244094488188977,
          "duration": 0.1930894791667157
        },
        {
          "name": "D#2",
          "midi": 39,
          "time": 106.82929500000573,
          "velocity": 1,
          "duration": 0.010162604166666256
        },
        {
          "name": "A3",
          "midi": 57,
          "time": 106.82929500000573,
          "velocity": 0.48031496062992124,
          "duration": 0.06097562500002596
        },
        {
          "name": "C5",
          "midi": 72,
          "time": 106.82929500000573,
          "velocity": 0.7716535433070866,
          "duration": 0.09654473958336496
        },
        {
          "name": "E5",
          "midi": 76,
          "time": 106.84453890625574,
          "velocity": 0.6929133858267716,
          "duration": 0.0863821354166987
        },
        {
          "name": "B5",
          "midi": 83,
          "time": 106.8547015104224,
          "velocity": 0.8818897637795275,
          "duration": 0.10162604166670519
        },
        {
          "name": "D2",
          "midi": 38,
          "time": 106.95124625000577,
          "velocity": 0.4251968503937008,
          "duration": 0.010162604166680467
        },
        {
          "name": "G#4",
          "midi": 68,
          "time": 107.05795359375578,
          "velocity": 0.3464566929133858,
          "duration": 0.010162604166666256
        },
        {
          "name": "D2",
          "midi": 38,
          "time": 107.07319750000579,
          "velocity": 0.8503937007874016,
          "duration": 0.010162604166680467
        },
        {
          "name": "E2",
          "midi": 40,
          "time": 107.07319750000579,
          "velocity": 0.5590551181102362,
          "duration": 0.18800817708337547
        },
        {
          "name": "F#2",
          "midi": 42,
          "time": 107.07319750000579,
          "velocity": 0.47244094488188976,
          "duration": 0.010162604166680467
        },
        {
          "name": "G4",
          "midi": 67,
          "time": 107.07319750000579,
          "velocity": 0.4094488188976378,
          "duration": 0.10670734375003121
        },
        {
          "name": "C5",
          "midi": 72,
          "time": 107.07827880208913,
          "velocity": 0.7637795275590551,
          "duration": 0.10670734375003121
        },
        {
          "name": "E5",
          "midi": 76,
          "time": 107.08336010417247,
          "velocity": 0.5590551181102362,
          "duration": 0.08130083333334426
        },
        {
          "name": "B5",
          "midi": 83,
          "time": 107.08844140625581,
          "velocity": 0.7637795275590551,
          "duration": 0.11686994791668326
        },
        {
          "name": "D2",
          "midi": 38,
          "time": 107.19514875000583,
          "velocity": 1,
          "duration": 0.010162604166666256
        },
        {
          "name": "F4",
          "midi": 65,
          "time": 107.31710000000584,
          "velocity": 0.6614173228346457,
          "duration": 0.04573171875001947
        },
        {
          "name": "D4",
          "midi": 62,
          "time": 107.31710000000584,
          "velocity": 0.5748031496062992,
          "duration": 0.03556911458335321
        },
        {
          "name": "D2",
          "midi": 38,
          "time": 107.31710000000584,
          "velocity": 0.8110236220472441,
          "duration": 0.010162604166680467
        },
        {
          "name": "D2",
          "midi": 38,
          "time": 107.31710000000584,
          "velocity": 1,
          "duration": 0.13211385416670396
        },
        {
          "name": "D2",
          "midi": 38,
          "time": 107.31710000000584,
          "velocity": 0.5590551181102362,
          "duration": 0.25406510416671324
        },
        {
          "name": "F4",
          "midi": 65,
          "time": 107.31710000000584,
          "velocity": 0.6614173228346457,
          "duration": 0.04573171875001947
        },
        {
          "name": "A4",
          "midi": 69,
          "time": 107.31710000000584,
          "velocity": 0.889763779527559,
          "duration": 0.10162604166670519
        },
        {
          "name": "D4",
          "midi": 62,
          "time": 107.31710000000584,
          "velocity": 0.5748031496062992,
          "duration": 0.03556911458335321
        },
        {
          "name": "C4",
          "midi": 60,
          "time": 107.31710000000584,
          "velocity": 0.4881889763779528,
          "duration": 0.07621953125003245
        },
        {
          "name": "A3",
          "midi": 57,
          "time": 107.31710000000584,
          "velocity": 0.5433070866141733,
          "duration": 0.0508130208333597
        },
        {
          "name": "F4",
          "midi": 65,
          "time": 107.32218130208918,
          "velocity": 0.9212598425196851,
          "duration": 0.09654473958336496
        },
        {
          "name": "E5",
          "midi": 76,
          "time": 107.33742520833918,
          "velocity": 0.937007874015748,
          "duration": 0.09146343750002472
        },
        {
          "name": "A4",
          "midi": 69,
          "time": 107.33742520833918,
          "velocity": 0.6062992125984252,
          "duration": 0.2134146875000198
        },
        {
          "name": "D2",
          "midi": 38,
          "time": 107.43905125000587,
          "velocity": 1,
          "duration": 0.16768296875002875
        },
        {
          "name": "D5",
          "midi": 74,
          "time": 107.56100250000587,
          "velocity": 0.8976377952755905,
          "duration": 0.23373989583336652
        },
        {
          "name": "D2",
          "midi": 38,
          "time": 107.56100250000587,
          "velocity": 0.9212598425196851,
          "duration": 0.11178864583337145
        },
        {
          "name": "F#2",
          "midi": 42,
          "time": 107.56100250000587,
          "velocity": 0.47244094488188976,
          "duration": 0.010162604166680467
        },
        {
          "name": "E5",
          "midi": 76,
          "time": 107.56100250000587,
          "velocity": 0.9133858267716536,
          "duration": 0.010162604166680467
        },
        {
          "name": "F4",
          "midi": 65,
          "time": 107.56608380208921,
          "velocity": 0.9212598425196851,
          "duration": 0.10162604166669098
        },
        {
          "name": "A4",
          "midi": 69,
          "time": 107.57624640625589,
          "velocity": 0.6062992125984252,
          "duration": 0.09146343750001051
        },
        {
          "name": "E5",
          "midi": 76,
          "time": 107.58132770833923,
          "velocity": 0.937007874015748,
          "duration": 0.09146343750001051
        },
        {
          "name": "D2",
          "midi": 38,
          "time": 107.68295375000591,
          "velocity": 1,
          "duration": 0.010162604166666256
        },
        {
          "name": "C4",
          "midi": 60,
          "time": 107.79474239583924,
          "velocity": 0.3700787401574803,
          "duration": 0.10162604166669098
        },
        {
          "name": "F2",
          "midi": 41,
          "time": 107.8049050000059,
          "velocity": 0.8110236220472441,
          "duration": 0.30995942708337054
        },
        {
          "name": "D#2",
          "midi": 39,
          "time": 107.8049050000059,
          "velocity": 1,
          "duration": 0.010162604166680467
        },
        {
          "name": "E5",
          "midi": 76,
          "time": 107.8049050000059,
          "velocity": 0.9133858267716536,
          "duration": 0.10162604166669098
        },
        {
          "name": "F4",
          "midi": 65,
          "time": 107.80998630208924,
          "velocity": 0.8503937007874016,
          "duration": 0.09654473958335075
        },
        {
          "name": "A4",
          "midi": 69,
          "time": 107.82014890625592,
          "velocity": 0.4566929133858268,
          "duration": 0.08638213541667028
        },
        {
          "name": "E5",
          "midi": 76,
          "time": 107.82523020833926,
          "velocity": 0.937007874015748,
          "duration": 0.21341468749999137
        },
        {
          "name": "D#2",
          "midi": 39,
          "time": 108.04880750000592,
          "velocity": 0.8661417322834646,
          "duration": 0.010162604166680467
        },
        {
          "name": "A3",
          "midi": 57,
          "time": 108.04880750000592,
          "velocity": 0.6220472440944882,
          "duration": 0.594512343750111
        },
        {
          "name": "D4",
          "midi": 62,
          "time": 108.04880750000592,
          "velocity": 0.6850393700787402,
          "duration": 0.594512343750111
        },
        {
          "name": "F#2",
          "midi": 42,
          "time": 108.04880750000592,
          "velocity": 0.47244094488188976,
          "duration": 0.010162604166680467
        },
        {
          "name": "E5",
          "midi": 76,
          "time": 108.04880750000592,
          "velocity": 0.7244094488188977,
          "duration": 0.005081302083340233
        },
        {
          "name": "F4",
          "midi": 65,
          "time": 108.04880750000592,
          "velocity": 0.7322834645669292,
          "duration": 0.10670734375003121
        },
        {
          "name": "F5",
          "midi": 77,
          "time": 108.04880750000592,
          "velocity": 0.8346456692913385,
          "duration": 0.23373989583336652
        },
        {
          "name": "D4",
          "midi": 62,
          "time": 108.04880750000592,
          "velocity": 0.6850393700787402,
          "duration": 0.594512343750111
        },
        {
          "name": "F4",
          "midi": 65,
          "time": 108.04880750000592,
          "velocity": 0.6456692913385826,
          "duration": 0.34552854166673796
        },
        {
          "name": "F2",
          "midi": 41,
          "time": 108.04880750000592,
          "velocity": 0.5590551181102362,
          "duration": 0.2642277083333937
        },
        {
          "name": "F4",
          "midi": 65,
          "time": 108.04880750000592,
          "velocity": 0.6456692913385826,
          "duration": 0.5894310416667707
        },
        {
          "name": "A4",
          "midi": 69,
          "time": 108.0589701041726,
          "velocity": 0.5039370078740157,
          "duration": 0.09146343750001051
        },
        {
          "name": "E5",
          "midi": 76,
          "time": 108.06913270833927,
          "velocity": 0.8661417322834646,
          "duration": 0.10162604166669098
        },
        {
          "name": "D2",
          "midi": 38,
          "time": 108.17075875000596,
          "velocity": 1,
          "duration": 0.010162604166666256
        },
        {
          "name": "C4",
          "midi": 60,
          "time": 108.28254739583929,
          "velocity": 0.5275590551181102,
          "duration": 0.09654473958336496
        },
        {
          "name": "F4",
          "midi": 65,
          "time": 108.28762869792263,
          "velocity": 0.7322834645669292,
          "duration": 0.3658537500000705
        },
        {
          "name": "E5",
          "midi": 76,
          "time": 108.29271000000597,
          "velocity": 0.8818897637795275,
          "duration": 0.1219512500000377
        },
        {
          "name": "A4",
          "midi": 69,
          "time": 108.29271000000597,
          "velocity": 0.6220472440944882,
          "duration": 0.11686994791669747
        },
        {
          "name": "A2",
          "midi": 45,
          "time": 108.29271000000597,
          "velocity": 0.8110236220472441,
          "duration": 0.2997968229167185
        },
        {
          "name": "E5",
          "midi": 76,
          "time": 108.29271000000597,
          "velocity": 1,
          "duration": 0.37601635416673673
        },
        {
          "name": "D2",
          "midi": 38,
          "time": 108.29271000000597,
          "velocity": 1,
          "duration": 0.010162604166680467
        },
        {
          "name": "D2",
          "midi": 38,
          "time": 108.414661250006,
          "velocity": 1,
          "duration": 0.010162604166666256
        },
        {
          "name": "B3",
          "midi": 59,
          "time": 108.51628729167267,
          "velocity": 0.5590551181102362,
          "duration": 0.025406510416672745
        },
        {
          "name": "A4",
          "midi": 69,
          "time": 108.536612500006,
          "velocity": 0.5984251968503937,
          "duration": 0.10162604166669098
        },
        {
          "name": "D2",
          "midi": 38,
          "time": 108.536612500006,
          "velocity": 0.9212598425196851,
          "duration": 0.010162604166680467
        },
        {
          "name": "C4",
          "midi": 60,
          "time": 108.536612500006,
          "velocity": 0.47244094488188976,
          "duration": 0.09146343750002472
        },
        {
          "name": "F#2",
          "midi": 42,
          "time": 108.536612500006,
          "velocity": 0.47244094488188976,
          "duration": 0.010162604166680467
        },
        {
          "name": "A2",
          "midi": 45,
          "time": 108.536612500006,
          "velocity": 0.5590551181102362,
          "duration": 0.24390250000003277
        },
        {
          "name": "F4",
          "midi": 65,
          "time": 108.536612500006,
          "velocity": 0.9212598425196851,
          "duration": 0.11686994791669747
        },
        {
          "name": "E5",
          "midi": 76,
          "time": 108.54677510417268,
          "velocity": 0.8818897637795275,
          "duration": 0.34552854166672375
        },
        {
          "name": "D2",
          "midi": 38,
          "time": 108.65856375000604,
          "velocity": 1,
          "duration": 0.010162604166666256
        },
        {
          "name": "C4",
          "midi": 60,
          "time": 108.7601897916727,
          "velocity": 0.44881889763779526,
          "duration": 0.1371951562500442
        },
        {
          "name": "F4",
          "midi": 65,
          "time": 108.78051500000603,
          "velocity": 0.6456692913385826,
          "duration": 0.07113822916670642
        },
        {
          "name": "F4",
          "midi": 65,
          "time": 108.78051500000603,
          "velocity": 0.6456692913385826,
          "duration": 0.07113822916670642
        },
        {
          "name": "A3",
          "midi": 57,
          "time": 108.78051500000603,
          "velocity": 0.5748031496062992,
          "duration": 0.07113822916670642
        },
        {
          "name": "D#2",
          "midi": 39,
          "time": 108.78051500000603,
          "velocity": 1,
          "duration": 0.010162604166680467
        },
        {
          "name": "D4",
          "midi": 62,
          "time": 108.78051500000603,
          "velocity": 0.5590551181102362,
          "duration": 0.06605692708336619
        },
        {
          "name": "D4",
          "midi": 62,
          "time": 108.78051500000603,
          "velocity": 0.5590551181102362,
          "duration": 0.06605692708336619
        },
        {
          "name": "F2",
          "midi": 41,
          "time": 108.78051500000603,
          "velocity": 0.8110236220472441,
          "duration": 0.35569114583341843
        },
        {
          "name": "B2",
          "midi": 47,
          "time": 108.78051500000603,
          "velocity": 0.5590551181102362,
          "duration": 0.21849598958338845
        },
        {
          "name": "F4",
          "midi": 65,
          "time": 108.78051500000603,
          "velocity": 0.8661417322834646,
          "duration": 0.11686994791671168
        },
        {
          "name": "A4",
          "midi": 69,
          "time": 108.79575890625605,
          "velocity": 0.5984251968503937,
          "duration": 0.10162604166669098
        },
        {
          "name": "E5",
          "midi": 76,
          "time": 108.8008402083394,
          "velocity": 0.9291338582677166,
          "duration": 0.34044723958339773
        },
        {
          "name": "D2",
          "midi": 38,
          "time": 108.90246625000609,
          "velocity": 0.4251968503937008,
          "duration": 0.010162604166666256
        },
        {
          "name": "C4",
          "midi": 60,
          "time": 109.01425489583943,
          "velocity": 0.31496062992125984,
          "duration": 0.025406510416686956
        },
        {
          "name": "A2",
          "midi": 45,
          "time": 109.0244175000061,
          "velocity": 0.5590551181102362,
          "duration": 0.2286585937500405
        },
        {
          "name": "F4",
          "midi": 65,
          "time": 109.0244175000061,
          "velocity": 0.8110236220472441,
          "duration": 0.11686994791669747
        },
        {
          "name": "D2",
          "midi": 38,
          "time": 109.0244175000061,
          "velocity": 0.8503937007874016,
          "duration": 0.010162604166680467
        },
        {
          "name": "F#2",
          "midi": 42,
          "time": 109.0244175000061,
          "velocity": 0.47244094488188976,
          "duration": 0.010162604166680467
        },
        {
          "name": "A4",
          "midi": 69,
          "time": 109.02949880208944,
          "velocity": 0.5196850393700787,
          "duration": 0.11686994791669747
        },
        {
          "name": "E5",
          "midi": 76,
          "time": 109.03458010417278,
          "velocity": 0.937007874015748,
          "duration": 0.19308947916668728
        },
        {
          "name": "D2",
          "midi": 38,
          "time": 109.14636875000613,
          "velocity": 1,
          "duration": 0.010162604166666256
        },
        {
          "name": "F4",
          "midi": 65,
          "time": 109.26832000000614,
          "velocity": 0.4015748031496063,
          "duration": 0.060975624999997535
        },
        {
          "name": "D4",
          "midi": 62,
          "time": 109.26832000000614,
          "velocity": 0.48031496062992124,
          "duration": 0.060975624999997535
        },
        {
          "name": "D2",
          "midi": 38,
          "time": 109.26832000000614,
          "velocity": 0.5590551181102362,
          "duration": 0.010162604166666256
        },
        {
          "name": "D2",
          "midi": 38,
          "time": 109.26832000000614,
          "velocity": 1,
          "duration": 0.13211385416666133
        },
        {
          "name": "A4",
          "midi": 69,
          "time": 109.26832000000614,
          "velocity": 0.8346456692913385,
          "duration": 0.14227645833332758
        },
        {
          "name": "F4",
          "midi": 65,
          "time": 109.26832000000614,
          "velocity": 0.4015748031496063,
          "duration": 0.060975624999997535
        },
        {
          "name": "D2",
          "midi": 38,
          "time": 109.26832000000614,
          "velocity": 0.8110236220472441,
          "duration": 0.2540651041666848
        },
        {
          "name": "D4",
          "midi": 62,
          "time": 109.26832000000614,
          "velocity": 0.48031496062992124,
          "duration": 0.060975624999997535
        },
        {
          "name": "C4",
          "midi": 60,
          "time": 109.26832000000614,
          "velocity": 0.6299212598425197,
          "duration": 0.11178864583332881
        },
        {
          "name": "A3",
          "midi": 57,
          "time": 109.26832000000614,
          "velocity": 0.2992125984251969,
          "duration": 0.05081302083333128
        },
        {
          "name": "A4",
          "midi": 69,
          "time": 109.27848260417281,
          "velocity": 0.7401574803149606,
          "duration": 0.22357729166665763
        },
        {
          "name": "F4",
          "midi": 65,
          "time": 109.27848260417281,
          "velocity": 0.8503937007874016,
          "duration": 0.11178864583332881
        },
        {
          "name": "E5",
          "midi": 76,
          "time": 109.28864520833947,
          "velocity": 0.889763779527559,
          "duration": 0.12195124999999507
        },
        {
          "name": "D2",
          "midi": 38,
          "time": 109.39027125000614,
          "velocity": 1,
          "duration": 0.13211385416668975
        },
        {
          "name": "B3",
          "midi": 59,
          "time": 109.5071411979228,
          "velocity": 0.5669291338582677,
          "duration": 0.020325208333360933
        },
        {
          "name": "C4",
          "midi": 60,
          "time": 109.51222250000615,
          "velocity": 0.44881889763779526,
          "duration": 0.08130083333335847
        },
        {
          "name": "F#2",
          "midi": 42,
          "time": 109.51222250000615,
          "velocity": 0.47244094488188976,
          "duration": 0.010162604166680467
        },
        {
          "name": "D2",
          "midi": 38,
          "time": 109.51222250000615,
          "velocity": 0.9212598425196851,
          "duration": 0.025406510416686956
        },
        {
          "name": "D5",
          "midi": 74,
          "time": 109.51222250000615,
          "velocity": 0.9133858267716536,
          "duration": 0.2337398958333523
        },
        {
          "name": "F4",
          "midi": 65,
          "time": 109.51730380208949,
          "velocity": 0.8346456692913385,
          "duration": 0.106707343750017
        },
        {
          "name": "A4",
          "midi": 69,
          "time": 109.52238510417283,
          "velocity": 0.5826771653543307,
          "duration": 0.13211385416667554
        },
        {
          "name": "E5",
          "midi": 76,
          "time": 109.52746640625617,
          "velocity": 0.8267716535433071,
          "duration": 0.11686994791666905
        },
        {
          "name": "D2",
          "midi": 38,
          "time": 109.63417375000617,
          "velocity": 1,
          "duration": 0.010162604166666256
        },
        {
          "name": "C4",
          "midi": 60,
          "time": 109.75104369792284,
          "velocity": 0.4330708661417323,
          "duration": 0.0152439062500207
        },
        {
          "name": "E5",
          "midi": 76,
          "time": 109.75612500000618,
          "velocity": 0.7244094488188977,
          "duration": 0.12703255208334951
        },
        {
          "name": "D#2",
          "midi": 39,
          "time": 109.75612500000618,
          "velocity": 1,
          "duration": 0.010162604166680467
        },
        {
          "name": "F2",
          "midi": 41,
          "time": 109.75612500000618,
          "velocity": 0.6850393700787402,
          "duration": 0.31504072916669656
        },
        {
          "name": "F4",
          "midi": 65,
          "time": 109.75612500000618,
          "velocity": 0.7716535433070866,
          "duration": 0.11686994791668326
        },
        {
          "name": "A4",
          "midi": 69,
          "time": 109.76120630208952,
          "velocity": 0.5748031496062992,
          "duration": 0.11178864583334303
        },
        {
          "name": "E5",
          "midi": 76,
          "time": 109.76628760417286,
          "velocity": 0.8976377952755905,
          "duration": 0.22357729166667184
        },
        {
          "name": "C4",
          "midi": 60,
          "time": 109.98986489583953,
          "velocity": 0.5275590551181102,
          "duration": 0.11686994791668326
        },
        {
          "name": "F4",
          "midi": 65,
          "time": 109.99494619792287,
          "velocity": 0.7480314960629921,
          "duration": 0.12195125000002349
        },
        {
          "name": "A4",
          "midi": 69,
          "time": 110.00002750000621,
          "velocity": 0.5590551181102362,
          "duration": 0.10670734375000279
        },
        {
          "name": "D4",
          "midi": 62,
          "time": 110.00002750000621,
          "velocity": 0.6456692913385826,
          "duration": 0.4065041666667355
        },
        {
          "name": "A3",
          "midi": 57,
          "time": 110.00002750000621,
          "velocity": 0.5196850393700787,
          "duration": 0.37601635416673673
        },
        {
          "name": "F4",
          "midi": 65,
          "time": 110.00002750000621,
          "velocity": 0.5748031496062992,
          "duration": 0.34552854166672375
        },
        {
          "name": "F#2",
          "midi": 42,
          "time": 110.00002750000621,
          "velocity": 0.47244094488188976,
          "duration": 0.010162604166666256
        },
        {
          "name": "F4",
          "midi": 65,
          "time": 110.00002750000621,
          "velocity": 0.5748031496062992,
          "duration": 0.4065041666667355
        },
        {
          "name": "D4",
          "midi": 62,
          "time": 110.00002750000621,
          "velocity": 0.6456692913385826,
          "duration": 0.4065041666667355
        },
        {
          "name": "F2",
          "midi": 41,
          "time": 110.00002750000621,
          "velocity": 0.5590551181102362,
          "duration": 0.2591464062500535
        },
        {
          "name": "F5",
          "midi": 77,
          "time": 110.00002750000621,
          "velocity": 0.8661417322834646,
          "duration": 0.2337398958333523
        },
        {
          "name": "D#2",
          "midi": 39,
          "time": 110.00002750000621,
          "velocity": 0.8661417322834646,
          "duration": 0.010162604166666256
        },
        {
          "name": "E5",
          "midi": 76,
          "time": 110.01019010417288,
          "velocity": 0.8031496062992126,
          "duration": 0.10162604166667677
        },
        {
          "name": "D2",
          "midi": 38,
          "time": 110.12197875000624,
          "velocity": 1,
          "duration": 0.010162604166666256
        },
        {
          "name": "C4",
          "midi": 60,
          "time": 110.2388486979229,
          "velocity": 0.5039370078740157,
          "duration": 0.11178864583337145
        },
        {
          "name": "D2",
          "midi": 38,
          "time": 110.24393000000624,
          "velocity": 1,
          "duration": 0.010162604166680467
        },
        {
          "name": "E5",
          "midi": 76,
          "time": 110.24393000000624,
          "velocity": 0.8031496062992126,
          "duration": 0.03048781250002719
        },
        {
          "name": "A2",
          "midi": 45,
          "time": 110.24393000000624,
          "velocity": 0.7559055118110236,
          "duration": 0.2947155208334209
        },
        {
          "name": "F4",
          "midi": 65,
          "time": 110.24901130208958,
          "velocity": 0.84251968503937,
          "duration": 0.1575203645833625
        },
        {
          "name": "A4",
          "midi": 69,
          "time": 110.25917390625627,
          "velocity": 0.6062992125984252,
          "duration": 0.09654473958335075
        },
        {
          "name": "E5",
          "midi": 76,
          "time": 110.2642552083396,
          "velocity": 0.7086614173228346,
          "duration": 0.08130083333333005
        },
        {
          "name": "E5",
          "midi": 76,
          "time": 110.27441781250627,
          "velocity": 0.9133858267716536,
          "duration": 0.23373989583339494
        },
        {
          "name": "D2",
          "midi": 38,
          "time": 110.36588125000628,
          "velocity": 1,
          "duration": 0.010162604166666256
        },
        {
          "name": "C4",
          "midi": 60,
          "time": 110.4725885937563,
          "velocity": 0.48031496062992124,
          "duration": 0.08130083333337268
        },
        {
          "name": "F4",
          "midi": 65,
          "time": 110.47766989583964,
          "velocity": 0.7559055118110236,
          "duration": 0.07621953125003245
        },
        {
          "name": "A4",
          "midi": 69,
          "time": 110.48275119792298,
          "velocity": 0.5748031496062992,
          "duration": 0.09146343750003894
        },
        {
          "name": "F4",
          "midi": 65,
          "time": 110.48783250000632,
          "velocity": 0.5275590551181102,
          "duration": 0.06605692708335198
        },
        {
          "name": "A3",
          "midi": 57,
          "time": 110.48783250000632,
          "velocity": 0.47244094488188976,
          "duration": 0.060975625000011746
        },
        {
          "name": "E5",
          "midi": 76,
          "time": 110.48783250000632,
          "velocity": 0.7559055118110236,
          "duration": 0.10162604166670519
        },
        {
          "name": "F4",
          "midi": 65,
          "time": 110.48783250000632,
          "velocity": 0.5275590551181102,
          "duration": 0.07113822916669221
        },
        {
          "name": "D4",
          "midi": 62,
          "time": 110.48783250000632,
          "velocity": 0.5275590551181102,
          "duration": 0.060975625000011746
        },
        {
          "name": "D4",
          "midi": 62,
          "time": 110.48783250000632,
          "velocity": 0.5275590551181102,
          "duration": 0.060975625000011746
        },
        {
          "name": "F#2",
          "midi": 42,
          "time": 110.48783250000632,
          "velocity": 0.47244094488188976,
          "duration": 0.010162604166666256
        },
        {
          "name": "D2",
          "midi": 38,
          "time": 110.48783250000632,
          "velocity": 0.9212598425196851,
          "duration": 0.010162604166666256
        },
        {
          "name": "A2",
          "midi": 45,
          "time": 110.48783250000632,
          "velocity": 0.5590551181102362,
          "duration": 0.24390250000003277
        },
        {
          "name": "E5",
          "midi": 76,
          "time": 110.51832031250633,
          "velocity": 0.8661417322834646,
          "duration": 0.17276427083335477
        },
        {
          "name": "D2",
          "midi": 38,
          "time": 110.60978375000636,
          "velocity": 1,
          "duration": 0.010162604166666256
        },
        {
          "name": "C4",
          "midi": 60,
          "time": 110.71140979167302,
          "velocity": 0.4566929133858268,
          "duration": 0.10162604166667677
        },
        {
          "name": "A3",
          "midi": 57,
          "time": 110.73173500000635,
          "velocity": 0.5196850393700787,
          "duration": 0.071138229166678
        },
        {
          "name": "B2",
          "midi": 47,
          "time": 110.73173500000635,
          "velocity": 0.5590551181102362,
          "duration": 0.24898380208340143
        },
        {
          "name": "F4",
          "midi": 65,
          "time": 110.73173500000635,
          "velocity": 0.5196850393700787,
          "duration": 0.08638213541668449
        },
        {
          "name": "D4",
          "midi": 62,
          "time": 110.73173500000635,
          "velocity": 0.5196850393700787,
          "duration": 0.08638213541668449
        },
        {
          "name": "F4",
          "midi": 65,
          "time": 110.73173500000635,
          "velocity": 0.5196850393700787,
          "duration": 0.08638213541668449
        },
        {
          "name": "D4",
          "midi": 62,
          "time": 110.73173500000635,
          "velocity": 0.5196850393700787,
          "duration": 0.08638213541668449
        },
        {
          "name": "F4",
          "midi": 65,
          "time": 110.73173500000635,
          "velocity": 0.8661417322834646,
          "duration": 0.09654473958335075
        },
        {
          "name": "D#2",
          "midi": 39,
          "time": 110.73173500000635,
          "velocity": 1,
          "duration": 0.010162604166666256
        },
        {
          "name": "F2",
          "midi": 41,
          "time": 110.73173500000635,
          "velocity": 0.7244094488188977,
          "duration": 0.2794716145834144
        },
        {
          "name": "D5",
          "midi": 74,
          "time": 110.73173500000635,
          "velocity": 0.889763779527559,
          "duration": 0.44715458333342895
        },
        {
          "name": "A4",
          "midi": 69,
          "time": 110.74697890625636,
          "velocity": 0.6299212598425197,
          "duration": 0.08638213541668449
        },
        {
          "name": "E5",
          "midi": 76,
          "time": 110.75714151042303,
          "velocity": 0.937007874015748,
          "duration": 0.10162604166669098
        },
        {
          "name": "D2",
          "midi": 38,
          "time": 110.85368625000638,
          "velocity": 0.4251968503937008,
          "duration": 0.010162604166680467
        },
        {
          "name": "C#4",
          "midi": 61,
          "time": 110.9603935937564,
          "velocity": 0.31496062992125984,
          "duration": 0.010162604166680467
        },
        {
          "name": "D2",
          "midi": 38,
          "time": 110.97563750000641,
          "velocity": 0.8503937007874016,
          "duration": 0.010162604166680467
        },
        {
          "name": "F#2",
          "midi": 42,
          "time": 110.97563750000641,
          "velocity": 0.47244094488188976,
          "duration": 0.010162604166680467
        },
        {
          "name": "C4",
          "midi": 60,
          "time": 110.97563750000641,
          "velocity": 0.3700787401574803,
          "duration": 0.10670734375003121
        },
        {
          "name": "A2",
          "midi": 45,
          "time": 110.97563750000641,
          "velocity": 0.5590551181102362,
          "duration": 0.04573171875001947
        },
        {
          "name": "F4",
          "midi": 65,
          "time": 110.98071880208975,
          "velocity": 0.6771653543307087,
          "duration": 0.10670734375003121
        },
        {
          "name": "A4",
          "midi": 69,
          "time": 110.9858001041731,
          "velocity": 0.5039370078740157,
          "duration": 0.08130083333334426
        },
        {
          "name": "E5",
          "midi": 76,
          "time": 110.99088140625643,
          "velocity": 0.7322834645669292,
          "duration": 0.11686994791668326
        },
        {
          "name": "D2",
          "midi": 38,
          "time": 111.09758875000645,
          "velocity": 1,
          "duration": 0.010162604166666256
        },
        {
          "name": "E4",
          "midi": 64,
          "time": 111.21954000000645,
          "velocity": 0.5039370078740157,
          "duration": 0.08638213541668449
        },
        {
          "name": "B3",
          "midi": 59,
          "time": 111.21954000000645,
          "velocity": 0.5984251968503937,
          "duration": 0.071138229166678
        },
        {
          "name": "G#3",
          "midi": 56,
          "time": 111.21954000000645,
          "velocity": 0.5196850393700787,
          "duration": 0.071138229166678
        },
        {
          "name": "E1",
          "midi": 28,
          "time": 111.21954000000645,
          "velocity": 0.5590551181102362,
          "duration": 0.2743903125001026
        },
        {
          "name": "D2",
          "midi": 38,
          "time": 111.21954000000645,
          "velocity": 1,
          "duration": 0.010162604166666256
        },
        {
          "name": "E4",
          "midi": 64,
          "time": 111.21954000000645,
          "velocity": 0.5039370078740157,
          "duration": 0.08638213541668449
        },
        {
          "name": "E2",
          "midi": 40,
          "time": 111.21954000000645,
          "velocity": 0.8110236220472441,
          "duration": 0.4878050000001224
        },
        {
          "name": "D5",
          "midi": 74,
          "time": 111.23478390625645,
          "velocity": 0.7874015748031497,
          "duration": 0.11178864583335724
        },
        {
          "name": "G#5",
          "midi": 80,
          "time": 111.2398652083398,
          "velocity": 0.937007874015748,
          "duration": 0.13719515625002998
        },
        {
          "name": "D2",
          "midi": 38,
          "time": 111.34149125000647,
          "velocity": 1,
          "duration": 0.010162604166680467
        },
        {
          "name": "B4",
          "midi": 71,
          "time": 111.45836119792318,
          "velocity": 0.7716535433070866,
          "duration": 0.12703255208336373
        },
        {
          "name": "F#2",
          "midi": 42,
          "time": 111.46344250000652,
          "velocity": 0.47244094488188976,
          "duration": 0.010162604166680467
        },
        {
          "name": "D2",
          "midi": 38,
          "time": 111.46344250000652,
          "velocity": 0.9212598425196851,
          "duration": 0.010162604166680467
        },
        {
          "name": "D5",
          "midi": 74,
          "time": 111.46852380208986,
          "velocity": 0.8031496062992126,
          "duration": 0.106707343750017
        },
        {
          "name": "G#5",
          "midi": 80,
          "time": 111.47868640625654,
          "velocity": 0.937007874015748,
          "duration": 0.11178864583334303
        },
        {
          "name": "D2",
          "midi": 38,
          "time": 111.58539375000655,
          "velocity": 1,
          "duration": 0.010162604166680467
        },
        {
          "name": "B4",
          "midi": 71,
          "time": 111.70226369792323,
          "velocity": 0.7401574803149606,
          "duration": 0.12703255208334951
        },
        {
          "name": "D#2",
          "midi": 39,
          "time": 111.70734500000657,
          "velocity": 1,
          "duration": 0.010162604166666256
        },
        {
          "name": "D5",
          "midi": 74,
          "time": 111.71750760417324,
          "velocity": 0.7244094488188977,
          "duration": 0.09654473958333654
        },
        {
          "name": "G#5",
          "midi": 80,
          "time": 111.71750760417324,
          "velocity": 0.8976377952755905,
          "duration": 0.11686994791668326
        },
        {
          "name": "B4",
          "midi": 71,
          "time": 111.94616619792325,
          "velocity": 0.8976377952755905,
          "duration": 0.106707343750017
        },
        {
          "name": "F#2",
          "midi": 42,
          "time": 111.95124750000659,
          "velocity": 0.47244094488188976,
          "duration": 0.010162604166680467
        },
        {
          "name": "E4",
          "midi": 64,
          "time": 111.95124750000659,
          "velocity": 0.5748031496062992,
          "duration": 0.391260260416729
        },
        {
          "name": "G#1",
          "midi": 32,
          "time": 111.95124750000659,
          "velocity": 0.5590551181102362,
          "duration": 0.2134146875000198
        },
        {
          "name": "D#2",
          "midi": 39,
          "time": 111.95124750000659,
          "velocity": 0.8661417322834646,
          "duration": 0.010162604166680467
        },
        {
          "name": "B3",
          "midi": 59,
          "time": 111.95124750000659,
          "velocity": 0.6220472440944882,
          "duration": 0.40142286458339527
        },
        {
          "name": "G#3",
          "midi": 56,
          "time": 111.95124750000659,
          "velocity": 0.5039370078740157,
          "duration": 0.4065041666667355
        },
        {
          "name": "G#2",
          "midi": 44,
          "time": 111.95124750000659,
          "velocity": 0.6850393700787402,
          "duration": 0.3201220312500368
        },
        {
          "name": "E4",
          "midi": 64,
          "time": 111.95124750000659,
          "velocity": 0.5748031496062992,
          "duration": 0.391260260416729
        },
        {
          "name": "D5",
          "midi": 74,
          "time": 111.95632880208993,
          "velocity": 0.8267716535433071,
          "duration": 0.09654473958333654
        },
        {
          "name": "G#5",
          "midi": 80,
          "time": 111.96141010417327,
          "velocity": 0.937007874015748,
          "duration": 0.10670734375000279
        },
        {
          "name": "D2",
          "midi": 38,
          "time": 112.07319875000661,
          "velocity": 1,
          "duration": 0.010162604166666256
        },
        {
          "name": "B4",
          "midi": 71,
          "time": 112.19006869792328,
          "velocity": 0.7401574803149606,
          "duration": 0.12703255208334951
        },
        {
          "name": "D2",
          "midi": 38,
          "time": 112.19515000000662,
          "velocity": 1,
          "duration": 0.010162604166666256
        },
        {
          "name": "G#5",
          "midi": 80,
          "time": 112.20531260417329,
          "velocity": 0.8976377952755905,
          "duration": 0.11686994791668326
        },
        {
          "name": "D5",
          "midi": 74,
          "time": 112.20531260417329,
          "velocity": 0.7244094488188977,
          "duration": 0.09654473958333654
        },
        {
          "name": "D2",
          "midi": 38,
          "time": 112.31710125000663,
          "velocity": 1,
          "duration": 0.010162604166680467
        },
        {
          "name": "B4",
          "midi": 71,
          "time": 112.43397119792334,
          "velocity": 0.8976377952755905,
          "duration": 0.10670734375003121
        },
        {
          "name": "B3",
          "midi": 59,
          "time": 112.43905250000668,
          "velocity": 0.5275590551181102,
          "duration": 0.08638213541668449
        },
        {
          "name": "F#2",
          "midi": 42,
          "time": 112.43905250000668,
          "velocity": 0.47244094488188976,
          "duration": 0.010162604166680467
        },
        {
          "name": "E4",
          "midi": 64,
          "time": 112.43905250000668,
          "velocity": 0.48031496062992124,
          "duration": 0.10162604166669098
        },
        {
          "name": "D2",
          "midi": 38,
          "time": 112.43905250000668,
          "velocity": 0.9212598425196851,
          "duration": 0.010162604166680467
        },
        {
          "name": "B2",
          "midi": 47,
          "time": 112.43905250000668,
          "velocity": 0.6062992125984252,
          "duration": 0.13211385416670396
        },
        {
          "name": "B1",
          "midi": 35,
          "time": 112.43905250000668,
          "velocity": 0.5590551181102362,
          "duration": 0.2997968229167185
        },
        {
          "name": "E6",
          "midi": 88,
          "time": 112.43905250000668,
          "velocity": 0.5669291338582677,
          "duration": 0.040650416666679234
        },
        {
          "name": "G#3",
          "midi": 56,
          "time": 112.43905250000668,
          "velocity": 0.4881889763779528,
          "duration": 0.07621953125001824
        },
        {
          "name": "E4",
          "midi": 64,
          "time": 112.43905250000668,
          "velocity": 0.48031496062992124,
          "duration": 0.10162604166669098
        },
        {
          "name": "D5",
          "midi": 74,
          "time": 112.44413380209002,
          "velocity": 0.8267716535433071,
          "duration": 0.09654473958335075
        },
        {
          "name": "G#5",
          "midi": 80,
          "time": 112.44921510417336,
          "velocity": 0.937007874015748,
          "duration": 0.106707343750017
        },
        {
          "name": "D2",
          "midi": 38,
          "time": 112.56100375000672,
          "velocity": 1,
          "duration": 0.010162604166666256
        },
        {
          "name": "B4",
          "midi": 71,
          "time": 112.67787369792339,
          "velocity": 0.7401574803149606,
          "duration": 0.12703255208334951
        },
        {
          "name": "E4",
          "midi": 64,
          "time": 112.68295500000673,
          "velocity": 0.2047244094488189,
          "duration": 0.035569114583339
        },
        {
          "name": "E4",
          "midi": 64,
          "time": 112.68295500000673,
          "velocity": 0.2047244094488189,
          "duration": 0.035569114583339
        },
        {
          "name": "B4",
          "midi": 71,
          "time": 112.68295500000673,
          "velocity": 0.984251968503937,
          "duration": 0.2337398958333523
        },
        {
          "name": "D2",
          "midi": 38,
          "time": 112.68295500000673,
          "velocity": 0.5590551181102362,
          "duration": 0.13211385416668975
        },
        {
          "name": "B3",
          "midi": 59,
          "time": 112.68295500000673,
          "velocity": 0.49606299212598426,
          "duration": 0.05589432291667151
        },
        {
          "name": "D3",
          "midi": 50,
          "time": 112.68295500000673,
          "velocity": 0.6062992125984252,
          "duration": 0.19308947916668728
        },
        {
          "name": "D#2",
          "midi": 39,
          "time": 112.68295500000673,
          "velocity": 1,
          "duration": 0.010162604166666256
        },
        {
          "name": "G#3",
          "midi": 56,
          "time": 112.68295500000673,
          "velocity": 0.4409448818897638,
          "duration": 0.05589432291667151
        },
        {
          "name": "G#5",
          "midi": 80,
          "time": 112.6931176041734,
          "velocity": 0.8976377952755905,
          "duration": 0.11686994791668326
        },
        {
          "name": "D5",
          "midi": 74,
          "time": 112.6931176041734,
          "velocity": 0.7244094488188977,
          "duration": 0.09654473958333654
        },
        {
          "name": "D2",
          "midi": 38,
          "time": 112.80490625000674,
          "velocity": 0.4251968503937008,
          "duration": 0.12703255208336373
        },
        {
          "name": "B4",
          "midi": 71,
          "time": 112.92177619792342,
          "velocity": 0.8976377952755905,
          "duration": 0.106707343750017
        },
        {
          "name": "F#2",
          "midi": 42,
          "time": 112.92685750000676,
          "velocity": 0.47244094488188976,
          "duration": 0.010162604166680467
        },
        {
          "name": "C5",
          "midi": 72,
          "time": 112.92685750000676,
          "velocity": 0.6771653543307087,
          "duration": 0.1575203645833625
        },
        {
          "name": "B1",
          "midi": 35,
          "time": 112.92685750000676,
          "velocity": 0.5590551181102362,
          "duration": 0.18800817708336126
        },
        {
          "name": "D2",
          "midi": 38,
          "time": 112.92685750000676,
          "velocity": 0.8503937007874016,
          "duration": 0.010162604166680467
        },
        {
          "name": "B2",
          "midi": 47,
          "time": 112.92685750000676,
          "velocity": 0.5196850393700787,
          "duration": 0.1575203645833625
        },
        {
          "name": "D5",
          "midi": 74,
          "time": 112.9319388020901,
          "velocity": 0.8267716535433071,
          "duration": 0.09654473958333654
        },
        {
          "name": "G#5",
          "midi": 80,
          "time": 112.93702010417344,
          "velocity": 0.937007874015748,
          "duration": 0.10670734375000279
        },
        {
          "name": "D2",
          "midi": 38,
          "time": 113.04880875000678,
          "velocity": 1,
          "duration": 0.010162604166666256
        },
        {
          "name": "B4",
          "midi": 71,
          "time": 113.16567869792345,
          "velocity": 0.7401574803149606,
          "duration": 0.12703255208336373
        },
        {
          "name": "E1",
          "midi": 28,
          "time": 113.1707600000068,
          "velocity": 0.5590551181102362,
          "duration": 0.27439031250005996
        },
        {
          "name": "D5",
          "midi": 74,
          "time": 113.1707600000068,
          "velocity": 0.7165354330708661,
          "duration": 0.106707343750017
        },
        {
          "name": "G#3",
          "midi": 56,
          "time": 113.1707600000068,
          "velocity": 0.4330708661417323,
          "duration": 0.06605692708335198
        },
        {
          "name": "E4",
          "midi": 64,
          "time": 113.1707600000068,
          "velocity": 0.4409448818897638,
          "duration": 0.08638213541668449
        },
        {
          "name": "E4",
          "midi": 64,
          "time": 113.1707600000068,
          "velocity": 0.4409448818897638,
          "duration": 0.08638213541668449
        },
        {
          "name": "B3",
          "midi": 59,
          "time": 113.1707600000068,
          "velocity": 0.41732283464566927,
          "duration": 0.07621953125001824
        },
        {
          "name": "D2",
          "midi": 38,
          "time": 113.1707600000068,
          "velocity": 1,
          "duration": 0.010162604166666256
        },
        {
          "name": "E2",
          "midi": 40,
          "time": 113.1707600000068,
          "velocity": 0.8110236220472441,
          "duration": 0.48780500000007976
        },
        {
          "name": "G#5",
          "midi": 80,
          "time": 113.18092260417346,
          "velocity": 0.8976377952755905,
          "duration": 0.11686994791669747
        },
        {
          "name": "D5",
          "midi": 74,
          "time": 113.18092260417346,
          "velocity": 0.7244094488188977,
          "duration": 0.315040729166725
        },
        {
          "name": "D2",
          "midi": 38,
          "time": 113.29271125000682,
          "velocity": 1,
          "duration": 0.010162604166680467
        },
        {
          "name": "B4",
          "midi": 71,
          "time": 113.4095811979235,
          "velocity": 0.8976377952755905,
          "duration": 0.106707343750017
        },
        {
          "name": "D2",
          "midi": 38,
          "time": 113.41466250000684,
          "velocity": 0.9212598425196851,
          "duration": 0.010162604166680467
        },
        {
          "name": "F#2",
          "midi": 42,
          "time": 113.41466250000684,
          "velocity": 0.47244094488188976,
          "duration": 0.010162604166680467
        },
        {
          "name": "D5",
          "midi": 74,
          "time": 113.41974380209018,
          "velocity": 0.8267716535433071,
          "duration": 0.09654473958333654
        },
        {
          "name": "G#5",
          "midi": 80,
          "time": 113.42482510417352,
          "velocity": 0.937007874015748,
          "duration": 0.10670734375000279
        },
        {
          "name": "D2",
          "midi": 38,
          "time": 113.53661375000686,
          "velocity": 1,
          "duration": 0.010162604166666256
        },
        {
          "name": "B4",
          "midi": 71,
          "time": 113.65348369792353,
          "velocity": 0.7401574803149606,
          "duration": 0.12703255208336373
        },
        {
          "name": "D5",
          "midi": 74,
          "time": 113.65856500000687,
          "velocity": 0.8661417322834646,
          "duration": 0.106707343750017
        },
        {
          "name": "D#2",
          "midi": 39,
          "time": 113.65856500000687,
          "velocity": 1,
          "duration": 0.010162604166666256
        },
        {
          "name": "G#5",
          "midi": 80,
          "time": 113.66872760417354,
          "velocity": 0.8976377952755905,
          "duration": 0.11686994791669747
        },
        {
          "name": "D5",
          "midi": 74,
          "time": 113.66872760417354,
          "velocity": 0.7244094488188977,
          "duration": 0.22357729166670026
        },
        {
          "name": "B4",
          "midi": 71,
          "time": 113.89738619792358,
          "velocity": 0.8976377952755905,
          "duration": 0.106707343750017
        },
        {
          "name": "E4",
          "midi": 64,
          "time": 113.90246750000692,
          "velocity": 0.5196850393700787,
          "duration": 0.391260260416729
        },
        {
          "name": "B3",
          "midi": 59,
          "time": 113.90246750000692,
          "velocity": 0.5433070866141733,
          "duration": 0.36585375000004206
        },
        {
          "name": "G#2",
          "midi": 44,
          "time": 113.90246750000692,
          "velocity": 0.6850393700787402,
          "duration": 0.3201220312500368
        },
        {
          "name": "D#2",
          "midi": 39,
          "time": 113.90246750000692,
          "velocity": 0.8661417322834646,
          "duration": 0.010162604166680467
        },
        {
          "name": "F#2",
          "midi": 42,
          "time": 113.90246750000692,
          "velocity": 0.47244094488188976,
          "duration": 0.010162604166680467
        },
        {
          "name": "G#1",
          "midi": 32,
          "time": 113.90246750000692,
          "velocity": 0.5590551181102362,
          "duration": 0.2134146875000198
        },
        {
          "name": "E4",
          "midi": 64,
          "time": 113.90246750000692,
          "velocity": 0.5196850393700787,
          "duration": 0.391260260416729
        },
        {
          "name": "G#3",
          "midi": 56,
          "time": 113.90246750000692,
          "velocity": 0.5748031496062992,
          "duration": 0.36585375000004206
        },
        {
          "name": "E5",
          "midi": 76,
          "time": 113.90246750000692,
          "velocity": 0.8661417322834646,
          "duration": 0.2337398958333523
        },
        {
          "name": "D5",
          "midi": 74,
          "time": 113.90754880209026,
          "velocity": 0.8267716535433071,
          "duration": 0.09654473958333654
        },
        {
          "name": "G#5",
          "midi": 80,
          "time": 113.9126301041736,
          "velocity": 0.937007874015748,
          "duration": 0.10670734375000279
        },
        {
          "name": "D2",
          "midi": 38,
          "time": 114.02441875000694,
          "velocity": 1,
          "duration": 0.010162604166666256
        },
        {
          "name": "B4",
          "midi": 71,
          "time": 114.14128869792361,
          "velocity": 0.7401574803149606,
          "duration": 0.12703255208334951
        },
        {
          "name": "D2",
          "midi": 38,
          "time": 114.14637000000695,
          "velocity": 1,
          "duration": 0.010162604166666256
        },
        {
          "name": "D5",
          "midi": 74,
          "time": 114.14637000000695,
          "velocity": 0.8346456692913385,
          "duration": 0.10670734375000279
        },
        {
          "name": "D5",
          "midi": 74,
          "time": 114.15653260417362,
          "velocity": 0.7244094488188977,
          "duration": 0.23373989583336652
        },
        {
          "name": "G#5",
          "midi": 80,
          "time": 114.15653260417362,
          "velocity": 0.8976377952755905,
          "duration": 0.11686994791668326
        },
        {
          "name": "D2",
          "midi": 38,
          "time": 114.26832125000696,
          "velocity": 1,
          "duration": 0.010162604166680467
        },
        {
          "name": "B4",
          "midi": 71,
          "time": 114.38519119792365,
          "velocity": 0.8976377952755905,
          "duration": 0.10670734375003121
        },
        {
          "name": "B3",
          "midi": 59,
          "time": 114.39027250000699,
          "velocity": 0.5433070866141733,
          "duration": 0.055894322916685724
        },
        {
          "name": "B2",
          "midi": 47,
          "time": 114.39027250000699,
          "velocity": 0.6062992125984252,
          "duration": 0.13211385416670396
        },
        {
          "name": "B1",
          "midi": 35,
          "time": 114.39027250000699,
          "velocity": 0.5590551181102362,
          "duration": 0.2997968229167185
        },
        {
          "name": "C5",
          "midi": 72,
          "time": 114.39027250000699,
          "velocity": 0.7165354330708661,
          "duration": 0.1219512500000377
        },
        {
          "name": "D2",
          "midi": 38,
          "time": 114.39027250000699,
          "velocity": 0.9212598425196851,
          "duration": 0.010162604166680467
        },
        {
          "name": "G#3",
          "midi": 56,
          "time": 114.39027250000699,
          "velocity": 0.49606299212598426,
          "duration": 0.06097562500002596
        },
        {
          "name": "E4",
          "midi": 64,
          "time": 114.39027250000699,
          "velocity": 0.49606299212598426,
          "duration": 0.07113822916669221
        },
        {
          "name": "E4",
          "midi": 64,
          "time": 114.39027250000699,
          "velocity": 0.49606299212598426,
          "duration": 0.07113822916669221
        },
        {
          "name": "F#2",
          "midi": 42,
          "time": 114.39027250000699,
          "velocity": 0.47244094488188976,
          "duration": 0.010162604166680467
        },
        {
          "name": "D5",
          "midi": 74,
          "time": 114.39535380209033,
          "velocity": 0.8267716535433071,
          "duration": 0.09654473958335075
        },
        {
          "name": "G#5",
          "midi": 80,
          "time": 114.40043510417367,
          "velocity": 0.937007874015748,
          "duration": 0.106707343750017
        },
        {
          "name": "D2",
          "midi": 38,
          "time": 114.51222375000702,
          "velocity": 1,
          "duration": 0.010162604166666256
        },
        {
          "name": "B4",
          "midi": 71,
          "time": 114.6290936979237,
          "velocity": 0.7401574803149606,
          "duration": 0.12703255208334951
        },
        {
          "name": "B4",
          "midi": 71,
          "time": 114.63417500000703,
          "velocity": 0.8031496062992126,
          "duration": 0.23882119791669254
        },
        {
          "name": "D3",
          "midi": 50,
          "time": 114.63417500000703,
          "velocity": 0.6062992125984252,
          "duration": 0.19308947916668728
        },
        {
          "name": "D#2",
          "midi": 39,
          "time": 114.63417500000703,
          "velocity": 1,
          "duration": 0.010162604166666256
        },
        {
          "name": "B3",
          "midi": 59,
          "time": 114.63417500000703,
          "velocity": 0.5748031496062992,
          "duration": 0.05081302083333128
        },
        {
          "name": "E4",
          "midi": 64,
          "time": 114.63417500000703,
          "velocity": 0.4881889763779528,
          "duration": 0.06605692708333777
        },
        {
          "name": "G#3",
          "midi": 56,
          "time": 114.63417500000703,
          "velocity": 0.47244094488188976,
          "duration": 0.05081302083333128
        },
        {
          "name": "E4",
          "midi": 64,
          "time": 114.63417500000703,
          "velocity": 0.4881889763779528,
          "duration": 0.06605692708333777
        },
        {
          "name": "D2",
          "midi": 38,
          "time": 114.63417500000703,
          "velocity": 0.5590551181102362,
          "duration": 0.13211385416668975
        },
        {
          "name": "G#5",
          "midi": 80,
          "time": 114.6443376041737,
          "velocity": 0.8976377952755905,
          "duration": 0.11686994791668326
        },
        {
          "name": "D5",
          "midi": 74,
          "time": 114.6443376041737,
          "velocity": 0.7244094488188977,
          "duration": 0.09654473958333654
        },
        {
          "name": "D2",
          "midi": 38,
          "time": 114.75612625000704,
          "velocity": 0.4251968503937008,
          "duration": 0.12703255208336373
        },
        {
          "name": "B4",
          "midi": 71,
          "time": 114.87299619792373,
          "velocity": 0.8976377952755905,
          "duration": 0.106707343750017
        },
        {
          "name": "C5",
          "midi": 72,
          "time": 114.87807750000707,
          "velocity": 0.952755905511811,
          "duration": 0.20325208333336775
        },
        {
          "name": "D2",
          "midi": 38,
          "time": 114.87807750000707,
          "velocity": 0.8503937007874016,
          "duration": 0.010162604166680467
        },
        {
          "name": "B1",
          "midi": 35,
          "time": 114.87807750000707,
          "velocity": 0.5590551181102362,
          "duration": 0.18800817708336126
        },
        {
          "name": "B2",
          "midi": 47,
          "time": 114.87807750000707,
          "velocity": 0.5196850393700787,
          "duration": 0.1575203645833625
        },
        {
          "name": "F#2",
          "midi": 42,
          "time": 114.87807750000707,
          "velocity": 0.47244094488188976,
          "duration": 0.010162604166680467
        },
        {
          "name": "D5",
          "midi": 74,
          "time": 114.8831588020904,
          "velocity": 0.8267716535433071,
          "duration": 0.09654473958333654
        },
        {
          "name": "G#5",
          "midi": 80,
          "time": 114.88824010417375,
          "velocity": 0.937007874015748,
          "duration": 0.10670734375000279
        },
        {
          "name": "D2",
          "midi": 38,
          "time": 115.00002875000709,
          "velocity": 1,
          "duration": 0.010162604166666256
        },
        {
          "name": "A3",
          "midi": 57,
          "time": 115.1219800000071,
          "velocity": 0.4566929133858268,
          "duration": 0.05081302083334549
        },
        {
          "name": "G4",
          "midi": 67,
          "time": 115.1219800000071,
          "velocity": 0.5433070866141733,
          "duration": 0.07621953125001824
        },
        {
          "name": "D2",
          "midi": 38,
          "time": 115.1219800000071,
          "velocity": 1,
          "duration": 0.010162604166680467
        },
        {
          "name": "E4",
          "midi": 64,
          "time": 115.1219800000071,
          "velocity": 0.6614173228346457,
          "duration": 0.071138229166678
        },
        {
          "name": "E4",
          "midi": 64,
          "time": 115.1219800000071,
          "velocity": 0.4094488188976378,
          "duration": 0.071138229166678
        },
        {
          "name": "E4",
          "midi": 64,
          "time": 115.1219800000071,
          "velocity": 0.4094488188976378,
          "duration": 1.1788620833334988
        },
        {
          "name": "C4",
          "midi": 60,
          "time": 115.1219800000071,
          "velocity": 0.48031496062992124,
          "duration": 0.060975625000011746
        },
        {
          "name": "A1",
          "midi": 33,
          "time": 115.1219800000071,
          "velocity": 0.5590551181102362,
          "duration": 0.25914640625003926
        },
        {
          "name": "C4",
          "midi": 60,
          "time": 115.1219800000071,
          "velocity": 0.48031496062992124,
          "duration": 0.060975625000011746
        },
        {
          "name": "A2",
          "midi": 45,
          "time": 115.1219800000071,
          "velocity": 0.8110236220472441,
          "duration": 0.30995942708338475
        },
        {
          "name": "C5",
          "midi": 72,
          "time": 115.12706130209044,
          "velocity": 0.8661417322834646,
          "duration": 0.09654473958335075
        },
        {
          "name": "G#4",
          "midi": 68,
          "time": 115.13214260417378,
          "velocity": 1,
          "duration": 0.030487812499998768
        },
        {
          "name": "B5",
          "midi": 83,
          "time": 115.14230520834045,
          "velocity": 0.8818897637795275,
          "duration": 0.09146343750001051
        },
        {
          "name": "E5",
          "midi": 76,
          "time": 115.14230520834045,
          "velocity": 0.6692913385826772,
          "duration": 0.08130083333334426
        },
        {
          "name": "A4",
          "midi": 69,
          "time": 115.18295562500711,
          "velocity": 0.8346456692913385,
          "duration": 0.38617895833337457
        },
        {
          "name": "D2",
          "midi": 38,
          "time": 115.24393125000712,
          "velocity": 1,
          "duration": 0.010162604166666256
        },
        {
          "name": "D2",
          "midi": 38,
          "time": 115.36588250000712,
          "velocity": 0.9212598425196851,
          "duration": 0.010162604166680467
        },
        {
          "name": "F#2",
          "midi": 42,
          "time": 115.36588250000712,
          "velocity": 0.47244094488188976,
          "duration": 0.010162604166680467
        },
        {
          "name": "A4",
          "midi": 69,
          "time": 115.36588250000712,
          "velocity": 0.6456692913385826,
          "duration": 1.6869922916669253
        },
        {
          "name": "G4",
          "midi": 67,
          "time": 115.36588250000712,
          "velocity": 0.4094488188976378,
          "duration": 0.06097562500002596
        },
        {
          "name": "C5",
          "midi": 72,
          "time": 115.36588250000712,
          "velocity": 0.8110236220472441,
          "duration": 0.10162604166670519
        },
        {
          "name": "E5",
          "midi": 76,
          "time": 115.37096380209046,
          "velocity": 0.6692913385826772,
          "duration": 0.09654473958336496
        },
        {
          "name": "B5",
          "midi": 83,
          "time": 115.38112640625714,
          "velocity": 0.8818897637795275,
          "duration": 0.005081302083340233
        },
        {
          "name": "B5",
          "midi": 83,
          "time": 115.38620770834048,
          "velocity": 0.8818897637795275,
          "duration": 0.09146343750001051
        },
        {
          "name": "D2",
          "midi": 38,
          "time": 115.48783375000716,
          "velocity": 1,
          "duration": 0.010162604166666256
        },
        {
          "name": "G4",
          "midi": 67,
          "time": 115.59962239584048,
          "velocity": 0.4094488188976378,
          "duration": 0.10162604166669098
        },
        {
          "name": "C2",
          "midi": 36,
          "time": 115.60978500000715,
          "velocity": 0.8110236220472441,
          "duration": 0.3150407291667108
        },
        {
          "name": "B4",
          "midi": 71,
          "time": 115.60978500000715,
          "velocity": 0.8110236220472441,
          "duration": 0.19817078125002752
        },
        {
          "name": "D#2",
          "midi": 39,
          "time": 115.60978500000715,
          "velocity": 1,
          "duration": 0.010162604166680467
        },
        {
          "name": "C5",
          "midi": 72,
          "time": 115.61486630209049,
          "velocity": 0.7874015748031497,
          "duration": 0.09654473958335075
        },
        {
          "name": "E5",
          "midi": 76,
          "time": 115.62502890625717,
          "velocity": 0.5039370078740157,
          "duration": 0.08638213541667028
        },
        {
          "name": "B5",
          "midi": 83,
          "time": 115.63011020834051,
          "velocity": 0.8818897637795275,
          "duration": 0.08130083333333005
        },
        {
          "name": "C5",
          "midi": 72,
          "time": 115.85368750000718,
          "velocity": 0.8503937007874016,
          "duration": 0.106707343750017
        },
        {
          "name": "C4",
          "midi": 60,
          "time": 115.85368750000718,
          "velocity": 0.5748031496062992,
          "duration": 0.421748072916742
        },
        {
          "name": "E4",
          "midi": 64,
          "time": 115.85368750000718,
          "velocity": 0.5433070866141733,
          "duration": 0.44715458333341473
        },
        {
          "name": "F#2",
          "midi": 42,
          "time": 115.85368750000718,
          "velocity": 0.47244094488188976,
          "duration": 0.010162604166666256
        },
        {
          "name": "C4",
          "midi": 60,
          "time": 115.85368750000718,
          "velocity": 0.5748031496062992,
          "duration": 0.421748072916742
        },
        {
          "name": "G4",
          "midi": 67,
          "time": 115.85368750000718,
          "velocity": 0.4094488188976378,
          "duration": 0.060975625000011746
        },
        {
          "name": "A3",
          "midi": 57,
          "time": 115.85368750000718,
          "velocity": 0.5984251968503937,
          "duration": 0.39634156250006924
        },
        {
          "name": "C5",
          "midi": 72,
          "time": 115.85368750000718,
          "velocity": 0.7952755905511811,
          "duration": 0.177845572916695
        },
        {
          "name": "C2",
          "midi": 36,
          "time": 115.85368750000718,
          "velocity": 0.5590551181102362,
          "duration": 0.1930894791667015
        },
        {
          "name": "E4",
          "midi": 64,
          "time": 115.85368750000718,
          "velocity": 0.5433070866141733,
          "duration": 0.5589432291667578
        },
        {
          "name": "D#2",
          "midi": 39,
          "time": 115.85368750000718,
          "velocity": 0.8661417322834646,
          "duration": 0.010162604166666256
        },
        {
          "name": "E5",
          "midi": 76,
          "time": 115.86385010417385,
          "velocity": 0.5590551181102362,
          "duration": 0.09146343750001051
        },
        {
          "name": "B5",
          "midi": 83,
          "time": 115.86893140625719,
          "velocity": 0.7559055118110236,
          "duration": 0.005081302083340233
        },
        {
          "name": "B5",
          "midi": 83,
          "time": 115.87401270834053,
          "velocity": 0.8818897637795275,
          "duration": 0.10162604166667677
        },
        {
          "name": "D2",
          "midi": 38,
          "time": 115.9756387500072,
          "velocity": 1,
          "duration": 0.010162604166666256
        },
        {
          "name": "G4",
          "midi": 67,
          "time": 116.08742739584055,
          "velocity": 0.5826771653543307,
          "duration": 0.09654473958335075
        },
        {
          "name": "C5",
          "midi": 72,
          "time": 116.09250869792389,
          "velocity": 0.8110236220472441,
          "duration": 0.106707343750017
        },
        {
          "name": "D2",
          "midi": 38,
          "time": 116.09759000000723,
          "velocity": 1,
          "duration": 0.010162604166666256
        },
        {
          "name": "E2",
          "midi": 40,
          "time": 116.09759000000723,
          "velocity": 0.8110236220472441,
          "duration": 0.28963421875003803
        },
        {
          "name": "B5",
          "midi": 83,
          "time": 116.09759000000723,
          "velocity": 0.8818897637795275,
          "duration": 0.12195125000002349
        },
        {
          "name": "E5",
          "midi": 76,
          "time": 116.09759000000723,
          "velocity": 0.6850393700787402,
          "duration": 0.11686994791668326
        },
        {
          "name": "B4",
          "midi": 71,
          "time": 116.09759000000723,
          "velocity": 0.7401574803149606,
          "duration": 0.6910570833334191
        },
        {
          "name": "D2",
          "midi": 38,
          "time": 116.21954125000725,
          "velocity": 1,
          "duration": 0.010162604166666256
        },
        {
          "name": "F#4",
          "midi": 66,
          "time": 116.32116729167393,
          "velocity": 0.3700787401574803,
          "duration": 0.010162604166666256
        },
        {
          "name": "E4",
          "midi": 64,
          "time": 116.34149250000726,
          "velocity": 0.49606299212598426,
          "duration": 0.071138229166678
        },
        {
          "name": "C5",
          "midi": 72,
          "time": 116.34149250000726,
          "velocity": 0.8110236220472441,
          "duration": 0.10162604166667677
        },
        {
          "name": "E4",
          "midi": 64,
          "time": 116.34149250000726,
          "velocity": 0.49606299212598426,
          "duration": 0.3252033333333628
        },
        {
          "name": "F#2",
          "midi": 42,
          "time": 116.34149250000726,
          "velocity": 0.47244094488188976,
          "duration": 0.010162604166666256
        },
        {
          "name": "D2",
          "midi": 38,
          "time": 116.34149250000726,
          "velocity": 0.9212598425196851,
          "duration": 0.010162604166666256
        },
        {
          "name": "C4",
          "midi": 60,
          "time": 116.34149250000726,
          "velocity": 0.47244094488188976,
          "duration": 0.071138229166678
        },
        {
          "name": "E5",
          "midi": 76,
          "time": 116.34149250000726,
          "velocity": 0.6614173228346457,
          "duration": 0.10162604166667677
        },
        {
          "name": "A3",
          "midi": 57,
          "time": 116.34149250000726,
          "velocity": 0.4330708661417323,
          "duration": 0.05589432291667151
        },
        {
          "name": "E2",
          "midi": 40,
          "time": 116.34149250000726,
          "velocity": 0.5590551181102362,
          "duration": 0.27947161458335756
        },
        {
          "name": "C4",
          "midi": 60,
          "time": 116.34149250000726,
          "velocity": 0.47244094488188976,
          "duration": 0.071138229166678
        },
        {
          "name": "G4",
          "midi": 67,
          "time": 116.34149250000726,
          "velocity": 0.5196850393700787,
          "duration": 0.09146343750001051
        },
        {
          "name": "B5",
          "midi": 83,
          "time": 116.35165510417393,
          "velocity": 0.8818897637795275,
          "duration": 0.12195125000000928
        },
        {
          "name": "D2",
          "midi": 38,
          "time": 116.46344375000727,
          "velocity": 1,
          "duration": 0.010162604166666256
        },
        {
          "name": "G4",
          "midi": 67,
          "time": 116.56506979167393,
          "velocity": 0.49606299212598426,
          "duration": 0.1371951562500442
        },
        {
          "name": "A3",
          "midi": 57,
          "time": 116.58539500000727,
          "velocity": 0.5196850393700787,
          "duration": 0.07113822916669221
        },
        {
          "name": "C5",
          "midi": 72,
          "time": 116.58539500000727,
          "velocity": 0.7559055118110236,
          "duration": 0.11686994791671168
        },
        {
          "name": "C2",
          "midi": 36,
          "time": 116.58539500000727,
          "velocity": 0.8110236220472441,
          "duration": 0.2743903125001026
        },
        {
          "name": "F#2",
          "midi": 42,
          "time": 116.58539500000727,
          "velocity": 0.5590551181102362,
          "duration": 0.2286585937500547
        },
        {
          "name": "C4",
          "midi": 60,
          "time": 116.58539500000727,
          "velocity": 0.4566929133858268,
          "duration": 0.07113822916669221
        },
        {
          "name": "E4",
          "midi": 64,
          "time": 116.58539500000727,
          "velocity": 0.5039370078740157,
          "duration": 0.08130083333335847
        },
        {
          "name": "D#2",
          "midi": 39,
          "time": 116.58539500000727,
          "velocity": 1,
          "duration": 0.010162604166666256
        },
        {
          "name": "E4",
          "midi": 64,
          "time": 116.58539500000727,
          "velocity": 0.5039370078740157,
          "duration": 0.12195125000005191
        },
        {
          "name": "C4",
          "midi": 60,
          "time": 116.58539500000727,
          "velocity": 0.4566929133858268,
          "duration": 0.07113822916669221
        },
        {
          "name": "E5",
          "midi": 76,
          "time": 116.60063890625727,
          "velocity": 0.6614173228346457,
          "duration": 0.10162604166670519
        },
        {
          "name": "B5",
          "midi": 83,
          "time": 116.60572020834061,
          "velocity": 0.8818897637795275,
          "duration": 0.09146343750002472
        },
        {
          "name": "D2",
          "midi": 38,
          "time": 116.70734625000732,
          "velocity": 0.4251968503937008,
          "duration": 0.010162604166666256
        },
        {
          "name": "G4",
          "midi": 67,
          "time": 116.81913489584066,
          "velocity": 0.3464566929133858,
          "duration": 0.025406510416701167
        },
        {
          "name": "D2",
          "midi": 38,
          "time": 116.82929750000734,
          "velocity": 0.8503937007874016,
          "duration": 0.010162604166680467
        },
        {
          "name": "F#2",
          "midi": 42,
          "time": 116.82929750000734,
          "velocity": 0.47244094488188976,
          "duration": 0.010162604166680467
        },
        {
          "name": "A4",
          "midi": 69,
          "time": 116.82929750000734,
          "velocity": 0.8661417322834646,
          "duration": 0.24390250000003277
        },
        {
          "name": "E2",
          "midi": 40,
          "time": 116.82929750000734,
          "velocity": 0.5590551181102362,
          "duration": 0.213414687500034
        },
        {
          "name": "C5",
          "midi": 72,
          "time": 116.82929750000734,
          "velocity": 0.84251968503937,
          "duration": 0.11686994791669747
        },
        {
          "name": "E5",
          "midi": 76,
          "time": 116.83437880209068,
          "velocity": 0.5748031496062992,
          "duration": 0.11686994791669747
        },
        {
          "name": "B5",
          "midi": 83,
          "time": 116.83946010417402,
          "velocity": 0.8818897637795275,
          "duration": 0.106707343750017
        },
        {
          "name": "D2",
          "midi": 38,
          "time": 116.95124875000738,
          "velocity": 1,
          "duration": 0.010162604166666256
        },
        {
          "name": "D2",
          "midi": 38,
          "time": 117.07320000000738,
          "velocity": 1,
          "duration": 0.010162604166666256
        },
        {
          "name": "C4",
          "midi": 60,
          "time": 117.07320000000738,
          "velocity": 0.5275590551181102,
          "duration": 0.07621953125000402
        },
        {
          "name": "E4",
          "midi": 64,
          "time": 117.07320000000738,
          "velocity": 0.6377952755905512,
          "duration": 0.08130083333334426
        },
        {
          "name": "C4",
          "midi": 60,
          "time": 117.07320000000738,
          "velocity": 0.5275590551181102,
          "duration": 0.07621953125000402
        },
        {
          "name": "E4",
          "midi": 64,
          "time": 117.07320000000738,
          "velocity": 0.5196850393700787,
          "duration": 0.08130083333334426
        },
        {
          "name": "A3",
          "midi": 57,
          "time": 117.07320000000738,
          "velocity": 0.5275590551181102,
          "duration": 0.06605692708333777
        },
        {
          "name": "A1",
          "midi": 33,
          "time": 117.07320000000738,
          "velocity": 0.5590551181102362,
          "duration": 0.27439031250004575
        },
        {
          "name": "E4",
          "midi": 64,
          "time": 117.07320000000738,
          "velocity": 0.5196850393700787,
          "duration": 0.9146343750001051
        },
        {
          "name": "G4",
          "midi": 67,
          "time": 117.07320000000738,
          "velocity": 0.6929133858267716,
          "duration": 0.11178864583334303
        },
        {
          "name": "A2",
          "midi": 45,
          "time": 117.07320000000738,
          "velocity": 0.7874015748031497,
          "duration": 0.3048781250000445
        },
        {
          "name": "E5",
          "midi": 76,
          "time": 117.08336260417404,
          "velocity": 0.8188976377952756,
          "duration": 0.13211385416667554
        },
        {
          "name": "C5",
          "midi": 72,
          "time": 117.08336260417404,
          "velocity": 0.8267716535433071,
          "duration": 0.11178864583334303
        },
        {
          "name": "B5",
          "midi": 83,
          "time": 117.09352520834071,
          "velocity": 0.8818897637795275,
          "duration": 0.12195125000000928
        },
        {
          "name": "A1",
          "midi": 33,
          "time": 117.13417562500737,
          "velocity": 0.5984251968503937,
          "duration": 0.3556911458333758
        },
        {
          "name": "D2",
          "midi": 38,
          "time": 117.19515125000738,
          "velocity": 1,
          "duration": 0.010162604166666256
        },
        {
          "name": "F#4",
          "midi": 66,
          "time": 117.31202119792405,
          "velocity": 0.28346456692913385,
          "duration": 0.005081302083340233
        },
        {
          "name": "G4",
          "midi": 67,
          "time": 117.3171025000074,
          "velocity": 0.49606299212598426,
          "duration": 0.08130083333335847
        },
        {
          "name": "A4",
          "midi": 69,
          "time": 117.3171025000074,
          "velocity": 0.9606299212598425,
          "duration": 0.17276427083335477
        },
        {
          "name": "D2",
          "midi": 38,
          "time": 117.3171025000074,
          "velocity": 0.9212598425196851,
          "duration": 0.010162604166680467
        },
        {
          "name": "F#2",
          "midi": 42,
          "time": 117.3171025000074,
          "velocity": 0.47244094488188976,
          "duration": 0.010162604166680467
        },
        {
          "name": "C5",
          "midi": 72,
          "time": 117.32218380209073,
          "velocity": 0.8503937007874016,
          "duration": 0.106707343750017
        },
        {
          "name": "E5",
          "midi": 76,
          "time": 117.32726510417407,
          "velocity": 0.6456692913385826,
          "duration": 0.13211385416667554
        },
        {
          "name": "B5",
          "midi": 83,
          "time": 117.33234640625741,
          "velocity": 0.8582677165354331,
          "duration": 0.11686994791666905
        },
        {
          "name": "D2",
          "midi": 38,
          "time": 117.43905375000742,
          "velocity": 1,
          "duration": 0.010162604166666256
        },
        {
          "name": "G4",
          "midi": 67,
          "time": 117.55592369792409,
          "velocity": 0.48031496062992124,
          "duration": 0.0152439062500207
        },
        {
          "name": "C5",
          "midi": 72,
          "time": 117.56100500000743,
          "velocity": 0.8267716535433071,
          "duration": 0.11686994791668326
        },
        {
          "name": "B4",
          "midi": 71,
          "time": 117.56100500000743,
          "velocity": 0.7874015748031497,
          "duration": 0.20325208333335354
        },
        {
          "name": "D#2",
          "midi": 39,
          "time": 117.56100500000743,
          "velocity": 1,
          "duration": 0.010162604166680467
        },
        {
          "name": "C2",
          "midi": 36,
          "time": 117.56100500000743,
          "velocity": 0.84251968503937,
          "duration": 0.3252033333333628
        },
        {
          "name": "E5",
          "midi": 76,
          "time": 117.56608630209077,
          "velocity": 0.6377952755905512,
          "duration": 0.11178864583334303
        },
        {
          "name": "B5",
          "midi": 83,
          "time": 117.57116760417411,
          "velocity": 0.8818897637795275,
          "duration": 0.11686994791666905
        },
        {
          "name": "G4",
          "midi": 67,
          "time": 117.79474489584078,
          "velocity": 0.5826771653543307,
          "duration": 0.11686994791668326
        },
        {
          "name": "C5",
          "midi": 72,
          "time": 117.79982619792412,
          "velocity": 0.7637795275590551,
          "duration": 0.12195125000002349
        },
        {
          "name": "C4",
          "midi": 60,
          "time": 117.80490750000746,
          "velocity": 0.6220472440944882,
          "duration": 0.3658537500000847
        },
        {
          "name": "E5",
          "midi": 76,
          "time": 117.80490750000746,
          "velocity": 0.6141732283464567,
          "duration": 0.10670734375000279
        },
        {
          "name": "D#2",
          "midi": 39,
          "time": 117.80490750000746,
          "velocity": 0.8661417322834646,
          "duration": 0.010162604166666256
        },
        {
          "name": "C4",
          "midi": 60,
          "time": 117.80490750000746,
          "velocity": 0.6220472440944882,
          "duration": 0.3658537500000847
        },
        {
          "name": "C5",
          "midi": 72,
          "time": 117.80490750000746,
          "velocity": 0.8346456692913385,
          "duration": 0.19817078125002752
        },
        {
          "name": "F#2",
          "midi": 42,
          "time": 117.80490750000746,
          "velocity": 0.47244094488188976,
          "duration": 0.010162604166666256
        },
        {
          "name": "E4",
          "midi": 64,
          "time": 117.80490750000746,
          "velocity": 0.6220472440944882,
          "duration": 0.3709350520834249
        },
        {
          "name": "A3",
          "midi": 57,
          "time": 117.80490750000746,
          "velocity": 0.5748031496062992,
          "duration": 0.34552854166673796
        },
        {
          "name": "E4",
          "midi": 64,
          "time": 117.80490750000746,
          "velocity": 0.6220472440944882,
          "duration": 0.3709350520834249
        },
        {
          "name": "C2",
          "midi": 36,
          "time": 117.80490750000746,
          "velocity": 0.5590551181102362,
          "duration": 0.213414687500034
        },
        {
          "name": "B5",
          "midi": 83,
          "time": 117.81507010417413,
          "velocity": 0.8346456692913385,
          "duration": 0.10162604166667677
        },
        {
          "name": "D2",
          "midi": 38,
          "time": 117.92685875000748,
          "velocity": 1,
          "duration": 0.010162604166666256
        },
        {
          "name": "G4",
          "midi": 67,
          "time": 118.04372869792417,
          "velocity": 0.5590551181102362,
          "duration": 0.11178864583337145
        },
        {
          "name": "E2",
          "midi": 40,
          "time": 118.0488100000075,
          "velocity": 0.7559055118110236,
          "duration": 0.32012203125009364
        },
        {
          "name": "B4",
          "midi": 71,
          "time": 118.0488100000075,
          "velocity": 0.8110236220472441,
          "duration": 0.5436993229167655
        },
        {
          "name": "D2",
          "midi": 38,
          "time": 118.0488100000075,
          "velocity": 1,
          "duration": 0.010162604166680467
        },
        {
          "name": "C5",
          "midi": 72,
          "time": 118.05389130209085,
          "velocity": 0.8110236220472441,
          "duration": 0.09654473958335075
        },
        {
          "name": "E5",
          "midi": 76,
          "time": 118.06405390625753,
          "velocity": 0.6692913385826772,
          "duration": 0.09654473958335075
        },
        {
          "name": "B5",
          "midi": 83,
          "time": 118.06913520834087,
          "velocity": 0.7322834645669292,
          "duration": 0.010162604166666256
        },
        {
          "name": "B5",
          "midi": 83,
          "time": 118.07929781250753,
          "velocity": 0.8818897637795275,
          "duration": 0.07113822916666379
        },
        {
          "name": "D2",
          "midi": 38,
          "time": 118.17076125000754,
          "velocity": 1,
          "duration": 0.010162604166680467
        },
        {
          "name": "G4",
          "midi": 67,
          "time": 118.27746859375756,
          "velocity": 0.5275590551181102,
          "duration": 0.08130083333335847
        },
        {
          "name": "C5",
          "midi": 72,
          "time": 118.2825498958409,
          "velocity": 0.7559055118110236,
          "duration": 0.08130083333335847
        },
        {
          "name": "E5",
          "midi": 76,
          "time": 118.28763119792424,
          "velocity": 0.6377952755905512,
          "duration": 0.09146343750002472
        },
        {
          "name": "F#2",
          "midi": 42,
          "time": 118.29271250000758,
          "velocity": 0.47244094488188976,
          "duration": 0.010162604166666256
        },
        {
          "name": "A3",
          "midi": 57,
          "time": 118.29271250000758,
          "velocity": 0.49606299212598426,
          "duration": 0.060975624999997535
        },
        {
          "name": "B5",
          "midi": 83,
          "time": 118.29271250000758,
          "velocity": 0.7874015748031497,
          "duration": 0.020325208333332512
        },
        {
          "name": "E2",
          "midi": 40,
          "time": 118.29271250000758,
          "velocity": 0.5590551181102362,
          "duration": 0.2997968229166901
        },
        {
          "name": "C4",
          "midi": 60,
          "time": 118.29271250000758,
          "velocity": 0.5590551181102362,
          "duration": 0.06605692708333777
        },
        {
          "name": "D2",
          "midi": 38,
          "time": 118.29271250000758,
          "velocity": 0.9212598425196851,
          "duration": 0.010162604166666256
        },
        {
          "name": "E4",
          "midi": 64,
          "time": 118.29271250000758,
          "velocity": 0.5196850393700787,
          "duration": 0.06605692708333777
        },
        {
          "name": "E4",
          "midi": 64,
          "time": 118.29271250000758,
          "velocity": 0.5196850393700787,
          "duration": 0.06605692708333777
        },
        {
          "name": "C4",
          "midi": 60,
          "time": 118.29271250000758,
          "velocity": 0.5590551181102362,
          "duration": 0.06605692708333777
        },
        {
          "name": "B5",
          "midi": 83,
          "time": 118.32320031250758,
          "velocity": 0.8818897637795275,
          "duration": 0.07113822916669221
        },
        {
          "name": "D2",
          "midi": 38,
          "time": 118.4146637500076,
          "velocity": 1,
          "duration": 0.010162604166666256
        },
        {
          "name": "G4",
          "midi": 67,
          "time": 118.51628979167427,
          "velocity": 0.5039370078740157,
          "duration": 0.10162604166667677
        },
        {
          "name": "C4",
          "midi": 60,
          "time": 118.5366150000076,
          "velocity": 0.5748031496062992,
          "duration": 0.09654473958335075
        },
        {
          "name": "E4",
          "midi": 64,
          "time": 118.5366150000076,
          "velocity": 0.5748031496062992,
          "duration": 0.10670734375003121
        },
        {
          "name": "D5",
          "midi": 74,
          "time": 118.5366150000076,
          "velocity": 0.889763779527559,
          "duration": 0.44715458333345737
        },
        {
          "name": "F#2",
          "midi": 42,
          "time": 118.5366150000076,
          "velocity": 0.5590551181102362,
          "duration": 0.24898380208341564
        },
        {
          "name": "E4",
          "midi": 64,
          "time": 118.5366150000076,
          "velocity": 0.5748031496062992,
          "duration": 0.10670734375003121
        },
        {
          "name": "C5",
          "midi": 72,
          "time": 118.5366150000076,
          "velocity": 0.7716535433070866,
          "duration": 0.09654473958335075
        },
        {
          "name": "A3",
          "midi": 57,
          "time": 118.5366150000076,
          "velocity": 0.5590551181102362,
          "duration": 0.09654473958335075
        },
        {
          "name": "C2",
          "midi": 36,
          "time": 118.5366150000076,
          "velocity": 0.7244094488188977,
          "duration": 0.1930894791667157
        },
        {
          "name": "C4",
          "midi": 60,
          "time": 118.5366150000076,
          "velocity": 0.5748031496062992,
          "duration": 0.09654473958335075
        },
        {
          "name": "D#2",
          "midi": 39,
          "time": 118.5366150000076,
          "velocity": 1,
          "duration": 0.010162604166666256
        },
        {
          "name": "E5",
          "midi": 76,
          "time": 118.5518589062576,
          "velocity": 0.6929133858267716,
          "duration": 0.08638213541668449
        },
        {
          "name": "B5",
          "midi": 83,
          "time": 118.56202151042427,
          "velocity": 0.8818897637795275,
          "duration": 0.10162604166670519
        },
        {
          "name": "D2",
          "midi": 38,
          "time": 118.65856625000764,
          "velocity": 0.4251968503937008,
          "duration": 0.010162604166680467
        },
        {
          "name": "G#4",
          "midi": 68,
          "time": 118.76527359375766,
          "velocity": 0.3464566929133858,
          "duration": 0.010162604166680467
        },
        {
          "name": "D2",
          "midi": 38,
          "time": 118.78051750000768,
          "velocity": 0.8503937007874016,
          "duration": 0.010162604166680467
        },
        {
          "name": "E2",
          "midi": 40,
          "time": 118.78051750000768,
          "velocity": 0.5590551181102362,
          "duration": 0.18800817708337547
        },
        {
          "name": "F#2",
          "midi": 42,
          "time": 118.78051750000768,
          "velocity": 0.47244094488188976,
          "duration": 0.010162604166680467
        },
        {
          "name": "G4",
          "midi": 67,
          "time": 118.78051750000768,
          "velocity": 0.4094488188976378,
          "duration": 0.10670734375003121
        },
        {
          "name": "C5",
          "midi": 72,
          "time": 118.78559880209102,
          "velocity": 0.7637795275590551,
          "duration": 0.10670734375003121
        },
        {
          "name": "E5",
          "midi": 76,
          "time": 118.79068010417436,
          "velocity": 0.5590551181102362,
          "duration": 0.08130083333334426
        },
        {
          "name": "B5",
          "midi": 83,
          "time": 118.7957614062577,
          "velocity": 0.7637795275590551,
          "duration": 0.11686994791668326
        },
        {
          "name": "D2",
          "midi": 38,
          "time": 118.90246875000771,
          "velocity": 1,
          "duration": 0.010162604166666256
        },
        {
          "name": "E4",
          "midi": 64,
          "time": 119.02442000000772,
          "velocity": 0.5039370078740157,
          "duration": 0.08638213541668449
        },
        {
          "name": "E1",
          "midi": 28,
          "time": 119.02442000000772,
          "velocity": 0.5590551181102362,
          "duration": 0.2743903125001026
        },
        {
          "name": "B3",
          "midi": 59,
          "time": 119.02442000000772,
          "velocity": 0.5984251968503937,
          "duration": 0.071138229166678
        },
        {
          "name": "G#3",
          "midi": 56,
          "time": 119.02442000000772,
          "velocity": 0.5196850393700787,
          "duration": 0.071138229166678
        },
        {
          "name": "E2",
          "midi": 40,
          "time": 119.02442000000772,
          "velocity": 0.8110236220472441,
          "duration": 0.4878050000001224
        },
        {
          "name": "E4",
          "midi": 64,
          "time": 119.02442000000772,
          "velocity": 0.5039370078740157,
          "duration": 0.08638213541668449
        },
        {
          "name": "D2",
          "midi": 38,
          "time": 119.02442000000772,
          "velocity": 1,
          "duration": 0.010162604166666256
        },
        {
          "name": "D5",
          "midi": 74,
          "time": 119.03966390625773,
          "velocity": 0.7874015748031497,
          "duration": 0.11178864583335724
        },
        {
          "name": "G#5",
          "midi": 80,
          "time": 119.04474520834107,
          "velocity": 0.937007874015748,
          "duration": 0.13719515625002998
        },
        {
          "name": "D2",
          "midi": 38,
          "time": 119.14637125000775,
          "velocity": 1,
          "duration": 0.010162604166680467
        },
        {
          "name": "B4",
          "midi": 71,
          "time": 119.26324119792446,
          "velocity": 0.7716535433070866,
          "duration": 0.12703255208336373
        },
        {
          "name": "F#2",
          "midi": 42,
          "time": 119.2683225000078,
          "velocity": 0.47244094488188976,
          "duration": 0.010162604166680467
        },
        {
          "name": "D2",
          "midi": 38,
          "time": 119.2683225000078,
          "velocity": 0.9212598425196851,
          "duration": 0.010162604166680467
        },
        {
          "name": "D5",
          "midi": 74,
          "time": 119.27340380209114,
          "velocity": 0.8031496062992126,
          "duration": 0.106707343750017
        },
        {
          "name": "G#5",
          "midi": 80,
          "time": 119.28356640625782,
          "velocity": 0.937007874015748,
          "duration": 0.11178864583334303
        },
        {
          "name": "D2",
          "midi": 38,
          "time": 119.39027375000782,
          "velocity": 1,
          "duration": 0.010162604166680467
        },
        {
          "name": "B4",
          "midi": 71,
          "time": 119.5071436979245,
          "velocity": 0.7401574803149606,
          "duration": 0.12703255208334951
        },
        {
          "name": "D#2",
          "midi": 39,
          "time": 119.51222500000785,
          "velocity": 1,
          "duration": 0.010162604166666256
        },
        {
          "name": "G#5",
          "midi": 80,
          "time": 119.52238760417451,
          "velocity": 0.8976377952755905,
          "duration": 0.11686994791668326
        },
        {
          "name": "D5",
          "midi": 74,
          "time": 119.52238760417451,
          "velocity": 0.7244094488188977,
          "duration": 0.09654473958333654
        },
        {
          "name": "B4",
          "midi": 71,
          "time": 119.75104619792452,
          "velocity": 0.8976377952755905,
          "duration": 0.106707343750017
        },
        {
          "name": "B3",
          "midi": 59,
          "time": 119.75612750000786,
          "velocity": 0.6220472440944882,
          "duration": 0.40142286458339527
        },
        {
          "name": "E4",
          "midi": 64,
          "time": 119.75612750000786,
          "velocity": 0.5748031496062992,
          "duration": 0.391260260416729
        },
        {
          "name": "G#1",
          "midi": 32,
          "time": 119.75612750000786,
          "velocity": 0.5590551181102362,
          "duration": 0.2134146875000198
        },
        {
          "name": "E4",
          "midi": 64,
          "time": 119.75612750000786,
          "velocity": 0.5748031496062992,
          "duration": 0.391260260416729
        },
        {
          "name": "G#2",
          "midi": 44,
          "time": 119.75612750000786,
          "velocity": 0.6850393700787402,
          "duration": 0.3201220312500368
        },
        {
          "name": "G#3",
          "midi": 56,
          "time": 119.75612750000786,
          "velocity": 0.5039370078740157,
          "duration": 0.4065041666667355
        },
        {
          "name": "D#2",
          "midi": 39,
          "time": 119.75612750000786,
          "velocity": 0.8661417322834646,
          "duration": 0.010162604166680467
        },
        {
          "name": "F#2",
          "midi": 42,
          "time": 119.75612750000786,
          "velocity": 0.47244094488188976,
          "duration": 0.010162604166680467
        },
        {
          "name": "D5",
          "midi": 74,
          "time": 119.7612088020912,
          "velocity": 0.8267716535433071,
          "duration": 0.09654473958333654
        },
        {
          "name": "G#5",
          "midi": 80,
          "time": 119.76629010417454,
          "velocity": 0.937007874015748,
          "duration": 0.10670734375000279
        },
        {
          "name": "D2",
          "midi": 38,
          "time": 119.87807875000789,
          "velocity": 1,
          "duration": 0.010162604166666256
        },
        {
          "name": "D3",
          "midi": 50,
          "time": 119.96954218750788,
          "velocity": 0.7244094488188977,
          "duration": 0.005081302083340233
        },
        {
          "name": "B4",
          "midi": 71,
          "time": 119.99494869792456,
          "velocity": 0.7401574803149606,
          "duration": 0.12703255208334951
        },
        {
          "name": "D2",
          "midi": 38,
          "time": 120.0000300000079,
          "velocity": 1,
          "duration": 0.010162604166666256
        },
        {
          "name": "D5",
          "midi": 74,
          "time": 120.01019260417456,
          "velocity": 0.7244094488188977,
          "duration": 0.09654473958333654
        },
        {
          "name": "G#5",
          "midi": 80,
          "time": 120.01019260417456,
          "velocity": 0.8976377952755905,
          "duration": 0.11686994791668326
        },
        {
          "name": "D2",
          "midi": 38,
          "time": 120.1219812500079,
          "velocity": 1,
          "duration": 0.010162604166680467
        },
        {
          "name": "B4",
          "midi": 71,
          "time": 120.23885119792462,
          "velocity": 0.8976377952755905,
          "duration": 0.10670734375003121
        },
        {
          "name": "E4",
          "midi": 64,
          "time": 120.24393250000796,
          "velocity": 0.48031496062992124,
          "duration": 0.10162604166669098
        },
        {
          "name": "F#2",
          "midi": 42,
          "time": 120.24393250000796,
          "velocity": 0.47244094488188976,
          "duration": 0.010162604166680467
        },
        {
          "name": "G#3",
          "midi": 56,
          "time": 120.24393250000796,
          "velocity": 0.4881889763779528,
          "duration": 0.07621953125001824
        },
        {
          "name": "D2",
          "midi": 38,
          "time": 120.24393250000796,
          "velocity": 0.9212598425196851,
          "duration": 0.010162604166680467
        },
        {
          "name": "B2",
          "midi": 47,
          "time": 120.24393250000796,
          "velocity": 0.6062992125984252,
          "duration": 0.13211385416670396
        },
        {
          "name": "E6",
          "midi": 88,
          "time": 120.24393250000796,
          "velocity": 0.5669291338582677,
          "duration": 0.040650416666679234
        },
        {
          "name": "B3",
          "midi": 59,
          "time": 120.24393250000796,
          "velocity": 0.5275590551181102,
          "duration": 0.08638213541668449
        },
        {
          "name": "B1",
          "midi": 35,
          "time": 120.24393250000796,
          "velocity": 0.5590551181102362,
          "duration": 0.2997968229167185
        },
        {
          "name": "E4",
          "midi": 64,
          "time": 120.24393250000796,
          "velocity": 0.48031496062992124,
          "duration": 0.10162604166669098
        },
        {
          "name": "D5",
          "midi": 74,
          "time": 120.2490138020913,
          "velocity": 0.8267716535433071,
          "duration": 0.09654473958335075
        },
        {
          "name": "G#5",
          "midi": 80,
          "time": 120.25409510417464,
          "velocity": 0.937007874015748,
          "duration": 0.106707343750017
        },
        {
          "name": "D2",
          "midi": 38,
          "time": 120.365883750008,
          "velocity": 1,
          "duration": 0.010162604166666256
        },
        {
          "name": "B4",
          "midi": 71,
          "time": 120.48275369792466,
          "velocity": 0.7401574803149606,
          "duration": 0.12703255208334951
        },
        {
          "name": "B3",
          "midi": 59,
          "time": 120.487835000008,
          "velocity": 0.49606299212598426,
          "duration": 0.05589432291667151
        },
        {
          "name": "D3",
          "midi": 50,
          "time": 120.487835000008,
          "velocity": 0.6062992125984252,
          "duration": 0.19308947916668728
        },
        {
          "name": "G#3",
          "midi": 56,
          "time": 120.487835000008,
          "velocity": 0.4409448818897638,
          "duration": 0.05589432291667151
        },
        {
          "name": "D#2",
          "midi": 39,
          "time": 120.487835000008,
          "velocity": 1,
          "duration": 0.010162604166666256
        },
        {
          "name": "E4",
          "midi": 64,
          "time": 120.487835000008,
          "velocity": 0.2047244094488189,
          "duration": 0.035569114583339
        },
        {
          "name": "D2",
          "midi": 38,
          "time": 120.487835000008,
          "velocity": 0.5590551181102362,
          "duration": 0.13211385416668975
        },
        {
          "name": "E4",
          "midi": 64,
          "time": 120.487835000008,
          "velocity": 0.2047244094488189,
          "duration": 0.035569114583339
        },
        {
          "name": "B4",
          "midi": 71,
          "time": 120.487835000008,
          "velocity": 0.984251968503937,
          "duration": 0.2337398958333523
        },
        {
          "name": "G#5",
          "midi": 80,
          "time": 120.49799760417467,
          "velocity": 0.8976377952755905,
          "duration": 0.11686994791668326
        },
        {
          "name": "D5",
          "midi": 74,
          "time": 120.49799760417467,
          "velocity": 0.7244094488188977,
          "duration": 0.09654473958333654
        },
        {
          "name": "D2",
          "midi": 38,
          "time": 120.60978625000801,
          "velocity": 0.4251968503937008,
          "duration": 0.12703255208336373
        },
        {
          "name": "B4",
          "midi": 71,
          "time": 120.7266561979247,
          "velocity": 0.8976377952755905,
          "duration": 0.106707343750017
        },
        {
          "name": "B2",
          "midi": 47,
          "time": 120.73173750000804,
          "velocity": 0.5196850393700787,
          "duration": 0.1575203645833625
        },
        {
          "name": "D2",
          "midi": 38,
          "time": 120.73173750000804,
          "velocity": 0.8503937007874016,
          "duration": 0.010162604166680467
        },
        {
          "name": "B1",
          "midi": 35,
          "time": 120.73173750000804,
          "velocity": 0.5590551181102362,
          "duration": 0.18800817708336126
        },
        {
          "name": "F#2",
          "midi": 42,
          "time": 120.73173750000804,
          "velocity": 0.47244094488188976,
          "duration": 0.010162604166680467
        },
        {
          "name": "C5",
          "midi": 72,
          "time": 120.73173750000804,
          "velocity": 0.6771653543307087,
          "duration": 0.1575203645833625
        },
        {
          "name": "D5",
          "midi": 74,
          "time": 120.73681880209138,
          "velocity": 0.8267716535433071,
          "duration": 0.09654473958333654
        },
        {
          "name": "D3",
          "midi": 50,
          "time": 120.73681880209138,
          "velocity": 0.7244094488188977,
          "duration": 0.005081302083340233
        },
        {
          "name": "G#5",
          "midi": 80,
          "time": 120.74190010417472,
          "velocity": 0.937007874015748,
          "duration": 0.10670734375000279
        },
        {
          "name": "D2",
          "midi": 38,
          "time": 120.85368875000806,
          "velocity": 1,
          "duration": 0.010162604166666256
        },
        {
          "name": "B4",
          "midi": 71,
          "time": 120.97055869792473,
          "velocity": 0.7401574803149606,
          "duration": 0.12703255208337794
        },
        {
          "name": "E2",
          "midi": 40,
          "time": 120.97564000000807,
          "velocity": 0.8110236220472441,
          "duration": 0.48780500000009397
        },
        {
          "name": "E1",
          "midi": 28,
          "time": 120.97564000000807,
          "velocity": 0.5590551181102362,
          "duration": 0.2743903125000742
        },
        {
          "name": "D5",
          "midi": 74,
          "time": 120.97564000000807,
          "velocity": 0.7165354330708661,
          "duration": 0.10670734375003121
        },
        {
          "name": "D2",
          "midi": 38,
          "time": 120.97564000000807,
          "velocity": 1,
          "duration": 0.010162604166666256
        },
        {
          "name": "E4",
          "midi": 64,
          "time": 120.97564000000807,
          "velocity": 0.4409448818897638,
          "duration": 0.0863821354166987
        },
        {
          "name": "B3",
          "midi": 59,
          "time": 120.97564000000807,
          "velocity": 0.41732283464566927,
          "duration": 0.07621953125003245
        },
        {
          "name": "G#3",
          "midi": 56,
          "time": 120.97564000000807,
          "velocity": 0.4330708661417323,
          "duration": 0.06605692708336619
        },
        {
          "name": "E4",
          "midi": 64,
          "time": 120.97564000000807,
          "velocity": 0.4409448818897638,
          "duration": 0.0863821354166987
        },
        {
          "name": "D5",
          "midi": 74,
          "time": 120.98580260417474,
          "velocity": 0.7244094488188977,
          "duration": 0.3150407291667392
        },
        {
          "name": "G#5",
          "midi": 80,
          "time": 120.98580260417474,
          "velocity": 0.8976377952755905,
          "duration": 0.11686994791671168
        },
        {
          "name": "D2",
          "midi": 38,
          "time": 121.09759125000811,
          "velocity": 1,
          "duration": 0.010162604166680467
        },
        {
          "name": "B4",
          "midi": 71,
          "time": 121.21446119792479,
          "velocity": 0.8976377952755905,
          "duration": 0.106707343750017
        },
        {
          "name": "D2",
          "midi": 38,
          "time": 121.21954250000813,
          "velocity": 0.9212598425196851,
          "duration": 0.010162604166680467
        },
        {
          "name": "F#2",
          "midi": 42,
          "time": 121.21954250000813,
          "velocity": 0.47244094488188976,
          "duration": 0.010162604166680467
        },
        {
          "name": "D5",
          "midi": 74,
          "time": 121.22462380209147,
          "velocity": 0.8267716535433071,
          "duration": 0.09654473958333654
        },
        {
          "name": "G#5",
          "midi": 80,
          "time": 121.22970510417481,
          "velocity": 0.937007874015748,
          "duration": 0.10670734375000279
        },
        {
          "name": "D2",
          "midi": 38,
          "time": 121.34149375000815,
          "velocity": 1,
          "duration": 0.010162604166666256
        },
        {
          "name": "B4",
          "midi": 71,
          "time": 121.45836369792482,
          "velocity": 0.7401574803149606,
          "duration": 0.12703255208336373
        },
        {
          "name": "D#2",
          "midi": 39,
          "time": 121.46344500000816,
          "velocity": 1,
          "duration": 0.010162604166666256
        },
        {
          "name": "D5",
          "midi": 74,
          "time": 121.46344500000816,
          "velocity": 0.8661417322834646,
          "duration": 0.106707343750017
        },
        {
          "name": "G#5",
          "midi": 80,
          "time": 121.47360760417483,
          "velocity": 0.8976377952755905,
          "duration": 0.11686994791669747
        },
        {
          "name": "D5",
          "midi": 74,
          "time": 121.47360760417483,
          "velocity": 0.7244094488188977,
          "duration": 0.22357729166670026
        },
        {
          "name": "B4",
          "midi": 71,
          "time": 121.70226619792487,
          "velocity": 0.8976377952755905,
          "duration": 0.106707343750017
        },
        {
          "name": "F#2",
          "midi": 42,
          "time": 121.70734750000821,
          "velocity": 0.47244094488188976,
          "duration": 0.010162604166680467
        },
        {
          "name": "E5",
          "midi": 76,
          "time": 121.70734750000821,
          "velocity": 0.8661417322834646,
          "duration": 0.23373989583336652
        },
        {
          "name": "E4",
          "midi": 64,
          "time": 121.70734750000821,
          "velocity": 0.5196850393700787,
          "duration": 0.3912602604167432
        },
        {
          "name": "E4",
          "midi": 64,
          "time": 121.70734750000821,
          "velocity": 0.5196850393700787,
          "duration": 0.3912602604167432
        },
        {
          "name": "G#3",
          "midi": 56,
          "time": 121.70734750000821,
          "velocity": 0.5748031496062992,
          "duration": 0.36585375000005627
        },
        {
          "name": "D#2",
          "midi": 39,
          "time": 121.70734750000821,
          "velocity": 0.8661417322834646,
          "duration": 0.010162604166680467
        },
        {
          "name": "B3",
          "midi": 59,
          "time": 121.70734750000821,
          "velocity": 0.5433070866141733,
          "duration": 0.36585375000005627
        },
        {
          "name": "G#1",
          "midi": 32,
          "time": 121.70734750000821,
          "velocity": 0.5590551181102362,
          "duration": 0.2134146875000198
        },
        {
          "name": "G#2",
          "midi": 44,
          "time": 121.70734750000821,
          "velocity": 0.6850393700787402,
          "duration": 0.320122031250051
        },
        {
          "name": "D5",
          "midi": 74,
          "time": 121.71242880209155,
          "velocity": 0.8267716535433071,
          "duration": 0.09654473958333654
        },
        {
          "name": "G#5",
          "midi": 80,
          "time": 121.71751010417489,
          "velocity": 0.937007874015748,
          "duration": 0.10670734375000279
        },
        {
          "name": "D2",
          "midi": 38,
          "time": 121.82929875000823,
          "velocity": 1,
          "duration": 0.010162604166666256
        },
        {
          "name": "D3",
          "midi": 50,
          "time": 121.9309247916749,
          "velocity": 0.7244094488188977,
          "duration": 0.005081302083340233
        },
        {
          "name": "B4",
          "midi": 71,
          "time": 121.94616869792492,
          "velocity": 0.7401574803149606,
          "duration": 0.12703255208334951
        },
        {
          "name": "D5",
          "midi": 74,
          "time": 121.95125000000826,
          "velocity": 0.8346456692913385,
          "duration": 0.10670734375000279
        },
        {
          "name": "D2",
          "midi": 38,
          "time": 121.95125000000826,
          "velocity": 1,
          "duration": 0.010162604166666256
        },
        {
          "name": "D5",
          "midi": 74,
          "time": 121.96141260417492,
          "velocity": 0.7244094488188977,
          "duration": 0.23373989583336652
        },
        {
          "name": "G#5",
          "midi": 80,
          "time": 121.96141260417492,
          "velocity": 0.8976377952755905,
          "duration": 0.11686994791668326
        },
        {
          "name": "D2",
          "midi": 38,
          "time": 122.07320125000827,
          "velocity": 1,
          "duration": 0.010162604166680467
        },
        {
          "name": "B4",
          "midi": 71,
          "time": 122.19007119792495,
          "velocity": 0.8976377952755905,
          "duration": 0.10670734375003121
        },
        {
          "name": "B1",
          "midi": 35,
          "time": 122.19515250000829,
          "velocity": 0.5590551181102362,
          "duration": 0.2997968229167185
        },
        {
          "name": "B3",
          "midi": 59,
          "time": 122.19515250000829,
          "velocity": 0.5433070866141733,
          "duration": 0.055894322916685724
        },
        {
          "name": "E4",
          "midi": 64,
          "time": 122.19515250000829,
          "velocity": 0.49606299212598426,
          "duration": 0.07113822916669221
        },
        {
          "name": "C5",
          "midi": 72,
          "time": 122.19515250000829,
          "velocity": 0.7165354330708661,
          "duration": 0.1219512500000377
        },
        {
          "name": "E4",
          "midi": 64,
          "time": 122.19515250000829,
          "velocity": 0.49606299212598426,
          "duration": 0.07113822916669221
        },
        {
          "name": "G#3",
          "midi": 56,
          "time": 122.19515250000829,
          "velocity": 0.49606299212598426,
          "duration": 0.06097562500002596
        },
        {
          "name": "B2",
          "midi": 47,
          "time": 122.19515250000829,
          "velocity": 0.6062992125984252,
          "duration": 0.13211385416670396
        },
        {
          "name": "D2",
          "midi": 38,
          "time": 122.19515250000829,
          "velocity": 0.9212598425196851,
          "duration": 0.010162604166680467
        },
        {
          "name": "F#2",
          "midi": 42,
          "time": 122.19515250000829,
          "velocity": 0.47244094488188976,
          "duration": 0.010162604166680467
        },
        {
          "name": "D5",
          "midi": 74,
          "time": 122.20023380209163,
          "velocity": 0.8267716535433071,
          "duration": 0.09654473958335075
        },
        {
          "name": "G#5",
          "midi": 80,
          "time": 122.20531510417497,
          "velocity": 0.937007874015748,
          "duration": 0.106707343750017
        },
        {
          "name": "D2",
          "midi": 38,
          "time": 122.31710375000833,
          "velocity": 1,
          "duration": 0.010162604166666256
        },
        {
          "name": "B4",
          "midi": 71,
          "time": 122.433973697925,
          "velocity": 0.7401574803149606,
          "duration": 0.12703255208334951
        },
        {
          "name": "B3",
          "midi": 59,
          "time": 122.43905500000834,
          "velocity": 0.5748031496062992,
          "duration": 0.05081302083333128
        },
        {
          "name": "D3",
          "midi": 50,
          "time": 122.43905500000834,
          "velocity": 0.6062992125984252,
          "duration": 0.19308947916668728
        },
        {
          "name": "D#2",
          "midi": 39,
          "time": 122.43905500000834,
          "velocity": 1,
          "duration": 0.010162604166666256
        },
        {
          "name": "E4",
          "midi": 64,
          "time": 122.43905500000834,
          "velocity": 0.4881889763779528,
          "duration": 0.06605692708333777
        },
        {
          "name": "B4",
          "midi": 71,
          "time": 122.43905500000834,
          "velocity": 0.8031496062992126,
          "duration": 0.23882119791669254
        },
        {
          "name": "E4",
          "midi": 64,
          "time": 122.43905500000834,
          "velocity": 0.4881889763779528,
          "duration": 0.06605692708333777
        },
        {
          "name": "D2",
          "midi": 38,
          "time": 122.43905500000834,
          "velocity": 0.5590551181102362,
          "duration": 0.13211385416668975
        },
        {
          "name": "G#3",
          "midi": 56,
          "time": 122.43905500000834,
          "velocity": 0.47244094488188976,
          "duration": 0.05081302083333128
        },
        {
          "name": "D5",
          "midi": 74,
          "time": 122.449217604175,
          "velocity": 0.7244094488188977,
          "duration": 0.09654473958333654
        },
        {
          "name": "G#5",
          "midi": 80,
          "time": 122.449217604175,
          "velocity": 0.8976377952755905,
          "duration": 0.11686994791668326
        },
        {
          "name": "D2",
          "midi": 38,
          "time": 122.56100625000835,
          "velocity": 0.4251968503937008,
          "duration": 0.12703255208336373
        },
        {
          "name": "D3",
          "midi": 50,
          "time": 122.66263229167502,
          "velocity": 0.7244094488188977,
          "duration": 0.005081302083340233
        },
        {
          "name": "B4",
          "midi": 71,
          "time": 122.67787619792503,
          "velocity": 0.8976377952755905,
          "duration": 0.106707343750017
        },
        {
          "name": "B1",
          "midi": 35,
          "time": 122.68295750000837,
          "velocity": 0.5590551181102362,
          "duration": 0.18800817708336126
        },
        {
          "name": "F#2",
          "midi": 42,
          "time": 122.68295750000837,
          "velocity": 0.47244094488188976,
          "duration": 0.010162604166680467
        },
        {
          "name": "D2",
          "midi": 38,
          "time": 122.68295750000837,
          "velocity": 0.8503937007874016,
          "duration": 0.010162604166680467
        },
        {
          "name": "C5",
          "midi": 72,
          "time": 122.68295750000837,
          "velocity": 0.952755905511811,
          "duration": 0.20325208333336775
        },
        {
          "name": "B2",
          "midi": 47,
          "time": 122.68295750000837,
          "velocity": 0.5196850393700787,
          "duration": 0.1575203645833625
        },
        {
          "name": "D5",
          "midi": 74,
          "time": 122.68803880209171,
          "velocity": 0.8267716535433071,
          "duration": 0.09654473958333654
        },
        {
          "name": "G#5",
          "midi": 80,
          "time": 122.69312010417505,
          "velocity": 0.937007874015748,
          "duration": 0.10670734375000279
        },
        {
          "name": "D2",
          "midi": 38,
          "time": 122.8049087500084,
          "velocity": 1,
          "duration": 0.010162604166666256
        },
        {
          "name": "C4",
          "midi": 60,
          "time": 122.9268600000084,
          "velocity": 0.48031496062992124,
          "duration": 0.06097562500002596
        },
        {
          "name": "E4",
          "midi": 64,
          "time": 122.9268600000084,
          "velocity": 0.4094488188976378,
          "duration": 0.07113822916669221
        },
        {
          "name": "E4",
          "midi": 64,
          "time": 122.9268600000084,
          "velocity": 0.6614173228346457,
          "duration": 0.07113822916669221
        },
        {
          "name": "E4",
          "midi": 64,
          "time": 122.9268600000084,
          "velocity": 0.4094488188976378,
          "duration": 1.1788620833334988
        },
        {
          "name": "A3",
          "midi": 57,
          "time": 122.9268600000084,
          "velocity": 0.4566929133858268,
          "duration": 0.0508130208333597
        },
        {
          "name": "A1",
          "midi": 33,
          "time": 122.9268600000084,
          "velocity": 0.5590551181102362,
          "duration": 0.2591464062500535
        },
        {
          "name": "D2",
          "midi": 38,
          "time": 122.9268600000084,
          "velocity": 1,
          "duration": 0.010162604166680467
        },
        {
          "name": "A2",
          "midi": 45,
          "time": 122.9268600000084,
          "velocity": 0.8110236220472441,
          "duration": 0.30995942708339896
        },
        {
          "name": "C4",
          "midi": 60,
          "time": 122.9268600000084,
          "velocity": 0.48031496062992124,
          "duration": 0.06097562500002596
        },
        {
          "name": "G4",
          "midi": 67,
          "time": 122.9268600000084,
          "velocity": 0.5433070866141733,
          "duration": 0.07113822916669221
        },
        {
          "name": "C5",
          "midi": 72,
          "time": 122.93194130209174,
          "velocity": 0.8661417322834646,
          "duration": 0.09654473958335075
        },
        {
          "name": "G#4",
          "midi": 68,
          "time": 122.93702260417508,
          "velocity": 1,
          "duration": 0.03048781250001298
        },
        {
          "name": "E5",
          "midi": 76,
          "time": 122.94210390625842,
          "velocity": 0.6692913385826772,
          "duration": 0.08638213541667028
        },
        {
          "name": "B5",
          "midi": 83,
          "time": 122.94718520834176,
          "velocity": 0.8818897637795275,
          "duration": 0.08638213541667028
        },
        {
          "name": "A4",
          "midi": 69,
          "time": 122.98783562500843,
          "velocity": 0.8346456692913385,
          "duration": 0.38617895833337457
        },
        {
          "name": "D2",
          "midi": 38,
          "time": 123.04881125000844,
          "velocity": 1,
          "duration": 0.010162604166666256
        },
        {
          "name": "F#2",
          "midi": 42,
          "time": 123.17076250000844,
          "velocity": 0.47244094488188976,
          "duration": 0.010162604166680467
        },
        {
          "name": "G4",
          "midi": 67,
          "time": 123.17076250000844,
          "velocity": 0.4094488188976378,
          "duration": 0.06097562500002596
        },
        {
          "name": "D2",
          "midi": 38,
          "time": 123.17076250000844,
          "velocity": 0.9212598425196851,
          "duration": 0.010162604166680467
        },
        {
          "name": "A4",
          "midi": 69,
          "time": 123.17076250000844,
          "velocity": 0.6456692913385826,
          "duration": 1.6869922916669111
        },
        {
          "name": "C5",
          "midi": 72,
          "time": 123.17584380209178,
          "velocity": 0.8110236220472441,
          "duration": 0.10162604166669098
        },
        {
          "name": "E5",
          "midi": 76,
          "time": 123.18600640625846,
          "velocity": 0.6692913385826772,
          "duration": 0.09146343750001051
        },
        {
          "name": "B5",
          "midi": 83,
          "time": 123.1910877083418,
          "velocity": 0.8818897637795275,
          "duration": 0.09146343750001051
        },
        {
          "name": "D2",
          "midi": 38,
          "time": 123.29271375000847,
          "velocity": 1,
          "duration": 0.010162604166666256
        },
        {
          "name": "G4",
          "midi": 67,
          "time": 123.4045023958418,
          "velocity": 0.4094488188976378,
          "duration": 0.10162604166669098
        },
        {
          "name": "C2",
          "midi": 36,
          "time": 123.41466500000847,
          "velocity": 0.8110236220472441,
          "duration": 0.31504072916669656
        },
        {
          "name": "D#2",
          "midi": 39,
          "time": 123.41466500000847,
          "velocity": 1,
          "duration": 0.010162604166680467
        },
        {
          "name": "B4",
          "midi": 71,
          "time": 123.41466500000847,
          "velocity": 0.8110236220472441,
          "duration": 0.19817078125002752
        },
        {
          "name": "C5",
          "midi": 72,
          "time": 123.41974630209181,
          "velocity": 0.7874015748031497,
          "duration": 0.09654473958335075
        },
        {
          "name": "E5",
          "midi": 76,
          "time": 123.42482760417515,
          "velocity": 0.5039370078740157,
          "duration": 0.08130083333334426
        },
        {
          "name": "B5",
          "midi": 83,
          "time": 123.42990890625849,
          "velocity": 0.8818897637795275,
          "duration": 0.08638213541667028
        },
        {
          "name": "G4",
          "midi": 67,
          "time": 123.6585675000085,
          "velocity": 0.4094488188976378,
          "duration": 0.060975624999997535
        },
        {
          "name": "E4",
          "midi": 64,
          "time": 123.6585675000085,
          "velocity": 0.5433070866141733,
          "duration": 0.4471545833334005
        },
        {
          "name": "F#2",
          "midi": 42,
          "time": 123.6585675000085,
          "velocity": 0.47244094488188976,
          "duration": 0.010162604166666256
        },
        {
          "name": "A3",
          "midi": 57,
          "time": 123.6585675000085,
          "velocity": 0.5984251968503937,
          "duration": 0.39634156250005503
        },
        {
          "name": "D#2",
          "midi": 39,
          "time": 123.6585675000085,
          "velocity": 0.8661417322834646,
          "duration": 0.010162604166666256
        },
        {
          "name": "C2",
          "midi": 36,
          "time": 123.6585675000085,
          "velocity": 0.5590551181102362,
          "duration": 0.19308947916668728
        },
        {
          "name": "C4",
          "midi": 60,
          "time": 123.6585675000085,
          "velocity": 0.5748031496062992,
          "duration": 0.4217480729167278
        },
        {
          "name": "C5",
          "midi": 72,
          "time": 123.6585675000085,
          "velocity": 0.8503937007874016,
          "duration": 0.10670734375000279
        },
        {
          "name": "E4",
          "midi": 64,
          "time": 123.6585675000085,
          "velocity": 0.5433070866141733,
          "duration": 0.5589432291667435
        },
        {
          "name": "C4",
          "midi": 60,
          "time": 123.6585675000085,
          "velocity": 0.5748031496062992,
          "duration": 0.4217480729167278
        },
        {
          "name": "C5",
          "midi": 72,
          "time": 123.6585675000085,
          "velocity": 0.7952755905511811,
          "duration": 0.1778455729166808
        },
        {
          "name": "E5",
          "midi": 76,
          "time": 123.66873010417517,
          "velocity": 0.5590551181102362,
          "duration": 0.0914634374999963
        },
        {
          "name": "B5",
          "midi": 83,
          "time": 123.67889270834183,
          "velocity": 0.8818897637795275,
          "duration": 0.10162604166667677
        },
        {
          "name": "D2",
          "midi": 38,
          "time": 123.78051875000851,
          "velocity": 1,
          "duration": 0.010162604166666256
        },
        {
          "name": "G4",
          "midi": 67,
          "time": 123.89230739584185,
          "velocity": 0.5826771653543307,
          "duration": 0.09654473958335075
        },
        {
          "name": "C5",
          "midi": 72,
          "time": 123.8973886979252,
          "velocity": 0.8110236220472441,
          "duration": 0.106707343750017
        },
        {
          "name": "D2",
          "midi": 38,
          "time": 123.90247000000853,
          "velocity": 1,
          "duration": 0.010162604166666256
        },
        {
          "name": "E5",
          "midi": 76,
          "time": 123.90247000000853,
          "velocity": 0.6850393700787402,
          "duration": 0.11686994791668326
        },
        {
          "name": "E2",
          "midi": 40,
          "time": 123.90247000000853,
          "velocity": 0.8110236220472441,
          "duration": 0.28963421875003803
        },
        {
          "name": "B5",
          "midi": 83,
          "time": 123.90247000000853,
          "velocity": 0.8818897637795275,
          "duration": 0.12195125000002349
        },
        {
          "name": "B4",
          "midi": 71,
          "time": 123.90247000000853,
          "velocity": 0.7401574803149606,
          "duration": 0.6910570833334191
        },
        {
          "name": "D2",
          "midi": 38,
          "time": 124.02442125000856,
          "velocity": 1,
          "duration": 0.010162604166666256
        },
        {
          "name": "F#4",
          "midi": 66,
          "time": 124.12604729167523,
          "velocity": 0.3700787401574803,
          "duration": 0.010162604166666256
        },
        {
          "name": "E2",
          "midi": 40,
          "time": 124.14637250000857,
          "velocity": 0.5590551181102362,
          "duration": 0.27947161458335756
        },
        {
          "name": "A3",
          "midi": 57,
          "time": 124.14637250000857,
          "velocity": 0.4330708661417323,
          "duration": 0.05589432291667151
        },
        {
          "name": "E5",
          "midi": 76,
          "time": 124.14637250000857,
          "velocity": 0.6614173228346457,
          "duration": 0.10162604166667677
        },
        {
          "name": "D2",
          "midi": 38,
          "time": 124.14637250000857,
          "velocity": 0.9212598425196851,
          "duration": 0.010162604166666256
        },
        {
          "name": "F#2",
          "midi": 42,
          "time": 124.14637250000857,
          "velocity": 0.47244094488188976,
          "duration": 0.010162604166666256
        },
        {
          "name": "E4",
          "midi": 64,
          "time": 124.14637250000857,
          "velocity": 0.49606299212598426,
          "duration": 0.071138229166678
        },
        {
          "name": "C4",
          "midi": 60,
          "time": 124.14637250000857,
          "velocity": 0.47244094488188976,
          "duration": 0.071138229166678
        },
        {
          "name": "E4",
          "midi": 64,
          "time": 124.14637250000857,
          "velocity": 0.49606299212598426,
          "duration": 0.3252033333333628
        },
        {
          "name": "C4",
          "midi": 60,
          "time": 124.14637250000857,
          "velocity": 0.47244094488188976,
          "duration": 0.071138229166678
        },
        {
          "name": "G4",
          "midi": 67,
          "time": 124.14637250000857,
          "velocity": 0.5196850393700787,
          "duration": 0.09146343750001051
        },
        {
          "name": "C5",
          "midi": 72,
          "time": 124.14637250000857,
          "velocity": 0.8110236220472441,
          "duration": 0.10162604166667677
        },
        {
          "name": "B5",
          "midi": 83,
          "time": 124.15653510417523,
          "velocity": 0.8818897637795275,
          "duration": 0.12195125000000928
        },
        {
          "name": "D2",
          "midi": 38,
          "time": 124.26832375000858,
          "velocity": 1,
          "duration": 0.010162604166666256
        },
        {
          "name": "G4",
          "midi": 67,
          "time": 124.36994979167524,
          "velocity": 0.49606299212598426,
          "duration": 0.1371951562500442
        },
        {
          "name": "C4",
          "midi": 60,
          "time": 124.39027500000857,
          "velocity": 0.4566929133858268,
          "duration": 0.07113822916669221
        },
        {
          "name": "C2",
          "midi": 36,
          "time": 124.39027500000857,
          "velocity": 0.8110236220472441,
          "duration": 0.2743903125001026
        },
        {
          "name": "E4",
          "midi": 64,
          "time": 124.39027500000857,
          "velocity": 0.5039370078740157,
          "duration": 0.08130083333335847
        },
        {
          "name": "F#2",
          "midi": 42,
          "time": 124.39027500000857,
          "velocity": 0.5590551181102362,
          "duration": 0.2286585937500547
        },
        {
          "name": "E4",
          "midi": 64,
          "time": 124.39027500000857,
          "velocity": 0.5039370078740157,
          "duration": 0.12195125000005191
        },
        {
          "name": "A3",
          "midi": 57,
          "time": 124.39027500000857,
          "velocity": 0.5196850393700787,
          "duration": 0.07113822916669221
        },
        {
          "name": "C4",
          "midi": 60,
          "time": 124.39027500000857,
          "velocity": 0.4566929133858268,
          "duration": 0.07113822916669221
        },
        {
          "name": "D#2",
          "midi": 39,
          "time": 124.39027500000857,
          "velocity": 1,
          "duration": 0.010162604166666256
        },
        {
          "name": "C5",
          "midi": 72,
          "time": 124.39027500000857,
          "velocity": 0.7559055118110236,
          "duration": 0.11686994791671168
        },
        {
          "name": "E5",
          "midi": 76,
          "time": 124.40551890625858,
          "velocity": 0.6614173228346457,
          "duration": 0.10162604166670519
        },
        {
          "name": "B5",
          "midi": 83,
          "time": 124.41060020834192,
          "velocity": 0.8818897637795275,
          "duration": 0.09146343750002472
        },
        {
          "name": "D2",
          "midi": 38,
          "time": 124.51222625000862,
          "velocity": 0.4251968503937008,
          "duration": 0.010162604166666256
        },
        {
          "name": "G4",
          "midi": 67,
          "time": 124.62401489584197,
          "velocity": 0.3464566929133858,
          "duration": 0.025406510416701167
        },
        {
          "name": "E2",
          "midi": 40,
          "time": 124.63417750000865,
          "velocity": 0.5590551181102362,
          "duration": 0.213414687500034
        },
        {
          "name": "C5",
          "midi": 72,
          "time": 124.63417750000865,
          "velocity": 0.84251968503937,
          "duration": 0.11686994791669747
        },
        {
          "name": "D2",
          "midi": 38,
          "time": 124.63417750000865,
          "velocity": 0.8503937007874016,
          "duration": 0.010162604166680467
        },
        {
          "name": "F#2",
          "midi": 42,
          "time": 124.63417750000865,
          "velocity": 0.47244094488188976,
          "duration": 0.010162604166680467
        },
        {
          "name": "A4",
          "midi": 69,
          "time": 124.63417750000865,
          "velocity": 0.8661417322834646,
          "duration": 0.24390250000003277
        },
        {
          "name": "E5",
          "midi": 76,
          "time": 124.63925880209199,
          "velocity": 0.5748031496062992,
          "duration": 0.11686994791669747
        },
        {
          "name": "B5",
          "midi": 83,
          "time": 124.64434010417533,
          "velocity": 0.8818897637795275,
          "duration": 0.106707343750017
        },
        {
          "name": "D2",
          "midi": 38,
          "time": 124.75612875000868,
          "velocity": 1,
          "duration": 0.010162604166666256
        },
        {
          "name": "E4",
          "midi": 64,
          "time": 124.87808000000868,
          "velocity": 0.5196850393700787,
          "duration": 0.08130083333334426
        },
        {
          "name": "A2",
          "midi": 45,
          "time": 124.87808000000868,
          "velocity": 0.7874015748031497,
          "duration": 0.3048781250000445
        },
        {
          "name": "G4",
          "midi": 67,
          "time": 124.87808000000868,
          "velocity": 0.6929133858267716,
          "duration": 0.11178864583334303
        },
        {
          "name": "E4",
          "midi": 64,
          "time": 124.87808000000868,
          "velocity": 0.5196850393700787,
          "duration": 0.08130083333334426
        },
        {
          "name": "D2",
          "midi": 38,
          "time": 124.87808000000868,
          "velocity": 1,
          "duration": 0.010162604166666256
        },
        {
          "name": "E4",
          "midi": 64,
          "time": 124.87808000000868,
          "velocity": 0.6377952755905512,
          "duration": 0.9146343750001051
        },
        {
          "name": "C4",
          "midi": 60,
          "time": 124.87808000000868,
          "velocity": 0.5275590551181102,
          "duration": 0.07621953125000402
        },
        {
          "name": "A3",
          "midi": 57,
          "time": 124.87808000000868,
          "velocity": 0.5275590551181102,
          "duration": 0.06605692708333777
        },
        {
          "name": "C4",
          "midi": 60,
          "time": 124.87808000000868,
          "velocity": 0.5275590551181102,
          "duration": 0.07621953125000402
        },
        {
          "name": "A1",
          "midi": 33,
          "time": 124.87808000000868,
          "velocity": 0.5590551181102362,
          "duration": 0.27439031250004575
        },
        {
          "name": "E5",
          "midi": 76,
          "time": 124.88824260417535,
          "velocity": 0.8188976377952756,
          "duration": 0.13211385416667554
        },
        {
          "name": "C5",
          "midi": 72,
          "time": 124.88824260417535,
          "velocity": 0.8267716535433071,
          "duration": 0.11178864583334303
        },
        {
          "name": "B5",
          "midi": 83,
          "time": 124.89840520834201,
          "velocity": 0.8818897637795275,
          "duration": 0.12195125000000928
        },
        {
          "name": "D2",
          "midi": 38,
          "time": 125.00003125000869,
          "velocity": 1,
          "duration": 0.010162604166666256
        },
        {
          "name": "F#4",
          "midi": 66,
          "time": 125.11690119792536,
          "velocity": 0.28346456692913385,
          "duration": 0.005081302083340233
        },
        {
          "name": "A4",
          "midi": 69,
          "time": 125.1219825000087,
          "velocity": 0.9606299212598425,
          "duration": 0.17276427083335477
        },
        {
          "name": "F#2",
          "midi": 42,
          "time": 125.1219825000087,
          "velocity": 0.47244094488188976,
          "duration": 0.010162604166680467
        },
        {
          "name": "G4",
          "midi": 67,
          "time": 125.1219825000087,
          "velocity": 0.49606299212598426,
          "duration": 0.08130083333335847
        },
        {
          "name": "D2",
          "midi": 38,
          "time": 125.1219825000087,
          "velocity": 0.9212598425196851,
          "duration": 0.010162604166680467
        },
        {
          "name": "C5",
          "midi": 72,
          "time": 125.12706380209204,
          "velocity": 0.8503937007874016,
          "duration": 0.106707343750017
        },
        {
          "name": "E5",
          "midi": 76,
          "time": 125.13214510417538,
          "velocity": 0.6456692913385826,
          "duration": 0.13211385416667554
        },
        {
          "name": "B5",
          "midi": 83,
          "time": 125.13722640625872,
          "velocity": 0.8582677165354331,
          "duration": 0.11686994791666905
        },
        {
          "name": "D2",
          "midi": 38,
          "time": 125.24393375000872,
          "velocity": 1,
          "duration": 0.010162604166666256
        },
        {
          "name": "G4",
          "midi": 67,
          "time": 125.36080369792539,
          "velocity": 0.48031496062992124,
          "duration": 0.0152439062500207
        },
        {
          "name": "C2",
          "midi": 36,
          "time": 125.36588500000873,
          "velocity": 0.84251968503937,
          "duration": 0.3252033333333628
        },
        {
          "name": "C5",
          "midi": 72,
          "time": 125.36588500000873,
          "velocity": 0.8267716535433071,
          "duration": 0.11686994791668326
        },
        {
          "name": "B4",
          "midi": 71,
          "time": 125.36588500000873,
          "velocity": 0.7874015748031497,
          "duration": 0.20325208333335354
        },
        {
          "name": "D#2",
          "midi": 39,
          "time": 125.36588500000873,
          "velocity": 1,
          "duration": 0.010162604166680467
        },
        {
          "name": "E5",
          "midi": 76,
          "time": 125.37096630209207,
          "velocity": 0.6377952755905512,
          "duration": 0.11178864583334303
        },
        {
          "name": "B5",
          "midi": 83,
          "time": 125.37604760417541,
          "velocity": 0.8818897637795275,
          "duration": 0.11686994791666905
        },
        {
          "name": "G4",
          "midi": 67,
          "time": 125.59962489584208,
          "velocity": 0.5826771653543307,
          "duration": 0.11686994791668326
        },
        {
          "name": "C5",
          "midi": 72,
          "time": 125.60470619792542,
          "velocity": 0.7637795275590551,
          "duration": 0.12195125000002349
        },
        {
          "name": "A3",
          "midi": 57,
          "time": 125.60978750000876,
          "velocity": 0.5748031496062992,
          "duration": 0.34552854166673796
        },
        {
          "name": "F#2",
          "midi": 42,
          "time": 125.60978750000876,
          "velocity": 0.47244094488188976,
          "duration": 0.010162604166666256
        },
        {
          "name": "C4",
          "midi": 60,
          "time": 125.60978750000876,
          "velocity": 0.6220472440944882,
          "duration": 0.3658537500000847
        },
        {
          "name": "E4",
          "midi": 64,
          "time": 125.60978750000876,
          "velocity": 0.6220472440944882,
          "duration": 0.3709350520834249
        },
        {
          "name": "D#2",
          "midi": 39,
          "time": 125.60978750000876,
          "velocity": 0.8661417322834646,
          "duration": 0.010162604166666256
        },
        {
          "name": "C5",
          "midi": 72,
          "time": 125.60978750000876,
          "velocity": 0.8346456692913385,
          "duration": 0.19817078125002752
        },
        {
          "name": "E5",
          "midi": 76,
          "time": 125.60978750000876,
          "velocity": 0.6141732283464567,
          "duration": 0.10670734375000279
        },
        {
          "name": "C2",
          "midi": 36,
          "time": 125.60978750000876,
          "velocity": 0.5590551181102362,
          "duration": 0.213414687500034
        },
        {
          "name": "C4",
          "midi": 60,
          "time": 125.60978750000876,
          "velocity": 0.6220472440944882,
          "duration": 0.3658537500000847
        },
        {
          "name": "E4",
          "midi": 64,
          "time": 125.60978750000876,
          "velocity": 0.6220472440944882,
          "duration": 0.3709350520834249
        },
        {
          "name": "B5",
          "midi": 83,
          "time": 125.61995010417543,
          "velocity": 0.8346456692913385,
          "duration": 0.10162604166667677
        },
        {
          "name": "D2",
          "midi": 38,
          "time": 125.73173875000879,
          "velocity": 1,
          "duration": 0.010162604166666256
        },
        {
          "name": "G4",
          "midi": 67,
          "time": 125.84860869792547,
          "velocity": 0.5590551181102362,
          "duration": 0.11178864583337145
        },
        {
          "name": "B4",
          "midi": 71,
          "time": 125.85369000000881,
          "velocity": 0.8110236220472441,
          "duration": 0.5436993229167797
        },
        {
          "name": "D2",
          "midi": 38,
          "time": 125.85369000000881,
          "velocity": 1,
          "duration": 0.010162604166680467
        },
        {
          "name": "E2",
          "midi": 40,
          "time": 125.85369000000881,
          "velocity": 0.7559055118110236,
          "duration": 0.32012203125009364
        },
        {
          "name": "C5",
          "midi": 72,
          "time": 125.85877130209215,
          "velocity": 0.8110236220472441,
          "duration": 0.09654473958335075
        },
        {
          "name": "E5",
          "midi": 76,
          "time": 125.86893390625883,
          "velocity": 0.6692913385826772,
          "duration": 0.09654473958335075
        },
        {
          "name": "B5",
          "midi": 83,
          "time": 125.87401520834217,
          "velocity": 0.7322834645669292,
          "duration": 0.010162604166666256
        },
        {
          "name": "B5",
          "midi": 83,
          "time": 125.88417781250884,
          "velocity": 0.8818897637795275,
          "duration": 0.07113822916666379
        },
        {
          "name": "D2",
          "midi": 38,
          "time": 125.97564125000885,
          "velocity": 1,
          "duration": 0.010162604166680467
        },
        {
          "name": "G4",
          "midi": 67,
          "time": 126.08234859375887,
          "velocity": 0.5275590551181102,
          "duration": 0.08130083333335847
        },
        {
          "name": "C5",
          "midi": 72,
          "time": 126.0874298958422,
          "velocity": 0.7559055118110236,
          "duration": 0.08130083333335847
        },
        {
          "name": "E5",
          "midi": 76,
          "time": 126.09251119792555,
          "velocity": 0.6377952755905512,
          "duration": 0.09146343750003894
        },
        {
          "name": "E4",
          "midi": 64,
          "time": 126.09759250000889,
          "velocity": 0.5196850393700787,
          "duration": 0.06605692708333777
        },
        {
          "name": "C4",
          "midi": 60,
          "time": 126.09759250000889,
          "velocity": 0.5590551181102362,
          "duration": 0.06605692708333777
        },
        {
          "name": "A3",
          "midi": 57,
          "time": 126.09759250000889,
          "velocity": 0.49606299212598426,
          "duration": 0.060975624999997535
        },
        {
          "name": "E4",
          "midi": 64,
          "time": 126.09759250000889,
          "velocity": 0.5196850393700787,
          "duration": 0.06605692708333777
        },
        {
          "name": "C4",
          "midi": 60,
          "time": 126.09759250000889,
          "velocity": 0.5590551181102362,
          "duration": 0.06605692708333777
        },
        {
          "name": "F#2",
          "midi": 42,
          "time": 126.09759250000889,
          "velocity": 0.47244094488188976,
          "duration": 0.010162604166666256
        },
        {
          "name": "D2",
          "midi": 38,
          "time": 126.09759250000889,
          "velocity": 0.9212598425196851,
          "duration": 0.010162604166666256
        },
        {
          "name": "E2",
          "midi": 40,
          "time": 126.09759250000889,
          "velocity": 0.5590551181102362,
          "duration": 0.2997968229167043
        },
        {
          "name": "B5",
          "midi": 83,
          "time": 126.10775510417555,
          "velocity": 0.8818897637795275,
          "duration": 0.07113822916669221
        },
        {
          "name": "D2",
          "midi": 38,
          "time": 126.21954375000892,
          "velocity": 1,
          "duration": 0.010162604166666256
        },
        {
          "name": "G4",
          "midi": 67,
          "time": 126.32116979167559,
          "velocity": 0.5039370078740157,
          "duration": 0.10162604166667677
        },
        {
          "name": "C5",
          "midi": 72,
          "time": 126.34149500000892,
          "velocity": 0.7716535433070866,
          "duration": 0.09654473958335075
        },
        {
          "name": "A3",
          "midi": 57,
          "time": 126.34149500000892,
          "velocity": 0.5590551181102362,
          "duration": 0.09654473958335075
        },
        {
          "name": "D#2",
          "midi": 39,
          "time": 126.34149500000892,
          "velocity": 1,
          "duration": 0.010162604166666256
        },
        {
          "name": "C4",
          "midi": 60,
          "time": 126.34149500000892,
          "velocity": 0.5748031496062992,
          "duration": 0.09654473958335075
        },
        {
          "name": "E4",
          "midi": 64,
          "time": 126.34149500000892,
          "velocity": 0.5748031496062992,
          "duration": 0.10670734375003121
        },
        {
          "name": "C2",
          "midi": 36,
          "time": 126.34149500000892,
          "velocity": 0.7244094488188977,
          "duration": 0.1930894791667157
        },
        {
          "name": "F#2",
          "midi": 42,
          "time": 126.34149500000892,
          "velocity": 0.5590551181102362,
          "duration": 0.24898380208340143
        },
        {
          "name": "E4",
          "midi": 64,
          "time": 126.34149500000892,
          "velocity": 0.5748031496062992,
          "duration": 0.10670734375003121
        },
        {
          "name": "C4",
          "midi": 60,
          "time": 126.34149500000892,
          "velocity": 0.5748031496062992,
          "duration": 0.09654473958335075
        },
        {
          "name": "E5",
          "midi": 76,
          "time": 126.35673890625893,
          "velocity": 0.6929133858267716,
          "duration": 0.08638213541668449
        },
        {
          "name": "B5",
          "midi": 83,
          "time": 126.36690151042559,
          "velocity": 0.8818897637795275,
          "duration": 0.10162604166670519
        },
        {
          "name": "D2",
          "midi": 38,
          "time": 126.46344625000896,
          "velocity": 0.4251968503937008,
          "duration": 0.010162604166680467
        },
        {
          "name": "G#4",
          "midi": 68,
          "time": 126.57015359375897,
          "velocity": 0.3464566929133858,
          "duration": 0.010162604166666256
        },
        {
          "name": "D2",
          "midi": 38,
          "time": 126.58539750000898,
          "velocity": 0.8503937007874016,
          "duration": 0.010162604166680467
        },
        {
          "name": "G4",
          "midi": 67,
          "time": 126.58539750000898,
          "velocity": 0.4094488188976378,
          "duration": 0.10670734375003121
        },
        {
          "name": "F#2",
          "midi": 42,
          "time": 126.58539750000898,
          "velocity": 0.47244094488188976,
          "duration": 0.010162604166680467
        },
        {
          "name": "E2",
          "midi": 40,
          "time": 126.58539750000898,
          "velocity": 0.5590551181102362,
          "duration": 0.18800817708337547
        },
        {
          "name": "C5",
          "midi": 72,
          "time": 126.59047880209232,
          "velocity": 0.7637795275590551,
          "duration": 0.10670734375003121
        },
        {
          "name": "E5",
          "midi": 76,
          "time": 126.59556010417566,
          "velocity": 0.5590551181102362,
          "duration": 0.08130083333334426
        },
        {
          "name": "B5",
          "midi": 83,
          "time": 126.600641406259,
          "velocity": 0.7637795275590551,
          "duration": 0.11686994791668326
        },
        {
          "name": "D2",
          "midi": 38,
          "time": 126.70734875000902,
          "velocity": 1,
          "duration": 0.010162604166666256
        },
        {
          "name": "A4",
          "midi": 69,
          "time": 126.82930000000903,
          "velocity": 0.6220472440944882,
          "duration": 0.10162604166670519
        },
        {
          "name": "D4",
          "midi": 62,
          "time": 126.82930000000903,
          "velocity": 0.5748031496062992,
          "duration": 0.03556911458335321
        },
        {
          "name": "F4",
          "midi": 65,
          "time": 126.82930000000903,
          "velocity": 0.6614173228346457,
          "duration": 0.04573171875001947
        },
        {
          "name": "A3",
          "midi": 57,
          "time": 126.82930000000903,
          "velocity": 0.5433070866141733,
          "duration": 0.0508130208333597
        },
        {
          "name": "C4",
          "midi": 60,
          "time": 126.82930000000903,
          "velocity": 0.4881889763779528,
          "duration": 0.07621953125003245
        },
        {
          "name": "D2",
          "midi": 38,
          "time": 126.82930000000903,
          "velocity": 0.5590551181102362,
          "duration": 0.010162604166680467
        },
        {
          "name": "D2",
          "midi": 38,
          "time": 126.82930000000903,
          "velocity": 1,
          "duration": 0.13211385416670396
        },
        {
          "name": "D2",
          "midi": 38,
          "time": 126.82930000000903,
          "velocity": 0.8110236220472441,
          "duration": 0.25406510416672745
        },
        {
          "name": "F4",
          "midi": 65,
          "time": 126.82930000000903,
          "velocity": 0.6614173228346457,
          "duration": 0.04573171875001947
        },
        {
          "name": "D4",
          "midi": 62,
          "time": 126.82930000000903,
          "velocity": 0.5748031496062992,
          "duration": 0.03556911458335321
        },
        {
          "name": "F4",
          "midi": 65,
          "time": 126.83438130209237,
          "velocity": 0.9212598425196851,
          "duration": 0.09654473958336496
        },
        {
          "name": "E5",
          "midi": 76,
          "time": 126.84962520834237,
          "velocity": 0.937007874015748,
          "duration": 0.09146343750002472
        },
        {
          "name": "A4",
          "midi": 69,
          "time": 126.84962520834237,
          "velocity": 0.6062992125984252,
          "duration": 0.16768296875002875
        },
        {
          "name": "D2",
          "midi": 38,
          "time": 126.95125125000907,
          "velocity": 1,
          "duration": 0.16768296875004296
        },
        {
          "name": "F#2",
          "midi": 42,
          "time": 127.07320250000907,
          "velocity": 0.47244094488188976,
          "duration": 0.010162604166680467
        },
        {
          "name": "D2",
          "midi": 38,
          "time": 127.07320250000907,
          "velocity": 0.9212598425196851,
          "duration": 0.11178864583337145
        },
        {
          "name": "E5",
          "midi": 76,
          "time": 127.07320250000907,
          "velocity": 0.9133858267716536,
          "duration": 0.010162604166680467
        },
        {
          "name": "D5",
          "midi": 74,
          "time": 127.07320250000907,
          "velocity": 0.7716535433070866,
          "duration": 0.16260166666670273
        },
        {
          "name": "F4",
          "midi": 65,
          "time": 127.07828380209241,
          "velocity": 0.9212598425196851,
          "duration": 0.10162604166669098
        },
        {
          "name": "A4",
          "midi": 69,
          "time": 127.0884464062591,
          "velocity": 0.6062992125984252,
          "duration": 0.09146343750001051
        },
        {
          "name": "E5",
          "midi": 76,
          "time": 127.09352770834244,
          "velocity": 0.937007874015748,
          "duration": 0.09146343750001051
        },
        {
          "name": "D2",
          "midi": 38,
          "time": 127.19515375000911,
          "velocity": 1,
          "duration": 0.010162604166666256
        },
        {
          "name": "C4",
          "midi": 60,
          "time": 127.30694239584244,
          "velocity": 0.3700787401574803,
          "duration": 0.10162604166669098
        },
        {
          "name": "E5",
          "midi": 76,
          "time": 127.31710500000911,
          "velocity": 1,
          "duration": 0.10162604166669098
        },
        {
          "name": "F2",
          "midi": 41,
          "time": 127.31710500000911,
          "velocity": 0.8110236220472441,
          "duration": 0.30995942708337054
        },
        {
          "name": "D#2",
          "midi": 39,
          "time": 127.31710500000911,
          "velocity": 1,
          "duration": 0.010162604166680467
        },
        {
          "name": "F4",
          "midi": 65,
          "time": 127.32218630209245,
          "velocity": 0.8503937007874016,
          "duration": 0.09654473958335075
        },
        {
          "name": "A4",
          "midi": 69,
          "time": 127.33234890625913,
          "velocity": 0.4566929133858268,
          "duration": 0.08638213541667028
        },
        {
          "name": "E5",
          "midi": 76,
          "time": 127.33743020834247,
          "velocity": 0.937007874015748,
          "duration": 0.1829268749999926
        },
        {
          "name": "E5",
          "midi": 76,
          "time": 127.56100750000913,
          "velocity": 0.7244094488188977,
          "duration": 0.005081302083340233
        },
        {
          "name": "F4",
          "midi": 65,
          "time": 127.56100750000913,
          "velocity": 0.6456692913385826,
          "duration": 0.10670734375003121
        },
        {
          "name": "F2",
          "midi": 41,
          "time": 127.56100750000913,
          "velocity": 0.5590551181102362,
          "duration": 0.2642277083333795
        },
        {
          "name": "F4",
          "midi": 65,
          "time": 127.56100750000913,
          "velocity": 0.7322834645669292,
          "duration": 0.34552854166672375
        },
        {
          "name": "F4",
          "midi": 65,
          "time": 127.56100750000913,
          "velocity": 0.6456692913385826,
          "duration": 0.5894310416667707
        },
        {
          "name": "F5",
          "midi": 77,
          "time": 127.56100750000913,
          "velocity": 0.9291338582677166,
          "duration": 0.1930894791667015
        },
        {
          "name": "D#2",
          "midi": 39,
          "time": 127.56100750000913,
          "velocity": 0.8661417322834646,
          "duration": 0.010162604166680467
        },
        {
          "name": "F#2",
          "midi": 42,
          "time": 127.56100750000913,
          "velocity": 0.47244094488188976,
          "duration": 0.010162604166680467
        },
        {
          "name": "D4",
          "midi": 62,
          "time": 127.56100750000913,
          "velocity": 0.6850393700787402,
          "duration": 0.594512343750111
        },
        {
          "name": "A3",
          "midi": 57,
          "time": 127.56100750000913,
          "velocity": 0.6220472440944882,
          "duration": 0.594512343750111
        },
        {
          "name": "D4",
          "midi": 62,
          "time": 127.56100750000913,
          "velocity": 0.6850393700787402,
          "duration": 0.594512343750111
        },
        {
          "name": "A4",
          "midi": 69,
          "time": 127.5711701041758,
          "velocity": 0.5039370078740157,
          "duration": 0.09146343750001051
        },
        {
          "name": "E5",
          "midi": 76,
          "time": 127.58133270834247,
          "velocity": 0.8661417322834646,
          "duration": 0.10162604166669098
        },
        {
          "name": "D2",
          "midi": 38,
          "time": 127.68295875000916,
          "velocity": 1,
          "duration": 0.010162604166666256
        },
        {
          "name": "C4",
          "midi": 60,
          "time": 127.79474739584249,
          "velocity": 0.5275590551181102,
          "duration": 0.09654473958335075
        },
        {
          "name": "F4",
          "midi": 65,
          "time": 127.79982869792583,
          "velocity": 0.7322834645669292,
          "duration": 0.3658537500000847
        },
        {
          "name": "E5",
          "midi": 76,
          "time": 127.80491000000917,
          "velocity": 1,
          "duration": 0.12195125000002349
        },
        {
          "name": "E5",
          "midi": 76,
          "time": 127.80491000000917,
          "velocity": 0.8818897637795275,
          "duration": 0.37601635416676515
        },
        {
          "name": "D2",
          "midi": 38,
          "time": 127.80491000000917,
          "velocity": 1,
          "duration": 0.010162604166666256
        },
        {
          "name": "A4",
          "midi": 69,
          "time": 127.80491000000917,
          "velocity": 0.6220472440944882,
          "duration": 0.11686994791668326
        },
        {
          "name": "A2",
          "midi": 45,
          "time": 127.80491000000917,
          "velocity": 0.8110236220472441,
          "duration": 0.2997968229167185
        },
        {
          "name": "D2",
          "midi": 38,
          "time": 127.9268612500092,
          "velocity": 1,
          "duration": 0.010162604166666256
        },
        {
          "name": "B3",
          "midi": 59,
          "time": 128.02848729167587,
          "velocity": 0.5590551181102362,
          "duration": 0.025406510416672745
        },
        {
          "name": "F#2",
          "midi": 42,
          "time": 128.0488125000092,
          "velocity": 0.47244094488188976,
          "duration": 0.010162604166680467
        },
        {
          "name": "A4",
          "midi": 69,
          "time": 128.0488125000092,
          "velocity": 0.5984251968503937,
          "duration": 0.10162604166669098
        },
        {
          "name": "D2",
          "midi": 38,
          "time": 128.0488125000092,
          "velocity": 0.9212598425196851,
          "duration": 0.010162604166680467
        },
        {
          "name": "A2",
          "midi": 45,
          "time": 128.0488125000092,
          "velocity": 0.5590551181102362,
          "duration": 0.2439025000000754
        },
        {
          "name": "C4",
          "midi": 60,
          "time": 128.0488125000092,
          "velocity": 0.47244094488188976,
          "duration": 0.09146343750001051
        },
        {
          "name": "F4",
          "midi": 65,
          "time": 128.0488125000092,
          "velocity": 0.9212598425196851,
          "duration": 0.11686994791671168
        },
        {
          "name": "E5",
          "midi": 76,
          "time": 128.0589751041759,
          "velocity": 0.8818897637795275,
          "duration": 0.3455285416667664
        },
        {
          "name": "D2",
          "midi": 38,
          "time": 128.17076375000926,
          "velocity": 1,
          "duration": 0.010162604166680467
        },
        {
          "name": "C4",
          "midi": 60,
          "time": 128.27238979167595,
          "velocity": 0.44881889763779526,
          "duration": 0.1371951562500442
        },
        {
          "name": "F4",
          "midi": 65,
          "time": 128.29271500000928,
          "velocity": 0.8661417322834646,
          "duration": 0.07113822916670642
        },
        {
          "name": "F4",
          "midi": 65,
          "time": 128.29271500000928,
          "velocity": 0.6456692913385826,
          "duration": 0.07113822916670642
        },
        {
          "name": "D4",
          "midi": 62,
          "time": 128.29271500000928,
          "velocity": 0.5590551181102362,
          "duration": 0.06605692708336619
        },
        {
          "name": "F2",
          "midi": 41,
          "time": 128.29271500000928,
          "velocity": 0.8110236220472441,
          "duration": 0.35569114583341843
        },
        {
          "name": "F4",
          "midi": 65,
          "time": 128.29271500000928,
          "velocity": 0.6456692913385826,
          "duration": 0.11686994791671168
        },
        {
          "name": "B2",
          "midi": 47,
          "time": 128.29271500000928,
          "velocity": 0.5590551181102362,
          "duration": 0.21849598958340266
        },
        {
          "name": "A3",
          "midi": 57,
          "time": 128.29271500000928,
          "velocity": 0.5748031496062992,
          "duration": 0.07113822916670642
        },
        {
          "name": "D#2",
          "midi": 39,
          "time": 128.29271500000928,
          "velocity": 1,
          "duration": 0.010162604166680467
        },
        {
          "name": "D4",
          "midi": 62,
          "time": 128.29271500000928,
          "velocity": 0.5590551181102362,
          "duration": 0.06605692708336619
        },
        {
          "name": "A4",
          "midi": 69,
          "time": 128.3079589062593,
          "velocity": 0.5984251968503937,
          "duration": 0.10162604166669098
        },
        {
          "name": "E5",
          "midi": 76,
          "time": 128.31304020834264,
          "velocity": 0.9291338582677166,
          "duration": 0.16260166666671694
        },
        {
          "name": "D2",
          "midi": 38,
          "time": 128.41466625000933,
          "velocity": 0.4251968503937008,
          "duration": 0.010162604166680467
        },
        {
          "name": "C4",
          "midi": 60,
          "time": 128.52645489584268,
          "velocity": 0.31496062992125984,
          "duration": 0.025406510416701167
        },
        {
          "name": "D2",
          "midi": 38,
          "time": 128.53661750000936,
          "velocity": 0.8503937007874016,
          "duration": 0.010162604166680467
        },
        {
          "name": "F4",
          "midi": 65,
          "time": 128.53661750000936,
          "velocity": 0.8110236220472441,
          "duration": 0.11686994791668326
        },
        {
          "name": "D5",
          "midi": 74,
          "time": 128.53661750000936,
          "velocity": 0.8110236220472441,
          "duration": 0.24390250000001856
        },
        {
          "name": "A2",
          "midi": 45,
          "time": 128.53661750000936,
          "velocity": 0.5590551181102362,
          "duration": 0.22865859375002628
        },
        {
          "name": "F#2",
          "midi": 42,
          "time": 128.53661750000936,
          "velocity": 0.47244094488188976,
          "duration": 0.010162604166680467
        },
        {
          "name": "A4",
          "midi": 69,
          "time": 128.5416988020927,
          "velocity": 0.5196850393700787,
          "duration": 0.11686994791668326
        },
        {
          "name": "E5",
          "midi": 76,
          "time": 128.54678010417604,
          "velocity": 0.937007874015748,
          "duration": 0.10670734375000279
        },
        {
          "name": "D2",
          "midi": 38,
          "time": 128.65856875000938,
          "velocity": 1,
          "duration": 0.010162604166680467
        },
        {
          "name": "D2",
          "midi": 38,
          "time": 128.78052000000937,
          "velocity": 0.8110236220472441,
          "duration": 0.010162604166680467
        },
        {
          "name": "F4",
          "midi": 65,
          "time": 128.78052000000937,
          "velocity": 0.4015748031496063,
          "duration": 0.06097562500005438
        },
        {
          "name": "D4",
          "midi": 62,
          "time": 128.78052000000937,
          "velocity": 0.48031496062992124,
          "duration": 0.06097562500005438
        },
        {
          "name": "C4",
          "midi": 60,
          "time": 128.78052000000937,
          "velocity": 0.6299212598425197,
          "duration": 0.11178864583339987
        },
        {
          "name": "F4",
          "midi": 65,
          "time": 128.78052000000937,
          "velocity": 0.4015748031496063,
          "duration": 0.06097562500005438
        },
        {
          "name": "D4",
          "midi": 62,
          "time": 128.78052000000937,
          "velocity": 0.48031496062992124,
          "duration": 0.06097562500005438
        },
        {
          "name": "A3",
          "midi": 57,
          "time": 128.78052000000937,
          "velocity": 0.2992125984251969,
          "duration": 0.05081302083337391
        },
        {
          "name": "D2",
          "midi": 38,
          "time": 128.78052000000937,
          "velocity": 0.5590551181102362,
          "duration": 0.1321138541667608
        },
        {
          "name": "D2",
          "midi": 38,
          "time": 128.78052000000937,
          "velocity": 1,
          "duration": 0.2540651041667843
        },
        {
          "name": "A4",
          "midi": 69,
          "time": 128.78052000000937,
          "velocity": 0.6535433070866141,
          "duration": 0.14227645833344127
        },
        {
          "name": "F4",
          "midi": 65,
          "time": 128.79068260417606,
          "velocity": 0.8503937007874016,
          "duration": 0.11178864583339987
        },
        {
          "name": "A4",
          "midi": 69,
          "time": 128.79068260417606,
          "velocity": 0.7401574803149606,
          "duration": 0.20833338541675062
        },
        {
          "name": "E5",
          "midi": 76,
          "time": 128.80084520834274,
          "velocity": 0.889763779527559,
          "duration": 0.12195125000008034
        },
        {
          "name": "D2",
          "midi": 38,
          "time": 128.90247125000946,
          "velocity": 1,
          "duration": 0.13211385416670396
        },
        {
          "name": "B3",
          "midi": 59,
          "time": 129.01934119792614,
          "velocity": 0.5669291338582677,
          "duration": 0.020325208333360933
        },
        {
          "name": "D2",
          "midi": 38,
          "time": 129.02442250000948,
          "velocity": 0.9212598425196851,
          "duration": 0.025406510416701167
        },
        {
          "name": "D5",
          "midi": 74,
          "time": 129.02442250000948,
          "velocity": 0.889763779527559,
          "duration": 0.1676829687500856
        },
        {
          "name": "C4",
          "midi": 60,
          "time": 129.02442250000948,
          "velocity": 0.44881889763779526,
          "duration": 0.08130083333335847
        },
        {
          "name": "F#2",
          "midi": 42,
          "time": 129.02442250000948,
          "velocity": 0.47244094488188976,
          "duration": 0.010162604166680467
        },
        {
          "name": "F4",
          "midi": 65,
          "time": 129.02950380209282,
          "velocity": 0.8346456692913385,
          "duration": 0.10670734375003121
        },
        {
          "name": "A4",
          "midi": 69,
          "time": 129.03458510417616,
          "velocity": 0.5826771653543307,
          "duration": 0.13211385416673238
        },
        {
          "name": "E5",
          "midi": 76,
          "time": 129.0396664062595,
          "velocity": 0.8267716535433071,
          "duration": 0.11686994791671168
        },
        {
          "name": "D2",
          "midi": 38,
          "time": 129.14637375000953,
          "velocity": 1,
          "duration": 0.010162604166680467
        },
        {
          "name": "C4",
          "midi": 60,
          "time": 129.26324369792624,
          "velocity": 0.4330708661417323,
          "duration": 0.0152439062500207
        },
        {
          "name": "F2",
          "midi": 41,
          "time": 129.26832500000958,
          "velocity": 0.6850393700787402,
          "duration": 0.315040729166725
        },
        {
          "name": "E5",
          "midi": 76,
          "time": 129.26832500000958,
          "velocity": 0.8976377952755905,
          "duration": 0.12703255208336373
        },
        {
          "name": "D#2",
          "midi": 39,
          "time": 129.26832500000958,
          "velocity": 1,
          "duration": 0.010162604166680467
        },
        {
          "name": "F4",
          "midi": 65,
          "time": 129.26832500000958,
          "velocity": 0.7716535433070866,
          "duration": 0.11686994791668326
        },
        {
          "name": "A4",
          "midi": 69,
          "time": 129.27340630209292,
          "velocity": 0.5748031496062992,
          "duration": 0.11178864583334303
        },
        {
          "name": "E5",
          "midi": 76,
          "time": 129.27848760417626,
          "velocity": 0.8976377952755905,
          "duration": 0.18292687500002103
        },
        {
          "name": "C4",
          "midi": 60,
          "time": 129.50206489584295,
          "velocity": 0.5275590551181102,
          "duration": 0.11686994791668326
        },
        {
          "name": "F4",
          "midi": 65,
          "time": 129.5071461979263,
          "velocity": 0.7480314960629921,
          "duration": 0.12195125000002349
        },
        {
          "name": "F5",
          "midi": 77,
          "time": 129.51222750000963,
          "velocity": 0.84251968503937,
          "duration": 0.20325208333338196
        },
        {
          "name": "F#2",
          "midi": 42,
          "time": 129.51222750000963,
          "velocity": 0.47244094488188976,
          "duration": 0.010162604166680467
        },
        {
          "name": "F4",
          "midi": 65,
          "time": 129.51222750000963,
          "velocity": 0.5748031496062992,
          "duration": 0.3455285416667664
        },
        {
          "name": "F4",
          "midi": 65,
          "time": 129.51222750000963,
          "velocity": 0.5748031496062992,
          "duration": 0.40650416666682077
        },
        {
          "name": "F2",
          "midi": 41,
          "time": 129.51222750000963,
          "velocity": 0.5590551181102362,
          "duration": 0.2591464062500677
        },
        {
          "name": "D4",
          "midi": 62,
          "time": 129.51222750000963,
          "velocity": 0.6456692913385826,
          "duration": 0.40650416666682077
        },
        {
          "name": "D#2",
          "midi": 39,
          "time": 129.51222750000963,
          "velocity": 0.8661417322834646,
          "duration": 0.010162604166680467
        },
        {
          "name": "D4",
          "midi": 62,
          "time": 129.51222750000963,
          "velocity": 0.6456692913385826,
          "duration": 0.40650416666682077
        },
        {
          "name": "A3",
          "midi": 57,
          "time": 129.51222750000963,
          "velocity": 0.5196850393700787,
          "duration": 0.3760163541668078
        },
        {
          "name": "A4",
          "midi": 69,
          "time": 129.51222750000963,
          "velocity": 0.5590551181102362,
          "duration": 0.10670734375000279
        },
        {
          "name": "E5",
          "midi": 76,
          "time": 129.5223901041763,
          "velocity": 0.8031496062992126,
          "duration": 0.10162604166666256
        },
        {
          "name": "D2",
          "midi": 38,
          "time": 129.63417875000965,
          "velocity": 1,
          "duration": 0.010162604166680467
        },
        {
          "name": "C4",
          "midi": 60,
          "time": 129.75104869792634,
          "velocity": 0.5039370078740157,
          "duration": 0.11178864583339987
        },
        {
          "name": "E5",
          "midi": 76,
          "time": 129.75613000000968,
          "velocity": 0.937007874015748,
          "duration": 0.0304878125000414
        },
        {
          "name": "A2",
          "midi": 45,
          "time": 129.75613000000968,
          "velocity": 0.7559055118110236,
          "duration": 0.29471552083350616
        },
        {
          "name": "D2",
          "midi": 38,
          "time": 129.75613000000968,
          "velocity": 1,
          "duration": 0.010162604166680467
        },
        {
          "name": "F4",
          "midi": 65,
          "time": 129.76121130209302,
          "velocity": 0.84251968503937,
          "duration": 0.15752036458343355
        },
        {
          "name": "A4",
          "midi": 69,
          "time": 129.7713739062597,
          "velocity": 0.6062992125984252,
          "duration": 0.09654473958337917
        },
        {
          "name": "E5",
          "midi": 76,
          "time": 129.77645520834304,
          "velocity": 0.7086614173228346,
          "duration": 0.08130083333335847
        },
        {
          "name": "E5",
          "midi": 76,
          "time": 129.78661781250972,
          "velocity": 0.9133858267716536,
          "duration": 0.23373989583345178
        },
        {
          "name": "D2",
          "midi": 38,
          "time": 129.87808125000976,
          "velocity": 1,
          "duration": 0.010162604166680467
        },
        {
          "name": "C4",
          "midi": 60,
          "time": 129.9847885937598,
          "velocity": 0.48031496062992124,
          "duration": 0.08130083333341531
        },
        {
          "name": "F4",
          "midi": 65,
          "time": 129.98986989584313,
          "velocity": 0.7559055118110236,
          "duration": 0.07621953125007508
        },
        {
          "name": "A4",
          "midi": 69,
          "time": 129.99495119792647,
          "velocity": 0.5748031496062992,
          "duration": 0.09146343750006736
        },
        {
          "name": "A2",
          "midi": 45,
          "time": 130.0000325000098,
          "velocity": 0.5590551181102362,
          "duration": 0.24390250000004698
        },
        {
          "name": "D2",
          "midi": 38,
          "time": 130.0000325000098,
          "velocity": 0.9212598425196851,
          "duration": 0.010162604166680467
        },
        {
          "name": "F#2",
          "midi": 42,
          "time": 130.0000325000098,
          "velocity": 0.47244094488188976,
          "duration": 0.010162604166680467
        },
        {
          "name": "F4",
          "midi": 65,
          "time": 130.0000325000098,
          "velocity": 0.5275590551181102,
          "duration": 0.06605692708339461
        },
        {
          "name": "F4",
          "midi": 65,
          "time": 130.0000325000098,
          "velocity": 0.5275590551181102,
          "duration": 0.07113822916673485
        },
        {
          "name": "D4",
          "midi": 62,
          "time": 130.0000325000098,
          "velocity": 0.5275590551181102,
          "duration": 0.06097562500005438
        },
        {
          "name": "A3",
          "midi": 57,
          "time": 130.0000325000098,
          "velocity": 0.47244094488188976,
          "duration": 0.06097562500005438
        },
        {
          "name": "E5",
          "midi": 76,
          "time": 130.0000325000098,
          "velocity": 0.7559055118110236,
          "duration": 0.1016260416667194
        },
        {
          "name": "D4",
          "midi": 62,
          "time": 130.0000325000098,
          "velocity": 0.5275590551181102,
          "duration": 0.06097562500005438
        },
        {
          "name": "E5",
          "midi": 76,
          "time": 130.03052031250985,
          "velocity": 0.8661417322834646,
          "duration": 0.15752036458334828
        },
        {
          "name": "D2",
          "midi": 38,
          "time": 130.12198375000986,
          "velocity": 1,
          "duration": 0.010162604166680467
        },
        {
          "name": "C4",
          "midi": 60,
          "time": 130.22360979167652,
          "velocity": 0.4566929133858268,
          "duration": 0.1016260416667194
        },
        {
          "name": "D#2",
          "midi": 39,
          "time": 130.24393500000986,
          "velocity": 1,
          "duration": 0.010162604166680467
        },
        {
          "name": "D5",
          "midi": 74,
          "time": 130.24393500000986,
          "velocity": 0.889763779527559,
          "duration": 0.4471545833335142
        },
        {
          "name": "F4",
          "midi": 65,
          "time": 130.24393500000986,
          "velocity": 0.8661417322834646,
          "duration": 0.08638213541672712
        },
        {
          "name": "A3",
          "midi": 57,
          "time": 130.24393500000986,
          "velocity": 0.5196850393700787,
          "duration": 0.07113822916670642
        },
        {
          "name": "B2",
          "midi": 47,
          "time": 130.24393500000986,
          "velocity": 0.5590551181102362,
          "duration": 0.24898380208344406
        },
        {
          "name": "F4",
          "midi": 65,
          "time": 130.24393500000986,
          "velocity": 0.5196850393700787,
          "duration": 0.08638213541672712
        },
        {
          "name": "F2",
          "midi": 41,
          "time": 130.24393500000986,
          "velocity": 0.7244094488188977,
          "duration": 0.27947161458345704
        },
        {
          "name": "F4",
          "midi": 65,
          "time": 130.24393500000986,
          "velocity": 0.5196850393700787,
          "duration": 0.09654473958340759
        },
        {
          "name": "D4",
          "midi": 62,
          "time": 130.24393500000986,
          "velocity": 0.5196850393700787,
          "duration": 0.08638213541672712
        },
        {
          "name": "D4",
          "midi": 62,
          "time": 130.24393500000986,
          "velocity": 0.5196850393700787,
          "duration": 0.08638213541672712
        },
        {
          "name": "A4",
          "midi": 69,
          "time": 130.25917890625988,
          "velocity": 0.6299212598425197,
          "duration": 0.08638213541672712
        },
        {
          "name": "E5",
          "midi": 76,
          "time": 130.26934151042656,
          "velocity": 0.937007874015748,
          "duration": 0.1016260416667194
        },
        {
          "name": "D2",
          "midi": 38,
          "time": 130.36588625000994,
          "velocity": 0.4251968503937008,
          "duration": 0.010162604166680467
        },
        {
          "name": "C#4",
          "midi": 61,
          "time": 130.47259359375994,
          "velocity": 0.31496062992125984,
          "duration": 0.010162604166680467
        },
        {
          "name": "G6",
          "midi": 91,
          "time": 130.47767489584328,
          "velocity": 0.2992125984251969,
          "duration": 0.005081302083340233
        },
        {
          "name": "A2",
          "midi": 45,
          "time": 130.48783750000996,
          "velocity": 0.5590551181102362,
          "duration": 0.04573171875003368
        },
        {
          "name": "F#2",
          "midi": 42,
          "time": 130.48783750000996,
          "velocity": 0.47244094488188976,
          "duration": 0.010162604166680467
        },
        {
          "name": "C4",
          "midi": 60,
          "time": 130.48783750000996,
          "velocity": 0.3700787401574803,
          "duration": 0.10670734375003121
        },
        {
          "name": "D2",
          "midi": 38,
          "time": 130.48783750000996,
          "velocity": 0.8503937007874016,
          "duration": 0.010162604166680467
        },
        {
          "name": "F4",
          "midi": 65,
          "time": 130.4929188020933,
          "velocity": 0.6771653543307087,
          "duration": 0.10670734375003121
        },
        {
          "name": "A4",
          "midi": 69,
          "time": 130.49800010417664,
          "velocity": 0.5039370078740157,
          "duration": 0.08130083333335847
        },
        {
          "name": "E5",
          "midi": 76,
          "time": 130.50308140625998,
          "velocity": 0.7322834645669292,
          "duration": 0.11686994791671168
        },
        {
          "name": "D2",
          "midi": 38,
          "time": 130.60978875001,
          "velocity": 1,
          "duration": 0.010162604166680467
        },
        {
          "name": "E1",
          "midi": 28,
          "time": 130.73174000001006,
          "velocity": 0.5590551181102362,
          "duration": 0.2743903125000884
        },
        {
          "name": "E2",
          "midi": 40,
          "time": 130.73174000001006,
          "velocity": 0.8110236220472441,
          "duration": 0.4878050000001224
        },
        {
          "name": "E4",
          "midi": 64,
          "time": 130.73174000001006,
          "velocity": 0.5039370078740157,
          "duration": 0.0863821354166987
        },
        {
          "name": "B3",
          "midi": 59,
          "time": 130.73174000001006,
          "velocity": 0.5984251968503937,
          "duration": 0.07113822916670642
        },
        {
          "name": "E4",
          "midi": 64,
          "time": 130.73174000001006,
          "velocity": 0.5039370078740157,
          "duration": 0.0863821354166987
        },
        {
          "name": "D2",
          "midi": 38,
          "time": 130.73174000001006,
          "velocity": 1,
          "duration": 0.010162604166680467
        },
        {
          "name": "G#3",
          "midi": 56,
          "time": 130.73174000001006,
          "velocity": 0.5196850393700787,
          "duration": 0.07113822916670642
        },
        {
          "name": "D5",
          "midi": 74,
          "time": 130.74698390626008,
          "velocity": 0.7874015748031497,
          "duration": 0.11178864583334303
        },
        {
          "name": "G#5",
          "midi": 80,
          "time": 130.75206520834342,
          "velocity": 0.937007874015748,
          "duration": 0.13719515625001577
        },
        {
          "name": "D2",
          "midi": 38,
          "time": 130.8536912500101,
          "velocity": 1,
          "duration": 0.010162604166680467
        },
        {
          "name": "B4",
          "midi": 71,
          "time": 130.9705611979268,
          "velocity": 0.7716535433070866,
          "duration": 0.12703255208336373
        },
        {
          "name": "D2",
          "midi": 38,
          "time": 130.97564250001014,
          "velocity": 0.9212598425196851,
          "duration": 0.010162604166680467
        },
        {
          "name": "F#2",
          "midi": 42,
          "time": 130.97564250001014,
          "velocity": 0.47244094488188976,
          "duration": 0.010162604166680467
        },
        {
          "name": "D5",
          "midi": 74,
          "time": 130.98072380209348,
          "velocity": 0.8031496062992126,
          "duration": 0.10670734375000279
        },
        {
          "name": "G#5",
          "midi": 80,
          "time": 130.99088640626016,
          "velocity": 0.937007874015748,
          "duration": 0.11178864583334303
        },
        {
          "name": "D2",
          "midi": 38,
          "time": 131.09759375001016,
          "velocity": 1,
          "duration": 0.010162604166680467
        },
        {
          "name": "B4",
          "midi": 71,
          "time": 131.21446369792685,
          "velocity": 0.7401574803149606,
          "duration": 0.1270325520833353
        },
        {
          "name": "D#2",
          "midi": 39,
          "time": 131.21954500001019,
          "velocity": 1,
          "duration": 0.010162604166680467
        },
        {
          "name": "G#5",
          "midi": 80,
          "time": 131.22970760417687,
          "velocity": 0.8976377952755905,
          "duration": 0.11686994791665484
        },
        {
          "name": "D5",
          "midi": 74,
          "time": 131.22970760417687,
          "velocity": 0.7244094488188977,
          "duration": 0.09654473958332233
        },
        {
          "name": "B4",
          "midi": 71,
          "time": 131.45836619792686,
          "velocity": 0.8976377952755905,
          "duration": 0.10670734375003121
        },
        {
          "name": "F#2",
          "midi": 42,
          "time": 131.4634475000102,
          "velocity": 0.47244094488188976,
          "duration": 0.010162604166680467
        },
        {
          "name": "E4",
          "midi": 64,
          "time": 131.4634475000102,
          "velocity": 0.5748031496062992,
          "duration": 0.3912602604167432
        },
        {
          "name": "G#2",
          "midi": 44,
          "time": 131.4634475000102,
          "velocity": 0.6850393700787402,
          "duration": 0.3201220312500652
        },
        {
          "name": "D#2",
          "midi": 39,
          "time": 131.4634475000102,
          "velocity": 0.8661417322834646,
          "duration": 0.010162604166680467
        },
        {
          "name": "E4",
          "midi": 64,
          "time": 131.4634475000102,
          "velocity": 0.5748031496062992,
          "duration": 0.3912602604167432
        },
        {
          "name": "G#3",
          "midi": 56,
          "time": 131.4634475000102,
          "velocity": 0.5039370078740157,
          "duration": 0.4065041666667639
        },
        {
          "name": "B3",
          "midi": 59,
          "time": 131.4634475000102,
          "velocity": 0.6220472440944882,
          "duration": 0.4014228645834237
        },
        {
          "name": "G#1",
          "midi": 32,
          "time": 131.4634475000102,
          "velocity": 0.5590551181102362,
          "duration": 0.213414687500034
        },
        {
          "name": "D5",
          "midi": 74,
          "time": 131.46852880209354,
          "velocity": 0.8267716535433071,
          "duration": 0.09654473958335075
        },
        {
          "name": "G#5",
          "midi": 80,
          "time": 131.47361010417688,
          "velocity": 0.937007874015748,
          "duration": 0.10670734375000279
        },
        {
          "name": "D2",
          "midi": 38,
          "time": 131.58539875001023,
          "velocity": 1,
          "duration": 0.010162604166680467
        },
        {
          "name": "B4",
          "midi": 71,
          "time": 131.7022686979269,
          "velocity": 0.7401574803149606,
          "duration": 0.12703255208336373
        },
        {
          "name": "D2",
          "midi": 38,
          "time": 131.70735000001025,
          "velocity": 1,
          "duration": 0.010162604166680467
        },
        {
          "name": "G#5",
          "midi": 80,
          "time": 131.71751260417693,
          "velocity": 0.8976377952755905,
          "duration": 0.11686994791668326
        },
        {
          "name": "D5",
          "midi": 74,
          "time": 131.71751260417693,
          "velocity": 0.7244094488188977,
          "duration": 0.09654473958335075
        },
        {
          "name": "D2",
          "midi": 38,
          "time": 131.82930125001027,
          "velocity": 1,
          "duration": 0.010162604166680467
        },
        {
          "name": "B4",
          "midi": 71,
          "time": 131.94617119792701,
          "velocity": 0.8976377952755905,
          "duration": 0.10670734375003121
        },
        {
          "name": "B2",
          "midi": 47,
          "time": 131.95125250001036,
          "velocity": 0.6062992125984252,
          "duration": 0.13211385416670396
        },
        {
          "name": "F#2",
          "midi": 42,
          "time": 131.95125250001036,
          "velocity": 0.47244094488188976,
          "duration": 0.010162604166680467
        },
        {
          "name": "E4",
          "midi": 64,
          "time": 131.95125250001036,
          "velocity": 0.48031496062992124,
          "duration": 0.10162604166669098
        },
        {
          "name": "E6",
          "midi": 88,
          "time": 131.95125250001036,
          "velocity": 0.5669291338582677,
          "duration": 0.040650416666693445
        },
        {
          "name": "G#3",
          "midi": 56,
          "time": 131.95125250001036,
          "velocity": 0.4881889763779528,
          "duration": 0.07621953125001824
        },
        {
          "name": "B1",
          "midi": 35,
          "time": 131.95125250001036,
          "velocity": 0.5590551181102362,
          "duration": 0.2997968229167327
        },
        {
          "name": "B3",
          "midi": 59,
          "time": 131.95125250001036,
          "velocity": 0.5275590551181102,
          "duration": 0.0863821354166987
        },
        {
          "name": "E4",
          "midi": 64,
          "time": 131.95125250001036,
          "velocity": 0.48031496062992124,
          "duration": 0.10162604166669098
        },
        {
          "name": "D2",
          "midi": 38,
          "time": 131.95125250001036,
          "velocity": 0.9212598425196851,
          "duration": 0.010162604166680467
        },
        {
          "name": "D5",
          "midi": 74,
          "time": 131.9563338020937,
          "velocity": 0.8267716535433071,
          "duration": 0.09654473958335075
        },
        {
          "name": "G#5",
          "midi": 80,
          "time": 131.96141510417704,
          "velocity": 0.937007874015748,
          "duration": 0.10670734375000279
        },
        {
          "name": "D2",
          "midi": 38,
          "time": 132.07320375001038,
          "velocity": 1,
          "duration": 0.010162604166680467
        },
        {
          "name": "B4",
          "midi": 71,
          "time": 132.19007369792706,
          "velocity": 0.7401574803149606,
          "duration": 0.12703255208336373
        },
        {
          "name": "D3",
          "midi": 50,
          "time": 132.1951550000104,
          "velocity": 0.6062992125984252,
          "duration": 0.1930894791667015
        },
        {
          "name": "D2",
          "midi": 38,
          "time": 132.1951550000104,
          "velocity": 0.5590551181102362,
          "duration": 0.13211385416670396
        },
        {
          "name": "E4",
          "midi": 64,
          "time": 132.1951550000104,
          "velocity": 0.2047244094488189,
          "duration": 0.03556911458335321
        },
        {
          "name": "E4",
          "midi": 64,
          "time": 132.1951550000104,
          "velocity": 0.2047244094488189,
          "duration": 0.03556911458335321
        },
        {
          "name": "G#3",
          "midi": 56,
          "time": 132.1951550000104,
          "velocity": 0.4409448818897638,
          "duration": 0.055894322916685724
        },
        {
          "name": "B4",
          "midi": 71,
          "time": 132.1951550000104,
          "velocity": 0.984251968503937,
          "duration": 0.23373989583336652
        },
        {
          "name": "B3",
          "midi": 59,
          "time": 132.1951550000104,
          "velocity": 0.49606299212598426,
          "duration": 0.055894322916685724
        },
        {
          "name": "D#2",
          "midi": 39,
          "time": 132.1951550000104,
          "velocity": 1,
          "duration": 0.010162604166680467
        },
        {
          "name": "G#5",
          "midi": 80,
          "time": 132.20531760417708,
          "velocity": 0.8976377952755905,
          "duration": 0.11686994791668326
        },
        {
          "name": "D5",
          "midi": 74,
          "time": 132.20531760417708,
          "velocity": 0.7244094488188977,
          "duration": 0.09654473958335075
        },
        {
          "name": "D2",
          "midi": 38,
          "time": 132.31710625001043,
          "velocity": 0.4251968503937008,
          "duration": 0.12703255208336373
        },
        {
          "name": "B4",
          "midi": 71,
          "time": 132.4339761979271,
          "velocity": 0.8976377952755905,
          "duration": 0.10670734375003121
        },
        {
          "name": "D2",
          "midi": 38,
          "time": 132.43905750001045,
          "velocity": 0.8503937007874016,
          "duration": 0.010162604166680467
        },
        {
          "name": "B1",
          "midi": 35,
          "time": 132.43905750001045,
          "velocity": 0.5590551181102362,
          "duration": 0.18800817708338968
        },
        {
          "name": "C5",
          "midi": 72,
          "time": 132.43905750001045,
          "velocity": 0.6771653543307087,
          "duration": 0.1575203645833767
        },
        {
          "name": "B2",
          "midi": 47,
          "time": 132.43905750001045,
          "velocity": 0.5196850393700787,
          "duration": 0.1575203645833767
        },
        {
          "name": "F#2",
          "midi": 42,
          "time": 132.43905750001045,
          "velocity": 0.47244094488188976,
          "duration": 0.010162604166680467
        },
        {
          "name": "D5",
          "midi": 74,
          "time": 132.4441388020938,
          "velocity": 0.8267716535433071,
          "duration": 0.09654473958335075
        },
        {
          "name": "G#5",
          "midi": 80,
          "time": 132.44922010417713,
          "velocity": 0.937007874015748,
          "duration": 0.10670734375000279
        },
        {
          "name": "D2",
          "midi": 38,
          "time": 132.56100875001047,
          "velocity": 1,
          "duration": 0.010162604166680467
        },
        {
          "name": "B4",
          "midi": 71,
          "time": 132.67787869792718,
          "velocity": 0.7401574803149606,
          "duration": 0.12703255208336373
        },
        {
          "name": "E2",
          "midi": 40,
          "time": 132.68296000001052,
          "velocity": 0.8110236220472441,
          "duration": 0.48780500000009397
        },
        {
          "name": "E4",
          "midi": 64,
          "time": 132.68296000001052,
          "velocity": 0.4409448818897638,
          "duration": 0.0863821354166987
        },
        {
          "name": "E1",
          "midi": 28,
          "time": 132.68296000001052,
          "velocity": 0.5590551181102362,
          "duration": 0.27439031250005996
        },
        {
          "name": "G#3",
          "midi": 56,
          "time": 132.68296000001052,
          "velocity": 0.4330708661417323,
          "duration": 0.06605692708333777
        },
        {
          "name": "D2",
          "midi": 38,
          "time": 132.68296000001052,
          "velocity": 1,
          "duration": 0.010162604166680467
        },
        {
          "name": "D5",
          "midi": 74,
          "time": 132.68296000001052,
          "velocity": 0.7165354330708661,
          "duration": 0.10670734375003121
        },
        {
          "name": "B3",
          "midi": 59,
          "time": 132.68296000001052,
          "velocity": 0.41732283464566927,
          "duration": 0.07621953125001824
        },
        {
          "name": "E4",
          "midi": 64,
          "time": 132.68296000001052,
          "velocity": 0.4409448818897638,
          "duration": 0.0863821354166987
        },
        {
          "name": "D5",
          "midi": 74,
          "time": 132.6931226041772,
          "velocity": 0.7244094488188977,
          "duration": 0.315040729166725
        },
        {
          "name": "G#5",
          "midi": 80,
          "time": 132.6931226041772,
          "velocity": 0.8976377952755905,
          "duration": 0.11686994791668326
        },
        {
          "name": "D2",
          "midi": 38,
          "time": 132.80491125001055,
          "velocity": 1,
          "duration": 0.010162604166680467
        },
        {
          "name": "B4",
          "midi": 71,
          "time": 132.92178119792723,
          "velocity": 0.8976377952755905,
          "duration": 0.10670734375003121
        },
        {
          "name": "F#2",
          "midi": 42,
          "time": 132.92686250001057,
          "velocity": 0.47244094488188976,
          "duration": 0.010162604166680467
        },
        {
          "name": "D2",
          "midi": 38,
          "time": 132.92686250001057,
          "velocity": 0.9212598425196851,
          "duration": 0.010162604166680467
        },
        {
          "name": "D5",
          "midi": 74,
          "time": 132.9319438020939,
          "velocity": 0.8267716535433071,
          "duration": 0.09654473958335075
        },
        {
          "name": "G#5",
          "midi": 80,
          "time": 132.93702510417725,
          "velocity": 0.937007874015748,
          "duration": 0.10670734375000279
        },
        {
          "name": "D2",
          "midi": 38,
          "time": 133.0488137500106,
          "velocity": 1,
          "duration": 0.010162604166680467
        },
        {
          "name": "B4",
          "midi": 71,
          "time": 133.16568369792728,
          "velocity": 0.7401574803149606,
          "duration": 0.1270325520833353
        },
        {
          "name": "D5",
          "midi": 74,
          "time": 133.17076500001062,
          "velocity": 0.8661417322834646,
          "duration": 0.10670734375000279
        },
        {
          "name": "D#2",
          "midi": 39,
          "time": 133.17076500001062,
          "velocity": 1,
          "duration": 0.010162604166680467
        },
        {
          "name": "G#5",
          "midi": 80,
          "time": 133.1809276041773,
          "velocity": 0.8976377952755905,
          "duration": 0.11686994791665484
        },
        {
          "name": "D5",
          "midi": 74,
          "time": 133.1809276041773,
          "velocity": 0.7244094488188977,
          "duration": 0.22357729166665763
        },
        {
          "name": "B4",
          "midi": 71,
          "time": 133.4095861979273,
          "velocity": 0.8976377952755905,
          "duration": 0.10670734375003121
        },
        {
          "name": "G#2",
          "midi": 44,
          "time": 133.41466750001064,
          "velocity": 0.6850393700787402,
          "duration": 0.3201220312500652
        },
        {
          "name": "E4",
          "midi": 64,
          "time": 133.41466750001064,
          "velocity": 0.5196850393700787,
          "duration": 0.3912602604167432
        },
        {
          "name": "E4",
          "midi": 64,
          "time": 133.41466750001064,
          "velocity": 0.5196850393700787,
          "duration": 0.3912602604167432
        },
        {
          "name": "D#2",
          "midi": 39,
          "time": 133.41466750001064,
          "velocity": 0.8661417322834646,
          "duration": 0.010162604166680467
        },
        {
          "name": "B3",
          "midi": 59,
          "time": 133.41466750001064,
          "velocity": 0.5433070866141733,
          "duration": 0.3658537500000705
        },
        {
          "name": "E5",
          "midi": 76,
          "time": 133.41466750001064,
          "velocity": 0.8661417322834646,
          "duration": 0.23373989583336652
        },
        {
          "name": "G#1",
          "midi": 32,
          "time": 133.41466750001064,
          "velocity": 0.5590551181102362,
          "duration": 0.213414687500034
        },
        {
          "name": "G#3",
          "midi": 56,
          "time": 133.41466750001064,
          "velocity": 0.5748031496062992,
          "duration": 0.3658537500000705
        },
        {
          "name": "F#2",
          "midi": 42,
          "time": 133.41466750001064,
          "velocity": 0.47244094488188976,
          "duration": 0.010162604166680467
        },
        {
          "name": "D5",
          "midi": 74,
          "time": 133.41974880209398,
          "velocity": 0.8267716535433071,
          "duration": 0.09654473958335075
        },
        {
          "name": "G#5",
          "midi": 80,
          "time": 133.42483010417732,
          "velocity": 0.937007874015748,
          "duration": 0.10670734375000279
        },
        {
          "name": "D2",
          "midi": 38,
          "time": 133.53661875001066,
          "velocity": 1,
          "duration": 0.010162604166680467
        },
        {
          "name": "B4",
          "midi": 71,
          "time": 133.65348869792734,
          "velocity": 0.7401574803149606,
          "duration": 0.12703255208336373
        },
        {
          "name": "D2",
          "midi": 38,
          "time": 133.65857000001068,
          "velocity": 1,
          "duration": 0.010162604166680467
        },
        {
          "name": "D5",
          "midi": 74,
          "time": 133.65857000001068,
          "velocity": 0.8346456692913385,
          "duration": 0.10670734375003121
        },
        {
          "name": "G#5",
          "midi": 80,
          "time": 133.66873260417736,
          "velocity": 0.8976377952755905,
          "duration": 0.11686994791668326
        },
        {
          "name": "D5",
          "midi": 74,
          "time": 133.66873260417736,
          "velocity": 0.7244094488188977,
          "duration": 0.23373989583336652
        },
        {
          "name": "D2",
          "midi": 38,
          "time": 133.7805212500107,
          "velocity": 1,
          "duration": 0.010162604166680467
        },
        {
          "name": "B4",
          "midi": 71,
          "time": 133.8973911979274,
          "velocity": 0.8976377952755905,
          "duration": 0.10670734375005964
        },
        {
          "name": "D2",
          "midi": 38,
          "time": 133.90247250001073,
          "velocity": 0.9212598425196851,
          "duration": 0.010162604166680467
        },
        {
          "name": "F#2",
          "midi": 42,
          "time": 133.90247250001073,
          "velocity": 0.47244094488188976,
          "duration": 0.010162604166680467
        },
        {
          "name": "B1",
          "midi": 35,
          "time": 133.90247250001073,
          "velocity": 0.5590551181102362,
          "duration": 0.29979682291676113
        },
        {
          "name": "B2",
          "midi": 47,
          "time": 133.90247250001073,
          "velocity": 0.6062992125984252,
          "duration": 0.13211385416673238
        },
        {
          "name": "B3",
          "midi": 59,
          "time": 133.90247250001073,
          "velocity": 0.5433070866141733,
          "duration": 0.055894322916685724
        },
        {
          "name": "E4",
          "midi": 64,
          "time": 133.90247250001073,
          "velocity": 0.49606299212598426,
          "duration": 0.07113822916670642
        },
        {
          "name": "G#3",
          "midi": 56,
          "time": 133.90247250001073,
          "velocity": 0.49606299212598426,
          "duration": 0.06097562500002596
        },
        {
          "name": "C5",
          "midi": 72,
          "time": 133.90247250001073,
          "velocity": 0.7165354330708661,
          "duration": 0.12195125000005191
        },
        {
          "name": "E4",
          "midi": 64,
          "time": 133.90247250001073,
          "velocity": 0.49606299212598426,
          "duration": 0.07113822916670642
        },
        {
          "name": "D5",
          "midi": 74,
          "time": 133.90755380209407,
          "velocity": 0.8267716535433071,
          "duration": 0.09654473958337917
        },
        {
          "name": "G#5",
          "midi": 80,
          "time": 133.9126351041774,
          "velocity": 0.937007874015748,
          "duration": 0.10670734375003121
        },
        {
          "name": "D2",
          "midi": 38,
          "time": 134.02442375001078,
          "velocity": 1,
          "duration": 0.010162604166680467
        },
        {
          "name": "B4",
          "midi": 71,
          "time": 134.14129369792747,
          "velocity": 0.7401574803149606,
          "duration": 0.12703255208336373
        },
        {
          "name": "B3",
          "midi": 59,
          "time": 134.1463750000108,
          "velocity": 0.5748031496062992,
          "duration": 0.05081302083334549
        },
        {
          "name": "D3",
          "midi": 50,
          "time": 134.1463750000108,
          "velocity": 0.6062992125984252,
          "duration": 0.1930894791667015
        },
        {
          "name": "E4",
          "midi": 64,
          "time": 134.1463750000108,
          "velocity": 0.4881889763779528,
          "duration": 0.06605692708336619
        },
        {
          "name": "D2",
          "midi": 38,
          "time": 134.1463750000108,
          "velocity": 0.5590551181102362,
          "duration": 0.13211385416670396
        },
        {
          "name": "E4",
          "midi": 64,
          "time": 134.1463750000108,
          "velocity": 0.4881889763779528,
          "duration": 0.06605692708336619
        },
        {
          "name": "B4",
          "midi": 71,
          "time": 134.1463750000108,
          "velocity": 0.8031496062992126,
          "duration": 0.23882119791670675
        },
        {
          "name": "D#2",
          "midi": 39,
          "time": 134.1463750000108,
          "velocity": 1,
          "duration": 0.010162604166680467
        },
        {
          "name": "G#3",
          "midi": 56,
          "time": 134.1463750000108,
          "velocity": 0.47244094488188976,
          "duration": 0.05081302083334549
        },
        {
          "name": "G#5",
          "midi": 80,
          "time": 134.1565376041775,
          "velocity": 0.8976377952755905,
          "duration": 0.11686994791668326
        },
        {
          "name": "D5",
          "midi": 74,
          "time": 134.1565376041775,
          "velocity": 0.7244094488188977,
          "duration": 0.09654473958335075
        },
        {
          "name": "D2",
          "midi": 38,
          "time": 134.26832625001083,
          "velocity": 0.4251968503937008,
          "duration": 0.12703255208336373
        },
        {
          "name": "B4",
          "midi": 71,
          "time": 134.3851961979275,
          "velocity": 0.8976377952755905,
          "duration": 0.10670734375003121
        },
        {
          "name": "B2",
          "midi": 47,
          "time": 134.39027750001085,
          "velocity": 0.5196850393700787,
          "duration": 0.1575203645833767
        },
        {
          "name": "F#2",
          "midi": 42,
          "time": 134.39027750001085,
          "velocity": 0.47244094488188976,
          "duration": 0.010162604166680467
        },
        {
          "name": "D2",
          "midi": 38,
          "time": 134.39027750001085,
          "velocity": 0.8503937007874016,
          "duration": 0.010162604166680467
        },
        {
          "name": "B1",
          "midi": 35,
          "time": 134.39027750001085,
          "velocity": 0.5590551181102362,
          "duration": 0.18800817708338968
        },
        {
          "name": "C5",
          "midi": 72,
          "time": 134.39027750001085,
          "velocity": 0.952755905511811,
          "duration": 0.20325208333338196
        },
        {
          "name": "D5",
          "midi": 74,
          "time": 134.3953588020942,
          "velocity": 0.8267716535433071,
          "duration": 0.09654473958335075
        },
        {
          "name": "G#5",
          "midi": 80,
          "time": 134.40044010417753,
          "velocity": 0.937007874015748,
          "duration": 0.10670734375000279
        },
        {
          "name": "D2",
          "midi": 38,
          "time": 134.51222875001088,
          "velocity": 1,
          "duration": 0.010162604166680467
        },
        {
          "name": "A3",
          "midi": 57,
          "time": 134.6341800000109,
          "velocity": 0.4566929133858268,
          "duration": 0.05081302083337391
        },
        {
          "name": "E4",
          "midi": 64,
          "time": 134.6341800000109,
          "velocity": 0.4094488188976378,
          "duration": 0.07113822916673485
        },
        {
          "name": "G4",
          "midi": 67,
          "time": 134.6341800000109,
          "velocity": 0.5433070866141733,
          "duration": 0.07113822916673485
        },
        {
          "name": "A2",
          "midi": 45,
          "time": 134.6341800000109,
          "velocity": 0.8110236220472441,
          "duration": 0.30995942708347
        },
        {
          "name": "A1",
          "midi": 33,
          "time": 134.6341800000109,
          "velocity": 0.5590551181102362,
          "duration": 0.25914640625012453
        },
        {
          "name": "E4",
          "midi": 64,
          "time": 134.6341800000109,
          "velocity": 0.6614173228346457,
          "duration": 0.07113822916673485
        },
        {
          "name": "C4",
          "midi": 60,
          "time": 134.6341800000109,
          "velocity": 0.48031496062992124,
          "duration": 0.06097562500005438
        },
        {
          "name": "C4",
          "midi": 60,
          "time": 134.6341800000109,
          "velocity": 0.48031496062992124,
          "duration": 0.06097562500005438
        },
        {
          "name": "D2",
          "midi": 38,
          "time": 134.6341800000109,
          "velocity": 1,
          "duration": 0.010162604166680467
        },
        {
          "name": "E4",
          "midi": 64,
          "time": 134.6341800000109,
          "velocity": 0.4094488188976378,
          "duration": 1.178862083333712
        },
        {
          "name": "C5",
          "midi": 72,
          "time": 134.63926130209424,
          "velocity": 0.8661417322834646,
          "duration": 0.09654473958340759
        },
        {
          "name": "G#4",
          "midi": 68,
          "time": 134.64434260417758,
          "velocity": 1,
          "duration": 0.03048781250001298
        },
        {
          "name": "E5",
          "midi": 76,
          "time": 134.64942390626092,
          "velocity": 0.6692913385826772,
          "duration": 0.08638213541672712
        },
        {
          "name": "B5",
          "midi": 83,
          "time": 134.65450520834426,
          "velocity": 0.8818897637795275,
          "duration": 0.08638213541672712
        },
        {
          "name": "A4",
          "midi": 69,
          "time": 134.69515562501095,
          "velocity": 0.8346456692913385,
          "duration": 0.38617895833345983
        },
        {
          "name": "D2",
          "midi": 38,
          "time": 134.75613125001098,
          "velocity": 1,
          "duration": 0.010162604166680467
        },
        {
          "name": "A4",
          "midi": 69,
          "time": 134.878082500011,
          "velocity": 0.6456692913385826,
          "duration": 1.6869922916672806
        },
        {
          "name": "G4",
          "midi": 67,
          "time": 134.878082500011,
          "velocity": 0.4094488188976378,
          "duration": 0.06097562500002596
        },
        {
          "name": "D2",
          "midi": 38,
          "time": 134.878082500011,
          "velocity": 0.9212598425196851,
          "duration": 0.010162604166680467
        },
        {
          "name": "F#2",
          "midi": 42,
          "time": 134.878082500011,
          "velocity": 0.47244094488188976,
          "duration": 0.010162604166680467
        },
        {
          "name": "C5",
          "midi": 72,
          "time": 134.88316380209434,
          "velocity": 0.8110236220472441,
          "duration": 0.10162604166669098
        },
        {
          "name": "E5",
          "midi": 76,
          "time": 134.89332640626102,
          "velocity": 0.6692913385826772,
          "duration": 0.09146343750001051
        },
        {
          "name": "B5",
          "midi": 83,
          "time": 134.89840770834437,
          "velocity": 0.8818897637795275,
          "duration": 0.09146343750001051
        },
        {
          "name": "D2",
          "midi": 38,
          "time": 135.00003375001106,
          "velocity": 1,
          "duration": 0.010162604166680467
        },
        {
          "name": "G4",
          "midi": 67,
          "time": 135.11182239584443,
          "velocity": 0.4094488188976378,
          "duration": 0.10162604166669098
        },
        {
          "name": "D#2",
          "midi": 39,
          "time": 135.1219850000111,
          "velocity": 1,
          "duration": 0.010162604166680467
        },
        {
          "name": "C2",
          "midi": 36,
          "time": 135.1219850000111,
          "velocity": 0.8110236220472441,
          "duration": 0.3150407291667534
        },
        {
          "name": "B4",
          "midi": 71,
          "time": 135.1219850000111,
          "velocity": 0.8110236220472441,
          "duration": 0.1981707812500133
        },
        {
          "name": "C5",
          "midi": 72,
          "time": 135.12706630209445,
          "velocity": 0.7874015748031497,
          "duration": 0.09654473958335075
        },
        {
          "name": "E5",
          "midi": 76,
          "time": 135.1321476041778,
          "velocity": 0.5039370078740157,
          "duration": 0.08130083333333005
        },
        {
          "name": "B5",
          "midi": 83,
          "time": 135.13722890626113,
          "velocity": 0.8818897637795275,
          "duration": 0.08638213541667028
        },
        {
          "name": "C5",
          "midi": 72,
          "time": 135.36588750001113,
          "velocity": 0.7952755905511811,
          "duration": 0.10670734375008806
        },
        {
          "name": "C4",
          "midi": 60,
          "time": 135.36588750001113,
          "velocity": 0.5748031496062992,
          "duration": 0.42174807291681304
        },
        {
          "name": "F#2",
          "midi": 42,
          "time": 135.36588750001113,
          "velocity": 0.47244094488188976,
          "duration": 0.010162604166680467
        },
        {
          "name": "D#2",
          "midi": 39,
          "time": 135.36588750001113,
          "velocity": 0.8661417322834646,
          "duration": 0.010162604166680467
        },
        {
          "name": "C4",
          "midi": 60,
          "time": 135.36588750001113,
          "velocity": 0.5748031496062992,
          "duration": 0.42174807291681304
        },
        {
          "name": "E4",
          "midi": 64,
          "time": 135.36588750001113,
          "velocity": 0.5433070866141733,
          "duration": 0.4471545833334858
        },
        {
          "name": "C5",
          "midi": 72,
          "time": 135.36588750001113,
          "velocity": 0.8503937007874016,
          "duration": 0.17784557291676606
        },
        {
          "name": "A3",
          "midi": 57,
          "time": 135.36588750001113,
          "velocity": 0.5984251968503937,
          "duration": 0.3963415625001403
        },
        {
          "name": "E4",
          "midi": 64,
          "time": 135.36588750001113,
          "velocity": 0.5433070866141733,
          "duration": 0.5589432291669141
        },
        {
          "name": "G4",
          "midi": 67,
          "time": 135.36588750001113,
          "velocity": 0.4094488188976378,
          "duration": 0.06097562500005438
        },
        {
          "name": "C2",
          "midi": 36,
          "time": 135.36588750001113,
          "velocity": 0.5590551181102362,
          "duration": 0.19308947916678676
        },
        {
          "name": "E5",
          "midi": 76,
          "time": 135.3760501041778,
          "velocity": 0.5590551181102362,
          "duration": 0.09146343750006736
        },
        {
          "name": "B5",
          "midi": 83,
          "time": 135.3862127083445,
          "velocity": 0.8818897637795275,
          "duration": 0.1016260416667194
        },
        {
          "name": "D2",
          "midi": 38,
          "time": 135.4878387500112,
          "velocity": 1,
          "duration": 0.010162604166680467
        },
        {
          "name": "G4",
          "midi": 67,
          "time": 135.59962739584458,
          "velocity": 0.5826771653543307,
          "duration": 0.09654473958335075
        },
        {
          "name": "C5",
          "midi": 72,
          "time": 135.60470869792792,
          "velocity": 0.8110236220472441,
          "duration": 0.10670734375000279
        },
        {
          "name": "E5",
          "midi": 76,
          "time": 135.60979000001126,
          "velocity": 0.6850393700787402,
          "duration": 0.11686994791665484
        },
        {
          "name": "B4",
          "midi": 71,
          "time": 135.60979000001126,
          "velocity": 0.7401574803149606,
          "duration": 0.6910570833335612
        },
        {
          "name": "E2",
          "midi": 40,
          "time": 135.60979000001126,
          "velocity": 0.8110236220472441,
          "duration": 0.28963421875008066
        },
        {
          "name": "D2",
          "midi": 38,
          "time": 135.60979000001126,
          "velocity": 1,
          "duration": 0.010162604166680467
        },
        {
          "name": "B5",
          "midi": 83,
          "time": 135.60979000001126,
          "velocity": 0.8818897637795275,
          "duration": 0.12195124999999507
        },
        {
          "name": "D2",
          "midi": 38,
          "time": 135.73174125001125,
          "velocity": 1,
          "duration": 0.010162604166680467
        },
        {
          "name": "F#4",
          "midi": 66,
          "time": 135.83336729167794,
          "velocity": 0.3700787401574803,
          "duration": 0.010162604166680467
        },
        {
          "name": "F#2",
          "midi": 42,
          "time": 135.8536925000113,
          "velocity": 0.47244094488188976,
          "duration": 0.010162604166680467
        },
        {
          "name": "C5",
          "midi": 72,
          "time": 135.8536925000113,
          "velocity": 0.8110236220472441,
          "duration": 0.10162604166674782
        },
        {
          "name": "E4",
          "midi": 64,
          "time": 135.8536925000113,
          "velocity": 0.49606299212598426,
          "duration": 0.07113822916673485
        },
        {
          "name": "E2",
          "midi": 40,
          "time": 135.8536925000113,
          "velocity": 0.5590551181102362,
          "duration": 0.27947161458345704
        },
        {
          "name": "C4",
          "midi": 60,
          "time": 135.8536925000113,
          "velocity": 0.47244094488188976,
          "duration": 0.07113822916673485
        },
        {
          "name": "E4",
          "midi": 64,
          "time": 135.8536925000113,
          "velocity": 0.49606299212598426,
          "duration": 0.3252033333334623
        },
        {
          "name": "C4",
          "midi": 60,
          "time": 135.8536925000113,
          "velocity": 0.47244094488188976,
          "duration": 0.07113822916673485
        },
        {
          "name": "A3",
          "midi": 57,
          "time": 135.8536925000113,
          "velocity": 0.4330708661417323,
          "duration": 0.055894322916714145
        },
        {
          "name": "D2",
          "midi": 38,
          "time": 135.8536925000113,
          "velocity": 0.9212598425196851,
          "duration": 0.010162604166680467
        },
        {
          "name": "G4",
          "midi": 67,
          "time": 135.8536925000113,
          "velocity": 0.5196850393700787,
          "duration": 0.09146343750006736
        },
        {
          "name": "E5",
          "midi": 76,
          "time": 135.8536925000113,
          "velocity": 0.6614173228346457,
          "duration": 0.10162604166674782
        },
        {
          "name": "B5",
          "midi": 83,
          "time": 135.863855104178,
          "velocity": 0.8818897637795275,
          "duration": 0.12195125000008034
        },
        {
          "name": "D2",
          "midi": 38,
          "time": 135.9756437500114,
          "velocity": 1,
          "duration": 0.010162604166680467
        },
        {
          "name": "G4",
          "midi": 67,
          "time": 136.07726979167808,
          "velocity": 0.49606299212598426,
          "duration": 0.1371951562500442
        },
        {
          "name": "C2",
          "midi": 36,
          "time": 136.0975950000114,
          "velocity": 0.8110236220472441,
          "duration": 0.27439031250014523
        },
        {
          "name": "E4",
          "midi": 64,
          "time": 136.0975950000114,
          "velocity": 0.5039370078740157,
          "duration": 0.08130083333335847
        },
        {
          "name": "A3",
          "midi": 57,
          "time": 136.0975950000114,
          "velocity": 0.5196850393700787,
          "duration": 0.071138229166678
        },
        {
          "name": "C4",
          "midi": 60,
          "time": 136.0975950000114,
          "velocity": 0.4566929133858268,
          "duration": 0.071138229166678
        },
        {
          "name": "D#2",
          "midi": 39,
          "time": 136.0975950000114,
          "velocity": 1,
          "duration": 0.010162604166680467
        },
        {
          "name": "E4",
          "midi": 64,
          "time": 136.0975950000114,
          "velocity": 0.5039370078740157,
          "duration": 0.12195125000005191
        },
        {
          "name": "C5",
          "midi": 72,
          "time": 136.0975950000114,
          "velocity": 0.7559055118110236,
          "duration": 0.11686994791671168
        },
        {
          "name": "F#2",
          "midi": 42,
          "time": 136.0975950000114,
          "velocity": 0.5590551181102362,
          "duration": 0.22865859375008313
        },
        {
          "name": "C4",
          "midi": 60,
          "time": 136.0975950000114,
          "velocity": 0.4566929133858268,
          "duration": 0.071138229166678
        },
        {
          "name": "E5",
          "midi": 76,
          "time": 136.11283890626143,
          "velocity": 0.6614173228346457,
          "duration": 0.10162604166669098
        },
        {
          "name": "B5",
          "midi": 83,
          "time": 136.11792020834477,
          "velocity": 0.8818897637795275,
          "duration": 0.09146343750001051
        },
        {
          "name": "D2",
          "midi": 38,
          "time": 136.21954625001146,
          "velocity": 0.4251968503937008,
          "duration": 0.010162604166680467
        },
        {
          "name": "G4",
          "midi": 67,
          "time": 136.33133489584483,
          "velocity": 0.3464566929133858,
          "duration": 0.025406510416701167
        },
        {
          "name": "F#2",
          "midi": 42,
          "time": 136.3414975000115,
          "velocity": 0.47244094488188976,
          "duration": 0.010162604166680467
        },
        {
          "name": "C5",
          "midi": 72,
          "time": 136.3414975000115,
          "velocity": 0.84251968503937,
          "duration": 0.1168699479167401
        },
        {
          "name": "D2",
          "midi": 38,
          "time": 136.3414975000115,
          "velocity": 0.8503937007874016,
          "duration": 0.010162604166680467
        },
        {
          "name": "A4",
          "midi": 69,
          "time": 136.3414975000115,
          "velocity": 0.8661417322834646,
          "duration": 0.24390250000010383
        },
        {
          "name": "E2",
          "midi": 40,
          "time": 136.3414975000115,
          "velocity": 0.5590551181102362,
          "duration": 0.21341468750009085
        },
        {
          "name": "E5",
          "midi": 76,
          "time": 136.34657880209485,
          "velocity": 0.5748031496062992,
          "duration": 0.1168699479167401
        },
        {
          "name": "B5",
          "midi": 83,
          "time": 136.3516601041782,
          "velocity": 0.8818897637795275,
          "duration": 0.10670734375005964
        },
        {
          "name": "D2",
          "midi": 38,
          "time": 136.4634487500116,
          "velocity": 1,
          "duration": 0.010162604166680467
        },
        {
          "name": "A2",
          "midi": 45,
          "time": 136.58540000001162,
          "velocity": 0.7874015748031497,
          "duration": 0.3048781250001298
        },
        {
          "name": "C4",
          "midi": 60,
          "time": 136.58540000001162,
          "velocity": 0.5275590551181102,
          "duration": 0.07621953125004666
        },
        {
          "name": "D2",
          "midi": 38,
          "time": 136.58540000001162,
          "velocity": 1,
          "duration": 0.010162604166680467
        },
        {
          "name": "A3",
          "midi": 57,
          "time": 136.58540000001162,
          "velocity": 0.5275590551181102,
          "duration": 0.06605692708336619
        },
        {
          "name": "E4",
          "midi": 64,
          "time": 136.58540000001162,
          "velocity": 0.5196850393700787,
          "duration": 0.08130083333338689
        },
        {
          "name": "A1",
          "midi": 33,
          "time": 136.58540000001162,
          "velocity": 0.5590551181102362,
          "duration": 0.2743903125001168
        },
        {
          "name": "G4",
          "midi": 67,
          "time": 136.58540000001162,
          "velocity": 0.6929133858267716,
          "duration": 0.11178864583339987
        },
        {
          "name": "E4",
          "midi": 64,
          "time": 136.58540000001162,
          "velocity": 0.6377952755905512,
          "duration": 0.08130083333338689
        },
        {
          "name": "E4",
          "midi": 64,
          "time": 136.58540000001162,
          "velocity": 0.5196850393700787,
          "duration": 0.9146343750003325
        },
        {
          "name": "C4",
          "midi": 60,
          "time": 136.58540000001162,
          "velocity": 0.5275590551181102,
          "duration": 0.07621953125004666
        },
        {
          "name": "C5",
          "midi": 72,
          "time": 136.5955626041783,
          "velocity": 0.8267716535433071,
          "duration": 0.11178864583339987
        },
        {
          "name": "E5",
          "midi": 76,
          "time": 136.5955626041783,
          "velocity": 0.8188976377952756,
          "duration": 0.1321138541667608
        },
        {
          "name": "B5",
          "midi": 83,
          "time": 136.60572520834498,
          "velocity": 0.8818897637795275,
          "duration": 0.12195125000008034
        },
        {
          "name": "D2",
          "midi": 38,
          "time": 136.7073512500117,
          "velocity": 1,
          "duration": 0.010162604166680467
        },
        {
          "name": "F#4",
          "midi": 66,
          "time": 136.82422119792838,
          "velocity": 0.28346456692913385,
          "duration": 0.005081302083340233
        },
        {
          "name": "G4",
          "midi": 67,
          "time": 136.82930250001172,
          "velocity": 0.49606299212598426,
          "duration": 0.08130083333335847
        },
        {
          "name": "D2",
          "midi": 38,
          "time": 136.82930250001172,
          "velocity": 0.9212598425196851,
          "duration": 0.010162604166680467
        },
        {
          "name": "A4",
          "midi": 69,
          "time": 136.82930250001172,
          "velocity": 0.9606299212598425,
          "duration": 0.17276427083342583
        },
        {
          "name": "F#2",
          "midi": 42,
          "time": 136.82930250001172,
          "velocity": 0.47244094488188976,
          "duration": 0.010162604166680467
        },
        {
          "name": "C5",
          "midi": 72,
          "time": 136.83438380209506,
          "velocity": 0.8503937007874016,
          "duration": 0.10670734375003121
        },
        {
          "name": "E5",
          "midi": 76,
          "time": 136.8394651041784,
          "velocity": 0.6456692913385826,
          "duration": 0.13211385416673238
        },
        {
          "name": "B5",
          "midi": 83,
          "time": 136.84454640626174,
          "velocity": 0.8582677165354331,
          "duration": 0.11686994791671168
        },
        {
          "name": "D2",
          "midi": 38,
          "time": 136.95125375001177,
          "velocity": 1,
          "duration": 0.010162604166680467
        },
        {
          "name": "G4",
          "midi": 67,
          "time": 137.06812369792848,
          "velocity": 0.48031496062992124,
          "duration": 0.0152439062500207
        },
        {
          "name": "D#2",
          "midi": 39,
          "time": 137.07320500001182,
          "velocity": 1,
          "duration": 0.010162604166680467
        },
        {
          "name": "B4",
          "midi": 71,
          "time": 137.07320500001182,
          "velocity": 0.7874015748031497,
          "duration": 0.20325208333335354
        },
        {
          "name": "C5",
          "midi": 72,
          "time": 137.07320500001182,
          "velocity": 0.8267716535433071,
          "duration": 0.11686994791668326
        },
        {
          "name": "C2",
          "midi": 36,
          "time": 137.07320500001182,
          "velocity": 0.84251968503937,
          "duration": 0.32520333333340545
        },
        {
          "name": "E5",
          "midi": 76,
          "time": 137.07828630209517,
          "velocity": 0.6377952755905512,
          "duration": 0.11178864583334303
        },
        {
          "name": "B5",
          "midi": 83,
          "time": 137.0833676041785,
          "velocity": 0.8818897637795275,
          "duration": 0.11686994791668326
        },
        {
          "name": "G4",
          "midi": 67,
          "time": 137.3069448958452,
          "velocity": 0.5826771653543307,
          "duration": 0.11686994791671168
        },
        {
          "name": "C5",
          "midi": 72,
          "time": 137.31202619792853,
          "velocity": 0.7637795275590551,
          "duration": 0.12195125000005191
        },
        {
          "name": "D#2",
          "midi": 39,
          "time": 137.31710750001187,
          "velocity": 0.8661417322834646,
          "duration": 0.010162604166680467
        },
        {
          "name": "E4",
          "midi": 64,
          "time": 137.31710750001187,
          "velocity": 0.6220472440944882,
          "duration": 0.370935052083496
        },
        {
          "name": "F#2",
          "midi": 42,
          "time": 137.31710750001187,
          "velocity": 0.47244094488188976,
          "duration": 0.010162604166680467
        },
        {
          "name": "C4",
          "midi": 60,
          "time": 137.31710750001187,
          "velocity": 0.6220472440944882,
          "duration": 0.36585375000015574
        },
        {
          "name": "C2",
          "midi": 36,
          "time": 137.31710750001187,
          "velocity": 0.5590551181102362,
          "duration": 0.21341468750006243
        },
        {
          "name": "C5",
          "midi": 72,
          "time": 137.31710750001187,
          "velocity": 0.8346456692913385,
          "duration": 0.19817078125007015
        },
        {
          "name": "C4",
          "midi": 60,
          "time": 137.31710750001187,
          "velocity": 0.6220472440944882,
          "duration": 0.36585375000015574
        },
        {
          "name": "E5",
          "midi": 76,
          "time": 137.31710750001187,
          "velocity": 0.6141732283464567,
          "duration": 0.10670734375003121
        },
        {
          "name": "A3",
          "midi": 57,
          "time": 137.31710750001187,
          "velocity": 0.5748031496062992,
          "duration": 0.3455285416667948
        },
        {
          "name": "E4",
          "midi": 64,
          "time": 137.31710750001187,
          "velocity": 0.6220472440944882,
          "duration": 0.370935052083496
        },
        {
          "name": "B5",
          "midi": 83,
          "time": 137.32727010417855,
          "velocity": 0.8346456692913385,
          "duration": 0.10162604166669098
        },
        {
          "name": "D2",
          "midi": 38,
          "time": 137.43905875001192,
          "velocity": 1,
          "duration": 0.010162604166680467
        },
        {
          "name": "G4",
          "midi": 67,
          "time": 137.5559286979286,
          "velocity": 0.5590551181102362,
          "duration": 0.11178864583339987
        },
        {
          "name": "E2",
          "midi": 40,
          "time": 137.56101000001195,
          "velocity": 0.7559055118110236,
          "duration": 0.3201220312501505
        },
        {
          "name": "B4",
          "midi": 71,
          "time": 137.56101000001195,
          "velocity": 0.8110236220472441,
          "duration": 0.5436993229168934
        },
        {
          "name": "D2",
          "midi": 38,
          "time": 137.56101000001195,
          "velocity": 1,
          "duration": 0.010162604166680467
        },
        {
          "name": "C5",
          "midi": 72,
          "time": 137.5660913020953,
          "velocity": 0.8110236220472441,
          "duration": 0.09654473958337917
        },
        {
          "name": "E5",
          "midi": 76,
          "time": 137.57625390626197,
          "velocity": 0.6692913385826772,
          "duration": 0.09654473958337917
        },
        {
          "name": "B5",
          "midi": 83,
          "time": 137.5813352083453,
          "velocity": 0.7322834645669292,
          "duration": 0.010162604166680467
        },
        {
          "name": "B5",
          "midi": 83,
          "time": 137.591497812512,
          "velocity": 0.8818897637795275,
          "duration": 0.071138229166678
        },
        {
          "name": "D2",
          "midi": 38,
          "time": 137.68296125001203,
          "velocity": 1,
          "duration": 0.010162604166680467
        },
        {
          "name": "G4",
          "midi": 67,
          "time": 137.78966859376203,
          "velocity": 0.5275590551181102,
          "duration": 0.08130083333338689
        },
        {
          "name": "C5",
          "midi": 72,
          "time": 137.79474989584537,
          "velocity": 0.7559055118110236,
          "duration": 0.08130083333338689
        },
        {
          "name": "E5",
          "midi": 76,
          "time": 137.7998311979287,
          "velocity": 0.6377952755905512,
          "duration": 0.09146343750006736
        },
        {
          "name": "D2",
          "midi": 38,
          "time": 137.80491250001205,
          "velocity": 0.9212598425196851,
          "duration": 0.010162604166680467
        },
        {
          "name": "C4",
          "midi": 60,
          "time": 137.80491250001205,
          "velocity": 0.5590551181102362,
          "duration": 0.06605692708336619
        },
        {
          "name": "C4",
          "midi": 60,
          "time": 137.80491250001205,
          "velocity": 0.5590551181102362,
          "duration": 0.06605692708336619
        },
        {
          "name": "E2",
          "midi": 40,
          "time": 137.80491250001205,
          "velocity": 0.5590551181102362,
          "duration": 0.29979682291678955
        },
        {
          "name": "E4",
          "midi": 64,
          "time": 137.80491250001205,
          "velocity": 0.5196850393700787,
          "duration": 0.06605692708336619
        },
        {
          "name": "E4",
          "midi": 64,
          "time": 137.80491250001205,
          "velocity": 0.5196850393700787,
          "duration": 0.06605692708336619
        },
        {
          "name": "F#2",
          "midi": 42,
          "time": 137.80491250001205,
          "velocity": 0.47244094488188976,
          "duration": 0.010162604166680467
        },
        {
          "name": "A3",
          "midi": 57,
          "time": 137.80491250001205,
          "velocity": 0.49606299212598426,
          "duration": 0.06097562500002596
        },
        {
          "name": "B5",
          "midi": 83,
          "time": 137.81507510417873,
          "velocity": 0.8818897637795275,
          "duration": 0.07113822916670642
        },
        {
          "name": "D2",
          "midi": 38,
          "time": 137.9268637500121,
          "velocity": 1,
          "duration": 0.010162604166680467
        },
        {
          "name": "G4",
          "midi": 67,
          "time": 138.0284897916788,
          "velocity": 0.5039370078740157,
          "duration": 0.1016260416667194
        },
        {
          "name": "D#2",
          "midi": 39,
          "time": 138.04881500001213,
          "velocity": 1,
          "duration": 0.010162604166680467
        },
        {
          "name": "F#2",
          "midi": 42,
          "time": 138.04881500001213,
          "velocity": 0.5590551181102362,
          "duration": 0.24898380208341564
        },
        {
          "name": "C5",
          "midi": 72,
          "time": 138.04881500001213,
          "velocity": 0.7716535433070866,
          "duration": 0.09654473958337917
        },
        {
          "name": "A3",
          "midi": 57,
          "time": 138.04881500001213,
          "velocity": 0.5590551181102362,
          "duration": 0.09654473958337917
        },
        {
          "name": "C4",
          "midi": 60,
          "time": 138.04881500001213,
          "velocity": 0.5748031496062992,
          "duration": 0.09654473958337917
        },
        {
          "name": "E4",
          "midi": 64,
          "time": 138.04881500001213,
          "velocity": 0.5748031496062992,
          "duration": 0.10670734375005964
        },
        {
          "name": "C2",
          "midi": 36,
          "time": 138.04881500001213,
          "velocity": 0.7244094488188977,
          "duration": 0.19308947916672992
        },
        {
          "name": "C4",
          "midi": 60,
          "time": 138.04881500001213,
          "velocity": 0.5748031496062992,
          "duration": 0.09654473958337917
        },
        {
          "name": "E4",
          "midi": 64,
          "time": 138.04881500001213,
          "velocity": 0.5748031496062992,
          "duration": 0.10670734375005964
        },
        {
          "name": "E5",
          "midi": 76,
          "time": 138.06405890626215,
          "velocity": 0.6929133858267716,
          "duration": 0.0863821354166987
        },
        {
          "name": "B5",
          "midi": 83,
          "time": 138.07422151042883,
          "velocity": 0.8818897637795275,
          "duration": 0.10162604166669098
        },
        {
          "name": "D2",
          "midi": 38,
          "time": 138.17076625001218,
          "velocity": 0.4251968503937008,
          "duration": 0.010162604166680467
        },
        {
          "name": "G#4",
          "midi": 68,
          "time": 138.27747359376218,
          "velocity": 0.3464566929133858,
          "duration": 0.010162604166680467
        },
        {
          "name": "E2",
          "midi": 40,
          "time": 138.2927175000122,
          "velocity": 0.5590551181102362,
          "duration": 0.18800817708336126
        },
        {
          "name": "G4",
          "midi": 67,
          "time": 138.2927175000122,
          "velocity": 0.4094488188976378,
          "duration": 0.10670734375000279
        },
        {
          "name": "D2",
          "midi": 38,
          "time": 138.2927175000122,
          "velocity": 0.8503937007874016,
          "duration": 0.010162604166680467
        },
        {
          "name": "F#2",
          "midi": 42,
          "time": 138.2927175000122,
          "velocity": 0.47244094488188976,
          "duration": 0.010162604166680467
        },
        {
          "name": "C5",
          "midi": 72,
          "time": 138.29779880209554,
          "velocity": 0.7637795275590551,
          "duration": 0.10670734375000279
        },
        {
          "name": "E5",
          "midi": 76,
          "time": 138.30288010417888,
          "velocity": 0.5590551181102362,
          "duration": 0.08130083333333005
        },
        {
          "name": "B5",
          "midi": 83,
          "time": 138.30796140626222,
          "velocity": 0.7637795275590551,
          "duration": 0.11686994791668326
        },
        {
          "name": "D2",
          "midi": 38,
          "time": 138.41466875001223,
          "velocity": 1,
          "duration": 0.010162604166680467
        },
        {
          "name": "D4",
          "midi": 62,
          "time": 138.53662000001222,
          "velocity": 0.5748031496062992,
          "duration": 0.03556911458335321
        },
        {
          "name": "A4",
          "midi": 69,
          "time": 138.53662000001222,
          "velocity": 0.6220472440944882,
          "duration": 0.1016260416667194
        },
        {
          "name": "A3",
          "midi": 57,
          "time": 138.53662000001222,
          "velocity": 0.5433070866141733,
          "duration": 0.05081302083337391
        },
        {
          "name": "D2",
          "midi": 38,
          "time": 138.53662000001222,
          "velocity": 0.8110236220472441,
          "duration": 0.010162604166680467
        },
        {
          "name": "C4",
          "midi": 60,
          "time": 138.53662000001222,
          "velocity": 0.4881889763779528,
          "duration": 0.07621953125004666
        },
        {
          "name": "D4",
          "midi": 62,
          "time": 138.53662000001222,
          "velocity": 0.5748031496062992,
          "duration": 0.03556911458335321
        },
        {
          "name": "F4",
          "midi": 65,
          "time": 138.53662000001222,
          "velocity": 0.6614173228346457,
          "duration": 0.04573171875003368
        },
        {
          "name": "F4",
          "midi": 65,
          "time": 138.53662000001222,
          "velocity": 0.6614173228346457,
          "duration": 0.04573171875003368
        },
        {
          "name": "D2",
          "midi": 38,
          "time": 138.53662000001222,
          "velocity": 0.5590551181102362,
          "duration": 0.1321138541667608
        },
        {
          "name": "D2",
          "midi": 38,
          "time": 138.53662000001222,
          "velocity": 1,
          "duration": 0.2540651041667559
        },
        {
          "name": "F4",
          "midi": 65,
          "time": 138.54170130209556,
          "velocity": 0.9212598425196851,
          "duration": 0.09654473958337917
        },
        {
          "name": "E5",
          "midi": 76,
          "time": 138.55694520834558,
          "velocity": 0.937007874015748,
          "duration": 0.09146343750003894
        },
        {
          "name": "A4",
          "midi": 69,
          "time": 138.55694520834558,
          "velocity": 0.6062992125984252,
          "duration": 0.16768296875005717
        },
        {
          "name": "D2",
          "midi": 38,
          "time": 138.6585712500123,
          "velocity": 1,
          "duration": 0.16768296875002875
        },
        {
          "name": "D2",
          "midi": 38,
          "time": 138.7805225000123,
          "velocity": 0.9212598425196851,
          "duration": 0.11178864583337145
        },
        {
          "name": "F#2",
          "midi": 42,
          "time": 138.7805225000123,
          "velocity": 0.47244094488188976,
          "duration": 0.010162604166680467
        },
        {
          "name": "E5",
          "midi": 76,
          "time": 138.7805225000123,
          "velocity": 0.9133858267716536,
          "duration": 0.010162604166680467
        },
        {
          "name": "D5",
          "midi": 74,
          "time": 138.7805225000123,
          "velocity": 0.7716535433070866,
          "duration": 0.16260166666674536
        },
        {
          "name": "F4",
          "midi": 65,
          "time": 138.78560380209564,
          "velocity": 0.9212598425196851,
          "duration": 0.10162604166669098
        },
        {
          "name": "A4",
          "midi": 69,
          "time": 138.79576640626232,
          "velocity": 0.6062992125984252,
          "duration": 0.09146343750001051
        },
        {
          "name": "E5",
          "midi": 76,
          "time": 138.80084770834566,
          "velocity": 0.937007874015748,
          "duration": 0.09146343750001051
        },
        {
          "name": "D2",
          "midi": 38,
          "time": 138.90247375001235,
          "velocity": 1,
          "duration": 0.010162604166680467
        },
        {
          "name": "C4",
          "midi": 60,
          "time": 139.01426239584572,
          "velocity": 0.3700787401574803,
          "duration": 0.1016260416667194
        },
        {
          "name": "D#2",
          "midi": 39,
          "time": 139.0244250000124,
          "velocity": 1,
          "duration": 0.010162604166680467
        },
        {
          "name": "E5",
          "midi": 76,
          "time": 139.0244250000124,
          "velocity": 1,
          "duration": 0.1016260416667194
        },
        {
          "name": "F2",
          "midi": 41,
          "time": 139.0244250000124,
          "velocity": 0.8110236220472441,
          "duration": 0.3099594270834132
        },
        {
          "name": "F4",
          "midi": 65,
          "time": 139.02950630209574,
          "velocity": 0.8503937007874016,
          "duration": 0.09654473958337917
        },
        {
          "name": "A4",
          "midi": 69,
          "time": 139.03966890626242,
          "velocity": 0.4566929133858268,
          "duration": 0.0863821354166987
        },
        {
          "name": "E5",
          "midi": 76,
          "time": 139.04475020834576,
          "velocity": 0.937007874015748,
          "duration": 0.18292687500002103
        },
        {
          "name": "A3",
          "midi": 57,
          "time": 139.26832750001245,
          "velocity": 0.6220472440944882,
          "duration": 0.5945123437501252
        },
        {
          "name": "D4",
          "midi": 62,
          "time": 139.26832750001245,
          "velocity": 0.6850393700787402,
          "duration": 0.5945123437501252
        },
        {
          "name": "D4",
          "midi": 62,
          "time": 139.26832750001245,
          "velocity": 0.6850393700787402,
          "duration": 0.5945123437501252
        },
        {
          "name": "F#2",
          "midi": 42,
          "time": 139.26832750001245,
          "velocity": 0.47244094488188976,
          "duration": 0.010162604166680467
        },
        {
          "name": "F4",
          "midi": 65,
          "time": 139.26832750001245,
          "velocity": 0.7322834645669292,
          "duration": 0.10670734375003121
        },
        {
          "name": "E5",
          "midi": 76,
          "time": 139.26832750001245,
          "velocity": 0.7244094488188977,
          "duration": 0.005081302083340233
        },
        {
          "name": "F5",
          "midi": 77,
          "time": 139.26832750001245,
          "velocity": 0.9291338582677166,
          "duration": 0.1930894791667015
        },
        {
          "name": "F4",
          "midi": 65,
          "time": 139.26832750001245,
          "velocity": 0.6456692913385826,
          "duration": 0.34552854166673796
        },
        {
          "name": "F4",
          "midi": 65,
          "time": 139.26832750001245,
          "velocity": 0.6456692913385826,
          "duration": 0.589431041666785
        },
        {
          "name": "D#2",
          "midi": 39,
          "time": 139.26832750001245,
          "velocity": 0.8661417322834646,
          "duration": 0.010162604166680467
        },
        {
          "name": "F2",
          "midi": 41,
          "time": 139.26832750001245,
          "velocity": 0.5590551181102362,
          "duration": 0.2642277083334079
        },
        {
          "name": "A4",
          "midi": 69,
          "time": 139.27849010417913,
          "velocity": 0.5039370078740157,
          "duration": 0.09146343750001051
        },
        {
          "name": "E5",
          "midi": 76,
          "time": 139.2886527083458,
          "velocity": 0.8661417322834646,
          "duration": 0.10162604166666256
        },
        {
          "name": "D2",
          "midi": 38,
          "time": 139.39027875001247,
          "velocity": 1,
          "duration": 0.010162604166680467
        },
        {
          "name": "C4",
          "midi": 60,
          "time": 139.5020673958458,
          "velocity": 0.5275590551181102,
          "duration": 0.09654473958337917
        },
        {
          "name": "F4",
          "midi": 65,
          "time": 139.50714869792915,
          "velocity": 0.7322834645669292,
          "duration": 0.3658537500000989
        },
        {
          "name": "D2",
          "midi": 38,
          "time": 139.5122300000125,
          "velocity": 1,
          "duration": 0.010162604166680467
        },
        {
          "name": "E5",
          "midi": 76,
          "time": 139.5122300000125,
          "velocity": 0.8818897637795275,
          "duration": 0.12195125000002349
        },
        {
          "name": "E5",
          "midi": 76,
          "time": 139.5122300000125,
          "velocity": 1,
          "duration": 0.37601635416677937
        },
        {
          "name": "A4",
          "midi": 69,
          "time": 139.5122300000125,
          "velocity": 0.6220472440944882,
          "duration": 0.11686994791668326
        },
        {
          "name": "A2",
          "midi": 45,
          "time": 139.5122300000125,
          "velocity": 0.8110236220472441,
          "duration": 0.2997968229167327
        },
        {
          "name": "D2",
          "midi": 38,
          "time": 139.63418125001252,
          "velocity": 1,
          "duration": 0.010162604166680467
        },
        {
          "name": "B3",
          "midi": 59,
          "time": 139.7358072916792,
          "velocity": 0.5590551181102362,
          "duration": 0.025406510416672745
        },
        {
          "name": "A4",
          "midi": 69,
          "time": 139.75613250001254,
          "velocity": 0.5984251968503937,
          "duration": 0.10162604166669098
        },
        {
          "name": "F#2",
          "midi": 42,
          "time": 139.75613250001254,
          "velocity": 0.47244094488188976,
          "duration": 0.010162604166680467
        },
        {
          "name": "F4",
          "midi": 65,
          "time": 139.75613250001254,
          "velocity": 0.9212598425196851,
          "duration": 0.11686994791671168
        },
        {
          "name": "A2",
          "midi": 45,
          "time": 139.75613250001254,
          "velocity": 0.5590551181102362,
          "duration": 0.2439025000000754
        },
        {
          "name": "C4",
          "midi": 60,
          "time": 139.75613250001254,
          "velocity": 0.47244094488188976,
          "duration": 0.09146343750001051
        },
        {
          "name": "D2",
          "midi": 38,
          "time": 139.75613250001254,
          "velocity": 0.9212598425196851,
          "duration": 0.010162604166680467
        },
        {
          "name": "E5",
          "midi": 76,
          "time": 139.76629510417922,
          "velocity": 0.8818897637795275,
          "duration": 0.3455285416667664
        },
        {
          "name": "D2",
          "midi": 38,
          "time": 139.8780837500126,
          "velocity": 1,
          "duration": 0.010162604166680467
        },
        {
          "name": "C4",
          "midi": 60,
          "time": 139.97970979167928,
          "velocity": 0.44881889763779526,
          "duration": 0.1371951562500442
        },
        {
          "name": "F4",
          "midi": 65,
          "time": 140.00003500001262,
          "velocity": 0.6456692913385826,
          "duration": 0.07113822916670642
        },
        {
          "name": "B2",
          "midi": 47,
          "time": 140.00003500001262,
          "velocity": 0.5590551181102362,
          "duration": 0.21849598958340266
        },
        {
          "name": "F4",
          "midi": 65,
          "time": 140.00003500001262,
          "velocity": 0.6456692913385826,
          "duration": 0.07113822916670642
        },
        {
          "name": "D4",
          "midi": 62,
          "time": 140.00003500001262,
          "velocity": 0.5590551181102362,
          "duration": 0.06605692708336619
        },
        {
          "name": "D4",
          "midi": 62,
          "time": 140.00003500001262,
          "velocity": 0.5590551181102362,
          "duration": 0.06605692708336619
        },
        {
          "name": "F2",
          "midi": 41,
          "time": 140.00003500001262,
          "velocity": 0.8110236220472441,
          "duration": 0.35569114583341843
        },
        {
          "name": "F4",
          "midi": 65,
          "time": 140.00003500001262,
          "velocity": 0.8661417322834646,
          "duration": 0.11686994791671168
        },
        {
          "name": "A3",
          "midi": 57,
          "time": 140.00003500001262,
          "velocity": 0.5748031496062992,
          "duration": 0.07113822916670642
        },
        {
          "name": "D#2",
          "midi": 39,
          "time": 140.00003500001262,
          "velocity": 1,
          "duration": 0.010162604166680467
        },
        {
          "name": "A4",
          "midi": 69,
          "time": 140.01527890626264,
          "velocity": 0.5984251968503937,
          "duration": 0.10162604166669098
        },
        {
          "name": "E5",
          "midi": 76,
          "time": 140.02036020834598,
          "velocity": 0.9291338582677166,
          "duration": 0.16260166666671694
        },
        {
          "name": "D2",
          "midi": 38,
          "time": 140.12198625001267,
          "velocity": 0.4251968503937008,
          "duration": 0.010162604166680467
        },
        {
          "name": "C4",
          "midi": 60,
          "time": 140.233774895846,
          "velocity": 0.31496062992125984,
          "duration": 0.025406510416701167
        },
        {
          "name": "A2",
          "midi": 45,
          "time": 140.2439375000127,
          "velocity": 0.5590551181102362,
          "duration": 0.22865859375002628
        },
        {
          "name": "D5",
          "midi": 74,
          "time": 140.2439375000127,
          "velocity": 0.8110236220472441,
          "duration": 0.24390250000001856
        },
        {
          "name": "F4",
          "midi": 65,
          "time": 140.2439375000127,
          "velocity": 0.8110236220472441,
          "duration": 0.11686994791668326
        },
        {
          "name": "F#2",
          "midi": 42,
          "time": 140.2439375000127,
          "velocity": 0.47244094488188976,
          "duration": 0.010162604166680467
        },
        {
          "name": "D2",
          "midi": 38,
          "time": 140.2439375000127,
          "velocity": 0.8503937007874016,
          "duration": 0.010162604166680467
        },
        {
          "name": "A4",
          "midi": 69,
          "time": 140.24901880209603,
          "velocity": 0.5196850393700787,
          "duration": 0.11686994791668326
        },
        {
          "name": "E5",
          "midi": 76,
          "time": 140.25410010417937,
          "velocity": 0.937007874015748,
          "duration": 0.10670734375000279
        },
        {
          "name": "D2",
          "midi": 38,
          "time": 140.36588875001272,
          "velocity": 1,
          "duration": 0.010162604166680467
        },
        {
          "name": "D2",
          "midi": 38,
          "time": 140.4878400000127,
          "velocity": 0.8110236220472441,
          "duration": 0.010162604166680467
        },
        {
          "name": "C4",
          "midi": 60,
          "time": 140.4878400000127,
          "velocity": 0.6299212598425197,
          "duration": 0.11178864583339987
        },
        {
          "name": "A3",
          "midi": 57,
          "time": 140.4878400000127,
          "velocity": 0.2992125984251969,
          "duration": 0.05081302083337391
        },
        {
          "name": "D2",
          "midi": 38,
          "time": 140.4878400000127,
          "velocity": 0.5590551181102362,
          "duration": 0.1321138541667608
        },
        {
          "name": "D4",
          "midi": 62,
          "time": 140.4878400000127,
          "velocity": 0.48031496062992124,
          "duration": 0.06097562500005438
        },
        {
          "name": "D4",
          "midi": 62,
          "time": 140.4878400000127,
          "velocity": 0.48031496062992124,
          "duration": 0.06097562500005438
        },
        {
          "name": "F4",
          "midi": 65,
          "time": 140.4878400000127,
          "velocity": 0.4015748031496063,
          "duration": 0.06097562500005438
        },
        {
          "name": "A4",
          "midi": 69,
          "time": 140.4878400000127,
          "velocity": 0.6535433070866141,
          "duration": 0.14227645833344127
        },
        {
          "name": "F4",
          "midi": 65,
          "time": 140.4878400000127,
          "velocity": 0.4015748031496063,
          "duration": 0.06097562500005438
        },
        {
          "name": "D2",
          "midi": 38,
          "time": 140.4878400000127,
          "velocity": 1,
          "duration": 0.2540651041667843
        },
        {
          "name": "A4",
          "midi": 69,
          "time": 140.4980026041794,
          "velocity": 0.7401574803149606,
          "duration": 0.20833338541675062
        },
        {
          "name": "F4",
          "midi": 65,
          "time": 140.4980026041794,
          "velocity": 0.8503937007874016,
          "duration": 0.11178864583339987
        },
        {
          "name": "E5",
          "midi": 76,
          "time": 140.50816520834607,
          "velocity": 0.889763779527559,
          "duration": 0.12195125000008034
        },
        {
          "name": "D2",
          "midi": 38,
          "time": 140.6097912500128,
          "velocity": 1,
          "duration": 0.13211385416670396
        },
        {
          "name": "B3",
          "midi": 59,
          "time": 140.72666119792947,
          "velocity": 0.5669291338582677,
          "duration": 0.020325208333360933
        },
        {
          "name": "D5",
          "midi": 74,
          "time": 140.7317425000128,
          "velocity": 0.889763779527559,
          "duration": 0.1676829687500856
        },
        {
          "name": "C4",
          "midi": 60,
          "time": 140.7317425000128,
          "velocity": 0.44881889763779526,
          "duration": 0.08130083333335847
        },
        {
          "name": "D2",
          "midi": 38,
          "time": 140.7317425000128,
          "velocity": 0.9212598425196851,
          "duration": 0.025406510416701167
        },
        {
          "name": "F#2",
          "midi": 42,
          "time": 140.7317425000128,
          "velocity": 0.47244094488188976,
          "duration": 0.010162604166680467
        },
        {
          "name": "F4",
          "midi": 65,
          "time": 140.73682380209615,
          "velocity": 0.8346456692913385,
          "duration": 0.10670734375003121
        },
        {
          "name": "A4",
          "midi": 69,
          "time": 140.7419051041795,
          "velocity": 0.5826771653543307,
          "duration": 0.13211385416673238
        },
        {
          "name": "E5",
          "midi": 76,
          "time": 140.74698640626283,
          "velocity": 0.8267716535433071,
          "duration": 0.11686994791671168
        },
        {
          "name": "D2",
          "midi": 38,
          "time": 140.85369375001287,
          "velocity": 1,
          "duration": 0.010162604166680467
        },
        {
          "name": "C4",
          "midi": 60,
          "time": 140.97056369792958,
          "velocity": 0.4330708661417323,
          "duration": 0.0152439062500207
        },
        {
          "name": "F4",
          "midi": 65,
          "time": 140.97564500001292,
          "velocity": 0.7716535433070866,
          "duration": 0.11686994791668326
        },
        {
          "name": "F2",
          "midi": 41,
          "time": 140.97564500001292,
          "velocity": 0.6850393700787402,
          "duration": 0.315040729166725
        },
        {
          "name": "D#2",
          "midi": 39,
          "time": 140.97564500001292,
          "velocity": 1,
          "duration": 0.010162604166680467
        },
        {
          "name": "E5",
          "midi": 76,
          "time": 140.97564500001292,
          "velocity": 0.8976377952755905,
          "duration": 0.12703255208336373
        },
        {
          "name": "A4",
          "midi": 69,
          "time": 140.98072630209626,
          "velocity": 0.5748031496062992,
          "duration": 0.11178864583334303
        },
        {
          "name": "E5",
          "midi": 76,
          "time": 140.9858076041796,
          "velocity": 0.8976377952755905,
          "duration": 0.18292687500002103
        },
        {
          "name": "C4",
          "midi": 60,
          "time": 141.20938489584628,
          "velocity": 0.5275590551181102,
          "duration": 0.11686994791668326
        },
        {
          "name": "F4",
          "midi": 65,
          "time": 141.21446619792962,
          "velocity": 0.7480314960629921,
          "duration": 0.12195125000002349
        },
        {
          "name": "F2",
          "midi": 41,
          "time": 141.21954750001296,
          "velocity": 0.5590551181102362,
          "duration": 0.2591464062500677
        },
        {
          "name": "A4",
          "midi": 69,
          "time": 141.21954750001296,
          "velocity": 0.5590551181102362,
          "duration": 0.10670734375000279
        },
        {
          "name": "F#2",
          "midi": 42,
          "time": 141.21954750001296,
          "velocity": 0.47244094488188976,
          "duration": 0.010162604166680467
        },
        {
          "name": "F4",
          "midi": 65,
          "time": 141.21954750001296,
          "velocity": 0.5748031496062992,
          "duration": 0.3455285416667664
        },
        {
          "name": "F5",
          "midi": 77,
          "time": 141.21954750001296,
          "velocity": 0.84251968503937,
          "duration": 0.20325208333338196
        },
        {
          "name": "D4",
          "midi": 62,
          "time": 141.21954750001296,
          "velocity": 0.6456692913385826,
          "duration": 0.40650416666682077
        },
        {
          "name": "A3",
          "midi": 57,
          "time": 141.21954750001296,
          "velocity": 0.5196850393700787,
          "duration": 0.3760163541668078
        },
        {
          "name": "D4",
          "midi": 62,
          "time": 141.21954750001296,
          "velocity": 0.6456692913385826,
          "duration": 0.40650416666682077
        },
        {
          "name": "F4",
          "midi": 65,
          "time": 141.21954750001296,
          "velocity": 0.5748031496062992,
          "duration": 0.40650416666682077
        },
        {
          "name": "D#2",
          "midi": 39,
          "time": 141.21954750001296,
          "velocity": 0.8661417322834646,
          "duration": 0.010162604166680467
        },
        {
          "name": "E5",
          "midi": 76,
          "time": 141.22971010417965,
          "velocity": 0.8031496062992126,
          "duration": 0.10162604166666256
        },
        {
          "name": "D2",
          "midi": 38,
          "time": 141.341498750013,
          "velocity": 1,
          "duration": 0.010162604166680467
        },
        {
          "name": "C4",
          "midi": 60,
          "time": 141.45836869792967,
          "velocity": 0.5039370078740157,
          "duration": 0.11178864583339987
        },
        {
          "name": "E5",
          "midi": 76,
          "time": 141.463450000013,
          "velocity": 0.937007874015748,
          "duration": 0.0304878125000414
        },
        {
          "name": "A2",
          "midi": 45,
          "time": 141.463450000013,
          "velocity": 0.7559055118110236,
          "duration": 0.29471552083350616
        },
        {
          "name": "D2",
          "midi": 38,
          "time": 141.463450000013,
          "velocity": 1,
          "duration": 0.010162604166680467
        },
        {
          "name": "F4",
          "midi": 65,
          "time": 141.46853130209635,
          "velocity": 0.84251968503937,
          "duration": 0.15752036458343355
        },
        {
          "name": "A4",
          "midi": 69,
          "time": 141.47869390626303,
          "velocity": 0.6062992125984252,
          "duration": 0.09654473958337917
        },
        {
          "name": "E5",
          "midi": 76,
          "time": 141.48377520834637,
          "velocity": 0.7086614173228346,
          "duration": 0.08130083333335847
        },
        {
          "name": "E5",
          "midi": 76,
          "time": 141.49393781251305,
          "velocity": 0.9133858267716536,
          "duration": 0.23373989583345178
        },
        {
          "name": "D2",
          "midi": 38,
          "time": 141.5854012500131,
          "velocity": 1,
          "duration": 0.010162604166680467
        },
        {
          "name": "C4",
          "midi": 60,
          "time": 141.69210859376312,
          "velocity": 0.48031496062992124,
          "duration": 0.08130083333341531
        },
        {
          "name": "F4",
          "midi": 65,
          "time": 141.69718989584646,
          "velocity": 0.7559055118110236,
          "duration": 0.07621953125007508
        },
        {
          "name": "A4",
          "midi": 69,
          "time": 141.7022711979298,
          "velocity": 0.5748031496062992,
          "duration": 0.09146343750006736
        },
        {
          "name": "D2",
          "midi": 38,
          "time": 141.70735250001314,
          "velocity": 0.9212598425196851,
          "duration": 0.010162604166680467
        },
        {
          "name": "F#2",
          "midi": 42,
          "time": 141.70735250001314,
          "velocity": 0.47244094488188976,
          "duration": 0.010162604166680467
        },
        {
          "name": "D4",
          "midi": 62,
          "time": 141.70735250001314,
          "velocity": 0.5275590551181102,
          "duration": 0.06097562500005438
        },
        {
          "name": "A3",
          "midi": 57,
          "time": 141.70735250001314,
          "velocity": 0.47244094488188976,
          "duration": 0.06097562500005438
        },
        {
          "name": "F4",
          "midi": 65,
          "time": 141.70735250001314,
          "velocity": 0.5275590551181102,
          "duration": 0.06605692708339461
        },
        {
          "name": "F4",
          "midi": 65,
          "time": 141.70735250001314,
          "velocity": 0.5275590551181102,
          "duration": 0.07113822916673485
        },
        {
          "name": "D4",
          "midi": 62,
          "time": 141.70735250001314,
          "velocity": 0.5275590551181102,
          "duration": 0.06097562500005438
        },
        {
          "name": "E5",
          "midi": 76,
          "time": 141.70735250001314,
          "velocity": 0.7559055118110236,
          "duration": 0.1016260416667194
        },
        {
          "name": "A2",
          "midi": 45,
          "time": 141.70735250001314,
          "velocity": 0.5590551181102362,
          "duration": 0.24390250000004698
        },
        {
          "name": "E5",
          "midi": 76,
          "time": 141.73784031251319,
          "velocity": 0.8661417322834646,
          "duration": 0.15752036458334828
        },
        {
          "name": "D2",
          "midi": 38,
          "time": 141.8293037500132,
          "velocity": 1,
          "duration": 0.010162604166680467
        },
        {
          "name": "C4",
          "midi": 60,
          "time": 141.93092979167986,
          "velocity": 0.4566929133858268,
          "duration": 0.1016260416667194
        },
        {
          "name": "F4",
          "midi": 65,
          "time": 141.9512550000132,
          "velocity": 0.5196850393700787,
          "duration": 0.08638213541672712
        },
        {
          "name": "F2",
          "midi": 41,
          "time": 141.9512550000132,
          "velocity": 0.7244094488188977,
          "duration": 0.27947161458345704
        },
        {
          "name": "D4",
          "midi": 62,
          "time": 141.9512550000132,
          "velocity": 0.5196850393700787,
          "duration": 0.08638213541672712
        },
        {
          "name": "F4",
          "midi": 65,
          "time": 141.9512550000132,
          "velocity": 0.8661417322834646,
          "duration": 0.08638213541672712
        },
        {
          "name": "A3",
          "midi": 57,
          "time": 141.9512550000132,
          "velocity": 0.5196850393700787,
          "duration": 0.07113822916670642
        },
        {
          "name": "D#2",
          "midi": 39,
          "time": 141.9512550000132,
          "velocity": 1,
          "duration": 0.010162604166680467
        },
        {
          "name": "D5",
          "midi": 74,
          "time": 141.9512550000132,
          "velocity": 0.889763779527559,
          "duration": 0.4471545833335142
        },
        {
          "name": "F4",
          "midi": 65,
          "time": 141.9512550000132,
          "velocity": 0.5196850393700787,
          "duration": 0.09654473958340759
        },
        {
          "name": "B2",
          "midi": 47,
          "time": 141.9512550000132,
          "velocity": 0.5590551181102362,
          "duration": 0.24898380208344406
        },
        {
          "name": "D4",
          "midi": 62,
          "time": 141.9512550000132,
          "velocity": 0.5196850393700787,
          "duration": 0.08638213541672712
        },
        {
          "name": "A4",
          "midi": 69,
          "time": 141.9664989062632,
          "velocity": 0.6299212598425197,
          "duration": 0.08638213541672712
        },
        {
          "name": "E5",
          "midi": 76,
          "time": 141.9766615104299,
          "velocity": 0.937007874015748,
          "duration": 0.1016260416667194
        },
        {
          "name": "D2",
          "midi": 38,
          "time": 142.07320625001327,
          "velocity": 0.4251968503937008,
          "duration": 0.010162604166680467
        },
        {
          "name": "C#4",
          "midi": 61,
          "time": 142.17991359376327,
          "velocity": 0.31496062992125984,
          "duration": 0.010162604166680467
        },
        {
          "name": "G6",
          "midi": 91,
          "time": 142.18499489584661,
          "velocity": 0.2992125984251969,
          "duration": 0.005081302083340233
        },
        {
          "name": "D2",
          "midi": 38,
          "time": 142.1951575000133,
          "velocity": 0.8503937007874016,
          "duration": 0.010162604166680467
        },
        {
          "name": "C4",
          "midi": 60,
          "time": 142.1951575000133,
          "velocity": 0.3700787401574803,
          "duration": 0.10670734375003121
        },
        {
          "name": "A2",
          "midi": 45,
          "time": 142.1951575000133,
          "velocity": 0.5590551181102362,
          "duration": 0.04573171875003368
        },
        {
          "name": "F#2",
          "midi": 42,
          "time": 142.1951575000133,
          "velocity": 0.47244094488188976,
          "duration": 0.010162604166680467
        },
        {
          "name": "F4",
          "midi": 65,
          "time": 142.20023880209664,
          "velocity": 0.6771653543307087,
          "duration": 0.10670734375003121
        },
        {
          "name": "A4",
          "midi": 69,
          "time": 142.20532010417998,
          "velocity": 0.5039370078740157,
          "duration": 0.08130083333335847
        },
        {
          "name": "E5",
          "midi": 76,
          "time": 142.21040140626332,
          "velocity": 0.7322834645669292,
          "duration": 0.11686994791671168
        },
        {
          "name": "D2",
          "midi": 38,
          "time": 142.31710875001335,
          "velocity": 1,
          "duration": 0.010162604166680467
        },
        {
          "name": "E4",
          "midi": 64,
          "time": 142.4390600000134,
          "velocity": 0.5039370078740157,
          "duration": 0.0863821354166987
        },
        {
          "name": "E1",
          "midi": 28,
          "time": 142.4390600000134,
          "velocity": 0.5590551181102362,
          "duration": 0.2743903125000884
        },
        {
          "name": "B3",
          "midi": 59,
          "time": 142.4390600000134,
          "velocity": 0.5984251968503937,
          "duration": 0.07113822916670642
        },
        {
          "name": "E4",
          "midi": 64,
          "time": 142.4390600000134,
          "velocity": 0.5039370078740157,
          "duration": 0.0863821354166987
        },
        {
          "name": "D2",
          "midi": 38,
          "time": 142.4390600000134,
          "velocity": 1,
          "duration": 0.010162604166680467
        },
        {
          "name": "E2",
          "midi": 40,
          "time": 142.4390600000134,
          "velocity": 0.8110236220472441,
          "duration": 0.4878050000001224
        },
        {
          "name": "G#3",
          "midi": 56,
          "time": 142.4390600000134,
          "velocity": 0.5196850393700787,
          "duration": 0.07113822916670642
        },
        {
          "name": "D5",
          "midi": 74,
          "time": 142.45430390626342,
          "velocity": 0.7874015748031497,
          "duration": 0.11178864583334303
        },
        {
          "name": "G#5",
          "midi": 80,
          "time": 142.45938520834676,
          "velocity": 0.937007874015748,
          "duration": 0.13719515625001577
        },
        {
          "name": "D2",
          "midi": 38,
          "time": 142.56101125001342,
          "velocity": 1,
          "duration": 0.010162604166680467
        },
        {
          "name": "B4",
          "midi": 71,
          "time": 142.67788119793013,
          "velocity": 0.7716535433070866,
          "duration": 0.12703255208336373
        },
        {
          "name": "D2",
          "midi": 38,
          "time": 142.68296250001347,
          "velocity": 0.9212598425196851,
          "duration": 0.010162604166680467
        },
        {
          "name": "F#2",
          "midi": 42,
          "time": 142.68296250001347,
          "velocity": 0.47244094488188976,
          "duration": 0.010162604166680467
        },
        {
          "name": "D5",
          "midi": 74,
          "time": 142.68804380209681,
          "velocity": 0.8031496062992126,
          "duration": 0.10670734375000279
        },
        {
          "name": "G#5",
          "midi": 80,
          "time": 142.6982064062635,
          "velocity": 0.937007874015748,
          "duration": 0.11178864583334303
        },
        {
          "name": "D2",
          "midi": 38,
          "time": 142.8049137500135,
          "velocity": 1,
          "duration": 0.010162604166680467
        },
        {
          "name": "B4",
          "midi": 71,
          "time": 142.92178369793018,
          "velocity": 0.7401574803149606,
          "duration": 0.12703255208336373
        },
        {
          "name": "D#2",
          "midi": 39,
          "time": 142.92686500001352,
          "velocity": 1,
          "duration": 0.010162604166680467
        },
        {
          "name": "G#5",
          "midi": 80,
          "time": 142.9370276041802,
          "velocity": 0.8976377952755905,
          "duration": 0.11686994791668326
        },
        {
          "name": "D5",
          "midi": 74,
          "time": 142.9370276041802,
          "velocity": 0.7244094488188977,
          "duration": 0.09654473958335075
        },
        {
          "name": "B4",
          "midi": 71,
          "time": 143.16568619793023,
          "velocity": 0.8976377952755905,
          "duration": 0.10670734375003121
        },
        {
          "name": "E4",
          "midi": 64,
          "time": 143.17076750001357,
          "velocity": 0.5748031496062992,
          "duration": 0.39126026041677164
        },
        {
          "name": "G#1",
          "midi": 32,
          "time": 143.17076750001357,
          "velocity": 0.5590551181102362,
          "duration": 0.213414687500034
        },
        {
          "name": "E4",
          "midi": 64,
          "time": 143.17076750001357,
          "velocity": 0.5748031496062992,
          "duration": 0.39126026041677164
        },
        {
          "name": "G#3",
          "midi": 56,
          "time": 143.17076750001357,
          "velocity": 0.5039370078740157,
          "duration": 0.40650416666679234
        },
        {
          "name": "D#2",
          "midi": 39,
          "time": 143.17076750001357,
          "velocity": 0.8661417322834646,
          "duration": 0.010162604166680467
        },
        {
          "name": "B3",
          "midi": 59,
          "time": 143.17076750001357,
          "velocity": 0.6220472440944882,
          "duration": 0.4014228645834521
        },
        {
          "name": "F#2",
          "midi": 42,
          "time": 143.17076750001357,
          "velocity": 0.47244094488188976,
          "duration": 0.010162604166680467
        },
        {
          "name": "G#2",
          "midi": 44,
          "time": 143.17076750001357,
          "velocity": 0.6850393700787402,
          "duration": 0.3201220312500652
        },
        {
          "name": "D5",
          "midi": 74,
          "time": 143.1758488020969,
          "velocity": 0.8267716535433071,
          "duration": 0.09654473958335075
        },
        {
          "name": "G#5",
          "midi": 80,
          "time": 143.18093010418025,
          "velocity": 0.937007874015748,
          "duration": 0.10670734375000279
        },
        {
          "name": "D2",
          "midi": 38,
          "time": 143.2927187500136,
          "velocity": 1,
          "duration": 0.010162604166680467
        },
        {
          "name": "B4",
          "midi": 71,
          "time": 143.40958869793027,
          "velocity": 0.7401574803149606,
          "duration": 0.12703255208336373
        },
        {
          "name": "D2",
          "midi": 38,
          "time": 143.41467000001361,
          "velocity": 1,
          "duration": 0.010162604166680467
        },
        {
          "name": "G#5",
          "midi": 80,
          "time": 143.4248326041803,
          "velocity": 0.8976377952755905,
          "duration": 0.11686994791668326
        },
        {
          "name": "D5",
          "midi": 74,
          "time": 143.4248326041803,
          "velocity": 0.7244094488188977,
          "duration": 0.09654473958335075
        },
        {
          "name": "D2",
          "midi": 38,
          "time": 143.53662125001364,
          "velocity": 1,
          "duration": 0.010162604166680467
        },
        {
          "name": "B4",
          "midi": 71,
          "time": 143.6534911979304,
          "velocity": 0.8976377952755905,
          "duration": 0.10670734375005964
        },
        {
          "name": "E6",
          "midi": 88,
          "time": 143.65857250001375,
          "velocity": 0.5669291338582677,
          "duration": 0.040650416666693445
        },
        {
          "name": "E4",
          "midi": 64,
          "time": 143.65857250001375,
          "velocity": 0.48031496062992124,
          "duration": 0.1016260416667194
        },
        {
          "name": "E4",
          "midi": 64,
          "time": 143.65857250001375,
          "velocity": 0.48031496062992124,
          "duration": 0.1016260416667194
        },
        {
          "name": "B2",
          "midi": 47,
          "time": 143.65857250001375,
          "velocity": 0.6062992125984252,
          "duration": 0.13211385416673238
        },
        {
          "name": "B1",
          "midi": 35,
          "time": 143.65857250001375,
          "velocity": 0.5590551181102362,
          "duration": 0.29979682291676113
        },
        {
          "name": "F#2",
          "midi": 42,
          "time": 143.65857250001375,
          "velocity": 0.47244094488188976,
          "duration": 0.010162604166680467
        },
        {
          "name": "B3",
          "midi": 59,
          "time": 143.65857250001375,
          "velocity": 0.5275590551181102,
          "duration": 0.0863821354166987
        },
        {
          "name": "G#3",
          "midi": 56,
          "time": 143.65857250001375,
          "velocity": 0.4881889763779528,
          "duration": 0.07621953125001824
        },
        {
          "name": "D2",
          "midi": 38,
          "time": 143.65857250001375,
          "velocity": 0.9212598425196851,
          "duration": 0.010162604166680467
        },
        {
          "name": "D5",
          "midi": 74,
          "time": 143.6636538020971,
          "velocity": 0.8267716535433071,
          "duration": 0.09654473958337917
        },
        {
          "name": "G#5",
          "midi": 80,
          "time": 143.66873510418043,
          "velocity": 0.937007874015748,
          "duration": 0.10670734375003121
        },
        {
          "name": "D2",
          "midi": 38,
          "time": 143.7805237500138,
          "velocity": 1,
          "duration": 0.010162604166680467
        },
        {
          "name": "B4",
          "midi": 71,
          "time": 143.89739369793048,
          "velocity": 0.7401574803149606,
          "duration": 0.12703255208336373
        },
        {
          "name": "E4",
          "midi": 64,
          "time": 143.90247500001382,
          "velocity": 0.2047244094488189,
          "duration": 0.03556911458335321
        },
        {
          "name": "B3",
          "midi": 59,
          "time": 143.90247500001382,
          "velocity": 0.49606299212598426,
          "duration": 0.055894322916685724
        },
        {
          "name": "B4",
          "midi": 71,
          "time": 143.90247500001382,
          "velocity": 0.984251968503937,
          "duration": 0.23373989583336652
        },
        {
          "name": "D#2",
          "midi": 39,
          "time": 143.90247500001382,
          "velocity": 1,
          "duration": 0.010162604166680467
        },
        {
          "name": "D3",
          "midi": 50,
          "time": 143.90247500001382,
          "velocity": 0.6062992125984252,
          "duration": 0.1930894791667015
        },
        {
          "name": "G#3",
          "midi": 56,
          "time": 143.90247500001382,
          "velocity": 0.4409448818897638,
          "duration": 0.055894322916685724
        },
        {
          "name": "D2",
          "midi": 38,
          "time": 143.90247500001382,
          "velocity": 0.5590551181102362,
          "duration": 0.13211385416670396
        },
        {
          "name": "E4",
          "midi": 64,
          "time": 143.90247500001382,
          "velocity": 0.2047244094488189,
          "duration": 0.03556911458335321
        },
        {
          "name": "D5",
          "midi": 74,
          "time": 143.9126376041805,
          "velocity": 0.7244094488188977,
          "duration": 0.09654473958335075
        },
        {
          "name": "G#5",
          "midi": 80,
          "time": 143.9126376041805,
          "velocity": 0.8976377952755905,
          "duration": 0.11686994791668326
        },
        {
          "name": "D2",
          "midi": 38,
          "time": 144.02442625001385,
          "velocity": 0.4251968503937008,
          "duration": 0.12703255208336373
        },
        {
          "name": "B4",
          "midi": 71,
          "time": 144.14129619793053,
          "velocity": 0.8976377952755905,
          "duration": 0.10670734375000279
        },
        {
          "name": "C5",
          "midi": 72,
          "time": 144.14637750001387,
          "velocity": 0.6771653543307087,
          "duration": 0.15752036458334828
        },
        {
          "name": "B1",
          "midi": 35,
          "time": 144.14637750001387,
          "velocity": 0.5590551181102362,
          "duration": 0.18800817708336126
        },
        {
          "name": "B2",
          "midi": 47,
          "time": 144.14637750001387,
          "velocity": 0.5196850393700787,
          "duration": 0.15752036458334828
        },
        {
          "name": "D2",
          "midi": 38,
          "time": 144.14637750001387,
          "velocity": 0.8503937007874016,
          "duration": 0.010162604166680467
        },
        {
          "name": "F#2",
          "midi": 42,
          "time": 144.14637750001387,
          "velocity": 0.47244094488188976,
          "duration": 0.010162604166680467
        },
        {
          "name": "D5",
          "midi": 74,
          "time": 144.1514588020972,
          "velocity": 0.8267716535433071,
          "duration": 0.09654473958332233
        },
        {
          "name": "G#5",
          "midi": 80,
          "time": 144.15654010418055,
          "velocity": 0.937007874015748,
          "duration": 0.10670734374997437
        },
        {
          "name": "D2",
          "midi": 38,
          "time": 144.26832875001386,
          "velocity": 1,
          "duration": 0.010162604166680467
        },
        {
          "name": "B4",
          "midi": 71,
          "time": 144.38519869793058,
          "velocity": 0.7401574803149606,
          "duration": 0.12703255208336373
        },
        {
          "name": "E1",
          "midi": 28,
          "time": 144.39028000001392,
          "velocity": 0.5590551181102362,
          "duration": 0.2743903125000884
        },
        {
          "name": "B3",
          "midi": 59,
          "time": 144.39028000001392,
          "velocity": 0.41732283464566927,
          "duration": 0.07621953125001824
        },
        {
          "name": "G#3",
          "midi": 56,
          "time": 144.39028000001392,
          "velocity": 0.4330708661417323,
          "duration": 0.06605692708333777
        },
        {
          "name": "E4",
          "midi": 64,
          "time": 144.39028000001392,
          "velocity": 0.4409448818897638,
          "duration": 0.0863821354166987
        },
        {
          "name": "D2",
          "midi": 38,
          "time": 144.39028000001392,
          "velocity": 1,
          "duration": 0.010162604166680467
        },
        {
          "name": "D5",
          "midi": 74,
          "time": 144.39028000001392,
          "velocity": 0.7165354330708661,
          "duration": 0.10670734375003121
        },
        {
          "name": "E2",
          "midi": 40,
          "time": 144.39028000001392,
          "velocity": 0.8110236220472441,
          "duration": 0.4878050000001224
        },
        {
          "name": "E4",
          "midi": 64,
          "time": 144.39028000001392,
          "velocity": 0.4409448818897638,
          "duration": 0.0863821354166987
        },
        {
          "name": "G#5",
          "midi": 80,
          "time": 144.4004426041806,
          "velocity": 0.8976377952755905,
          "duration": 0.11686994791668326
        },
        {
          "name": "D5",
          "midi": 74,
          "time": 144.4004426041806,
          "velocity": 0.7244094488188977,
          "duration": 0.3150407291667534
        },
        {
          "name": "D2",
          "midi": 38,
          "time": 144.51223125001394,
          "velocity": 1,
          "duration": 0.010162604166680467
        },
        {
          "name": "B4",
          "midi": 71,
          "time": 144.62910119793062,
          "velocity": 0.8976377952755905,
          "duration": 0.10670734375005964
        },
        {
          "name": "D2",
          "midi": 38,
          "time": 144.63418250001396,
          "velocity": 0.9212598425196851,
          "duration": 0.010162604166680467
        },
        {
          "name": "F#2",
          "midi": 42,
          "time": 144.63418250001396,
          "velocity": 0.47244094488188976,
          "duration": 0.010162604166680467
        },
        {
          "name": "D5",
          "midi": 74,
          "time": 144.6392638020973,
          "velocity": 0.8267716535433071,
          "duration": 0.09654473958337917
        },
        {
          "name": "G#5",
          "midi": 80,
          "time": 144.64434510418064,
          "velocity": 0.937007874015748,
          "duration": 0.10670734375003121
        },
        {
          "name": "D2",
          "midi": 38,
          "time": 144.75613375001402,
          "velocity": 1,
          "duration": 0.010162604166680467
        },
        {
          "name": "B4",
          "midi": 71,
          "time": 144.8730036979307,
          "velocity": 0.7401574803149606,
          "duration": 0.1270325520833353
        },
        {
          "name": "D#2",
          "midi": 39,
          "time": 144.87808500001404,
          "velocity": 1,
          "duration": 0.010162604166680467
        },
        {
          "name": "D5",
          "midi": 74,
          "time": 144.87808500001404,
          "velocity": 0.8661417322834646,
          "duration": 0.10670734375000279
        },
        {
          "name": "G#5",
          "midi": 80,
          "time": 144.88824760418072,
          "velocity": 0.8976377952755905,
          "duration": 0.11686994791665484
        },
        {
          "name": "D5",
          "midi": 74,
          "time": 144.88824760418072,
          "velocity": 0.7244094488188977,
          "duration": 0.22357729166665763
        },
        {
          "name": "B4",
          "midi": 71,
          "time": 145.11690619793072,
          "velocity": 0.8976377952755905,
          "duration": 0.10670734375003121
        },
        {
          "name": "E4",
          "midi": 64,
          "time": 145.12198750001406,
          "velocity": 0.5196850393700787,
          "duration": 0.39126026041677164
        },
        {
          "name": "E4",
          "midi": 64,
          "time": 145.12198750001406,
          "velocity": 0.5196850393700787,
          "duration": 0.39126026041677164
        },
        {
          "name": "D#2",
          "midi": 39,
          "time": 145.12198750001406,
          "velocity": 0.8661417322834646,
          "duration": 0.010162604166680467
        },
        {
          "name": "B3",
          "midi": 59,
          "time": 145.12198750001406,
          "velocity": 0.5433070866141733,
          "duration": 0.3658537500000989
        },
        {
          "name": "F#2",
          "midi": 42,
          "time": 145.12198750001406,
          "velocity": 0.47244094488188976,
          "duration": 0.010162604166680467
        },
        {
          "name": "G#3",
          "midi": 56,
          "time": 145.12198750001406,
          "velocity": 0.5748031496062992,
          "duration": 0.3658537500000989
        },
        {
          "name": "G#1",
          "midi": 32,
          "time": 145.12198750001406,
          "velocity": 0.5590551181102362,
          "duration": 0.213414687500034
        },
        {
          "name": "G#2",
          "midi": 44,
          "time": 145.12198750001406,
          "velocity": 0.6850393700787402,
          "duration": 0.32012203125009364
        },
        {
          "name": "E5",
          "midi": 76,
          "time": 145.12198750001406,
          "velocity": 0.8661417322834646,
          "duration": 0.23373989583339494
        },
        {
          "name": "D5",
          "midi": 74,
          "time": 145.1270688020974,
          "velocity": 0.8267716535433071,
          "duration": 0.09654473958335075
        },
        {
          "name": "G#5",
          "midi": 80,
          "time": 145.13215010418074,
          "velocity": 0.937007874015748,
          "duration": 0.10670734375000279
        },
        {
          "name": "D2",
          "midi": 38,
          "time": 145.24393875001408,
          "velocity": 1,
          "duration": 0.010162604166680467
        },
        {
          "name": "D3",
          "midi": 50,
          "time": 145.34556479168077,
          "velocity": 0.7244094488188977,
          "duration": 0.005081302083340233
        },
        {
          "name": "B4",
          "midi": 71,
          "time": 145.3608086979308,
          "velocity": 0.7401574803149606,
          "duration": 0.12703255208336373
        },
        {
          "name": "D5",
          "midi": 74,
          "time": 145.36589000001413,
          "velocity": 0.8346456692913385,
          "duration": 0.10670734375003121
        },
        {
          "name": "D2",
          "midi": 38,
          "time": 145.36589000001413,
          "velocity": 1,
          "duration": 0.010162604166680467
        },
        {
          "name": "G#5",
          "midi": 80,
          "time": 145.3760526041808,
          "velocity": 0.8976377952755905,
          "duration": 0.11686994791668326
        },
        {
          "name": "D5",
          "midi": 74,
          "time": 145.3760526041808,
          "velocity": 0.7244094488188977,
          "duration": 0.23373989583336652
        },
        {
          "name": "D2",
          "midi": 38,
          "time": 145.48784125001416,
          "velocity": 1,
          "duration": 0.010162604166680467
        },
        {
          "name": "B4",
          "midi": 71,
          "time": 145.60471119793084,
          "velocity": 0.8976377952755905,
          "duration": 0.10670734375005964
        },
        {
          "name": "G#3",
          "midi": 56,
          "time": 145.60979250001418,
          "velocity": 0.49606299212598426,
          "duration": 0.06097562500002596
        },
        {
          "name": "D2",
          "midi": 38,
          "time": 145.60979250001418,
          "velocity": 0.9212598425196851,
          "duration": 0.010162604166680467
        },
        {
          "name": "E4",
          "midi": 64,
          "time": 145.60979250001418,
          "velocity": 0.49606299212598426,
          "duration": 0.07113822916670642
        },
        {
          "name": "F#2",
          "midi": 42,
          "time": 145.60979250001418,
          "velocity": 0.47244094488188976,
          "duration": 0.010162604166680467
        },
        {
          "name": "B2",
          "midi": 47,
          "time": 145.60979250001418,
          "velocity": 0.6062992125984252,
          "duration": 0.13211385416673238
        },
        {
          "name": "B1",
          "midi": 35,
          "time": 145.60979250001418,
          "velocity": 0.5590551181102362,
          "duration": 0.29979682291676113
        },
        {
          "name": "C5",
          "midi": 72,
          "time": 145.60979250001418,
          "velocity": 0.7165354330708661,
          "duration": 0.12195125000005191
        },
        {
          "name": "E4",
          "midi": 64,
          "time": 145.60979250001418,
          "velocity": 0.49606299212598426,
          "duration": 0.07113822916670642
        },
        {
          "name": "B3",
          "midi": 59,
          "time": 145.60979250001418,
          "velocity": 0.5433070866141733,
          "duration": 0.055894322916685724
        },
        {
          "name": "D5",
          "midi": 74,
          "time": 145.61487380209752,
          "velocity": 0.8267716535433071,
          "duration": 0.09654473958337917
        },
        {
          "name": "G#5",
          "midi": 80,
          "time": 145.61995510418086,
          "velocity": 0.937007874015748,
          "duration": 0.10670734375003121
        },
        {
          "name": "D2",
          "midi": 38,
          "time": 145.73174375001423,
          "velocity": 1,
          "duration": 0.010162604166680467
        },
        {
          "name": "B4",
          "midi": 71,
          "time": 145.84861369793092,
          "velocity": 0.7401574803149606,
          "duration": 0.12703255208336373
        },
        {
          "name": "E4",
          "midi": 64,
          "time": 145.85369500001426,
          "velocity": 0.4881889763779528,
          "duration": 0.06605692708336619
        },
        {
          "name": "D3",
          "midi": 50,
          "time": 145.85369500001426,
          "velocity": 0.6062992125984252,
          "duration": 0.1930894791667015
        },
        {
          "name": "E4",
          "midi": 64,
          "time": 145.85369500001426,
          "velocity": 0.4881889763779528,
          "duration": 0.06605692708336619
        },
        {
          "name": "D2",
          "midi": 38,
          "time": 145.85369500001426,
          "velocity": 0.5590551181102362,
          "duration": 0.13211385416670396
        },
        {
          "name": "G#3",
          "midi": 56,
          "time": 145.85369500001426,
          "velocity": 0.47244094488188976,
          "duration": 0.05081302083334549
        },
        {
          "name": "B3",
          "midi": 59,
          "time": 145.85369500001426,
          "velocity": 0.5748031496062992,
          "duration": 0.05081302083334549
        },
        {
          "name": "B4",
          "midi": 71,
          "time": 145.85369500001426,
          "velocity": 0.8031496062992126,
          "duration": 0.23882119791673517
        },
        {
          "name": "D#2",
          "midi": 39,
          "time": 145.85369500001426,
          "velocity": 1,
          "duration": 0.010162604166680467
        },
        {
          "name": "D5",
          "midi": 74,
          "time": 145.86385760418094,
          "velocity": 0.7244094488188977,
          "duration": 0.09654473958335075
        },
        {
          "name": "G#5",
          "midi": 80,
          "time": 145.86385760418094,
          "velocity": 0.8976377952755905,
          "duration": 0.11686994791668326
        },
        {
          "name": "D2",
          "midi": 38,
          "time": 145.97564625001428,
          "velocity": 0.4251968503937008,
          "duration": 0.12703255208339215
        },
        {
          "name": "D3",
          "midi": 50,
          "time": 146.07727229168097,
          "velocity": 0.7244094488188977,
          "duration": 0.005081302083340233
        },
        {
          "name": "B4",
          "midi": 71,
          "time": 146.092516197931,
          "velocity": 0.8976377952755905,
          "duration": 0.10670734375003121
        },
        {
          "name": "B1",
          "midi": 35,
          "time": 146.09759750001433,
          "velocity": 0.5590551181102362,
          "duration": 0.18800817708338968
        },
        {
          "name": "D2",
          "midi": 38,
          "time": 146.09759750001433,
          "velocity": 0.8503937007874016,
          "duration": 0.010162604166680467
        },
        {
          "name": "F#2",
          "midi": 42,
          "time": 146.09759750001433,
          "velocity": 0.47244094488188976,
          "duration": 0.010162604166680467
        },
        {
          "name": "B2",
          "midi": 47,
          "time": 146.09759750001433,
          "velocity": 0.5196850393700787,
          "duration": 0.1575203645833767
        },
        {
          "name": "C5",
          "midi": 72,
          "time": 146.09759750001433,
          "velocity": 0.952755905511811,
          "duration": 0.20325208333338196
        },
        {
          "name": "D5",
          "midi": 74,
          "time": 146.10267880209767,
          "velocity": 0.8267716535433071,
          "duration": 0.09654473958335075
        },
        {
          "name": "G#5",
          "midi": 80,
          "time": 146.107760104181,
          "velocity": 0.937007874015748,
          "duration": 0.10670734375000279
        },
        {
          "name": "D2",
          "midi": 38,
          "time": 146.21954875001435,
          "velocity": 1,
          "duration": 0.010162604166680467
        }
      ],
      "controlChanges": {
        "1": [
          {
            "number": 1,
            "time": 22.698176406249747,
            "value": 0.015748031496062992
          },
          {
            "number": 1,
            "time": 22.743908124999745,
            "value": 0.12598425196850394
          },
          {
            "number": 1,
            "time": 22.804883749999743,
            "value": 0.2440944881889764
          },
          {
            "number": 1,
            "time": 22.845534166666408,
            "value": 0.3700787401574803
          },
          {
            "number": 1,
            "time": 22.886184583333073,
            "value": 0.4881889763779528
          },
          {
            "number": 1,
            "time": 22.926834999999738,
            "value": 0.6062992125984252
          },
          {
            "number": 1,
            "time": 22.96240411458307,
            "value": 0.7165354330708661
          },
          {
            "number": 1,
            "time": 23.0132171354164,
            "value": 0.8346456692913385
          },
          {
            "number": 1,
            "time": 23.048786249999733,
            "value": 0.8503937007874016
          },
          {
            "number": 1,
            "time": 23.1351683854164,
            "value": 0.7401574803149606
          },
          {
            "number": 1,
            "time": 23.165656197916398,
            "value": 0.6220472440944882
          },
          {
            "number": 1,
            "time": 23.196144010416397,
            "value": 0.49606299212598426
          },
          {
            "number": 1,
            "time": 23.226631822916396,
            "value": 0.33858267716535434
          },
          {
            "number": 1,
            "time": 23.257119635416394,
            "value": 0.15748031496062992
          },
          {
            "number": 1,
            "time": 23.287607447916393,
            "value": 0
          },
          {
            "number": 1,
            "time": 38.30793640624945,
            "value": 0.015748031496062992
          },
          {
            "number": 1,
            "time": 38.35366812499945,
            "value": 0.12598425196850394
          },
          {
            "number": 1,
            "time": 38.41464374999945,
            "value": 0.2440944881889764
          },
          {
            "number": 1,
            "time": 38.455294166666114,
            "value": 0.3700787401574803
          },
          {
            "number": 1,
            "time": 38.49594458333278,
            "value": 0.4881889763779528
          },
          {
            "number": 1,
            "time": 38.536594999999444,
            "value": 0.6062992125984252
          },
          {
            "number": 1,
            "time": 38.572164114582776,
            "value": 0.7165354330708661
          },
          {
            "number": 1,
            "time": 38.62297713541611,
            "value": 0.8346456692913385
          },
          {
            "number": 1,
            "time": 38.65854624999944,
            "value": 0.8503937007874016
          },
          {
            "number": 1,
            "time": 38.7449283854161,
            "value": 0.7401574803149606
          },
          {
            "number": 1,
            "time": 38.7754161979161,
            "value": 0.6220472440944882
          },
          {
            "number": 1,
            "time": 38.8059040104161,
            "value": 0.49606299212598426
          },
          {
            "number": 1,
            "time": 38.8363918229161,
            "value": 0.33858267716535434
          },
          {
            "number": 1,
            "time": 38.8668796354161,
            "value": 0.15748031496062992
          },
          {
            "number": 1,
            "time": 38.897367447916096,
            "value": 0
          },
          {
            "number": 1,
            "time": 69.52745640624974,
            "value": 0.015748031496062992
          },
          {
            "number": 1,
            "time": 69.57318812499975,
            "value": 0.12598425196850394
          },
          {
            "number": 1,
            "time": 69.63416374999974,
            "value": 0.2440944881889764
          },
          {
            "number": 1,
            "time": 69.67481416666641,
            "value": 0.3700787401574803
          },
          {
            "number": 1,
            "time": 69.71546458333307,
            "value": 0.4881889763779528
          },
          {
            "number": 1,
            "time": 69.75611499999974,
            "value": 0.6062992125984252
          },
          {
            "number": 1,
            "time": 69.79168411458309,
            "value": 0.7165354330708661
          },
          {
            "number": 1,
            "time": 69.84249713541644,
            "value": 0.8346456692913385
          },
          {
            "number": 1,
            "time": 69.87806624999979,
            "value": 0.8503937007874016
          },
          {
            "number": 1,
            "time": 69.96444838541646,
            "value": 0.7401574803149606
          },
          {
            "number": 1,
            "time": 69.99493619791647,
            "value": 0.6220472440944882
          },
          {
            "number": 1,
            "time": 70.0254240104165,
            "value": 0.49606299212598426
          },
          {
            "number": 1,
            "time": 70.05591182291651,
            "value": 0.33858267716535434
          },
          {
            "number": 1,
            "time": 70.08639963541651,
            "value": 0.15748031496062992
          },
          {
            "number": 1,
            "time": 70.11688744791651,
            "value": 0
          },
          {
            "number": 1,
            "time": 85.13721640625243,
            "value": 0.015748031496062992
          },
          {
            "number": 1,
            "time": 85.18294812500244,
            "value": 0.12598425196850394
          },
          {
            "number": 1,
            "time": 85.24392375000244,
            "value": 0.2440944881889764
          },
          {
            "number": 1,
            "time": 85.2845741666691,
            "value": 0.3700787401574803
          },
          {
            "number": 1,
            "time": 85.32522458333577,
            "value": 0.4881889763779528
          },
          {
            "number": 1,
            "time": 85.36587500000243,
            "value": 0.6062992125984252
          },
          {
            "number": 1,
            "time": 85.40144411458579,
            "value": 0.7165354330708661
          },
          {
            "number": 1,
            "time": 85.45225713541913,
            "value": 0.8346456692913385
          },
          {
            "number": 1,
            "time": 85.48782625000248,
            "value": 0.8503937007874016
          },
          {
            "number": 1,
            "time": 85.57420838541915,
            "value": 0.7401574803149606
          },
          {
            "number": 1,
            "time": 85.60469619791917,
            "value": 0.6220472440944882
          },
          {
            "number": 1,
            "time": 85.6351840104192,
            "value": 0.49606299212598426
          },
          {
            "number": 1,
            "time": 85.66567182291921,
            "value": 0.33858267716535434
          },
          {
            "number": 1,
            "time": 85.6961596354192,
            "value": 0.15748031496062992
          },
          {
            "number": 1,
            "time": 85.7266474479192,
            "value": 0
          },
          {
            "number": 1,
            "time": 116.35673640625727,
            "value": 0.015748031496062992
          },
          {
            "number": 1,
            "time": 116.40246812500727,
            "value": 0.12598425196850394
          },
          {
            "number": 1,
            "time": 116.46344375000727,
            "value": 0.2440944881889764
          },
          {
            "number": 1,
            "time": 116.50409416667394,
            "value": 0.3700787401574803
          },
          {
            "number": 1,
            "time": 116.5447445833406,
            "value": 0.4881889763779528
          },
          {
            "number": 1,
            "time": 116.58539500000727,
            "value": 0.6062992125984252
          },
          {
            "number": 1,
            "time": 116.62096411459062,
            "value": 0.7165354330708661
          },
          {
            "number": 1,
            "time": 116.67177713542397,
            "value": 0.8346456692913385
          },
          {
            "number": 1,
            "time": 116.70734625000732,
            "value": 0.8503937007874016
          },
          {
            "number": 1,
            "time": 116.79372838542399,
            "value": 0.7401574803149606
          },
          {
            "number": 1,
            "time": 116.824216197924,
            "value": 0.6220472440944882
          },
          {
            "number": 1,
            "time": 116.85470401042403,
            "value": 0.49606299212598426
          },
          {
            "number": 1,
            "time": 116.88519182292404,
            "value": 0.33858267716535434
          },
          {
            "number": 1,
            "time": 116.91567963542404,
            "value": 0.15748031496062992
          },
          {
            "number": 1,
            "time": 116.94616744792404,
            "value": 0
          },
          {
            "number": 1,
            "time": 124.16161640625857,
            "value": 0.015748031496062992
          },
          {
            "number": 1,
            "time": 124.20734812500858,
            "value": 0.12598425196850394
          },
          {
            "number": 1,
            "time": 124.26832375000858,
            "value": 0.2440944881889764
          },
          {
            "number": 1,
            "time": 124.30897416667524,
            "value": 0.3700787401574803
          },
          {
            "number": 1,
            "time": 124.3496245833419,
            "value": 0.4881889763779528
          },
          {
            "number": 1,
            "time": 124.39027500000857,
            "value": 0.6062992125984252
          },
          {
            "number": 1,
            "time": 124.42584411459192,
            "value": 0.7165354330708661
          },
          {
            "number": 1,
            "time": 124.47665713542527,
            "value": 0.8346456692913385
          },
          {
            "number": 1,
            "time": 124.51222625000862,
            "value": 0.8503937007874016
          },
          {
            "number": 1,
            "time": 124.5986083854253,
            "value": 0.7401574803149606
          },
          {
            "number": 1,
            "time": 124.6290961979253,
            "value": 0.6220472440944882
          },
          {
            "number": 1,
            "time": 124.65958401042533,
            "value": 0.49606299212598426
          },
          {
            "number": 1,
            "time": 124.69007182292535,
            "value": 0.33858267716535434
          },
          {
            "number": 1,
            "time": 124.72055963542535,
            "value": 0.15748031496062992
          },
          {
            "number": 1,
            "time": 124.75104744792534,
            "value": 0
          },
          {
            "number": 1,
            "time": 135.86893640626133,
            "value": 0.015748031496062992
          },
          {
            "number": 1,
            "time": 135.91466812501136,
            "value": 0.12598425196850394
          },
          {
            "number": 1,
            "time": 135.9756437500114,
            "value": 0.2440944881889764
          },
          {
            "number": 1,
            "time": 136.01629416667808,
            "value": 0.3700787401574803
          },
          {
            "number": 1,
            "time": 136.05694458334474,
            "value": 0.4881889763779528
          },
          {
            "number": 1,
            "time": 136.0975950000114,
            "value": 0.6062992125984252
          },
          {
            "number": 1,
            "time": 136.13316411459476,
            "value": 0.7165354330708661
          },
          {
            "number": 1,
            "time": 136.1839771354281,
            "value": 0.8346456692913385
          },
          {
            "number": 1,
            "time": 136.21954625001146,
            "value": 0.8503937007874016
          },
          {
            "number": 1,
            "time": 136.30592838542816,
            "value": 0.7401574803149606
          },
          {
            "number": 1,
            "time": 136.33641619792817,
            "value": 0.6220472440944882
          },
          {
            "number": 1,
            "time": 136.36690401042821,
            "value": 0.49606299212598426
          },
          {
            "number": 1,
            "time": 136.39739182292823,
            "value": 0.33858267716535434
          },
          {
            "number": 1,
            "time": 136.42787963542824,
            "value": 0.15748031496062992
          },
          {
            "number": 1,
            "time": 136.45836744792825,
            "value": 0
          },
          {
            "number": 1,
            "time": 147.57625640626443,
            "value": 0.015748031496062992
          },
          {
            "number": 1,
            "time": 147.62198812501444,
            "value": 0.12598425196850394
          },
          {
            "number": 1,
            "time": 147.68296375001444,
            "value": 0.2440944881889764
          },
          {
            "number": 1,
            "time": 147.7236141666811,
            "value": 0.3700787401574803
          },
          {
            "number": 1,
            "time": 147.76426458334777,
            "value": 0.4881889763779528
          },
          {
            "number": 1,
            "time": 147.80491500001443,
            "value": 0.6062992125984252
          },
          {
            "number": 1,
            "time": 147.84048411459776,
            "value": 0.7165354330708661
          },
          {
            "number": 1,
            "time": 147.8912971354311,
            "value": 0.8346456692913385
          },
          {
            "number": 1,
            "time": 147.92686625001443,
            "value": 0.8503937007874016
          },
          {
            "number": 1,
            "time": 148.0132483854311,
            "value": 0.7401574803149606
          },
          {
            "number": 1,
            "time": 148.0437361979311,
            "value": 0.6220472440944882
          },
          {
            "number": 1,
            "time": 148.07422401043112,
            "value": 0.49606299212598426
          },
          {
            "number": 1,
            "time": 148.10471182293114,
            "value": 0.33858267716535434
          },
          {
            "number": 1,
            "time": 148.13519963543115,
            "value": 0.15748031496062992
          },
          {
            "number": 1,
            "time": 148.16568744793116,
            "value": 0
          }
        ],
        "6": [
          {
            "number": 6,
            "time": 0.9857726041666675,
            "value": 0.31496062992125984
          },
          {
            "number": 6,
            "time": 1.0111791145833342,
            "value": 0.09448818897637795
          },
          {
            "number": 6,
            "time": 1.036585625000001,
            "value": 0.09448818897637795
          },
          {
            "number": 6,
            "time": 1.0619921354166677,
            "value": 0.09448818897637795
          },
          {
            "number": 6,
            "time": 1.0772360416666678,
            "value": 0.3543307086614173
          },
          {
            "number": 6,
            "time": 1.1026425520833345,
            "value": 0.09448818897637795
          },
          {
            "number": 6,
            "time": 1.1280490625000013,
            "value": 0.07874015748031496
          },
          {
            "number": 6,
            "time": 1.1432929687500013,
            "value": 0.07874015748031496
          },
          {
            "number": 6,
            "time": 1.1585368750000014,
            "value": 0.2204724409448819
          },
          {
            "number": 6,
            "time": 1.1737807812500014,
            "value": 0.2204724409448819
          }
        ],
        "7": [
          {
            "number": 7,
            "time": 0.50304890625,
            "value": 0.7086614173228346
          },
          {
            "number": 7,
            "time": 0.5284554166666667,
            "value": 0.7086614173228346
          },
          {
            "number": 7,
            "time": 0.5538619270833335,
            "value": 0.6299212598425197
          },
          {
            "number": 7,
            "time": 0.5792684375000002,
            "value": 0.7086614173228346
          },
          {
            "number": 7,
            "time": 0.604674947916667,
            "value": 0.7086614173228346
          },
          {
            "number": 7,
            "time": 0.6300814583333337,
            "value": 0.7086614173228346
          },
          {
            "number": 7,
            "time": 0.6554879687500005,
            "value": 0.7086614173228346
          },
          {
            "number": 7,
            "time": 0.6808944791666672,
            "value": 0.7086614173228346
          },
          {
            "number": 7,
            "time": 0.706300989583334,
            "value": 0.7086614173228346
          },
          {
            "number": 7,
            "time": 0.7317075000000007,
            "value": 0.7086614173228346
          }
        ],
        "10": [
          {
            "number": 10,
            "time": 0.50304890625,
            "value": 0.03937007874015748
          },
          {
            "number": 10,
            "time": 0.5284554166666667,
            "value": 0.8582677165354331
          },
          {
            "number": 10,
            "time": 0.5538619270833335,
            "value": 0.2283464566929134
          },
          {
            "number": 10,
            "time": 0.5792684375000002,
            "value": 0.5039370078740157
          },
          {
            "number": 10,
            "time": 0.604674947916667,
            "value": 0.9448818897637795
          },
          {
            "number": 10,
            "time": 0.6300814583333337,
            "value": 0.9448818897637795
          },
          {
            "number": 10,
            "time": 0.6554879687500005,
            "value": 0.9448818897637795
          },
          {
            "number": 10,
            "time": 0.6808944791666672,
            "value": 0.9448818897637795
          },
          {
            "number": 10,
            "time": 0.706300989583334,
            "value": 0.9448818897637795
          },
          {
            "number": 10,
            "time": 0.7317075000000007,
            "value": 0.5039370078740157
          }
        ],
        "11": [
          {
            "number": 11,
            "time": 0.50304890625,
            "value": 1
          },
          {
            "number": 11,
            "time": 0.5284554166666667,
            "value": 1
          },
          {
            "number": 11,
            "time": 0.5538619270833335,
            "value": 1
          },
          {
            "number": 11,
            "time": 0.5792684375000002,
            "value": 1
          },
          {
            "number": 11,
            "time": 0.604674947916667,
            "value": 1
          },
          {
            "number": 11,
            "time": 0.6300814583333337,
            "value": 1
          },
          {
            "number": 11,
            "time": 0.6554879687500005,
            "value": 1
          },
          {
            "number": 11,
            "time": 0.6808944791666672,
            "value": 1
          },
          {
            "number": 11,
            "time": 0.706300989583334,
            "value": 1
          },
          {
            "number": 11,
            "time": 0.7317075000000007,
            "value": 1
          },
          {
            "number": 11,
            "time": 16.763215572916522,
            "value": 1
          },
          {
            "number": 11,
            "time": 16.808947291666524,
            "value": 0.9291338582677166
          },
          {
            "number": 11,
            "time": 16.844516406249856,
            "value": 0.7874015748031497
          },
          {
            "number": 11,
            "time": 16.859760312499855,
            "value": 0.6299212598425197
          },
          {
            "number": 11,
            "time": 16.890248124999854,
            "value": 0.3937007874015748
          },
          {
            "number": 11,
            "time": 17.052849791666517,
            "value": 1
          },
          {
            "number": 11,
            "time": 32.37297557291626,
            "value": 1
          },
          {
            "number": 11,
            "time": 32.41870729166626,
            "value": 0.9291338582677166
          },
          {
            "number": 11,
            "time": 32.45427640624959,
            "value": 0.7874015748031497
          },
          {
            "number": 11,
            "time": 32.46952031249959,
            "value": 0.6299212598425197
          },
          {
            "number": 11,
            "time": 32.50000812499959,
            "value": 0.3937007874015748
          },
          {
            "number": 11,
            "time": 32.66260979166625,
            "value": 1
          },
          {
            "number": 11,
            "time": 41.95122999999937,
            "value": 1
          },
          {
            "number": 11,
            "time": 42.11891296874937,
            "value": 0.9212598425196851
          },
          {
            "number": 11,
            "time": 42.1544820833327,
            "value": 0.7007874015748031
          },
          {
            "number": 11,
            "time": 42.174807291666035,
            "value": 0.3779527559055118
          },
          {
            "number": 11,
            "time": 42.23578291666603,
            "value": 1
          },
          {
            "number": 11,
            "time": 43.90244999999931,
            "value": 1
          },
          {
            "number": 11,
            "time": 43.922775208332645,
            "value": 0.9291338582677166
          },
          {
            "number": 11,
            "time": 43.94818171874931,
            "value": 0.8188976377952756
          },
          {
            "number": 11,
            "time": 43.973588229165976,
            "value": 0.6377952755905512
          },
          {
            "number": 11,
            "time": 43.988832135415976,
            "value": 0.3858267716535433
          },
          {
            "number": 11,
            "time": 44.380092395832634,
            "value": 1
          },
          {
            "number": 11,
            "time": 55.655501718749036,
            "value": 0.9763779527559056
          },
          {
            "number": 11,
            "time": 55.752046458332366,
            "value": 0.9291338582677166
          },
          {
            "number": 11,
            "time": 55.82826598958236,
            "value": 0.889763779527559
          },
          {
            "number": 11,
            "time": 55.89940421874903,
            "value": 0.7952755905511811
          },
          {
            "number": 11,
            "time": 56.55997348958234,
            "value": 1
          },
          {
            "number": 11,
            "time": 63.59249557291553,
            "value": 1
          },
          {
            "number": 11,
            "time": 63.63822729166553,
            "value": 0.9291338582677166
          },
          {
            "number": 11,
            "time": 63.67379640624886,
            "value": 0.7874015748031497
          },
          {
            "number": 11,
            "time": 63.68904031249886,
            "value": 0.6299212598425197
          },
          {
            "number": 11,
            "time": 63.71952812499886,
            "value": 0.3937007874015748
          },
          {
            "number": 11,
            "time": 63.88212979166552,
            "value": 1
          },
          {
            "number": 11,
            "time": 88.78051000000308,
            "value": 1
          },
          {
            "number": 11,
            "time": 88.94819296875312,
            "value": 0.9212598425196851
          },
          {
            "number": 11,
            "time": 88.98376208333646,
            "value": 0.7007874015748031
          },
          {
            "number": 11,
            "time": 89.0040872916698,
            "value": 0.3779527559055118
          },
          {
            "number": 11,
            "time": 89.06506291666982,
            "value": 1
          },
          {
            "number": 11,
            "time": 90.73173000000345,
            "value": 1
          },
          {
            "number": 11,
            "time": 90.7520552083368,
            "value": 0.9291338582677166
          },
          {
            "number": 11,
            "time": 90.77746171875347,
            "value": 0.8188976377952756
          },
          {
            "number": 11,
            "time": 90.80286822917014,
            "value": 0.6377952755905512
          },
          {
            "number": 11,
            "time": 90.81811213542015,
            "value": 0.3858267716535433
          },
          {
            "number": 11,
            "time": 91.20937239583688,
            "value": 1
          },
          {
            "number": 11,
            "time": 102.48478171875507,
            "value": 0.9763779527559056
          },
          {
            "number": 11,
            "time": 102.58132645833844,
            "value": 0.9291338582677166
          },
          {
            "number": 11,
            "time": 102.65754598958844,
            "value": 0.889763779527559
          },
          {
            "number": 11,
            "time": 102.72868421875512,
            "value": 0.7952755905511811
          },
          {
            "number": 11,
            "time": 103.38925348958853,
            "value": 1
          },
          {
            "number": 11,
            "time": 110.42177557292295,
            "value": 1
          },
          {
            "number": 11,
            "time": 110.46750729167296,
            "value": 0.9291338582677166
          },
          {
            "number": 11,
            "time": 110.50307640625633,
            "value": 0.7874015748031497
          },
          {
            "number": 11,
            "time": 110.51832031250633,
            "value": 0.6299212598425197
          },
          {
            "number": 11,
            "time": 110.54880812500633,
            "value": 0.3937007874015748
          },
          {
            "number": 11,
            "time": 110.71140979167302,
            "value": 1
          },
          {
            "number": 11,
            "time": 142.4390600000134,
            "value": 1
          },
          {
            "number": 11,
            "time": 142.4390600000134,
            "value": 1
          },
          {
            "number": 11,
            "time": 142.4390600000134,
            "value": 1
          },
          {
            "number": 11,
            "time": 142.4390600000134,
            "value": 1
          },
          {
            "number": 11,
            "time": 142.4390600000134,
            "value": 1
          },
          {
            "number": 11,
            "time": 142.4390600000134,
            "value": 1
          },
          {
            "number": 11,
            "time": 142.58133645834678,
            "value": 0.9606299212598425
          },
          {
            "number": 11,
            "time": 142.58133645834678,
            "value": 0.9606299212598425
          },
          {
            "number": 11,
            "time": 142.58133645834678,
            "value": 0.9606299212598425
          },
          {
            "number": 11,
            "time": 142.58133645834678,
            "value": 0.9606299212598425
          },
          {
            "number": 11,
            "time": 142.58133645834678,
            "value": 0.9606299212598425
          },
          {
            "number": 11,
            "time": 142.58133645834678,
            "value": 0.9606299212598425
          },
          {
            "number": 11,
            "time": 142.72869421876348,
            "value": 0.9212598425196851
          },
          {
            "number": 11,
            "time": 142.72869421876348,
            "value": 0.9212598425196851
          },
          {
            "number": 11,
            "time": 142.72869421876348,
            "value": 0.9212598425196851
          },
          {
            "number": 11,
            "time": 142.72869421876348,
            "value": 0.9212598425196851
          },
          {
            "number": 11,
            "time": 142.72869421876348,
            "value": 0.9212598425196851
          },
          {
            "number": 11,
            "time": 142.72869421876348,
            "value": 0.9212598425196851
          },
          {
            "number": 11,
            "time": 142.8506454687635,
            "value": 0.8818897637795275
          },
          {
            "number": 11,
            "time": 142.8506454687635,
            "value": 0.8818897637795275
          },
          {
            "number": 11,
            "time": 142.8506454687635,
            "value": 0.8818897637795275
          },
          {
            "number": 11,
            "time": 142.8506454687635,
            "value": 0.8818897637795275
          },
          {
            "number": 11,
            "time": 142.8506454687635,
            "value": 0.8818897637795275
          },
          {
            "number": 11,
            "time": 142.8506454687635,
            "value": 0.8818897637795275
          },
          {
            "number": 11,
            "time": 142.94719020834688,
            "value": 0.84251968503937
          },
          {
            "number": 11,
            "time": 142.94719020834688,
            "value": 0.84251968503937
          },
          {
            "number": 11,
            "time": 142.94719020834688,
            "value": 0.84251968503937
          },
          {
            "number": 11,
            "time": 142.94719020834688,
            "value": 0.84251968503937
          },
          {
            "number": 11,
            "time": 142.94719020834688,
            "value": 0.84251968503937
          },
          {
            "number": 11,
            "time": 142.94719020834688,
            "value": 0.84251968503937
          },
          {
            "number": 11,
            "time": 143.02340973959687,
            "value": 0.8031496062992126
          },
          {
            "number": 11,
            "time": 143.02340973959687,
            "value": 0.8031496062992126
          },
          {
            "number": 11,
            "time": 143.02340973959687,
            "value": 0.8031496062992126
          },
          {
            "number": 11,
            "time": 143.02340973959687,
            "value": 0.8031496062992126
          },
          {
            "number": 11,
            "time": 143.02340973959687,
            "value": 0.8031496062992126
          },
          {
            "number": 11,
            "time": 143.02340973959687,
            "value": 0.8031496062992126
          },
          {
            "number": 11,
            "time": 143.1453609895969,
            "value": 0.7637795275590551
          },
          {
            "number": 11,
            "time": 143.1453609895969,
            "value": 0.7637795275590551
          },
          {
            "number": 11,
            "time": 143.1453609895969,
            "value": 0.7637795275590551
          },
          {
            "number": 11,
            "time": 143.1453609895969,
            "value": 0.7637795275590551
          },
          {
            "number": 11,
            "time": 143.1453609895969,
            "value": 0.7637795275590551
          },
          {
            "number": 11,
            "time": 143.1453609895969,
            "value": 0.7637795275590551
          },
          {
            "number": 11,
            "time": 143.26731223959692,
            "value": 0.7244094488188977
          },
          {
            "number": 11,
            "time": 143.26731223959692,
            "value": 0.7244094488188977
          },
          {
            "number": 11,
            "time": 143.26731223959692,
            "value": 0.7244094488188977
          },
          {
            "number": 11,
            "time": 143.26731223959692,
            "value": 0.7244094488188977
          },
          {
            "number": 11,
            "time": 143.26731223959692,
            "value": 0.7244094488188977
          },
          {
            "number": 11,
            "time": 143.26731223959692,
            "value": 0.7244094488188977
          },
          {
            "number": 11,
            "time": 143.36385697918027,
            "value": 0.6850393700787402
          },
          {
            "number": 11,
            "time": 143.36385697918027,
            "value": 0.6850393700787402
          },
          {
            "number": 11,
            "time": 143.36385697918027,
            "value": 0.6850393700787402
          },
          {
            "number": 11,
            "time": 143.36385697918027,
            "value": 0.6850393700787402
          },
          {
            "number": 11,
            "time": 143.36385697918027,
            "value": 0.6850393700787402
          },
          {
            "number": 11,
            "time": 143.36385697918027,
            "value": 0.6850393700787402
          },
          {
            "number": 11,
            "time": 143.4858082291803,
            "value": 0.6456692913385826
          },
          {
            "number": 11,
            "time": 143.4858082291803,
            "value": 0.6456692913385826
          },
          {
            "number": 11,
            "time": 143.4858082291803,
            "value": 0.6456692913385826
          },
          {
            "number": 11,
            "time": 143.4858082291803,
            "value": 0.6456692913385826
          },
          {
            "number": 11,
            "time": 143.4858082291803,
            "value": 0.6456692913385826
          },
          {
            "number": 11,
            "time": 143.4858082291803,
            "value": 0.6456692913385826
          },
          {
            "number": 11,
            "time": 143.556946458347,
            "value": 0.6062992125984252
          },
          {
            "number": 11,
            "time": 143.556946458347,
            "value": 0.6062992125984252
          },
          {
            "number": 11,
            "time": 143.556946458347,
            "value": 0.6062992125984252
          },
          {
            "number": 11,
            "time": 143.556946458347,
            "value": 0.6062992125984252
          },
          {
            "number": 11,
            "time": 143.556946458347,
            "value": 0.6062992125984252
          },
          {
            "number": 11,
            "time": 143.556946458347,
            "value": 0.6062992125984252
          },
          {
            "number": 11,
            "time": 143.75511723959713,
            "value": 0.5669291338582677
          },
          {
            "number": 11,
            "time": 143.75511723959713,
            "value": 0.5669291338582677
          },
          {
            "number": 11,
            "time": 143.75511723959713,
            "value": 0.5669291338582677
          },
          {
            "number": 11,
            "time": 143.75511723959713,
            "value": 0.5669291338582677
          },
          {
            "number": 11,
            "time": 143.75511723959713,
            "value": 0.5669291338582677
          },
          {
            "number": 11,
            "time": 143.75511723959713,
            "value": 0.5669291338582677
          },
          {
            "number": 11,
            "time": 143.85166197918048,
            "value": 0.5275590551181102
          },
          {
            "number": 11,
            "time": 143.85166197918048,
            "value": 0.5275590551181102
          },
          {
            "number": 11,
            "time": 143.85166197918048,
            "value": 0.5275590551181102
          },
          {
            "number": 11,
            "time": 143.85166197918048,
            "value": 0.5275590551181102
          },
          {
            "number": 11,
            "time": 143.85166197918048,
            "value": 0.5275590551181102
          },
          {
            "number": 11,
            "time": 143.85166197918048,
            "value": 0.5275590551181102
          },
          {
            "number": 11,
            "time": 143.90247500001382,
            "value": 0.48031496062992124
          },
          {
            "number": 11,
            "time": 143.90247500001382,
            "value": 0.48031496062992124
          },
          {
            "number": 11,
            "time": 143.90247500001382,
            "value": 0.48031496062992124
          },
          {
            "number": 11,
            "time": 143.90247500001382,
            "value": 0.48031496062992124
          },
          {
            "number": 11,
            "time": 143.90247500001382,
            "value": 0.48031496062992124
          },
          {
            "number": 11,
            "time": 143.90247500001382,
            "value": 0.48031496062992124
          },
          {
            "number": 11,
            "time": 144.02442625001385,
            "value": 0.4330708661417323
          },
          {
            "number": 11,
            "time": 144.02442625001385,
            "value": 0.4330708661417323
          },
          {
            "number": 11,
            "time": 144.02442625001385,
            "value": 0.4330708661417323
          },
          {
            "number": 11,
            "time": 144.02442625001385,
            "value": 0.4330708661417323
          },
          {
            "number": 11,
            "time": 144.02442625001385,
            "value": 0.4330708661417323
          },
          {
            "number": 11,
            "time": 144.02442625001385,
            "value": 0.4330708661417323
          },
          {
            "number": 11,
            "time": 144.19210921876387,
            "value": 0.3937007874015748
          },
          {
            "number": 11,
            "time": 144.19210921876387,
            "value": 0.3937007874015748
          },
          {
            "number": 11,
            "time": 144.19210921876387,
            "value": 0.3937007874015748
          },
          {
            "number": 11,
            "time": 144.19210921876387,
            "value": 0.3937007874015748
          },
          {
            "number": 11,
            "time": 144.19210921876387,
            "value": 0.3937007874015748
          },
          {
            "number": 11,
            "time": 144.19210921876387,
            "value": 0.3937007874015748
          },
          {
            "number": 11,
            "time": 144.36487348959724,
            "value": 0.31496062992125984
          },
          {
            "number": 11,
            "time": 144.36487348959724,
            "value": 0.31496062992125984
          },
          {
            "number": 11,
            "time": 144.36487348959724,
            "value": 0.31496062992125984
          },
          {
            "number": 11,
            "time": 144.36487348959724,
            "value": 0.31496062992125984
          },
          {
            "number": 11,
            "time": 144.36487348959724,
            "value": 0.31496062992125984
          },
          {
            "number": 11,
            "time": 144.36487348959724,
            "value": 0.31496062992125984
          },
          {
            "number": 11,
            "time": 144.51223125001394,
            "value": 0.2755905511811024
          },
          {
            "number": 11,
            "time": 144.51223125001394,
            "value": 0.2755905511811024
          },
          {
            "number": 11,
            "time": 144.51223125001394,
            "value": 0.2755905511811024
          },
          {
            "number": 11,
            "time": 144.51223125001394,
            "value": 0.2755905511811024
          },
          {
            "number": 11,
            "time": 144.51223125001394,
            "value": 0.2755905511811024
          },
          {
            "number": 11,
            "time": 144.51223125001394,
            "value": 0.2755905511811024
          },
          {
            "number": 11,
            "time": 144.65450770834732,
            "value": 0.23622047244094488
          },
          {
            "number": 11,
            "time": 144.65450770834732,
            "value": 0.23622047244094488
          },
          {
            "number": 11,
            "time": 144.65450770834732,
            "value": 0.23622047244094488
          },
          {
            "number": 11,
            "time": 144.65450770834732,
            "value": 0.23622047244094488
          },
          {
            "number": 11,
            "time": 144.65450770834732,
            "value": 0.23622047244094488
          },
          {
            "number": 11,
            "time": 144.65450770834732,
            "value": 0.23622047244094488
          },
          {
            "number": 11,
            "time": 144.8272719791807,
            "value": 0.1968503937007874
          },
          {
            "number": 11,
            "time": 144.8272719791807,
            "value": 0.1968503937007874
          },
          {
            "number": 11,
            "time": 144.8272719791807,
            "value": 0.1968503937007874
          },
          {
            "number": 11,
            "time": 144.8272719791807,
            "value": 0.1968503937007874
          },
          {
            "number": 11,
            "time": 144.8272719791807,
            "value": 0.1968503937007874
          },
          {
            "number": 11,
            "time": 144.8272719791807,
            "value": 0.1968503937007874
          },
          {
            "number": 11,
            "time": 145.09658098959738,
            "value": 0.15748031496062992
          },
          {
            "number": 11,
            "time": 145.09658098959738,
            "value": 0.15748031496062992
          },
          {
            "number": 11,
            "time": 145.09658098959738,
            "value": 0.15748031496062992
          },
          {
            "number": 11,
            "time": 145.09658098959738,
            "value": 0.15748031496062992
          },
          {
            "number": 11,
            "time": 145.09658098959738,
            "value": 0.15748031496062992
          },
          {
            "number": 11,
            "time": 145.09658098959738,
            "value": 0.15748031496062992
          },
          {
            "number": 11,
            "time": 145.34048348959743,
            "value": 0.11811023622047244
          },
          {
            "number": 11,
            "time": 145.34048348959743,
            "value": 0.11811023622047244
          },
          {
            "number": 11,
            "time": 145.34048348959743,
            "value": 0.11811023622047244
          },
          {
            "number": 11,
            "time": 145.34048348959743,
            "value": 0.11811023622047244
          },
          {
            "number": 11,
            "time": 145.34048348959743,
            "value": 0.11811023622047244
          },
          {
            "number": 11,
            "time": 145.34048348959743,
            "value": 0.11811023622047244
          },
          {
            "number": 11,
            "time": 145.48784125001416,
            "value": 0.07874015748031496
          },
          {
            "number": 11,
            "time": 145.48784125001416,
            "value": 0.07874015748031496
          },
          {
            "number": 11,
            "time": 145.48784125001416,
            "value": 0.07874015748031496
          },
          {
            "number": 11,
            "time": 145.48784125001416,
            "value": 0.07874015748031496
          },
          {
            "number": 11,
            "time": 145.48784125001416,
            "value": 0.07874015748031496
          },
          {
            "number": 11,
            "time": 145.48784125001416,
            "value": 0.07874015748031496
          },
          {
            "number": 11,
            "time": 145.8028819791809,
            "value": 0.03937007874015748
          },
          {
            "number": 11,
            "time": 145.8028819791809,
            "value": 0.03937007874015748
          },
          {
            "number": 11,
            "time": 145.8028819791809,
            "value": 0.03937007874015748
          },
          {
            "number": 11,
            "time": 145.8028819791809,
            "value": 0.03937007874015748
          },
          {
            "number": 11,
            "time": 145.8028819791809,
            "value": 0.03937007874015748
          },
          {
            "number": 11,
            "time": 145.8028819791809,
            "value": 0.03937007874015748
          },
          {
            "number": 11,
            "time": 146.1179227083477,
            "value": 0
          },
          {
            "number": 11,
            "time": 146.1179227083477,
            "value": 0
          },
          {
            "number": 11,
            "time": 146.1179227083477,
            "value": 0
          },
          {
            "number": 11,
            "time": 146.1179227083477,
            "value": 0
          },
          {
            "number": 11,
            "time": 146.1179227083477,
            "value": 0
          },
          {
            "number": 11,
            "time": 146.1179227083477,
            "value": 0
          },
          {
            "number": 11,
            "time": 147.31711000001442,
            "value": 1
          },
          {
            "number": 11,
            "time": 147.31711000001442,
            "value": 1
          },
          {
            "number": 11,
            "time": 147.31711000001442,
            "value": 1
          },
          {
            "number": 11,
            "time": 147.31711000001442,
            "value": 1
          },
          {
            "number": 11,
            "time": 147.31711000001442,
            "value": 1
          },
          {
            "number": 11,
            "time": 147.31711000001442,
            "value": 1
          }
        ],
        "32": [
          {
            "number": 32,
            "time": 0.4979676041666667,
            "value": 0
          },
          {
            "number": 32,
            "time": 0.5233741145833334,
            "value": 0
          },
          {
            "number": 32,
            "time": 0.5487806250000001,
            "value": 0
          },
          {
            "number": 32,
            "time": 0.5741871354166669,
            "value": 0
          },
          {
            "number": 32,
            "time": 0.5995936458333336,
            "value": 0
          },
          {
            "number": 32,
            "time": 0.6250001562500004,
            "value": 0
          },
          {
            "number": 32,
            "time": 0.6504066666666671,
            "value": 0
          },
          {
            "number": 32,
            "time": 0.6758131770833339,
            "value": 0
          },
          {
            "number": 32,
            "time": 0.7012196875000006,
            "value": 0
          },
          {
            "number": 32,
            "time": 0.7266261979166674,
            "value": 0
          }
        ],
        "64": [
          {
            "number": 64,
            "time": 17.47967916666651,
            "value": 1
          },
          {
            "number": 64,
            "time": 18.76524859374982,
            "value": 0
          },
          {
            "number": 64,
            "time": 33.08943916666624,
            "value": 1
          },
          {
            "number": 64,
            "time": 34.37500859374954,
            "value": 0
          },
          {
            "number": 64,
            "time": 64.30895916666559,
            "value": 1
          },
          {
            "number": 64,
            "time": 65.59452859374913,
            "value": 0
          },
          {
            "number": 64,
            "time": 74.09554697916727,
            "value": 1
          },
          {
            "number": 64,
            "time": 74.3699372916673,
            "value": 0
          },
          {
            "number": 64,
            "time": 77.99798697916795,
            "value": 1
          },
          {
            "number": 64,
            "time": 78.272377291668,
            "value": 0
          },
          {
            "number": 64,
            "time": 79.9187191666683,
            "value": 1
          },
          {
            "number": 64,
            "time": 81.20428859375184,
            "value": 0
          },
          {
            "number": 64,
            "time": 111.13823916667312,
            "value": 1
          },
          {
            "number": 64,
            "time": 112.42380859375666,
            "value": 0
          },
          {
            "number": 64,
            "time": 117.02238697917404,
            "value": 1
          },
          {
            "number": 64,
            "time": 117.29677729167405,
            "value": 0
          },
          {
            "number": 64,
            "time": 118.94311916667438,
            "value": 1
          },
          {
            "number": 64,
            "time": 120.22868859375794,
            "value": 0
          },
          {
            "number": 64,
            "time": 124.82726697917535,
            "value": 1
          },
          {
            "number": 64,
            "time": 125.10165729167535,
            "value": 0
          },
          {
            "number": 64,
            "time": 128.72970697917606,
            "value": 1
          },
          {
            "number": 64,
            "time": 129.00409729167615,
            "value": 0
          },
          {
            "number": 64,
            "time": 130.6504391666767,
            "value": 1
          },
          {
            "number": 64,
            "time": 131.93600859376033,
            "value": 0
          },
          {
            "number": 64,
            "time": 136.53458697917827,
            "value": 1
          },
          {
            "number": 64,
            "time": 136.8089772916784,
            "value": 0
          },
          {
            "number": 64,
            "time": 140.4370269791794,
            "value": 1
          },
          {
            "number": 64,
            "time": 140.71141729167948,
            "value": 0
          },
          {
            "number": 64,
            "time": 142.35775916668004,
            "value": 1
          },
          {
            "number": 64,
            "time": 143.64332859376373,
            "value": 0
          }
        ],
        "91": [
          {
            "number": 91,
            "time": 0.5081302083333333,
            "value": 0.1968503937007874
          },
          {
            "number": 91,
            "time": 0.5335367187500001,
            "value": 0.47244094488188976
          },
          {
            "number": 91,
            "time": 0.5589432291666668,
            "value": 0.7086614173228346
          },
          {
            "number": 91,
            "time": 0.5843497395833336,
            "value": 0.7480314960629921
          },
          {
            "number": 91,
            "time": 0.6097562500000003,
            "value": 0.1968503937007874
          },
          {
            "number": 91,
            "time": 0.6351627604166671,
            "value": 0.1968503937007874
          },
          {
            "number": 91,
            "time": 0.6605692708333338,
            "value": 0.1968503937007874
          },
          {
            "number": 91,
            "time": 0.6859757812500006,
            "value": 0.1968503937007874
          },
          {
            "number": 91,
            "time": 0.7113822916666673,
            "value": 0.1968503937007874
          },
          {
            "number": 91,
            "time": 0.7367888020833341,
            "value": 0.7874015748031497
          }
        ],
        "93": [
          {
            "number": 93,
            "time": 0.5081302083333333,
            "value": 0.23622047244094488
          },
          {
            "number": 93,
            "time": 0.5335367187500001,
            "value": 0
          },
          {
            "number": 93,
            "time": 0.5589432291666668,
            "value": 0.4330708661417323
          },
          {
            "number": 93,
            "time": 0.5843497395833336,
            "value": 0
          },
          {
            "number": 93,
            "time": 0.6097562500000003,
            "value": 0
          },
          {
            "number": 93,
            "time": 0.6351627604166671,
            "value": 0.31496062992125984
          },
          {
            "number": 93,
            "time": 0.6605692708333338,
            "value": 0.31496062992125984
          },
          {
            "number": 93,
            "time": 0.6859757812500006,
            "value": 0.23622047244094488
          },
          {
            "number": 93,
            "time": 0.7113822916666673,
            "value": 0
          },
          {
            "number": 93,
            "time": 0.7367888020833341,
            "value": 0.15748031496062992
          }
        ],
        "98": [
          {
            "number": 98,
            "time": 0.9806913020833341,
            "value": 0.7874015748031497
          },
          {
            "number": 98,
            "time": 1.122967760416668,
            "value": 0.2992125984251969
          },
          {
            "number": 98,
            "time": 1.138211666666668,
            "value": 0.30708661417322836
          },
          {
            "number": 98,
            "time": 1.153455572916668,
            "value": 0.33070866141732286
          },
          {
            "number": 98,
            "time": 1.168699479166668,
            "value": 0.41732283464566927
          }
        ],
        "99": [
          {
            "number": 99,
            "time": 0.9756100000000008,
            "value": 0.007874015748031496
          },
          {
            "number": 99,
            "time": 1.1178864583333346,
            "value": 0.2204724409448819
          },
          {
            "number": 99,
            "time": 1.1331303645833346,
            "value": 0.2204724409448819
          },
          {
            "number": 99,
            "time": 1.1483742708333347,
            "value": 0.2204724409448819
          },
          {
            "number": 99,
            "time": 1.1636181770833347,
            "value": 0.2204724409448819
          }
        ],
        "100": [
          {
            "number": 100,
            "time": 0.9959352083333342,
            "value": 1
          },
          {
            "number": 100,
            "time": 1.0060978125000009,
            "value": 0
          },
          {
            "number": 100,
            "time": 1.021341718750001,
            "value": 1
          },
          {
            "number": 100,
            "time": 1.0315043229166676,
            "value": 0
          },
          {
            "number": 100,
            "time": 1.0467482291666677,
            "value": 1
          },
          {
            "number": 100,
            "time": 1.0569108333333344,
            "value": 0
          },
          {
            "number": 100,
            "time": 1.0721547395833344,
            "value": 0.007874015748031496
          },
          {
            "number": 100,
            "time": 1.0873986458333345,
            "value": 1
          },
          {
            "number": 100,
            "time": 1.0975612500000012,
            "value": 0
          },
          {
            "number": 100,
            "time": 1.1128051562500012,
            "value": 1
          },
          {
            "number": 100,
            "time": 1.183943385416668,
            "value": 1
          }
        ],
        "101": [
          {
            "number": 101,
            "time": 0.9908539062500008,
            "value": 1
          },
          {
            "number": 101,
            "time": 1.0010165104166675,
            "value": 0
          },
          {
            "number": 101,
            "time": 1.0162604166666676,
            "value": 1
          },
          {
            "number": 101,
            "time": 1.0264230208333343,
            "value": 0
          },
          {
            "number": 101,
            "time": 1.0416669270833343,
            "value": 1
          },
          {
            "number": 101,
            "time": 1.051829531250001,
            "value": 0
          },
          {
            "number": 101,
            "time": 1.067073437500001,
            "value": 0
          },
          {
            "number": 101,
            "time": 1.082317343750001,
            "value": 1
          },
          {
            "number": 101,
            "time": 1.0924799479166678,
            "value": 0
          },
          {
            "number": 101,
            "time": 1.1077238541666679,
            "value": 1
          },
          {
            "number": 101,
            "time": 1.1788620833333348,
            "value": 1
          }
        ]
      },
      "id": 0,
      "instrumentNumber": 40,
      "instrument": "brush kit",
      "instrumentFamily": "drums",
      "channelNumber": 9,
      "isPercussion": true
    }
  ]
}