{
  "header": {
    "PPQ": 480,
    "timeSignature": [
      3,
      8
    ],
    "bpm": 69.17997516438892,
    "name": "Für Elise"
  },
  "startTime": 0,
  "duration": 163.0529639999998,
  "tracks": [
    {
      "startTime": 0,
      "duration": 0,
      "length": 0,
      "notes": [],
      "controlChanges": {},
      "id": 0,
      "name": "Für Elise"
    },
    {
      "startTime": 0.8673029999999999,
      "duration": 163.0529639999998,
      "length": 601,
      "notes": [
        {
          "name": "E5",
          "midi": 76,
          "time": 0.8673029999999999,
          "velocity": 0.28346456692913385,
          "duration": 0.21682574999999993
        },
        {
          "name": "D#5",
          "midi": 75,
          "time": 1.0841287499999999,
          "velocity": 0.25984251968503935,
          "duration": 0.21682574999999993
        },
        {
          "name": "E5",
          "midi": 76,
          "time": 1.3009544999999998,
          "velocity": 0.30708661417322836,
          "duration": 0.21682574999999993
        },
        {
          "name": "D#5",
          "midi": 75,
          "time": 1.5177802499999997,
          "velocity": 0.28346456692913385,
          "duration": 0.21682574999999993
        },
        {
          "name": "E5",
          "midi": 76,
          "time": 1.7346059999999996,
          "velocity": 0.3543307086614173,
          "duration": 0.21682574999999993
        },
        {
          "name": "B4",
          "midi": 71,
          "time": 1.9514317499999996,
          "velocity": 0.31496062992125984,
          "duration": 0.21682575000000015
        },
        {
          "name": "D5",
          "midi": 74,
          "time": 2.1682574999999997,
          "velocity": 0.3700787401574803,
          "duration": 0.21682574999999993
        },
        {
          "name": "C5",
          "midi": 72,
          "time": 2.3850832499999997,
          "velocity": 0.30708661417322836,
          "duration": 0.21682574999999993
        },
        {
          "name": "A4",
          "midi": 69,
          "time": 2.6019089999999996,
          "velocity": 0.4015748031496063,
          "duration": 0.43365149999999986
        },
        {
          "name": "C4",
          "midi": 60,
          "time": 3.2523862499999994,
          "velocity": 0.2677165354330709,
          "duration": 0.21682574999999993
        },
        {
          "name": "E4",
          "midi": 64,
          "time": 3.4692119999999993,
          "velocity": 0.2992125984251969,
          "duration": 0.21682574999999993
        },
        {
          "name": "A4",
          "midi": 69,
          "time": 3.6860377499999992,
          "velocity": 0.33070866141732286,
          "duration": 0.21682574999999993
        },
        {
          "name": "B4",
          "midi": 71,
          "time": 3.902863499999999,
          "velocity": 0.36220472440944884,
          "duration": 0.4336515000000003
        },
        {
          "name": "E4",
          "midi": 64,
          "time": 4.553340749999999,
          "velocity": 0.28346456692913385,
          "duration": 0.21682574999999993
        },
        {
          "name": "G#4",
          "midi": 68,
          "time": 4.770166499999999,
          "velocity": 0.30708661417322836,
          "duration": 0.21682574999999993
        },
        {
          "name": "B4",
          "midi": 71,
          "time": 4.986992249999999,
          "velocity": 0.33070866141732286,
          "duration": 0.21682574999999993
        },
        {
          "name": "C5",
          "midi": 72,
          "time": 5.203817999999999,
          "velocity": 0.3543307086614173,
          "duration": 0.43365149999999986
        },
        {
          "name": "E4",
          "midi": 64,
          "time": 5.854295249999999,
          "velocity": 0.2755905511811024,
          "duration": 0.21682574999999993
        },
        {
          "name": "E5",
          "midi": 76,
          "time": 6.071120999999999,
          "velocity": 0.2992125984251969,
          "duration": 0.21682574999999993
        },
        {
          "name": "D#5",
          "midi": 75,
          "time": 6.287946749999999,
          "velocity": 0.2677165354330709,
          "duration": 0.21682574999999993
        },
        {
          "name": "E5",
          "midi": 76,
          "time": 6.504772499999999,
          "velocity": 0.3228346456692913,
          "duration": 0.21682574999999993
        },
        {
          "name": "D#5",
          "midi": 75,
          "time": 6.721598249999999,
          "velocity": 0.29133858267716534,
          "duration": 0.21682574999999993
        },
        {
          "name": "E5",
          "midi": 76,
          "time": 6.938423999999999,
          "velocity": 0.36220472440944884,
          "duration": 0.21682574999999993
        },
        {
          "name": "B4",
          "midi": 71,
          "time": 7.1552497499999985,
          "velocity": 0.30708661417322836,
          "duration": 0.21682574999999993
        },
        {
          "name": "D5",
          "midi": 74,
          "time": 7.3720754999999984,
          "velocity": 0.3779527559055118,
          "duration": 0.21682574999999993
        },
        {
          "name": "C5",
          "midi": 72,
          "time": 7.588901249999998,
          "velocity": 0.30708661417322836,
          "duration": 0.21682574999999993
        },
        {
          "name": "A4",
          "midi": 69,
          "time": 7.805726999999998,
          "velocity": 0.3779527559055118,
          "duration": 0.43365150000000074
        },
        {
          "name": "C4",
          "midi": 60,
          "time": 8.456204249999999,
          "velocity": 0.2677165354330709,
          "duration": 0.21682574999999993
        },
        {
          "name": "E4",
          "midi": 64,
          "time": 8.673029999999999,
          "velocity": 0.29133858267716534,
          "duration": 0.21682574999999993
        },
        {
          "name": "A4",
          "midi": 69,
          "time": 8.889855749999999,
          "velocity": 0.3228346456692913,
          "duration": 0.21682574999999993
        },
        {
          "name": "B4",
          "midi": 71,
          "time": 9.106681499999999,
          "velocity": 0.3543307086614173,
          "duration": 0.43365149999999986
        },
        {
          "name": "E4",
          "midi": 64,
          "time": 9.757158749999999,
          "velocity": 0.29133858267716534,
          "duration": 0.21682574999999993
        },
        {
          "name": "C5",
          "midi": 72,
          "time": 9.973984499999998,
          "velocity": 0.31496062992125984,
          "duration": 0.21682574999999993
        },
        {
          "name": "B4",
          "midi": 71,
          "time": 10.190810249999998,
          "velocity": 0.2992125984251969,
          "duration": 0.21682574999999993
        },
        {
          "name": "A4",
          "midi": 69,
          "time": 10.407635999999998,
          "velocity": 0.31496062992125984,
          "duration": 0.43365149999999986
        },
        {
          "name": "E5",
          "midi": 76,
          "time": 11.274938999999998,
          "velocity": 0.28346456692913385,
          "duration": 0.21682574999999993
        },
        {
          "name": "D#5",
          "midi": 75,
          "time": 11.491764749999998,
          "velocity": 0.25984251968503935,
          "duration": 0.21682574999999993
        },
        {
          "name": "E5",
          "midi": 76,
          "time": 11.708590499999998,
          "velocity": 0.30708661417322836,
          "duration": 0.21682574999999993
        },
        {
          "name": "D#5",
          "midi": 75,
          "time": 11.925416249999998,
          "velocity": 0.28346456692913385,
          "duration": 0.21682574999999993
        },
        {
          "name": "E5",
          "midi": 76,
          "time": 12.142241999999998,
          "velocity": 0.3543307086614173,
          "duration": 0.21682574999999993
        },
        {
          "name": "B4",
          "midi": 71,
          "time": 12.359067749999998,
          "velocity": 0.31496062992125984,
          "duration": 0.21682574999999993
        },
        {
          "name": "D5",
          "midi": 74,
          "time": 12.575893499999998,
          "velocity": 0.3700787401574803,
          "duration": 0.21682574999999993
        },
        {
          "name": "C5",
          "midi": 72,
          "time": 12.792719249999998,
          "velocity": 0.30708661417322836,
          "duration": 0.21682574999999993
        },
        {
          "name": "A4",
          "midi": 69,
          "time": 13.009544999999997,
          "velocity": 0.4015748031496063,
          "duration": 0.43365149999999986
        },
        {
          "name": "C4",
          "midi": 60,
          "time": 13.660022249999997,
          "velocity": 0.2677165354330709,
          "duration": 0.21682574999999993
        },
        {
          "name": "E4",
          "midi": 64,
          "time": 13.876847999999997,
          "velocity": 0.2992125984251969,
          "duration": 0.21682574999999993
        },
        {
          "name": "A4",
          "midi": 69,
          "time": 14.093673749999997,
          "velocity": 0.33070866141732286,
          "duration": 0.21682574999999993
        },
        {
          "name": "B4",
          "midi": 71,
          "time": 14.310499499999997,
          "velocity": 0.36220472440944884,
          "duration": 0.43365149999999986
        },
        {
          "name": "E4",
          "midi": 64,
          "time": 14.960976749999997,
          "velocity": 0.28346456692913385,
          "duration": 0.21682574999999993
        },
        {
          "name": "G#4",
          "midi": 68,
          "time": 15.177802499999997,
          "velocity": 0.30708661417322836,
          "duration": 0.21682574999999993
        },
        {
          "name": "B4",
          "midi": 71,
          "time": 15.394628249999997,
          "velocity": 0.33070866141732286,
          "duration": 0.21682574999999993
        },
        {
          "name": "C5",
          "midi": 72,
          "time": 15.611453999999997,
          "velocity": 0.3543307086614173,
          "duration": 0.43365150000000163
        },
        {
          "name": "E4",
          "midi": 64,
          "time": 16.26193125,
          "velocity": 0.2755905511811024,
          "duration": 0.2168257500000017
        },
        {
          "name": "E5",
          "midi": 76,
          "time": 16.478757,
          "velocity": 0.2992125984251969,
          "duration": 0.2168257500000017
        },
        {
          "name": "D#5",
          "midi": 75,
          "time": 16.695582750000003,
          "velocity": 0.2677165354330709,
          "duration": 0.2168257500000017
        },
        {
          "name": "E5",
          "midi": 76,
          "time": 16.912408500000005,
          "velocity": 0.3228346456692913,
          "duration": 0.2168257500000017
        },
        {
          "name": "D#5",
          "midi": 75,
          "time": 17.129234250000007,
          "velocity": 0.29133858267716534,
          "duration": 0.2168257500000017
        },
        {
          "name": "E5",
          "midi": 76,
          "time": 17.34606000000001,
          "velocity": 0.36220472440944884,
          "duration": 0.2168257500000017
        },
        {
          "name": "B4",
          "midi": 71,
          "time": 17.56288575000001,
          "velocity": 0.30708661417322836,
          "duration": 0.2168257500000017
        },
        {
          "name": "D5",
          "midi": 74,
          "time": 17.779711500000012,
          "velocity": 0.3779527559055118,
          "duration": 0.2168257500000017
        },
        {
          "name": "C5",
          "midi": 72,
          "time": 17.996537250000014,
          "velocity": 0.30708661417322836,
          "duration": 0.2168257500000017
        },
        {
          "name": "A4",
          "midi": 69,
          "time": 18.213363000000015,
          "velocity": 0.3779527559055118,
          "duration": 0.43365149999999986
        },
        {
          "name": "C4",
          "midi": 60,
          "time": 18.863840250000017,
          "velocity": 0.2677165354330709,
          "duration": 0.2168257500000017
        },
        {
          "name": "E4",
          "midi": 64,
          "time": 19.08066600000002,
          "velocity": 0.29133858267716534,
          "duration": 0.2168257500000017
        },
        {
          "name": "A4",
          "midi": 69,
          "time": 19.29749175000002,
          "velocity": 0.3228346456692913,
          "duration": 0.2168257500000017
        },
        {
          "name": "B4",
          "midi": 71,
          "time": 19.514317500000022,
          "velocity": 0.3543307086614173,
          "duration": 0.43365149999999986
        },
        {
          "name": "E4",
          "midi": 64,
          "time": 20.164794750000024,
          "velocity": 0.29133858267716534,
          "duration": 0.2168257500000017
        },
        {
          "name": "C5",
          "midi": 72,
          "time": 20.381620500000025,
          "velocity": 0.31496062992125984,
          "duration": 0.2168257500000017
        },
        {
          "name": "B4",
          "midi": 71,
          "time": 20.598446250000027,
          "velocity": 0.2992125984251969,
          "duration": 0.2168257500000017
        },
        {
          "name": "A4",
          "midi": 69,
          "time": 20.81527200000003,
          "velocity": 0.31496062992125984,
          "duration": 0.43365149999999986
        },
        {
          "name": "B4",
          "midi": 71,
          "time": 21.46574925000003,
          "velocity": 0.33070866141732286,
          "duration": 0.2168257500000017
        },
        {
          "name": "C5",
          "midi": 72,
          "time": 21.682575000000032,
          "velocity": 0.3543307086614173,
          "duration": 0.2168257500000017
        },
        {
          "name": "D5",
          "midi": 74,
          "time": 21.899400750000034,
          "velocity": 0.3779527559055118,
          "duration": 0.2168257500000017
        },
        {
          "name": "E5",
          "midi": 76,
          "time": 22.116226500000035,
          "velocity": 0.4015748031496063,
          "duration": 0.6504772500000016
        },
        {
          "name": "G4",
          "midi": 67,
          "time": 22.766703750000037,
          "velocity": 0.31496062992125984,
          "duration": 0.2168257500000017
        },
        {
          "name": "F5",
          "midi": 77,
          "time": 22.98352950000004,
          "velocity": 0.36220472440944884,
          "duration": 0.2168257500000017
        },
        {
          "name": "E5",
          "midi": 76,
          "time": 23.20035525000004,
          "velocity": 0.33858267716535434,
          "duration": 0.2168257500000017
        },
        {
          "name": "D5",
          "midi": 74,
          "time": 23.417181000000042,
          "velocity": 0.3937007874015748,
          "duration": 0.6504772500000016
        },
        {
          "name": "F4",
          "midi": 65,
          "time": 24.067658250000044,
          "velocity": 0.31496062992125984,
          "duration": 0.2168257500000017
        },
        {
          "name": "E5",
          "midi": 76,
          "time": 24.284484000000045,
          "velocity": 0.36220472440944884,
          "duration": 0.2168257500000017
        },
        {
          "name": "D5",
          "midi": 74,
          "time": 24.501309750000047,
          "velocity": 0.33858267716535434,
          "duration": 0.2168257500000017
        },
        {
          "name": "C5",
          "midi": 72,
          "time": 24.71813550000005,
          "velocity": 0.3937007874015748,
          "duration": 0.6504772500000016
        },
        {
          "name": "E4",
          "midi": 64,
          "time": 25.36861275000005,
          "velocity": 0.31496062992125984,
          "duration": 0.2168257500000017
        },
        {
          "name": "D5",
          "midi": 74,
          "time": 25.585438500000052,
          "velocity": 0.36220472440944884,
          "duration": 0.2168257500000017
        },
        {
          "name": "C5",
          "midi": 72,
          "time": 25.802264250000054,
          "velocity": 0.33858267716535434,
          "duration": 0.2168257500000017
        },
        {
          "name": "B4",
          "midi": 71,
          "time": 26.019090000000055,
          "velocity": 0.3937007874015748,
          "duration": 0.43365149999999986
        },
        {
          "name": "E4",
          "midi": 64,
          "time": 26.669567250000057,
          "velocity": 0.30708661417322836,
          "duration": 0.2168257500000017
        },
        {
          "name": "E5",
          "midi": 76,
          "time": 26.88639300000006,
          "velocity": 0.3543307086614173,
          "duration": 0.16261931249999861
        },
        {
          "name": "E5",
          "midi": 76,
          "time": 27.536870250000057,
          "velocity": 0.33858267716535434,
          "duration": 0.2168257500000017
        },
        {
          "name": "E6",
          "midi": 88,
          "time": 27.75369600000006,
          "velocity": 0.3779527559055118,
          "duration": 0.16261931249999861
        },
        {
          "name": "D#5",
          "midi": 75,
          "time": 28.404173250000056,
          "velocity": 0.33070866141732286,
          "duration": 0.2168257500000017
        },
        {
          "name": "E5",
          "midi": 76,
          "time": 28.620999000000058,
          "velocity": 0.3779527559055118,
          "duration": 0.16261931249999861
        },
        {
          "name": "D#5",
          "midi": 75,
          "time": 29.271476250000056,
          "velocity": 0.2755905511811024,
          "duration": 0.2168257500000017
        },
        {
          "name": "E5",
          "midi": 76,
          "time": 29.488302000000058,
          "velocity": 0.29133858267716534,
          "duration": 0.2168257500000017
        },
        {
          "name": "D#5",
          "midi": 75,
          "time": 29.70512775000006,
          "velocity": 0.2677165354330709,
          "duration": 0.2168257500000017
        },
        {
          "name": "E5",
          "midi": 76,
          "time": 29.92195350000006,
          "velocity": 0.31496062992125984,
          "duration": 0.2168257500000017
        },
        {
          "name": "D#5",
          "midi": 75,
          "time": 30.138779250000063,
          "velocity": 0.28346456692913385,
          "duration": 0.2168257500000017
        },
        {
          "name": "E5",
          "midi": 76,
          "time": 30.355605000000065,
          "velocity": 0.31496062992125984,
          "duration": 0.2168257500000017
        },
        {
          "name": "B4",
          "midi": 71,
          "time": 30.572430750000066,
          "velocity": 0.2755905511811024,
          "duration": 0.2168257500000017
        },
        {
          "name": "D5",
          "midi": 74,
          "time": 30.789256500000068,
          "velocity": 0.33070866141732286,
          "duration": 0.2168257500000017
        },
        {
          "name": "C5",
          "midi": 72,
          "time": 31.00608225000007,
          "velocity": 0.29133858267716534,
          "duration": 0.2168257500000017
        },
        {
          "name": "A4",
          "midi": 69,
          "time": 31.22290800000007,
          "velocity": 0.3543307086614173,
          "duration": 0.43365149999999986
        },
        {
          "name": "C4",
          "midi": 60,
          "time": 31.873385250000073,
          "velocity": 0.2677165354330709,
          "duration": 0.2168257500000017
        },
        {
          "name": "E4",
          "midi": 64,
          "time": 32.090211000000075,
          "velocity": 0.2992125984251969,
          "duration": 0.21682574999999815
        },
        {
          "name": "A4",
          "midi": 69,
          "time": 32.30703675000007,
          "velocity": 0.33070866141732286,
          "duration": 0.21682574999999815
        },
        {
          "name": "B4",
          "midi": 71,
          "time": 32.52386250000007,
          "velocity": 0.36220472440944884,
          "duration": 0.4336515000000034
        },
        {
          "name": "E4",
          "midi": 64,
          "time": 33.17433975000007,
          "velocity": 0.28346456692913385,
          "duration": 0.21682574999999815
        },
        {
          "name": "G#4",
          "midi": 68,
          "time": 33.39116550000007,
          "velocity": 0.30708661417322836,
          "duration": 0.21682574999999815
        },
        {
          "name": "B4",
          "midi": 71,
          "time": 33.60799125000007,
          "velocity": 0.33070866141732286,
          "duration": 0.21682574999999815
        },
        {
          "name": "C5",
          "midi": 72,
          "time": 33.82481700000007,
          "velocity": 0.3543307086614173,
          "duration": 0.4336515000000034
        },
        {
          "name": "E4",
          "midi": 64,
          "time": 34.47529425000007,
          "velocity": 0.2755905511811024,
          "duration": 0.21682574999999815
        },
        {
          "name": "E5",
          "midi": 76,
          "time": 34.69212000000007,
          "velocity": 0.2992125984251969,
          "duration": 0.21682574999999815
        },
        {
          "name": "D#5",
          "midi": 75,
          "time": 34.908945750000065,
          "velocity": 0.2677165354330709,
          "duration": 0.21682574999999815
        },
        {
          "name": "E5",
          "midi": 76,
          "time": 35.12577150000006,
          "velocity": 0.3228346456692913,
          "duration": 0.21682574999999815
        },
        {
          "name": "D#5",
          "midi": 75,
          "time": 35.34259725000006,
          "velocity": 0.29133858267716534,
          "duration": 0.21682574999999815
        },
        {
          "name": "E5",
          "midi": 76,
          "time": 35.55942300000006,
          "velocity": 0.36220472440944884,
          "duration": 0.21682574999999815
        },
        {
          "name": "B4",
          "midi": 71,
          "time": 35.77624875000006,
          "velocity": 0.30708661417322836,
          "duration": 0.21682574999999815
        },
        {
          "name": "D5",
          "midi": 74,
          "time": 35.993074500000056,
          "velocity": 0.3779527559055118,
          "duration": 0.21682574999999815
        },
        {
          "name": "C5",
          "midi": 72,
          "time": 36.209900250000054,
          "velocity": 0.30708661417322836,
          "duration": 0.21682574999999815
        },
        {
          "name": "A4",
          "midi": 69,
          "time": 36.42672600000005,
          "velocity": 0.36220472440944884,
          "duration": 0.4336515000000034
        },
        {
          "name": "C4",
          "midi": 60,
          "time": 37.07720325000005,
          "velocity": 0.2677165354330709,
          "duration": 0.21682574999999815
        },
        {
          "name": "E4",
          "midi": 64,
          "time": 37.29402900000005,
          "velocity": 0.29133858267716534,
          "duration": 0.21682574999999815
        },
        {
          "name": "A4",
          "midi": 69,
          "time": 37.51085475000005,
          "velocity": 0.3228346456692913,
          "duration": 0.21682574999999815
        },
        {
          "name": "B4",
          "midi": 71,
          "time": 37.72768050000005,
          "velocity": 0.3543307086614173,
          "duration": 0.4336515000000034
        },
        {
          "name": "E4",
          "midi": 64,
          "time": 38.37815775000005,
          "velocity": 0.29133858267716534,
          "duration": 0.21682574999999815
        },
        {
          "name": "C5",
          "midi": 72,
          "time": 38.59498350000005,
          "velocity": 0.31496062992125984,
          "duration": 0.21682574999999815
        },
        {
          "name": "B4",
          "midi": 71,
          "time": 38.811809250000046,
          "velocity": 0.2992125984251969,
          "duration": 0.21682574999999815
        },
        {
          "name": "A4",
          "midi": 69,
          "time": 39.028635000000044,
          "velocity": 0.31496062992125984,
          "duration": 0.4336515000000034
        },
        {
          "name": "B4",
          "midi": 71,
          "time": 39.679112250000045,
          "velocity": 0.33858267716535434,
          "duration": 0.21682574999999815
        },
        {
          "name": "C5",
          "midi": 72,
          "time": 39.895938000000044,
          "velocity": 0.3543307086614173,
          "duration": 0.21682574999999815
        },
        {
          "name": "D5",
          "midi": 74,
          "time": 40.11276375000004,
          "velocity": 0.3700787401574803,
          "duration": 0.21682574999999815
        },
        {
          "name": "E5",
          "midi": 76,
          "time": 40.32958950000004,
          "velocity": 0.3937007874015748,
          "duration": 0.6504772500000016
        },
        {
          "name": "G4",
          "midi": 67,
          "time": 40.98006675000004,
          "velocity": 0.31496062992125984,
          "duration": 0.21682574999999815
        },
        {
          "name": "F5",
          "midi": 77,
          "time": 41.19689250000004,
          "velocity": 0.36220472440944884,
          "duration": 0.21682574999999815
        },
        {
          "name": "E5",
          "midi": 76,
          "time": 41.41371825000004,
          "velocity": 0.33858267716535434,
          "duration": 0.21682574999999815
        },
        {
          "name": "D5",
          "midi": 74,
          "time": 41.630544000000036,
          "velocity": 0.3937007874015748,
          "duration": 0.6504772500000016
        },
        {
          "name": "F4",
          "midi": 65,
          "time": 42.28102125000004,
          "velocity": 0.31496062992125984,
          "duration": 0.21682574999999815
        },
        {
          "name": "E5",
          "midi": 76,
          "time": 42.497847000000036,
          "velocity": 0.36220472440944884,
          "duration": 0.21682574999999815
        },
        {
          "name": "D5",
          "midi": 74,
          "time": 42.714672750000034,
          "velocity": 0.33858267716535434,
          "duration": 0.21682574999999815
        },
        {
          "name": "C5",
          "midi": 72,
          "time": 42.93149850000003,
          "velocity": 0.3937007874015748,
          "duration": 0.6504772500000016
        },
        {
          "name": "E4",
          "midi": 64,
          "time": 43.58197575000003,
          "velocity": 0.31496062992125984,
          "duration": 0.21682574999999815
        },
        {
          "name": "D5",
          "midi": 74,
          "time": 43.79880150000003,
          "velocity": 0.36220472440944884,
          "duration": 0.21682574999999815
        },
        {
          "name": "C5",
          "midi": 72,
          "time": 44.01562725000003,
          "velocity": 0.33858267716535434,
          "duration": 0.21682574999999815
        },
        {
          "name": "B4",
          "midi": 71,
          "time": 44.23245300000003,
          "velocity": 0.3937007874015748,
          "duration": 0.4336515000000034
        },
        {
          "name": "E4",
          "midi": 64,
          "time": 44.88293025000003,
          "velocity": 0.30708661417322836,
          "duration": 0.21682574999999815
        },
        {
          "name": "E5",
          "midi": 76,
          "time": 45.09975600000003,
          "velocity": 0.3543307086614173,
          "duration": 0.16261931249999861
        },
        {
          "name": "E5",
          "midi": 76,
          "time": 45.75023325000003,
          "velocity": 0.33858267716535434,
          "duration": 0.21682574999999815
        },
        {
          "name": "E6",
          "midi": 88,
          "time": 45.96705900000003,
          "velocity": 0.3779527559055118,
          "duration": 0.16261931249999861
        },
        {
          "name": "D#5",
          "midi": 75,
          "time": 46.61753625000003,
          "velocity": 0.33070866141732286,
          "duration": 0.21682574999999815
        },
        {
          "name": "E5",
          "midi": 76,
          "time": 46.83436200000003,
          "velocity": 0.3779527559055118,
          "duration": 0.16261931249999861
        },
        {
          "name": "D#5",
          "midi": 75,
          "time": 47.48483925000003,
          "velocity": 0.2755905511811024,
          "duration": 0.21682574999999815
        },
        {
          "name": "E5",
          "midi": 76,
          "time": 47.70166500000003,
          "velocity": 0.29133858267716534,
          "duration": 0.21682574999999815
        },
        {
          "name": "D#5",
          "midi": 75,
          "time": 47.918490750000025,
          "velocity": 0.2677165354330709,
          "duration": 0.21682574999999815
        },
        {
          "name": "E5",
          "midi": 76,
          "time": 48.13531650000002,
          "velocity": 0.30708661417322836,
          "duration": 0.21682574999999815
        },
        {
          "name": "D#5",
          "midi": 75,
          "time": 48.35214225000002,
          "velocity": 0.28346456692913385,
          "duration": 0.21682574999999815
        },
        {
          "name": "E5",
          "midi": 76,
          "time": 48.56896800000002,
          "velocity": 0.30708661417322836,
          "duration": 0.21682574999999815
        },
        {
          "name": "B4",
          "midi": 71,
          "time": 48.78579375000002,
          "velocity": 0.2755905511811024,
          "duration": 0.21682574999999815
        },
        {
          "name": "D5",
          "midi": 74,
          "time": 49.002619500000016,
          "velocity": 0.31496062992125984,
          "duration": 0.21682574999999815
        },
        {
          "name": "C5",
          "midi": 72,
          "time": 49.219445250000014,
          "velocity": 0.25984251968503935,
          "duration": 0.21682574999999815
        },
        {
          "name": "A4",
          "midi": 69,
          "time": 49.43627100000001,
          "velocity": 0.36220472440944884,
          "duration": 0.4336515000000034
        },
        {
          "name": "C4",
          "midi": 60,
          "time": 50.086748250000014,
          "velocity": 0.2677165354330709,
          "duration": 0.21682574999999815
        },
        {
          "name": "E4",
          "midi": 64,
          "time": 50.30357400000001,
          "velocity": 0.2992125984251969,
          "duration": 0.21682574999999815
        },
        {
          "name": "A4",
          "midi": 69,
          "time": 50.52039975000001,
          "velocity": 0.33070866141732286,
          "duration": 0.21682574999999815
        },
        {
          "name": "B4",
          "midi": 71,
          "time": 50.73722550000001,
          "velocity": 0.36220472440944884,
          "duration": 0.4336515000000034
        },
        {
          "name": "E4",
          "midi": 64,
          "time": 51.38770275000001,
          "velocity": 0.28346456692913385,
          "duration": 0.21682574999999815
        },
        {
          "name": "G#4",
          "midi": 68,
          "time": 51.60452850000001,
          "velocity": 0.30708661417322836,
          "duration": 0.21682574999999815
        },
        {
          "name": "B4",
          "midi": 71,
          "time": 51.821354250000006,
          "velocity": 0.33070866141732286,
          "duration": 0.21682574999999815
        },
        {
          "name": "C5",
          "midi": 72,
          "time": 52.038180000000004,
          "velocity": 0.3543307086614173,
          "duration": 0.4336515000000034
        },
        {
          "name": "E4",
          "midi": 64,
          "time": 52.688657250000006,
          "velocity": 0.2755905511811024,
          "duration": 0.21682574999999815
        },
        {
          "name": "E5",
          "midi": 76,
          "time": 52.905483000000004,
          "velocity": 0.2992125984251969,
          "duration": 0.21682574999999815
        },
        {
          "name": "D#5",
          "midi": 75,
          "time": 53.12230875,
          "velocity": 0.2677165354330709,
          "duration": 0.21682574999999815
        },
        {
          "name": "E5",
          "midi": 76,
          "time": 53.3391345,
          "velocity": 0.3228346456692913,
          "duration": 0.21682574999999815
        },
        {
          "name": "D#5",
          "midi": 75,
          "time": 53.55596025,
          "velocity": 0.29133858267716534,
          "duration": 0.21682574999999815
        },
        {
          "name": "E5",
          "midi": 76,
          "time": 53.772785999999996,
          "velocity": 0.36220472440944884,
          "duration": 0.21682574999999815
        },
        {
          "name": "B4",
          "midi": 71,
          "time": 53.989611749999995,
          "velocity": 0.30708661417322836,
          "duration": 0.21682574999999815
        },
        {
          "name": "D5",
          "midi": 74,
          "time": 54.20643749999999,
          "velocity": 0.3779527559055118,
          "duration": 0.21682574999999815
        },
        {
          "name": "C5",
          "midi": 72,
          "time": 54.42326324999999,
          "velocity": 0.30708661417322836,
          "duration": 0.21682574999999815
        },
        {
          "name": "A4",
          "midi": 69,
          "time": 54.64008899999999,
          "velocity": 0.3779527559055118,
          "duration": 0.4336515000000034
        },
        {
          "name": "C4",
          "midi": 60,
          "time": 55.29056624999999,
          "velocity": 0.2677165354330709,
          "duration": 0.21682574999999815
        },
        {
          "name": "E4",
          "midi": 64,
          "time": 55.50739199999999,
          "velocity": 0.29133858267716534,
          "duration": 0.21682574999999815
        },
        {
          "name": "A4",
          "midi": 69,
          "time": 55.72421774999999,
          "velocity": 0.3228346456692913,
          "duration": 0.21682574999999815
        },
        {
          "name": "B4",
          "midi": 71,
          "time": 55.941043499999985,
          "velocity": 0.3543307086614173,
          "duration": 0.4336515000000034
        },
        {
          "name": "E4",
          "midi": 64,
          "time": 56.59152074999999,
          "velocity": 0.29133858267716534,
          "duration": 0.21682574999999815
        },
        {
          "name": "C5",
          "midi": 72,
          "time": 56.808346499999985,
          "velocity": 0.31496062992125984,
          "duration": 0.21682574999999815
        },
        {
          "name": "B4",
          "midi": 71,
          "time": 57.02517224999998,
          "velocity": 0.2992125984251969,
          "duration": 0.21682574999999815
        },
        {
          "name": "A4",
          "midi": 69,
          "time": 57.24199799999998,
          "velocity": 0.31496062992125984,
          "duration": 0.4336515000000034
        },
        {
          "name": "E4",
          "midi": 64,
          "time": 57.89247524999998,
          "velocity": 0.31496062992125984,
          "duration": 0.16261931249999861
        },
        {
          "name": "C5",
          "midi": 72,
          "time": 57.89247524999998,
          "velocity": 0.36220472440944884,
          "duration": 0.16261931249999861
        },
        {
          "name": "F4",
          "midi": 65,
          "time": 58.10930099999998,
          "velocity": 0.3228346456692913,
          "duration": 0.16261931249999861
        },
        {
          "name": "C5",
          "midi": 72,
          "time": 58.10930099999998,
          "velocity": 0.3700787401574803,
          "duration": 0.16261931249999861
        },
        {
          "name": "E4",
          "midi": 64,
          "time": 58.32612674999998,
          "velocity": 0.33858267716535434,
          "duration": 0.10841287499999908
        },
        {
          "name": "G4",
          "midi": 67,
          "time": 58.32612674999998,
          "velocity": 0.33858267716535434,
          "duration": 0.10841287499999908
        },
        {
          "name": "C5",
          "midi": 72,
          "time": 58.32612674999998,
          "velocity": 0.3858267716535433,
          "duration": 0.10841287499999908
        },
        {
          "name": "F4",
          "midi": 65,
          "time": 58.43453962499998,
          "velocity": 0.33858267716535434,
          "duration": 0.05420643749999954
        },
        {
          "name": "A4",
          "midi": 69,
          "time": 58.48874606249998,
          "velocity": 0.3228346456692913,
          "duration": 0.05420643749999954
        },
        {
          "name": "C5",
          "midi": 72,
          "time": 58.54295249999998,
          "velocity": 0.4330708661417323,
          "duration": 0.8673029999999997
        },
        {
          "name": "F5",
          "midi": 77,
          "time": 59.41025549999998,
          "velocity": 0.44881889763779526,
          "duration": 0.32523862499999723
        },
        {
          "name": "E5",
          "midi": 76,
          "time": 59.735494124999974,
          "velocity": 0.4094488188976378,
          "duration": 0.10479911249999674
        },
        {
          "name": "E5",
          "midi": 76,
          "time": 59.84390699999997,
          "velocity": 0.44881889763779526,
          "duration": 0.4336515000000034
        },
        {
          "name": "D5",
          "midi": 74,
          "time": 60.27755849999998,
          "velocity": 0.4015748031496063,
          "duration": 0.4336515000000034
        },
        {
          "name": "A#5",
          "midi": 82,
          "time": 60.71120999999998,
          "velocity": 0.4881889763779528,
          "duration": 0.32523862499999723
        },
        {
          "name": "A5",
          "midi": 81,
          "time": 61.03644862499998,
          "velocity": 0.4409448818897638,
          "duration": 0.10479911249999674
        },
        {
          "name": "A5",
          "midi": 81,
          "time": 61.144861499999976,
          "velocity": 0.4409448818897638,
          "duration": 0.21682574999999815
        },
        {
          "name": "G5",
          "midi": 79,
          "time": 61.361687249999974,
          "velocity": 0.4409448818897638,
          "duration": 0.21682574999999815
        },
        {
          "name": "F5",
          "midi": 77,
          "time": 61.57851299999997,
          "velocity": 0.4330708661417323,
          "duration": 0.21682574999999815
        },
        {
          "name": "E5",
          "midi": 76,
          "time": 61.79533874999997,
          "velocity": 0.4330708661417323,
          "duration": 0.21682574999999815
        },
        {
          "name": "D5",
          "midi": 74,
          "time": 62.01216449999997,
          "velocity": 0.4330708661417323,
          "duration": 0.21682574999999815
        },
        {
          "name": "C5",
          "midi": 72,
          "time": 62.22899024999997,
          "velocity": 0.4251968503937008,
          "duration": 0.21682574999999815
        },
        {
          "name": "A#4",
          "midi": 70,
          "time": 62.445815999999965,
          "velocity": 0.4251968503937008,
          "duration": 0.4336515000000034
        },
        {
          "name": "A4",
          "midi": 69,
          "time": 62.87946749999997,
          "velocity": 0.4015748031496063,
          "duration": 0.37944506249999677
        },
        {
          "name": "A#4",
          "midi": 70,
          "time": 63.258912562499965,
          "velocity": 0.3464566929133858,
          "duration": 0.05420643749999954
        },
        {
          "name": "A4",
          "midi": 69,
          "time": 63.313118999999965,
          "velocity": 0.3858267716535433,
          "duration": 0.10841287499999908
        },
        {
          "name": "G4",
          "midi": 67,
          "time": 63.421531874999964,
          "velocity": 0.3937007874015748,
          "duration": 0.10841287499999908
        },
        {
          "name": "A4",
          "midi": 69,
          "time": 63.52994474999996,
          "velocity": 0.4015748031496063,
          "duration": 0.10841287499999908
        },
        {
          "name": "A#4",
          "midi": 70,
          "time": 63.63835762499996,
          "velocity": 0.4094488188976378,
          "duration": 0.10841287499999908
        },
        {
          "name": "C5",
          "midi": 72,
          "time": 63.74677049999996,
          "velocity": 0.4251968503937008,
          "duration": 0.8673029999999997
        },
        {
          "name": "D5",
          "midi": 74,
          "time": 64.61407349999996,
          "velocity": 0.4330708661417323,
          "duration": 0.21682574999999815
        },
        {
          "name": "D#5",
          "midi": 75,
          "time": 64.83089924999996,
          "velocity": 0.44881889763779526,
          "duration": 0.21682574999999815
        },
        {
          "name": "E5",
          "midi": 76,
          "time": 65.04772499999996,
          "velocity": 0.4645669291338583,
          "duration": 0.6504772499999945
        },
        {
          "name": "E5",
          "midi": 76,
          "time": 65.69820224999995,
          "velocity": 0.4566929133858268,
          "duration": 0.21682574999999815
        },
        {
          "name": "F5",
          "midi": 77,
          "time": 65.91502799999995,
          "velocity": 0.49606299212598426,
          "duration": 0.21682574999999815
        },
        {
          "name": "A4",
          "midi": 69,
          "time": 66.13185374999995,
          "velocity": 0.4566929133858268,
          "duration": 0.21682574999999815
        },
        {
          "name": "C5",
          "midi": 72,
          "time": 66.34867949999995,
          "velocity": 0.5039370078740157,
          "duration": 0.8673030000000068
        },
        {
          "name": "D5",
          "midi": 74,
          "time": 67.21598249999995,
          "velocity": 0.5039370078740157,
          "duration": 0.32523862499999723
        },
        {
          "name": "B4",
          "midi": 71,
          "time": 67.54122112499995,
          "velocity": 0.44881889763779526,
          "duration": 0.10841287499999908
        },
        {
          "name": "C5",
          "midi": 72,
          "time": 67.64963399999995,
          "velocity": 0.5039370078740157,
          "duration": 0.10841287499999908
        },
        {
          "name": "G5",
          "midi": 79,
          "time": 67.75804687499995,
          "velocity": 0.44881889763779526,
          "duration": 0.10841287499999908
        },
        {
          "name": "G4",
          "midi": 67,
          "time": 67.86645974999995,
          "velocity": 0.5039370078740157,
          "duration": 0.10841287499999908
        },
        {
          "name": "G5",
          "midi": 79,
          "time": 67.97487262499995,
          "velocity": 0.44881889763779526,
          "duration": 0.10841287499999908
        },
        {
          "name": "A4",
          "midi": 69,
          "time": 68.08328549999995,
          "velocity": 0.5039370078740157,
          "duration": 0.10841287499999908
        },
        {
          "name": "G5",
          "midi": 79,
          "time": 68.19169837499994,
          "velocity": 0.49606299212598426,
          "duration": 0.10841287499999908
        },
        {
          "name": "B4",
          "midi": 71,
          "time": 68.30011124999994,
          "velocity": 0.5196850393700787,
          "duration": 0.10841287499999908
        },
        {
          "name": "G5",
          "midi": 79,
          "time": 68.40852412499994,
          "velocity": 0.49606299212598426,
          "duration": 0.10841287499999908
        },
        {
          "name": "C5",
          "midi": 72,
          "time": 68.51693699999994,
          "velocity": 0.5354330708661418,
          "duration": 0.10841287499999908
        },
        {
          "name": "G5",
          "midi": 79,
          "time": 68.62534987499994,
          "velocity": 0.5196850393700787,
          "duration": 0.10841287499999908
        },
        {
          "name": "D5",
          "midi": 74,
          "time": 68.73376274999994,
          "velocity": 0.5511811023622047,
          "duration": 0.10841287499999908
        },
        {
          "name": "G5",
          "midi": 79,
          "time": 68.84217562499994,
          "velocity": 0.5118110236220472,
          "duration": 0.10841287499999908
        },
        {
          "name": "E5",
          "midi": 76,
          "time": 68.95058849999994,
          "velocity": 0.5669291338582677,
          "duration": 0.10841287499999908
        },
        {
          "name": "G5",
          "midi": 79,
          "time": 69.05900137499994,
          "velocity": 0.49606299212598426,
          "duration": 0.10841287499999908
        },
        {
          "name": "C6",
          "midi": 84,
          "time": 69.16741424999994,
          "velocity": 0.5275590551181102,
          "duration": 0.10841287499999908
        },
        {
          "name": "B5",
          "midi": 83,
          "time": 69.27582712499994,
          "velocity": 0.4881889763779528,
          "duration": 0.10841287499999908
        },
        {
          "name": "A5",
          "midi": 81,
          "time": 69.38423999999993,
          "velocity": 0.5275590551181102,
          "duration": 0.10841287499999908
        },
        {
          "name": "G5",
          "midi": 79,
          "time": 69.49265287499993,
          "velocity": 0.4881889763779528,
          "duration": 0.10841287499999908
        },
        {
          "name": "F5",
          "midi": 77,
          "time": 69.60106574999993,
          "velocity": 0.5275590551181102,
          "duration": 0.10841287499999908
        },
        {
          "name": "E5",
          "midi": 76,
          "time": 69.70947862499993,
          "velocity": 0.48031496062992124,
          "duration": 0.10841287499999908
        },
        {
          "name": "D5",
          "midi": 74,
          "time": 69.81789149999993,
          "velocity": 0.5433070866141733,
          "duration": 0.10841287499999908
        },
        {
          "name": "G5",
          "midi": 79,
          "time": 69.92630437499993,
          "velocity": 0.49606299212598426,
          "duration": 0.10841287499999908
        },
        {
          "name": "F5",
          "midi": 77,
          "time": 70.03471724999993,
          "velocity": 0.5433070866141733,
          "duration": 0.10841287499999908
        },
        {
          "name": "D5",
          "midi": 74,
          "time": 70.14313012499993,
          "velocity": 0.5039370078740157,
          "duration": 0.10841287499999908
        },
        {
          "name": "C5",
          "midi": 72,
          "time": 70.25154299999993,
          "velocity": 0.5039370078740157,
          "duration": 0.10841287499999908
        },
        {
          "name": "G5",
          "midi": 79,
          "time": 70.35995587499993,
          "velocity": 0.44881889763779526,
          "duration": 0.10841287499999908
        },
        {
          "name": "G4",
          "midi": 67,
          "time": 70.46836874999993,
          "velocity": 0.5039370078740157,
          "duration": 0.10841287499999908
        },
        {
          "name": "G5",
          "midi": 79,
          "time": 70.57678162499992,
          "velocity": 0.44881889763779526,
          "duration": 0.10841287499999908
        },
        {
          "name": "A4",
          "midi": 69,
          "time": 70.68519449999992,
          "velocity": 0.5039370078740157,
          "duration": 0.10841287499999908
        },
        {
          "name": "G5",
          "midi": 79,
          "time": 70.79360737499992,
          "velocity": 0.49606299212598426,
          "duration": 0.10841287499999908
        },
        {
          "name": "B4",
          "midi": 71,
          "time": 70.90202024999992,
          "velocity": 0.5196850393700787,
          "duration": 0.10841287499999908
        },
        {
          "name": "G5",
          "midi": 79,
          "time": 71.01043312499992,
          "velocity": 0.49606299212598426,
          "duration": 0.10841287499999908
        },
        {
          "name": "C5",
          "midi": 72,
          "time": 71.11884599999992,
          "velocity": 0.5354330708661418,
          "duration": 0.10841287499999908
        },
        {
          "name": "G5",
          "midi": 79,
          "time": 71.22725887499992,
          "velocity": 0.5196850393700787,
          "duration": 0.10841287499999908
        },
        {
          "name": "D5",
          "midi": 74,
          "time": 71.33567174999992,
          "velocity": 0.5511811023622047,
          "duration": 0.10841287499999908
        },
        {
          "name": "G5",
          "midi": 79,
          "time": 71.44408462499992,
          "velocity": 0.5118110236220472,
          "duration": 0.10841287499999908
        },
        {
          "name": "E5",
          "midi": 76,
          "time": 71.55249749999992,
          "velocity": 0.5669291338582677,
          "duration": 0.10841287499999908
        },
        {
          "name": "G5",
          "midi": 79,
          "time": 71.66091037499992,
          "velocity": 0.5118110236220472,
          "duration": 0.10841287499999908
        },
        {
          "name": "C6",
          "midi": 84,
          "time": 71.76932324999991,
          "velocity": 0.5433070866141733,
          "duration": 0.10841287499999908
        },
        {
          "name": "B5",
          "midi": 83,
          "time": 71.87773612499991,
          "velocity": 0.5039370078740157,
          "duration": 0.10841287499999908
        },
        {
          "name": "A5",
          "midi": 81,
          "time": 71.98614899999991,
          "velocity": 0.5511811023622047,
          "duration": 0.10841287499999908
        },
        {
          "name": "G5",
          "midi": 79,
          "time": 72.09456187499991,
          "velocity": 0.47244094488188976,
          "duration": 0.10841287499999908
        },
        {
          "name": "F5",
          "midi": 77,
          "time": 72.20297474999991,
          "velocity": 0.5039370078740157,
          "duration": 0.10841287499999908
        },
        {
          "name": "E5",
          "midi": 76,
          "time": 72.31138762499991,
          "velocity": 0.4330708661417323,
          "duration": 0.10841287499999908
        },
        {
          "name": "D5",
          "midi": 74,
          "time": 72.41980049999991,
          "velocity": 0.5118110236220472,
          "duration": 0.10841287499999908
        },
        {
          "name": "G5",
          "midi": 79,
          "time": 72.52821337499991,
          "velocity": 0.44881889763779526,
          "duration": 0.10841287499999908
        },
        {
          "name": "F5",
          "midi": 77,
          "time": 72.6366262499999,
          "velocity": 0.49606299212598426,
          "duration": 0.10841287499999908
        },
        {
          "name": "D5",
          "midi": 74,
          "time": 72.7450391249999,
          "velocity": 0.41732283464566927,
          "duration": 0.10841287499999908
        },
        {
          "name": "E5",
          "midi": 76,
          "time": 72.8534519999999,
          "velocity": 0.44881889763779526,
          "duration": 0.10841287499999908
        },
        {
          "name": "F5",
          "midi": 77,
          "time": 72.9618648749999,
          "velocity": 0.3937007874015748,
          "duration": 0.10841287499999908
        },
        {
          "name": "E5",
          "midi": 76,
          "time": 73.0702777499999,
          "velocity": 0.3937007874015748,
          "duration": 0.10841287499999908
        },
        {
          "name": "D#5",
          "midi": 75,
          "time": 73.1786906249999,
          "velocity": 0.3937007874015748,
          "duration": 0.10841287499999908
        },
        {
          "name": "E5",
          "midi": 76,
          "time": 73.2871034999999,
          "velocity": 0.44881889763779526,
          "duration": 0.10841287499999908
        },
        {
          "name": "B4",
          "midi": 71,
          "time": 73.3955163749999,
          "velocity": 0.3858267716535433,
          "duration": 0.10841287499999908
        },
        {
          "name": "E5",
          "midi": 76,
          "time": 73.5039292499999,
          "velocity": 0.4251968503937008,
          "duration": 0.10841287499999908
        },
        {
          "name": "D#5",
          "midi": 75,
          "time": 73.6123421249999,
          "velocity": 0.4094488188976378,
          "duration": 0.10841287499999908
        },
        {
          "name": "E5",
          "midi": 76,
          "time": 73.7207549999999,
          "velocity": 0.44881889763779526,
          "duration": 0.10841287499999908
        },
        {
          "name": "B4",
          "midi": 71,
          "time": 73.8291678749999,
          "velocity": 0.4015748031496063,
          "duration": 0.10841287499999908
        },
        {
          "name": "E5",
          "midi": 76,
          "time": 73.9375807499999,
          "velocity": 0.4251968503937008,
          "duration": 0.10841287499999908
        },
        {
          "name": "D#5",
          "midi": 75,
          "time": 74.0459936249999,
          "velocity": 0.3858267716535433,
          "duration": 0.10841287499999908
        },
        {
          "name": "E5",
          "midi": 76,
          "time": 74.1544064999999,
          "velocity": 0.44881889763779526,
          "duration": 0.6504772499999945
        },
        {
          "name": "B4",
          "midi": 71,
          "time": 74.80488374999989,
          "velocity": 0.4094488188976378,
          "duration": 0.21682574999999815
        },
        {
          "name": "E5",
          "midi": 76,
          "time": 75.02170949999989,
          "velocity": 0.44881889763779526,
          "duration": 0.21682574999999815
        },
        {
          "name": "D#5",
          "midi": 75,
          "time": 75.23853524999988,
          "velocity": 0.3858267716535433,
          "duration": 0.21682574999999815
        },
        {
          "name": "E5",
          "midi": 76,
          "time": 75.45536099999988,
          "velocity": 0.4409448818897638,
          "duration": 0.6504772499999945
        },
        {
          "name": "B4",
          "midi": 71,
          "time": 76.10583824999988,
          "velocity": 0.33070866141732286,
          "duration": 0.21682574999999815
        },
        {
          "name": "E5",
          "midi": 76,
          "time": 76.32266399999988,
          "velocity": 0.3937007874015748,
          "duration": 0.16261931249999861
        },
        {
          "name": "D#5",
          "midi": 75,
          "time": 76.97314124999987,
          "velocity": 0.30708661417322836,
          "duration": 0.21682574999999815
        },
        {
          "name": "E5",
          "midi": 76,
          "time": 77.18996699999987,
          "velocity": 0.3228346456692913,
          "duration": 0.16261931249999861
        },
        {
          "name": "D#5",
          "midi": 75,
          "time": 77.84044424999986,
          "velocity": 0.2677165354330709,
          "duration": 0.21682574999999815
        },
        {
          "name": "E5",
          "midi": 76,
          "time": 78.05726999999986,
          "velocity": 0.31496062992125984,
          "duration": 0.21682574999999815
        },
        {
          "name": "D#5",
          "midi": 75,
          "time": 78.27409574999986,
          "velocity": 0.28346456692913385,
          "duration": 0.21682574999999815
        },
        {
          "name": "E5",
          "midi": 76,
          "time": 78.49092149999986,
          "velocity": 0.31496062992125984,
          "duration": 0.21682574999999815
        },
        {
          "name": "B4",
          "midi": 71,
          "time": 78.70774724999985,
          "velocity": 0.28346456692913385,
          "duration": 0.21682574999999815
        },
        {
          "name": "D5",
          "midi": 74,
          "time": 78.92457299999985,
          "velocity": 0.33858267716535434,
          "duration": 0.21682574999999815
        },
        {
          "name": "C5",
          "midi": 72,
          "time": 79.14139874999985,
          "velocity": 0.2755905511811024,
          "duration": 0.21682574999999815
        },
        {
          "name": "A4",
          "midi": 69,
          "time": 79.35822449999985,
          "velocity": 0.3543307086614173,
          "duration": 0.4336514999999963
        },
        {
          "name": "C4",
          "midi": 60,
          "time": 80.00870174999984,
          "velocity": 0.2677165354330709,
          "duration": 0.21682574999999815
        },
        {
          "name": "E4",
          "midi": 64,
          "time": 80.22552749999984,
          "velocity": 0.2992125984251969,
          "duration": 0.21682574999999815
        },
        {
          "name": "A4",
          "midi": 69,
          "time": 80.44235324999984,
          "velocity": 0.33070866141732286,
          "duration": 0.21682574999999815
        },
        {
          "name": "B4",
          "midi": 71,
          "time": 80.65917899999984,
          "velocity": 0.36220472440944884,
          "duration": 0.4336514999999963
        },
        {
          "name": "E4",
          "midi": 64,
          "time": 81.30965624999983,
          "velocity": 0.28346456692913385,
          "duration": 0.21682574999999815
        },
        {
          "name": "G#4",
          "midi": 68,
          "time": 81.52648199999983,
          "velocity": 0.30708661417322836,
          "duration": 0.21682574999999815
        },
        {
          "name": "B4",
          "midi": 71,
          "time": 81.74330774999983,
          "velocity": 0.33070866141732286,
          "duration": 0.21682574999999815
        },
        {
          "name": "C5",
          "midi": 72,
          "time": 81.96013349999983,
          "velocity": 0.3543307086614173,
          "duration": 0.4336514999999963
        },
        {
          "name": "E4",
          "midi": 64,
          "time": 82.61061074999982,
          "velocity": 0.2755905511811024,
          "duration": 0.21682574999999815
        },
        {
          "name": "E5",
          "midi": 76,
          "time": 82.82743649999982,
          "velocity": 0.2992125984251969,
          "duration": 0.21682574999999815
        },
        {
          "name": "D#5",
          "midi": 75,
          "time": 83.04426224999982,
          "velocity": 0.2677165354330709,
          "duration": 0.21682574999999815
        },
        {
          "name": "E5",
          "midi": 76,
          "time": 83.26108799999982,
          "velocity": 0.3228346456692913,
          "duration": 0.21682574999999815
        },
        {
          "name": "D#5",
          "midi": 75,
          "time": 83.47791374999981,
          "velocity": 0.29133858267716534,
          "duration": 0.21682574999999815
        },
        {
          "name": "E5",
          "midi": 76,
          "time": 83.69473949999981,
          "velocity": 0.36220472440944884,
          "duration": 0.21682574999999815
        },
        {
          "name": "B4",
          "midi": 71,
          "time": 83.91156524999981,
          "velocity": 0.30708661417322836,
          "duration": 0.21682574999999815
        },
        {
          "name": "D5",
          "midi": 74,
          "time": 84.12839099999981,
          "velocity": 0.3779527559055118,
          "duration": 0.21682574999999815
        },
        {
          "name": "C5",
          "midi": 72,
          "time": 84.3452167499998,
          "velocity": 0.30708661417322836,
          "duration": 0.21682574999999815
        },
        {
          "name": "A4",
          "midi": 69,
          "time": 84.5620424999998,
          "velocity": 0.3779527559055118,
          "duration": 0.4336514999999963
        },
        {
          "name": "C4",
          "midi": 60,
          "time": 85.2125197499998,
          "velocity": 0.2677165354330709,
          "duration": 0.21682574999999815
        },
        {
          "name": "E4",
          "midi": 64,
          "time": 85.4293454999998,
          "velocity": 0.29133858267716534,
          "duration": 0.21682574999999815
        },
        {
          "name": "A4",
          "midi": 69,
          "time": 85.6461712499998,
          "velocity": 0.3228346456692913,
          "duration": 0.21682574999999815
        },
        {
          "name": "B4",
          "midi": 71,
          "time": 85.8629969999998,
          "velocity": 0.3543307086614173,
          "duration": 0.4336514999999963
        },
        {
          "name": "E4",
          "midi": 64,
          "time": 86.51347424999979,
          "velocity": 0.29133858267716534,
          "duration": 0.21682574999999815
        },
        {
          "name": "C5",
          "midi": 72,
          "time": 86.73029999999979,
          "velocity": 0.31496062992125984,
          "duration": 0.21682574999999815
        },
        {
          "name": "B4",
          "midi": 71,
          "time": 86.94712574999978,
          "velocity": 0.2992125984251969,
          "duration": 0.21682574999999815
        },
        {
          "name": "A4",
          "midi": 69,
          "time": 87.16395149999978,
          "velocity": 0.31496062992125984,
          "duration": 0.4336514999999963
        },
        {
          "name": "B4",
          "midi": 71,
          "time": 87.81442874999978,
          "velocity": 0.3464566929133858,
          "duration": 0.21682574999999815
        },
        {
          "name": "C5",
          "midi": 72,
          "time": 88.03125449999978,
          "velocity": 0.36220472440944884,
          "duration": 0.21682574999999815
        },
        {
          "name": "D5",
          "midi": 74,
          "time": 88.24808024999977,
          "velocity": 0.3779527559055118,
          "duration": 0.21682574999999815
        },
        {
          "name": "E5",
          "midi": 76,
          "time": 88.46490599999977,
          "velocity": 0.4094488188976378,
          "duration": 0.6504772499999945
        },
        {
          "name": "G4",
          "midi": 67,
          "time": 89.11538324999977,
          "velocity": 0.31496062992125984,
          "duration": 0.21682574999999815
        },
        {
          "name": "F5",
          "midi": 77,
          "time": 89.33220899999976,
          "velocity": 0.36220472440944884,
          "duration": 0.21682574999999815
        },
        {
          "name": "E5",
          "midi": 76,
          "time": 89.54903474999976,
          "velocity": 0.33858267716535434,
          "duration": 0.21682574999999815
        },
        {
          "name": "D5",
          "midi": 74,
          "time": 89.76586049999976,
          "velocity": 0.3937007874015748,
          "duration": 0.6504772499999945
        },
        {
          "name": "F4",
          "midi": 65,
          "time": 90.41633774999976,
          "velocity": 0.31496062992125984,
          "duration": 0.21682574999999815
        },
        {
          "name": "E5",
          "midi": 76,
          "time": 90.63316349999975,
          "velocity": 0.36220472440944884,
          "duration": 0.21682574999999815
        },
        {
          "name": "D5",
          "midi": 74,
          "time": 90.84998924999975,
          "velocity": 0.33858267716535434,
          "duration": 0.21682574999999815
        },
        {
          "name": "C5",
          "midi": 72,
          "time": 91.06681499999975,
          "velocity": 0.3937007874015748,
          "duration": 0.6504772499999945
        },
        {
          "name": "E4",
          "midi": 64,
          "time": 91.71729224999974,
          "velocity": 0.31496062992125984,
          "duration": 0.21682574999999815
        },
        {
          "name": "D5",
          "midi": 74,
          "time": 91.93411799999974,
          "velocity": 0.36220472440944884,
          "duration": 0.21682574999999815
        },
        {
          "name": "C5",
          "midi": 72,
          "time": 92.15094374999974,
          "velocity": 0.33858267716535434,
          "duration": 0.21682574999999815
        },
        {
          "name": "B4",
          "midi": 71,
          "time": 92.36776949999974,
          "velocity": 0.3937007874015748,
          "duration": 0.4336514999999963
        },
        {
          "name": "E4",
          "midi": 64,
          "time": 93.01824674999973,
          "velocity": 0.30708661417322836,
          "duration": 0.21682574999999815
        },
        {
          "name": "E5",
          "midi": 76,
          "time": 93.23507249999973,
          "velocity": 0.3543307086614173,
          "duration": 0.16261931249999861
        },
        {
          "name": "E5",
          "midi": 76,
          "time": 93.88554974999973,
          "velocity": 0.33858267716535434,
          "duration": 0.21682574999999815
        },
        {
          "name": "E6",
          "midi": 88,
          "time": 94.10237549999972,
          "velocity": 0.3779527559055118,
          "duration": 0.16261931249999861
        },
        {
          "name": "D#5",
          "midi": 75,
          "time": 94.75285274999972,
          "velocity": 0.33070866141732286,
          "duration": 0.21682574999999815
        },
        {
          "name": "E5",
          "midi": 76,
          "time": 94.96967849999972,
          "velocity": 0.3779527559055118,
          "duration": 0.16261931249999861
        },
        {
          "name": "D#5",
          "midi": 75,
          "time": 95.62015574999971,
          "velocity": 0.2755905511811024,
          "duration": 0.21682574999999815
        },
        {
          "name": "E5",
          "midi": 76,
          "time": 95.83698149999971,
          "velocity": 0.29133858267716534,
          "duration": 0.21682574999999815
        },
        {
          "name": "D#5",
          "midi": 75,
          "time": 96.0538072499997,
          "velocity": 0.2677165354330709,
          "duration": 0.21682574999999815
        },
        {
          "name": "E5",
          "midi": 76,
          "time": 96.2706329999997,
          "velocity": 0.31496062992125984,
          "duration": 0.21682574999999815
        },
        {
          "name": "D#5",
          "midi": 75,
          "time": 96.4874587499997,
          "velocity": 0.28346456692913385,
          "duration": 0.21682574999999815
        },
        {
          "name": "E5",
          "midi": 76,
          "time": 96.7042844999997,
          "velocity": 0.33858267716535434,
          "duration": 0.21682574999999815
        },
        {
          "name": "B4",
          "midi": 71,
          "time": 96.9211102499997,
          "velocity": 0.2992125984251969,
          "duration": 0.21682574999999815
        },
        {
          "name": "D5",
          "midi": 74,
          "time": 97.1379359999997,
          "velocity": 0.3464566929133858,
          "duration": 0.21682574999999815
        },
        {
          "name": "C5",
          "midi": 72,
          "time": 97.3547617499997,
          "velocity": 0.2992125984251969,
          "duration": 0.21682574999999815
        },
        {
          "name": "A4",
          "midi": 69,
          "time": 97.5715874999997,
          "velocity": 0.3700787401574803,
          "duration": 0.4336514999999963
        },
        {
          "name": "C4",
          "midi": 60,
          "time": 98.22206474999969,
          "velocity": 0.2677165354330709,
          "duration": 0.21682574999999815
        },
        {
          "name": "E4",
          "midi": 64,
          "time": 98.43889049999969,
          "velocity": 0.2992125984251969,
          "duration": 0.21682574999999815
        },
        {
          "name": "A4",
          "midi": 69,
          "time": 98.65571624999968,
          "velocity": 0.33070866141732286,
          "duration": 0.21682574999999815
        },
        {
          "name": "B4",
          "midi": 71,
          "time": 98.87254199999968,
          "velocity": 0.36220472440944884,
          "duration": 0.4336514999999963
        },
        {
          "name": "E4",
          "midi": 64,
          "time": 99.52301924999968,
          "velocity": 0.28346456692913385,
          "duration": 0.21682574999999815
        },
        {
          "name": "G#4",
          "midi": 68,
          "time": 99.73984499999968,
          "velocity": 0.30708661417322836,
          "duration": 0.21682574999999815
        },
        {
          "name": "B4",
          "midi": 71,
          "time": 99.95667074999967,
          "velocity": 0.33070866141732286,
          "duration": 0.21682574999999815
        },
        {
          "name": "C5",
          "midi": 72,
          "time": 100.17349649999967,
          "velocity": 0.3543307086614173,
          "duration": 0.4336514999999963
        },
        {
          "name": "E4",
          "midi": 64,
          "time": 100.82397374999967,
          "velocity": 0.2755905511811024,
          "duration": 0.21682574999999815
        },
        {
          "name": "E5",
          "midi": 76,
          "time": 101.04079949999966,
          "velocity": 0.2992125984251969,
          "duration": 0.21682574999999815
        },
        {
          "name": "D#5",
          "midi": 75,
          "time": 101.25762524999966,
          "velocity": 0.2677165354330709,
          "duration": 0.21682574999999815
        },
        {
          "name": "E5",
          "midi": 76,
          "time": 101.47445099999966,
          "velocity": 0.3228346456692913,
          "duration": 0.21682574999999815
        },
        {
          "name": "D#5",
          "midi": 75,
          "time": 101.69127674999966,
          "velocity": 0.29133858267716534,
          "duration": 0.21682574999999815
        },
        {
          "name": "E5",
          "midi": 76,
          "time": 101.90810249999966,
          "velocity": 0.3228346456692913,
          "duration": 0.21682574999999815
        },
        {
          "name": "B4",
          "midi": 71,
          "time": 102.12492824999966,
          "velocity": 0.2677165354330709,
          "duration": 0.21682574999999815
        },
        {
          "name": "D5",
          "midi": 74,
          "time": 102.34175399999965,
          "velocity": 0.3543307086614173,
          "duration": 0.21682574999999815
        },
        {
          "name": "C5",
          "midi": 72,
          "time": 102.55857974999965,
          "velocity": 0.28346456692913385,
          "duration": 0.21682574999999815
        },
        {
          "name": "A4",
          "midi": 69,
          "time": 102.77540549999965,
          "velocity": 0.36220472440944884,
          "duration": 0.4336514999999963
        },
        {
          "name": "C4",
          "midi": 60,
          "time": 103.42588274999964,
          "velocity": 0.2677165354330709,
          "duration": 0.21682574999999815
        },
        {
          "name": "E4",
          "midi": 64,
          "time": 103.64270849999964,
          "velocity": 0.29133858267716534,
          "duration": 0.21682574999999815
        },
        {
          "name": "A4",
          "midi": 69,
          "time": 103.85953424999964,
          "velocity": 0.3228346456692913,
          "duration": 0.21682574999999815
        },
        {
          "name": "B4",
          "midi": 71,
          "time": 104.07635999999964,
          "velocity": 0.3543307086614173,
          "duration": 0.4336514999999963
        },
        {
          "name": "E4",
          "midi": 64,
          "time": 104.72683724999963,
          "velocity": 0.29133858267716534,
          "duration": 0.21682574999999815
        },
        {
          "name": "C5",
          "midi": 72,
          "time": 104.94366299999963,
          "velocity": 0.31496062992125984,
          "duration": 0.21682574999999815
        },
        {
          "name": "B4",
          "midi": 71,
          "time": 105.16048874999963,
          "velocity": 0.2992125984251969,
          "duration": 0.21682574999999815
        },
        {
          "name": "A4",
          "midi": 69,
          "time": 105.37731449999963,
          "velocity": 0.31496062992125984,
          "duration": 0.4336514999999963
        },
        {
          "name": "E4",
          "midi": 64,
          "time": 106.67826899999963,
          "velocity": 0.3543307086614173,
          "duration": 1.3009545000000031
        },
        {
          "name": "G4",
          "midi": 67,
          "time": 106.67826899999963,
          "velocity": 0.3543307086614173,
          "duration": 1.3009545000000031
        },
        {
          "name": "A#4",
          "midi": 70,
          "time": 106.67826899999963,
          "velocity": 0.3543307086614173,
          "duration": 1.3009545000000031
        },
        {
          "name": "C#5",
          "midi": 73,
          "time": 106.67826899999963,
          "velocity": 0.41732283464566927,
          "duration": 1.3009545000000031
        },
        {
          "name": "F4",
          "midi": 65,
          "time": 107.97922349999963,
          "velocity": 0.3858267716535433,
          "duration": 0.8673030000000068
        },
        {
          "name": "A4",
          "midi": 69,
          "time": 107.97922349999963,
          "velocity": 0.3858267716535433,
          "duration": 0.8673030000000068
        },
        {
          "name": "D5",
          "midi": 74,
          "time": 107.97922349999963,
          "velocity": 0.4645669291338583,
          "duration": 0.8673030000000068
        },
        {
          "name": "C#5",
          "midi": 73,
          "time": 108.84652649999964,
          "velocity": 0.4251968503937008,
          "duration": 0.16261931249999861
        },
        {
          "name": "E5",
          "midi": 76,
          "time": 108.84652649999964,
          "velocity": 0.5039370078740157,
          "duration": 0.16261931249999861
        },
        {
          "name": "D5",
          "midi": 74,
          "time": 109.06335224999964,
          "velocity": 0.4645669291338583,
          "duration": 0.16261931249999861
        },
        {
          "name": "F5",
          "midi": 77,
          "time": 109.06335224999964,
          "velocity": 0.5511811023622047,
          "duration": 0.16261931249999861
        },
        {
          "name": "G#4",
          "midi": 68,
          "time": 109.28017799999964,
          "velocity": 0.5118110236220472,
          "duration": 0.8673030000000068
        },
        {
          "name": "D5",
          "midi": 74,
          "time": 109.28017799999964,
          "velocity": 0.5118110236220472,
          "duration": 0.8673030000000068
        },
        {
          "name": "F5",
          "midi": 77,
          "time": 109.28017799999964,
          "velocity": 0.6062992125984252,
          "duration": 0.8673030000000068
        },
        {
          "name": "G#4",
          "midi": 68,
          "time": 110.14748099999964,
          "velocity": 0.49606299212598426,
          "duration": 0.4336514999999963
        },
        {
          "name": "D5",
          "midi": 74,
          "time": 110.14748099999964,
          "velocity": 0.49606299212598426,
          "duration": 0.4336514999999963
        },
        {
          "name": "F5",
          "midi": 77,
          "time": 110.14748099999964,
          "velocity": 0.5905511811023622,
          "duration": 0.4336514999999963
        },
        {
          "name": "A4",
          "midi": 69,
          "time": 110.58113249999964,
          "velocity": 0.47244094488188976,
          "duration": 1.3009545000000031
        },
        {
          "name": "C5",
          "midi": 72,
          "time": 110.58113249999964,
          "velocity": 0.47244094488188976,
          "duration": 1.3009545000000031
        },
        {
          "name": "E5",
          "midi": 76,
          "time": 110.58113249999964,
          "velocity": 0.5669291338582677,
          "duration": 1.3009545000000031
        },
        {
          "name": "F4",
          "midi": 65,
          "time": 111.88208699999964,
          "velocity": 0.5433070866141733,
          "duration": 0.8673030000000068
        },
        {
          "name": "D5",
          "midi": 74,
          "time": 111.88208699999964,
          "velocity": 0.6456692913385826,
          "duration": 0.8673030000000068
        },
        {
          "name": "E4",
          "midi": 64,
          "time": 112.74938999999965,
          "velocity": 0.48031496062992124,
          "duration": 0.16261931249999861
        },
        {
          "name": "C5",
          "midi": 72,
          "time": 112.74938999999965,
          "velocity": 0.5748031496062992,
          "duration": 0.16261931249999861
        },
        {
          "name": "D4",
          "midi": 62,
          "time": 112.96621574999965,
          "velocity": 0.48031496062992124,
          "duration": 0.16261931249999861
        },
        {
          "name": "B4",
          "midi": 71,
          "time": 112.96621574999965,
          "velocity": 0.5748031496062992,
          "duration": 0.16261931249999861
        },
        {
          "name": "C4",
          "midi": 60,
          "time": 113.18304149999965,
          "velocity": 0.5275590551181102,
          "duration": 0.8673030000000068
        },
        {
          "name": "F#4",
          "midi": 66,
          "time": 113.18304149999965,
          "velocity": 0.5275590551181102,
          "duration": 0.8673030000000068
        },
        {
          "name": "A4",
          "midi": 69,
          "time": 113.18304149999965,
          "velocity": 0.6220472440944882,
          "duration": 0.8673030000000068
        },
        {
          "name": "C4",
          "midi": 60,
          "time": 114.05034449999965,
          "velocity": 0.5196850393700787,
          "duration": 0.4336514999999963
        },
        {
          "name": "A4",
          "midi": 69,
          "time": 114.05034449999965,
          "velocity": 0.6141732283464567,
          "duration": 0.4336514999999963
        },
        {
          "name": "C4",
          "midi": 60,
          "time": 114.48399599999965,
          "velocity": 0.5354330708661418,
          "duration": 0.4336514999999963
        },
        {
          "name": "A4",
          "midi": 69,
          "time": 114.48399599999965,
          "velocity": 0.6299212598425197,
          "duration": 0.4336514999999963
        },
        {
          "name": "E4",
          "midi": 64,
          "time": 114.91764749999965,
          "velocity": 0.5196850393700787,
          "duration": 0.4336514999999963
        },
        {
          "name": "C5",
          "midi": 72,
          "time": 114.91764749999965,
          "velocity": 0.6141732283464567,
          "duration": 0.4336514999999963
        },
        {
          "name": "D4",
          "midi": 62,
          "time": 115.35129899999964,
          "velocity": 0.48031496062992124,
          "duration": 0.4336514999999963
        },
        {
          "name": "B4",
          "midi": 71,
          "time": 115.35129899999964,
          "velocity": 0.5748031496062992,
          "duration": 0.4336514999999963
        },
        {
          "name": "C4",
          "midi": 60,
          "time": 115.78495049999964,
          "velocity": 0.4409448818897638,
          "duration": 1.3009545000000031
        },
        {
          "name": "A4",
          "midi": 69,
          "time": 115.78495049999964,
          "velocity": 0.5275590551181102,
          "duration": 1.3009545000000031
        },
        {
          "name": "E4",
          "midi": 64,
          "time": 117.08590499999964,
          "velocity": 0.3543307086614173,
          "duration": 1.3009545000000031
        },
        {
          "name": "G4",
          "midi": 67,
          "time": 117.08590499999964,
          "velocity": 0.3543307086614173,
          "duration": 1.3009545000000031
        },
        {
          "name": "A#4",
          "midi": 70,
          "time": 117.08590499999964,
          "velocity": 0.3543307086614173,
          "duration": 1.3009545000000031
        },
        {
          "name": "C#5",
          "midi": 73,
          "time": 117.08590499999964,
          "velocity": 0.41732283464566927,
          "duration": 1.3009545000000031
        },
        {
          "name": "F4",
          "midi": 65,
          "time": 118.38685949999964,
          "velocity": 0.3858267716535433,
          "duration": 0.8673030000000068
        },
        {
          "name": "A4",
          "midi": 69,
          "time": 118.38685949999964,
          "velocity": 0.3858267716535433,
          "duration": 0.8673030000000068
        },
        {
          "name": "D5",
          "midi": 74,
          "time": 118.38685949999964,
          "velocity": 0.4645669291338583,
          "duration": 0.8673030000000068
        },
        {
          "name": "C#5",
          "midi": 73,
          "time": 119.25416249999965,
          "velocity": 0.4251968503937008,
          "duration": 0.16261931249999861
        },
        {
          "name": "E5",
          "midi": 76,
          "time": 119.25416249999965,
          "velocity": 0.5039370078740157,
          "duration": 0.16261931249999861
        },
        {
          "name": "D5",
          "midi": 74,
          "time": 119.47098824999965,
          "velocity": 0.4645669291338583,
          "duration": 0.16261931249999861
        },
        {
          "name": "F5",
          "midi": 77,
          "time": 119.47098824999965,
          "velocity": 0.5511811023622047,
          "duration": 0.16261931249999861
        },
        {
          "name": "D5",
          "midi": 74,
          "time": 119.68781399999965,
          "velocity": 0.5118110236220472,
          "duration": 0.8673030000000068
        },
        {
          "name": "F5",
          "midi": 77,
          "time": 119.68781399999965,
          "velocity": 0.6062992125984252,
          "duration": 0.8673030000000068
        },
        {
          "name": "D5",
          "midi": 74,
          "time": 120.55511699999965,
          "velocity": 0.49606299212598426,
          "duration": 0.4336514999999963
        },
        {
          "name": "F5",
          "midi": 77,
          "time": 120.55511699999965,
          "velocity": 0.5905511811023622,
          "duration": 0.4336514999999963
        },
        {
          "name": "D5",
          "midi": 74,
          "time": 120.98876849999965,
          "velocity": 0.47244094488188976,
          "duration": 1.3009545000000031
        },
        {
          "name": "F5",
          "midi": 77,
          "time": 120.98876849999965,
          "velocity": 0.5669291338582677,
          "duration": 1.3009545000000031
        },
        {
          "name": "G4",
          "midi": 67,
          "time": 122.28972299999965,
          "velocity": 0.5433070866141733,
          "duration": 0.8673030000000068
        },
        {
          "name": "D#5",
          "midi": 75,
          "time": 122.28972299999965,
          "velocity": 0.6456692913385826,
          "duration": 0.8673030000000068
        },
        {
          "name": "F4",
          "midi": 65,
          "time": 123.15702599999966,
          "velocity": 0.48031496062992124,
          "duration": 0.16261931249999861
        },
        {
          "name": "D5",
          "midi": 74,
          "time": 123.15702599999966,
          "velocity": 0.5748031496062992,
          "duration": 0.16261931249999861
        },
        {
          "name": "D#4",
          "midi": 63,
          "time": 123.37385174999966,
          "velocity": 0.48031496062992124,
          "duration": 0.16261931249999861
        },
        {
          "name": "C5",
          "midi": 72,
          "time": 123.37385174999966,
          "velocity": 0.5748031496062992,
          "duration": 0.16261931249999861
        },
        {
          "name": "D4",
          "midi": 62,
          "time": 123.59067749999966,
          "velocity": 0.5275590551181102,
          "duration": 0.8673030000000068
        },
        {
          "name": "F4",
          "midi": 65,
          "time": 123.59067749999966,
          "velocity": 0.5275590551181102,
          "duration": 0.8673030000000068
        },
        {
          "name": "A#4",
          "midi": 70,
          "time": 123.59067749999966,
          "velocity": 0.6220472440944882,
          "duration": 0.8673030000000068
        },
        {
          "name": "F4",
          "midi": 65,
          "time": 124.45798049999966,
          "velocity": 0.5196850393700787,
          "duration": 0.4336514999999963
        },
        {
          "name": "D4",
          "midi": 62,
          "time": 124.45798049999966,
          "velocity": 0.5196850393700787,
          "duration": 0.4336514999999963
        },
        {
          "name": "A4",
          "midi": 69,
          "time": 124.45798049999966,
          "velocity": 0.6141732283464567,
          "duration": 0.4336514999999963
        },
        {
          "name": "F4",
          "midi": 65,
          "time": 124.89163199999966,
          "velocity": 0.5354330708661418,
          "duration": 0.8673030000000068
        },
        {
          "name": "D4",
          "midi": 62,
          "time": 124.89163199999966,
          "velocity": 0.5354330708661418,
          "duration": 0.8673030000000068
        },
        {
          "name": "G#4",
          "midi": 68,
          "time": 124.89163199999966,
          "velocity": 0.6299212598425197,
          "duration": 0.8673030000000068
        },
        {
          "name": "F4",
          "midi": 65,
          "time": 125.75893499999967,
          "velocity": 0.48031496062992124,
          "duration": 0.4336514999999963
        },
        {
          "name": "D4",
          "midi": 62,
          "time": 125.75893499999967,
          "velocity": 0.48031496062992124,
          "duration": 0.4336514999999963
        },
        {
          "name": "G#4",
          "midi": 68,
          "time": 125.75893499999967,
          "velocity": 0.5748031496062992,
          "duration": 0.4336514999999963
        },
        {
          "name": "E4",
          "midi": 64,
          "time": 126.19258649999966,
          "velocity": 0.48031496062992124,
          "duration": 0.8673030000000068
        },
        {
          "name": "C4",
          "midi": 60,
          "time": 126.19258649999966,
          "velocity": 0.48031496062992124,
          "duration": 0.8673030000000068
        },
        {
          "name": "A4",
          "midi": 69,
          "time": 126.19258649999966,
          "velocity": 0.5748031496062992,
          "duration": 0.8673030000000068
        },
        {
          "name": "E4",
          "midi": 64,
          "time": 127.49354099999967,
          "velocity": 0.3858267716535433,
          "duration": 0.4336514999999963
        },
        {
          "name": "B4",
          "midi": 71,
          "time": 127.49354099999967,
          "velocity": 0.4566929133858268,
          "duration": 0.4336514999999963
        },
        {
          "name": "A3",
          "midi": 57,
          "time": 128.79449549999967,
          "velocity": 0.33070866141732286,
          "duration": 0.14455050000000824
        },
        {
          "name": "C4",
          "midi": 60,
          "time": 128.93904599999968,
          "velocity": 0.3464566929133858,
          "duration": 0.14455050000000824
        },
        {
          "name": "E4",
          "midi": 64,
          "time": 129.0835964999997,
          "velocity": 0.3543307086614173,
          "duration": 0.14455050000000824
        },
        {
          "name": "A4",
          "midi": 69,
          "time": 129.2281469999997,
          "velocity": 0.3700787401574803,
          "duration": 0.14455050000000824
        },
        {
          "name": "C5",
          "midi": 72,
          "time": 129.3726974999997,
          "velocity": 0.33858267716535434,
          "duration": 0.14455050000000824
        },
        {
          "name": "E5",
          "midi": 76,
          "time": 129.5172479999997,
          "velocity": 0.33858267716535434,
          "duration": 0.14455050000000824
        },
        {
          "name": "D5",
          "midi": 74,
          "time": 129.66179849999972,
          "velocity": 0.3700787401574803,
          "duration": 0.14455050000000824
        },
        {
          "name": "C5",
          "midi": 72,
          "time": 129.80634899999973,
          "velocity": 0.33858267716535434,
          "duration": 0.14455050000000824
        },
        {
          "name": "B4",
          "midi": 71,
          "time": 129.95089949999974,
          "velocity": 0.33858267716535434,
          "duration": 0.14455050000000824
        },
        {
          "name": "A4",
          "midi": 69,
          "time": 130.09544999999974,
          "velocity": 0.3543307086614173,
          "duration": 0.14455050000000824
        },
        {
          "name": "C5",
          "midi": 72,
          "time": 130.24000049999975,
          "velocity": 0.3700787401574803,
          "duration": 0.14455050000000824
        },
        {
          "name": "E5",
          "midi": 76,
          "time": 130.38455099999976,
          "velocity": 0.3779527559055118,
          "duration": 0.14455050000000824
        },
        {
          "name": "A5",
          "midi": 81,
          "time": 130.52910149999977,
          "velocity": 0.3937007874015748,
          "duration": 0.14455050000000824
        },
        {
          "name": "C6",
          "midi": 84,
          "time": 130.67365199999978,
          "velocity": 0.3700787401574803,
          "duration": 0.14455050000000824
        },
        {
          "name": "E6",
          "midi": 88,
          "time": 130.81820249999979,
          "velocity": 0.3700787401574803,
          "duration": 0.14455050000000824
        },
        {
          "name": "D6",
          "midi": 86,
          "time": 130.9627529999998,
          "velocity": 0.4094488188976378,
          "duration": 0.14455050000000824
        },
        {
          "name": "C6",
          "midi": 84,
          "time": 131.1073034999998,
          "velocity": 0.3700787401574803,
          "duration": 0.14455050000000824
        },
        {
          "name": "B5",
          "midi": 83,
          "time": 131.2518539999998,
          "velocity": 0.3700787401574803,
          "duration": 0.14455050000000824
        },
        {
          "name": "A5",
          "midi": 81,
          "time": 131.39640449999982,
          "velocity": 0.3858267716535433,
          "duration": 0.14455050000000824
        },
        {
          "name": "C6",
          "midi": 84,
          "time": 131.54095499999983,
          "velocity": 0.4015748031496063,
          "duration": 0.14455050000000824
        },
        {
          "name": "E6",
          "midi": 88,
          "time": 131.68550549999983,
          "velocity": 0.41732283464566927,
          "duration": 0.14455050000000824
        },
        {
          "name": "A6",
          "midi": 93,
          "time": 131.83005599999984,
          "velocity": 0.41732283464566927,
          "duration": 0.14455050000000824
        },
        {
          "name": "C7",
          "midi": 96,
          "time": 131.97460649999985,
          "velocity": 0.3937007874015748,
          "duration": 0.14455050000000824
        },
        {
          "name": "E7",
          "midi": 100,
          "time": 132.11915699999986,
          "velocity": 0.3937007874015748,
          "duration": 0.14455050000000824
        },
        {
          "name": "D7",
          "midi": 98,
          "time": 132.26370749999987,
          "velocity": 0.4251968503937008,
          "duration": 0.14455050000000824
        },
        {
          "name": "C7",
          "midi": 96,
          "time": 132.40825799999988,
          "velocity": 0.3858267716535433,
          "duration": 0.14455050000000824
        },
        {
          "name": "B6",
          "midi": 95,
          "time": 132.55280849999988,
          "velocity": 0.3937007874015748,
          "duration": 0.14455050000000824
        },
        {
          "name": "A#6",
          "midi": 94,
          "time": 132.6973589999999,
          "velocity": 0.4251968503937008,
          "duration": 0.14455050000000824
        },
        {
          "name": "A6",
          "midi": 93,
          "time": 132.8419094999999,
          "velocity": 0.3937007874015748,
          "duration": 0.14455050000000824
        },
        {
          "name": "G#6",
          "midi": 92,
          "time": 132.9864599999999,
          "velocity": 0.3858267716535433,
          "duration": 0.14455050000000824
        },
        {
          "name": "G6",
          "midi": 91,
          "time": 133.13101049999992,
          "velocity": 0.4015748031496063,
          "duration": 0.14455050000000824
        },
        {
          "name": "F#6",
          "midi": 90,
          "time": 133.27556099999993,
          "velocity": 0.3858267716535433,
          "duration": 0.14455050000000824
        },
        {
          "name": "F6",
          "midi": 89,
          "time": 133.42011149999993,
          "velocity": 0.3779527559055118,
          "duration": 0.14455050000000824
        },
        {
          "name": "E6",
          "midi": 88,
          "time": 133.56466199999994,
          "velocity": 0.4015748031496063,
          "duration": 0.14455050000000824
        },
        {
          "name": "D#6",
          "midi": 87,
          "time": 133.70921249999995,
          "velocity": 0.3858267716535433,
          "duration": 0.14455050000000824
        },
        {
          "name": "D6",
          "midi": 86,
          "time": 133.85376299999996,
          "velocity": 0.3937007874015748,
          "duration": 0.14455050000000824
        },
        {
          "name": "C#6",
          "midi": 85,
          "time": 133.99831349999997,
          "velocity": 0.3937007874015748,
          "duration": 0.14455050000000824
        },
        {
          "name": "C6",
          "midi": 84,
          "time": 134.14286399999997,
          "velocity": 0.3858267716535433,
          "duration": 0.14455050000000824
        },
        {
          "name": "B5",
          "midi": 83,
          "time": 134.28741449999998,
          "velocity": 0.3858267716535433,
          "duration": 0.14455050000000824
        },
        {
          "name": "A#5",
          "midi": 82,
          "time": 134.431965,
          "velocity": 0.3779527559055118,
          "duration": 0.14455050000000824
        },
        {
          "name": "A5",
          "midi": 81,
          "time": 134.5765155,
          "velocity": 0.3779527559055118,
          "duration": 0.14455050000000824
        },
        {
          "name": "G#5",
          "midi": 80,
          "time": 134.721066,
          "velocity": 0.3700787401574803,
          "duration": 0.14455050000000824
        },
        {
          "name": "G5",
          "midi": 79,
          "time": 134.86561650000002,
          "velocity": 0.3700787401574803,
          "duration": 0.14455050000000824
        },
        {
          "name": "F#5",
          "midi": 78,
          "time": 135.01016700000002,
          "velocity": 0.36220472440944884,
          "duration": 0.14455050000000824
        },
        {
          "name": "F5",
          "midi": 77,
          "time": 135.15471750000003,
          "velocity": 0.36220472440944884,
          "duration": 0.14455050000000824
        },
        {
          "name": "E5",
          "midi": 76,
          "time": 135.29926800000004,
          "velocity": 0.30708661417322836,
          "duration": 0.21682574999999815
        },
        {
          "name": "D#5",
          "midi": 75,
          "time": 135.51609375000004,
          "velocity": 0.28346456692913385,
          "duration": 0.21682574999999815
        },
        {
          "name": "E5",
          "midi": 76,
          "time": 135.73291950000004,
          "velocity": 0.3228346456692913,
          "duration": 0.21682574999999815
        },
        {
          "name": "B4",
          "midi": 71,
          "time": 135.94974525000003,
          "velocity": 0.2755905511811024,
          "duration": 0.21682574999999815
        },
        {
          "name": "D5",
          "midi": 74,
          "time": 136.16657100000003,
          "velocity": 0.33858267716535434,
          "duration": 0.21682574999999815
        },
        {
          "name": "C5",
          "midi": 72,
          "time": 136.38339675000003,
          "velocity": 0.30708661417322836,
          "duration": 0.21682574999999815
        },
        {
          "name": "A4",
          "midi": 69,
          "time": 136.60022250000003,
          "velocity": 0.36220472440944884,
          "duration": 0.4336514999999963
        },
        {
          "name": "C4",
          "midi": 60,
          "time": 137.25069975000002,
          "velocity": 0.2677165354330709,
          "duration": 0.21682574999999815
        },
        {
          "name": "E4",
          "midi": 64,
          "time": 137.46752550000002,
          "velocity": 0.2992125984251969,
          "duration": 0.21682574999999815
        },
        {
          "name": "A4",
          "midi": 69,
          "time": 137.68435125000002,
          "velocity": 0.33070866141732286,
          "duration": 0.21682574999999815
        },
        {
          "name": "B4",
          "midi": 71,
          "time": 137.90117700000002,
          "velocity": 0.36220472440944884,
          "duration": 0.4336514999999963
        },
        {
          "name": "E4",
          "midi": 64,
          "time": 138.55165425,
          "velocity": 0.28346456692913385,
          "duration": 0.21682574999999815
        },
        {
          "name": "G#4",
          "midi": 68,
          "time": 138.76848,
          "velocity": 0.30708661417322836,
          "duration": 0.21682574999999815
        },
        {
          "name": "B4",
          "midi": 71,
          "time": 138.98530575,
          "velocity": 0.33070866141732286,
          "duration": 0.21682574999999815
        },
        {
          "name": "C5",
          "midi": 72,
          "time": 139.2021315,
          "velocity": 0.3543307086614173,
          "duration": 0.4336514999999963
        },
        {
          "name": "E4",
          "midi": 64,
          "time": 139.85260875,
          "velocity": 0.2755905511811024,
          "duration": 0.21682574999999815
        },
        {
          "name": "E5",
          "midi": 76,
          "time": 140.0694345,
          "velocity": 0.2992125984251969,
          "duration": 0.21682574999999815
        },
        {
          "name": "D#5",
          "midi": 75,
          "time": 140.28626025,
          "velocity": 0.2677165354330709,
          "duration": 0.21682574999999815
        },
        {
          "name": "E5",
          "midi": 76,
          "time": 140.503086,
          "velocity": 0.3228346456692913,
          "duration": 0.21682574999999815
        },
        {
          "name": "D#5",
          "midi": 75,
          "time": 140.71991175,
          "velocity": 0.29133858267716534,
          "duration": 0.21682574999999815
        },
        {
          "name": "E5",
          "midi": 76,
          "time": 140.9367375,
          "velocity": 0.36220472440944884,
          "duration": 0.21682574999999815
        },
        {
          "name": "B4",
          "midi": 71,
          "time": 141.15356325,
          "velocity": 0.30708661417322836,
          "duration": 0.21682574999999815
        },
        {
          "name": "D5",
          "midi": 74,
          "time": 141.370389,
          "velocity": 0.3779527559055118,
          "duration": 0.21682574999999815
        },
        {
          "name": "C5",
          "midi": 72,
          "time": 141.58721475,
          "velocity": 0.30708661417322836,
          "duration": 0.21682574999999815
        },
        {
          "name": "A4",
          "midi": 69,
          "time": 141.80404049999999,
          "velocity": 0.3779527559055118,
          "duration": 0.4336514999999963
        },
        {
          "name": "C4",
          "midi": 60,
          "time": 142.45451774999998,
          "velocity": 0.2677165354330709,
          "duration": 0.21682574999999815
        },
        {
          "name": "E4",
          "midi": 64,
          "time": 142.67134349999998,
          "velocity": 0.29133858267716534,
          "duration": 0.21682574999999815
        },
        {
          "name": "A4",
          "midi": 69,
          "time": 142.88816924999998,
          "velocity": 0.3228346456692913,
          "duration": 0.21682574999999815
        },
        {
          "name": "B4",
          "midi": 71,
          "time": 143.10499499999997,
          "velocity": 0.3543307086614173,
          "duration": 0.4336514999999963
        },
        {
          "name": "E4",
          "midi": 64,
          "time": 143.75547224999997,
          "velocity": 0.29133858267716534,
          "duration": 0.21682574999999815
        },
        {
          "name": "C5",
          "midi": 72,
          "time": 143.97229799999997,
          "velocity": 0.31496062992125984,
          "duration": 0.21682574999999815
        },
        {
          "name": "B4",
          "midi": 71,
          "time": 144.18912374999996,
          "velocity": 0.2992125984251969,
          "duration": 0.21682574999999815
        },
        {
          "name": "A4",
          "midi": 69,
          "time": 144.40594949999996,
          "velocity": 0.31496062992125984,
          "duration": 0.4336514999999963
        },
        {
          "name": "B4",
          "midi": 71,
          "time": 145.05642674999996,
          "velocity": 0.2992125984251969,
          "duration": 0.21682574999999815
        },
        {
          "name": "C5",
          "midi": 72,
          "time": 145.27325249999996,
          "velocity": 0.33070866141732286,
          "duration": 0.21682574999999815
        },
        {
          "name": "D5",
          "midi": 74,
          "time": 145.49007824999995,
          "velocity": 0.36220472440944884,
          "duration": 0.21682574999999815
        },
        {
          "name": "E5",
          "midi": 76,
          "time": 145.70690399999995,
          "velocity": 0.3937007874015748,
          "duration": 0.6504772499999945
        },
        {
          "name": "G4",
          "midi": 67,
          "time": 146.35738124999995,
          "velocity": 0.31496062992125984,
          "duration": 0.21682574999999815
        },
        {
          "name": "F5",
          "midi": 77,
          "time": 146.57420699999994,
          "velocity": 0.36220472440944884,
          "duration": 0.21682574999999815
        },
        {
          "name": "E5",
          "midi": 76,
          "time": 146.79103274999994,
          "velocity": 0.33858267716535434,
          "duration": 0.21682574999999815
        },
        {
          "name": "D5",
          "midi": 74,
          "time": 147.00785849999994,
          "velocity": 0.3937007874015748,
          "duration": 0.6504772499999945
        },
        {
          "name": "F4",
          "midi": 65,
          "time": 147.65833574999994,
          "velocity": 0.31496062992125984,
          "duration": 0.21682574999999815
        },
        {
          "name": "E5",
          "midi": 76,
          "time": 147.87516149999993,
          "velocity": 0.36220472440944884,
          "duration": 0.21682574999999815
        },
        {
          "name": "D5",
          "midi": 74,
          "time": 148.09198724999993,
          "velocity": 0.33858267716535434,
          "duration": 0.21682574999999815
        },
        {
          "name": "C5",
          "midi": 72,
          "time": 148.30881299999993,
          "velocity": 0.3937007874015748,
          "duration": 0.6504772499999945
        },
        {
          "name": "E4",
          "midi": 64,
          "time": 148.95929024999992,
          "velocity": 0.31496062992125984,
          "duration": 0.21682574999999815
        },
        {
          "name": "D5",
          "midi": 74,
          "time": 149.17611599999992,
          "velocity": 0.36220472440944884,
          "duration": 0.21682574999999815
        },
        {
          "name": "C5",
          "midi": 72,
          "time": 149.39294174999992,
          "velocity": 0.33858267716535434,
          "duration": 0.21682574999999815
        },
        {
          "name": "B4",
          "midi": 71,
          "time": 149.60976749999992,
          "velocity": 0.3937007874015748,
          "duration": 0.4336514999999963
        },
        {
          "name": "E4",
          "midi": 64,
          "time": 150.2602447499999,
          "velocity": 0.30708661417322836,
          "duration": 0.21682574999999815
        },
        {
          "name": "E5",
          "midi": 76,
          "time": 150.4770704999999,
          "velocity": 0.3543307086614173,
          "duration": 0.16261931249999861
        },
        {
          "name": "E5",
          "midi": 76,
          "time": 151.1275477499999,
          "velocity": 0.33858267716535434,
          "duration": 0.21682574999999815
        },
        {
          "name": "E6",
          "midi": 88,
          "time": 151.3443734999999,
          "velocity": 0.3779527559055118,
          "duration": 0.16261931249999861
        },
        {
          "name": "D#5",
          "midi": 75,
          "time": 151.9948507499999,
          "velocity": 0.33070866141732286,
          "duration": 0.21682574999999815
        },
        {
          "name": "E5",
          "midi": 76,
          "time": 152.2116764999999,
          "velocity": 0.3779527559055118,
          "duration": 0.16261931249999861
        },
        {
          "name": "D#5",
          "midi": 75,
          "time": 152.8621537499999,
          "velocity": 0.2755905511811024,
          "duration": 0.21682574999999815
        },
        {
          "name": "E5",
          "midi": 76,
          "time": 153.0789794999999,
          "velocity": 0.29133858267716534,
          "duration": 0.21682574999999815
        },
        {
          "name": "D#5",
          "midi": 75,
          "time": 153.2958052499999,
          "velocity": 0.2677165354330709,
          "duration": 0.21682574999999815
        },
        {
          "name": "E5",
          "midi": 76,
          "time": 153.51263099999989,
          "velocity": 0.31496062992125984,
          "duration": 0.21682574999999815
        },
        {
          "name": "D#5",
          "midi": 75,
          "time": 153.72945674999988,
          "velocity": 0.28346456692913385,
          "duration": 0.21682574999999815
        },
        {
          "name": "E5",
          "midi": 76,
          "time": 153.94628249999988,
          "velocity": 0.33070866141732286,
          "duration": 0.21682574999999815
        },
        {
          "name": "B4",
          "midi": 71,
          "time": 154.16310824999988,
          "velocity": 0.28346456692913385,
          "duration": 0.21682574999999815
        },
        {
          "name": "D5",
          "midi": 74,
          "time": 154.37993399999988,
          "velocity": 0.33858267716535434,
          "duration": 0.21682574999999815
        },
        {
          "name": "C5",
          "midi": 72,
          "time": 154.59675974999988,
          "velocity": 0.2755905511811024,
          "duration": 0.21682574999999815
        },
        {
          "name": "A4",
          "midi": 69,
          "time": 154.81358549999987,
          "velocity": 0.3779527559055118,
          "duration": 0.4336514999999963
        },
        {
          "name": "C4",
          "midi": 60,
          "time": 155.46406274999987,
          "velocity": 0.2677165354330709,
          "duration": 0.21682574999999815
        },
        {
          "name": "E4",
          "midi": 64,
          "time": 155.68088849999987,
          "velocity": 0.2992125984251969,
          "duration": 0.21682574999999815
        },
        {
          "name": "A4",
          "midi": 69,
          "time": 155.89771424999986,
          "velocity": 0.33070866141732286,
          "duration": 0.21682574999999815
        },
        {
          "name": "B4",
          "midi": 71,
          "time": 156.11453999999986,
          "velocity": 0.36220472440944884,
          "duration": 0.4336514999999963
        },
        {
          "name": "E4",
          "midi": 64,
          "time": 156.76501724999986,
          "velocity": 0.28346456692913385,
          "duration": 0.21682574999999815
        },
        {
          "name": "G#4",
          "midi": 68,
          "time": 156.98184299999986,
          "velocity": 0.30708661417322836,
          "duration": 0.21682574999999815
        },
        {
          "name": "B4",
          "midi": 71,
          "time": 157.19866874999985,
          "velocity": 0.33070866141732286,
          "duration": 0.21682574999999815
        },
        {
          "name": "C5",
          "midi": 72,
          "time": 157.41549449999985,
          "velocity": 0.3543307086614173,
          "duration": 0.4336514999999963
        },
        {
          "name": "E4",
          "midi": 64,
          "time": 158.06597174999985,
          "velocity": 0.2755905511811024,
          "duration": 0.21682574999999815
        },
        {
          "name": "E5",
          "midi": 76,
          "time": 158.28279749999984,
          "velocity": 0.2992125984251969,
          "duration": 0.21682574999999815
        },
        {
          "name": "D#5",
          "midi": 75,
          "time": 158.49962324999984,
          "velocity": 0.2677165354330709,
          "duration": 0.21682574999999815
        },
        {
          "name": "E5",
          "midi": 76,
          "time": 158.71644899999984,
          "velocity": 0.3228346456692913,
          "duration": 0.21682574999999815
        },
        {
          "name": "D#5",
          "midi": 75,
          "time": 158.93327474999984,
          "velocity": 0.29133858267716534,
          "duration": 0.21682574999999815
        },
        {
          "name": "E5",
          "midi": 76,
          "time": 159.15010049999984,
          "velocity": 0.36220472440944884,
          "duration": 0.21682574999999815
        },
        {
          "name": "B4",
          "midi": 71,
          "time": 159.36692624999984,
          "velocity": 0.30708661417322836,
          "duration": 0.21682574999999815
        },
        {
          "name": "D5",
          "midi": 74,
          "time": 159.58375199999983,
          "velocity": 0.3779527559055118,
          "duration": 0.21682574999999815
        },
        {
          "name": "C5",
          "midi": 72,
          "time": 159.80057774999983,
          "velocity": 0.30708661417322836,
          "duration": 0.21682574999999815
        },
        {
          "name": "A4",
          "midi": 69,
          "time": 160.01740349999983,
          "velocity": 0.3779527559055118,
          "duration": 0.4336514999999963
        },
        {
          "name": "C4",
          "midi": 60,
          "time": 160.66788074999982,
          "velocity": 0.2677165354330709,
          "duration": 0.21682574999999815
        },
        {
          "name": "E4",
          "midi": 64,
          "time": 160.88470649999982,
          "velocity": 0.29133858267716534,
          "duration": 0.21682574999999815
        },
        {
          "name": "A4",
          "midi": 69,
          "time": 161.10153224999982,
          "velocity": 0.3228346456692913,
          "duration": 0.21682574999999815
        },
        {
          "name": "B4",
          "midi": 71,
          "time": 161.31835799999982,
          "velocity": 0.3543307086614173,
          "duration": 0.4336514999999963
        },
        {
          "name": "E4",
          "midi": 64,
          "time": 161.9688352499998,
          "velocity": 0.29133858267716534,
          "duration": 0.21682574999999815
        },
        {
          "name": "C5",
          "midi": 72,
          "time": 162.1856609999998,
          "velocity": 0.31496062992125984,
          "duration": 0.21682574999999815
        },
        {
          "name": "B4",
          "midi": 71,
          "time": 162.4024867499998,
          "velocity": 0.2992125984251969,
          "duration": 0.21682574999999815
        },
        {
          "name": "A4",
          "midi": 69,
          "time": 162.6193124999998,
          "velocity": 0.28346456692913385,
          "duration": 0.4336514999999963
        }
      ],
      "controlChanges": {
        "7": [
          {
            "number": 7,
            "time": 0,
            "value": 0.7874015748031497
          }
        ],
        "10": [
          {
            "number": 10,
            "time": 0,
            "value": 0.5039370078740157
          }
        ],
        "91": [
          {
            "number": 91,
            "time": 0,
            "value": 1
          }
        ]
      },
      "id": 1,
      "name": "Piano right",
      "instrumentNumber": 0,
      "instrument": "acoustic grand piano",
      "instrumentFamily": "piano",
      "channelNumber": 0,
      "isPercussion": false
    },
    {
      "startTime": 2.601909,
      "duration": 163.0529639999992,
      "length": 440,
      "notes": [
        {
          "name": "A2",
          "midi": 45,
          "time": 2.601909,
          "velocity": 0.29133858267716534,
          "duration": 0.21682574999999993
        },
        {
          "name": "E3",
          "midi": 52,
          "time": 2.81873475,
          "velocity": 0.25984251968503935,
          "duration": 0.21682574999999993
        },
        {
          "name": "A3",
          "midi": 57,
          "time": 3.0355605,
          "velocity": 0.25984251968503935,
          "duration": 0.21682574999999993
        },
        {
          "name": "E2",
          "midi": 40,
          "time": 3.9028634999999996,
          "velocity": 0.31496062992125984,
          "duration": 0.21682574999999993
        },
        {
          "name": "E3",
          "midi": 52,
          "time": 4.1196892499999995,
          "velocity": 0.25984251968503935,
          "duration": 0.21682574999999993
        },
        {
          "name": "G#3",
          "midi": 56,
          "time": 4.3365149999999995,
          "velocity": 0.2677165354330709,
          "duration": 0.21682574999999993
        },
        {
          "name": "A2",
          "midi": 45,
          "time": 5.203817999999999,
          "velocity": 0.2992125984251969,
          "duration": 0.21682574999999993
        },
        {
          "name": "E3",
          "midi": 52,
          "time": 5.420643749999999,
          "velocity": 0.2755905511811024,
          "duration": 0.21682574999999993
        },
        {
          "name": "A3",
          "midi": 57,
          "time": 5.637469499999999,
          "velocity": 0.2755905511811024,
          "duration": 0.21682574999999993
        },
        {
          "name": "A2",
          "midi": 45,
          "time": 7.805726999999998,
          "velocity": 0.28346456692913385,
          "duration": 0.21682574999999904
        },
        {
          "name": "E3",
          "midi": 52,
          "time": 8.022552749999997,
          "velocity": 0.2755905511811024,
          "duration": 0.21682574999999993
        },
        {
          "name": "A3",
          "midi": 57,
          "time": 8.239378499999997,
          "velocity": 0.2677165354330709,
          "duration": 0.21682574999999993
        },
        {
          "name": "E2",
          "midi": 40,
          "time": 9.106681499999997,
          "velocity": 0.2992125984251969,
          "duration": 0.21682574999999993
        },
        {
          "name": "E3",
          "midi": 52,
          "time": 9.323507249999997,
          "velocity": 0.2755905511811024,
          "duration": 0.21682574999999993
        },
        {
          "name": "G#3",
          "midi": 56,
          "time": 9.540332999999997,
          "velocity": 0.28346456692913385,
          "duration": 0.21682574999999993
        },
        {
          "name": "A2",
          "midi": 45,
          "time": 10.407635999999997,
          "velocity": 0.2992125984251969,
          "duration": 0.21682574999999993
        },
        {
          "name": "E3",
          "midi": 52,
          "time": 10.624461749999996,
          "velocity": 0.25196850393700787,
          "duration": 0.21682574999999993
        },
        {
          "name": "A3",
          "midi": 57,
          "time": 10.841287499999996,
          "velocity": 0.25196850393700787,
          "duration": 0.21682574999999993
        },
        {
          "name": "A2",
          "midi": 45,
          "time": 13.009544999999996,
          "velocity": 0.29133858267716534,
          "duration": 0.21682574999999993
        },
        {
          "name": "E3",
          "midi": 52,
          "time": 13.226370749999996,
          "velocity": 0.25984251968503935,
          "duration": 0.21682574999999993
        },
        {
          "name": "A3",
          "midi": 57,
          "time": 13.443196499999996,
          "velocity": 0.25984251968503935,
          "duration": 0.21682574999999993
        },
        {
          "name": "E2",
          "midi": 40,
          "time": 14.310499499999995,
          "velocity": 0.31496062992125984,
          "duration": 0.21682574999999993
        },
        {
          "name": "E3",
          "midi": 52,
          "time": 14.527325249999995,
          "velocity": 0.25984251968503935,
          "duration": 0.21682574999999993
        },
        {
          "name": "G#3",
          "midi": 56,
          "time": 14.744150999999995,
          "velocity": 0.2677165354330709,
          "duration": 0.21682574999999993
        },
        {
          "name": "A2",
          "midi": 45,
          "time": 15.611453999999995,
          "velocity": 0.2992125984251969,
          "duration": 0.21682574999999993
        },
        {
          "name": "E3",
          "midi": 52,
          "time": 15.828279749999995,
          "velocity": 0.2755905511811024,
          "duration": 0.21682574999999993
        },
        {
          "name": "A3",
          "midi": 57,
          "time": 16.045105499999995,
          "velocity": 0.2755905511811024,
          "duration": 0.2168257500000017
        },
        {
          "name": "A2",
          "midi": 45,
          "time": 18.213362999999998,
          "velocity": 0.2992125984251969,
          "duration": 0.2168257500000017
        },
        {
          "name": "E3",
          "midi": 52,
          "time": 18.43018875,
          "velocity": 0.2755905511811024,
          "duration": 0.2168257500000017
        },
        {
          "name": "A3",
          "midi": 57,
          "time": 18.6470145,
          "velocity": 0.2677165354330709,
          "duration": 0.2168257500000017
        },
        {
          "name": "E2",
          "midi": 40,
          "time": 19.514317500000004,
          "velocity": 0.2992125984251969,
          "duration": 0.21682574999999815
        },
        {
          "name": "E3",
          "midi": 52,
          "time": 19.731143250000002,
          "velocity": 0.29133858267716534,
          "duration": 0.2168257500000017
        },
        {
          "name": "G#3",
          "midi": 56,
          "time": 19.947969000000004,
          "velocity": 0.29133858267716534,
          "duration": 0.2168257500000017
        },
        {
          "name": "A2",
          "midi": 45,
          "time": 20.815272000000007,
          "velocity": 0.2992125984251969,
          "duration": 0.21682574999999815
        },
        {
          "name": "E3",
          "midi": 52,
          "time": 21.032097750000005,
          "velocity": 0.25196850393700787,
          "duration": 0.2168257500000017
        },
        {
          "name": "A3",
          "midi": 57,
          "time": 21.248923500000007,
          "velocity": 0.25196850393700787,
          "duration": 0.21682574999999815
        },
        {
          "name": "C3",
          "midi": 48,
          "time": 22.116226500000007,
          "velocity": 0.3464566929133858,
          "duration": 0.21682574999999815
        },
        {
          "name": "G3",
          "midi": 55,
          "time": 22.333052250000005,
          "velocity": 0.2992125984251969,
          "duration": 0.2168257500000017
        },
        {
          "name": "C4",
          "midi": 60,
          "time": 22.549878000000007,
          "velocity": 0.30708661417322836,
          "duration": 0.2168257500000017
        },
        {
          "name": "G2",
          "midi": 43,
          "time": 23.41718100000001,
          "velocity": 0.3464566929133858,
          "duration": 0.21682574999999815
        },
        {
          "name": "G3",
          "midi": 55,
          "time": 23.634006750000008,
          "velocity": 0.2992125984251969,
          "duration": 0.2168257500000017
        },
        {
          "name": "B3",
          "midi": 59,
          "time": 23.85083250000001,
          "velocity": 0.30708661417322836,
          "duration": 0.2168257500000017
        },
        {
          "name": "A2",
          "midi": 45,
          "time": 24.718135500000013,
          "velocity": 0.3464566929133858,
          "duration": 0.21682574999999815
        },
        {
          "name": "E3",
          "midi": 52,
          "time": 24.93496125000001,
          "velocity": 0.2992125984251969,
          "duration": 0.2168257500000017
        },
        {
          "name": "A3",
          "midi": 57,
          "time": 25.151787000000013,
          "velocity": 0.30708661417322836,
          "duration": 0.2168257500000017
        },
        {
          "name": "E2",
          "midi": 40,
          "time": 26.019090000000016,
          "velocity": 0.3464566929133858,
          "duration": 0.21682574999999815
        },
        {
          "name": "E3",
          "midi": 52,
          "time": 26.235915750000014,
          "velocity": 0.2992125984251969,
          "duration": 0.2168257500000017
        },
        {
          "name": "E4",
          "midi": 64,
          "time": 26.452741500000016,
          "velocity": 0.30708661417322836,
          "duration": 0.16261931249999861
        },
        {
          "name": "E4",
          "midi": 64,
          "time": 27.103218750000014,
          "velocity": 0.30708661417322836,
          "duration": 0.2168257500000017
        },
        {
          "name": "E5",
          "midi": 76,
          "time": 27.320044500000016,
          "velocity": 0.3464566929133858,
          "duration": 0.16261931249999861
        },
        {
          "name": "D#5",
          "midi": 75,
          "time": 27.970521750000014,
          "velocity": 0.33070866141732286,
          "duration": 0.2168257500000017
        },
        {
          "name": "E5",
          "midi": 76,
          "time": 28.187347500000016,
          "velocity": 0.3937007874015748,
          "duration": 0.16261931249999861
        },
        {
          "name": "D#5",
          "midi": 75,
          "time": 28.837824750000014,
          "velocity": 0.30708661417322836,
          "duration": 0.2168257500000017
        },
        {
          "name": "E5",
          "midi": 76,
          "time": 29.054650500000015,
          "velocity": 0.3228346456692913,
          "duration": 0.16261931249999861
        },
        {
          "name": "A2",
          "midi": 45,
          "time": 31.222908000000015,
          "velocity": 0.28346456692913385,
          "duration": 0.2168257500000017
        },
        {
          "name": "E3",
          "midi": 52,
          "time": 31.439733750000016,
          "velocity": 0.25984251968503935,
          "duration": 0.2168257500000017
        },
        {
          "name": "A3",
          "midi": 57,
          "time": 31.656559500000018,
          "velocity": 0.25984251968503935,
          "duration": 0.2168257500000017
        },
        {
          "name": "E2",
          "midi": 40,
          "time": 32.52386250000002,
          "velocity": 0.31496062992125984,
          "duration": 0.21682574999999815
        },
        {
          "name": "E3",
          "midi": 52,
          "time": 32.74068825000002,
          "velocity": 0.25984251968503935,
          "duration": 0.21682574999999815
        },
        {
          "name": "G#3",
          "midi": 56,
          "time": 32.95751400000002,
          "velocity": 0.2677165354330709,
          "duration": 0.21682574999999815
        },
        {
          "name": "A2",
          "midi": 45,
          "time": 33.82481700000002,
          "velocity": 0.2992125984251969,
          "duration": 0.21682574999999815
        },
        {
          "name": "E3",
          "midi": 52,
          "time": 34.041642750000015,
          "velocity": 0.2755905511811024,
          "duration": 0.21682574999999815
        },
        {
          "name": "A3",
          "midi": 57,
          "time": 34.25846850000001,
          "velocity": 0.2755905511811024,
          "duration": 0.21682574999999815
        },
        {
          "name": "A2",
          "midi": 45,
          "time": 36.42672600000001,
          "velocity": 0.2992125984251969,
          "duration": 0.21682574999999815
        },
        {
          "name": "E3",
          "midi": 52,
          "time": 36.64355175000001,
          "velocity": 0.2755905511811024,
          "duration": 0.21682574999999815
        },
        {
          "name": "A3",
          "midi": 57,
          "time": 36.860377500000006,
          "velocity": 0.2677165354330709,
          "duration": 0.21682574999999815
        },
        {
          "name": "E2",
          "midi": 40,
          "time": 37.727680500000005,
          "velocity": 0.2992125984251969,
          "duration": 0.21682574999999815
        },
        {
          "name": "E3",
          "midi": 52,
          "time": 37.94450625,
          "velocity": 0.29133858267716534,
          "duration": 0.21682574999999815
        },
        {
          "name": "G#3",
          "midi": 56,
          "time": 38.161332,
          "velocity": 0.29133858267716534,
          "duration": 0.21682574999999815
        },
        {
          "name": "A2",
          "midi": 45,
          "time": 39.028635,
          "velocity": 0.2992125984251969,
          "duration": 0.21682574999999815
        },
        {
          "name": "E3",
          "midi": 52,
          "time": 39.24546075,
          "velocity": 0.25196850393700787,
          "duration": 0.21682574999999815
        },
        {
          "name": "A3",
          "midi": 57,
          "time": 39.4622865,
          "velocity": 0.25196850393700787,
          "duration": 0.21682574999999815
        },
        {
          "name": "C3",
          "midi": 48,
          "time": 40.3295895,
          "velocity": 0.3464566929133858,
          "duration": 0.21682574999999815
        },
        {
          "name": "G3",
          "midi": 55,
          "time": 40.546415249999995,
          "velocity": 0.2992125984251969,
          "duration": 0.21682574999999815
        },
        {
          "name": "C4",
          "midi": 60,
          "time": 40.763240999999994,
          "velocity": 0.30708661417322836,
          "duration": 0.21682574999999815
        },
        {
          "name": "G2",
          "midi": 43,
          "time": 41.63054399999999,
          "velocity": 0.3464566929133858,
          "duration": 0.21682574999999815
        },
        {
          "name": "G3",
          "midi": 55,
          "time": 41.84736974999999,
          "velocity": 0.2992125984251969,
          "duration": 0.21682574999999815
        },
        {
          "name": "B3",
          "midi": 59,
          "time": 42.06419549999999,
          "velocity": 0.30708661417322836,
          "duration": 0.21682574999999815
        },
        {
          "name": "A2",
          "midi": 45,
          "time": 42.93149849999999,
          "velocity": 0.3464566929133858,
          "duration": 0.21682574999999815
        },
        {
          "name": "E3",
          "midi": 52,
          "time": 43.14832424999999,
          "velocity": 0.2992125984251969,
          "duration": 0.21682574999999815
        },
        {
          "name": "A3",
          "midi": 57,
          "time": 43.365149999999986,
          "velocity": 0.30708661417322836,
          "duration": 0.21682574999999815
        },
        {
          "name": "E2",
          "midi": 40,
          "time": 44.232452999999985,
          "velocity": 0.3464566929133858,
          "duration": 0.21682574999999815
        },
        {
          "name": "E3",
          "midi": 52,
          "time": 44.44927874999998,
          "velocity": 0.2992125984251969,
          "duration": 0.21682574999999815
        },
        {
          "name": "E4",
          "midi": 64,
          "time": 44.66610449999998,
          "velocity": 0.30708661417322836,
          "duration": 0.16261931249999861
        },
        {
          "name": "E4",
          "midi": 64,
          "time": 45.31658174999998,
          "velocity": 0.30708661417322836,
          "duration": 0.21682574999999815
        },
        {
          "name": "E5",
          "midi": 76,
          "time": 45.53340749999998,
          "velocity": 0.3464566929133858,
          "duration": 0.16261931249999861
        },
        {
          "name": "D#5",
          "midi": 75,
          "time": 46.183884749999976,
          "velocity": 0.33070866141732286,
          "duration": 0.21682574999999815
        },
        {
          "name": "E5",
          "midi": 76,
          "time": 46.400710499999974,
          "velocity": 0.3937007874015748,
          "duration": 0.16261931249999861
        },
        {
          "name": "D#5",
          "midi": 75,
          "time": 47.051187749999976,
          "velocity": 0.30708661417322836,
          "duration": 0.21682574999999815
        },
        {
          "name": "E5",
          "midi": 76,
          "time": 47.268013499999974,
          "velocity": 0.3228346456692913,
          "duration": 0.16261931249999861
        },
        {
          "name": "A2",
          "midi": 45,
          "time": 49.43627099999997,
          "velocity": 0.2677165354330709,
          "duration": 0.21682574999999815
        },
        {
          "name": "E3",
          "midi": 52,
          "time": 49.65309674999997,
          "velocity": 0.25196850393700787,
          "duration": 0.21682574999999815
        },
        {
          "name": "A3",
          "midi": 57,
          "time": 49.869922499999966,
          "velocity": 0.25196850393700787,
          "duration": 0.21682574999999815
        },
        {
          "name": "E2",
          "midi": 40,
          "time": 50.737225499999965,
          "velocity": 0.2992125984251969,
          "duration": 0.21682574999999815
        },
        {
          "name": "E3",
          "midi": 52,
          "time": 50.954051249999964,
          "velocity": 0.25984251968503935,
          "duration": 0.21682574999999815
        },
        {
          "name": "G#3",
          "midi": 56,
          "time": 51.17087699999996,
          "velocity": 0.2677165354330709,
          "duration": 0.21682574999999815
        },
        {
          "name": "A2",
          "midi": 45,
          "time": 52.03817999999996,
          "velocity": 0.2992125984251969,
          "duration": 0.21682574999999815
        },
        {
          "name": "E3",
          "midi": 52,
          "time": 52.25500574999996,
          "velocity": 0.2755905511811024,
          "duration": 0.21682574999999815
        },
        {
          "name": "A3",
          "midi": 57,
          "time": 52.47183149999996,
          "velocity": 0.2755905511811024,
          "duration": 0.21682574999999815
        },
        {
          "name": "A2",
          "midi": 45,
          "time": 54.64008899999995,
          "velocity": 0.2992125984251969,
          "duration": 0.21682574999999815
        },
        {
          "name": "E3",
          "midi": 52,
          "time": 54.85691474999995,
          "velocity": 0.2755905511811024,
          "duration": 0.21682574999999815
        },
        {
          "name": "A3",
          "midi": 57,
          "time": 55.07374049999995,
          "velocity": 0.2677165354330709,
          "duration": 0.21682574999999815
        },
        {
          "name": "E2",
          "midi": 40,
          "time": 55.94104349999995,
          "velocity": 0.2992125984251969,
          "duration": 0.21682574999999815
        },
        {
          "name": "E3",
          "midi": 52,
          "time": 56.15786924999995,
          "velocity": 0.29133858267716534,
          "duration": 0.21682574999999815
        },
        {
          "name": "G#3",
          "midi": 56,
          "time": 56.374694999999946,
          "velocity": 0.29133858267716534,
          "duration": 0.21682574999999815
        },
        {
          "name": "A2",
          "midi": 45,
          "time": 57.241997999999946,
          "velocity": 0.2992125984251969,
          "duration": 0.21682574999999815
        },
        {
          "name": "E3",
          "midi": 52,
          "time": 57.458823749999944,
          "velocity": 0.25196850393700787,
          "duration": 0.21682574999999815
        },
        {
          "name": "A3",
          "midi": 57,
          "time": 57.67564949999994,
          "velocity": 0.25196850393700787,
          "duration": 0.21682574999999815
        },
        {
          "name": "A#3",
          "midi": 58,
          "time": 57.89247524999994,
          "velocity": 0.2677165354330709,
          "duration": 0.16261931249999861
        },
        {
          "name": "C4",
          "midi": 60,
          "time": 57.89247524999994,
          "velocity": 0.2677165354330709,
          "duration": 0.16261931249999861
        },
        {
          "name": "A3",
          "midi": 57,
          "time": 58.10930099999994,
          "velocity": 0.2677165354330709,
          "duration": 0.16261931249999861
        },
        {
          "name": "C4",
          "midi": 60,
          "time": 58.10930099999994,
          "velocity": 0.2677165354330709,
          "duration": 0.16261931249999861
        },
        {
          "name": "G3",
          "midi": 55,
          "time": 58.326126749999936,
          "velocity": 0.2677165354330709,
          "duration": 0.10841287499999908
        },
        {
          "name": "A#3",
          "midi": 58,
          "time": 58.326126749999936,
          "velocity": 0.2677165354330709,
          "duration": 0.10841287499999908
        },
        {
          "name": "C4",
          "midi": 60,
          "time": 58.326126749999936,
          "velocity": 0.2677165354330709,
          "duration": 0.10841287499999908
        },
        {
          "name": "F3",
          "midi": 53,
          "time": 58.542952499999934,
          "velocity": 0.3464566929133858,
          "duration": 0.21682574999999815
        },
        {
          "name": "A3",
          "midi": 57,
          "time": 58.75977824999993,
          "velocity": 0.2992125984251969,
          "duration": 0.21682574999999815
        },
        {
          "name": "C4",
          "midi": 60,
          "time": 58.97660399999993,
          "velocity": 0.28346456692913385,
          "duration": 0.21682574999999815
        },
        {
          "name": "A3",
          "midi": 57,
          "time": 59.19342974999993,
          "velocity": 0.29133858267716534,
          "duration": 0.21682574999999815
        },
        {
          "name": "C4",
          "midi": 60,
          "time": 59.41025549999993,
          "velocity": 0.29133858267716534,
          "duration": 0.21682574999999815
        },
        {
          "name": "A3",
          "midi": 57,
          "time": 59.627081249999925,
          "velocity": 0.29133858267716534,
          "duration": 0.21682574999999815
        },
        {
          "name": "F3",
          "midi": 53,
          "time": 59.84390699999992,
          "velocity": 0.3464566929133858,
          "duration": 0.21682574999999815
        },
        {
          "name": "A#3",
          "midi": 58,
          "time": 60.06073274999992,
          "velocity": 0.2992125984251969,
          "duration": 0.21682574999999815
        },
        {
          "name": "D4",
          "midi": 62,
          "time": 60.27755849999992,
          "velocity": 0.29133858267716534,
          "duration": 0.21682574999999815
        },
        {
          "name": "A#3",
          "midi": 58,
          "time": 60.49438424999992,
          "velocity": 0.29133858267716534,
          "duration": 0.21682574999999815
        },
        {
          "name": "D4",
          "midi": 62,
          "time": 60.711209999999916,
          "velocity": 0.29133858267716534,
          "duration": 0.21682574999999815
        },
        {
          "name": "A#3",
          "midi": 58,
          "time": 60.928035749999914,
          "velocity": 0.2992125984251969,
          "duration": 0.21682574999999815
        },
        {
          "name": "F3",
          "midi": 53,
          "time": 61.14486149999991,
          "velocity": 0.3464566929133858,
          "duration": 0.21682574999999815
        },
        {
          "name": "E4",
          "midi": 64,
          "time": 61.36168724999991,
          "velocity": 0.29133858267716534,
          "duration": 0.21682574999999815
        },
        {
          "name": "F3",
          "midi": 53,
          "time": 61.57851299999991,
          "velocity": 0.28346456692913385,
          "duration": 0.21682574999999815
        },
        {
          "name": "A#3",
          "midi": 58,
          "time": 61.57851299999991,
          "velocity": 0.28346456692913385,
          "duration": 0.21682574999999815
        },
        {
          "name": "G3",
          "midi": 55,
          "time": 61.57851299999991,
          "velocity": 0.28346456692913385,
          "duration": 0.21682574999999815
        },
        {
          "name": "E4",
          "midi": 64,
          "time": 61.79533874999991,
          "velocity": 0.28346456692913385,
          "duration": 0.21682574999999815
        },
        {
          "name": "F3",
          "midi": 53,
          "time": 62.012164499999905,
          "velocity": 0.28346456692913385,
          "duration": 0.21682574999999815
        },
        {
          "name": "G3",
          "midi": 55,
          "time": 62.012164499999905,
          "velocity": 0.28346456692913385,
          "duration": 0.21682574999999815
        },
        {
          "name": "A#3",
          "midi": 58,
          "time": 62.012164499999905,
          "velocity": 0.28346456692913385,
          "duration": 0.21682574999999815
        },
        {
          "name": "E4",
          "midi": 64,
          "time": 62.2289902499999,
          "velocity": 0.28346456692913385,
          "duration": 0.21682574999999815
        },
        {
          "name": "F3",
          "midi": 53,
          "time": 62.4458159999999,
          "velocity": 0.3464566929133858,
          "duration": 0.21682574999999105
        },
        {
          "name": "A3",
          "midi": 57,
          "time": 62.66264174999989,
          "velocity": 0.28346456692913385,
          "duration": 0.21682574999999815
        },
        {
          "name": "C4",
          "midi": 60,
          "time": 62.87946749999989,
          "velocity": 0.28346456692913385,
          "duration": 0.21682574999999815
        },
        {
          "name": "A3",
          "midi": 57,
          "time": 63.09629324999989,
          "velocity": 0.28346456692913385,
          "duration": 0.21682574999999815
        },
        {
          "name": "C4",
          "midi": 60,
          "time": 63.31311899999989,
          "velocity": 0.28346456692913385,
          "duration": 0.21682574999999815
        },
        {
          "name": "A3",
          "midi": 57,
          "time": 63.529944749999885,
          "velocity": 0.28346456692913385,
          "duration": 0.21682574999999815
        },
        {
          "name": "F3",
          "midi": 53,
          "time": 63.74677049999988,
          "velocity": 0.33070866141732286,
          "duration": 0.21682574999999815
        },
        {
          "name": "A3",
          "midi": 57,
          "time": 63.96359624999988,
          "velocity": 0.2677165354330709,
          "duration": 0.21682574999999815
        },
        {
          "name": "C4",
          "midi": 60,
          "time": 64.18042199999988,
          "velocity": 0.2755905511811024,
          "duration": 0.21682574999999815
        },
        {
          "name": "A3",
          "midi": 57,
          "time": 64.39724774999988,
          "velocity": 0.28346456692913385,
          "duration": 0.21682574999999815
        },
        {
          "name": "C4",
          "midi": 60,
          "time": 64.61407349999988,
          "velocity": 0.2992125984251969,
          "duration": 0.21682574999999815
        },
        {
          "name": "A3",
          "midi": 57,
          "time": 64.83089924999987,
          "velocity": 0.30708661417322836,
          "duration": 0.21682574999999815
        },
        {
          "name": "E3",
          "midi": 52,
          "time": 65.04772499999987,
          "velocity": 0.3858267716535433,
          "duration": 0.21682574999999815
        },
        {
          "name": "A3",
          "midi": 57,
          "time": 65.26455074999987,
          "velocity": 0.2992125984251969,
          "duration": 0.21682574999999815
        },
        {
          "name": "C4",
          "midi": 60,
          "time": 65.48137649999987,
          "velocity": 0.2992125984251969,
          "duration": 0.21682574999999815
        },
        {
          "name": "A3",
          "midi": 57,
          "time": 65.69820224999987,
          "velocity": 0.2992125984251969,
          "duration": 0.21682574999999815
        },
        {
          "name": "D3",
          "midi": 50,
          "time": 65.91502799999986,
          "velocity": 0.2992125984251969,
          "duration": 0.21682574999999815
        },
        {
          "name": "D4",
          "midi": 62,
          "time": 65.91502799999986,
          "velocity": 0.2992125984251969,
          "duration": 0.21682574999999815
        },
        {
          "name": "F3",
          "midi": 53,
          "time": 66.13185374999986,
          "velocity": 0.2992125984251969,
          "duration": 0.21682574999999815
        },
        {
          "name": "G3",
          "midi": 55,
          "time": 66.34867949999986,
          "velocity": 0.3700787401574803,
          "duration": 0.21682574999999815
        },
        {
          "name": "E4",
          "midi": 64,
          "time": 66.56550524999986,
          "velocity": 0.2992125984251969,
          "duration": 0.21682574999999815
        },
        {
          "name": "G3",
          "midi": 55,
          "time": 66.78233099999986,
          "velocity": 0.31496062992125984,
          "duration": 0.21682574999999815
        },
        {
          "name": "E4",
          "midi": 64,
          "time": 66.99915674999986,
          "velocity": 0.2992125984251969,
          "duration": 0.21682574999999815
        },
        {
          "name": "G3",
          "midi": 55,
          "time": 67.21598249999985,
          "velocity": 0.3228346456692913,
          "duration": 0.21682574999999815
        },
        {
          "name": "F4",
          "midi": 65,
          "time": 67.43280824999985,
          "velocity": 0.2992125984251969,
          "duration": 0.21682574999999815
        },
        {
          "name": "C4",
          "midi": 60,
          "time": 67.64963399999985,
          "velocity": 0.3543307086614173,
          "duration": 0.4336514999999963
        },
        {
          "name": "E4",
          "midi": 64,
          "time": 67.64963399999985,
          "velocity": 0.3543307086614173,
          "duration": 0.4336514999999963
        },
        {
          "name": "F4",
          "midi": 65,
          "time": 68.30011124999984,
          "velocity": 0.31496062992125984,
          "duration": 0.16261931249999861
        },
        {
          "name": "G4",
          "midi": 67,
          "time": 68.30011124999984,
          "velocity": 0.31496062992125984,
          "duration": 0.16261931249999861
        },
        {
          "name": "E4",
          "midi": 64,
          "time": 68.51693699999984,
          "velocity": 0.33858267716535434,
          "duration": 0.16261931249999861
        },
        {
          "name": "G4",
          "midi": 67,
          "time": 68.51693699999984,
          "velocity": 0.33858267716535434,
          "duration": 0.16261931249999861
        },
        {
          "name": "D4",
          "midi": 62,
          "time": 68.73376274999984,
          "velocity": 0.36220472440944884,
          "duration": 0.16261931249999861
        },
        {
          "name": "F4",
          "midi": 65,
          "time": 68.73376274999984,
          "velocity": 0.36220472440944884,
          "duration": 0.16261931249999861
        },
        {
          "name": "G4",
          "midi": 67,
          "time": 68.73376274999984,
          "velocity": 0.36220472440944884,
          "duration": 0.16261931249999861
        },
        {
          "name": "C4",
          "midi": 60,
          "time": 68.95058849999984,
          "velocity": 0.3858267716535433,
          "duration": 0.4336514999999963
        },
        {
          "name": "E4",
          "midi": 64,
          "time": 68.95058849999984,
          "velocity": 0.3858267716535433,
          "duration": 0.4336514999999963
        },
        {
          "name": "G4",
          "midi": 67,
          "time": 68.95058849999984,
          "velocity": 0.3858267716535433,
          "duration": 0.4336514999999963
        },
        {
          "name": "F3",
          "midi": 53,
          "time": 69.38423999999983,
          "velocity": 0.33070866141732286,
          "duration": 0.4336514999999963
        },
        {
          "name": "A3",
          "midi": 57,
          "time": 69.38423999999983,
          "velocity": 0.33070866141732286,
          "duration": 0.4336514999999963
        },
        {
          "name": "G3",
          "midi": 55,
          "time": 69.81789149999983,
          "velocity": 0.33070866141732286,
          "duration": 0.4336514999999963
        },
        {
          "name": "B3",
          "midi": 59,
          "time": 69.81789149999983,
          "velocity": 0.33070866141732286,
          "duration": 0.4336514999999963
        },
        {
          "name": "C4",
          "midi": 60,
          "time": 70.25154299999983,
          "velocity": 0.3543307086614173,
          "duration": 0.4336514999999963
        },
        {
          "name": "F4",
          "midi": 65,
          "time": 70.90202024999982,
          "velocity": 0.31496062992125984,
          "duration": 0.16261931249999861
        },
        {
          "name": "G4",
          "midi": 67,
          "time": 70.90202024999982,
          "velocity": 0.31496062992125984,
          "duration": 0.16261931249999861
        },
        {
          "name": "E4",
          "midi": 64,
          "time": 71.11884599999982,
          "velocity": 0.33858267716535434,
          "duration": 0.16261931249999861
        },
        {
          "name": "G4",
          "midi": 67,
          "time": 71.11884599999982,
          "velocity": 0.33858267716535434,
          "duration": 0.16261931249999861
        },
        {
          "name": "D4",
          "midi": 62,
          "time": 71.33567174999982,
          "velocity": 0.36220472440944884,
          "duration": 0.16261931249999861
        },
        {
          "name": "F4",
          "midi": 65,
          "time": 71.33567174999982,
          "velocity": 0.36220472440944884,
          "duration": 0.16261931249999861
        },
        {
          "name": "G4",
          "midi": 67,
          "time": 71.33567174999982,
          "velocity": 0.36220472440944884,
          "duration": 0.16261931249999861
        },
        {
          "name": "C4",
          "midi": 60,
          "time": 71.55249749999982,
          "velocity": 0.3858267716535433,
          "duration": 0.4336514999999963
        },
        {
          "name": "E4",
          "midi": 64,
          "time": 71.55249749999982,
          "velocity": 0.3858267716535433,
          "duration": 0.4336514999999963
        },
        {
          "name": "G4",
          "midi": 67,
          "time": 71.55249749999982,
          "velocity": 0.3858267716535433,
          "duration": 0.4336514999999963
        },
        {
          "name": "F3",
          "midi": 53,
          "time": 71.98614899999981,
          "velocity": 0.33070866141732286,
          "duration": 0.4336514999999963
        },
        {
          "name": "A3",
          "midi": 57,
          "time": 71.98614899999981,
          "velocity": 0.33070866141732286,
          "duration": 0.4336514999999963
        },
        {
          "name": "G3",
          "midi": 55,
          "time": 72.41980049999981,
          "velocity": 0.33070866141732286,
          "duration": 0.4336514999999963
        },
        {
          "name": "B3",
          "midi": 59,
          "time": 72.41980049999981,
          "velocity": 0.33070866141732286,
          "duration": 0.4336514999999963
        },
        {
          "name": "B3",
          "midi": 59,
          "time": 72.8534519999998,
          "velocity": 0.33070866141732286,
          "duration": 0.4336514999999963
        },
        {
          "name": "G#3",
          "midi": 56,
          "time": 72.8534519999998,
          "velocity": 0.33070866141732286,
          "duration": 0.4336514999999963
        },
        {
          "name": "D#5",
          "midi": 75,
          "time": 76.5394897499998,
          "velocity": 0.33070866141732286,
          "duration": 0.21682574999999815
        },
        {
          "name": "E5",
          "midi": 76,
          "time": 76.7563154999998,
          "velocity": 0.3779527559055118,
          "duration": 0.16261931249999861
        },
        {
          "name": "D#5",
          "midi": 75,
          "time": 77.4067927499998,
          "velocity": 0.2755905511811024,
          "duration": 0.21682574999999815
        },
        {
          "name": "E5",
          "midi": 76,
          "time": 77.6236184999998,
          "velocity": 0.29133858267716534,
          "duration": 0.16261931249999861
        },
        {
          "name": "A2",
          "midi": 45,
          "time": 79.35822449999979,
          "velocity": 0.2755905511811024,
          "duration": 0.21682574999999815
        },
        {
          "name": "E3",
          "midi": 52,
          "time": 79.57505024999979,
          "velocity": 0.2440944881889764,
          "duration": 0.21682574999999815
        },
        {
          "name": "A3",
          "midi": 57,
          "time": 79.79187599999979,
          "velocity": 0.2440944881889764,
          "duration": 0.21682574999999815
        },
        {
          "name": "E2",
          "midi": 40,
          "time": 80.65917899999978,
          "velocity": 0.31496062992125984,
          "duration": 0.21682574999999815
        },
        {
          "name": "E3",
          "midi": 52,
          "time": 80.87600474999978,
          "velocity": 0.25984251968503935,
          "duration": 0.21682574999999815
        },
        {
          "name": "G#3",
          "midi": 56,
          "time": 81.09283049999978,
          "velocity": 0.2677165354330709,
          "duration": 0.21682574999999815
        },
        {
          "name": "A2",
          "midi": 45,
          "time": 81.96013349999977,
          "velocity": 0.2992125984251969,
          "duration": 0.21682574999999815
        },
        {
          "name": "E3",
          "midi": 52,
          "time": 82.17695924999977,
          "velocity": 0.2755905511811024,
          "duration": 0.21682574999999815
        },
        {
          "name": "A3",
          "midi": 57,
          "time": 82.39378499999977,
          "velocity": 0.2755905511811024,
          "duration": 0.21682574999999815
        },
        {
          "name": "A2",
          "midi": 45,
          "time": 84.56204249999976,
          "velocity": 0.2992125984251969,
          "duration": 0.21682574999999815
        },
        {
          "name": "E3",
          "midi": 52,
          "time": 84.77886824999976,
          "velocity": 0.2755905511811024,
          "duration": 0.21682574999999815
        },
        {
          "name": "A3",
          "midi": 57,
          "time": 84.99569399999976,
          "velocity": 0.2677165354330709,
          "duration": 0.21682574999999815
        },
        {
          "name": "E2",
          "midi": 40,
          "time": 85.86299699999975,
          "velocity": 0.2992125984251969,
          "duration": 0.21682574999999815
        },
        {
          "name": "E3",
          "midi": 52,
          "time": 86.07982274999975,
          "velocity": 0.29133858267716534,
          "duration": 0.21682574999999815
        },
        {
          "name": "G#3",
          "midi": 56,
          "time": 86.29664849999975,
          "velocity": 0.29133858267716534,
          "duration": 0.21682574999999815
        },
        {
          "name": "A2",
          "midi": 45,
          "time": 87.16395149999974,
          "velocity": 0.2992125984251969,
          "duration": 0.21682574999999815
        },
        {
          "name": "E3",
          "midi": 52,
          "time": 87.38077724999974,
          "velocity": 0.25196850393700787,
          "duration": 0.21682574999999815
        },
        {
          "name": "A3",
          "midi": 57,
          "time": 87.59760299999974,
          "velocity": 0.25196850393700787,
          "duration": 0.21682574999999815
        },
        {
          "name": "C3",
          "midi": 48,
          "time": 88.46490599999973,
          "velocity": 0.3464566929133858,
          "duration": 0.21682574999999815
        },
        {
          "name": "G3",
          "midi": 55,
          "time": 88.68173174999973,
          "velocity": 0.2992125984251969,
          "duration": 0.21682574999999815
        },
        {
          "name": "C4",
          "midi": 60,
          "time": 88.89855749999973,
          "velocity": 0.30708661417322836,
          "duration": 0.21682574999999815
        },
        {
          "name": "G2",
          "midi": 43,
          "time": 89.76586049999972,
          "velocity": 0.3464566929133858,
          "duration": 0.21682574999999815
        },
        {
          "name": "G3",
          "midi": 55,
          "time": 89.98268624999972,
          "velocity": 0.2992125984251969,
          "duration": 0.21682574999999815
        },
        {
          "name": "B3",
          "midi": 59,
          "time": 90.19951199999971,
          "velocity": 0.30708661417322836,
          "duration": 0.21682574999999815
        },
        {
          "name": "A2",
          "midi": 45,
          "time": 91.0668149999997,
          "velocity": 0.3464566929133858,
          "duration": 0.21682574999999815
        },
        {
          "name": "E3",
          "midi": 52,
          "time": 91.2836407499997,
          "velocity": 0.2992125984251969,
          "duration": 0.21682574999999815
        },
        {
          "name": "A3",
          "midi": 57,
          "time": 91.5004664999997,
          "velocity": 0.30708661417322836,
          "duration": 0.21682574999999815
        },
        {
          "name": "E2",
          "midi": 40,
          "time": 92.3677694999997,
          "velocity": 0.3464566929133858,
          "duration": 0.21682574999999815
        },
        {
          "name": "E3",
          "midi": 52,
          "time": 92.5845952499997,
          "velocity": 0.2992125984251969,
          "duration": 0.21682574999999815
        },
        {
          "name": "E4",
          "midi": 64,
          "time": 92.80142099999969,
          "velocity": 0.30708661417322836,
          "duration": 0.16261931249999861
        },
        {
          "name": "E4",
          "midi": 64,
          "time": 93.45189824999969,
          "velocity": 0.30708661417322836,
          "duration": 0.21682574999999815
        },
        {
          "name": "E5",
          "midi": 76,
          "time": 93.66872399999968,
          "velocity": 0.3464566929133858,
          "duration": 0.16261931249999861
        },
        {
          "name": "D#5",
          "midi": 75,
          "time": 94.31920124999968,
          "velocity": 0.33070866141732286,
          "duration": 0.21682574999999815
        },
        {
          "name": "E5",
          "midi": 76,
          "time": 94.53602699999968,
          "velocity": 0.3937007874015748,
          "duration": 0.16261931249999861
        },
        {
          "name": "D#5",
          "midi": 75,
          "time": 95.18650424999967,
          "velocity": 0.30708661417322836,
          "duration": 0.21682574999999815
        },
        {
          "name": "E5",
          "midi": 76,
          "time": 95.40332999999967,
          "velocity": 0.3228346456692913,
          "duration": 0.16261931249999861
        },
        {
          "name": "A2",
          "midi": 45,
          "time": 97.57158749999967,
          "velocity": 0.2755905511811024,
          "duration": 0.21682574999999815
        },
        {
          "name": "E3",
          "midi": 52,
          "time": 97.78841324999966,
          "velocity": 0.25984251968503935,
          "duration": 0.21682574999999815
        },
        {
          "name": "A3",
          "midi": 57,
          "time": 98.00523899999966,
          "velocity": 0.25984251968503935,
          "duration": 0.21682574999999815
        },
        {
          "name": "E2",
          "midi": 40,
          "time": 98.87254199999965,
          "velocity": 0.29133858267716534,
          "duration": 0.21682574999999815
        },
        {
          "name": "E3",
          "midi": 52,
          "time": 99.08936774999965,
          "velocity": 0.25984251968503935,
          "duration": 0.21682574999999815
        },
        {
          "name": "G#3",
          "midi": 56,
          "time": 99.30619349999965,
          "velocity": 0.2677165354330709,
          "duration": 0.21682574999999815
        },
        {
          "name": "A2",
          "midi": 45,
          "time": 100.17349649999964,
          "velocity": 0.2992125984251969,
          "duration": 0.21682574999999815
        },
        {
          "name": "E3",
          "midi": 52,
          "time": 100.39032224999964,
          "velocity": 0.25984251968503935,
          "duration": 0.21682574999999815
        },
        {
          "name": "A3",
          "midi": 57,
          "time": 100.60714799999964,
          "velocity": 0.25984251968503935,
          "duration": 0.21682574999999815
        },
        {
          "name": "A2",
          "midi": 45,
          "time": 102.77540549999964,
          "velocity": 0.28346456692913385,
          "duration": 0.21682574999999815
        },
        {
          "name": "E3",
          "midi": 52,
          "time": 102.99223124999963,
          "velocity": 0.2755905511811024,
          "duration": 0.21682574999999815
        },
        {
          "name": "A3",
          "midi": 57,
          "time": 103.20905699999963,
          "velocity": 0.2677165354330709,
          "duration": 0.21682574999999815
        },
        {
          "name": "E2",
          "midi": 40,
          "time": 104.07635999999962,
          "velocity": 0.2992125984251969,
          "duration": 0.21682574999999815
        },
        {
          "name": "E3",
          "midi": 52,
          "time": 104.29318574999962,
          "velocity": 0.29133858267716534,
          "duration": 0.21682574999999815
        },
        {
          "name": "G#3",
          "midi": 56,
          "time": 104.51001149999962,
          "velocity": 0.29133858267716534,
          "duration": 0.21682574999999815
        },
        {
          "name": "A2",
          "midi": 45,
          "time": 105.37731449999961,
          "velocity": 0.2992125984251969,
          "duration": 0.16261931249999861
        },
        {
          "name": "A2",
          "midi": 45,
          "time": 105.59414024999961,
          "velocity": 0.2755905511811024,
          "duration": 0.16261931249999861
        },
        {
          "name": "A2",
          "midi": 45,
          "time": 105.81096599999961,
          "velocity": 0.2992125984251969,
          "duration": 0.16261931249999861
        },
        {
          "name": "A2",
          "midi": 45,
          "time": 106.02779174999961,
          "velocity": 0.2677165354330709,
          "duration": 0.16261931249999861
        },
        {
          "name": "A2",
          "midi": 45,
          "time": 106.2446174999996,
          "velocity": 0.2992125984251969,
          "duration": 0.16261931249999861
        },
        {
          "name": "A2",
          "midi": 45,
          "time": 106.4614432499996,
          "velocity": 0.2755905511811024,
          "duration": 0.16261931249999861
        },
        {
          "name": "A2",
          "midi": 45,
          "time": 106.6782689999996,
          "velocity": 0.3464566929133858,
          "duration": 0.16261931249999861
        },
        {
          "name": "A2",
          "midi": 45,
          "time": 106.8950947499996,
          "velocity": 0.2992125984251969,
          "duration": 0.16261931249999861
        },
        {
          "name": "A2",
          "midi": 45,
          "time": 107.1119204999996,
          "velocity": 0.3543307086614173,
          "duration": 0.16261931249999861
        },
        {
          "name": "A2",
          "midi": 45,
          "time": 107.3287462499996,
          "velocity": 0.30708661417322836,
          "duration": 0.16261931249999861
        },
        {
          "name": "A2",
          "midi": 45,
          "time": 107.5455719999996,
          "velocity": 0.36220472440944884,
          "duration": 0.16261931249999861
        },
        {
          "name": "A2",
          "midi": 45,
          "time": 107.7623977499996,
          "velocity": 0.31496062992125984,
          "duration": 0.16261931249999861
        },
        {
          "name": "A2",
          "midi": 45,
          "time": 107.97922349999959,
          "velocity": 0.3700787401574803,
          "duration": 0.16261931249999861
        },
        {
          "name": "A2",
          "midi": 45,
          "time": 108.19604924999959,
          "velocity": 0.33070866141732286,
          "duration": 0.16261931249999861
        },
        {
          "name": "A2",
          "midi": 45,
          "time": 108.41287499999959,
          "velocity": 0.3779527559055118,
          "duration": 0.16261931249999861
        },
        {
          "name": "A2",
          "midi": 45,
          "time": 108.62970074999959,
          "velocity": 0.33858267716535434,
          "duration": 0.16261931249999861
        },
        {
          "name": "A2",
          "midi": 45,
          "time": 108.84652649999958,
          "velocity": 0.3937007874015748,
          "duration": 0.16261931249999861
        },
        {
          "name": "A2",
          "midi": 45,
          "time": 109.06335224999958,
          "velocity": 0.3700787401574803,
          "duration": 0.16261931249999861
        },
        {
          "name": "A2",
          "midi": 45,
          "time": 109.28017799999958,
          "velocity": 0.41732283464566927,
          "duration": 0.16261931249999861
        },
        {
          "name": "A2",
          "midi": 45,
          "time": 109.49700374999958,
          "velocity": 0.3779527559055118,
          "duration": 0.16261931249999861
        },
        {
          "name": "A2",
          "midi": 45,
          "time": 109.71382949999958,
          "velocity": 0.41732283464566927,
          "duration": 0.16261931249999861
        },
        {
          "name": "A2",
          "midi": 45,
          "time": 109.93065524999957,
          "velocity": 0.3937007874015748,
          "duration": 0.16261931249999861
        },
        {
          "name": "A2",
          "midi": 45,
          "time": 110.14748099999957,
          "velocity": 0.4251968503937008,
          "duration": 0.16261931249999861
        },
        {
          "name": "A2",
          "midi": 45,
          "time": 110.36430674999957,
          "velocity": 0.3937007874015748,
          "duration": 0.16261931249999861
        },
        {
          "name": "A2",
          "midi": 45,
          "time": 110.58113249999957,
          "velocity": 0.4330708661417323,
          "duration": 0.16261931249999861
        },
        {
          "name": "A2",
          "midi": 45,
          "time": 110.79795824999957,
          "velocity": 0.3858267716535433,
          "duration": 0.16261931249999861
        },
        {
          "name": "A2",
          "midi": 45,
          "time": 111.01478399999957,
          "velocity": 0.4330708661417323,
          "duration": 0.16261931249999861
        },
        {
          "name": "A2",
          "midi": 45,
          "time": 111.23160974999956,
          "velocity": 0.4015748031496063,
          "duration": 0.16261931249999861
        },
        {
          "name": "A2",
          "midi": 45,
          "time": 111.44843549999956,
          "velocity": 0.4330708661417323,
          "duration": 0.16261931249999861
        },
        {
          "name": "A2",
          "midi": 45,
          "time": 111.66526124999956,
          "velocity": 0.4094488188976378,
          "duration": 0.16261931249999861
        },
        {
          "name": "D2",
          "midi": 38,
          "time": 111.88208699999956,
          "velocity": 0.3937007874015748,
          "duration": 0.16261931249999861
        },
        {
          "name": "A2",
          "midi": 45,
          "time": 111.88208699999956,
          "velocity": 0.47244094488188976,
          "duration": 0.16261931249999861
        },
        {
          "name": "D2",
          "midi": 38,
          "time": 112.09891274999956,
          "velocity": 0.36220472440944884,
          "duration": 0.16261931249999861
        },
        {
          "name": "A2",
          "midi": 45,
          "time": 112.09891274999956,
          "velocity": 0.4330708661417323,
          "duration": 0.16261931249999861
        },
        {
          "name": "D2",
          "midi": 38,
          "time": 112.31573849999955,
          "velocity": 0.3858267716535433,
          "duration": 0.16261931249999861
        },
        {
          "name": "A2",
          "midi": 45,
          "time": 112.31573849999955,
          "velocity": 0.4566929133858268,
          "duration": 0.16261931249999861
        },
        {
          "name": "D2",
          "midi": 38,
          "time": 112.53256424999955,
          "velocity": 0.36220472440944884,
          "duration": 0.16261931249999861
        },
        {
          "name": "A2",
          "midi": 45,
          "time": 112.53256424999955,
          "velocity": 0.4330708661417323,
          "duration": 0.16261931249999861
        },
        {
          "name": "D2",
          "midi": 38,
          "time": 112.74938999999955,
          "velocity": 0.3779527559055118,
          "duration": 0.16261931249999861
        },
        {
          "name": "A2",
          "midi": 45,
          "time": 112.74938999999955,
          "velocity": 0.44881889763779526,
          "duration": 0.16261931249999861
        },
        {
          "name": "D2",
          "midi": 38,
          "time": 112.96621574999955,
          "velocity": 0.3464566929133858,
          "duration": 0.16261931249999861
        },
        {
          "name": "A2",
          "midi": 45,
          "time": 112.96621574999955,
          "velocity": 0.4094488188976378,
          "duration": 0.16261931249999861
        },
        {
          "name": "D#2",
          "midi": 39,
          "time": 113.18304149999955,
          "velocity": 0.36220472440944884,
          "duration": 0.16261931249999861
        },
        {
          "name": "A2",
          "midi": 45,
          "time": 113.18304149999955,
          "velocity": 0.4330708661417323,
          "duration": 0.16261931249999861
        },
        {
          "name": "D#2",
          "midi": 39,
          "time": 113.39986724999955,
          "velocity": 0.33070866141732286,
          "duration": 0.16261931249999861
        },
        {
          "name": "A2",
          "midi": 45,
          "time": 113.39986724999955,
          "velocity": 0.3937007874015748,
          "duration": 0.16261931249999861
        },
        {
          "name": "D#2",
          "midi": 39,
          "time": 113.61669299999954,
          "velocity": 0.3543307086614173,
          "duration": 0.16261931249999861
        },
        {
          "name": "A2",
          "midi": 45,
          "time": 113.61669299999954,
          "velocity": 0.41732283464566927,
          "duration": 0.16261931249999861
        },
        {
          "name": "D#2",
          "midi": 39,
          "time": 113.83351874999954,
          "velocity": 0.3228346456692913,
          "duration": 0.16261931249999861
        },
        {
          "name": "A2",
          "midi": 45,
          "time": 113.83351874999954,
          "velocity": 0.3858267716535433,
          "duration": 0.16261931249999861
        },
        {
          "name": "D#2",
          "midi": 39,
          "time": 114.05034449999954,
          "velocity": 0.33070866141732286,
          "duration": 0.16261931249999861
        },
        {
          "name": "A2",
          "midi": 45,
          "time": 114.05034449999954,
          "velocity": 0.4015748031496063,
          "duration": 0.16261931249999861
        },
        {
          "name": "D#2",
          "midi": 39,
          "time": 114.26717024999954,
          "velocity": 0.33070866141732286,
          "duration": 0.16261931249999861
        },
        {
          "name": "A2",
          "midi": 45,
          "time": 114.26717024999954,
          "velocity": 0.3937007874015748,
          "duration": 0.16261931249999861
        },
        {
          "name": "E2",
          "midi": 40,
          "time": 114.48399599999954,
          "velocity": 0.3700787401574803,
          "duration": 0.16261931249999861
        },
        {
          "name": "A2",
          "midi": 45,
          "time": 114.48399599999954,
          "velocity": 0.4409448818897638,
          "duration": 0.16261931249999861
        },
        {
          "name": "E2",
          "midi": 40,
          "time": 114.70082174999953,
          "velocity": 0.3228346456692913,
          "duration": 0.16261931249999861
        },
        {
          "name": "A2",
          "midi": 45,
          "time": 114.70082174999953,
          "velocity": 0.3858267716535433,
          "duration": 0.16261931249999861
        },
        {
          "name": "E2",
          "midi": 40,
          "time": 114.91764749999953,
          "velocity": 0.3464566929133858,
          "duration": 0.16261931249999861
        },
        {
          "name": "A2",
          "midi": 45,
          "time": 114.91764749999953,
          "velocity": 0.4094488188976378,
          "duration": 0.16261931249999861
        },
        {
          "name": "E2",
          "midi": 40,
          "time": 115.13447324999953,
          "velocity": 0.3228346456692913,
          "duration": 0.16261931249999861
        },
        {
          "name": "A2",
          "midi": 45,
          "time": 115.13447324999953,
          "velocity": 0.3858267716535433,
          "duration": 0.16261931249999861
        },
        {
          "name": "G#2",
          "midi": 44,
          "time": 115.35129899999953,
          "velocity": 0.3937007874015748,
          "duration": 0.16261931249999861
        },
        {
          "name": "E2",
          "midi": 40,
          "time": 115.35129899999953,
          "velocity": 0.33070866141732286,
          "duration": 0.16261931249999861
        },
        {
          "name": "G#2",
          "midi": 44,
          "time": 115.56812474999953,
          "velocity": 0.3937007874015748,
          "duration": 0.16261931249999861
        },
        {
          "name": "E2",
          "midi": 40,
          "time": 115.56812474999953,
          "velocity": 0.33070866141732286,
          "duration": 0.16261931249999861
        },
        {
          "name": "A1",
          "midi": 33,
          "time": 115.78495049999952,
          "velocity": 0.33070866141732286,
          "duration": 0.16261931249999861
        },
        {
          "name": "A2",
          "midi": 45,
          "time": 115.78495049999952,
          "velocity": 0.3937007874015748,
          "duration": 0.16261931249999861
        },
        {
          "name": "A2",
          "midi": 45,
          "time": 116.00177624999952,
          "velocity": 0.33070866141732286,
          "duration": 0.16261931249999861
        },
        {
          "name": "A2",
          "midi": 45,
          "time": 116.21860199999952,
          "velocity": 0.3543307086614173,
          "duration": 0.16261931249999861
        },
        {
          "name": "A2",
          "midi": 45,
          "time": 116.43542774999952,
          "velocity": 0.33070866141732286,
          "duration": 0.16261931249999861
        },
        {
          "name": "A2",
          "midi": 45,
          "time": 116.65225349999952,
          "velocity": 0.3464566929133858,
          "duration": 0.16261931249999861
        },
        {
          "name": "A2",
          "midi": 45,
          "time": 116.86907924999952,
          "velocity": 0.33070866141732286,
          "duration": 0.16261931249999861
        },
        {
          "name": "A2",
          "midi": 45,
          "time": 117.08590499999951,
          "velocity": 0.3464566929133858,
          "duration": 0.16261931249999861
        },
        {
          "name": "A2",
          "midi": 45,
          "time": 117.30273074999951,
          "velocity": 0.2992125984251969,
          "duration": 0.16261931249999861
        },
        {
          "name": "A2",
          "midi": 45,
          "time": 117.51955649999951,
          "velocity": 0.3543307086614173,
          "duration": 0.16261931249999861
        },
        {
          "name": "A2",
          "midi": 45,
          "time": 117.73638224999951,
          "velocity": 0.30708661417322836,
          "duration": 0.16261931249999861
        },
        {
          "name": "A2",
          "midi": 45,
          "time": 117.9532079999995,
          "velocity": 0.36220472440944884,
          "duration": 0.16261931249999861
        },
        {
          "name": "A2",
          "midi": 45,
          "time": 118.1700337499995,
          "velocity": 0.31496062992125984,
          "duration": 0.16261931249999861
        },
        {
          "name": "A2",
          "midi": 45,
          "time": 118.3868594999995,
          "velocity": 0.3700787401574803,
          "duration": 0.16261931249999861
        },
        {
          "name": "A2",
          "midi": 45,
          "time": 118.6036852499995,
          "velocity": 0.33070866141732286,
          "duration": 0.16261931249999861
        },
        {
          "name": "A2",
          "midi": 45,
          "time": 118.8205109999995,
          "velocity": 0.3779527559055118,
          "duration": 0.16261931249999861
        },
        {
          "name": "A2",
          "midi": 45,
          "time": 119.0373367499995,
          "velocity": 0.33858267716535434,
          "duration": 0.16261931249999861
        },
        {
          "name": "A2",
          "midi": 45,
          "time": 119.2541624999995,
          "velocity": 0.3937007874015748,
          "duration": 0.16261931249999861
        },
        {
          "name": "A2",
          "midi": 45,
          "time": 119.4709882499995,
          "velocity": 0.3700787401574803,
          "duration": 0.16261931249999861
        },
        {
          "name": "A2",
          "midi": 45,
          "time": 119.68781399999949,
          "velocity": 0.41732283464566927,
          "duration": 0.16261931249999861
        },
        {
          "name": "A2",
          "midi": 45,
          "time": 119.90463974999949,
          "velocity": 0.3779527559055118,
          "duration": 0.16261931249999861
        },
        {
          "name": "A2",
          "midi": 45,
          "time": 120.12146549999949,
          "velocity": 0.41732283464566927,
          "duration": 0.16261931249999861
        },
        {
          "name": "A2",
          "midi": 45,
          "time": 120.33829124999949,
          "velocity": 0.3937007874015748,
          "duration": 0.16261931249999861
        },
        {
          "name": "A2",
          "midi": 45,
          "time": 120.55511699999948,
          "velocity": 0.4251968503937008,
          "duration": 0.16261931249999861
        },
        {
          "name": "A2",
          "midi": 45,
          "time": 120.77194274999948,
          "velocity": 0.3937007874015748,
          "duration": 0.16261931249999861
        },
        {
          "name": "A#2",
          "midi": 46,
          "time": 120.98876849999948,
          "velocity": 0.4330708661417323,
          "duration": 0.16261931249999861
        },
        {
          "name": "A#2",
          "midi": 46,
          "time": 121.20559424999948,
          "velocity": 0.3858267716535433,
          "duration": 0.16261931249999861
        },
        {
          "name": "A#2",
          "midi": 46,
          "time": 121.42241999999948,
          "velocity": 0.4330708661417323,
          "duration": 0.16261931249999861
        },
        {
          "name": "A#2",
          "midi": 46,
          "time": 121.63924574999947,
          "velocity": 0.4015748031496063,
          "duration": 0.16261931249999861
        },
        {
          "name": "A#2",
          "midi": 46,
          "time": 121.85607149999947,
          "velocity": 0.4330708661417323,
          "duration": 0.16261931249999861
        },
        {
          "name": "A#2",
          "midi": 46,
          "time": 122.07289724999947,
          "velocity": 0.4094488188976378,
          "duration": 0.16261931249999861
        },
        {
          "name": "A#2",
          "midi": 46,
          "time": 122.28972299999947,
          "velocity": 0.47244094488188976,
          "duration": 0.16261931249999861
        },
        {
          "name": "A#2",
          "midi": 46,
          "time": 122.50654874999947,
          "velocity": 0.4330708661417323,
          "duration": 0.16261931249999861
        },
        {
          "name": "A#2",
          "midi": 46,
          "time": 122.72337449999947,
          "velocity": 0.4566929133858268,
          "duration": 0.16261931249999861
        },
        {
          "name": "A#2",
          "midi": 46,
          "time": 122.94020024999946,
          "velocity": 0.4330708661417323,
          "duration": 0.16261931249999861
        },
        {
          "name": "A#2",
          "midi": 46,
          "time": 123.15702599999946,
          "velocity": 0.44881889763779526,
          "duration": 0.16261931249999861
        },
        {
          "name": "A#2",
          "midi": 46,
          "time": 123.37385174999946,
          "velocity": 0.4094488188976378,
          "duration": 0.16261931249999861
        },
        {
          "name": "A#2",
          "midi": 46,
          "time": 123.59067749999946,
          "velocity": 0.4330708661417323,
          "duration": 0.16261931249999861
        },
        {
          "name": "A#2",
          "midi": 46,
          "time": 123.80750324999946,
          "velocity": 0.3937007874015748,
          "duration": 0.16261931249999861
        },
        {
          "name": "A#2",
          "midi": 46,
          "time": 124.02432899999945,
          "velocity": 0.41732283464566927,
          "duration": 0.16261931249999861
        },
        {
          "name": "A#2",
          "midi": 46,
          "time": 124.24115474999945,
          "velocity": 0.3858267716535433,
          "duration": 0.16261931249999861
        },
        {
          "name": "A#2",
          "midi": 46,
          "time": 124.45798049999945,
          "velocity": 0.4015748031496063,
          "duration": 0.16261931249999861
        },
        {
          "name": "A#2",
          "midi": 46,
          "time": 124.67480624999945,
          "velocity": 0.3937007874015748,
          "duration": 0.16261931249999861
        },
        {
          "name": "B2",
          "midi": 47,
          "time": 124.89163199999945,
          "velocity": 0.4409448818897638,
          "duration": 0.16261931249999861
        },
        {
          "name": "B2",
          "midi": 47,
          "time": 125.10845774999945,
          "velocity": 0.3858267716535433,
          "duration": 0.16261931249999861
        },
        {
          "name": "B2",
          "midi": 47,
          "time": 125.32528349999944,
          "velocity": 0.4094488188976378,
          "duration": 0.16261931249999861
        },
        {
          "name": "B2",
          "midi": 47,
          "time": 125.54210924999944,
          "velocity": 0.3858267716535433,
          "duration": 0.16261931249999861
        },
        {
          "name": "B2",
          "midi": 47,
          "time": 125.75893499999944,
          "velocity": 0.3937007874015748,
          "duration": 0.16261931249999861
        },
        {
          "name": "B2",
          "midi": 47,
          "time": 125.97576074999944,
          "velocity": 0.3937007874015748,
          "duration": 0.16261931249999861
        },
        {
          "name": "C3",
          "midi": 48,
          "time": 126.19258649999944,
          "velocity": 0.4330708661417323,
          "duration": 0.8673030000000068
        },
        {
          "name": "E3",
          "midi": 52,
          "time": 127.49354099999944,
          "velocity": 0.30708661417322836,
          "duration": 0.4336514999999963
        },
        {
          "name": "G#3",
          "midi": 56,
          "time": 127.49354099999944,
          "velocity": 0.3464566929133858,
          "duration": 0.4336514999999963
        },
        {
          "name": "A1",
          "midi": 33,
          "time": 128.79449549999944,
          "velocity": 0.2755905511811024,
          "duration": 0.4336514999999963
        },
        {
          "name": "E4",
          "midi": 64,
          "time": 129.66179849999943,
          "velocity": 0.25196850393700787,
          "duration": 0.4336514999999963
        },
        {
          "name": "C4",
          "midi": 60,
          "time": 129.66179849999943,
          "velocity": 0.2125984251968504,
          "duration": 0.4336514999999963
        },
        {
          "name": "A3",
          "midi": 57,
          "time": 129.66179849999943,
          "velocity": 0.2125984251968504,
          "duration": 0.4336514999999963
        },
        {
          "name": "E4",
          "midi": 64,
          "time": 130.09544999999943,
          "velocity": 0.25984251968503935,
          "duration": 0.4336514999999963
        },
        {
          "name": "C4",
          "midi": 60,
          "time": 130.09544999999943,
          "velocity": 0.2204724409448819,
          "duration": 0.4336514999999963
        },
        {
          "name": "A3",
          "midi": 57,
          "time": 130.09544999999943,
          "velocity": 0.2204724409448819,
          "duration": 0.4336514999999963
        },
        {
          "name": "E4",
          "midi": 64,
          "time": 130.96275299999942,
          "velocity": 0.25196850393700787,
          "duration": 0.4336514999999963
        },
        {
          "name": "C4",
          "midi": 60,
          "time": 130.96275299999942,
          "velocity": 0.2125984251968504,
          "duration": 0.4336514999999963
        },
        {
          "name": "A3",
          "midi": 57,
          "time": 130.96275299999942,
          "velocity": 0.2125984251968504,
          "duration": 0.4336514999999963
        },
        {
          "name": "E4",
          "midi": 64,
          "time": 131.39640449999942,
          "velocity": 0.2677165354330709,
          "duration": 0.4336514999999963
        },
        {
          "name": "C4",
          "midi": 60,
          "time": 131.39640449999942,
          "velocity": 0.2204724409448819,
          "duration": 0.4336514999999963
        },
        {
          "name": "A3",
          "midi": 57,
          "time": 131.39640449999942,
          "velocity": 0.2204724409448819,
          "duration": 0.4336514999999963
        },
        {
          "name": "E4",
          "midi": 64,
          "time": 132.2637074999994,
          "velocity": 0.25196850393700787,
          "duration": 0.4336514999999963
        },
        {
          "name": "C4",
          "midi": 60,
          "time": 132.2637074999994,
          "velocity": 0.2125984251968504,
          "duration": 0.4336514999999963
        },
        {
          "name": "A3",
          "midi": 57,
          "time": 132.2637074999994,
          "velocity": 0.2125984251968504,
          "duration": 0.4336514999999963
        },
        {
          "name": "E4",
          "midi": 64,
          "time": 132.6973589999994,
          "velocity": 0.25984251968503935,
          "duration": 0.4336514999999963
        },
        {
          "name": "C4",
          "midi": 60,
          "time": 132.6973589999994,
          "velocity": 0.2204724409448819,
          "duration": 0.4336514999999963
        },
        {
          "name": "A3",
          "midi": 57,
          "time": 132.6973589999994,
          "velocity": 0.2204724409448819,
          "duration": 0.4336514999999963
        },
        {
          "name": "A2",
          "midi": 45,
          "time": 136.6002224999994,
          "velocity": 0.29133858267716534,
          "duration": 0.21682574999999815
        },
        {
          "name": "E3",
          "midi": 52,
          "time": 136.8170482499994,
          "velocity": 0.25984251968503935,
          "duration": 0.21682574999999815
        },
        {
          "name": "A3",
          "midi": 57,
          "time": 137.0338739999994,
          "velocity": 0.25984251968503935,
          "duration": 0.21682574999999815
        },
        {
          "name": "E2",
          "midi": 40,
          "time": 137.9011769999994,
          "velocity": 0.31496062992125984,
          "duration": 0.21682574999999815
        },
        {
          "name": "E3",
          "midi": 52,
          "time": 138.1180027499994,
          "velocity": 0.25984251968503935,
          "duration": 0.21682574999999815
        },
        {
          "name": "G#3",
          "midi": 56,
          "time": 138.3348284999994,
          "velocity": 0.2677165354330709,
          "duration": 0.21682574999999815
        },
        {
          "name": "A2",
          "midi": 45,
          "time": 139.20213149999938,
          "velocity": 0.2992125984251969,
          "duration": 0.21682574999999815
        },
        {
          "name": "E3",
          "midi": 52,
          "time": 139.41895724999938,
          "velocity": 0.2755905511811024,
          "duration": 0.21682574999999815
        },
        {
          "name": "A3",
          "midi": 57,
          "time": 139.63578299999938,
          "velocity": 0.2755905511811024,
          "duration": 0.21682574999999815
        },
        {
          "name": "A2",
          "midi": 45,
          "time": 141.80404049999936,
          "velocity": 0.2992125984251969,
          "duration": 0.21682574999999815
        },
        {
          "name": "E3",
          "midi": 52,
          "time": 142.02086624999936,
          "velocity": 0.2755905511811024,
          "duration": 0.21682574999999815
        },
        {
          "name": "A3",
          "midi": 57,
          "time": 142.23769199999936,
          "velocity": 0.2677165354330709,
          "duration": 0.21682574999999815
        },
        {
          "name": "E2",
          "midi": 40,
          "time": 143.10499499999935,
          "velocity": 0.2992125984251969,
          "duration": 0.21682574999999815
        },
        {
          "name": "E3",
          "midi": 52,
          "time": 143.32182074999935,
          "velocity": 0.29133858267716534,
          "duration": 0.21682574999999815
        },
        {
          "name": "G#3",
          "midi": 56,
          "time": 143.53864649999934,
          "velocity": 0.29133858267716534,
          "duration": 0.21682574999999815
        },
        {
          "name": "A2",
          "midi": 45,
          "time": 144.40594949999934,
          "velocity": 0.2992125984251969,
          "duration": 0.21682574999999815
        },
        {
          "name": "E3",
          "midi": 52,
          "time": 144.62277524999934,
          "velocity": 0.25196850393700787,
          "duration": 0.21682574999999815
        },
        {
          "name": "A3",
          "midi": 57,
          "time": 144.83960099999933,
          "velocity": 0.25196850393700787,
          "duration": 0.21682574999999815
        },
        {
          "name": "C3",
          "midi": 48,
          "time": 145.70690399999933,
          "velocity": 0.3464566929133858,
          "duration": 0.21682574999999815
        },
        {
          "name": "G3",
          "midi": 55,
          "time": 145.92372974999932,
          "velocity": 0.2992125984251969,
          "duration": 0.21682574999999815
        },
        {
          "name": "C4",
          "midi": 60,
          "time": 146.14055549999932,
          "velocity": 0.30708661417322836,
          "duration": 0.21682574999999815
        },
        {
          "name": "G2",
          "midi": 43,
          "time": 147.00785849999932,
          "velocity": 0.3464566929133858,
          "duration": 0.21682574999999815
        },
        {
          "name": "G3",
          "midi": 55,
          "time": 147.2246842499993,
          "velocity": 0.2992125984251969,
          "duration": 0.21682574999999815
        },
        {
          "name": "B3",
          "midi": 59,
          "time": 147.4415099999993,
          "velocity": 0.30708661417322836,
          "duration": 0.21682574999999815
        },
        {
          "name": "A2",
          "midi": 45,
          "time": 148.3088129999993,
          "velocity": 0.3464566929133858,
          "duration": 0.21682574999999815
        },
        {
          "name": "E3",
          "midi": 52,
          "time": 148.5256387499993,
          "velocity": 0.2992125984251969,
          "duration": 0.21682574999999815
        },
        {
          "name": "A3",
          "midi": 57,
          "time": 148.7424644999993,
          "velocity": 0.30708661417322836,
          "duration": 0.21682574999999815
        },
        {
          "name": "E2",
          "midi": 40,
          "time": 149.6097674999993,
          "velocity": 0.3464566929133858,
          "duration": 0.21682574999999815
        },
        {
          "name": "E3",
          "midi": 52,
          "time": 149.8265932499993,
          "velocity": 0.2992125984251969,
          "duration": 0.21682574999999815
        },
        {
          "name": "E4",
          "midi": 64,
          "time": 150.0434189999993,
          "velocity": 0.30708661417322836,
          "duration": 0.16261931249999861
        },
        {
          "name": "E4",
          "midi": 64,
          "time": 150.69389624999928,
          "velocity": 0.30708661417322836,
          "duration": 0.21682574999999815
        },
        {
          "name": "E5",
          "midi": 76,
          "time": 150.91072199999928,
          "velocity": 0.3464566929133858,
          "duration": 0.16261931249999861
        },
        {
          "name": "D#5",
          "midi": 75,
          "time": 151.56119924999928,
          "velocity": 0.33070866141732286,
          "duration": 0.21682574999999815
        },
        {
          "name": "E5",
          "midi": 76,
          "time": 151.77802499999927,
          "velocity": 0.3937007874015748,
          "duration": 0.16261931249999861
        },
        {
          "name": "D#5",
          "midi": 75,
          "time": 152.42850224999927,
          "velocity": 0.30708661417322836,
          "duration": 0.21682574999999815
        },
        {
          "name": "E5",
          "midi": 76,
          "time": 152.64532799999927,
          "velocity": 0.3228346456692913,
          "duration": 0.16261931249999861
        },
        {
          "name": "A2",
          "midi": 45,
          "time": 154.81358549999928,
          "velocity": 0.28346456692913385,
          "duration": 0.21682574999999815
        },
        {
          "name": "E3",
          "midi": 52,
          "time": 155.03041124999928,
          "velocity": 0.25984251968503935,
          "duration": 0.21682574999999815
        },
        {
          "name": "A3",
          "midi": 57,
          "time": 155.24723699999927,
          "velocity": 0.25984251968503935,
          "duration": 0.21682574999999815
        },
        {
          "name": "E2",
          "midi": 40,
          "time": 156.11453999999927,
          "velocity": 0.31496062992125984,
          "duration": 0.21682574999999815
        },
        {
          "name": "E3",
          "midi": 52,
          "time": 156.33136574999926,
          "velocity": 0.25984251968503935,
          "duration": 0.21682574999999815
        },
        {
          "name": "G#3",
          "midi": 56,
          "time": 156.54819149999926,
          "velocity": 0.2677165354330709,
          "duration": 0.21682574999999815
        },
        {
          "name": "A2",
          "midi": 45,
          "time": 157.41549449999926,
          "velocity": 0.2992125984251969,
          "duration": 0.21682574999999815
        },
        {
          "name": "E3",
          "midi": 52,
          "time": 157.63232024999925,
          "velocity": 0.2755905511811024,
          "duration": 0.21682574999999815
        },
        {
          "name": "A3",
          "midi": 57,
          "time": 157.84914599999925,
          "velocity": 0.2755905511811024,
          "duration": 0.21682574999999815
        },
        {
          "name": "A2",
          "midi": 45,
          "time": 160.01740349999923,
          "velocity": 0.2992125984251969,
          "duration": 0.21682574999999815
        },
        {
          "name": "E3",
          "midi": 52,
          "time": 160.23422924999923,
          "velocity": 0.2755905511811024,
          "duration": 0.21682574999999815
        },
        {
          "name": "A3",
          "midi": 57,
          "time": 160.45105499999923,
          "velocity": 0.2677165354330709,
          "duration": 0.21682574999999815
        },
        {
          "name": "E2",
          "midi": 40,
          "time": 161.31835799999922,
          "velocity": 0.2992125984251969,
          "duration": 0.21682574999999815
        },
        {
          "name": "E3",
          "midi": 52,
          "time": 161.53518374999922,
          "velocity": 0.29133858267716534,
          "duration": 0.21682574999999815
        },
        {
          "name": "G#3",
          "midi": 56,
          "time": 161.75200949999922,
          "velocity": 0.29133858267716534,
          "duration": 0.21682574999999815
        },
        {
          "name": "A1",
          "midi": 33,
          "time": 162.6193124999992,
          "velocity": 0.13385826771653545,
          "duration": 0.4336514999999963
        },
        {
          "name": "A2",
          "midi": 45,
          "time": 162.6193124999992,
          "velocity": 0.1968503937007874,
          "duration": 0.4336514999999963
        }
      ],
      "controlChanges": {
        "7": [
          {
            "number": 7,
            "time": 0,
            "value": 0.7874015748031497
          }
        ],
        "10": [
          {
            "number": 10,
            "time": 0,
            "value": 0.5039370078740157
          }
        ],
        "64": [
          {
            "number": 64,
            "time": 2.666956725,
            "value": 1
          },
          {
            "number": 64,
            "time": 3.9371942437499996,
            "value": 0
          },
          {
            "number": 64,
            "time": 4.00585573125,
            "value": 1
          },
          {
            "number": 64,
            "time": 5.214659287499999,
            "value": 0
          },
          {
            "number": 64,
            "time": 5.295968943749999,
            "value": 1
          },
          {
            "number": 64,
            "time": 5.915729212499999,
            "value": 0
          },
          {
            "number": 64,
            "time": 7.896071062499998,
            "value": 1
          },
          {
            "number": 64,
            "time": 9.126557193749997,
            "value": 0
          },
          {
            "number": 64,
            "time": 9.231356306249998,
            "value": 1
          },
          {
            "number": 64,
            "time": 10.440159862499996,
            "value": 0
          },
          {
            "number": 64,
            "time": 10.508821349999996,
            "value": 1
          },
          {
            "number": 64,
            "time": 11.099671518749997,
            "value": 0
          },
          {
            "number": 64,
            "time": 13.087240893749996,
            "value": 1
          },
          {
            "number": 64,
            "time": 14.344830243749994,
            "value": 0
          },
          {
            "number": 64,
            "time": 14.413491731249994,
            "value": 1
          },
          {
            "number": 64,
            "time": 15.622295287499995,
            "value": 0
          },
          {
            "number": 64,
            "time": 15.703604943749994,
            "value": 1
          },
          {
            "number": 64,
            "time": 16.323365212499997,
            "value": 0
          },
          {
            "number": 64,
            "time": 18.329003399999998,
            "value": 1
          },
          {
            "number": 64,
            "time": 19.534193193750003,
            "value": 0
          },
          {
            "number": 64,
            "time": 19.638992306250003,
            "value": 1
          },
          {
            "number": 64,
            "time": 20.847795862500007,
            "value": 0
          },
          {
            "number": 64,
            "time": 20.916457350000005,
            "value": 1
          },
          {
            "number": 64,
            "time": 21.324812512500007,
            "value": 0
          },
          {
            "number": 64,
            "time": 22.136102193750006,
            "value": 0
          },
          {
            "number": 64,
            "time": 22.240901306250006,
            "value": 1
          },
          {
            "number": 64,
            "time": 23.43705669375001,
            "value": 0
          },
          {
            "number": 64,
            "time": 23.54185580625001,
            "value": 1
          },
          {
            "number": 64,
            "time": 24.738011193750012,
            "value": 0
          },
          {
            "number": 64,
            "time": 24.842810306250012,
            "value": 1
          },
          {
            "number": 64,
            "time": 26.038965693750015,
            "value": 0
          },
          {
            "number": 64,
            "time": 26.143764806250015,
            "value": 1
          },
          {
            "number": 64,
            "time": 27.894632737500014,
            "value": 0
          },
          {
            "number": 64,
            "time": 31.313252062500016,
            "value": 1
          },
          {
            "number": 64,
            "time": 32.55819324375002,
            "value": 0
          },
          {
            "number": 64,
            "time": 32.62685473125002,
            "value": 1
          },
          {
            "number": 64,
            "time": 33.83565828750002,
            "value": 0
          },
          {
            "number": 64,
            "time": 33.916967943750016,
            "value": 1
          },
          {
            "number": 64,
            "time": 34.53672821250001,
            "value": 0
          },
          {
            "number": 64,
            "time": 36.52971823125001,
            "value": 1
          },
          {
            "number": 64,
            "time": 37.74755619375001,
            "value": 0
          },
          {
            "number": 64,
            "time": 37.852355306250004,
            "value": 1
          },
          {
            "number": 64,
            "time": 39.0611588625,
            "value": 0
          },
          {
            "number": 64,
            "time": 39.12982035,
            "value": 1
          },
          {
            "number": 64,
            "time": 39.72067051875,
            "value": 0
          },
          {
            "number": 64,
            "time": 40.34946519375,
            "value": 0
          },
          {
            "number": 64,
            "time": 40.454264306249996,
            "value": 1
          },
          {
            "number": 64,
            "time": 41.650419693749996,
            "value": 0
          },
          {
            "number": 64,
            "time": 41.75521880624999,
            "value": 1
          },
          {
            "number": 64,
            "time": 42.95137419374999,
            "value": 0
          },
          {
            "number": 64,
            "time": 43.05617330624999,
            "value": 1
          },
          {
            "number": 64,
            "time": 44.25232869374999,
            "value": 0
          },
          {
            "number": 64,
            "time": 44.357127806249984,
            "value": 1
          },
          {
            "number": 64,
            "time": 46.10799573749998,
            "value": 0
          },
          {
            "number": 64,
            "time": 49.52661506249997,
            "value": 1
          },
          {
            "number": 64,
            "time": 50.77155624374996,
            "value": 0
          },
          {
            "number": 64,
            "time": 50.840217731249965,
            "value": 1
          },
          {
            "number": 64,
            "time": 52.04902128749996,
            "value": 0
          },
          {
            "number": 64,
            "time": 52.13033094374996,
            "value": 1
          },
          {
            "number": 64,
            "time": 52.75009121249995,
            "value": 0
          },
          {
            "number": 64,
            "time": 54.74308123124995,
            "value": 1
          },
          {
            "number": 64,
            "time": 55.96091919374995,
            "value": 0
          },
          {
            "number": 64,
            "time": 56.06571830624995,
            "value": 1
          },
          {
            "number": 64,
            "time": 57.274521862499945,
            "value": 0
          },
          {
            "number": 64,
            "time": 57.34318334999995,
            "value": 1
          },
          {
            "number": 64,
            "time": 57.89247524999994,
            "value": 0
          },
          {
            "number": 64,
            "time": 58.50320111249994,
            "value": 1
          },
          {
            "number": 64,
            "time": 59.869203337499926,
            "value": 0
          },
          {
            "number": 64,
            "time": 59.98484373749992,
            "value": 1
          },
          {
            "number": 64,
            "time": 61.18280600624991,
            "value": 0
          },
          {
            "number": 64,
            "time": 61.235205562499914,
            "value": 1
          },
          {
            "number": 64,
            "time": 62.4638848124999,
            "value": 0
          },
          {
            "number": 64,
            "time": 62.574104568749895,
            "value": 1
          },
          {
            "number": 64,
            "time": 63.761225549999885,
            "value": 0
          },
          {
            "number": 64,
            "time": 63.880479712499884,
            "value": 1
          },
          {
            "number": 64,
            "time": 65.07302133749987,
            "value": 0
          },
          {
            "number": 64,
            "time": 65.18866173749987,
            "value": 1
          },
          {
            "number": 64,
            "time": 65.92948304999986,
            "value": 0
          },
          {
            "number": 64,
            "time": 66.04331656874986,
            "value": 1
          },
          {
            "number": 64,
            "time": 66.36855519374986,
            "value": 0
          },
          {
            "number": 64,
            "time": 66.48961623749986,
            "value": 1
          },
          {
            "number": 64,
            "time": 67.23224443124985,
            "value": 0
          },
          {
            "number": 64,
            "time": 67.30451968124986,
            "value": 1
          },
          {
            "number": 64,
            "time": 67.65505464374985,
            "value": 0
          },
          {
            "number": 64,
            "time": 67.70745419999984,
            "value": 1
          },
          {
            "number": 64,
            "time": 68.28023555624985,
            "value": 0
          },
          {
            "number": 64,
            "time": 70.30936319999982,
            "value": 1
          },
          {
            "number": 64,
            "time": 70.88214455624983,
            "value": 0
          },
          {
            "number": 64,
            "time": 79.4738648999998,
            "value": 1
          },
          {
            "number": 64,
            "time": 80.69350974374979,
            "value": 0
          },
          {
            "number": 64,
            "time": 80.76217123124978,
            "value": 1
          },
          {
            "number": 64,
            "time": 81.97097478749977,
            "value": 0
          },
          {
            "number": 64,
            "time": 82.05228444374977,
            "value": 1
          },
          {
            "number": 64,
            "time": 82.67204471249977,
            "value": 0
          },
          {
            "number": 64,
            "time": 84.66503473124976,
            "value": 1
          },
          {
            "number": 64,
            "time": 85.88287269374975,
            "value": 0
          },
          {
            "number": 64,
            "time": 85.98767180624975,
            "value": 1
          },
          {
            "number": 64,
            "time": 87.19647536249974,
            "value": 0
          },
          {
            "number": 64,
            "time": 87.26513684999973,
            "value": 1
          },
          {
            "number": 64,
            "time": 87.67349201249974,
            "value": 0
          },
          {
            "number": 64,
            "time": 88.48478169374972,
            "value": 0
          },
          {
            "number": 64,
            "time": 88.58958080624973,
            "value": 1
          },
          {
            "number": 64,
            "time": 89.78573619374971,
            "value": 0
          },
          {
            "number": 64,
            "time": 89.89053530624972,
            "value": 1
          },
          {
            "number": 64,
            "time": 91.0866906937497,
            "value": 0
          },
          {
            "number": 64,
            "time": 91.1914898062497,
            "value": 1
          },
          {
            "number": 64,
            "time": 92.38764519374969,
            "value": 0
          },
          {
            "number": 64,
            "time": 92.4924443062497,
            "value": 1
          },
          {
            "number": 64,
            "time": 94.24331223749968,
            "value": 0
          },
          {
            "number": 64,
            "time": 97.68722789999967,
            "value": 1
          },
          {
            "number": 64,
            "time": 98.90687274374966,
            "value": 0
          },
          {
            "number": 64,
            "time": 98.97553423124965,
            "value": 1
          },
          {
            "number": 64,
            "time": 100.18433778749964,
            "value": 0
          },
          {
            "number": 64,
            "time": 100.26564744374964,
            "value": 1
          },
          {
            "number": 64,
            "time": 100.88540771249964,
            "value": 0
          },
          {
            "number": 64,
            "time": 102.87839773124963,
            "value": 1
          },
          {
            "number": 64,
            "time": 104.09623569374962,
            "value": 0
          },
          {
            "number": 64,
            "time": 104.20103480624962,
            "value": 1
          },
          {
            "number": 64,
            "time": 105.40983836249961,
            "value": 0
          },
          {
            "number": 64,
            "time": 128.85231569999945,
            "value": 1
          },
          {
            "number": 64,
            "time": 135.29926799999942,
            "value": 0
          },
          {
            "number": 64,
            "time": 136.6779183937494,
            "value": 1
          },
          {
            "number": 64,
            "time": 137.93550774374938,
            "value": 0
          },
          {
            "number": 64,
            "time": 138.0041692312494,
            "value": 1
          },
          {
            "number": 64,
            "time": 139.21297278749938,
            "value": 0
          },
          {
            "number": 64,
            "time": 139.29428244374938,
            "value": 1
          },
          {
            "number": 64,
            "time": 139.91404271249937,
            "value": 0
          },
          {
            "number": 64,
            "time": 141.90703273124936,
            "value": 1
          },
          {
            "number": 64,
            "time": 143.12487069374936,
            "value": 0
          },
          {
            "number": 64,
            "time": 143.22966980624935,
            "value": 1
          },
          {
            "number": 64,
            "time": 144.43847336249934,
            "value": 0
          },
          {
            "number": 64,
            "time": 144.50713484999935,
            "value": 1
          },
          {
            "number": 64,
            "time": 144.91549001249933,
            "value": 0
          },
          {
            "number": 64,
            "time": 145.72677969374934,
            "value": 0
          },
          {
            "number": 64,
            "time": 145.83157880624933,
            "value": 1
          },
          {
            "number": 64,
            "time": 147.02773419374932,
            "value": 0
          },
          {
            "number": 64,
            "time": 147.13253330624931,
            "value": 1
          },
          {
            "number": 64,
            "time": 148.3286886937493,
            "value": 0
          },
          {
            "number": 64,
            "time": 148.4334878062493,
            "value": 1
          },
          {
            "number": 64,
            "time": 149.6296431937493,
            "value": 0
          },
          {
            "number": 64,
            "time": 149.7344423062493,
            "value": 1
          },
          {
            "number": 64,
            "time": 151.48531023749928,
            "value": 0
          },
          {
            "number": 64,
            "time": 154.94187406874929,
            "value": 1
          },
          {
            "number": 64,
            "time": 156.14887074374926,
            "value": 0
          },
          {
            "number": 64,
            "time": 156.21753223124927,
            "value": 1
          },
          {
            "number": 64,
            "time": 157.42633578749926,
            "value": 0
          },
          {
            "number": 64,
            "time": 157.50764544374925,
            "value": 1
          },
          {
            "number": 64,
            "time": 158.12740571249924,
            "value": 0
          },
          {
            "number": 64,
            "time": 160.10774756249924,
            "value": 1
          },
          {
            "number": 64,
            "time": 161.33823369374923,
            "value": 0
          },
          {
            "number": 64,
            "time": 161.44303280624922,
            "value": 1
          },
          {
            "number": 64,
            "time": 162.6518363624992,
            "value": 0
          },
          {
            "number": 64,
            "time": 162.7873524562492,
            "value": 1
          },
          {
            "number": 64,
            "time": 163.0529639999992,
            "value": 0
          }
        ]
      },
      "id": 2,
      "name": "Piano left",
      "instrumentNumber": 0,
      "instrument": "acoustic grand piano",
      "instrumentFamily": "piano",
      "channelNumber": 0,
      "isPercussion": false
    },
    {
      "startTime": 0,
      "duration": 0,
      "length": 0,
      "notes": [],
      "controlChanges": {},
      "id": 3,
      "name": "Beethoven Für Elise"
    },
    {
      "startTime": 0,
      "duration": 0,
      "length": 0,
      "notes": [],
      "controlChanges": {},
      "id": 4,
      "name": "Copyright © 2004 by Bernd Krüger"
    },
    {
      "startTime": 0,
      "duration": 0,
      "length": 0,
      "notes": [],
      "controlChanges": {},
      "id": 5,
      "name": "http://www.piano-midi.de"
    },
    {
      "startTime": 0,
      "duration": 0,
      "length": 0,
      "notes": [],
      "controlChanges": {},
      "id": 6,
      "name": "Edition: 2012-08-30"
    },
    {
      "startTime": 0,
      "duration": 0,
      "length": 0,
      "notes": [],
      "controlChanges": {},
      "id": 7,
      "name": "Spur 7"
    }
  ]
}