{
  "header": {
    "PPQ": 192,
    "bpm": 150,
    "timeSignature": [
      3,
      4
    ],
    "name": ""
  },
  "startTime": 0,
  "duration": 163.53333333333092,
  "tracks": [
    {
      "startTime": 0,
      "duration": 163.53333333333092,
      "length": 6370,
      "notes": [
        {
          "name": "F3",
          "midi": 53,
          "time": 0,
          "velocity": 0.8661417322834646,
          "duration": 0.19583333333333333
        },
        {
          "name": "A3",
          "midi": 57,
          "time": 0,
          "velocity": 0.8661417322834646,
          "duration": 0.19583333333333333
        },
        {
          "name": "D4",
          "midi": 62,
          "time": 0,
          "velocity": 0.8661417322834646,
          "duration": 0.19583333333333333
        },
        {
          "name": "D3",
          "midi": 50,
          "time": 0,
          "velocity": 0.8661417322834646,
          "duration": 0.3333333333333333
        },
        {
          "name": "E2",
          "midi": 40,
          "time": 0,
          "velocity": 0.3543307086614173,
          "duration": 0.19583333333333333
        },
        {
          "name": "F3",
          "midi": 53,
          "time": 0.2,
          "velocity": 0.8661417322834646,
          "duration": 0.09583333333333333
        },
        {
          "name": "A3",
          "midi": 57,
          "time": 0.2,
          "velocity": 0.8661417322834646,
          "duration": 0.09583333333333333
        },
        {
          "name": "D4",
          "midi": 62,
          "time": 0.2,
          "velocity": 0.8661417322834646,
          "duration": 0.09583333333333333
        },
        {
          "name": "E2",
          "midi": 40,
          "time": 0.2,
          "velocity": 0.3543307086614173,
          "duration": 0.09583333333333333
        },
        {
          "name": "F3",
          "midi": 53,
          "time": 0.3,
          "velocity": 0.8661417322834646,
          "duration": 0.09583333333333333
        },
        {
          "name": "A3",
          "midi": 57,
          "time": 0.3,
          "velocity": 0.8661417322834646,
          "duration": 0.09583333333333333
        },
        {
          "name": "D4",
          "midi": 62,
          "time": 0.3,
          "velocity": 0.8661417322834646,
          "duration": 0.09583333333333333
        },
        {
          "name": "E2",
          "midi": 40,
          "time": 0.3,
          "velocity": 0.3543307086614173,
          "duration": 0.09583333333333333
        },
        {
          "name": "F3",
          "midi": 53,
          "time": 0.39999999999999997,
          "velocity": 0.8661417322834646,
          "duration": 0.19583333333333336
        },
        {
          "name": "A3",
          "midi": 57,
          "time": 0.39999999999999997,
          "velocity": 0.8661417322834646,
          "duration": 0.19583333333333336
        },
        {
          "name": "D4",
          "midi": 62,
          "time": 0.39999999999999997,
          "velocity": 0.8661417322834646,
          "duration": 0.19583333333333336
        },
        {
          "name": "E2",
          "midi": 40,
          "time": 0.39999999999999997,
          "velocity": 0.3543307086614173,
          "duration": 0.19583333333333336
        },
        {
          "name": "F3",
          "midi": 53,
          "time": 0.6,
          "velocity": 0.8661417322834646,
          "duration": 0.1958333333333333
        },
        {
          "name": "A3",
          "midi": 57,
          "time": 0.6,
          "velocity": 0.8661417322834646,
          "duration": 0.1958333333333333
        },
        {
          "name": "D4",
          "midi": 62,
          "time": 0.6,
          "velocity": 0.8661417322834646,
          "duration": 0.1958333333333333
        },
        {
          "name": "E2",
          "midi": 40,
          "time": 0.6,
          "velocity": 0.3543307086614173,
          "duration": 0.1958333333333333
        },
        {
          "name": "G3",
          "midi": 55,
          "time": 0.7999999999999999,
          "velocity": 0.8661417322834646,
          "duration": 0.1958333333333333
        },
        {
          "name": "C4",
          "midi": 60,
          "time": 0.7999999999999999,
          "velocity": 0.8661417322834646,
          "duration": 0.1958333333333333
        },
        {
          "name": "E4",
          "midi": 64,
          "time": 0.7999999999999999,
          "velocity": 0.8661417322834646,
          "duration": 0.1958333333333333
        },
        {
          "name": "C3",
          "midi": 48,
          "time": 0.7999999999999999,
          "velocity": 0.8661417322834646,
          "duration": 0.33333333333333337
        },
        {
          "name": "E2",
          "midi": 40,
          "time": 0.7999999999999999,
          "velocity": 0.3543307086614173,
          "duration": 0.1958333333333333
        },
        {
          "name": "G3",
          "midi": 55,
          "time": 0.9999999999999999,
          "velocity": 0.8661417322834646,
          "duration": 0.19583333333333341
        },
        {
          "name": "C4",
          "midi": 60,
          "time": 0.9999999999999999,
          "velocity": 0.8661417322834646,
          "duration": 0.19583333333333341
        },
        {
          "name": "E4",
          "midi": 64,
          "time": 0.9999999999999999,
          "velocity": 0.8661417322834646,
          "duration": 0.19583333333333341
        },
        {
          "name": "E2",
          "midi": 40,
          "time": 0.9999999999999999,
          "velocity": 0.3543307086614173,
          "duration": 0.19583333333333341
        },
        {
          "name": "F3",
          "midi": 53,
          "time": 1.2,
          "velocity": 0.8661417322834646,
          "duration": 0.1958333333333333
        },
        {
          "name": "A3",
          "midi": 57,
          "time": 1.2,
          "velocity": 0.8661417322834646,
          "duration": 0.1958333333333333
        },
        {
          "name": "D4",
          "midi": 62,
          "time": 1.2,
          "velocity": 0.8661417322834646,
          "duration": 0.1958333333333333
        },
        {
          "name": "D3",
          "midi": 50,
          "time": 1.2,
          "velocity": 0.8661417322834646,
          "duration": 0.3333333333333335
        },
        {
          "name": "E2",
          "midi": 40,
          "time": 1.2,
          "velocity": 0.3543307086614173,
          "duration": 0.1958333333333333
        },
        {
          "name": "F3",
          "midi": 53,
          "time": 1.4,
          "velocity": 0.8661417322834646,
          "duration": 0.09583333333333344
        },
        {
          "name": "A3",
          "midi": 57,
          "time": 1.4,
          "velocity": 0.8661417322834646,
          "duration": 0.09583333333333344
        },
        {
          "name": "D4",
          "midi": 62,
          "time": 1.4,
          "velocity": 0.8661417322834646,
          "duration": 0.09583333333333344
        },
        {
          "name": "E2",
          "midi": 40,
          "time": 1.4,
          "velocity": 0.3543307086614173,
          "duration": 0.09583333333333344
        },
        {
          "name": "F3",
          "midi": 53,
          "time": 1.5,
          "velocity": 0.8661417322834646,
          "duration": 0.09583333333333344
        },
        {
          "name": "A3",
          "midi": 57,
          "time": 1.5,
          "velocity": 0.8661417322834646,
          "duration": 0.09583333333333344
        },
        {
          "name": "D4",
          "midi": 62,
          "time": 1.5,
          "velocity": 0.8661417322834646,
          "duration": 0.09583333333333344
        },
        {
          "name": "E2",
          "midi": 40,
          "time": 1.5,
          "velocity": 0.3543307086614173,
          "duration": 0.09583333333333344
        },
        {
          "name": "F3",
          "midi": 53,
          "time": 1.6,
          "velocity": 0.8661417322834646,
          "duration": 0.1958333333333333
        },
        {
          "name": "A3",
          "midi": 57,
          "time": 1.6,
          "velocity": 0.8661417322834646,
          "duration": 0.1958333333333333
        },
        {
          "name": "D4",
          "midi": 62,
          "time": 1.6,
          "velocity": 0.8661417322834646,
          "duration": 0.1958333333333333
        },
        {
          "name": "E2",
          "midi": 40,
          "time": 1.6,
          "velocity": 0.3543307086614173,
          "duration": 0.1958333333333333
        },
        {
          "name": "F3",
          "midi": 53,
          "time": 1.8,
          "velocity": 0.8661417322834646,
          "duration": 0.1958333333333333
        },
        {
          "name": "A3",
          "midi": 57,
          "time": 1.8,
          "velocity": 0.8661417322834646,
          "duration": 0.1958333333333333
        },
        {
          "name": "D4",
          "midi": 62,
          "time": 1.8,
          "velocity": 0.8661417322834646,
          "duration": 0.1958333333333333
        },
        {
          "name": "E2",
          "midi": 40,
          "time": 1.8,
          "velocity": 0.3543307086614173,
          "duration": 0.1958333333333333
        },
        {
          "name": "G3",
          "midi": 55,
          "time": 2,
          "velocity": 0.8661417322834646,
          "duration": 0.1958333333333333
        },
        {
          "name": "C4",
          "midi": 60,
          "time": 2,
          "velocity": 0.8661417322834646,
          "duration": 0.1958333333333333
        },
        {
          "name": "E4",
          "midi": 64,
          "time": 2,
          "velocity": 0.8661417322834646,
          "duration": 0.1958333333333333
        },
        {
          "name": "C3",
          "midi": 48,
          "time": 2,
          "velocity": 0.8661417322834646,
          "duration": 0.3333333333333335
        },
        {
          "name": "E2",
          "midi": 40,
          "time": 2,
          "velocity": 0.3543307086614173,
          "duration": 0.1958333333333333
        },
        {
          "name": "G3",
          "midi": 55,
          "time": 2.2,
          "velocity": 0.8661417322834646,
          "duration": 0.1958333333333333
        },
        {
          "name": "C4",
          "midi": 60,
          "time": 2.2,
          "velocity": 0.8661417322834646,
          "duration": 0.1958333333333333
        },
        {
          "name": "E4",
          "midi": 64,
          "time": 2.2,
          "velocity": 0.8661417322834646,
          "duration": 0.1958333333333333
        },
        {
          "name": "E2",
          "midi": 40,
          "time": 2.2,
          "velocity": 0.3543307086614173,
          "duration": 0.1958333333333333
        },
        {
          "name": "A3",
          "midi": 57,
          "time": 2.4000000000000004,
          "velocity": 0.8661417322834646,
          "duration": 0.1958333333333333
        },
        {
          "name": "D4",
          "midi": 62,
          "time": 2.4000000000000004,
          "velocity": 0.8661417322834646,
          "duration": 0.1958333333333333
        },
        {
          "name": "F4",
          "midi": 65,
          "time": 2.4000000000000004,
          "velocity": 0.8661417322834646,
          "duration": 0.1958333333333333
        },
        {
          "name": "D3",
          "midi": 50,
          "time": 2.4000000000000004,
          "velocity": 0.8661417322834646,
          "duration": 0.3333333333333335
        },
        {
          "name": "E2",
          "midi": 40,
          "time": 2.4000000000000004,
          "velocity": 0.3543307086614173,
          "duration": 0.1958333333333333
        },
        {
          "name": "A3",
          "midi": 57,
          "time": 2.6000000000000005,
          "velocity": 0.8661417322834646,
          "duration": 0.09583333333333321
        },
        {
          "name": "D4",
          "midi": 62,
          "time": 2.6000000000000005,
          "velocity": 0.8661417322834646,
          "duration": 0.09583333333333321
        },
        {
          "name": "F4",
          "midi": 65,
          "time": 2.6000000000000005,
          "velocity": 0.8661417322834646,
          "duration": 0.09583333333333321
        },
        {
          "name": "E2",
          "midi": 40,
          "time": 2.6000000000000005,
          "velocity": 0.3543307086614173,
          "duration": 0.09583333333333321
        },
        {
          "name": "A3",
          "midi": 57,
          "time": 2.7000000000000006,
          "velocity": 0.8661417322834646,
          "duration": 0.09583333333333321
        },
        {
          "name": "D4",
          "midi": 62,
          "time": 2.7000000000000006,
          "velocity": 0.8661417322834646,
          "duration": 0.09583333333333321
        },
        {
          "name": "F4",
          "midi": 65,
          "time": 2.7000000000000006,
          "velocity": 0.8661417322834646,
          "duration": 0.09583333333333321
        },
        {
          "name": "E2",
          "midi": 40,
          "time": 2.7000000000000006,
          "velocity": 0.3543307086614173,
          "duration": 0.09583333333333321
        },
        {
          "name": "A3",
          "midi": 57,
          "time": 2.8000000000000007,
          "velocity": 0.8661417322834646,
          "duration": 0.1958333333333333
        },
        {
          "name": "D4",
          "midi": 62,
          "time": 2.8000000000000007,
          "velocity": 0.8661417322834646,
          "duration": 0.1958333333333333
        },
        {
          "name": "F4",
          "midi": 65,
          "time": 2.8000000000000007,
          "velocity": 0.8661417322834646,
          "duration": 0.1958333333333333
        },
        {
          "name": "E2",
          "midi": 40,
          "time": 2.8000000000000007,
          "velocity": 0.3543307086614173,
          "duration": 0.1958333333333333
        },
        {
          "name": "A3",
          "midi": 57,
          "time": 3.000000000000001,
          "velocity": 0.8661417322834646,
          "duration": 0.1958333333333333
        },
        {
          "name": "D4",
          "midi": 62,
          "time": 3.000000000000001,
          "velocity": 0.8661417322834646,
          "duration": 0.1958333333333333
        },
        {
          "name": "F4",
          "midi": 65,
          "time": 3.000000000000001,
          "velocity": 0.8661417322834646,
          "duration": 0.1958333333333333
        },
        {
          "name": "E2",
          "midi": 40,
          "time": 3.000000000000001,
          "velocity": 0.3543307086614173,
          "duration": 0.1958333333333333
        },
        {
          "name": "G3",
          "midi": 55,
          "time": 3.200000000000001,
          "velocity": 0.8661417322834646,
          "duration": 0.1958333333333333
        },
        {
          "name": "C4",
          "midi": 60,
          "time": 3.200000000000001,
          "velocity": 0.8661417322834646,
          "duration": 0.1958333333333333
        },
        {
          "name": "E4",
          "midi": 64,
          "time": 3.200000000000001,
          "velocity": 0.8661417322834646,
          "duration": 0.1958333333333333
        },
        {
          "name": "C3",
          "midi": 48,
          "time": 3.200000000000001,
          "velocity": 0.8661417322834646,
          "duration": 0.3333333333333335
        },
        {
          "name": "E2",
          "midi": 40,
          "time": 3.200000000000001,
          "velocity": 0.3543307086614173,
          "duration": 0.1958333333333333
        },
        {
          "name": "G3",
          "midi": 55,
          "time": 3.4000000000000012,
          "velocity": 0.8661417322834646,
          "duration": 0.1958333333333333
        },
        {
          "name": "C4",
          "midi": 60,
          "time": 3.4000000000000012,
          "velocity": 0.8661417322834646,
          "duration": 0.1958333333333333
        },
        {
          "name": "E4",
          "midi": 64,
          "time": 3.4000000000000012,
          "velocity": 0.8661417322834646,
          "duration": 0.1958333333333333
        },
        {
          "name": "E2",
          "midi": 40,
          "time": 3.4000000000000012,
          "velocity": 0.3543307086614173,
          "duration": 0.1958333333333333
        },
        {
          "name": "A3",
          "midi": 57,
          "time": 3.6000000000000014,
          "velocity": 0.8661417322834646,
          "duration": 0.1958333333333333
        },
        {
          "name": "D4",
          "midi": 62,
          "time": 3.6000000000000014,
          "velocity": 0.8661417322834646,
          "duration": 0.1958333333333333
        },
        {
          "name": "F4",
          "midi": 65,
          "time": 3.6000000000000014,
          "velocity": 0.8661417322834646,
          "duration": 0.1958333333333333
        },
        {
          "name": "D3",
          "midi": 50,
          "time": 3.6000000000000014,
          "velocity": 0.8661417322834646,
          "duration": 0.3333333333333335
        },
        {
          "name": "E2",
          "midi": 40,
          "time": 3.6000000000000014,
          "velocity": 0.3543307086614173,
          "duration": 0.1958333333333333
        },
        {
          "name": "A3",
          "midi": 57,
          "time": 3.8000000000000016,
          "velocity": 0.8661417322834646,
          "duration": 0.09583333333333321
        },
        {
          "name": "D4",
          "midi": 62,
          "time": 3.8000000000000016,
          "velocity": 0.8661417322834646,
          "duration": 0.09583333333333321
        },
        {
          "name": "F4",
          "midi": 65,
          "time": 3.8000000000000016,
          "velocity": 0.8661417322834646,
          "duration": 0.09583333333333321
        },
        {
          "name": "E2",
          "midi": 40,
          "time": 3.8000000000000016,
          "velocity": 0.3543307086614173,
          "duration": 0.09583333333333321
        },
        {
          "name": "A3",
          "midi": 57,
          "time": 3.9000000000000017,
          "velocity": 0.8661417322834646,
          "duration": 0.09583333333333321
        },
        {
          "name": "D4",
          "midi": 62,
          "time": 3.9000000000000017,
          "velocity": 0.8661417322834646,
          "duration": 0.09583333333333321
        },
        {
          "name": "F4",
          "midi": 65,
          "time": 3.9000000000000017,
          "velocity": 0.8661417322834646,
          "duration": 0.09583333333333321
        },
        {
          "name": "E2",
          "midi": 40,
          "time": 3.9000000000000017,
          "velocity": 0.3543307086614173,
          "duration": 0.09583333333333321
        },
        {
          "name": "A3",
          "midi": 57,
          "time": 4.000000000000002,
          "velocity": 0.8661417322834646,
          "duration": 0.19583333333333375
        },
        {
          "name": "D4",
          "midi": 62,
          "time": 4.000000000000002,
          "velocity": 0.8661417322834646,
          "duration": 0.19583333333333375
        },
        {
          "name": "F4",
          "midi": 65,
          "time": 4.000000000000002,
          "velocity": 0.8661417322834646,
          "duration": 0.19583333333333375
        },
        {
          "name": "E2",
          "midi": 40,
          "time": 4.000000000000002,
          "velocity": 0.3543307086614173,
          "duration": 0.19583333333333375
        },
        {
          "name": "A3",
          "midi": 57,
          "time": 4.200000000000002,
          "velocity": 0.8661417322834646,
          "duration": 0.19583333333333375
        },
        {
          "name": "D4",
          "midi": 62,
          "time": 4.200000000000002,
          "velocity": 0.8661417322834646,
          "duration": 0.19583333333333375
        },
        {
          "name": "F4",
          "midi": 65,
          "time": 4.200000000000002,
          "velocity": 0.8661417322834646,
          "duration": 0.19583333333333375
        },
        {
          "name": "E2",
          "midi": 40,
          "time": 4.200000000000002,
          "velocity": 0.3543307086614173,
          "duration": 0.19583333333333375
        },
        {
          "name": "G3",
          "midi": 55,
          "time": 4.400000000000002,
          "velocity": 0.8661417322834646,
          "duration": 0.19583333333333375
        },
        {
          "name": "C4",
          "midi": 60,
          "time": 4.400000000000002,
          "velocity": 0.8661417322834646,
          "duration": 0.19583333333333375
        },
        {
          "name": "E4",
          "midi": 64,
          "time": 4.400000000000002,
          "velocity": 0.8661417322834646,
          "duration": 0.19583333333333375
        },
        {
          "name": "C3",
          "midi": 48,
          "time": 4.400000000000002,
          "velocity": 0.8661417322834646,
          "duration": 0.3333333333333339
        },
        {
          "name": "E2",
          "midi": 40,
          "time": 4.400000000000002,
          "velocity": 0.3543307086614173,
          "duration": 0.19583333333333375
        },
        {
          "name": "G3",
          "midi": 55,
          "time": 4.600000000000002,
          "velocity": 0.8661417322834646,
          "duration": 0.19583333333333375
        },
        {
          "name": "C4",
          "midi": 60,
          "time": 4.600000000000002,
          "velocity": 0.8661417322834646,
          "duration": 0.19583333333333375
        },
        {
          "name": "E4",
          "midi": 64,
          "time": 4.600000000000002,
          "velocity": 0.8661417322834646,
          "duration": 0.19583333333333375
        },
        {
          "name": "E2",
          "midi": 40,
          "time": 4.600000000000002,
          "velocity": 0.3543307086614173,
          "duration": 0.19583333333333375
        },
        {
          "name": "D4",
          "midi": 62,
          "time": 4.8000000000000025,
          "velocity": 0.8661417322834646,
          "duration": 0.19583333333333375
        },
        {
          "name": "F4",
          "midi": 65,
          "time": 4.8000000000000025,
          "velocity": 0.8661417322834646,
          "duration": 0.19583333333333375
        },
        {
          "name": "A4",
          "midi": 69,
          "time": 4.8000000000000025,
          "velocity": 0.8661417322834646,
          "duration": 0.19583333333333375
        },
        {
          "name": "D3",
          "midi": 50,
          "time": 4.8000000000000025,
          "velocity": 0.8661417322834646,
          "duration": 0.33333333333333304
        },
        {
          "name": "E2",
          "midi": 40,
          "time": 4.8000000000000025,
          "velocity": 0.3543307086614173,
          "duration": 0.19583333333333375
        },
        {
          "name": "D4",
          "midi": 62,
          "time": 5.000000000000003,
          "velocity": 0.8661417322834646,
          "duration": 0.09583333333333321
        },
        {
          "name": "F4",
          "midi": 65,
          "time": 5.000000000000003,
          "velocity": 0.8661417322834646,
          "duration": 0.09583333333333321
        },
        {
          "name": "A4",
          "midi": 69,
          "time": 5.000000000000003,
          "velocity": 0.8661417322834646,
          "duration": 0.09583333333333321
        },
        {
          "name": "A5",
          "midi": 81,
          "time": 5.000000000000003,
          "velocity": 0.8661417322834646,
          "duration": 0.0625
        },
        {
          "name": "E2",
          "midi": 40,
          "time": 5.000000000000003,
          "velocity": 0.3543307086614173,
          "duration": 0.09583333333333321
        },
        {
          "name": "F5",
          "midi": 77,
          "time": 5.066666666666669,
          "velocity": 0.8661417322834646,
          "duration": 0.0625
        },
        {
          "name": "D4",
          "midi": 62,
          "time": 5.100000000000002,
          "velocity": 0.8661417322834646,
          "duration": 0.09583333333333321
        },
        {
          "name": "F4",
          "midi": 65,
          "time": 5.100000000000002,
          "velocity": 0.8661417322834646,
          "duration": 0.09583333333333321
        },
        {
          "name": "A4",
          "midi": 69,
          "time": 5.100000000000002,
          "velocity": 0.8661417322834646,
          "duration": 0.09583333333333321
        },
        {
          "name": "E2",
          "midi": 40,
          "time": 5.100000000000002,
          "velocity": 0.3543307086614173,
          "duration": 0.09583333333333321
        },
        {
          "name": "D5",
          "midi": 74,
          "time": 5.1333333333333355,
          "velocity": 0.8661417322834646,
          "duration": 0.0625
        },
        {
          "name": "D4",
          "midi": 62,
          "time": 5.200000000000002,
          "velocity": 0.8661417322834646,
          "duration": 0.19583333333333286
        },
        {
          "name": "F4",
          "midi": 65,
          "time": 5.200000000000002,
          "velocity": 0.8661417322834646,
          "duration": 0.19583333333333286
        },
        {
          "name": "A4",
          "midi": 69,
          "time": 5.200000000000002,
          "velocity": 0.8661417322834646,
          "duration": 0.06666666666666643
        },
        {
          "name": "A4",
          "midi": 69,
          "time": 5.200000000000002,
          "velocity": 0.8661417322834646,
          "duration": 0.19583333333333286
        },
        {
          "name": "E2",
          "midi": 40,
          "time": 5.200000000000002,
          "velocity": 0.3543307086614173,
          "duration": 0.19583333333333286
        },
        {
          "name": "D4",
          "midi": 62,
          "time": 5.400000000000001,
          "velocity": 0.8661417322834646,
          "duration": 0.19583333333333286
        },
        {
          "name": "F4",
          "midi": 65,
          "time": 5.400000000000001,
          "velocity": 0.8661417322834646,
          "duration": 0.19583333333333286
        },
        {
          "name": "A4",
          "midi": 69,
          "time": 5.400000000000001,
          "velocity": 0.8661417322834646,
          "duration": 0.19583333333333286
        },
        {
          "name": "A5",
          "midi": 81,
          "time": 5.400000000000001,
          "velocity": 0.8661417322834646,
          "duration": 0.06666666666666643
        },
        {
          "name": "E2",
          "midi": 40,
          "time": 5.400000000000001,
          "velocity": 0.3543307086614173,
          "duration": 0.19583333333333286
        },
        {
          "name": "C4",
          "midi": 60,
          "time": 5.6000000000000005,
          "velocity": 0.8661417322834646,
          "duration": 0.19583333333333286
        },
        {
          "name": "E4",
          "midi": 64,
          "time": 5.6000000000000005,
          "velocity": 0.8661417322834646,
          "duration": 0.19583333333333286
        },
        {
          "name": "G4",
          "midi": 67,
          "time": 5.6000000000000005,
          "velocity": 0.8661417322834646,
          "duration": 0.19583333333333286
        },
        {
          "name": "C3",
          "midi": 48,
          "time": 5.6000000000000005,
          "velocity": 0.8661417322834646,
          "duration": 0.33333333333333304
        },
        {
          "name": "G5",
          "midi": 79,
          "time": 5.6000000000000005,
          "velocity": 0.8661417322834646,
          "duration": 0.09583333333333321
        },
        {
          "name": "E2",
          "midi": 40,
          "time": 5.6000000000000005,
          "velocity": 0.3543307086614173,
          "duration": 0.19583333333333286
        },
        {
          "name": "G4",
          "midi": 67,
          "time": 5.7,
          "velocity": 0.8661417322834646,
          "duration": 0.09583333333333321
        },
        {
          "name": "C4",
          "midi": 60,
          "time": 5.8,
          "velocity": 0.8661417322834646,
          "duration": 0.19583333333333375
        },
        {
          "name": "E4",
          "midi": 64,
          "time": 5.8,
          "velocity": 0.8661417322834646,
          "duration": 0.19583333333333375
        },
        {
          "name": "G4",
          "midi": 67,
          "time": 5.8,
          "velocity": 0.8661417322834646,
          "duration": 0.19583333333333375
        },
        {
          "name": "G5",
          "midi": 79,
          "time": 5.8,
          "velocity": 0.8661417322834646,
          "duration": 0.19583333333333375
        },
        {
          "name": "E2",
          "midi": 40,
          "time": 5.8,
          "velocity": 0.3543307086614173,
          "duration": 0.19583333333333375
        },
        {
          "name": "D4",
          "midi": 62,
          "time": 6,
          "velocity": 0.8661417322834646,
          "duration": 0.19583333333333375
        },
        {
          "name": "F4",
          "midi": 65,
          "time": 6,
          "velocity": 0.8661417322834646,
          "duration": 0.19583333333333375
        },
        {
          "name": "A4",
          "midi": 69,
          "time": 6,
          "velocity": 0.8661417322834646,
          "duration": 0.19583333333333375
        },
        {
          "name": "D3",
          "midi": 50,
          "time": 6,
          "velocity": 0.8661417322834646,
          "duration": 0.33333333333333304
        },
        {
          "name": "A5",
          "midi": 81,
          "time": 6,
          "velocity": 0.8661417322834646,
          "duration": 0.19583333333333375
        },
        {
          "name": "E2",
          "midi": 40,
          "time": 6,
          "velocity": 0.3543307086614173,
          "duration": 0.19583333333333375
        },
        {
          "name": "D4",
          "midi": 62,
          "time": 6.2,
          "velocity": 0.8661417322834646,
          "duration": 0.09583333333333321
        },
        {
          "name": "F4",
          "midi": 65,
          "time": 6.2,
          "velocity": 0.8661417322834646,
          "duration": 0.09583333333333321
        },
        {
          "name": "A4",
          "midi": 69,
          "time": 6.2,
          "velocity": 0.8661417322834646,
          "duration": 0.0625
        },
        {
          "name": "A4",
          "midi": 69,
          "time": 6.2,
          "velocity": 0.8661417322834646,
          "duration": 0.09583333333333321
        },
        {
          "name": "E2",
          "midi": 40,
          "time": 6.2,
          "velocity": 0.3543307086614173,
          "duration": 0.09583333333333321
        },
        {
          "name": "D5",
          "midi": 74,
          "time": 6.266666666666667,
          "velocity": 0.8661417322834646,
          "duration": 0.0625
        },
        {
          "name": "D4",
          "midi": 62,
          "time": 6.3,
          "velocity": 0.8661417322834646,
          "duration": 0.09583333333333321
        },
        {
          "name": "F4",
          "midi": 65,
          "time": 6.3,
          "velocity": 0.8661417322834646,
          "duration": 0.09583333333333321
        },
        {
          "name": "A4",
          "midi": 69,
          "time": 6.3,
          "velocity": 0.8661417322834646,
          "duration": 0.09583333333333321
        },
        {
          "name": "E2",
          "midi": 40,
          "time": 6.3,
          "velocity": 0.3543307086614173,
          "duration": 0.09583333333333321
        },
        {
          "name": "F5",
          "midi": 77,
          "time": 6.333333333333333,
          "velocity": 0.8661417322834646,
          "duration": 0.0625
        },
        {
          "name": "D4",
          "midi": 62,
          "time": 6.3999999999999995,
          "velocity": 0.8661417322834646,
          "duration": 0.33333333333333304
        },
        {
          "name": "F4",
          "midi": 65,
          "time": 6.3999999999999995,
          "velocity": 0.8661417322834646,
          "duration": 0.33333333333333304
        },
        {
          "name": "A4",
          "midi": 69,
          "time": 6.3999999999999995,
          "velocity": 0.8661417322834646,
          "duration": 0.33333333333333304
        },
        {
          "name": "D3",
          "midi": 50,
          "time": 6.3999999999999995,
          "velocity": 1,
          "duration": 0.33333333333333304
        },
        {
          "name": "A5",
          "midi": 81,
          "time": 6.3999999999999995,
          "velocity": 1,
          "duration": 0.33333333333333304
        },
        {
          "name": "E2",
          "midi": 40,
          "time": 6.3999999999999995,
          "velocity": 0.3543307086614173,
          "duration": 0.33333333333333304
        },
        {
          "name": "D4",
          "midi": 62,
          "time": 6.799999999999999,
          "velocity": 0.8661417322834646,
          "duration": 0.19583333333333375
        },
        {
          "name": "F4",
          "midi": 65,
          "time": 6.999999999999999,
          "velocity": 0.8661417322834646,
          "duration": 0.19583333333333375
        },
        {
          "name": "A4",
          "midi": 69,
          "time": 7.199999999999999,
          "velocity": 0.8661417322834646,
          "duration": 0.5333333333333332
        },
        {
          "name": "F3",
          "midi": 53,
          "time": 7.199999999999999,
          "velocity": 0.8661417322834646,
          "duration": 0.19583333333333375
        },
        {
          "name": "A3",
          "midi": 57,
          "time": 7.199999999999999,
          "velocity": 0.8661417322834646,
          "duration": 0.19583333333333375
        },
        {
          "name": "D3",
          "midi": 50,
          "time": 7.199999999999999,
          "velocity": 0.8661417322834646,
          "duration": 0.33333333333333304
        },
        {
          "name": "C#2",
          "midi": 37,
          "time": 7.199999999999999,
          "velocity": 0.3543307086614173,
          "duration": 0.19583333333333375
        },
        {
          "name": "E2",
          "midi": 40,
          "time": 7.199999999999999,
          "velocity": 0.3543307086614173,
          "duration": 0.19583333333333375
        },
        {
          "name": "F3",
          "midi": 53,
          "time": 7.3999999999999995,
          "velocity": 0.8661417322834646,
          "duration": 0.09583333333333321
        },
        {
          "name": "A3",
          "midi": 57,
          "time": 7.3999999999999995,
          "velocity": 0.8661417322834646,
          "duration": 0.09583333333333321
        },
        {
          "name": "D4",
          "midi": 62,
          "time": 7.3999999999999995,
          "velocity": 0.8661417322834646,
          "duration": 0.7958333333333334
        },
        {
          "name": "C#2",
          "midi": 37,
          "time": 7.3999999999999995,
          "velocity": 0.3543307086614173,
          "duration": 0.09583333333333321
        },
        {
          "name": "E2",
          "midi": 40,
          "time": 7.3999999999999995,
          "velocity": 0.3543307086614173,
          "duration": 0.09583333333333321
        },
        {
          "name": "F3",
          "midi": 53,
          "time": 7.499999999999999,
          "velocity": 0.8661417322834646,
          "duration": 0.09583333333333321
        },
        {
          "name": "A3",
          "midi": 57,
          "time": 7.499999999999999,
          "velocity": 0.8661417322834646,
          "duration": 0.09583333333333321
        },
        {
          "name": "C#2",
          "midi": 37,
          "time": 7.499999999999999,
          "velocity": 0.3543307086614173,
          "duration": 0.09583333333333321
        },
        {
          "name": "E2",
          "midi": 40,
          "time": 7.499999999999999,
          "velocity": 0.3543307086614173,
          "duration": 0.09583333333333321
        },
        {
          "name": "F3",
          "midi": 53,
          "time": 7.599999999999999,
          "velocity": 0.8661417322834646,
          "duration": 0.19583333333333375
        },
        {
          "name": "A3",
          "midi": 57,
          "time": 7.599999999999999,
          "velocity": 0.8661417322834646,
          "duration": 0.19583333333333375
        },
        {
          "name": "C#2",
          "midi": 37,
          "time": 7.599999999999999,
          "velocity": 0.3543307086614173,
          "duration": 0.19583333333333375
        },
        {
          "name": "E2",
          "midi": 40,
          "time": 7.599999999999999,
          "velocity": 0.3543307086614173,
          "duration": 0.19583333333333375
        },
        {
          "name": "D4",
          "midi": 62,
          "time": 7.799999999999999,
          "velocity": 0.8661417322834646,
          "duration": 1.6999999999999957
        },
        {
          "name": "F3",
          "midi": 53,
          "time": 7.799999999999999,
          "velocity": 0.8661417322834646,
          "duration": 0.19583333333333375
        },
        {
          "name": "A3",
          "midi": 57,
          "time": 7.799999999999999,
          "velocity": 0.8661417322834646,
          "duration": 0.19583333333333375
        },
        {
          "name": "C#2",
          "midi": 37,
          "time": 7.799999999999999,
          "velocity": 0.3543307086614173,
          "duration": 0.19583333333333375
        },
        {
          "name": "E2",
          "midi": 40,
          "time": 7.799999999999999,
          "velocity": 0.3543307086614173,
          "duration": 0.19583333333333375
        },
        {
          "name": "F3",
          "midi": 53,
          "time": 7.999999999999999,
          "velocity": 0.8661417322834646,
          "duration": 0.19583333333333375
        },
        {
          "name": "A3",
          "midi": 57,
          "time": 7.999999999999999,
          "velocity": 0.8661417322834646,
          "duration": 0.19583333333333375
        },
        {
          "name": "A2",
          "midi": 45,
          "time": 7.999999999999999,
          "velocity": 0.8661417322834646,
          "duration": 0.33333333333333304
        },
        {
          "name": "C#2",
          "midi": 37,
          "time": 7.999999999999999,
          "velocity": 0.3543307086614173,
          "duration": 0.19583333333333375
        },
        {
          "name": "E2",
          "midi": 40,
          "time": 7.999999999999999,
          "velocity": 0.3543307086614173,
          "duration": 0.19583333333333375
        },
        {
          "name": "F4",
          "midi": 65,
          "time": 8.2,
          "velocity": 0.8661417322834646,
          "duration": 0.19583333333333286
        },
        {
          "name": "F3",
          "midi": 53,
          "time": 8.2,
          "velocity": 0.8661417322834646,
          "duration": 0.19583333333333286
        },
        {
          "name": "A3",
          "midi": 57,
          "time": 8.2,
          "velocity": 0.8661417322834646,
          "duration": 0.19583333333333286
        },
        {
          "name": "C#2",
          "midi": 37,
          "time": 8.2,
          "velocity": 0.3543307086614173,
          "duration": 0.19583333333333286
        },
        {
          "name": "E2",
          "midi": 40,
          "time": 8.2,
          "velocity": 0.3543307086614173,
          "duration": 0.19583333333333286
        },
        {
          "name": "A4",
          "midi": 69,
          "time": 8.399999999999999,
          "velocity": 0.8661417322834646,
          "duration": 0.33333333333333215
        },
        {
          "name": "F3",
          "midi": 53,
          "time": 8.399999999999999,
          "velocity": 0.8661417322834646,
          "duration": 0.19583333333333286
        },
        {
          "name": "A3",
          "midi": 57,
          "time": 8.399999999999999,
          "velocity": 0.8661417322834646,
          "duration": 0.19583333333333286
        },
        {
          "name": "D3",
          "midi": 50,
          "time": 8.399999999999999,
          "velocity": 0.8661417322834646,
          "duration": 0.33333333333333215
        },
        {
          "name": "C#2",
          "midi": 37,
          "time": 8.399999999999999,
          "velocity": 0.3543307086614173,
          "duration": 0.19583333333333286
        },
        {
          "name": "E2",
          "midi": 40,
          "time": 8.399999999999999,
          "velocity": 0.3543307086614173,
          "duration": 0.19583333333333286
        },
        {
          "name": "F3",
          "midi": 53,
          "time": 8.599999999999998,
          "velocity": 0.8661417322834646,
          "duration": 0.09583333333333321
        },
        {
          "name": "A3",
          "midi": 57,
          "time": 8.599999999999998,
          "velocity": 0.8661417322834646,
          "duration": 0.09583333333333321
        },
        {
          "name": "C#2",
          "midi": 37,
          "time": 8.599999999999998,
          "velocity": 0.3543307086614173,
          "duration": 0.09583333333333321
        },
        {
          "name": "E2",
          "midi": 40,
          "time": 8.599999999999998,
          "velocity": 0.3543307086614173,
          "duration": 0.09583333333333321
        },
        {
          "name": "F3",
          "midi": 53,
          "time": 8.699999999999998,
          "velocity": 0.8661417322834646,
          "duration": 0.09583333333333321
        },
        {
          "name": "A3",
          "midi": 57,
          "time": 8.699999999999998,
          "velocity": 0.8661417322834646,
          "duration": 0.09583333333333321
        },
        {
          "name": "C#2",
          "midi": 37,
          "time": 8.699999999999998,
          "velocity": 0.3543307086614173,
          "duration": 0.09583333333333321
        },
        {
          "name": "E2",
          "midi": 40,
          "time": 8.699999999999998,
          "velocity": 0.3543307086614173,
          "duration": 0.09583333333333321
        },
        {
          "name": "A#4",
          "midi": 70,
          "time": 8.799999999999997,
          "velocity": 0.8661417322834646,
          "duration": 0.33333333333333215
        },
        {
          "name": "F3",
          "midi": 53,
          "time": 8.799999999999997,
          "velocity": 0.8661417322834646,
          "duration": 0.19583333333333286
        },
        {
          "name": "A3",
          "midi": 57,
          "time": 8.799999999999997,
          "velocity": 0.8661417322834646,
          "duration": 0.19583333333333286
        },
        {
          "name": "C#2",
          "midi": 37,
          "time": 8.799999999999997,
          "velocity": 0.3543307086614173,
          "duration": 0.19583333333333286
        },
        {
          "name": "E2",
          "midi": 40,
          "time": 8.799999999999997,
          "velocity": 0.3543307086614173,
          "duration": 0.19583333333333286
        },
        {
          "name": "F3",
          "midi": 53,
          "time": 8.999999999999996,
          "velocity": 0.8661417322834646,
          "duration": 0.19583333333333286
        },
        {
          "name": "A3",
          "midi": 57,
          "time": 8.999999999999996,
          "velocity": 0.8661417322834646,
          "duration": 0.19583333333333286
        },
        {
          "name": "C#2",
          "midi": 37,
          "time": 8.999999999999996,
          "velocity": 0.3543307086614173,
          "duration": 0.19583333333333286
        },
        {
          "name": "E2",
          "midi": 40,
          "time": 8.999999999999996,
          "velocity": 0.3543307086614173,
          "duration": 0.19583333333333286
        },
        {
          "name": "A4",
          "midi": 69,
          "time": 9.199999999999996,
          "velocity": 0.8661417322834646,
          "duration": 0.33333333333333215
        },
        {
          "name": "F3",
          "midi": 53,
          "time": 9.199999999999996,
          "velocity": 0.8661417322834646,
          "duration": 0.19583333333333286
        },
        {
          "name": "A3",
          "midi": 57,
          "time": 9.199999999999996,
          "velocity": 0.8661417322834646,
          "duration": 0.19583333333333286
        },
        {
          "name": "A2",
          "midi": 45,
          "time": 9.199999999999996,
          "velocity": 0.8661417322834646,
          "duration": 0.33333333333333215
        },
        {
          "name": "C#2",
          "midi": 37,
          "time": 9.199999999999996,
          "velocity": 0.3543307086614173,
          "duration": 0.19583333333333286
        },
        {
          "name": "E2",
          "midi": 40,
          "time": 9.199999999999996,
          "velocity": 0.3543307086614173,
          "duration": 0.19583333333333286
        },
        {
          "name": "F3",
          "midi": 53,
          "time": 9.399999999999995,
          "velocity": 0.8661417322834646,
          "duration": 0.19583333333333286
        },
        {
          "name": "A3",
          "midi": 57,
          "time": 9.399999999999995,
          "velocity": 0.8661417322834646,
          "duration": 0.19583333333333286
        },
        {
          "name": "C#2",
          "midi": 37,
          "time": 9.399999999999995,
          "velocity": 0.3543307086614173,
          "duration": 0.19583333333333286
        },
        {
          "name": "E2",
          "midi": 40,
          "time": 9.399999999999995,
          "velocity": 0.3543307086614173,
          "duration": 0.19583333333333286
        },
        {
          "name": "C5",
          "midi": 72,
          "time": 9.599999999999994,
          "velocity": 0.8661417322834646,
          "duration": 0.5333333333333314
        },
        {
          "name": "G3",
          "midi": 55,
          "time": 9.599999999999994,
          "velocity": 0.8661417322834646,
          "duration": 0.19583333333333286
        },
        {
          "name": "A#3",
          "midi": 58,
          "time": 9.599999999999994,
          "velocity": 0.8661417322834646,
          "duration": 0.19583333333333286
        },
        {
          "name": "G2",
          "midi": 43,
          "time": 9.599999999999994,
          "velocity": 0.8661417322834646,
          "duration": 0.33333333333333215
        },
        {
          "name": "E4",
          "midi": 64,
          "time": 9.599999999999994,
          "velocity": 0.8661417322834646,
          "duration": 1.099999999999996
        },
        {
          "name": "C#2",
          "midi": 37,
          "time": 9.599999999999994,
          "velocity": 0.3543307086614173,
          "duration": 0.19583333333333286
        },
        {
          "name": "E2",
          "midi": 40,
          "time": 9.599999999999994,
          "velocity": 0.3543307086614173,
          "duration": 0.19583333333333286
        },
        {
          "name": "G3",
          "midi": 55,
          "time": 9.799999999999994,
          "velocity": 0.8661417322834646,
          "duration": 0.09583333333333321
        },
        {
          "name": "A#3",
          "midi": 58,
          "time": 9.799999999999994,
          "velocity": 0.8661417322834646,
          "duration": 0.09583333333333321
        },
        {
          "name": "C#2",
          "midi": 37,
          "time": 9.799999999999994,
          "velocity": 0.3543307086614173,
          "duration": 0.09583333333333321
        },
        {
          "name": "E2",
          "midi": 40,
          "time": 9.799999999999994,
          "velocity": 0.3543307086614173,
          "duration": 0.09583333333333321
        },
        {
          "name": "G3",
          "midi": 55,
          "time": 9.899999999999993,
          "velocity": 0.8661417322834646,
          "duration": 0.09583333333333321
        },
        {
          "name": "A#3",
          "midi": 58,
          "time": 9.899999999999993,
          "velocity": 0.8661417322834646,
          "duration": 0.09583333333333321
        },
        {
          "name": "C#2",
          "midi": 37,
          "time": 9.899999999999993,
          "velocity": 0.3543307086614173,
          "duration": 0.09583333333333321
        },
        {
          "name": "E2",
          "midi": 40,
          "time": 9.899999999999993,
          "velocity": 0.3543307086614173,
          "duration": 0.09583333333333321
        },
        {
          "name": "G3",
          "midi": 55,
          "time": 9.999999999999993,
          "velocity": 0.8661417322834646,
          "duration": 0.19583333333333286
        },
        {
          "name": "A#3",
          "midi": 58,
          "time": 9.999999999999993,
          "velocity": 0.8661417322834646,
          "duration": 0.19583333333333286
        },
        {
          "name": "C#2",
          "midi": 37,
          "time": 9.999999999999993,
          "velocity": 0.3543307086614173,
          "duration": 0.19583333333333286
        },
        {
          "name": "E2",
          "midi": 40,
          "time": 9.999999999999993,
          "velocity": 0.3543307086614173,
          "duration": 0.19583333333333286
        },
        {
          "name": "A#4",
          "midi": 70,
          "time": 10.199999999999992,
          "velocity": 0.8661417322834646,
          "duration": 0.39583333333333215
        },
        {
          "name": "G3",
          "midi": 55,
          "time": 10.199999999999992,
          "velocity": 0.8661417322834646,
          "duration": 0.19583333333333286
        },
        {
          "name": "A#3",
          "midi": 58,
          "time": 10.199999999999992,
          "velocity": 0.8661417322834646,
          "duration": 0.19583333333333286
        },
        {
          "name": "C#2",
          "midi": 37,
          "time": 10.199999999999992,
          "velocity": 0.3543307086614173,
          "duration": 0.19583333333333286
        },
        {
          "name": "E2",
          "midi": 40,
          "time": 10.199999999999992,
          "velocity": 0.3543307086614173,
          "duration": 0.19583333333333286
        },
        {
          "name": "G3",
          "midi": 55,
          "time": 10.399999999999991,
          "velocity": 0.8661417322834646,
          "duration": 0.19583333333333286
        },
        {
          "name": "A#3",
          "midi": 58,
          "time": 10.399999999999991,
          "velocity": 0.8661417322834646,
          "duration": 0.19583333333333286
        },
        {
          "name": "A#2",
          "midi": 46,
          "time": 10.399999999999991,
          "velocity": 0.8661417322834646,
          "duration": 0.33333333333333215
        },
        {
          "name": "C#2",
          "midi": 37,
          "time": 10.399999999999991,
          "velocity": 0.3543307086614173,
          "duration": 0.19583333333333286
        },
        {
          "name": "E2",
          "midi": 40,
          "time": 10.399999999999991,
          "velocity": 0.3543307086614173,
          "duration": 0.19583333333333286
        },
        {
          "name": "G4",
          "midi": 67,
          "time": 10.59999999999999,
          "velocity": 0.8661417322834646,
          "duration": 0.19583333333333286
        },
        {
          "name": "G3",
          "midi": 55,
          "time": 10.59999999999999,
          "velocity": 0.8661417322834646,
          "duration": 0.19583333333333286
        },
        {
          "name": "A#3",
          "midi": 58,
          "time": 10.59999999999999,
          "velocity": 0.8661417322834646,
          "duration": 0.19583333333333286
        },
        {
          "name": "C#2",
          "midi": 37,
          "time": 10.59999999999999,
          "velocity": 0.3543307086614173,
          "duration": 0.19583333333333286
        },
        {
          "name": "E2",
          "midi": 40,
          "time": 10.59999999999999,
          "velocity": 0.3543307086614173,
          "duration": 0.19583333333333286
        },
        {
          "name": "A4",
          "midi": 69,
          "time": 10.79999999999999,
          "velocity": 0.8661417322834646,
          "duration": 0.6999999999999975
        },
        {
          "name": "A3",
          "midi": 57,
          "time": 10.79999999999999,
          "velocity": 0.8661417322834646,
          "duration": 0.19583333333333286
        },
        {
          "name": "D4",
          "midi": 62,
          "time": 10.79999999999999,
          "velocity": 0.8661417322834646,
          "duration": 0.19583333333333286
        },
        {
          "name": "D3",
          "midi": 50,
          "time": 10.79999999999999,
          "velocity": 0.8661417322834646,
          "duration": 0.33333333333333215
        },
        {
          "name": "F4",
          "midi": 65,
          "time": 10.79999999999999,
          "velocity": 0.8661417322834646,
          "duration": 0.5333333333333314
        },
        {
          "name": "C#2",
          "midi": 37,
          "time": 10.79999999999999,
          "velocity": 0.3543307086614173,
          "duration": 0.19583333333333286
        },
        {
          "name": "E2",
          "midi": 40,
          "time": 10.79999999999999,
          "velocity": 0.3543307086614173,
          "duration": 0.19583333333333286
        },
        {
          "name": "A3",
          "midi": 57,
          "time": 10.99999999999999,
          "velocity": 0.8661417322834646,
          "duration": 0.09583333333333321
        },
        {
          "name": "D4",
          "midi": 62,
          "time": 10.99999999999999,
          "velocity": 0.8661417322834646,
          "duration": 0.09583333333333321
        },
        {
          "name": "C#2",
          "midi": 37,
          "time": 10.99999999999999,
          "velocity": 0.3543307086614173,
          "duration": 0.09583333333333321
        },
        {
          "name": "E2",
          "midi": 40,
          "time": 10.99999999999999,
          "velocity": 0.3543307086614173,
          "duration": 0.09583333333333321
        },
        {
          "name": "A3",
          "midi": 57,
          "time": 11.099999999999989,
          "velocity": 0.8661417322834646,
          "duration": 0.09583333333333321
        },
        {
          "name": "D4",
          "midi": 62,
          "time": 11.099999999999989,
          "velocity": 0.8661417322834646,
          "duration": 0.09583333333333321
        },
        {
          "name": "C#2",
          "midi": 37,
          "time": 11.099999999999989,
          "velocity": 0.3543307086614173,
          "duration": 0.09583333333333321
        },
        {
          "name": "E2",
          "midi": 40,
          "time": 11.099999999999989,
          "velocity": 0.3543307086614173,
          "duration": 0.09583333333333321
        },
        {
          "name": "A3",
          "midi": 57,
          "time": 11.199999999999989,
          "velocity": 0.8661417322834646,
          "duration": 0.19583333333333286
        },
        {
          "name": "D4",
          "midi": 62,
          "time": 11.199999999999989,
          "velocity": 0.8661417322834646,
          "duration": 0.19583333333333286
        },
        {
          "name": "C#2",
          "midi": 37,
          "time": 11.199999999999989,
          "velocity": 0.3543307086614173,
          "duration": 0.19583333333333286
        },
        {
          "name": "E2",
          "midi": 40,
          "time": 11.199999999999989,
          "velocity": 0.3543307086614173,
          "duration": 0.19583333333333286
        },
        {
          "name": "A3",
          "midi": 57,
          "time": 11.399999999999988,
          "velocity": 0.8661417322834646,
          "duration": 0.19583333333333286
        },
        {
          "name": "D4",
          "midi": 62,
          "time": 11.399999999999988,
          "velocity": 0.8661417322834646,
          "duration": 0.19583333333333286
        },
        {
          "name": "G4",
          "midi": 67,
          "time": 11.399999999999988,
          "velocity": 0.8661417322834646,
          "duration": 0.19583333333333286
        },
        {
          "name": "C#2",
          "midi": 37,
          "time": 11.399999999999988,
          "velocity": 0.3543307086614173,
          "duration": 0.19583333333333286
        },
        {
          "name": "E2",
          "midi": 40,
          "time": 11.399999999999988,
          "velocity": 0.3543307086614173,
          "duration": 0.19583333333333286
        },
        {
          "name": "F4",
          "midi": 65,
          "time": 11.599999999999987,
          "velocity": 0.8661417322834646,
          "duration": 0.19583333333333286
        },
        {
          "name": "A3",
          "midi": 57,
          "time": 11.599999999999987,
          "velocity": 0.8661417322834646,
          "duration": 0.19583333333333286
        },
        {
          "name": "D4",
          "midi": 62,
          "time": 11.599999999999987,
          "velocity": 0.8661417322834646,
          "duration": 0.19583333333333286
        },
        {
          "name": "G2",
          "midi": 43,
          "time": 11.599999999999987,
          "velocity": 0.8661417322834646,
          "duration": 0.33333333333333215
        },
        {
          "name": "F4",
          "midi": 65,
          "time": 11.599999999999987,
          "velocity": 0.8661417322834646,
          "duration": 0.19583333333333286
        },
        {
          "name": "C#2",
          "midi": 37,
          "time": 11.599999999999987,
          "velocity": 0.3543307086614173,
          "duration": 0.19583333333333286
        },
        {
          "name": "E2",
          "midi": 40,
          "time": 11.599999999999987,
          "velocity": 0.3543307086614173,
          "duration": 0.19583333333333286
        },
        {
          "name": "G4",
          "midi": 67,
          "time": 11.799999999999986,
          "velocity": 0.8661417322834646,
          "duration": 0.19583333333333286
        },
        {
          "name": "A3",
          "midi": 57,
          "time": 11.799999999999986,
          "velocity": 0.8661417322834646,
          "duration": 0.19583333333333286
        },
        {
          "name": "E4",
          "midi": 64,
          "time": 11.799999999999986,
          "velocity": 0.8661417322834646,
          "duration": 0.19583333333333286
        },
        {
          "name": "C#2",
          "midi": 37,
          "time": 11.799999999999986,
          "velocity": 0.3543307086614173,
          "duration": 0.19583333333333286
        },
        {
          "name": "E2",
          "midi": 40,
          "time": 11.799999999999986,
          "velocity": 0.3543307086614173,
          "duration": 0.19583333333333286
        },
        {
          "name": "A4",
          "midi": 69,
          "time": 11.999999999999986,
          "velocity": 0.8661417322834646,
          "duration": 0.5333333333333314
        },
        {
          "name": "F3",
          "midi": 53,
          "time": 11.999999999999986,
          "velocity": 0.8661417322834646,
          "duration": 0.19583333333333286
        },
        {
          "name": "A3",
          "midi": 57,
          "time": 11.999999999999986,
          "velocity": 0.8661417322834646,
          "duration": 0.19583333333333286
        },
        {
          "name": "D3",
          "midi": 50,
          "time": 11.999999999999986,
          "velocity": 0.8661417322834646,
          "duration": 0.33333333333333215
        },
        {
          "name": "D4",
          "midi": 62,
          "time": 11.999999999999986,
          "velocity": 0.8661417322834646,
          "duration": 2.299999999999992
        },
        {
          "name": "C#2",
          "midi": 37,
          "time": 11.999999999999986,
          "velocity": 0.3543307086614173,
          "duration": 0.19583333333333286
        },
        {
          "name": "E2",
          "midi": 40,
          "time": 11.999999999999986,
          "velocity": 0.3543307086614173,
          "duration": 0.19583333333333286
        },
        {
          "name": "F3",
          "midi": 53,
          "time": 12.199999999999985,
          "velocity": 0.8661417322834646,
          "duration": 0.09583333333333321
        },
        {
          "name": "A3",
          "midi": 57,
          "time": 12.199999999999985,
          "velocity": 0.8661417322834646,
          "duration": 0.09583333333333321
        },
        {
          "name": "C#2",
          "midi": 37,
          "time": 12.199999999999985,
          "velocity": 0.3543307086614173,
          "duration": 0.09583333333333321
        },
        {
          "name": "E2",
          "midi": 40,
          "time": 12.199999999999985,
          "velocity": 0.3543307086614173,
          "duration": 0.09583333333333321
        },
        {
          "name": "F3",
          "midi": 53,
          "time": 12.299999999999985,
          "velocity": 0.8661417322834646,
          "duration": 0.09583333333333321
        },
        {
          "name": "A3",
          "midi": 57,
          "time": 12.299999999999985,
          "velocity": 0.8661417322834646,
          "duration": 0.09583333333333321
        },
        {
          "name": "C#2",
          "midi": 37,
          "time": 12.299999999999985,
          "velocity": 0.3543307086614173,
          "duration": 0.09583333333333321
        },
        {
          "name": "E2",
          "midi": 40,
          "time": 12.299999999999985,
          "velocity": 0.3543307086614173,
          "duration": 0.09583333333333321
        },
        {
          "name": "F3",
          "midi": 53,
          "time": 12.399999999999984,
          "velocity": 0.8661417322834646,
          "duration": 0.19583333333333286
        },
        {
          "name": "A3",
          "midi": 57,
          "time": 12.399999999999984,
          "velocity": 0.8661417322834646,
          "duration": 0.19583333333333286
        },
        {
          "name": "C#2",
          "midi": 37,
          "time": 12.399999999999984,
          "velocity": 0.3543307086614173,
          "duration": 0.19583333333333286
        },
        {
          "name": "E2",
          "midi": 40,
          "time": 12.399999999999984,
          "velocity": 0.3543307086614173,
          "duration": 0.19583333333333286
        },
        {
          "name": "A#4",
          "midi": 70,
          "time": 12.599999999999984,
          "velocity": 0.8661417322834646,
          "duration": 0.39583333333333215
        },
        {
          "name": "F3",
          "midi": 53,
          "time": 12.599999999999984,
          "velocity": 0.8661417322834646,
          "duration": 0.19583333333333286
        },
        {
          "name": "A3",
          "midi": 57,
          "time": 12.599999999999984,
          "velocity": 0.8661417322834646,
          "duration": 0.19583333333333286
        },
        {
          "name": "C#2",
          "midi": 37,
          "time": 12.599999999999984,
          "velocity": 0.3543307086614173,
          "duration": 0.19583333333333286
        },
        {
          "name": "E2",
          "midi": 40,
          "time": 12.599999999999984,
          "velocity": 0.3543307086614173,
          "duration": 0.19583333333333286
        },
        {
          "name": "F3",
          "midi": 53,
          "time": 12.799999999999983,
          "velocity": 0.8661417322834646,
          "duration": 0.19583333333333286
        },
        {
          "name": "A3",
          "midi": 57,
          "time": 12.799999999999983,
          "velocity": 0.8661417322834646,
          "duration": 0.19583333333333286
        },
        {
          "name": "A2",
          "midi": 45,
          "time": 12.799999999999983,
          "velocity": 0.8661417322834646,
          "duration": 0.33333333333333215
        },
        {
          "name": "C#2",
          "midi": 37,
          "time": 12.799999999999983,
          "velocity": 0.3543307086614173,
          "duration": 0.19583333333333286
        },
        {
          "name": "E2",
          "midi": 40,
          "time": 12.799999999999983,
          "velocity": 0.3543307086614173,
          "duration": 0.19583333333333286
        },
        {
          "name": "A4",
          "midi": 69,
          "time": 12.999999999999982,
          "velocity": 0.8661417322834646,
          "duration": 0.19583333333333286
        },
        {
          "name": "F3",
          "midi": 53,
          "time": 12.999999999999982,
          "velocity": 0.8661417322834646,
          "duration": 0.19583333333333286
        },
        {
          "name": "A3",
          "midi": 57,
          "time": 12.999999999999982,
          "velocity": 0.8661417322834646,
          "duration": 0.19583333333333286
        },
        {
          "name": "C#2",
          "midi": 37,
          "time": 12.999999999999982,
          "velocity": 0.3543307086614173,
          "duration": 0.19583333333333286
        },
        {
          "name": "E2",
          "midi": 40,
          "time": 12.999999999999982,
          "velocity": 0.3543307086614173,
          "duration": 0.19583333333333286
        },
        {
          "name": "G4",
          "midi": 67,
          "time": 13.199999999999982,
          "velocity": 0.8661417322834646,
          "duration": 0.33333333333333215
        },
        {
          "name": "F3",
          "midi": 53,
          "time": 13.199999999999982,
          "velocity": 0.8661417322834646,
          "duration": 0.19583333333333286
        },
        {
          "name": "A3",
          "midi": 57,
          "time": 13.199999999999982,
          "velocity": 0.8661417322834646,
          "duration": 0.19583333333333286
        },
        {
          "name": "D3",
          "midi": 50,
          "time": 13.199999999999982,
          "velocity": 0.8661417322834646,
          "duration": 0.33333333333333215
        },
        {
          "name": "C#2",
          "midi": 37,
          "time": 13.199999999999982,
          "velocity": 0.3543307086614173,
          "duration": 0.19583333333333286
        },
        {
          "name": "E2",
          "midi": 40,
          "time": 13.199999999999982,
          "velocity": 0.3543307086614173,
          "duration": 0.19583333333333286
        },
        {
          "name": "F3",
          "midi": 53,
          "time": 13.39999999999998,
          "velocity": 0.8661417322834646,
          "duration": 0.09583333333333321
        },
        {
          "name": "A3",
          "midi": 57,
          "time": 13.39999999999998,
          "velocity": 0.8661417322834646,
          "duration": 0.09583333333333321
        },
        {
          "name": "C#2",
          "midi": 37,
          "time": 13.39999999999998,
          "velocity": 0.3543307086614173,
          "duration": 0.09583333333333321
        },
        {
          "name": "E2",
          "midi": 40,
          "time": 13.39999999999998,
          "velocity": 0.3543307086614173,
          "duration": 0.09583333333333321
        },
        {
          "name": "F3",
          "midi": 53,
          "time": 13.49999999999998,
          "velocity": 0.8661417322834646,
          "duration": 0.09583333333333321
        },
        {
          "name": "A3",
          "midi": 57,
          "time": 13.49999999999998,
          "velocity": 0.8661417322834646,
          "duration": 0.09583333333333321
        },
        {
          "name": "C#2",
          "midi": 37,
          "time": 13.49999999999998,
          "velocity": 0.3543307086614173,
          "duration": 0.09583333333333321
        },
        {
          "name": "E2",
          "midi": 40,
          "time": 13.49999999999998,
          "velocity": 0.3543307086614173,
          "duration": 0.09583333333333321
        },
        {
          "name": "F4",
          "midi": 65,
          "time": 13.59999999999998,
          "velocity": 0.8661417322834646,
          "duration": 0.33333333333333215
        },
        {
          "name": "F3",
          "midi": 53,
          "time": 13.59999999999998,
          "velocity": 0.8661417322834646,
          "duration": 0.19583333333333286
        },
        {
          "name": "A3",
          "midi": 57,
          "time": 13.59999999999998,
          "velocity": 0.8661417322834646,
          "duration": 0.19583333333333286
        },
        {
          "name": "C#2",
          "midi": 37,
          "time": 13.59999999999998,
          "velocity": 0.3543307086614173,
          "duration": 0.19583333333333286
        },
        {
          "name": "E2",
          "midi": 40,
          "time": 13.59999999999998,
          "velocity": 0.3543307086614173,
          "duration": 0.19583333333333286
        },
        {
          "name": "F3",
          "midi": 53,
          "time": 13.79999999999998,
          "velocity": 0.8661417322834646,
          "duration": 0.19583333333333286
        },
        {
          "name": "A3",
          "midi": 57,
          "time": 13.79999999999998,
          "velocity": 0.8661417322834646,
          "duration": 0.19583333333333286
        },
        {
          "name": "C#2",
          "midi": 37,
          "time": 13.79999999999998,
          "velocity": 0.3543307086614173,
          "duration": 0.19583333333333286
        },
        {
          "name": "E2",
          "midi": 40,
          "time": 13.79999999999998,
          "velocity": 0.3543307086614173,
          "duration": 0.19583333333333286
        },
        {
          "name": "G4",
          "midi": 67,
          "time": 13.999999999999979,
          "velocity": 0.8661417322834646,
          "duration": 0.33333333333333215
        },
        {
          "name": "F3",
          "midi": 53,
          "time": 13.999999999999979,
          "velocity": 0.8661417322834646,
          "duration": 0.19583333333333286
        },
        {
          "name": "A3",
          "midi": 57,
          "time": 13.999999999999979,
          "velocity": 0.8661417322834646,
          "duration": 0.19583333333333286
        },
        {
          "name": "A2",
          "midi": 45,
          "time": 13.999999999999979,
          "velocity": 0.8661417322834646,
          "duration": 0.33333333333333215
        },
        {
          "name": "C#2",
          "midi": 37,
          "time": 13.999999999999979,
          "velocity": 0.3543307086614173,
          "duration": 0.19583333333333286
        },
        {
          "name": "E2",
          "midi": 40,
          "time": 13.999999999999979,
          "velocity": 0.3543307086614173,
          "duration": 0.19583333333333286
        },
        {
          "name": "F3",
          "midi": 53,
          "time": 14.199999999999978,
          "velocity": 0.8661417322834646,
          "duration": 0.19583333333333286
        },
        {
          "name": "A3",
          "midi": 57,
          "time": 14.199999999999978,
          "velocity": 0.8661417322834646,
          "duration": 0.19583333333333286
        },
        {
          "name": "C#2",
          "midi": 37,
          "time": 14.199999999999978,
          "velocity": 0.3543307086614173,
          "duration": 0.19583333333333286
        },
        {
          "name": "E2",
          "midi": 40,
          "time": 14.199999999999978,
          "velocity": 0.3543307086614173,
          "duration": 0.19583333333333286
        },
        {
          "name": "E4",
          "midi": 64,
          "time": 14.399999999999977,
          "velocity": 0.8661417322834646,
          "duration": 0.19583333333333286
        },
        {
          "name": "G3",
          "midi": 55,
          "time": 14.399999999999977,
          "velocity": 0.8661417322834646,
          "duration": 0.19583333333333286
        },
        {
          "name": "A#3",
          "midi": 58,
          "time": 14.399999999999977,
          "velocity": 0.8661417322834646,
          "duration": 0.19583333333333286
        },
        {
          "name": "D4",
          "midi": 62,
          "time": 14.399999999999977,
          "velocity": 0.8661417322834646,
          "duration": 0.19583333333333286
        },
        {
          "name": "E4",
          "midi": 64,
          "time": 14.399999999999977,
          "velocity": 0.8661417322834646,
          "duration": 0.2958333333333325
        },
        {
          "name": "A#2",
          "midi": 46,
          "time": 14.399999999999977,
          "velocity": 0.8661417322834646,
          "duration": 0.33333333333333215
        },
        {
          "name": "C#2",
          "midi": 37,
          "time": 14.399999999999977,
          "velocity": 0.3543307086614173,
          "duration": 0.19583333333333286
        },
        {
          "name": "E2",
          "midi": 40,
          "time": 14.399999999999977,
          "velocity": 0.3543307086614173,
          "duration": 0.19583333333333286
        },
        {
          "name": "G3",
          "midi": 55,
          "time": 14.599999999999977,
          "velocity": 0.8661417322834646,
          "duration": 0.09583333333333321
        },
        {
          "name": "A#3",
          "midi": 58,
          "time": 14.599999999999977,
          "velocity": 0.8661417322834646,
          "duration": 0.09583333333333321
        },
        {
          "name": "D4",
          "midi": 62,
          "time": 14.599999999999977,
          "velocity": 0.8661417322834646,
          "duration": 0.09583333333333321
        },
        {
          "name": "E4",
          "midi": 64,
          "time": 14.599999999999977,
          "velocity": 0.8661417322834646,
          "duration": 0.09583333333333321
        },
        {
          "name": "E5",
          "midi": 76,
          "time": 14.599999999999977,
          "velocity": 0.8661417322834646,
          "duration": 0.09583333333333321
        },
        {
          "name": "E5",
          "midi": 76,
          "time": 14.599999999999977,
          "velocity": 0.8661417322834646,
          "duration": 0.09583333333333321
        },
        {
          "name": "E4",
          "midi": 64,
          "time": 14.599999999999977,
          "velocity": 0.8661417322834646,
          "duration": 0.19583333333333286
        },
        {
          "name": "C#2",
          "midi": 37,
          "time": 14.599999999999977,
          "velocity": 0.3543307086614173,
          "duration": 0.09583333333333321
        },
        {
          "name": "E2",
          "midi": 40,
          "time": 14.599999999999977,
          "velocity": 0.3543307086614173,
          "duration": 0.09583333333333321
        },
        {
          "name": "G3",
          "midi": 55,
          "time": 14.699999999999976,
          "velocity": 0.8661417322834646,
          "duration": 0.09583333333333321
        },
        {
          "name": "A#3",
          "midi": 58,
          "time": 14.699999999999976,
          "velocity": 0.8661417322834646,
          "duration": 0.09583333333333321
        },
        {
          "name": "D4",
          "midi": 62,
          "time": 14.699999999999976,
          "velocity": 0.8661417322834646,
          "duration": 0.09583333333333321
        },
        {
          "name": "E4",
          "midi": 64,
          "time": 14.699999999999976,
          "velocity": 0.8661417322834646,
          "duration": 0.09583333333333321
        },
        {
          "name": "G5",
          "midi": 79,
          "time": 14.699999999999976,
          "velocity": 0.8661417322834646,
          "duration": 0.09583333333333321
        },
        {
          "name": "E5",
          "midi": 76,
          "time": 14.699999999999976,
          "velocity": 0.8661417322834646,
          "duration": 0.09583333333333321
        },
        {
          "name": "E4",
          "midi": 64,
          "time": 14.699999999999976,
          "velocity": 0.8661417322834646,
          "duration": 0.2958333333333325
        },
        {
          "name": "C#2",
          "midi": 37,
          "time": 14.699999999999976,
          "velocity": 0.3543307086614173,
          "duration": 0.09583333333333321
        },
        {
          "name": "E2",
          "midi": 40,
          "time": 14.699999999999976,
          "velocity": 0.3543307086614173,
          "duration": 0.09583333333333321
        },
        {
          "name": "G3",
          "midi": 55,
          "time": 14.799999999999976,
          "velocity": 0.8661417322834646,
          "duration": 0.19583333333333286
        },
        {
          "name": "A#3",
          "midi": 58,
          "time": 14.799999999999976,
          "velocity": 0.8661417322834646,
          "duration": 0.19583333333333286
        },
        {
          "name": "D4",
          "midi": 62,
          "time": 14.799999999999976,
          "velocity": 0.8661417322834646,
          "duration": 0.19583333333333286
        },
        {
          "name": "E4",
          "midi": 64,
          "time": 14.799999999999976,
          "velocity": 0.8661417322834646,
          "duration": 0.19583333333333286
        },
        {
          "name": "A#5",
          "midi": 82,
          "time": 14.799999999999976,
          "velocity": 0.8661417322834646,
          "duration": 0.19583333333333286
        },
        {
          "name": "E5",
          "midi": 76,
          "time": 14.799999999999976,
          "velocity": 0.8661417322834646,
          "duration": 0.19583333333333286
        },
        {
          "name": "E4",
          "midi": 64,
          "time": 14.799999999999976,
          "velocity": 0.8661417322834646,
          "duration": 0.39583333333333215
        },
        {
          "name": "C#2",
          "midi": 37,
          "time": 14.799999999999976,
          "velocity": 0.3543307086614173,
          "duration": 0.19583333333333286
        },
        {
          "name": "E2",
          "midi": 40,
          "time": 14.799999999999976,
          "velocity": 0.3543307086614173,
          "duration": 0.19583333333333286
        },
        {
          "name": "G3",
          "midi": 55,
          "time": 14.999999999999975,
          "velocity": 0.8661417322834646,
          "duration": 0.19583333333333286
        },
        {
          "name": "A#3",
          "midi": 58,
          "time": 14.999999999999975,
          "velocity": 0.8661417322834646,
          "duration": 0.19583333333333286
        },
        {
          "name": "D4",
          "midi": 62,
          "time": 14.999999999999975,
          "velocity": 0.8661417322834646,
          "duration": 0.19583333333333286
        },
        {
          "name": "E4",
          "midi": 64,
          "time": 14.999999999999975,
          "velocity": 0.8661417322834646,
          "duration": 0.39583333333333215
        },
        {
          "name": "A#2",
          "midi": 46,
          "time": 14.999999999999975,
          "velocity": 0.8661417322834646,
          "duration": 0.33333333333333215
        },
        {
          "name": "D6",
          "midi": 86,
          "time": 14.999999999999975,
          "velocity": 0.8661417322834646,
          "duration": 0.39583333333333215
        },
        {
          "name": "E5",
          "midi": 76,
          "time": 14.999999999999975,
          "velocity": 0.8661417322834646,
          "duration": 0.39583333333333215
        },
        {
          "name": "E4",
          "midi": 64,
          "time": 14.999999999999975,
          "velocity": 0.8661417322834646,
          "duration": 0.39583333333333215
        },
        {
          "name": "C#2",
          "midi": 37,
          "time": 14.999999999999975,
          "velocity": 0.3543307086614173,
          "duration": 0.19583333333333286
        },
        {
          "name": "E2",
          "midi": 40,
          "time": 14.999999999999975,
          "velocity": 0.3543307086614173,
          "duration": 0.19583333333333286
        },
        {
          "name": "G3",
          "midi": 55,
          "time": 15.199999999999974,
          "velocity": 0.8661417322834646,
          "duration": 0.19583333333333286
        },
        {
          "name": "A#3",
          "midi": 58,
          "time": 15.199999999999974,
          "velocity": 0.8661417322834646,
          "duration": 0.19583333333333286
        },
        {
          "name": "D4",
          "midi": 62,
          "time": 15.199999999999974,
          "velocity": 0.8661417322834646,
          "duration": 0.19583333333333286
        },
        {
          "name": "E4",
          "midi": 64,
          "time": 15.199999999999974,
          "velocity": 0.8661417322834646,
          "duration": 0.39583333333333215
        },
        {
          "name": "C#2",
          "midi": 37,
          "time": 15.199999999999974,
          "velocity": 0.3543307086614173,
          "duration": 0.19583333333333286
        },
        {
          "name": "E2",
          "midi": 40,
          "time": 15.199999999999974,
          "velocity": 0.3543307086614173,
          "duration": 0.19583333333333286
        },
        {
          "name": "G3",
          "midi": 55,
          "time": 15.399999999999974,
          "velocity": 0.8661417322834646,
          "duration": 0.19583333333333286
        },
        {
          "name": "A#3",
          "midi": 58,
          "time": 15.399999999999974,
          "velocity": 0.8661417322834646,
          "duration": 0.19583333333333286
        },
        {
          "name": "D4",
          "midi": 62,
          "time": 15.399999999999974,
          "velocity": 0.8661417322834646,
          "duration": 0.19583333333333286
        },
        {
          "name": "E4",
          "midi": 64,
          "time": 15.399999999999974,
          "velocity": 0.8661417322834646,
          "duration": 0.19583333333333286
        },
        {
          "name": "A#2",
          "midi": 46,
          "time": 15.399999999999974,
          "velocity": 0.8661417322834646,
          "duration": 0.19583333333333286
        },
        {
          "name": "E6",
          "midi": 88,
          "time": 15.399999999999974,
          "velocity": 0.8661417322834646,
          "duration": 0.19583333333333286
        },
        {
          "name": "E5",
          "midi": 76,
          "time": 15.399999999999974,
          "velocity": 0.8661417322834646,
          "duration": 0.19583333333333286
        },
        {
          "name": "E4",
          "midi": 64,
          "time": 15.399999999999974,
          "velocity": 0.8661417322834646,
          "duration": 0.39583333333333215
        },
        {
          "name": "C#2",
          "midi": 37,
          "time": 15.399999999999974,
          "velocity": 0.3543307086614173,
          "duration": 0.19583333333333286
        },
        {
          "name": "E2",
          "midi": 40,
          "time": 15.399999999999974,
          "velocity": 0.3543307086614173,
          "duration": 0.19583333333333286
        },
        {
          "name": "G3",
          "midi": 55,
          "time": 15.599999999999973,
          "velocity": 0.8661417322834646,
          "duration": 0.19583333333333286
        },
        {
          "name": "A3",
          "midi": 57,
          "time": 15.599999999999973,
          "velocity": 0.8661417322834646,
          "duration": 0.19583333333333286
        },
        {
          "name": "C#4",
          "midi": 61,
          "time": 15.599999999999973,
          "velocity": 0.8661417322834646,
          "duration": 0.19583333333333286
        },
        {
          "name": "E4",
          "midi": 64,
          "time": 15.599999999999973,
          "velocity": 0.8661417322834646,
          "duration": 0.19583333333333286
        },
        {
          "name": "A2",
          "midi": 45,
          "time": 15.599999999999973,
          "velocity": 0.8661417322834646,
          "duration": 0.33333333333333215
        },
        {
          "name": "C#6",
          "midi": 85,
          "time": 15.599999999999973,
          "velocity": 0.8661417322834646,
          "duration": 0.19583333333333286
        },
        {
          "name": "E5",
          "midi": 76,
          "time": 15.599999999999973,
          "velocity": 0.8661417322834646,
          "duration": 0.19583333333333286
        },
        {
          "name": "E4",
          "midi": 64,
          "time": 15.599999999999973,
          "velocity": 0.8661417322834646,
          "duration": 0.2958333333333325
        },
        {
          "name": "C#2",
          "midi": 37,
          "time": 15.599999999999973,
          "velocity": 0.3543307086614173,
          "duration": 0.19583333333333286
        },
        {
          "name": "E2",
          "midi": 40,
          "time": 15.599999999999973,
          "velocity": 0.3543307086614173,
          "duration": 0.19583333333333286
        },
        {
          "name": "G3",
          "midi": 55,
          "time": 15.799999999999972,
          "velocity": 0.8661417322834646,
          "duration": 0.09583333333333321
        },
        {
          "name": "A3",
          "midi": 57,
          "time": 15.799999999999972,
          "velocity": 0.8661417322834646,
          "duration": 0.09583333333333321
        },
        {
          "name": "C#4",
          "midi": 61,
          "time": 15.799999999999972,
          "velocity": 0.8661417322834646,
          "duration": 0.09583333333333321
        },
        {
          "name": "E4",
          "midi": 64,
          "time": 15.799999999999972,
          "velocity": 0.8661417322834646,
          "duration": 0.09583333333333321
        },
        {
          "name": "A5",
          "midi": 81,
          "time": 15.799999999999972,
          "velocity": 0.8661417322834646,
          "duration": 0.0625
        },
        {
          "name": "E5",
          "midi": 76,
          "time": 15.799999999999972,
          "velocity": 0.8661417322834646,
          "duration": 0.09583333333333321
        },
        {
          "name": "E4",
          "midi": 64,
          "time": 15.799999999999972,
          "velocity": 0.8661417322834646,
          "duration": 0.13333333333333286
        },
        {
          "name": "C#2",
          "midi": 37,
          "time": 15.799999999999972,
          "velocity": 0.3543307086614173,
          "duration": 0.09583333333333321
        },
        {
          "name": "E2",
          "midi": 40,
          "time": 15.799999999999972,
          "velocity": 0.3543307086614173,
          "duration": 0.09583333333333321
        },
        {
          "name": "C#6",
          "midi": 85,
          "time": 15.866666666666639,
          "velocity": 0.8661417322834646,
          "duration": 0.0625
        },
        {
          "name": "G3",
          "midi": 55,
          "time": 15.899999999999972,
          "velocity": 0.8661417322834646,
          "duration": 0.09583333333333321
        },
        {
          "name": "A3",
          "midi": 57,
          "time": 15.899999999999972,
          "velocity": 0.8661417322834646,
          "duration": 0.09583333333333321
        },
        {
          "name": "C#4",
          "midi": 61,
          "time": 15.899999999999972,
          "velocity": 0.8661417322834646,
          "duration": 0.09583333333333321
        },
        {
          "name": "E4",
          "midi": 64,
          "time": 15.899999999999972,
          "velocity": 0.8661417322834646,
          "duration": 0.09583333333333321
        },
        {
          "name": "E5",
          "midi": 76,
          "time": 15.899999999999972,
          "velocity": 0.8661417322834646,
          "duration": 0.09583333333333321
        },
        {
          "name": "E4",
          "midi": 64,
          "time": 15.899999999999972,
          "velocity": 0.8661417322834646,
          "duration": 0.09583333333333321
        },
        {
          "name": "C#2",
          "midi": 37,
          "time": 15.899999999999972,
          "velocity": 0.3543307086614173,
          "duration": 0.09583333333333321
        },
        {
          "name": "E2",
          "midi": 40,
          "time": 15.899999999999972,
          "velocity": 0.3543307086614173,
          "duration": 0.09583333333333321
        },
        {
          "name": "E6",
          "midi": 88,
          "time": 15.933333333333305,
          "velocity": 0.8661417322834646,
          "duration": 0.0625
        },
        {
          "name": "G3",
          "midi": 55,
          "time": 15.999999999999972,
          "velocity": 0.8661417322834646,
          "duration": 0.10000000000000142
        },
        {
          "name": "A3",
          "midi": 57,
          "time": 15.999999999999972,
          "velocity": 0.8661417322834646,
          "duration": 0.10000000000000142
        },
        {
          "name": "C#4",
          "midi": 61,
          "time": 15.999999999999972,
          "velocity": 0.8661417322834646,
          "duration": 0.10000000000000142
        },
        {
          "name": "E4",
          "midi": 64,
          "time": 15.999999999999972,
          "velocity": 0.8661417322834646,
          "duration": 0.10000000000000142
        },
        {
          "name": "A1",
          "midi": 33,
          "time": 15.999999999999972,
          "velocity": 0.8661417322834646,
          "duration": 0.10000000000000142
        },
        {
          "name": "A6",
          "midi": 93,
          "time": 15.999999999999972,
          "velocity": 0.8661417322834646,
          "duration": 0.10000000000000142
        },
        {
          "name": "E5",
          "midi": 76,
          "time": 15.999999999999972,
          "velocity": 0.8661417322834646,
          "duration": 0.10000000000000142
        },
        {
          "name": "E4",
          "midi": 64,
          "time": 15.999999999999972,
          "velocity": 0.8661417322834646,
          "duration": 0.10000000000000142
        },
        {
          "name": "C#2",
          "midi": 37,
          "time": 15.999999999999972,
          "velocity": 0.3543307086614173,
          "duration": 0.3333333333333357
        },
        {
          "name": "E2",
          "midi": 40,
          "time": 15.999999999999972,
          "velocity": 0.3543307086614173,
          "duration": 0.3333333333333357
        },
        {
          "name": "D4",
          "midi": 62,
          "time": 16.399999999999974,
          "velocity": 0.8661417322834646,
          "duration": 0.19583333333333286
        },
        {
          "name": "F4",
          "midi": 65,
          "time": 16.599999999999973,
          "velocity": 0.8661417322834646,
          "duration": 0.19583333333333286
        },
        {
          "name": "A4",
          "midi": 69,
          "time": 16.799999999999972,
          "velocity": 0.8661417322834646,
          "duration": 0.533333333333335
        },
        {
          "name": "F3",
          "midi": 53,
          "time": 16.799999999999972,
          "velocity": 0.8661417322834646,
          "duration": 0.19583333333333286
        },
        {
          "name": "A3",
          "midi": 57,
          "time": 16.799999999999972,
          "velocity": 0.8661417322834646,
          "duration": 0.19583333333333286
        },
        {
          "name": "D4",
          "midi": 62,
          "time": 16.799999999999972,
          "velocity": 0.8661417322834646,
          "duration": 0.19583333333333286
        },
        {
          "name": "D3",
          "midi": 50,
          "time": 16.799999999999972,
          "velocity": 0.8661417322834646,
          "duration": 0.3333333333333357
        },
        {
          "name": "C#2",
          "midi": 37,
          "time": 16.799999999999972,
          "velocity": 0.3543307086614173,
          "duration": 0.19583333333333286
        },
        {
          "name": "E2",
          "midi": 40,
          "time": 16.799999999999972,
          "velocity": 0.3543307086614173,
          "duration": 0.19583333333333286
        },
        {
          "name": "F3",
          "midi": 53,
          "time": 16.99999999999997,
          "velocity": 0.8661417322834646,
          "duration": 0.09583333333333499
        },
        {
          "name": "A3",
          "midi": 57,
          "time": 16.99999999999997,
          "velocity": 0.8661417322834646,
          "duration": 0.09583333333333499
        },
        {
          "name": "D4",
          "midi": 62,
          "time": 16.99999999999997,
          "velocity": 0.8661417322834646,
          "duration": 0.09583333333333499
        },
        {
          "name": "C#2",
          "midi": 37,
          "time": 16.99999999999997,
          "velocity": 0.3543307086614173,
          "duration": 0.09583333333333499
        },
        {
          "name": "E2",
          "midi": 40,
          "time": 16.99999999999997,
          "velocity": 0.3543307086614173,
          "duration": 0.09583333333333499
        },
        {
          "name": "D4",
          "midi": 62,
          "time": 17.099999999999973,
          "velocity": 0.8661417322834646,
          "duration": 0.09583333333333499
        },
        {
          "name": "A3",
          "midi": 57,
          "time": 17.099999999999973,
          "velocity": 0.8661417322834646,
          "duration": 0.09583333333333499
        },
        {
          "name": "F3",
          "midi": 53,
          "time": 17.099999999999973,
          "velocity": 0.8661417322834646,
          "duration": 0.09583333333333499
        },
        {
          "name": "C#2",
          "midi": 37,
          "time": 17.099999999999973,
          "velocity": 0.3543307086614173,
          "duration": 0.09583333333333499
        },
        {
          "name": "E2",
          "midi": 40,
          "time": 17.099999999999973,
          "velocity": 0.3543307086614173,
          "duration": 0.09583333333333499
        },
        {
          "name": "A3",
          "midi": 57,
          "time": 17.199999999999974,
          "velocity": 0.8661417322834646,
          "duration": 0.19583333333333286
        },
        {
          "name": "D4",
          "midi": 62,
          "time": 17.199999999999974,
          "velocity": 0.8661417322834646,
          "duration": 0.19583333333333286
        },
        {
          "name": "F3",
          "midi": 53,
          "time": 17.199999999999974,
          "velocity": 0.8661417322834646,
          "duration": 0.19583333333333286
        },
        {
          "name": "D3",
          "midi": 50,
          "time": 17.199999999999974,
          "velocity": 0.8661417322834646,
          "duration": 0.33333333333333215
        },
        {
          "name": "C#2",
          "midi": 37,
          "time": 17.199999999999974,
          "velocity": 0.3543307086614173,
          "duration": 0.19583333333333286
        },
        {
          "name": "E2",
          "midi": 40,
          "time": 17.199999999999974,
          "velocity": 0.3543307086614173,
          "duration": 0.19583333333333286
        },
        {
          "name": "D4",
          "midi": 62,
          "time": 17.399999999999974,
          "velocity": 0.8661417322834646,
          "duration": 0.19583333333333286
        },
        {
          "name": "F3",
          "midi": 53,
          "time": 17.399999999999974,
          "velocity": 0.8661417322834646,
          "duration": 0.19583333333333286
        },
        {
          "name": "A3",
          "midi": 57,
          "time": 17.399999999999974,
          "velocity": 0.8661417322834646,
          "duration": 0.19583333333333286
        },
        {
          "name": "D4",
          "midi": 62,
          "time": 17.399999999999974,
          "velocity": 0.8661417322834646,
          "duration": 0.39583333333333215
        },
        {
          "name": "C#2",
          "midi": 37,
          "time": 17.399999999999974,
          "velocity": 0.3543307086614173,
          "duration": 0.19583333333333286
        },
        {
          "name": "E2",
          "midi": 40,
          "time": 17.399999999999974,
          "velocity": 0.3543307086614173,
          "duration": 0.19583333333333286
        },
        {
          "name": "F3",
          "midi": 53,
          "time": 17.599999999999973,
          "velocity": 0.8661417322834646,
          "duration": 0.19583333333333286
        },
        {
          "name": "A3",
          "midi": 57,
          "time": 17.599999999999973,
          "velocity": 0.8661417322834646,
          "duration": 0.19583333333333286
        },
        {
          "name": "D4",
          "midi": 62,
          "time": 17.599999999999973,
          "velocity": 0.8661417322834646,
          "duration": 0.19583333333333286
        },
        {
          "name": "A2",
          "midi": 45,
          "time": 17.599999999999973,
          "velocity": 0.8661417322834646,
          "duration": 0.33333333333333215
        },
        {
          "name": "F3",
          "midi": 53,
          "time": 17.599999999999973,
          "velocity": 0.8661417322834646,
          "duration": 0.33333333333333215
        },
        {
          "name": "C#2",
          "midi": 37,
          "time": 17.599999999999973,
          "velocity": 0.3543307086614173,
          "duration": 0.19583333333333286
        },
        {
          "name": "E2",
          "midi": 40,
          "time": 17.599999999999973,
          "velocity": 0.3543307086614173,
          "duration": 0.19583333333333286
        },
        {
          "name": "F4",
          "midi": 65,
          "time": 17.799999999999972,
          "velocity": 0.8661417322834646,
          "duration": 0.19583333333333286
        },
        {
          "name": "F3",
          "midi": 53,
          "time": 17.799999999999972,
          "velocity": 0.8661417322834646,
          "duration": 0.19583333333333286
        },
        {
          "name": "A3",
          "midi": 57,
          "time": 17.799999999999972,
          "velocity": 0.8661417322834646,
          "duration": 0.19583333333333286
        },
        {
          "name": "D4",
          "midi": 62,
          "time": 17.799999999999972,
          "velocity": 0.8661417322834646,
          "duration": 0.19583333333333286
        },
        {
          "name": "C#2",
          "midi": 37,
          "time": 17.799999999999972,
          "velocity": 0.3543307086614173,
          "duration": 0.19583333333333286
        },
        {
          "name": "E2",
          "midi": 40,
          "time": 17.799999999999972,
          "velocity": 0.3543307086614173,
          "duration": 0.19583333333333286
        },
        {
          "name": "A4",
          "midi": 69,
          "time": 17.99999999999997,
          "velocity": 0.8661417322834646,
          "duration": 0.3333333333333357
        },
        {
          "name": "F3",
          "midi": 53,
          "time": 17.99999999999997,
          "velocity": 0.8661417322834646,
          "duration": 0.19583333333333286
        },
        {
          "name": "A3",
          "midi": 57,
          "time": 17.99999999999997,
          "velocity": 0.8661417322834646,
          "duration": 0.19583333333333286
        },
        {
          "name": "D4",
          "midi": 62,
          "time": 17.99999999999997,
          "velocity": 0.8661417322834646,
          "duration": 0.19583333333333286
        },
        {
          "name": "D3",
          "midi": 50,
          "time": 17.99999999999997,
          "velocity": 0.8661417322834646,
          "duration": 0.3333333333333357
        },
        {
          "name": "A3",
          "midi": 57,
          "time": 17.99999999999997,
          "velocity": 0.8661417322834646,
          "duration": 0.2958333333333343
        },
        {
          "name": "C#2",
          "midi": 37,
          "time": 17.99999999999997,
          "velocity": 0.3543307086614173,
          "duration": 0.19583333333333286
        },
        {
          "name": "E2",
          "midi": 40,
          "time": 17.99999999999997,
          "velocity": 0.3543307086614173,
          "duration": 0.19583333333333286
        },
        {
          "name": "F3",
          "midi": 53,
          "time": 18.19999999999997,
          "velocity": 0.8661417322834646,
          "duration": 0.09583333333333499
        },
        {
          "name": "A3",
          "midi": 57,
          "time": 18.19999999999997,
          "velocity": 0.8661417322834646,
          "duration": 0.1333333333333364
        },
        {
          "name": "D4",
          "midi": 62,
          "time": 18.19999999999997,
          "velocity": 0.8661417322834646,
          "duration": 0.09583333333333499
        },
        {
          "name": "C#2",
          "midi": 37,
          "time": 18.19999999999997,
          "velocity": 0.3543307086614173,
          "duration": 0.09583333333333499
        },
        {
          "name": "E2",
          "midi": 40,
          "time": 18.19999999999997,
          "velocity": 0.3543307086614173,
          "duration": 0.09583333333333499
        },
        {
          "name": "F3",
          "midi": 53,
          "time": 18.299999999999972,
          "velocity": 0.8661417322834646,
          "duration": 0.09583333333333499
        },
        {
          "name": "A3",
          "midi": 57,
          "time": 18.299999999999972,
          "velocity": 0.8661417322834646,
          "duration": 0.09583333333333499
        },
        {
          "name": "D4",
          "midi": 62,
          "time": 18.299999999999972,
          "velocity": 0.8661417322834646,
          "duration": 0.09583333333333499
        },
        {
          "name": "C#2",
          "midi": 37,
          "time": 18.299999999999972,
          "velocity": 0.3543307086614173,
          "duration": 0.09583333333333499
        },
        {
          "name": "E2",
          "midi": 40,
          "time": 18.299999999999972,
          "velocity": 0.3543307086614173,
          "duration": 0.09583333333333499
        },
        {
          "name": "A#4",
          "midi": 70,
          "time": 18.399999999999974,
          "velocity": 0.8661417322834646,
          "duration": 0.33333333333333215
        },
        {
          "name": "F3",
          "midi": 53,
          "time": 18.399999999999974,
          "velocity": 0.8661417322834646,
          "duration": 0.19583333333333286
        },
        {
          "name": "A3",
          "midi": 57,
          "time": 18.399999999999974,
          "velocity": 0.8661417322834646,
          "duration": 0.19583333333333286
        },
        {
          "name": "D4",
          "midi": 62,
          "time": 18.399999999999974,
          "velocity": 0.8661417322834646,
          "duration": 0.19583333333333286
        },
        {
          "name": "E4",
          "midi": 64,
          "time": 18.399999999999974,
          "velocity": 0.8661417322834646,
          "duration": 0.33333333333333215
        },
        {
          "name": "C#2",
          "midi": 37,
          "time": 18.399999999999974,
          "velocity": 0.3543307086614173,
          "duration": 0.19583333333333286
        },
        {
          "name": "E2",
          "midi": 40,
          "time": 18.399999999999974,
          "velocity": 0.3543307086614173,
          "duration": 0.19583333333333286
        },
        {
          "name": "F3",
          "midi": 53,
          "time": 18.599999999999973,
          "velocity": 0.8661417322834646,
          "duration": 0.19583333333333286
        },
        {
          "name": "A3",
          "midi": 57,
          "time": 18.599999999999973,
          "velocity": 0.8661417322834646,
          "duration": 0.19583333333333286
        },
        {
          "name": "D4",
          "midi": 62,
          "time": 18.599999999999973,
          "velocity": 0.8661417322834646,
          "duration": 0.19583333333333286
        },
        {
          "name": "C#2",
          "midi": 37,
          "time": 18.599999999999973,
          "velocity": 0.3543307086614173,
          "duration": 0.19583333333333286
        },
        {
          "name": "E2",
          "midi": 40,
          "time": 18.599999999999973,
          "velocity": 0.3543307086614173,
          "duration": 0.19583333333333286
        },
        {
          "name": "A4",
          "midi": 69,
          "time": 18.799999999999972,
          "velocity": 0.8661417322834646,
          "duration": 0.33333333333333215
        },
        {
          "name": "F3",
          "midi": 53,
          "time": 18.799999999999972,
          "velocity": 0.8661417322834646,
          "duration": 0.19583333333333286
        },
        {
          "name": "A3",
          "midi": 57,
          "time": 18.799999999999972,
          "velocity": 0.8661417322834646,
          "duration": 0.19583333333333286
        },
        {
          "name": "D4",
          "midi": 62,
          "time": 18.799999999999972,
          "velocity": 0.8661417322834646,
          "duration": 0.19583333333333286
        },
        {
          "name": "A2",
          "midi": 45,
          "time": 18.799999999999972,
          "velocity": 0.8661417322834646,
          "duration": 0.33333333333333215
        },
        {
          "name": "D4",
          "midi": 62,
          "time": 18.799999999999972,
          "velocity": 0.8661417322834646,
          "duration": 0.39583333333333215
        },
        {
          "name": "C#2",
          "midi": 37,
          "time": 18.799999999999972,
          "velocity": 0.3543307086614173,
          "duration": 0.19583333333333286
        },
        {
          "name": "E2",
          "midi": 40,
          "time": 18.799999999999972,
          "velocity": 0.3543307086614173,
          "duration": 0.19583333333333286
        },
        {
          "name": "F3",
          "midi": 53,
          "time": 18.99999999999997,
          "velocity": 0.8661417322834646,
          "duration": 0.19583333333333286
        },
        {
          "name": "A3",
          "midi": 57,
          "time": 18.99999999999997,
          "velocity": 0.8661417322834646,
          "duration": 0.19583333333333286
        },
        {
          "name": "D4",
          "midi": 62,
          "time": 18.99999999999997,
          "velocity": 0.8661417322834646,
          "duration": 0.39583333333333215
        },
        {
          "name": "C#2",
          "midi": 37,
          "time": 18.99999999999997,
          "velocity": 0.3543307086614173,
          "duration": 0.19583333333333286
        },
        {
          "name": "E2",
          "midi": 40,
          "time": 18.99999999999997,
          "velocity": 0.3543307086614173,
          "duration": 0.19583333333333286
        },
        {
          "name": "C5",
          "midi": 72,
          "time": 19.19999999999997,
          "velocity": 0.8661417322834646,
          "duration": 0.533333333333335
        },
        {
          "name": "G3",
          "midi": 55,
          "time": 19.19999999999997,
          "velocity": 0.8661417322834646,
          "duration": 0.19583333333333286
        },
        {
          "name": "A#3",
          "midi": 58,
          "time": 19.19999999999997,
          "velocity": 0.8661417322834646,
          "duration": 0.19583333333333286
        },
        {
          "name": "D4",
          "midi": 62,
          "time": 19.19999999999997,
          "velocity": 0.8661417322834646,
          "duration": 0.2958333333333343
        },
        {
          "name": "G2",
          "midi": 43,
          "time": 19.19999999999997,
          "velocity": 0.8661417322834646,
          "duration": 0.3333333333333357
        },
        {
          "name": "C#2",
          "midi": 37,
          "time": 19.19999999999997,
          "velocity": 0.3543307086614173,
          "duration": 0.19583333333333286
        },
        {
          "name": "E2",
          "midi": 40,
          "time": 19.19999999999997,
          "velocity": 0.3543307086614173,
          "duration": 0.19583333333333286
        },
        {
          "name": "G3",
          "midi": 55,
          "time": 19.39999999999997,
          "velocity": 0.8661417322834646,
          "duration": 0.09583333333333499
        },
        {
          "name": "A#3",
          "midi": 58,
          "time": 19.39999999999997,
          "velocity": 0.8661417322834646,
          "duration": 0.09583333333333499
        },
        {
          "name": "D4",
          "midi": 62,
          "time": 19.39999999999997,
          "velocity": 0.8661417322834646,
          "duration": 0.1333333333333364
        },
        {
          "name": "C#2",
          "midi": 37,
          "time": 19.39999999999997,
          "velocity": 0.3543307086614173,
          "duration": 0.09583333333333499
        },
        {
          "name": "E2",
          "midi": 40,
          "time": 19.39999999999997,
          "velocity": 0.3543307086614173,
          "duration": 0.09583333333333499
        },
        {
          "name": "G3",
          "midi": 55,
          "time": 19.49999999999997,
          "velocity": 0.8661417322834646,
          "duration": 0.09583333333333499
        },
        {
          "name": "A#3",
          "midi": 58,
          "time": 19.49999999999997,
          "velocity": 0.8661417322834646,
          "duration": 0.09583333333333499
        },
        {
          "name": "D4",
          "midi": 62,
          "time": 19.49999999999997,
          "velocity": 0.8661417322834646,
          "duration": 0.09583333333333499
        },
        {
          "name": "C#2",
          "midi": 37,
          "time": 19.49999999999997,
          "velocity": 0.3543307086614173,
          "duration": 0.09583333333333499
        },
        {
          "name": "E2",
          "midi": 40,
          "time": 19.49999999999997,
          "velocity": 0.3543307086614173,
          "duration": 0.09583333333333499
        },
        {
          "name": "G3",
          "midi": 55,
          "time": 19.599999999999973,
          "velocity": 0.8661417322834646,
          "duration": 0.19583333333333286
        },
        {
          "name": "A#3",
          "midi": 58,
          "time": 19.599999999999973,
          "velocity": 0.8661417322834646,
          "duration": 0.19583333333333286
        },
        {
          "name": "D4",
          "midi": 62,
          "time": 19.599999999999973,
          "velocity": 0.8661417322834646,
          "duration": 0.19583333333333286
        },
        {
          "name": "G3",
          "midi": 55,
          "time": 19.599999999999973,
          "velocity": 0.8661417322834646,
          "duration": 0.39583333333333215
        },
        {
          "name": "C#2",
          "midi": 37,
          "time": 19.599999999999973,
          "velocity": 0.3543307086614173,
          "duration": 0.19583333333333286
        },
        {
          "name": "E2",
          "midi": 40,
          "time": 19.599999999999973,
          "velocity": 0.3543307086614173,
          "duration": 0.19583333333333286
        },
        {
          "name": "A#4",
          "midi": 70,
          "time": 19.799999999999972,
          "velocity": 0.8661417322834646,
          "duration": 0.39583333333333215
        },
        {
          "name": "G3",
          "midi": 55,
          "time": 19.799999999999972,
          "velocity": 0.8661417322834646,
          "duration": 0.33333333333333215
        },
        {
          "name": "A#3",
          "midi": 58,
          "time": 19.799999999999972,
          "velocity": 0.8661417322834646,
          "duration": 0.19583333333333286
        },
        {
          "name": "D4",
          "midi": 62,
          "time": 19.799999999999972,
          "velocity": 0.8661417322834646,
          "duration": 0.19583333333333286
        },
        {
          "name": "C#2",
          "midi": 37,
          "time": 19.799999999999972,
          "velocity": 0.3543307086614173,
          "duration": 0.19583333333333286
        },
        {
          "name": "E2",
          "midi": 40,
          "time": 19.799999999999972,
          "velocity": 0.3543307086614173,
          "duration": 0.19583333333333286
        },
        {
          "name": "G3",
          "midi": 55,
          "time": 19.99999999999997,
          "velocity": 0.8661417322834646,
          "duration": 0.19583333333333286
        },
        {
          "name": "A#3",
          "midi": 58,
          "time": 19.99999999999997,
          "velocity": 0.8661417322834646,
          "duration": 0.19583333333333286
        },
        {
          "name": "D4",
          "midi": 62,
          "time": 19.99999999999997,
          "velocity": 0.8661417322834646,
          "duration": 0.19583333333333286
        },
        {
          "name": "A#2",
          "midi": 46,
          "time": 19.99999999999997,
          "velocity": 0.8661417322834646,
          "duration": 0.33333333333333215
        },
        {
          "name": "C#2",
          "midi": 37,
          "time": 19.99999999999997,
          "velocity": 0.3543307086614173,
          "duration": 0.19583333333333286
        },
        {
          "name": "E2",
          "midi": 40,
          "time": 19.99999999999997,
          "velocity": 0.3543307086614173,
          "duration": 0.19583333333333286
        },
        {
          "name": "G4",
          "midi": 67,
          "time": 20.19999999999997,
          "velocity": 0.8661417322834646,
          "duration": 0.19583333333333286
        },
        {
          "name": "G3",
          "midi": 55,
          "time": 20.19999999999997,
          "velocity": 0.8661417322834646,
          "duration": 0.19583333333333286
        },
        {
          "name": "A#3",
          "midi": 58,
          "time": 20.19999999999997,
          "velocity": 0.8661417322834646,
          "duration": 0.19583333333333286
        },
        {
          "name": "D4",
          "midi": 62,
          "time": 20.19999999999997,
          "velocity": 0.8661417322834646,
          "duration": 0.19583333333333286
        },
        {
          "name": "A#3",
          "midi": 58,
          "time": 20.19999999999997,
          "velocity": 0.8661417322834646,
          "duration": 0.19583333333333286
        },
        {
          "name": "C#2",
          "midi": 37,
          "time": 20.19999999999997,
          "velocity": 0.3543307086614173,
          "duration": 0.19583333333333286
        },
        {
          "name": "E2",
          "midi": 40,
          "time": 20.19999999999997,
          "velocity": 0.3543307086614173,
          "duration": 0.19583333333333286
        },
        {
          "name": "A4",
          "midi": 69,
          "time": 20.39999999999997,
          "velocity": 0.8661417322834646,
          "duration": 0.7000000000000028
        },
        {
          "name": "F3",
          "midi": 53,
          "time": 20.39999999999997,
          "velocity": 0.8661417322834646,
          "duration": 0.19583333333333286
        },
        {
          "name": "A3",
          "midi": 57,
          "time": 20.39999999999997,
          "velocity": 0.8661417322834646,
          "duration": 0.19583333333333286
        },
        {
          "name": "D4",
          "midi": 62,
          "time": 20.39999999999997,
          "velocity": 0.8661417322834646,
          "duration": 0.19583333333333286
        },
        {
          "name": "D3",
          "midi": 50,
          "time": 20.39999999999997,
          "velocity": 0.8661417322834646,
          "duration": 0.3333333333333357
        },
        {
          "name": "D4",
          "midi": 62,
          "time": 20.39999999999997,
          "velocity": 0.8661417322834646,
          "duration": 0.2958333333333343
        },
        {
          "name": "C#2",
          "midi": 37,
          "time": 20.39999999999997,
          "velocity": 0.3543307086614173,
          "duration": 0.19583333333333286
        },
        {
          "name": "E2",
          "midi": 40,
          "time": 20.39999999999997,
          "velocity": 0.3543307086614173,
          "duration": 0.19583333333333286
        },
        {
          "name": "F3",
          "midi": 53,
          "time": 20.59999999999997,
          "velocity": 0.8661417322834646,
          "duration": 0.09583333333333499
        },
        {
          "name": "A3",
          "midi": 57,
          "time": 20.59999999999997,
          "velocity": 0.8661417322834646,
          "duration": 0.09583333333333499
        },
        {
          "name": "D4",
          "midi": 62,
          "time": 20.59999999999997,
          "velocity": 0.8661417322834646,
          "duration": 0.1333333333333364
        },
        {
          "name": "C#2",
          "midi": 37,
          "time": 20.59999999999997,
          "velocity": 0.3543307086614173,
          "duration": 0.09583333333333499
        },
        {
          "name": "E2",
          "midi": 40,
          "time": 20.59999999999997,
          "velocity": 0.3543307086614173,
          "duration": 0.09583333333333499
        },
        {
          "name": "F3",
          "midi": 53,
          "time": 20.69999999999997,
          "velocity": 0.8661417322834646,
          "duration": 0.09583333333333499
        },
        {
          "name": "A3",
          "midi": 57,
          "time": 20.69999999999997,
          "velocity": 0.8661417322834646,
          "duration": 0.09583333333333499
        },
        {
          "name": "D4",
          "midi": 62,
          "time": 20.69999999999997,
          "velocity": 0.8661417322834646,
          "duration": 0.09583333333333499
        },
        {
          "name": "C#2",
          "midi": 37,
          "time": 20.69999999999997,
          "velocity": 0.3543307086614173,
          "duration": 0.09583333333333499
        },
        {
          "name": "E2",
          "midi": 40,
          "time": 20.69999999999997,
          "velocity": 0.3543307086614173,
          "duration": 0.09583333333333499
        },
        {
          "name": "F3",
          "midi": 53,
          "time": 20.799999999999972,
          "velocity": 0.8661417322834646,
          "duration": 0.19583333333333286
        },
        {
          "name": "A3",
          "midi": 57,
          "time": 20.799999999999972,
          "velocity": 0.8661417322834646,
          "duration": 0.19583333333333286
        },
        {
          "name": "D4",
          "midi": 62,
          "time": 20.799999999999972,
          "velocity": 0.8661417322834646,
          "duration": 0.19583333333333286
        },
        {
          "name": "G4",
          "midi": 67,
          "time": 20.799999999999972,
          "velocity": 0.8661417322834646,
          "duration": 0.3333333333333357
        },
        {
          "name": "C#2",
          "midi": 37,
          "time": 20.799999999999972,
          "velocity": 0.3543307086614173,
          "duration": 0.19583333333333286
        },
        {
          "name": "E2",
          "midi": 40,
          "time": 20.799999999999972,
          "velocity": 0.3543307086614173,
          "duration": 0.19583333333333286
        },
        {
          "name": "F3",
          "midi": 53,
          "time": 20.99999999999997,
          "velocity": 0.8661417322834646,
          "duration": 0.1958333333333364
        },
        {
          "name": "A3",
          "midi": 57,
          "time": 20.99999999999997,
          "velocity": 0.8661417322834646,
          "duration": 0.1958333333333364
        },
        {
          "name": "D4",
          "midi": 62,
          "time": 20.99999999999997,
          "velocity": 0.8661417322834646,
          "duration": 0.1958333333333364
        },
        {
          "name": "C#2",
          "midi": 37,
          "time": 20.99999999999997,
          "velocity": 0.3543307086614173,
          "duration": 0.1958333333333364
        },
        {
          "name": "E2",
          "midi": 40,
          "time": 20.99999999999997,
          "velocity": 0.3543307086614173,
          "duration": 0.1958333333333364
        },
        {
          "name": "F4",
          "midi": 65,
          "time": 21.199999999999974,
          "velocity": 0.8661417322834646,
          "duration": 0.33333333333333215
        },
        {
          "name": "F3",
          "midi": 53,
          "time": 21.199999999999974,
          "velocity": 0.8661417322834646,
          "duration": 0.19583333333333286
        },
        {
          "name": "A3",
          "midi": 57,
          "time": 21.199999999999974,
          "velocity": 0.8661417322834646,
          "duration": 0.19583333333333286
        },
        {
          "name": "D4",
          "midi": 62,
          "time": 21.199999999999974,
          "velocity": 0.8661417322834646,
          "duration": 0.19583333333333286
        },
        {
          "name": "A2",
          "midi": 45,
          "time": 21.199999999999974,
          "velocity": 0.8661417322834646,
          "duration": 0.33333333333333215
        },
        {
          "name": "F4",
          "midi": 65,
          "time": 21.199999999999974,
          "velocity": 0.8661417322834646,
          "duration": 0.33333333333333215
        },
        {
          "name": "C#2",
          "midi": 37,
          "time": 21.199999999999974,
          "velocity": 0.3543307086614173,
          "duration": 0.19583333333333286
        },
        {
          "name": "E2",
          "midi": 40,
          "time": 21.199999999999974,
          "velocity": 0.3543307086614173,
          "duration": 0.19583333333333286
        },
        {
          "name": "F3",
          "midi": 53,
          "time": 21.399999999999974,
          "velocity": 0.8661417322834646,
          "duration": 0.19583333333333286
        },
        {
          "name": "A3",
          "midi": 57,
          "time": 21.399999999999974,
          "velocity": 0.8661417322834646,
          "duration": 0.19583333333333286
        },
        {
          "name": "D4",
          "midi": 62,
          "time": 21.399999999999974,
          "velocity": 0.8661417322834646,
          "duration": 0.19583333333333286
        },
        {
          "name": "C#2",
          "midi": 37,
          "time": 21.399999999999974,
          "velocity": 0.3543307086614173,
          "duration": 0.19583333333333286
        },
        {
          "name": "E2",
          "midi": 40,
          "time": 21.399999999999974,
          "velocity": 0.3543307086614173,
          "duration": 0.19583333333333286
        },
        {
          "name": "G4",
          "midi": 67,
          "time": 21.599999999999973,
          "velocity": 0.8661417322834646,
          "duration": 0.533333333333335
        },
        {
          "name": "G3",
          "midi": 55,
          "time": 21.599999999999973,
          "velocity": 0.8661417322834646,
          "duration": 0.19583333333333286
        },
        {
          "name": "A#3",
          "midi": 58,
          "time": 21.599999999999973,
          "velocity": 0.8661417322834646,
          "duration": 0.19583333333333286
        },
        {
          "name": "D4",
          "midi": 62,
          "time": 21.599999999999973,
          "velocity": 0.8661417322834646,
          "duration": 0.19583333333333286
        },
        {
          "name": "A#2",
          "midi": 46,
          "time": 21.599999999999973,
          "velocity": 0.8661417322834646,
          "duration": 0.3333333333333357
        },
        {
          "name": "D4",
          "midi": 62,
          "time": 21.599999999999973,
          "velocity": 0.8661417322834646,
          "duration": 0.2958333333333343
        },
        {
          "name": "C#2",
          "midi": 37,
          "time": 21.599999999999973,
          "velocity": 0.3543307086614173,
          "duration": 0.19583333333333286
        },
        {
          "name": "E2",
          "midi": 40,
          "time": 21.599999999999973,
          "velocity": 0.3543307086614173,
          "duration": 0.19583333333333286
        },
        {
          "name": "G3",
          "midi": 55,
          "time": 21.799999999999972,
          "velocity": 0.8661417322834646,
          "duration": 0.09583333333333499
        },
        {
          "name": "A#3",
          "midi": 58,
          "time": 21.799999999999972,
          "velocity": 0.8661417322834646,
          "duration": 0.09583333333333499
        },
        {
          "name": "D4",
          "midi": 62,
          "time": 21.799999999999972,
          "velocity": 0.8661417322834646,
          "duration": 0.1958333333333364
        },
        {
          "name": "C#2",
          "midi": 37,
          "time": 21.799999999999972,
          "velocity": 0.3543307086614173,
          "duration": 0.09583333333333499
        },
        {
          "name": "E2",
          "midi": 40,
          "time": 21.799999999999972,
          "velocity": 0.3543307086614173,
          "duration": 0.09583333333333499
        },
        {
          "name": "G3",
          "midi": 55,
          "time": 21.899999999999974,
          "velocity": 0.8661417322834646,
          "duration": 0.09583333333333499
        },
        {
          "name": "A#3",
          "midi": 58,
          "time": 21.899999999999974,
          "velocity": 0.8661417322834646,
          "duration": 0.09583333333333499
        },
        {
          "name": "D4",
          "midi": 62,
          "time": 21.899999999999974,
          "velocity": 0.8661417322834646,
          "duration": 0.2958333333333343
        },
        {
          "name": "C#2",
          "midi": 37,
          "time": 21.899999999999974,
          "velocity": 0.3543307086614173,
          "duration": 0.09583333333333499
        },
        {
          "name": "E2",
          "midi": 40,
          "time": 21.899999999999974,
          "velocity": 0.3543307086614173,
          "duration": 0.09583333333333499
        },
        {
          "name": "G3",
          "midi": 55,
          "time": 21.999999999999975,
          "velocity": 0.8661417322834646,
          "duration": 0.19583333333333286
        },
        {
          "name": "A#3",
          "midi": 58,
          "time": 21.999999999999975,
          "velocity": 0.8661417322834646,
          "duration": 0.19583333333333286
        },
        {
          "name": "D4",
          "midi": 62,
          "time": 21.999999999999975,
          "velocity": 0.8661417322834646,
          "duration": 0.39583333333333215
        },
        {
          "name": "C#2",
          "midi": 37,
          "time": 21.999999999999975,
          "velocity": 0.3543307086614173,
          "duration": 0.19583333333333286
        },
        {
          "name": "E2",
          "midi": 40,
          "time": 21.999999999999975,
          "velocity": 0.3543307086614173,
          "duration": 0.19583333333333286
        },
        {
          "name": "A4",
          "midi": 69,
          "time": 22.199999999999974,
          "velocity": 0.8661417322834646,
          "duration": 0.39583333333333215
        },
        {
          "name": "G3",
          "midi": 55,
          "time": 22.199999999999974,
          "velocity": 0.8661417322834646,
          "duration": 0.19583333333333286
        },
        {
          "name": "A#3",
          "midi": 58,
          "time": 22.199999999999974,
          "velocity": 0.8661417322834646,
          "duration": 0.19583333333333286
        },
        {
          "name": "D4",
          "midi": 62,
          "time": 22.199999999999974,
          "velocity": 0.8661417322834646,
          "duration": 0.39583333333333215
        },
        {
          "name": "C#2",
          "midi": 37,
          "time": 22.199999999999974,
          "velocity": 0.3543307086614173,
          "duration": 0.19583333333333286
        },
        {
          "name": "E2",
          "midi": 40,
          "time": 22.199999999999974,
          "velocity": 0.3543307086614173,
          "duration": 0.19583333333333286
        },
        {
          "name": "G3",
          "midi": 55,
          "time": 22.399999999999974,
          "velocity": 0.8661417322834646,
          "duration": 0.19583333333333286
        },
        {
          "name": "A#3",
          "midi": 58,
          "time": 22.399999999999974,
          "velocity": 0.8661417322834646,
          "duration": 0.19583333333333286
        },
        {
          "name": "D4",
          "midi": 62,
          "time": 22.399999999999974,
          "velocity": 0.8661417322834646,
          "duration": 0.39583333333333215
        },
        {
          "name": "A#2",
          "midi": 46,
          "time": 22.399999999999974,
          "velocity": 0.8661417322834646,
          "duration": 0.33333333333333215
        },
        {
          "name": "C#2",
          "midi": 37,
          "time": 22.399999999999974,
          "velocity": 0.3543307086614173,
          "duration": 0.19583333333333286
        },
        {
          "name": "E2",
          "midi": 40,
          "time": 22.399999999999974,
          "velocity": 0.3543307086614173,
          "duration": 0.19583333333333286
        },
        {
          "name": "A#4",
          "midi": 70,
          "time": 22.599999999999973,
          "velocity": 0.8661417322834646,
          "duration": 0.19583333333333286
        },
        {
          "name": "G3",
          "midi": 55,
          "time": 22.599999999999973,
          "velocity": 0.8661417322834646,
          "duration": 0.19583333333333286
        },
        {
          "name": "A#3",
          "midi": 58,
          "time": 22.599999999999973,
          "velocity": 0.8661417322834646,
          "duration": 0.19583333333333286
        },
        {
          "name": "D4",
          "midi": 62,
          "time": 22.599999999999973,
          "velocity": 0.8661417322834646,
          "duration": 0.1999999999999993
        },
        {
          "name": "C#2",
          "midi": 37,
          "time": 22.599999999999973,
          "velocity": 0.3543307086614173,
          "duration": 0.19583333333333286
        },
        {
          "name": "E2",
          "midi": 40,
          "time": 22.599999999999973,
          "velocity": 0.3543307086614173,
          "duration": 0.19583333333333286
        },
        {
          "name": "C5",
          "midi": 72,
          "time": 22.799999999999972,
          "velocity": 0.8661417322834646,
          "duration": 0.3333333333333357
        },
        {
          "name": "F3",
          "midi": 53,
          "time": 22.799999999999972,
          "velocity": 0.8661417322834646,
          "duration": 0.19583333333333286
        },
        {
          "name": "A3",
          "midi": 57,
          "time": 22.799999999999972,
          "velocity": 0.8661417322834646,
          "duration": 0.19583333333333286
        },
        {
          "name": "C4",
          "midi": 60,
          "time": 22.799999999999972,
          "velocity": 0.8661417322834646,
          "duration": 0.19583333333333286
        },
        {
          "name": "F2",
          "midi": 41,
          "time": 22.799999999999972,
          "velocity": 0.8661417322834646,
          "duration": 0.3333333333333357
        },
        {
          "name": "C4",
          "midi": 60,
          "time": 22.799999999999972,
          "velocity": 0.8661417322834646,
          "duration": 0.2958333333333343
        },
        {
          "name": "C#2",
          "midi": 37,
          "time": 22.799999999999972,
          "velocity": 0.3543307086614173,
          "duration": 0.19583333333333286
        },
        {
          "name": "E2",
          "midi": 40,
          "time": 22.799999999999972,
          "velocity": 0.3543307086614173,
          "duration": 0.19583333333333286
        },
        {
          "name": "F3",
          "midi": 53,
          "time": 22.99999999999997,
          "velocity": 0.8661417322834646,
          "duration": 0.09583333333333499
        },
        {
          "name": "A3",
          "midi": 57,
          "time": 22.99999999999997,
          "velocity": 0.8661417322834646,
          "duration": 0.09583333333333499
        },
        {
          "name": "C4",
          "midi": 60,
          "time": 22.99999999999997,
          "velocity": 0.8661417322834646,
          "duration": 0.1958333333333364
        },
        {
          "name": "C#2",
          "midi": 37,
          "time": 22.99999999999997,
          "velocity": 0.3543307086614173,
          "duration": 0.09583333333333499
        },
        {
          "name": "E2",
          "midi": 40,
          "time": 22.99999999999997,
          "velocity": 0.3543307086614173,
          "duration": 0.09583333333333499
        },
        {
          "name": "F3",
          "midi": 53,
          "time": 23.099999999999973,
          "velocity": 0.8661417322834646,
          "duration": 0.09583333333333499
        },
        {
          "name": "A3",
          "midi": 57,
          "time": 23.099999999999973,
          "velocity": 0.8661417322834646,
          "duration": 0.09583333333333499
        },
        {
          "name": "C4",
          "midi": 60,
          "time": 23.099999999999973,
          "velocity": 0.8661417322834646,
          "duration": 0.2958333333333343
        },
        {
          "name": "C#2",
          "midi": 37,
          "time": 23.099999999999973,
          "velocity": 0.3543307086614173,
          "duration": 0.09583333333333499
        },
        {
          "name": "E2",
          "midi": 40,
          "time": 23.099999999999973,
          "velocity": 0.3543307086614173,
          "duration": 0.09583333333333499
        },
        {
          "name": "A4",
          "midi": 69,
          "time": 23.199999999999974,
          "velocity": 0.8661417322834646,
          "duration": 0.33333333333333215
        },
        {
          "name": "F3",
          "midi": 53,
          "time": 23.199999999999974,
          "velocity": 0.8661417322834646,
          "duration": 0.19583333333333286
        },
        {
          "name": "A3",
          "midi": 57,
          "time": 23.199999999999974,
          "velocity": 0.8661417322834646,
          "duration": 0.19583333333333286
        },
        {
          "name": "C4",
          "midi": 60,
          "time": 23.199999999999974,
          "velocity": 0.8661417322834646,
          "duration": 0.39583333333333215
        },
        {
          "name": "C#2",
          "midi": 37,
          "time": 23.199999999999974,
          "velocity": 0.3543307086614173,
          "duration": 0.19583333333333286
        },
        {
          "name": "E2",
          "midi": 40,
          "time": 23.199999999999974,
          "velocity": 0.3543307086614173,
          "duration": 0.19583333333333286
        },
        {
          "name": "F3",
          "midi": 53,
          "time": 23.399999999999974,
          "velocity": 0.8661417322834646,
          "duration": 0.19583333333333286
        },
        {
          "name": "A3",
          "midi": 57,
          "time": 23.399999999999974,
          "velocity": 0.8661417322834646,
          "duration": 0.19583333333333286
        },
        {
          "name": "C4",
          "midi": 60,
          "time": 23.399999999999974,
          "velocity": 0.8661417322834646,
          "duration": 0.39583333333333215
        },
        {
          "name": "C#2",
          "midi": 37,
          "time": 23.399999999999974,
          "velocity": 0.3543307086614173,
          "duration": 0.19583333333333286
        },
        {
          "name": "E2",
          "midi": 40,
          "time": 23.399999999999974,
          "velocity": 0.3543307086614173,
          "duration": 0.19583333333333286
        },
        {
          "name": "C5",
          "midi": 72,
          "time": 23.599999999999973,
          "velocity": 0.8661417322834646,
          "duration": 0.3333333333333357
        },
        {
          "name": "F3",
          "midi": 53,
          "time": 23.599999999999973,
          "velocity": 0.8661417322834646,
          "duration": 0.19583333333333286
        },
        {
          "name": "A3",
          "midi": 57,
          "time": 23.599999999999973,
          "velocity": 0.8661417322834646,
          "duration": 0.19583333333333286
        },
        {
          "name": "C4",
          "midi": 60,
          "time": 23.599999999999973,
          "velocity": 0.8661417322834646,
          "duration": 0.3000000000000007
        },
        {
          "name": "F2",
          "midi": 41,
          "time": 23.599999999999973,
          "velocity": 0.8661417322834646,
          "duration": 0.3333333333333357
        },
        {
          "name": "C#2",
          "midi": 37,
          "time": 23.599999999999973,
          "velocity": 0.3543307086614173,
          "duration": 0.19583333333333286
        },
        {
          "name": "E2",
          "midi": 40,
          "time": 23.599999999999973,
          "velocity": 0.3543307086614173,
          "duration": 0.19583333333333286
        },
        {
          "name": "F3",
          "midi": 53,
          "time": 23.799999999999972,
          "velocity": 0.8661417322834646,
          "duration": 0.1958333333333364
        },
        {
          "name": "A3",
          "midi": 57,
          "time": 23.799999999999972,
          "velocity": 0.8661417322834646,
          "duration": 0.1958333333333364
        },
        {
          "name": "C4",
          "midi": 60,
          "time": 23.799999999999972,
          "velocity": 0.8661417322834646,
          "duration": 0.1958333333333364
        },
        {
          "name": "C#2",
          "midi": 37,
          "time": 23.799999999999972,
          "velocity": 0.3543307086614173,
          "duration": 0.1958333333333364
        },
        {
          "name": "E2",
          "midi": 40,
          "time": 23.799999999999972,
          "velocity": 0.3543307086614173,
          "duration": 0.1958333333333364
        },
        {
          "name": "C#5",
          "midi": 73,
          "time": 23.999999999999975,
          "velocity": 0.8661417322834646,
          "duration": 0.2958333333333343
        },
        {
          "name": "G3",
          "midi": 55,
          "time": 23.999999999999975,
          "velocity": 0.8661417322834646,
          "duration": 0.19583333333333286
        },
        {
          "name": "A3",
          "midi": 57,
          "time": 23.999999999999975,
          "velocity": 0.8661417322834646,
          "duration": 0.19583333333333286
        },
        {
          "name": "C#4",
          "midi": 61,
          "time": 23.999999999999975,
          "velocity": 0.8661417322834646,
          "duration": 0.19583333333333286
        },
        {
          "name": "E4",
          "midi": 64,
          "time": 23.999999999999975,
          "velocity": 0.8661417322834646,
          "duration": 0.19583333333333286
        },
        {
          "name": "E2",
          "midi": 40,
          "time": 23.999999999999975,
          "velocity": 0.8661417322834646,
          "duration": 0.19583333333333286
        },
        {
          "name": "C#2",
          "midi": 37,
          "time": 23.999999999999975,
          "velocity": 0.3543307086614173,
          "duration": 0.19583333333333286
        },
        {
          "name": "E2",
          "midi": 40,
          "time": 23.999999999999975,
          "velocity": 0.3543307086614173,
          "duration": 0.2958333333333343
        },
        {
          "name": "G3",
          "midi": 55,
          "time": 24.199999999999974,
          "velocity": 0.8661417322834646,
          "duration": 0.09583333333333499
        },
        {
          "name": "A3",
          "midi": 57,
          "time": 24.199999999999974,
          "velocity": 0.8661417322834646,
          "duration": 0.09583333333333499
        },
        {
          "name": "C#4",
          "midi": 61,
          "time": 24.199999999999974,
          "velocity": 0.8661417322834646,
          "duration": 0.09583333333333499
        },
        {
          "name": "E4",
          "midi": 64,
          "time": 24.199999999999974,
          "velocity": 0.8661417322834646,
          "duration": 0.09583333333333499
        },
        {
          "name": "G5",
          "midi": 79,
          "time": 24.199999999999974,
          "velocity": 0.8661417322834646,
          "duration": 0.09583333333333499
        },
        {
          "name": "C#5",
          "midi": 73,
          "time": 24.199999999999974,
          "velocity": 0.8661417322834646,
          "duration": 0.1958333333333364
        },
        {
          "name": "C#4",
          "midi": 61,
          "time": 24.199999999999974,
          "velocity": 0.8661417322834646,
          "duration": 0.09583333333333499
        },
        {
          "name": "C#2",
          "midi": 37,
          "time": 24.199999999999974,
          "velocity": 0.3543307086614173,
          "duration": 0.09583333333333499
        },
        {
          "name": "E2",
          "midi": 40,
          "time": 24.199999999999974,
          "velocity": 0.3543307086614173,
          "duration": 0.1333333333333364
        },
        {
          "name": "G3",
          "midi": 55,
          "time": 24.299999999999976,
          "velocity": 0.8661417322834646,
          "duration": 0.09583333333333499
        },
        {
          "name": "A3",
          "midi": 57,
          "time": 24.299999999999976,
          "velocity": 0.8661417322834646,
          "duration": 0.09583333333333499
        },
        {
          "name": "C#4",
          "midi": 61,
          "time": 24.299999999999976,
          "velocity": 0.8661417322834646,
          "duration": 0.09583333333333499
        },
        {
          "name": "E4",
          "midi": 64,
          "time": 24.299999999999976,
          "velocity": 0.8661417322834646,
          "duration": 0.09583333333333499
        },
        {
          "name": "A5",
          "midi": 81,
          "time": 24.299999999999976,
          "velocity": 0.8661417322834646,
          "duration": 0.09583333333333499
        },
        {
          "name": "C#5",
          "midi": 73,
          "time": 24.299999999999976,
          "velocity": 0.8661417322834646,
          "duration": 0.2958333333333343
        },
        {
          "name": "C#4",
          "midi": 61,
          "time": 24.299999999999976,
          "velocity": 0.8661417322834646,
          "duration": 0.09583333333333499
        },
        {
          "name": "C#2",
          "midi": 37,
          "time": 24.299999999999976,
          "velocity": 0.3543307086614173,
          "duration": 0.09583333333333499
        },
        {
          "name": "E2",
          "midi": 40,
          "time": 24.299999999999976,
          "velocity": 0.3543307086614173,
          "duration": 0.09583333333333499
        },
        {
          "name": "G3",
          "midi": 55,
          "time": 24.399999999999977,
          "velocity": 0.8661417322834646,
          "duration": 0.19583333333333286
        },
        {
          "name": "A3",
          "midi": 57,
          "time": 24.399999999999977,
          "velocity": 0.8661417322834646,
          "duration": 0.19583333333333286
        },
        {
          "name": "C#4",
          "midi": 61,
          "time": 24.399999999999977,
          "velocity": 0.8661417322834646,
          "duration": 0.19583333333333286
        },
        {
          "name": "E4",
          "midi": 64,
          "time": 24.399999999999977,
          "velocity": 0.8661417322834646,
          "duration": 0.19583333333333286
        },
        {
          "name": "C#6",
          "midi": 85,
          "time": 24.399999999999977,
          "velocity": 0.8661417322834646,
          "duration": 0.19583333333333286
        },
        {
          "name": "C#5",
          "midi": 73,
          "time": 24.399999999999977,
          "velocity": 0.8661417322834646,
          "duration": 0.5958333333333314
        },
        {
          "name": "C#4",
          "midi": 61,
          "time": 24.399999999999977,
          "velocity": 0.8661417322834646,
          "duration": 0.19583333333333286
        },
        {
          "name": "C#2",
          "midi": 37,
          "time": 24.399999999999977,
          "velocity": 0.3543307086614173,
          "duration": 0.19583333333333286
        },
        {
          "name": "E2",
          "midi": 40,
          "time": 24.399999999999977,
          "velocity": 0.3543307086614173,
          "duration": 0.19583333333333286
        },
        {
          "name": "G3",
          "midi": 55,
          "time": 24.599999999999977,
          "velocity": 0.8661417322834646,
          "duration": 0.19583333333333286
        },
        {
          "name": "A3",
          "midi": 57,
          "time": 24.599999999999977,
          "velocity": 0.8661417322834646,
          "duration": 0.19583333333333286
        },
        {
          "name": "C#4",
          "midi": 61,
          "time": 24.599999999999977,
          "velocity": 0.8661417322834646,
          "duration": 0.19583333333333286
        },
        {
          "name": "E4",
          "midi": 64,
          "time": 24.599999999999977,
          "velocity": 0.8661417322834646,
          "duration": 0.19583333333333286
        },
        {
          "name": "A2",
          "midi": 45,
          "time": 24.599999999999977,
          "velocity": 0.8661417322834646,
          "duration": 0.39583333333333215
        },
        {
          "name": "F6",
          "midi": 89,
          "time": 24.599999999999977,
          "velocity": 0.8661417322834646,
          "duration": 0.39583333333333215
        },
        {
          "name": "C#5",
          "midi": 73,
          "time": 24.599999999999977,
          "velocity": 0.8661417322834646,
          "duration": 0.5
        },
        {
          "name": "C#4",
          "midi": 61,
          "time": 24.599999999999977,
          "velocity": 0.8661417322834646,
          "duration": 0.39583333333333215
        },
        {
          "name": "C#2",
          "midi": 37,
          "time": 24.599999999999977,
          "velocity": 0.3543307086614173,
          "duration": 0.19583333333333286
        },
        {
          "name": "E2",
          "midi": 40,
          "time": 24.599999999999977,
          "velocity": 0.3543307086614173,
          "duration": 0.19583333333333286
        },
        {
          "name": "G3",
          "midi": 55,
          "time": 24.799999999999976,
          "velocity": 0.8661417322834646,
          "duration": 0.19583333333333286
        },
        {
          "name": "A3",
          "midi": 57,
          "time": 24.799999999999976,
          "velocity": 0.8661417322834646,
          "duration": 0.19583333333333286
        },
        {
          "name": "C#4",
          "midi": 61,
          "time": 24.799999999999976,
          "velocity": 0.8661417322834646,
          "duration": 0.19583333333333286
        },
        {
          "name": "E4",
          "midi": 64,
          "time": 24.799999999999976,
          "velocity": 0.8661417322834646,
          "duration": 0.19583333333333286
        },
        {
          "name": "C#2",
          "midi": 37,
          "time": 24.799999999999976,
          "velocity": 0.3543307086614173,
          "duration": 0.19583333333333286
        },
        {
          "name": "E2",
          "midi": 40,
          "time": 24.799999999999976,
          "velocity": 0.3543307086614173,
          "duration": 0.19583333333333286
        },
        {
          "name": "G3",
          "midi": 55,
          "time": 24.999999999999975,
          "velocity": 0.8661417322834646,
          "duration": 0.1958333333333364
        },
        {
          "name": "A3",
          "midi": 57,
          "time": 24.999999999999975,
          "velocity": 0.8661417322834646,
          "duration": 0.1958333333333364
        },
        {
          "name": "C#4",
          "midi": 61,
          "time": 24.999999999999975,
          "velocity": 0.8661417322834646,
          "duration": 0.1958333333333364
        },
        {
          "name": "E4",
          "midi": 64,
          "time": 24.999999999999975,
          "velocity": 0.8661417322834646,
          "duration": 0.1958333333333364
        },
        {
          "name": "A2",
          "midi": 45,
          "time": 24.999999999999975,
          "velocity": 0.8661417322834646,
          "duration": 0.1958333333333364
        },
        {
          "name": "E6",
          "midi": 88,
          "time": 24.999999999999975,
          "velocity": 0.8661417322834646,
          "duration": 0.1958333333333364
        },
        {
          "name": "C#5",
          "midi": 73,
          "time": 24.999999999999975,
          "velocity": 0.8661417322834646,
          "duration": 0.1958333333333364
        },
        {
          "name": "C#4",
          "midi": 61,
          "time": 24.999999999999975,
          "velocity": 0.8661417322834646,
          "duration": 0.1958333333333364
        },
        {
          "name": "C#2",
          "midi": 37,
          "time": 24.999999999999975,
          "velocity": 0.3543307086614173,
          "duration": 0.1958333333333364
        },
        {
          "name": "E2",
          "midi": 40,
          "time": 24.999999999999975,
          "velocity": 0.3543307086614173,
          "duration": 0.1958333333333364
        },
        {
          "name": "G3",
          "midi": 55,
          "time": 25.199999999999978,
          "velocity": 0.8661417322834646,
          "duration": 0.10000000000000142
        },
        {
          "name": "A3",
          "midi": 57,
          "time": 25.199999999999978,
          "velocity": 0.8661417322834646,
          "duration": 0.10000000000000142
        },
        {
          "name": "C#4",
          "midi": 61,
          "time": 25.199999999999978,
          "velocity": 0.8661417322834646,
          "duration": 0.10000000000000142
        },
        {
          "name": "E4",
          "midi": 64,
          "time": 25.199999999999978,
          "velocity": 0.8661417322834646,
          "duration": 0.10000000000000142
        },
        {
          "name": "A1",
          "midi": 33,
          "time": 25.199999999999978,
          "velocity": 0.8661417322834646,
          "duration": 0.10000000000000142
        },
        {
          "name": "A6",
          "midi": 93,
          "time": 25.199999999999978,
          "velocity": 0.8661417322834646,
          "duration": 0.10000000000000142
        },
        {
          "name": "E5",
          "midi": 76,
          "time": 25.199999999999978,
          "velocity": 0.8661417322834646,
          "duration": 0.10000000000000142
        },
        {
          "name": "E4",
          "midi": 64,
          "time": 25.199999999999978,
          "velocity": 0.8661417322834646,
          "duration": 0.10000000000000142
        },
        {
          "name": "C#2",
          "midi": 37,
          "time": 25.199999999999978,
          "velocity": 0.3543307086614173,
          "duration": 0.10000000000000142
        },
        {
          "name": "E2",
          "midi": 40,
          "time": 25.199999999999978,
          "velocity": 0.3543307086614173,
          "duration": 0.10000000000000142
        },
        {
          "name": "D5",
          "midi": 74,
          "time": 25.59999999999998,
          "velocity": 0.8661417322834646,
          "duration": 0.33333333333333215
        },
        {
          "name": "C#5",
          "midi": 73,
          "time": 25.99999999999998,
          "velocity": 0.8661417322834646,
          "duration": 0.33333333333333215
        },
        {
          "name": "D5",
          "midi": 74,
          "time": 26.399999999999977,
          "velocity": 0.8661417322834646,
          "duration": 0.19583333333333286
        },
        {
          "name": "D2",
          "midi": 38,
          "time": 26.399999999999977,
          "velocity": 0.8661417322834646,
          "duration": 0.3333333333333357
        },
        {
          "name": "D3",
          "midi": 50,
          "time": 26.399999999999977,
          "velocity": 0.8661417322834646,
          "duration": 0.3333333333333357
        },
        {
          "name": "D5",
          "midi": 74,
          "time": 26.399999999999977,
          "velocity": 0.8661417322834646,
          "duration": 0.2958333333333343
        },
        {
          "name": "D4",
          "midi": 62,
          "time": 26.399999999999977,
          "velocity": 0.8661417322834646,
          "duration": 0.19583333333333286
        },
        {
          "name": "F#4",
          "midi": 66,
          "time": 26.399999999999977,
          "velocity": 0.8661417322834646,
          "duration": 0.19583333333333286
        },
        {
          "name": "A4",
          "midi": 69,
          "time": 26.399999999999977,
          "velocity": 0.8661417322834646,
          "duration": 0.19583333333333286
        },
        {
          "name": "C#2",
          "midi": 37,
          "time": 26.399999999999977,
          "velocity": 0.3543307086614173,
          "duration": 0.19583333333333286
        },
        {
          "name": "E2",
          "midi": 40,
          "time": 26.399999999999977,
          "velocity": 0.3543307086614173,
          "duration": 0.19583333333333286
        },
        {
          "name": "D5",
          "midi": 74,
          "time": 26.599999999999977,
          "velocity": 0.8661417322834646,
          "duration": 0.1958333333333364
        },
        {
          "name": "D4",
          "midi": 62,
          "time": 26.599999999999977,
          "velocity": 0.8661417322834646,
          "duration": 0.09583333333333499
        },
        {
          "name": "F#4",
          "midi": 66,
          "time": 26.599999999999977,
          "velocity": 0.8661417322834646,
          "duration": 0.09583333333333499
        },
        {
          "name": "A4",
          "midi": 69,
          "time": 26.599999999999977,
          "velocity": 0.8661417322834646,
          "duration": 0.09583333333333499
        },
        {
          "name": "C#2",
          "midi": 37,
          "time": 26.599999999999977,
          "velocity": 0.3543307086614173,
          "duration": 0.09583333333333499
        },
        {
          "name": "E2",
          "midi": 40,
          "time": 26.599999999999977,
          "velocity": 0.3543307086614173,
          "duration": 0.09583333333333499
        },
        {
          "name": "D5",
          "midi": 74,
          "time": 26.699999999999978,
          "velocity": 0.8661417322834646,
          "duration": 0.23333333333333428
        },
        {
          "name": "D4",
          "midi": 62,
          "time": 26.699999999999978,
          "velocity": 0.8661417322834646,
          "duration": 0.09583333333333499
        },
        {
          "name": "F#4",
          "midi": 66,
          "time": 26.699999999999978,
          "velocity": 0.8661417322834646,
          "duration": 0.09583333333333499
        },
        {
          "name": "A4",
          "midi": 69,
          "time": 26.699999999999978,
          "velocity": 0.8661417322834646,
          "duration": 0.09583333333333499
        },
        {
          "name": "C#2",
          "midi": 37,
          "time": 26.699999999999978,
          "velocity": 0.3543307086614173,
          "duration": 0.09583333333333499
        },
        {
          "name": "E2",
          "midi": 40,
          "time": 26.699999999999978,
          "velocity": 0.3543307086614173,
          "duration": 0.09583333333333499
        },
        {
          "name": "A2",
          "midi": 45,
          "time": 26.79999999999998,
          "velocity": 0.8661417322834646,
          "duration": 0.19583333333333286
        },
        {
          "name": "D5",
          "midi": 74,
          "time": 26.79999999999998,
          "velocity": 0.8661417322834646,
          "duration": 0.19583333333333286
        },
        {
          "name": "D4",
          "midi": 62,
          "time": 26.79999999999998,
          "velocity": 0.8661417322834646,
          "duration": 0.19583333333333286
        },
        {
          "name": "F#4",
          "midi": 66,
          "time": 26.79999999999998,
          "velocity": 0.8661417322834646,
          "duration": 0.19583333333333286
        },
        {
          "name": "A4",
          "midi": 69,
          "time": 26.79999999999998,
          "velocity": 0.8661417322834646,
          "duration": 0.19583333333333286
        },
        {
          "name": "C#2",
          "midi": 37,
          "time": 26.79999999999998,
          "velocity": 0.3543307086614173,
          "duration": 0.19583333333333286
        },
        {
          "name": "E2",
          "midi": 40,
          "time": 26.79999999999998,
          "velocity": 0.3543307086614173,
          "duration": 0.19583333333333286
        },
        {
          "name": "D5",
          "midi": 74,
          "time": 26.99999999999998,
          "velocity": 0.8661417322834646,
          "duration": 0.39583333333333215
        },
        {
          "name": "D3",
          "midi": 50,
          "time": 26.99999999999998,
          "velocity": 0.8661417322834646,
          "duration": 0.39583333333333215
        },
        {
          "name": "D5",
          "midi": 74,
          "time": 26.99999999999998,
          "velocity": 0.8661417322834646,
          "duration": 0.39583333333333215
        },
        {
          "name": "D4",
          "midi": 62,
          "time": 26.99999999999998,
          "velocity": 0.8661417322834646,
          "duration": 0.19583333333333286
        },
        {
          "name": "F#4",
          "midi": 66,
          "time": 26.99999999999998,
          "velocity": 0.8661417322834646,
          "duration": 0.19583333333333286
        },
        {
          "name": "A4",
          "midi": 69,
          "time": 26.99999999999998,
          "velocity": 0.8661417322834646,
          "duration": 0.19583333333333286
        },
        {
          "name": "C#2",
          "midi": 37,
          "time": 26.99999999999998,
          "velocity": 0.3543307086614173,
          "duration": 0.19583333333333286
        },
        {
          "name": "E2",
          "midi": 40,
          "time": 26.99999999999998,
          "velocity": 0.3543307086614173,
          "duration": 0.19583333333333286
        },
        {
          "name": "D4",
          "midi": 62,
          "time": 27.199999999999978,
          "velocity": 0.8661417322834646,
          "duration": 0.19583333333333286
        },
        {
          "name": "F#4",
          "midi": 66,
          "time": 27.199999999999978,
          "velocity": 0.8661417322834646,
          "duration": 0.19583333333333286
        },
        {
          "name": "A4",
          "midi": 69,
          "time": 27.199999999999978,
          "velocity": 0.8661417322834646,
          "duration": 0.19583333333333286
        },
        {
          "name": "C#2",
          "midi": 37,
          "time": 27.199999999999978,
          "velocity": 0.3543307086614173,
          "duration": 0.19583333333333286
        },
        {
          "name": "E2",
          "midi": 40,
          "time": 27.199999999999978,
          "velocity": 0.3543307086614173,
          "duration": 0.19583333333333286
        },
        {
          "name": "C#5",
          "midi": 73,
          "time": 27.399999999999977,
          "velocity": 0.8661417322834646,
          "duration": 0.19583333333333286
        },
        {
          "name": "A2",
          "midi": 45,
          "time": 27.399999999999977,
          "velocity": 0.8661417322834646,
          "duration": 0.19583333333333286
        },
        {
          "name": "C#5",
          "midi": 73,
          "time": 27.399999999999977,
          "velocity": 0.8661417322834646,
          "duration": 0.19583333333333286
        },
        {
          "name": "C#4",
          "midi": 61,
          "time": 27.399999999999977,
          "velocity": 0.8661417322834646,
          "duration": 0.19583333333333286
        },
        {
          "name": "E4",
          "midi": 64,
          "time": 27.399999999999977,
          "velocity": 0.8661417322834646,
          "duration": 0.19583333333333286
        },
        {
          "name": "A4",
          "midi": 69,
          "time": 27.399999999999977,
          "velocity": 0.8661417322834646,
          "duration": 0.19583333333333286
        },
        {
          "name": "C#2",
          "midi": 37,
          "time": 27.399999999999977,
          "velocity": 0.3543307086614173,
          "duration": 0.19583333333333286
        },
        {
          "name": "E2",
          "midi": 40,
          "time": 27.399999999999977,
          "velocity": 0.3543307086614173,
          "duration": 0.19583333333333286
        },
        {
          "name": "D5",
          "midi": 74,
          "time": 27.599999999999977,
          "velocity": 0.8661417322834646,
          "duration": 0.3333333333333357
        },
        {
          "name": "D2",
          "midi": 38,
          "time": 27.599999999999977,
          "velocity": 0.8661417322834646,
          "duration": 0.3333333333333357
        },
        {
          "name": "D3",
          "midi": 50,
          "time": 27.599999999999977,
          "velocity": 0.8661417322834646,
          "duration": 0.3333333333333357
        },
        {
          "name": "D5",
          "midi": 74,
          "time": 27.599999999999977,
          "velocity": 0.8661417322834646,
          "duration": 0.3333333333333357
        },
        {
          "name": "D4",
          "midi": 62,
          "time": 27.599999999999977,
          "velocity": 0.8661417322834646,
          "duration": 0.19583333333333286
        },
        {
          "name": "F#4",
          "midi": 66,
          "time": 27.599999999999977,
          "velocity": 0.8661417322834646,
          "duration": 0.19583333333333286
        },
        {
          "name": "A4",
          "midi": 69,
          "time": 27.599999999999977,
          "velocity": 0.8661417322834646,
          "duration": 0.19583333333333286
        },
        {
          "name": "C#2",
          "midi": 37,
          "time": 27.599999999999977,
          "velocity": 0.3543307086614173,
          "duration": 0.19583333333333286
        },
        {
          "name": "E2",
          "midi": 40,
          "time": 27.599999999999977,
          "velocity": 0.3543307086614173,
          "duration": 0.19583333333333286
        },
        {
          "name": "D4",
          "midi": 62,
          "time": 27.799999999999976,
          "velocity": 0.8661417322834646,
          "duration": 0.1958333333333364
        },
        {
          "name": "F#4",
          "midi": 66,
          "time": 27.799999999999976,
          "velocity": 0.8661417322834646,
          "duration": 0.1958333333333364
        },
        {
          "name": "A4",
          "midi": 69,
          "time": 27.799999999999976,
          "velocity": 0.8661417322834646,
          "duration": 0.1958333333333364
        },
        {
          "name": "C#2",
          "midi": 37,
          "time": 27.799999999999976,
          "velocity": 0.3543307086614173,
          "duration": 0.09583333333333499
        },
        {
          "name": "E2",
          "midi": 40,
          "time": 27.799999999999976,
          "velocity": 0.3543307086614173,
          "duration": 0.09583333333333499
        },
        {
          "name": "C#2",
          "midi": 37,
          "time": 27.899999999999977,
          "velocity": 0.3543307086614173,
          "duration": 0.09583333333333499
        },
        {
          "name": "E2",
          "midi": 40,
          "time": 27.899999999999977,
          "velocity": 0.3543307086614173,
          "duration": 0.09583333333333499
        },
        {
          "name": "A4",
          "midi": 69,
          "time": 27.99999999999998,
          "velocity": 0.8661417322834646,
          "duration": 0.33333333333333215
        },
        {
          "name": "D2",
          "midi": 38,
          "time": 27.99999999999998,
          "velocity": 0.8661417322834646,
          "duration": 0.33333333333333215
        },
        {
          "name": "D3",
          "midi": 50,
          "time": 27.99999999999998,
          "velocity": 0.8661417322834646,
          "duration": 0.33333333333333215
        },
        {
          "name": "A4",
          "midi": 69,
          "time": 27.99999999999998,
          "velocity": 0.8661417322834646,
          "duration": 0.33333333333333215
        },
        {
          "name": "D4",
          "midi": 62,
          "time": 27.99999999999998,
          "velocity": 0.8661417322834646,
          "duration": 0.19583333333333286
        },
        {
          "name": "F#4",
          "midi": 66,
          "time": 27.99999999999998,
          "velocity": 0.8661417322834646,
          "duration": 0.19583333333333286
        },
        {
          "name": "C#2",
          "midi": 37,
          "time": 27.99999999999998,
          "velocity": 0.3543307086614173,
          "duration": 0.19583333333333286
        },
        {
          "name": "E2",
          "midi": 40,
          "time": 27.99999999999998,
          "velocity": 0.3543307086614173,
          "duration": 0.19583333333333286
        },
        {
          "name": "D4",
          "midi": 62,
          "time": 28.199999999999978,
          "velocity": 0.8661417322834646,
          "duration": 0.19583333333333286
        },
        {
          "name": "F#4",
          "midi": 66,
          "time": 28.199999999999978,
          "velocity": 0.8661417322834646,
          "duration": 0.19583333333333286
        },
        {
          "name": "C#2",
          "midi": 37,
          "time": 28.199999999999978,
          "velocity": 0.3543307086614173,
          "duration": 0.19583333333333286
        },
        {
          "name": "E2",
          "midi": 40,
          "time": 28.199999999999978,
          "velocity": 0.3543307086614173,
          "duration": 0.19583333333333286
        },
        {
          "name": "C#5",
          "midi": 73,
          "time": 28.399999999999977,
          "velocity": 0.8661417322834646,
          "duration": 0.33333333333333215
        },
        {
          "name": "A2",
          "midi": 45,
          "time": 28.399999999999977,
          "velocity": 0.8661417322834646,
          "duration": 0.33333333333333215
        },
        {
          "name": "C#5",
          "midi": 73,
          "time": 28.399999999999977,
          "velocity": 0.8661417322834646,
          "duration": 0.33333333333333215
        },
        {
          "name": "C#4",
          "midi": 61,
          "time": 28.399999999999977,
          "velocity": 0.8661417322834646,
          "duration": 0.19583333333333286
        },
        {
          "name": "E4",
          "midi": 64,
          "time": 28.399999999999977,
          "velocity": 0.8661417322834646,
          "duration": 0.19583333333333286
        },
        {
          "name": "C#2",
          "midi": 37,
          "time": 28.399999999999977,
          "velocity": 0.3543307086614173,
          "duration": 0.19583333333333286
        },
        {
          "name": "E2",
          "midi": 40,
          "time": 28.399999999999977,
          "velocity": 0.3543307086614173,
          "duration": 0.19583333333333286
        },
        {
          "name": "C#4",
          "midi": 61,
          "time": 28.599999999999977,
          "velocity": 0.8661417322834646,
          "duration": 0.19583333333333286
        },
        {
          "name": "E4",
          "midi": 64,
          "time": 28.599999999999977,
          "velocity": 0.8661417322834646,
          "duration": 0.19583333333333286
        },
        {
          "name": "C#2",
          "midi": 37,
          "time": 28.599999999999977,
          "velocity": 0.3543307086614173,
          "duration": 0.19583333333333286
        },
        {
          "name": "E2",
          "midi": 40,
          "time": 28.599999999999977,
          "velocity": 0.3543307086614173,
          "duration": 0.19583333333333286
        },
        {
          "name": "D5",
          "midi": 74,
          "time": 28.799999999999976,
          "velocity": 0.8661417322834646,
          "duration": 0.19583333333333286
        },
        {
          "name": "D2",
          "midi": 38,
          "time": 28.799999999999976,
          "velocity": 0.8661417322834646,
          "duration": 0.3333333333333357
        },
        {
          "name": "D3",
          "midi": 50,
          "time": 28.799999999999976,
          "velocity": 0.8661417322834646,
          "duration": 0.3333333333333357
        },
        {
          "name": "D5",
          "midi": 74,
          "time": 28.799999999999976,
          "velocity": 0.8661417322834646,
          "duration": 0.2958333333333343
        },
        {
          "name": "D4",
          "midi": 62,
          "time": 28.799999999999976,
          "velocity": 0.8661417322834646,
          "duration": 0.19583333333333286
        },
        {
          "name": "F#4",
          "midi": 66,
          "time": 28.799999999999976,
          "velocity": 0.8661417322834646,
          "duration": 0.19583333333333286
        },
        {
          "name": "A4",
          "midi": 69,
          "time": 28.799999999999976,
          "velocity": 0.8661417322834646,
          "duration": 0.19583333333333286
        },
        {
          "name": "C#2",
          "midi": 37,
          "time": 28.799999999999976,
          "velocity": 0.3543307086614173,
          "duration": 0.19583333333333286
        },
        {
          "name": "E2",
          "midi": 40,
          "time": 28.799999999999976,
          "velocity": 0.3543307086614173,
          "duration": 0.19583333333333286
        },
        {
          "name": "D5",
          "midi": 74,
          "time": 28.999999999999975,
          "velocity": 0.8661417322834646,
          "duration": 0.1958333333333364
        },
        {
          "name": "D4",
          "midi": 62,
          "time": 28.999999999999975,
          "velocity": 0.8661417322834646,
          "duration": 0.09583333333333499
        },
        {
          "name": "F#4",
          "midi": 66,
          "time": 28.999999999999975,
          "velocity": 0.8661417322834646,
          "duration": 0.09583333333333499
        },
        {
          "name": "A4",
          "midi": 69,
          "time": 28.999999999999975,
          "velocity": 0.8661417322834646,
          "duration": 0.09583333333333499
        },
        {
          "name": "C#2",
          "midi": 37,
          "time": 28.999999999999975,
          "velocity": 0.3543307086614173,
          "duration": 0.09583333333333499
        },
        {
          "name": "E2",
          "midi": 40,
          "time": 28.999999999999975,
          "velocity": 0.3543307086614173,
          "duration": 0.09583333333333499
        },
        {
          "name": "D5",
          "midi": 74,
          "time": 29.099999999999977,
          "velocity": 0.8661417322834646,
          "duration": 0.23333333333333428
        },
        {
          "name": "D4",
          "midi": 62,
          "time": 29.099999999999977,
          "velocity": 0.8661417322834646,
          "duration": 0.09583333333333499
        },
        {
          "name": "F#4",
          "midi": 66,
          "time": 29.099999999999977,
          "velocity": 0.8661417322834646,
          "duration": 0.09583333333333499
        },
        {
          "name": "A4",
          "midi": 69,
          "time": 29.099999999999977,
          "velocity": 0.8661417322834646,
          "duration": 0.09583333333333499
        },
        {
          "name": "C#2",
          "midi": 37,
          "time": 29.099999999999977,
          "velocity": 0.3543307086614173,
          "duration": 0.09583333333333499
        },
        {
          "name": "E2",
          "midi": 40,
          "time": 29.099999999999977,
          "velocity": 0.3543307086614173,
          "duration": 0.09583333333333499
        },
        {
          "name": "A2",
          "midi": 45,
          "time": 29.199999999999978,
          "velocity": 0.8661417322834646,
          "duration": 0.19583333333333286
        },
        {
          "name": "D5",
          "midi": 74,
          "time": 29.199999999999978,
          "velocity": 0.8661417322834646,
          "duration": 0.19583333333333286
        },
        {
          "name": "D4",
          "midi": 62,
          "time": 29.199999999999978,
          "velocity": 0.8661417322834646,
          "duration": 0.19583333333333286
        },
        {
          "name": "F#4",
          "midi": 66,
          "time": 29.199999999999978,
          "velocity": 0.8661417322834646,
          "duration": 0.19583333333333286
        },
        {
          "name": "A4",
          "midi": 69,
          "time": 29.199999999999978,
          "velocity": 0.8661417322834646,
          "duration": 0.19583333333333286
        },
        {
          "name": "C#2",
          "midi": 37,
          "time": 29.199999999999978,
          "velocity": 0.3543307086614173,
          "duration": 0.19583333333333286
        },
        {
          "name": "E2",
          "midi": 40,
          "time": 29.199999999999978,
          "velocity": 0.3543307086614173,
          "duration": 0.19583333333333286
        },
        {
          "name": "D5",
          "midi": 74,
          "time": 29.399999999999977,
          "velocity": 0.8661417322834646,
          "duration": 0.39583333333333215
        },
        {
          "name": "D3",
          "midi": 50,
          "time": 29.399999999999977,
          "velocity": 0.8661417322834646,
          "duration": 0.39583333333333215
        },
        {
          "name": "D5",
          "midi": 74,
          "time": 29.399999999999977,
          "velocity": 0.8661417322834646,
          "duration": 0.39583333333333215
        },
        {
          "name": "D4",
          "midi": 62,
          "time": 29.399999999999977,
          "velocity": 0.8661417322834646,
          "duration": 0.19583333333333286
        },
        {
          "name": "F#4",
          "midi": 66,
          "time": 29.399999999999977,
          "velocity": 0.8661417322834646,
          "duration": 0.19583333333333286
        },
        {
          "name": "A4",
          "midi": 69,
          "time": 29.399999999999977,
          "velocity": 0.8661417322834646,
          "duration": 0.19583333333333286
        },
        {
          "name": "C#2",
          "midi": 37,
          "time": 29.399999999999977,
          "velocity": 0.3543307086614173,
          "duration": 0.19583333333333286
        },
        {
          "name": "E2",
          "midi": 40,
          "time": 29.399999999999977,
          "velocity": 0.3543307086614173,
          "duration": 0.19583333333333286
        },
        {
          "name": "D4",
          "midi": 62,
          "time": 29.599999999999977,
          "velocity": 0.8661417322834646,
          "duration": 0.19583333333333286
        },
        {
          "name": "F#4",
          "midi": 66,
          "time": 29.599999999999977,
          "velocity": 0.8661417322834646,
          "duration": 0.19583333333333286
        },
        {
          "name": "A4",
          "midi": 69,
          "time": 29.599999999999977,
          "velocity": 0.8661417322834646,
          "duration": 0.19583333333333286
        },
        {
          "name": "C#2",
          "midi": 37,
          "time": 29.599999999999977,
          "velocity": 0.3543307086614173,
          "duration": 0.19583333333333286
        },
        {
          "name": "E2",
          "midi": 40,
          "time": 29.599999999999977,
          "velocity": 0.3543307086614173,
          "duration": 0.19583333333333286
        },
        {
          "name": "C#5",
          "midi": 73,
          "time": 29.799999999999976,
          "velocity": 0.8661417322834646,
          "duration": 0.19583333333333286
        },
        {
          "name": "A2",
          "midi": 45,
          "time": 29.799999999999976,
          "velocity": 0.8661417322834646,
          "duration": 0.19583333333333286
        },
        {
          "name": "C#5",
          "midi": 73,
          "time": 29.799999999999976,
          "velocity": 0.8661417322834646,
          "duration": 0.19583333333333286
        },
        {
          "name": "C#4",
          "midi": 61,
          "time": 29.799999999999976,
          "velocity": 0.8661417322834646,
          "duration": 0.19583333333333286
        },
        {
          "name": "E4",
          "midi": 64,
          "time": 29.799999999999976,
          "velocity": 0.8661417322834646,
          "duration": 0.19583333333333286
        },
        {
          "name": "A4",
          "midi": 69,
          "time": 29.799999999999976,
          "velocity": 0.8661417322834646,
          "duration": 0.19583333333333286
        },
        {
          "name": "C#2",
          "midi": 37,
          "time": 29.799999999999976,
          "velocity": 0.3543307086614173,
          "duration": 0.19583333333333286
        },
        {
          "name": "E2",
          "midi": 40,
          "time": 29.799999999999976,
          "velocity": 0.3543307086614173,
          "duration": 0.19583333333333286
        },
        {
          "name": "D5",
          "midi": 74,
          "time": 29.999999999999975,
          "velocity": 0.8661417322834646,
          "duration": 0.3333333333333357
        },
        {
          "name": "D2",
          "midi": 38,
          "time": 29.999999999999975,
          "velocity": 0.8661417322834646,
          "duration": 0.3333333333333357
        },
        {
          "name": "D3",
          "midi": 50,
          "time": 29.999999999999975,
          "velocity": 0.8661417322834646,
          "duration": 0.3333333333333357
        },
        {
          "name": "D5",
          "midi": 74,
          "time": 29.999999999999975,
          "velocity": 0.8661417322834646,
          "duration": 0.3333333333333357
        },
        {
          "name": "D4",
          "midi": 62,
          "time": 29.999999999999975,
          "velocity": 0.8661417322834646,
          "duration": 0.19583333333333286
        },
        {
          "name": "F#4",
          "midi": 66,
          "time": 29.999999999999975,
          "velocity": 0.8661417322834646,
          "duration": 0.19583333333333286
        },
        {
          "name": "A4",
          "midi": 69,
          "time": 29.999999999999975,
          "velocity": 0.8661417322834646,
          "duration": 0.19583333333333286
        },
        {
          "name": "C#2",
          "midi": 37,
          "time": 29.999999999999975,
          "velocity": 0.3543307086614173,
          "duration": 0.19583333333333286
        },
        {
          "name": "E2",
          "midi": 40,
          "time": 29.999999999999975,
          "velocity": 0.3543307086614173,
          "duration": 0.19583333333333286
        },
        {
          "name": "D4",
          "midi": 62,
          "time": 30.199999999999974,
          "velocity": 0.8661417322834646,
          "duration": 0.1958333333333364
        },
        {
          "name": "F#4",
          "midi": 66,
          "time": 30.199999999999974,
          "velocity": 0.8661417322834646,
          "duration": 0.1958333333333364
        },
        {
          "name": "A4",
          "midi": 69,
          "time": 30.199999999999974,
          "velocity": 0.8661417322834646,
          "duration": 0.1958333333333364
        },
        {
          "name": "C#2",
          "midi": 37,
          "time": 30.199999999999974,
          "velocity": 0.3543307086614173,
          "duration": 0.09583333333333499
        },
        {
          "name": "E2",
          "midi": 40,
          "time": 30.199999999999974,
          "velocity": 0.3543307086614173,
          "duration": 0.09583333333333499
        },
        {
          "name": "C#2",
          "midi": 37,
          "time": 30.299999999999976,
          "velocity": 0.3543307086614173,
          "duration": 0.09583333333333499
        },
        {
          "name": "E2",
          "midi": 40,
          "time": 30.299999999999976,
          "velocity": 0.3543307086614173,
          "duration": 0.09583333333333499
        },
        {
          "name": "A4",
          "midi": 69,
          "time": 30.399999999999977,
          "velocity": 0.8661417322834646,
          "duration": 0.33333333333333215
        },
        {
          "name": "D2",
          "midi": 38,
          "time": 30.399999999999977,
          "velocity": 0.8661417322834646,
          "duration": 0.33333333333333215
        },
        {
          "name": "D3",
          "midi": 50,
          "time": 30.399999999999977,
          "velocity": 0.8661417322834646,
          "duration": 0.33333333333333215
        },
        {
          "name": "A4",
          "midi": 69,
          "time": 30.399999999999977,
          "velocity": 0.8661417322834646,
          "duration": 0.33333333333333215
        },
        {
          "name": "D4",
          "midi": 62,
          "time": 30.399999999999977,
          "velocity": 0.8661417322834646,
          "duration": 0.19583333333333286
        },
        {
          "name": "F#4",
          "midi": 66,
          "time": 30.399999999999977,
          "velocity": 0.8661417322834646,
          "duration": 0.19583333333333286
        },
        {
          "name": "C#2",
          "midi": 37,
          "time": 30.399999999999977,
          "velocity": 0.3543307086614173,
          "duration": 0.19583333333333286
        },
        {
          "name": "E2",
          "midi": 40,
          "time": 30.399999999999977,
          "velocity": 0.3543307086614173,
          "duration": 0.19583333333333286
        },
        {
          "name": "D4",
          "midi": 62,
          "time": 30.599999999999977,
          "velocity": 0.8661417322834646,
          "duration": 0.19583333333333286
        },
        {
          "name": "F#4",
          "midi": 66,
          "time": 30.599999999999977,
          "velocity": 0.8661417322834646,
          "duration": 0.19583333333333286
        },
        {
          "name": "C#2",
          "midi": 37,
          "time": 30.599999999999977,
          "velocity": 0.3543307086614173,
          "duration": 0.19583333333333286
        },
        {
          "name": "E2",
          "midi": 40,
          "time": 30.599999999999977,
          "velocity": 0.3543307086614173,
          "duration": 0.19583333333333286
        },
        {
          "name": "C#5",
          "midi": 73,
          "time": 30.799999999999976,
          "velocity": 0.8661417322834646,
          "duration": 0.33333333333333215
        },
        {
          "name": "A2",
          "midi": 45,
          "time": 30.799999999999976,
          "velocity": 0.8661417322834646,
          "duration": 0.33333333333333215
        },
        {
          "name": "C#5",
          "midi": 73,
          "time": 30.799999999999976,
          "velocity": 0.8661417322834646,
          "duration": 0.33333333333333215
        },
        {
          "name": "C#4",
          "midi": 61,
          "time": 30.799999999999976,
          "velocity": 0.8661417322834646,
          "duration": 0.19583333333333286
        },
        {
          "name": "E4",
          "midi": 64,
          "time": 30.799999999999976,
          "velocity": 0.8661417322834646,
          "duration": 0.19583333333333286
        },
        {
          "name": "C#2",
          "midi": 37,
          "time": 30.799999999999976,
          "velocity": 0.3543307086614173,
          "duration": 0.19583333333333286
        },
        {
          "name": "E2",
          "midi": 40,
          "time": 30.799999999999976,
          "velocity": 0.3543307086614173,
          "duration": 0.19583333333333286
        },
        {
          "name": "C#4",
          "midi": 61,
          "time": 30.999999999999975,
          "velocity": 0.8661417322834646,
          "duration": 0.19583333333333286
        },
        {
          "name": "E4",
          "midi": 64,
          "time": 30.999999999999975,
          "velocity": 0.8661417322834646,
          "duration": 0.19583333333333286
        },
        {
          "name": "C#2",
          "midi": 37,
          "time": 30.999999999999975,
          "velocity": 0.3543307086614173,
          "duration": 0.19583333333333286
        },
        {
          "name": "E2",
          "midi": 40,
          "time": 30.999999999999975,
          "velocity": 0.3543307086614173,
          "duration": 0.19583333333333286
        },
        {
          "name": "D5",
          "midi": 74,
          "time": 31.199999999999974,
          "velocity": 0.8661417322834646,
          "duration": 0.533333333333335
        },
        {
          "name": "B2",
          "midi": 47,
          "time": 31.199999999999974,
          "velocity": 0.8661417322834646,
          "duration": 0.3333333333333357
        },
        {
          "name": "D4",
          "midi": 62,
          "time": 31.199999999999974,
          "velocity": 0.8661417322834646,
          "duration": 0.19583333333333286
        },
        {
          "name": "F#4",
          "midi": 66,
          "time": 31.199999999999974,
          "velocity": 0.8661417322834646,
          "duration": 0.19583333333333286
        },
        {
          "name": "B4",
          "midi": 71,
          "time": 31.199999999999974,
          "velocity": 0.8661417322834646,
          "duration": 0.19583333333333286
        },
        {
          "name": "C#2",
          "midi": 37,
          "time": 31.199999999999974,
          "velocity": 0.3543307086614173,
          "duration": 0.19583333333333286
        },
        {
          "name": "E2",
          "midi": 40,
          "time": 31.199999999999974,
          "velocity": 0.3543307086614173,
          "duration": 0.19583333333333286
        },
        {
          "name": "D4",
          "midi": 62,
          "time": 31.399999999999974,
          "velocity": 0.8661417322834646,
          "duration": 0.09583333333333499
        },
        {
          "name": "F#4",
          "midi": 66,
          "time": 31.399999999999974,
          "velocity": 0.8661417322834646,
          "duration": 0.09583333333333499
        },
        {
          "name": "B4",
          "midi": 71,
          "time": 31.399999999999974,
          "velocity": 0.8661417322834646,
          "duration": 0.09583333333333499
        },
        {
          "name": "C#2",
          "midi": 37,
          "time": 31.399999999999974,
          "velocity": 0.3543307086614173,
          "duration": 0.09583333333333499
        },
        {
          "name": "E2",
          "midi": 40,
          "time": 31.399999999999974,
          "velocity": 0.3543307086614173,
          "duration": 0.09583333333333499
        },
        {
          "name": "D4",
          "midi": 62,
          "time": 31.499999999999975,
          "velocity": 0.8661417322834646,
          "duration": 0.09583333333333499
        },
        {
          "name": "F#4",
          "midi": 66,
          "time": 31.499999999999975,
          "velocity": 0.8661417322834646,
          "duration": 0.09583333333333499
        },
        {
          "name": "B4",
          "midi": 71,
          "time": 31.499999999999975,
          "velocity": 0.8661417322834646,
          "duration": 0.09583333333333499
        },
        {
          "name": "C#2",
          "midi": 37,
          "time": 31.499999999999975,
          "velocity": 0.3543307086614173,
          "duration": 0.09583333333333499
        },
        {
          "name": "E2",
          "midi": 40,
          "time": 31.499999999999975,
          "velocity": 0.3543307086614173,
          "duration": 0.09583333333333499
        },
        {
          "name": "F#2",
          "midi": 42,
          "time": 31.599999999999977,
          "velocity": 0.8661417322834646,
          "duration": 0.19583333333333286
        },
        {
          "name": "D4",
          "midi": 62,
          "time": 31.599999999999977,
          "velocity": 0.8661417322834646,
          "duration": 0.19583333333333286
        },
        {
          "name": "F#4",
          "midi": 66,
          "time": 31.599999999999977,
          "velocity": 0.8661417322834646,
          "duration": 0.19583333333333286
        },
        {
          "name": "B4",
          "midi": 71,
          "time": 31.599999999999977,
          "velocity": 0.8661417322834646,
          "duration": 0.19583333333333286
        },
        {
          "name": "C#2",
          "midi": 37,
          "time": 31.599999999999977,
          "velocity": 0.3543307086614173,
          "duration": 0.19583333333333286
        },
        {
          "name": "E2",
          "midi": 40,
          "time": 31.599999999999977,
          "velocity": 0.3543307086614173,
          "duration": 0.19583333333333286
        },
        {
          "name": "F#4",
          "midi": 66,
          "time": 31.799999999999976,
          "velocity": 0.8661417322834646,
          "duration": 0.3958333333333357
        },
        {
          "name": "E4",
          "midi": 64,
          "time": 31.799999999999976,
          "velocity": 0.8661417322834646,
          "duration": 0.3958333333333357
        },
        {
          "name": "C#4",
          "midi": 61,
          "time": 31.799999999999976,
          "velocity": 0.8661417322834646,
          "duration": 0.3958333333333357
        },
        {
          "name": "B2",
          "midi": 47,
          "time": 31.799999999999976,
          "velocity": 0.8661417322834646,
          "duration": 0.3958333333333357
        },
        {
          "name": "C#5",
          "midi": 73,
          "time": 31.799999999999976,
          "velocity": 0.8661417322834646,
          "duration": 0.3958333333333357
        },
        {
          "name": "C#2",
          "midi": 37,
          "time": 31.799999999999976,
          "velocity": 0.3543307086614173,
          "duration": 0.19583333333333286
        },
        {
          "name": "E2",
          "midi": 40,
          "time": 31.799999999999976,
          "velocity": 0.3543307086614173,
          "duration": 0.19583333333333286
        },
        {
          "name": "C#2",
          "midi": 37,
          "time": 31.999999999999975,
          "velocity": 0.3543307086614173,
          "duration": 0.1958333333333364
        },
        {
          "name": "E2",
          "midi": 40,
          "time": 31.999999999999975,
          "velocity": 0.3543307086614173,
          "duration": 0.1958333333333364
        },
        {
          "name": "B4",
          "midi": 71,
          "time": 32.19999999999998,
          "velocity": 0.8661417322834646,
          "duration": 0.19583333333333286
        },
        {
          "name": "B2",
          "midi": 47,
          "time": 32.19999999999998,
          "velocity": 0.8661417322834646,
          "duration": 0.19583333333333286
        },
        {
          "name": "B3",
          "midi": 59,
          "time": 32.19999999999998,
          "velocity": 0.8661417322834646,
          "duration": 0.19583333333333286
        },
        {
          "name": "D4",
          "midi": 62,
          "time": 32.19999999999998,
          "velocity": 0.8661417322834646,
          "duration": 0.19583333333333286
        },
        {
          "name": "F#4",
          "midi": 66,
          "time": 32.19999999999998,
          "velocity": 0.8661417322834646,
          "duration": 0.19583333333333286
        },
        {
          "name": "C#2",
          "midi": 37,
          "time": 32.19999999999998,
          "velocity": 0.3543307086614173,
          "duration": 0.19583333333333286
        },
        {
          "name": "E2",
          "midi": 40,
          "time": 32.19999999999998,
          "velocity": 0.3543307086614173,
          "duration": 0.19583333333333286
        },
        {
          "name": "A4",
          "midi": 69,
          "time": 32.399999999999984,
          "velocity": 0.8661417322834646,
          "duration": 0.3333333333333357
        },
        {
          "name": "F#2",
          "midi": 42,
          "time": 32.399999999999984,
          "velocity": 0.8661417322834646,
          "duration": 0.3333333333333357
        },
        {
          "name": "F#3",
          "midi": 54,
          "time": 32.399999999999984,
          "velocity": 0.8661417322834646,
          "duration": 0.3333333333333357
        },
        {
          "name": "C#4",
          "midi": 61,
          "time": 32.399999999999984,
          "velocity": 0.8661417322834646,
          "duration": 0.19583333333333286
        },
        {
          "name": "F#4",
          "midi": 66,
          "time": 32.399999999999984,
          "velocity": 0.8661417322834646,
          "duration": 0.19583333333333286
        },
        {
          "name": "C#2",
          "midi": 37,
          "time": 32.399999999999984,
          "velocity": 0.3543307086614173,
          "duration": 0.19583333333333286
        },
        {
          "name": "E2",
          "midi": 40,
          "time": 32.399999999999984,
          "velocity": 0.3543307086614173,
          "duration": 0.19583333333333286
        },
        {
          "name": "C#4",
          "midi": 61,
          "time": 32.59999999999999,
          "velocity": 0.8661417322834646,
          "duration": 0.19583333333333286
        },
        {
          "name": "F#4",
          "midi": 66,
          "time": 32.59999999999999,
          "velocity": 0.8661417322834646,
          "duration": 0.19583333333333286
        },
        {
          "name": "C#2",
          "midi": 37,
          "time": 32.59999999999999,
          "velocity": 0.3543307086614173,
          "duration": 0.09583333333333144
        },
        {
          "name": "E2",
          "midi": 40,
          "time": 32.59999999999999,
          "velocity": 0.3543307086614173,
          "duration": 0.09583333333333144
        },
        {
          "name": "C#2",
          "midi": 37,
          "time": 32.69999999999999,
          "velocity": 0.3543307086614173,
          "duration": 0.09583333333333144
        },
        {
          "name": "E2",
          "midi": 40,
          "time": 32.69999999999999,
          "velocity": 0.3543307086614173,
          "duration": 0.09583333333333144
        },
        {
          "name": "F#4",
          "midi": 66,
          "time": 32.79999999999999,
          "velocity": 0.8661417322834646,
          "duration": 0.3333333333333357
        },
        {
          "name": "F#2",
          "midi": 42,
          "time": 32.79999999999999,
          "velocity": 0.8661417322834646,
          "duration": 0.3333333333333357
        },
        {
          "name": "F#3",
          "midi": 54,
          "time": 32.79999999999999,
          "velocity": 0.8661417322834646,
          "duration": 0.3333333333333357
        },
        {
          "name": "A3",
          "midi": 57,
          "time": 32.79999999999999,
          "velocity": 0.8661417322834646,
          "duration": 0.19583333333333286
        },
        {
          "name": "C#4",
          "midi": 61,
          "time": 32.79999999999999,
          "velocity": 0.8661417322834646,
          "duration": 0.19583333333333286
        },
        {
          "name": "C#2",
          "midi": 37,
          "time": 32.79999999999999,
          "velocity": 0.3543307086614173,
          "duration": 0.19583333333333286
        },
        {
          "name": "E2",
          "midi": 40,
          "time": 32.79999999999999,
          "velocity": 0.3543307086614173,
          "duration": 0.19583333333333286
        },
        {
          "name": "A3",
          "midi": 57,
          "time": 32.99999999999999,
          "velocity": 0.8661417322834646,
          "duration": 0.19583333333333286
        },
        {
          "name": "C#4",
          "midi": 61,
          "time": 32.99999999999999,
          "velocity": 0.8661417322834646,
          "duration": 0.19583333333333286
        },
        {
          "name": "C#2",
          "midi": 37,
          "time": 32.99999999999999,
          "velocity": 0.3543307086614173,
          "duration": 0.19583333333333286
        },
        {
          "name": "E2",
          "midi": 40,
          "time": 32.99999999999999,
          "velocity": 0.3543307086614173,
          "duration": 0.19583333333333286
        },
        {
          "name": "G4",
          "midi": 67,
          "time": 33.199999999999996,
          "velocity": 0.8661417322834646,
          "duration": 0.3333333333333357
        },
        {
          "name": "E2",
          "midi": 40,
          "time": 33.199999999999996,
          "velocity": 0.8661417322834646,
          "duration": 0.19583333333333286
        },
        {
          "name": "E3",
          "midi": 52,
          "time": 33.199999999999996,
          "velocity": 0.8661417322834646,
          "duration": 0.3333333333333357
        },
        {
          "name": "B3",
          "midi": 59,
          "time": 33.199999999999996,
          "velocity": 0.8661417322834646,
          "duration": 0.19583333333333286
        },
        {
          "name": "D4",
          "midi": 62,
          "time": 33.199999999999996,
          "velocity": 0.8661417322834646,
          "duration": 0.19583333333333286
        },
        {
          "name": "C#2",
          "midi": 37,
          "time": 33.199999999999996,
          "velocity": 0.3543307086614173,
          "duration": 0.19583333333333286
        },
        {
          "name": "E2",
          "midi": 40,
          "time": 33.199999999999996,
          "velocity": 0.3543307086614173,
          "duration": 0.3333333333333357
        },
        {
          "name": "B3",
          "midi": 59,
          "time": 33.4,
          "velocity": 0.8661417322834646,
          "duration": 0.19583333333333286
        },
        {
          "name": "D4",
          "midi": 62,
          "time": 33.4,
          "velocity": 0.8661417322834646,
          "duration": 0.19583333333333286
        },
        {
          "name": "C#2",
          "midi": 37,
          "time": 33.4,
          "velocity": 0.3543307086614173,
          "duration": 0.19583333333333286
        },
        {
          "name": "E2",
          "midi": 40,
          "time": 33.4,
          "velocity": 0.3543307086614173,
          "duration": 0.19583333333333286
        },
        {
          "name": "A4",
          "midi": 69,
          "time": 33.6,
          "velocity": 0.8661417322834646,
          "duration": 0.2958333333333343
        },
        {
          "name": "A2",
          "midi": 45,
          "time": 33.6,
          "velocity": 0.8661417322834646,
          "duration": 0.3333333333333357
        },
        {
          "name": "C#2",
          "midi": 37,
          "time": 33.6,
          "velocity": 0.3543307086614173,
          "duration": 0.19583333333333286
        },
        {
          "name": "E2",
          "midi": 40,
          "time": 33.6,
          "velocity": 0.3543307086614173,
          "duration": 0.19583333333333286
        },
        {
          "name": "E5",
          "midi": 76,
          "time": 33.800000000000004,
          "velocity": 0.8661417322834646,
          "duration": 0.10000000000000142
        },
        {
          "name": "C#4",
          "midi": 61,
          "time": 33.800000000000004,
          "velocity": 0.8661417322834646,
          "duration": 0.09583333333333144
        },
        {
          "name": "E4",
          "midi": 64,
          "time": 33.800000000000004,
          "velocity": 0.8661417322834646,
          "duration": 0.09583333333333144
        },
        {
          "name": "A4",
          "midi": 69,
          "time": 33.800000000000004,
          "velocity": 0.8661417322834646,
          "duration": 0.19583333333333286
        },
        {
          "name": "C#2",
          "midi": 37,
          "time": 33.800000000000004,
          "velocity": 0.3543307086614173,
          "duration": 0.09583333333333144
        },
        {
          "name": "E2",
          "midi": 40,
          "time": 33.800000000000004,
          "velocity": 0.3543307086614173,
          "duration": 0.09583333333333144
        },
        {
          "name": "A5",
          "midi": 81,
          "time": 33.900000000000006,
          "velocity": 0.8661417322834646,
          "duration": 0.09583333333333144
        },
        {
          "name": "C#4",
          "midi": 61,
          "time": 33.900000000000006,
          "velocity": 0.8661417322834646,
          "duration": 0.09583333333333144
        },
        {
          "name": "E4",
          "midi": 64,
          "time": 33.900000000000006,
          "velocity": 0.8661417322834646,
          "duration": 0.09583333333333144
        },
        {
          "name": "A4",
          "midi": 69,
          "time": 33.900000000000006,
          "velocity": 0.8661417322834646,
          "duration": 0.2958333333333414
        },
        {
          "name": "C#2",
          "midi": 37,
          "time": 33.900000000000006,
          "velocity": 0.3543307086614173,
          "duration": 0.09583333333333144
        },
        {
          "name": "E2",
          "midi": 40,
          "time": 33.900000000000006,
          "velocity": 0.3543307086614173,
          "duration": 0.09583333333333144
        },
        {
          "name": "A2",
          "midi": 45,
          "time": 34.00000000000001,
          "velocity": 0.8661417322834646,
          "duration": 0.3333333333333499
        },
        {
          "name": "C#6",
          "midi": 85,
          "time": 34.00000000000001,
          "velocity": 0.8661417322834646,
          "duration": 0.06666666666666998
        },
        {
          "name": "C#4",
          "midi": 61,
          "time": 34.00000000000001,
          "velocity": 0.8661417322834646,
          "duration": 0.19583333333333997
        },
        {
          "name": "E4",
          "midi": 64,
          "time": 34.00000000000001,
          "velocity": 0.8661417322834646,
          "duration": 0.19583333333333997
        },
        {
          "name": "A4",
          "midi": 69,
          "time": 34.00000000000001,
          "velocity": 0.8661417322834646,
          "duration": 0.3958333333333499
        },
        {
          "name": "C#2",
          "midi": 37,
          "time": 34.00000000000001,
          "velocity": 0.3543307086614173,
          "duration": 0.19583333333333997
        },
        {
          "name": "E2",
          "midi": 40,
          "time": 34.00000000000001,
          "velocity": 0.3543307086614173,
          "duration": 0.19583333333333997
        },
        {
          "name": "E6",
          "midi": 88,
          "time": 34.20000000000002,
          "velocity": 0.8661417322834646,
          "duration": 0.06666666666666998
        },
        {
          "name": "C#4",
          "midi": 61,
          "time": 34.20000000000002,
          "velocity": 0.8661417322834646,
          "duration": 0.19583333333333997
        },
        {
          "name": "E4",
          "midi": 64,
          "time": 34.20000000000002,
          "velocity": 0.8661417322834646,
          "duration": 0.19583333333333997
        },
        {
          "name": "A4",
          "midi": 69,
          "time": 34.20000000000002,
          "velocity": 0.8661417322834646,
          "duration": 0.2958333333333414
        },
        {
          "name": "C#2",
          "midi": 37,
          "time": 34.20000000000002,
          "velocity": 0.3543307086614173,
          "duration": 0.19583333333333997
        },
        {
          "name": "E2",
          "midi": 40,
          "time": 34.20000000000002,
          "velocity": 0.3543307086614173,
          "duration": 0.19583333333333997
        },
        {
          "name": "A2",
          "midi": 45,
          "time": 34.40000000000003,
          "velocity": 0.8661417322834646,
          "duration": 0.19583333333333286
        },
        {
          "name": "A5",
          "midi": 81,
          "time": 34.40000000000003,
          "velocity": 0.8661417322834646,
          "duration": 0.10000000000000142
        },
        {
          "name": "C#4",
          "midi": 61,
          "time": 34.40000000000003,
          "velocity": 0.8661417322834646,
          "duration": 0.09583333333333144
        },
        {
          "name": "E4",
          "midi": 64,
          "time": 34.40000000000003,
          "velocity": 0.8661417322834646,
          "duration": 0.09583333333333144
        },
        {
          "name": "A4",
          "midi": 69,
          "time": 34.40000000000003,
          "velocity": 0.8661417322834646,
          "duration": 0.19583333333333286
        },
        {
          "name": "C#2",
          "midi": 37,
          "time": 34.40000000000003,
          "velocity": 0.3543307086614173,
          "duration": 0.19583333333333286
        },
        {
          "name": "E2",
          "midi": 40,
          "time": 34.40000000000003,
          "velocity": 0.3543307086614173,
          "duration": 0.19583333333333286
        },
        {
          "name": "C#6",
          "midi": 85,
          "time": 34.50000000000003,
          "velocity": 0.8661417322834646,
          "duration": 0.09583333333333144
        },
        {
          "name": "C#4",
          "midi": 61,
          "time": 34.50000000000003,
          "velocity": 0.8661417322834646,
          "duration": 0.09583333333333144
        },
        {
          "name": "E4",
          "midi": 64,
          "time": 34.50000000000003,
          "velocity": 0.8661417322834646,
          "duration": 0.09583333333333144
        },
        {
          "name": "A4",
          "midi": 69,
          "time": 34.50000000000003,
          "velocity": 0.8661417322834646,
          "duration": 0.2958333333333414
        },
        {
          "name": "A2",
          "midi": 45,
          "time": 34.60000000000003,
          "velocity": 0.8661417322834646,
          "duration": 0.19583333333333997
        },
        {
          "name": "E6",
          "midi": 88,
          "time": 34.60000000000003,
          "velocity": 0.8661417322834646,
          "duration": 0.06666666666666998
        },
        {
          "name": "C#4",
          "midi": 61,
          "time": 34.60000000000003,
          "velocity": 0.8661417322834646,
          "duration": 0.19583333333333997
        },
        {
          "name": "E4",
          "midi": 64,
          "time": 34.60000000000003,
          "velocity": 0.8661417322834646,
          "duration": 0.19583333333333997
        },
        {
          "name": "A4",
          "midi": 69,
          "time": 34.60000000000003,
          "velocity": 0.8661417322834646,
          "duration": 0.30000000000001137
        },
        {
          "name": "C#2",
          "midi": 37,
          "time": 34.60000000000003,
          "velocity": 0.3543307086614173,
          "duration": 0.19583333333333997
        },
        {
          "name": "E2",
          "midi": 40,
          "time": 34.60000000000003,
          "velocity": 0.3543307086614173,
          "duration": 0.19583333333333997
        },
        {
          "name": "A2",
          "midi": 45,
          "time": 34.80000000000004,
          "velocity": 0.8661417322834646,
          "duration": 0.10000000000000142
        },
        {
          "name": "A6",
          "midi": 93,
          "time": 34.80000000000004,
          "velocity": 0.8661417322834646,
          "duration": 0.10000000000000142
        },
        {
          "name": "C#4",
          "midi": 61,
          "time": 34.80000000000004,
          "velocity": 0.8661417322834646,
          "duration": 0.10000000000000142
        },
        {
          "name": "E4",
          "midi": 64,
          "time": 34.80000000000004,
          "velocity": 0.8661417322834646,
          "duration": 0.10000000000000142
        },
        {
          "name": "A4",
          "midi": 69,
          "time": 34.80000000000004,
          "velocity": 0.8661417322834646,
          "duration": 0.3333333333333357
        },
        {
          "name": "C#2",
          "midi": 37,
          "time": 34.80000000000004,
          "velocity": 0.3543307086614173,
          "duration": 0.10000000000000142
        },
        {
          "name": "E2",
          "midi": 40,
          "time": 34.80000000000004,
          "velocity": 0.3543307086614173,
          "duration": 0.10000000000000142
        },
        {
          "name": "A4",
          "midi": 69,
          "time": 35.200000000000045,
          "velocity": 0.8661417322834646,
          "duration": 0.3333333333333357
        },
        {
          "name": "C5",
          "midi": 72,
          "time": 35.60000000000005,
          "velocity": 0.8661417322834646,
          "duration": 0.3333333333333357
        },
        {
          "name": "D5",
          "midi": 74,
          "time": 36.00000000000006,
          "velocity": 0.8661417322834646,
          "duration": 0.19583333333333286
        },
        {
          "name": "D2",
          "midi": 38,
          "time": 36.00000000000006,
          "velocity": 0.8661417322834646,
          "duration": 0.3333333333333357
        },
        {
          "name": "D3",
          "midi": 50,
          "time": 36.00000000000006,
          "velocity": 0.8661417322834646,
          "duration": 0.3333333333333357
        },
        {
          "name": "D5",
          "midi": 74,
          "time": 36.00000000000006,
          "velocity": 0.8661417322834646,
          "duration": 0.2958333333333343
        },
        {
          "name": "D4",
          "midi": 62,
          "time": 36.00000000000006,
          "velocity": 0.8661417322834646,
          "duration": 0.19583333333333286
        },
        {
          "name": "F4",
          "midi": 65,
          "time": 36.00000000000006,
          "velocity": 0.8661417322834646,
          "duration": 0.19583333333333286
        },
        {
          "name": "A4",
          "midi": 69,
          "time": 36.00000000000006,
          "velocity": 0.8661417322834646,
          "duration": 0.19583333333333286
        },
        {
          "name": "C#2",
          "midi": 37,
          "time": 36.00000000000006,
          "velocity": 0.3543307086614173,
          "duration": 0.19583333333333286
        },
        {
          "name": "E2",
          "midi": 40,
          "time": 36.00000000000006,
          "velocity": 0.3543307086614173,
          "duration": 0.19583333333333286
        },
        {
          "name": "D5",
          "midi": 74,
          "time": 36.20000000000006,
          "velocity": 0.8661417322834646,
          "duration": 0.19583333333333286
        },
        {
          "name": "D4",
          "midi": 62,
          "time": 36.20000000000006,
          "velocity": 0.8661417322834646,
          "duration": 0.09583333333333144
        },
        {
          "name": "F4",
          "midi": 65,
          "time": 36.20000000000006,
          "velocity": 0.8661417322834646,
          "duration": 0.09583333333333144
        },
        {
          "name": "A4",
          "midi": 69,
          "time": 36.20000000000006,
          "velocity": 0.8661417322834646,
          "duration": 0.09583333333333144
        },
        {
          "name": "C#2",
          "midi": 37,
          "time": 36.20000000000006,
          "velocity": 0.3543307086614173,
          "duration": 0.09583333333333144
        },
        {
          "name": "E2",
          "midi": 40,
          "time": 36.20000000000006,
          "velocity": 0.3543307086614173,
          "duration": 0.09583333333333144
        },
        {
          "name": "D5",
          "midi": 74,
          "time": 36.30000000000006,
          "velocity": 0.8661417322834646,
          "duration": 0.23333333333333428
        },
        {
          "name": "D4",
          "midi": 62,
          "time": 36.30000000000006,
          "velocity": 0.8661417322834646,
          "duration": 0.09583333333333144
        },
        {
          "name": "F4",
          "midi": 65,
          "time": 36.30000000000006,
          "velocity": 0.8661417322834646,
          "duration": 0.09583333333333144
        },
        {
          "name": "A4",
          "midi": 69,
          "time": 36.30000000000006,
          "velocity": 0.8661417322834646,
          "duration": 0.09583333333333144
        },
        {
          "name": "C#2",
          "midi": 37,
          "time": 36.30000000000006,
          "velocity": 0.3543307086614173,
          "duration": 0.09583333333333144
        },
        {
          "name": "E2",
          "midi": 40,
          "time": 36.30000000000006,
          "velocity": 0.3543307086614173,
          "duration": 0.09583333333333144
        },
        {
          "name": "A2",
          "midi": 45,
          "time": 36.40000000000006,
          "velocity": 0.8661417322834646,
          "duration": 0.19583333333333286
        },
        {
          "name": "D5",
          "midi": 74,
          "time": 36.40000000000006,
          "velocity": 0.8661417322834646,
          "duration": 0.19583333333333286
        },
        {
          "name": "D4",
          "midi": 62,
          "time": 36.40000000000006,
          "velocity": 0.8661417322834646,
          "duration": 0.19583333333333286
        },
        {
          "name": "F4",
          "midi": 65,
          "time": 36.40000000000006,
          "velocity": 0.8661417322834646,
          "duration": 0.19583333333333286
        },
        {
          "name": "A4",
          "midi": 69,
          "time": 36.40000000000006,
          "velocity": 0.8661417322834646,
          "duration": 0.19583333333333286
        },
        {
          "name": "C#2",
          "midi": 37,
          "time": 36.40000000000006,
          "velocity": 0.3543307086614173,
          "duration": 0.19583333333333286
        },
        {
          "name": "E2",
          "midi": 40,
          "time": 36.40000000000006,
          "velocity": 0.3543307086614173,
          "duration": 0.19583333333333286
        },
        {
          "name": "D5",
          "midi": 74,
          "time": 36.600000000000065,
          "velocity": 0.8661417322834646,
          "duration": 0.3958333333333357
        },
        {
          "name": "D3",
          "midi": 50,
          "time": 36.600000000000065,
          "velocity": 0.8661417322834646,
          "duration": 0.3958333333333357
        },
        {
          "name": "D5",
          "midi": 74,
          "time": 36.600000000000065,
          "velocity": 0.8661417322834646,
          "duration": 0.3958333333333357
        },
        {
          "name": "D4",
          "midi": 62,
          "time": 36.600000000000065,
          "velocity": 0.8661417322834646,
          "duration": 0.3958333333333357
        },
        {
          "name": "F4",
          "midi": 65,
          "time": 36.600000000000065,
          "velocity": 0.8661417322834646,
          "duration": 0.3958333333333357
        },
        {
          "name": "A4",
          "midi": 69,
          "time": 36.600000000000065,
          "velocity": 0.8661417322834646,
          "duration": 0.3958333333333357
        },
        {
          "name": "C#2",
          "midi": 37,
          "time": 36.600000000000065,
          "velocity": 0.3543307086614173,
          "duration": 0.19583333333333286
        },
        {
          "name": "E2",
          "midi": 40,
          "time": 36.600000000000065,
          "velocity": 0.3543307086614173,
          "duration": 0.19583333333333286
        },
        {
          "name": "C#2",
          "midi": 37,
          "time": 36.80000000000007,
          "velocity": 0.3543307086614173,
          "duration": 0.19583333333333286
        },
        {
          "name": "E2",
          "midi": 40,
          "time": 36.80000000000007,
          "velocity": 0.3543307086614173,
          "duration": 0.19583333333333286
        },
        {
          "name": "C5",
          "midi": 72,
          "time": 37.00000000000007,
          "velocity": 0.8661417322834646,
          "duration": 0.19583333333333286
        },
        {
          "name": "A2",
          "midi": 45,
          "time": 37.00000000000007,
          "velocity": 0.8661417322834646,
          "duration": 0.19583333333333286
        },
        {
          "name": "C5",
          "midi": 72,
          "time": 37.00000000000007,
          "velocity": 0.8661417322834646,
          "duration": 0.19583333333333286
        },
        {
          "name": "C4",
          "midi": 60,
          "time": 37.00000000000007,
          "velocity": 0.8661417322834646,
          "duration": 0.19583333333333286
        },
        {
          "name": "E4",
          "midi": 64,
          "time": 37.00000000000007,
          "velocity": 0.8661417322834646,
          "duration": 0.19583333333333286
        },
        {
          "name": "A4",
          "midi": 69,
          "time": 37.00000000000007,
          "velocity": 0.8661417322834646,
          "duration": 0.19583333333333286
        },
        {
          "name": "C#2",
          "midi": 37,
          "time": 37.00000000000007,
          "velocity": 0.3543307086614173,
          "duration": 0.19583333333333286
        },
        {
          "name": "E2",
          "midi": 40,
          "time": 37.00000000000007,
          "velocity": 0.3543307086614173,
          "duration": 0.19583333333333286
        },
        {
          "name": "D5",
          "midi": 74,
          "time": 37.200000000000074,
          "velocity": 0.8661417322834646,
          "duration": 0.3333333333333357
        },
        {
          "name": "D2",
          "midi": 38,
          "time": 37.200000000000074,
          "velocity": 0.8661417322834646,
          "duration": 0.3333333333333357
        },
        {
          "name": "D3",
          "midi": 50,
          "time": 37.200000000000074,
          "velocity": 0.8661417322834646,
          "duration": 0.3333333333333357
        },
        {
          "name": "D5",
          "midi": 74,
          "time": 37.200000000000074,
          "velocity": 0.8661417322834646,
          "duration": 0.3333333333333357
        },
        {
          "name": "D4",
          "midi": 62,
          "time": 37.200000000000074,
          "velocity": 0.8661417322834646,
          "duration": 0.3333333333333357
        },
        {
          "name": "F4",
          "midi": 65,
          "time": 37.200000000000074,
          "velocity": 0.8661417322834646,
          "duration": 0.3333333333333357
        },
        {
          "name": "A4",
          "midi": 69,
          "time": 37.200000000000074,
          "velocity": 0.8661417322834646,
          "duration": 0.3333333333333357
        },
        {
          "name": "C#2",
          "midi": 37,
          "time": 37.200000000000074,
          "velocity": 0.3543307086614173,
          "duration": 0.19583333333333286
        },
        {
          "name": "E2",
          "midi": 40,
          "time": 37.200000000000074,
          "velocity": 0.3543307086614173,
          "duration": 0.19583333333333286
        },
        {
          "name": "C#2",
          "midi": 37,
          "time": 37.40000000000008,
          "velocity": 0.3543307086614173,
          "duration": 0.09583333333333144
        },
        {
          "name": "E2",
          "midi": 40,
          "time": 37.40000000000008,
          "velocity": 0.3543307086614173,
          "duration": 0.09583333333333144
        },
        {
          "name": "C#2",
          "midi": 37,
          "time": 37.50000000000008,
          "velocity": 0.3543307086614173,
          "duration": 0.09583333333333144
        },
        {
          "name": "E2",
          "midi": 40,
          "time": 37.50000000000008,
          "velocity": 0.3543307086614173,
          "duration": 0.09583333333333144
        },
        {
          "name": "A4",
          "midi": 69,
          "time": 37.60000000000008,
          "velocity": 0.8661417322834646,
          "duration": 0.3333333333333357
        },
        {
          "name": "D2",
          "midi": 38,
          "time": 37.60000000000008,
          "velocity": 0.8661417322834646,
          "duration": 0.3333333333333357
        },
        {
          "name": "D3",
          "midi": 50,
          "time": 37.60000000000008,
          "velocity": 0.8661417322834646,
          "duration": 0.3333333333333357
        },
        {
          "name": "A4",
          "midi": 69,
          "time": 37.60000000000008,
          "velocity": 0.8661417322834646,
          "duration": 0.3333333333333357
        },
        {
          "name": "D4",
          "midi": 62,
          "time": 37.60000000000008,
          "velocity": 0.8661417322834646,
          "duration": 0.3333333333333357
        },
        {
          "name": "F4",
          "midi": 65,
          "time": 37.60000000000008,
          "velocity": 0.8661417322834646,
          "duration": 0.3333333333333357
        },
        {
          "name": "C#2",
          "midi": 37,
          "time": 37.60000000000008,
          "velocity": 0.3543307086614173,
          "duration": 0.19583333333333286
        },
        {
          "name": "E2",
          "midi": 40,
          "time": 37.60000000000008,
          "velocity": 0.3543307086614173,
          "duration": 0.19583333333333286
        },
        {
          "name": "C#2",
          "midi": 37,
          "time": 37.80000000000008,
          "velocity": 0.3543307086614173,
          "duration": 0.19583333333333286
        },
        {
          "name": "E2",
          "midi": 40,
          "time": 37.80000000000008,
          "velocity": 0.3543307086614173,
          "duration": 0.19583333333333286
        },
        {
          "name": "C5",
          "midi": 72,
          "time": 38.000000000000085,
          "velocity": 0.8661417322834646,
          "duration": 0.3333333333333357
        },
        {
          "name": "A2",
          "midi": 45,
          "time": 38.000000000000085,
          "velocity": 0.8661417322834646,
          "duration": 0.3333333333333357
        },
        {
          "name": "C5",
          "midi": 72,
          "time": 38.000000000000085,
          "velocity": 0.8661417322834646,
          "duration": 0.3333333333333357
        },
        {
          "name": "C4",
          "midi": 60,
          "time": 38.000000000000085,
          "velocity": 0.8661417322834646,
          "duration": 0.3333333333333357
        },
        {
          "name": "E4",
          "midi": 64,
          "time": 38.000000000000085,
          "velocity": 0.8661417322834646,
          "duration": 0.3333333333333357
        },
        {
          "name": "A4",
          "midi": 69,
          "time": 38.000000000000085,
          "velocity": 0.8661417322834646,
          "duration": 0.3333333333333357
        },
        {
          "name": "C#2",
          "midi": 37,
          "time": 38.000000000000085,
          "velocity": 0.3543307086614173,
          "duration": 0.19583333333333286
        },
        {
          "name": "E2",
          "midi": 40,
          "time": 38.000000000000085,
          "velocity": 0.3543307086614173,
          "duration": 0.19583333333333286
        },
        {
          "name": "C#2",
          "midi": 37,
          "time": 38.20000000000009,
          "velocity": 0.3543307086614173,
          "duration": 0.19583333333333286
        },
        {
          "name": "E2",
          "midi": 40,
          "time": 38.20000000000009,
          "velocity": 0.3543307086614173,
          "duration": 0.19583333333333286
        },
        {
          "name": "D5",
          "midi": 74,
          "time": 38.40000000000009,
          "velocity": 0.8661417322834646,
          "duration": 0.19583333333333286
        },
        {
          "name": "D2",
          "midi": 38,
          "time": 38.40000000000009,
          "velocity": 0.8661417322834646,
          "duration": 0.3333333333333357
        },
        {
          "name": "D3",
          "midi": 50,
          "time": 38.40000000000009,
          "velocity": 0.8661417322834646,
          "duration": 0.3333333333333357
        },
        {
          "name": "D5",
          "midi": 74,
          "time": 38.40000000000009,
          "velocity": 0.8661417322834646,
          "duration": 0.2958333333333343
        },
        {
          "name": "D4",
          "midi": 62,
          "time": 38.40000000000009,
          "velocity": 0.8661417322834646,
          "duration": 0.19583333333333286
        },
        {
          "name": "F4",
          "midi": 65,
          "time": 38.40000000000009,
          "velocity": 0.8661417322834646,
          "duration": 0.19583333333333286
        },
        {
          "name": "A4",
          "midi": 69,
          "time": 38.40000000000009,
          "velocity": 0.8661417322834646,
          "duration": 0.19583333333333286
        },
        {
          "name": "C#2",
          "midi": 37,
          "time": 38.40000000000009,
          "velocity": 0.3543307086614173,
          "duration": 0.19583333333333286
        },
        {
          "name": "E2",
          "midi": 40,
          "time": 38.40000000000009,
          "velocity": 0.3543307086614173,
          "duration": 0.19583333333333286
        },
        {
          "name": "D5",
          "midi": 74,
          "time": 38.600000000000094,
          "velocity": 0.8661417322834646,
          "duration": 0.19583333333333286
        },
        {
          "name": "D4",
          "midi": 62,
          "time": 38.600000000000094,
          "velocity": 0.8661417322834646,
          "duration": 0.09583333333333144
        },
        {
          "name": "F4",
          "midi": 65,
          "time": 38.600000000000094,
          "velocity": 0.8661417322834646,
          "duration": 0.09583333333333144
        },
        {
          "name": "A4",
          "midi": 69,
          "time": 38.600000000000094,
          "velocity": 0.8661417322834646,
          "duration": 0.09583333333333144
        },
        {
          "name": "C#2",
          "midi": 37,
          "time": 38.600000000000094,
          "velocity": 0.3543307086614173,
          "duration": 0.09583333333333144
        },
        {
          "name": "E2",
          "midi": 40,
          "time": 38.600000000000094,
          "velocity": 0.3543307086614173,
          "duration": 0.09583333333333144
        },
        {
          "name": "D5",
          "midi": 74,
          "time": 38.700000000000095,
          "velocity": 0.8661417322834646,
          "duration": 0.23333333333333428
        },
        {
          "name": "D4",
          "midi": 62,
          "time": 38.700000000000095,
          "velocity": 0.8661417322834646,
          "duration": 0.09583333333333144
        },
        {
          "name": "F4",
          "midi": 65,
          "time": 38.700000000000095,
          "velocity": 0.8661417322834646,
          "duration": 0.09583333333333144
        },
        {
          "name": "A4",
          "midi": 69,
          "time": 38.700000000000095,
          "velocity": 0.8661417322834646,
          "duration": 0.09583333333333144
        },
        {
          "name": "C#2",
          "midi": 37,
          "time": 38.700000000000095,
          "velocity": 0.3543307086614173,
          "duration": 0.09583333333333144
        },
        {
          "name": "E2",
          "midi": 40,
          "time": 38.700000000000095,
          "velocity": 0.3543307086614173,
          "duration": 0.09583333333333144
        },
        {
          "name": "A2",
          "midi": 45,
          "time": 38.8000000000001,
          "velocity": 0.8661417322834646,
          "duration": 0.19583333333333286
        },
        {
          "name": "D5",
          "midi": 74,
          "time": 38.8000000000001,
          "velocity": 0.8661417322834646,
          "duration": 0.19583333333333286
        },
        {
          "name": "D4",
          "midi": 62,
          "time": 38.8000000000001,
          "velocity": 0.8661417322834646,
          "duration": 0.19583333333333286
        },
        {
          "name": "F4",
          "midi": 65,
          "time": 38.8000000000001,
          "velocity": 0.8661417322834646,
          "duration": 0.19583333333333286
        },
        {
          "name": "A4",
          "midi": 69,
          "time": 38.8000000000001,
          "velocity": 0.8661417322834646,
          "duration": 0.19583333333333286
        },
        {
          "name": "C#2",
          "midi": 37,
          "time": 38.8000000000001,
          "velocity": 0.3543307086614173,
          "duration": 0.19583333333333286
        },
        {
          "name": "E2",
          "midi": 40,
          "time": 38.8000000000001,
          "velocity": 0.3543307086614173,
          "duration": 0.19583333333333286
        },
        {
          "name": "D5",
          "midi": 74,
          "time": 39.0000000000001,
          "velocity": 0.8661417322834646,
          "duration": 0.3958333333333357
        },
        {
          "name": "D3",
          "midi": 50,
          "time": 39.0000000000001,
          "velocity": 0.8661417322834646,
          "duration": 0.3958333333333357
        },
        {
          "name": "D5",
          "midi": 74,
          "time": 39.0000000000001,
          "velocity": 0.8661417322834646,
          "duration": 0.3958333333333357
        },
        {
          "name": "D4",
          "midi": 62,
          "time": 39.0000000000001,
          "velocity": 0.8661417322834646,
          "duration": 0.3958333333333357
        },
        {
          "name": "F4",
          "midi": 65,
          "time": 39.0000000000001,
          "velocity": 0.8661417322834646,
          "duration": 0.3958333333333357
        },
        {
          "name": "A4",
          "midi": 69,
          "time": 39.0000000000001,
          "velocity": 0.8661417322834646,
          "duration": 0.3958333333333357
        },
        {
          "name": "C#2",
          "midi": 37,
          "time": 39.0000000000001,
          "velocity": 0.3543307086614173,
          "duration": 0.19583333333333286
        },
        {
          "name": "E2",
          "midi": 40,
          "time": 39.0000000000001,
          "velocity": 0.3543307086614173,
          "duration": 0.19583333333333286
        },
        {
          "name": "C#2",
          "midi": 37,
          "time": 39.2000000000001,
          "velocity": 0.3543307086614173,
          "duration": 0.19583333333333286
        },
        {
          "name": "E2",
          "midi": 40,
          "time": 39.2000000000001,
          "velocity": 0.3543307086614173,
          "duration": 0.19583333333333286
        },
        {
          "name": "C5",
          "midi": 72,
          "time": 39.400000000000105,
          "velocity": 0.8661417322834646,
          "duration": 0.19583333333333286
        },
        {
          "name": "A2",
          "midi": 45,
          "time": 39.400000000000105,
          "velocity": 0.8661417322834646,
          "duration": 0.19583333333333286
        },
        {
          "name": "C5",
          "midi": 72,
          "time": 39.400000000000105,
          "velocity": 0.8661417322834646,
          "duration": 0.19583333333333286
        },
        {
          "name": "C4",
          "midi": 60,
          "time": 39.400000000000105,
          "velocity": 0.8661417322834646,
          "duration": 0.19583333333333286
        },
        {
          "name": "E4",
          "midi": 64,
          "time": 39.400000000000105,
          "velocity": 0.8661417322834646,
          "duration": 0.19583333333333286
        },
        {
          "name": "A4",
          "midi": 69,
          "time": 39.400000000000105,
          "velocity": 0.8661417322834646,
          "duration": 0.19583333333333286
        },
        {
          "name": "C#2",
          "midi": 37,
          "time": 39.400000000000105,
          "velocity": 0.3543307086614173,
          "duration": 0.19583333333333286
        },
        {
          "name": "E2",
          "midi": 40,
          "time": 39.400000000000105,
          "velocity": 0.3543307086614173,
          "duration": 0.19583333333333286
        },
        {
          "name": "D5",
          "midi": 74,
          "time": 39.60000000000011,
          "velocity": 0.8661417322834646,
          "duration": 0.3333333333333357
        },
        {
          "name": "D2",
          "midi": 38,
          "time": 39.60000000000011,
          "velocity": 0.8661417322834646,
          "duration": 0.3333333333333357
        },
        {
          "name": "D3",
          "midi": 50,
          "time": 39.60000000000011,
          "velocity": 0.8661417322834646,
          "duration": 0.3333333333333357
        },
        {
          "name": "D5",
          "midi": 74,
          "time": 39.60000000000011,
          "velocity": 0.8661417322834646,
          "duration": 0.3333333333333357
        },
        {
          "name": "D4",
          "midi": 62,
          "time": 39.60000000000011,
          "velocity": 0.8661417322834646,
          "duration": 0.3333333333333357
        },
        {
          "name": "F4",
          "midi": 65,
          "time": 39.60000000000011,
          "velocity": 0.8661417322834646,
          "duration": 0.3333333333333357
        },
        {
          "name": "A4",
          "midi": 69,
          "time": 39.60000000000011,
          "velocity": 0.8661417322834646,
          "duration": 0.3333333333333357
        },
        {
          "name": "C#2",
          "midi": 37,
          "time": 39.60000000000011,
          "velocity": 0.3543307086614173,
          "duration": 0.19583333333333286
        },
        {
          "name": "E2",
          "midi": 40,
          "time": 39.60000000000011,
          "velocity": 0.3543307086614173,
          "duration": 0.19583333333333286
        },
        {
          "name": "C#2",
          "midi": 37,
          "time": 39.80000000000011,
          "velocity": 0.3543307086614173,
          "duration": 0.09583333333333144
        },
        {
          "name": "E2",
          "midi": 40,
          "time": 39.80000000000011,
          "velocity": 0.3543307086614173,
          "duration": 0.09583333333333144
        },
        {
          "name": "C#2",
          "midi": 37,
          "time": 39.90000000000011,
          "velocity": 0.3543307086614173,
          "duration": 0.09583333333333144
        },
        {
          "name": "E2",
          "midi": 40,
          "time": 39.90000000000011,
          "velocity": 0.3543307086614173,
          "duration": 0.09583333333333144
        },
        {
          "name": "A4",
          "midi": 69,
          "time": 40.000000000000114,
          "velocity": 0.8661417322834646,
          "duration": 0.3333333333333357
        },
        {
          "name": "D2",
          "midi": 38,
          "time": 40.000000000000114,
          "velocity": 0.8661417322834646,
          "duration": 0.3333333333333357
        },
        {
          "name": "D3",
          "midi": 50,
          "time": 40.000000000000114,
          "velocity": 0.8661417322834646,
          "duration": 0.3333333333333357
        },
        {
          "name": "A4",
          "midi": 69,
          "time": 40.000000000000114,
          "velocity": 0.8661417322834646,
          "duration": 0.3333333333333357
        },
        {
          "name": "D4",
          "midi": 62,
          "time": 40.000000000000114,
          "velocity": 0.8661417322834646,
          "duration": 0.3333333333333357
        },
        {
          "name": "F4",
          "midi": 65,
          "time": 40.000000000000114,
          "velocity": 0.8661417322834646,
          "duration": 0.3333333333333357
        },
        {
          "name": "C#2",
          "midi": 37,
          "time": 40.000000000000114,
          "velocity": 0.3543307086614173,
          "duration": 0.19583333333333286
        },
        {
          "name": "E2",
          "midi": 40,
          "time": 40.000000000000114,
          "velocity": 0.3543307086614173,
          "duration": 0.19583333333333286
        },
        {
          "name": "C#2",
          "midi": 37,
          "time": 40.20000000000012,
          "velocity": 0.3543307086614173,
          "duration": 0.19583333333333286
        },
        {
          "name": "E2",
          "midi": 40,
          "time": 40.20000000000012,
          "velocity": 0.3543307086614173,
          "duration": 0.19583333333333286
        },
        {
          "name": "C5",
          "midi": 72,
          "time": 40.40000000000012,
          "velocity": 0.8661417322834646,
          "duration": 0.3333333333333357
        },
        {
          "name": "A2",
          "midi": 45,
          "time": 40.40000000000012,
          "velocity": 0.8661417322834646,
          "duration": 0.3333333333333357
        },
        {
          "name": "C5",
          "midi": 72,
          "time": 40.40000000000012,
          "velocity": 0.8661417322834646,
          "duration": 0.3333333333333357
        },
        {
          "name": "C4",
          "midi": 60,
          "time": 40.40000000000012,
          "velocity": 0.8661417322834646,
          "duration": 0.3333333333333357
        },
        {
          "name": "E4",
          "midi": 64,
          "time": 40.40000000000012,
          "velocity": 0.8661417322834646,
          "duration": 0.3333333333333357
        },
        {
          "name": "A4",
          "midi": 69,
          "time": 40.40000000000012,
          "velocity": 0.8661417322834646,
          "duration": 0.3333333333333357
        },
        {
          "name": "C#2",
          "midi": 37,
          "time": 40.40000000000012,
          "velocity": 0.3543307086614173,
          "duration": 0.19583333333333286
        },
        {
          "name": "E2",
          "midi": 40,
          "time": 40.40000000000012,
          "velocity": 0.3543307086614173,
          "duration": 0.19583333333333286
        },
        {
          "name": "C#2",
          "midi": 37,
          "time": 40.60000000000012,
          "velocity": 0.3543307086614173,
          "duration": 0.19583333333333286
        },
        {
          "name": "E2",
          "midi": 40,
          "time": 40.60000000000012,
          "velocity": 0.3543307086614173,
          "duration": 0.19583333333333286
        },
        {
          "name": "D5",
          "midi": 74,
          "time": 40.800000000000125,
          "velocity": 0.8661417322834646,
          "duration": 0.19583333333333286
        },
        {
          "name": "D2",
          "midi": 38,
          "time": 40.800000000000125,
          "velocity": 0.8661417322834646,
          "duration": 0.3333333333333357
        },
        {
          "name": "D3",
          "midi": 50,
          "time": 40.800000000000125,
          "velocity": 0.8661417322834646,
          "duration": 0.3333333333333357
        },
        {
          "name": "D5",
          "midi": 74,
          "time": 40.800000000000125,
          "velocity": 0.8661417322834646,
          "duration": 0.2958333333333343
        },
        {
          "name": "D4",
          "midi": 62,
          "time": 40.800000000000125,
          "velocity": 0.8661417322834646,
          "duration": 0.19583333333333286
        },
        {
          "name": "F4",
          "midi": 65,
          "time": 40.800000000000125,
          "velocity": 0.8661417322834646,
          "duration": 0.19583333333333286
        },
        {
          "name": "A4",
          "midi": 69,
          "time": 40.800000000000125,
          "velocity": 0.8661417322834646,
          "duration": 0.19583333333333286
        },
        {
          "name": "C#2",
          "midi": 37,
          "time": 40.800000000000125,
          "velocity": 0.3543307086614173,
          "duration": 0.19583333333333286
        },
        {
          "name": "E2",
          "midi": 40,
          "time": 40.800000000000125,
          "velocity": 0.3543307086614173,
          "duration": 0.19583333333333286
        },
        {
          "name": "D5",
          "midi": 74,
          "time": 41.00000000000013,
          "velocity": 0.8661417322834646,
          "duration": 0.19583333333333286
        },
        {
          "name": "D4",
          "midi": 62,
          "time": 41.00000000000013,
          "velocity": 0.8661417322834646,
          "duration": 0.09583333333333144
        },
        {
          "name": "F4",
          "midi": 65,
          "time": 41.00000000000013,
          "velocity": 0.8661417322834646,
          "duration": 0.09583333333333144
        },
        {
          "name": "A4",
          "midi": 69,
          "time": 41.00000000000013,
          "velocity": 0.8661417322834646,
          "duration": 0.09583333333333144
        },
        {
          "name": "C#2",
          "midi": 37,
          "time": 41.00000000000013,
          "velocity": 0.3543307086614173,
          "duration": 0.09583333333333144
        },
        {
          "name": "E2",
          "midi": 40,
          "time": 41.00000000000013,
          "velocity": 0.3543307086614173,
          "duration": 0.09583333333333144
        },
        {
          "name": "D5",
          "midi": 74,
          "time": 41.10000000000013,
          "velocity": 0.8661417322834646,
          "duration": 0.23333333333333428
        },
        {
          "name": "D4",
          "midi": 62,
          "time": 41.10000000000013,
          "velocity": 0.8661417322834646,
          "duration": 0.09583333333333144
        },
        {
          "name": "F4",
          "midi": 65,
          "time": 41.10000000000013,
          "velocity": 0.8661417322834646,
          "duration": 0.09583333333333144
        },
        {
          "name": "A4",
          "midi": 69,
          "time": 41.10000000000013,
          "velocity": 0.8661417322834646,
          "duration": 0.09583333333333144
        },
        {
          "name": "C#2",
          "midi": 37,
          "time": 41.10000000000013,
          "velocity": 0.3543307086614173,
          "duration": 0.09583333333333144
        },
        {
          "name": "E2",
          "midi": 40,
          "time": 41.10000000000013,
          "velocity": 0.3543307086614173,
          "duration": 0.09583333333333144
        },
        {
          "name": "A2",
          "midi": 45,
          "time": 41.20000000000013,
          "velocity": 0.8661417322834646,
          "duration": 0.19583333333333286
        },
        {
          "name": "D5",
          "midi": 74,
          "time": 41.20000000000013,
          "velocity": 0.8661417322834646,
          "duration": 0.19583333333333286
        },
        {
          "name": "D4",
          "midi": 62,
          "time": 41.20000000000013,
          "velocity": 0.8661417322834646,
          "duration": 0.19583333333333286
        },
        {
          "name": "F4",
          "midi": 65,
          "time": 41.20000000000013,
          "velocity": 0.8661417322834646,
          "duration": 0.19583333333333286
        },
        {
          "name": "A4",
          "midi": 69,
          "time": 41.20000000000013,
          "velocity": 0.8661417322834646,
          "duration": 0.19583333333333286
        },
        {
          "name": "C#2",
          "midi": 37,
          "time": 41.20000000000013,
          "velocity": 0.3543307086614173,
          "duration": 0.19583333333333286
        },
        {
          "name": "E2",
          "midi": 40,
          "time": 41.20000000000013,
          "velocity": 0.3543307086614173,
          "duration": 0.19583333333333286
        },
        {
          "name": "C5",
          "midi": 72,
          "time": 41.400000000000134,
          "velocity": 0.8661417322834646,
          "duration": 0.3958333333333357
        },
        {
          "name": "E3",
          "midi": 52,
          "time": 41.400000000000134,
          "velocity": 0.8661417322834646,
          "duration": 0.3958333333333357
        },
        {
          "name": "C5",
          "midi": 72,
          "time": 41.400000000000134,
          "velocity": 0.8661417322834646,
          "duration": 0.3958333333333357
        },
        {
          "name": "C4",
          "midi": 60,
          "time": 41.400000000000134,
          "velocity": 0.8661417322834646,
          "duration": 0.3958333333333357
        },
        {
          "name": "G4",
          "midi": 67,
          "time": 41.400000000000134,
          "velocity": 0.8661417322834646,
          "duration": 0.3958333333333357
        },
        {
          "name": "A#4",
          "midi": 70,
          "time": 41.400000000000134,
          "velocity": 0.8661417322834646,
          "duration": 0.3958333333333357
        },
        {
          "name": "C#2",
          "midi": 37,
          "time": 41.400000000000134,
          "velocity": 0.3543307086614173,
          "duration": 0.19583333333333286
        },
        {
          "name": "E2",
          "midi": 40,
          "time": 41.400000000000134,
          "velocity": 0.3543307086614173,
          "duration": 0.19583333333333286
        },
        {
          "name": "C#2",
          "midi": 37,
          "time": 41.600000000000136,
          "velocity": 0.3543307086614173,
          "duration": 0.19583333333333286
        },
        {
          "name": "E2",
          "midi": 40,
          "time": 41.600000000000136,
          "velocity": 0.3543307086614173,
          "duration": 0.19583333333333286
        },
        {
          "name": "A#4",
          "midi": 70,
          "time": 41.80000000000014,
          "velocity": 0.8661417322834646,
          "duration": 0.19583333333333286
        },
        {
          "name": "E3",
          "midi": 52,
          "time": 41.80000000000014,
          "velocity": 0.8661417322834646,
          "duration": 0.19583333333333286
        },
        {
          "name": "A#4",
          "midi": 70,
          "time": 41.80000000000014,
          "velocity": 0.8661417322834646,
          "duration": 0.19583333333333286
        },
        {
          "name": "C4",
          "midi": 60,
          "time": 41.80000000000014,
          "velocity": 0.8661417322834646,
          "duration": 0.19583333333333286
        },
        {
          "name": "G4",
          "midi": 67,
          "time": 41.80000000000014,
          "velocity": 0.8661417322834646,
          "duration": 0.19583333333333286
        },
        {
          "name": "C#2",
          "midi": 37,
          "time": 41.80000000000014,
          "velocity": 0.3543307086614173,
          "duration": 0.19583333333333286
        },
        {
          "name": "E2",
          "midi": 40,
          "time": 41.80000000000014,
          "velocity": 0.3543307086614173,
          "duration": 0.19583333333333286
        },
        {
          "name": "A4",
          "midi": 69,
          "time": 42.00000000000014,
          "velocity": 0.8661417322834646,
          "duration": 0.3333333333333357
        },
        {
          "name": "F3",
          "midi": 53,
          "time": 42.00000000000014,
          "velocity": 0.8661417322834646,
          "duration": 0.3333333333333357
        },
        {
          "name": "A4",
          "midi": 69,
          "time": 42.00000000000014,
          "velocity": 0.8661417322834646,
          "duration": 0.3333333333333357
        },
        {
          "name": "C4",
          "midi": 60,
          "time": 42.00000000000014,
          "velocity": 0.8661417322834646,
          "duration": 0.19583333333333286
        },
        {
          "name": "F4",
          "midi": 65,
          "time": 42.00000000000014,
          "velocity": 0.8661417322834646,
          "duration": 0.19583333333333286
        },
        {
          "name": "C#2",
          "midi": 37,
          "time": 42.00000000000014,
          "velocity": 0.3543307086614173,
          "duration": 0.19583333333333286
        },
        {
          "name": "E2",
          "midi": 40,
          "time": 42.00000000000014,
          "velocity": 0.3543307086614173,
          "duration": 0.19583333333333286
        },
        {
          "name": "C4",
          "midi": 60,
          "time": 42.200000000000145,
          "velocity": 0.8661417322834646,
          "duration": 0.19583333333333286
        },
        {
          "name": "F4",
          "midi": 65,
          "time": 42.200000000000145,
          "velocity": 0.8661417322834646,
          "duration": 0.19583333333333286
        },
        {
          "name": "C#2",
          "midi": 37,
          "time": 42.200000000000145,
          "velocity": 0.3543307086614173,
          "duration": 0.09583333333333144
        },
        {
          "name": "E2",
          "midi": 40,
          "time": 42.200000000000145,
          "velocity": 0.3543307086614173,
          "duration": 0.09583333333333144
        },
        {
          "name": "C#2",
          "midi": 37,
          "time": 42.300000000000146,
          "velocity": 0.3543307086614173,
          "duration": 0.09583333333333144
        },
        {
          "name": "E2",
          "midi": 40,
          "time": 42.300000000000146,
          "velocity": 0.3543307086614173,
          "duration": 0.09583333333333144
        },
        {
          "name": "F4",
          "midi": 65,
          "time": 42.40000000000015,
          "velocity": 0.8661417322834646,
          "duration": 0.19583333333333286
        },
        {
          "name": "F2",
          "midi": 41,
          "time": 42.40000000000015,
          "velocity": 0.8661417322834646,
          "duration": 0.3333333333333357
        },
        {
          "name": "A4",
          "midi": 69,
          "time": 42.40000000000015,
          "velocity": 0.8661417322834646,
          "duration": 0.3333333333333357
        },
        {
          "name": "C4",
          "midi": 60,
          "time": 42.40000000000015,
          "velocity": 0.8661417322834646,
          "duration": 0.19583333333333286
        },
        {
          "name": "F4",
          "midi": 65,
          "time": 42.40000000000015,
          "velocity": 0.8661417322834646,
          "duration": 0.3333333333333357
        },
        {
          "name": "C#2",
          "midi": 37,
          "time": 42.40000000000015,
          "velocity": 0.3543307086614173,
          "duration": 0.19583333333333286
        },
        {
          "name": "E2",
          "midi": 40,
          "time": 42.40000000000015,
          "velocity": 0.3543307086614173,
          "duration": 0.19583333333333286
        },
        {
          "name": "C4",
          "midi": 60,
          "time": 42.60000000000015,
          "velocity": 0.8661417322834646,
          "duration": 0.19583333333333286
        },
        {
          "name": "F4",
          "midi": 65,
          "time": 42.60000000000015,
          "velocity": 0.8661417322834646,
          "duration": 0.19583333333333286
        },
        {
          "name": "C#2",
          "midi": 37,
          "time": 42.60000000000015,
          "velocity": 0.3543307086614173,
          "duration": 0.19583333333333286
        },
        {
          "name": "E2",
          "midi": 40,
          "time": 42.60000000000015,
          "velocity": 0.3543307086614173,
          "duration": 0.19583333333333286
        },
        {
          "name": "C4",
          "midi": 60,
          "time": 42.80000000000015,
          "velocity": 0.8661417322834646,
          "duration": 0.19583333333333286
        },
        {
          "name": "A2",
          "midi": 45,
          "time": 42.80000000000015,
          "velocity": 0.8661417322834646,
          "duration": 0.3333333333333357
        },
        {
          "name": "C5",
          "midi": 72,
          "time": 42.80000000000015,
          "velocity": 0.8661417322834646,
          "duration": 0.3333333333333357
        },
        {
          "name": "C4",
          "midi": 60,
          "time": 42.80000000000015,
          "velocity": 0.8661417322834646,
          "duration": 0.3333333333333357
        },
        {
          "name": "E4",
          "midi": 64,
          "time": 42.80000000000015,
          "velocity": 0.8661417322834646,
          "duration": 0.19583333333333286
        },
        {
          "name": "A4",
          "midi": 69,
          "time": 42.80000000000015,
          "velocity": 0.8661417322834646,
          "duration": 0.19583333333333286
        },
        {
          "name": "C#2",
          "midi": 37,
          "time": 42.80000000000015,
          "velocity": 0.3543307086614173,
          "duration": 0.19583333333333286
        },
        {
          "name": "E2",
          "midi": 40,
          "time": 42.80000000000015,
          "velocity": 0.3543307086614173,
          "duration": 0.19583333333333286
        },
        {
          "name": "C4",
          "midi": 60,
          "time": 43.000000000000156,
          "velocity": 0.8661417322834646,
          "duration": 0.19583333333333286
        },
        {
          "name": "E4",
          "midi": 64,
          "time": 43.000000000000156,
          "velocity": 0.8661417322834646,
          "duration": 0.19583333333333286
        },
        {
          "name": "A4",
          "midi": 69,
          "time": 43.000000000000156,
          "velocity": 0.8661417322834646,
          "duration": 0.19583333333333286
        },
        {
          "name": "C#2",
          "midi": 37,
          "time": 43.000000000000156,
          "velocity": 0.3543307086614173,
          "duration": 0.19583333333333286
        },
        {
          "name": "E2",
          "midi": 40,
          "time": 43.000000000000156,
          "velocity": 0.3543307086614173,
          "duration": 0.19583333333333286
        },
        {
          "name": "D4",
          "midi": 62,
          "time": 43.20000000000016,
          "velocity": 0.8661417322834646,
          "duration": 0.19583333333333286
        },
        {
          "name": "D3",
          "midi": 50,
          "time": 43.20000000000016,
          "velocity": 0.8661417322834646,
          "duration": 0.3333333333333428
        },
        {
          "name": "D4",
          "midi": 62,
          "time": 43.20000000000016,
          "velocity": 0.8661417322834646,
          "duration": 0.2958333333333414
        },
        {
          "name": "F4",
          "midi": 65,
          "time": 43.20000000000016,
          "velocity": 0.8661417322834646,
          "duration": 0.19583333333333286
        },
        {
          "name": "A4",
          "midi": 69,
          "time": 43.20000000000016,
          "velocity": 0.8661417322834646,
          "duration": 0.19583333333333286
        },
        {
          "name": "C#2",
          "midi": 37,
          "time": 43.20000000000016,
          "velocity": 0.3543307086614173,
          "duration": 0.19583333333333286
        },
        {
          "name": "E2",
          "midi": 40,
          "time": 43.20000000000016,
          "velocity": 0.3543307086614173,
          "duration": 0.19583333333333286
        },
        {
          "name": "A5",
          "midi": 81,
          "time": 43.40000000000016,
          "velocity": 0.8661417322834646,
          "duration": 0.06666666666666998
        },
        {
          "name": "D4",
          "midi": 62,
          "time": 43.40000000000016,
          "velocity": 0.8661417322834646,
          "duration": 0.19583333333333997
        },
        {
          "name": "F4",
          "midi": 65,
          "time": 43.40000000000016,
          "velocity": 0.8661417322834646,
          "duration": 0.09583333333333854
        },
        {
          "name": "A4",
          "midi": 69,
          "time": 43.40000000000016,
          "velocity": 0.8661417322834646,
          "duration": 0.09583333333333854
        },
        {
          "name": "C#2",
          "midi": 37,
          "time": 43.40000000000016,
          "velocity": 0.3543307086614173,
          "duration": 0.09583333333333854
        },
        {
          "name": "E2",
          "midi": 40,
          "time": 43.40000000000016,
          "velocity": 0.3543307086614173,
          "duration": 0.09583333333333854
        },
        {
          "name": "F5",
          "midi": 77,
          "time": 43.46666666666683,
          "velocity": 0.8661417322834646,
          "duration": 0.06666666666666998
        },
        {
          "name": "D4",
          "midi": 62,
          "time": 43.50000000000017,
          "velocity": 0.8661417322834646,
          "duration": 0.2958333333333414
        },
        {
          "name": "F4",
          "midi": 65,
          "time": 43.50000000000017,
          "velocity": 0.8661417322834646,
          "duration": 0.09583333333333144
        },
        {
          "name": "A4",
          "midi": 69,
          "time": 43.50000000000017,
          "velocity": 0.8661417322834646,
          "duration": 0.09583333333333144
        },
        {
          "name": "C#2",
          "midi": 37,
          "time": 43.50000000000017,
          "velocity": 0.3543307086614173,
          "duration": 0.09583333333333144
        },
        {
          "name": "E2",
          "midi": 40,
          "time": 43.50000000000017,
          "velocity": 0.3543307086614173,
          "duration": 0.09583333333333144
        },
        {
          "name": "D5",
          "midi": 74,
          "time": 43.5333333333335,
          "velocity": 0.8661417322834646,
          "duration": 0.0625
        },
        {
          "name": "A4",
          "midi": 69,
          "time": 43.60000000000017,
          "velocity": 0.8661417322834646,
          "duration": 0.06666666666666998
        },
        {
          "name": "D4",
          "midi": 62,
          "time": 43.60000000000017,
          "velocity": 0.8661417322834646,
          "duration": 0.3958333333333499
        },
        {
          "name": "F4",
          "midi": 65,
          "time": 43.60000000000017,
          "velocity": 0.8661417322834646,
          "duration": 0.19583333333333997
        },
        {
          "name": "A4",
          "midi": 69,
          "time": 43.60000000000017,
          "velocity": 0.8661417322834646,
          "duration": 0.19583333333333997
        },
        {
          "name": "C#2",
          "midi": 37,
          "time": 43.60000000000017,
          "velocity": 0.3543307086614173,
          "duration": 0.19583333333333997
        },
        {
          "name": "E2",
          "midi": 40,
          "time": 43.60000000000017,
          "velocity": 0.3543307086614173,
          "duration": 0.19583333333333997
        },
        {
          "name": "A5",
          "midi": 81,
          "time": 43.80000000000018,
          "velocity": 0.8661417322834646,
          "duration": 0.06666666666666998
        },
        {
          "name": "D4",
          "midi": 62,
          "time": 43.80000000000018,
          "velocity": 0.8661417322834646,
          "duration": 0.7958333333333485
        },
        {
          "name": "F4",
          "midi": 65,
          "time": 43.80000000000018,
          "velocity": 0.8661417322834646,
          "duration": 0.19583333333333997
        },
        {
          "name": "A4",
          "midi": 69,
          "time": 43.80000000000018,
          "velocity": 0.8661417322834646,
          "duration": 0.19583333333333997
        },
        {
          "name": "C#2",
          "midi": 37,
          "time": 43.80000000000018,
          "velocity": 0.3543307086614173,
          "duration": 0.19583333333333997
        },
        {
          "name": "E2",
          "midi": 40,
          "time": 43.80000000000018,
          "velocity": 0.3543307086614173,
          "duration": 0.19583333333333997
        },
        {
          "name": "C3",
          "midi": 48,
          "time": 44.00000000000019,
          "velocity": 0.8661417322834646,
          "duration": 0.3333333333333357
        },
        {
          "name": "G5",
          "midi": 79,
          "time": 44.00000000000019,
          "velocity": 0.8661417322834646,
          "duration": 0.10000000000000142
        },
        {
          "name": "C4",
          "midi": 60,
          "time": 44.00000000000019,
          "velocity": 0.8661417322834646,
          "duration": 0.19583333333333286
        },
        {
          "name": "E4",
          "midi": 64,
          "time": 44.00000000000019,
          "velocity": 0.8661417322834646,
          "duration": 0.19583333333333286
        },
        {
          "name": "G4",
          "midi": 67,
          "time": 44.00000000000019,
          "velocity": 0.8661417322834646,
          "duration": 0.19583333333333286
        },
        {
          "name": "C#2",
          "midi": 37,
          "time": 44.00000000000019,
          "velocity": 0.3543307086614173,
          "duration": 0.19583333333333286
        },
        {
          "name": "E2",
          "midi": 40,
          "time": 44.00000000000019,
          "velocity": 0.3543307086614173,
          "duration": 0.19583333333333286
        },
        {
          "name": "G4",
          "midi": 67,
          "time": 44.10000000000019,
          "velocity": 0.8661417322834646,
          "duration": 0.10000000000000142
        },
        {
          "name": "G5",
          "midi": 79,
          "time": 44.200000000000195,
          "velocity": 0.8661417322834646,
          "duration": 0.19583333333333286
        },
        {
          "name": "C4",
          "midi": 60,
          "time": 44.200000000000195,
          "velocity": 0.8661417322834646,
          "duration": 0.19583333333333286
        },
        {
          "name": "E4",
          "midi": 64,
          "time": 44.200000000000195,
          "velocity": 0.8661417322834646,
          "duration": 0.19583333333333286
        },
        {
          "name": "G4",
          "midi": 67,
          "time": 44.200000000000195,
          "velocity": 0.8661417322834646,
          "duration": 0.19583333333333286
        },
        {
          "name": "C#2",
          "midi": 37,
          "time": 44.200000000000195,
          "velocity": 0.3543307086614173,
          "duration": 0.19583333333333286
        },
        {
          "name": "E2",
          "midi": 40,
          "time": 44.200000000000195,
          "velocity": 0.3543307086614173,
          "duration": 0.19583333333333286
        },
        {
          "name": "D3",
          "midi": 50,
          "time": 44.4000000000002,
          "velocity": 0.8661417322834646,
          "duration": 0.3333333333333428
        },
        {
          "name": "D4",
          "midi": 62,
          "time": 44.4000000000002,
          "velocity": 0.8661417322834646,
          "duration": 0.2958333333333414
        },
        {
          "name": "F4",
          "midi": 65,
          "time": 44.4000000000002,
          "velocity": 0.8661417322834646,
          "duration": 0.19583333333333286
        },
        {
          "name": "A4",
          "midi": 69,
          "time": 44.4000000000002,
          "velocity": 0.8661417322834646,
          "duration": 0.19583333333333286
        },
        {
          "name": "C#2",
          "midi": 37,
          "time": 44.4000000000002,
          "velocity": 0.3543307086614173,
          "duration": 0.19583333333333286
        },
        {
          "name": "E2",
          "midi": 40,
          "time": 44.4000000000002,
          "velocity": 0.3543307086614173,
          "duration": 0.19583333333333286
        },
        {
          "name": "A5",
          "midi": 81,
          "time": 44.6000000000002,
          "velocity": 0.8661417322834646,
          "duration": 0.06666666666666998
        },
        {
          "name": "D4",
          "midi": 62,
          "time": 44.6000000000002,
          "velocity": 0.8661417322834646,
          "duration": 0.19583333333333997
        },
        {
          "name": "F4",
          "midi": 65,
          "time": 44.6000000000002,
          "velocity": 0.8661417322834646,
          "duration": 0.09583333333333854
        },
        {
          "name": "A4",
          "midi": 69,
          "time": 44.6000000000002,
          "velocity": 0.8661417322834646,
          "duration": 0.09583333333333854
        },
        {
          "name": "C#2",
          "midi": 37,
          "time": 44.6000000000002,
          "velocity": 0.3543307086614173,
          "duration": 0.09583333333333854
        },
        {
          "name": "E2",
          "midi": 40,
          "time": 44.6000000000002,
          "velocity": 0.3543307086614173,
          "duration": 0.09583333333333854
        },
        {
          "name": "F5",
          "midi": 77,
          "time": 44.66666666666687,
          "velocity": 0.8661417322834646,
          "duration": 0.06666666666666998
        },
        {
          "name": "D4",
          "midi": 62,
          "time": 44.70000000000021,
          "velocity": 0.8661417322834646,
          "duration": 0.2958333333333414
        },
        {
          "name": "F4",
          "midi": 65,
          "time": 44.70000000000021,
          "velocity": 0.8661417322834646,
          "duration": 0.09583333333333144
        },
        {
          "name": "A4",
          "midi": 69,
          "time": 44.70000000000021,
          "velocity": 0.8661417322834646,
          "duration": 0.09583333333333144
        },
        {
          "name": "C#2",
          "midi": 37,
          "time": 44.70000000000021,
          "velocity": 0.3543307086614173,
          "duration": 0.09583333333333144
        },
        {
          "name": "E2",
          "midi": 40,
          "time": 44.70000000000021,
          "velocity": 0.3543307086614173,
          "duration": 0.09583333333333144
        },
        {
          "name": "D5",
          "midi": 74,
          "time": 44.73333333333354,
          "velocity": 0.8661417322834646,
          "duration": 0.0625
        },
        {
          "name": "A4",
          "midi": 69,
          "time": 44.80000000000021,
          "velocity": 0.8661417322834646,
          "duration": 0.06666666666666998
        },
        {
          "name": "D4",
          "midi": 62,
          "time": 44.80000000000021,
          "velocity": 0.8661417322834646,
          "duration": 0.30000000000001137
        },
        {
          "name": "F4",
          "midi": 65,
          "time": 44.80000000000021,
          "velocity": 0.8661417322834646,
          "duration": 0.19583333333333997
        },
        {
          "name": "A4",
          "midi": 69,
          "time": 44.80000000000021,
          "velocity": 0.8661417322834646,
          "duration": 0.19583333333333997
        },
        {
          "name": "C#2",
          "midi": 37,
          "time": 44.80000000000021,
          "velocity": 0.3543307086614173,
          "duration": 0.19583333333333997
        },
        {
          "name": "E2",
          "midi": 40,
          "time": 44.80000000000021,
          "velocity": 0.3543307086614173,
          "duration": 0.19583333333333997
        },
        {
          "name": "A5",
          "midi": 81,
          "time": 45.00000000000022,
          "velocity": 0.8661417322834646,
          "duration": 0.06666666666666998
        },
        {
          "name": "D4",
          "midi": 62,
          "time": 45.00000000000022,
          "velocity": 0.8661417322834646,
          "duration": 0.19583333333333286
        },
        {
          "name": "F4",
          "midi": 65,
          "time": 45.00000000000022,
          "velocity": 0.8661417322834646,
          "duration": 0.19583333333333286
        },
        {
          "name": "A4",
          "midi": 69,
          "time": 45.00000000000022,
          "velocity": 0.8661417322834646,
          "duration": 0.19583333333333286
        },
        {
          "name": "C#2",
          "midi": 37,
          "time": 45.00000000000022,
          "velocity": 0.3543307086614173,
          "duration": 0.19583333333333286
        },
        {
          "name": "E2",
          "midi": 40,
          "time": 45.00000000000022,
          "velocity": 0.3543307086614173,
          "duration": 0.19583333333333286
        },
        {
          "name": "C3",
          "midi": 48,
          "time": 45.20000000000022,
          "velocity": 0.8661417322834646,
          "duration": 0.3333333333333357
        },
        {
          "name": "G5",
          "midi": 79,
          "time": 45.20000000000022,
          "velocity": 0.8661417322834646,
          "duration": 0.10000000000000142
        },
        {
          "name": "C4",
          "midi": 60,
          "time": 45.20000000000022,
          "velocity": 0.8661417322834646,
          "duration": 0.19583333333333286
        },
        {
          "name": "E4",
          "midi": 64,
          "time": 45.20000000000022,
          "velocity": 0.8661417322834646,
          "duration": 0.19583333333333286
        },
        {
          "name": "G4",
          "midi": 67,
          "time": 45.20000000000022,
          "velocity": 0.8661417322834646,
          "duration": 0.19583333333333286
        },
        {
          "name": "C#2",
          "midi": 37,
          "time": 45.20000000000022,
          "velocity": 0.3543307086614173,
          "duration": 0.19583333333333286
        },
        {
          "name": "E2",
          "midi": 40,
          "time": 45.20000000000022,
          "velocity": 0.3543307086614173,
          "duration": 0.19583333333333286
        },
        {
          "name": "G4",
          "midi": 67,
          "time": 45.300000000000225,
          "velocity": 0.8661417322834646,
          "duration": 0.10000000000000142
        },
        {
          "name": "G5",
          "midi": 79,
          "time": 45.400000000000226,
          "velocity": 0.8661417322834646,
          "duration": 0.19583333333333286
        },
        {
          "name": "C4",
          "midi": 60,
          "time": 45.400000000000226,
          "velocity": 0.8661417322834646,
          "duration": 0.19583333333333286
        },
        {
          "name": "E4",
          "midi": 64,
          "time": 45.400000000000226,
          "velocity": 0.8661417322834646,
          "duration": 0.19583333333333286
        },
        {
          "name": "G4",
          "midi": 67,
          "time": 45.400000000000226,
          "velocity": 0.8661417322834646,
          "duration": 0.19583333333333286
        },
        {
          "name": "C#2",
          "midi": 37,
          "time": 45.400000000000226,
          "velocity": 0.3543307086614173,
          "duration": 0.19583333333333286
        },
        {
          "name": "E2",
          "midi": 40,
          "time": 45.400000000000226,
          "velocity": 0.3543307086614173,
          "duration": 0.19583333333333286
        },
        {
          "name": "F4",
          "midi": 65,
          "time": 45.60000000000023,
          "velocity": 0.8661417322834646,
          "duration": 0.19583333333333286
        },
        {
          "name": "A3",
          "midi": 57,
          "time": 45.60000000000023,
          "velocity": 0.8661417322834646,
          "duration": 0.19583333333333286
        },
        {
          "name": "D4",
          "midi": 62,
          "time": 45.60000000000023,
          "velocity": 0.8661417322834646,
          "duration": 0.19583333333333286
        },
        {
          "name": "F4",
          "midi": 65,
          "time": 45.60000000000023,
          "velocity": 0.8661417322834646,
          "duration": 0.2958333333333343
        },
        {
          "name": "D3",
          "midi": 50,
          "time": 45.60000000000023,
          "velocity": 0.8661417322834646,
          "duration": 0.3333333333333357
        },
        {
          "name": "C#2",
          "midi": 37,
          "time": 45.60000000000023,
          "velocity": 0.3543307086614173,
          "duration": 0.19583333333333286
        },
        {
          "name": "E2",
          "midi": 40,
          "time": 45.60000000000023,
          "velocity": 0.3543307086614173,
          "duration": 0.19583333333333286
        },
        {
          "name": "A3",
          "midi": 57,
          "time": 45.80000000000023,
          "velocity": 0.8661417322834646,
          "duration": 0.09583333333333144
        },
        {
          "name": "D4",
          "midi": 62,
          "time": 45.80000000000023,
          "velocity": 0.8661417322834646,
          "duration": 0.09583333333333144
        },
        {
          "name": "F4",
          "midi": 65,
          "time": 45.80000000000023,
          "velocity": 0.8661417322834646,
          "duration": 0.19583333333333286
        },
        {
          "name": "C#2",
          "midi": 37,
          "time": 45.80000000000023,
          "velocity": 0.3543307086614173,
          "duration": 0.09583333333333144
        },
        {
          "name": "E2",
          "midi": 40,
          "time": 45.80000000000023,
          "velocity": 0.3543307086614173,
          "duration": 0.09583333333333144
        },
        {
          "name": "A3",
          "midi": 57,
          "time": 45.90000000000023,
          "velocity": 0.8661417322834646,
          "duration": 0.09583333333333144
        },
        {
          "name": "D4",
          "midi": 62,
          "time": 45.90000000000023,
          "velocity": 0.8661417322834646,
          "duration": 0.09583333333333144
        },
        {
          "name": "F4",
          "midi": 65,
          "time": 45.90000000000023,
          "velocity": 0.8661417322834646,
          "duration": 0.23333333333333428
        },
        {
          "name": "C#2",
          "midi": 37,
          "time": 45.90000000000023,
          "velocity": 0.3543307086614173,
          "duration": 0.09583333333333144
        },
        {
          "name": "E2",
          "midi": 40,
          "time": 45.90000000000023,
          "velocity": 0.3543307086614173,
          "duration": 0.09583333333333144
        },
        {
          "name": "A3",
          "midi": 57,
          "time": 46.000000000000234,
          "velocity": 0.8661417322834646,
          "duration": 0.19583333333333286
        },
        {
          "name": "D4",
          "midi": 62,
          "time": 46.000000000000234,
          "velocity": 0.8661417322834646,
          "duration": 0.19583333333333286
        },
        {
          "name": "F4",
          "midi": 65,
          "time": 46.000000000000234,
          "velocity": 0.8661417322834646,
          "duration": 0.19583333333333286
        },
        {
          "name": "C#2",
          "midi": 37,
          "time": 46.000000000000234,
          "velocity": 0.3543307086614173,
          "duration": 0.19583333333333286
        },
        {
          "name": "E2",
          "midi": 40,
          "time": 46.000000000000234,
          "velocity": 0.3543307086614173,
          "duration": 0.19583333333333286
        },
        {
          "name": "D4",
          "midi": 62,
          "time": 46.20000000000024,
          "velocity": 0.8661417322834646,
          "duration": 0.19583333333333286
        },
        {
          "name": "A3",
          "midi": 57,
          "time": 46.20000000000024,
          "velocity": 0.8661417322834646,
          "duration": 0.19583333333333286
        },
        {
          "name": "D4",
          "midi": 62,
          "time": 46.20000000000024,
          "velocity": 0.8661417322834646,
          "duration": 0.3958333333333357
        },
        {
          "name": "F4",
          "midi": 65,
          "time": 46.20000000000024,
          "velocity": 0.8661417322834646,
          "duration": 0.19583333333333286
        },
        {
          "name": "C#2",
          "midi": 37,
          "time": 46.20000000000024,
          "velocity": 0.3543307086614173,
          "duration": 0.19583333333333286
        },
        {
          "name": "E2",
          "midi": 40,
          "time": 46.20000000000024,
          "velocity": 0.3543307086614173,
          "duration": 0.19583333333333286
        },
        {
          "name": "A3",
          "midi": 57,
          "time": 46.40000000000024,
          "velocity": 0.8661417322834646,
          "duration": 0.19583333333333286
        },
        {
          "name": "D4",
          "midi": 62,
          "time": 46.40000000000024,
          "velocity": 0.8661417322834646,
          "duration": 0.19583333333333286
        },
        {
          "name": "F4",
          "midi": 65,
          "time": 46.40000000000024,
          "velocity": 0.8661417322834646,
          "duration": 0.19583333333333286
        },
        {
          "name": "A2",
          "midi": 45,
          "time": 46.40000000000024,
          "velocity": 0.8661417322834646,
          "duration": 0.3333333333333357
        },
        {
          "name": "C#2",
          "midi": 37,
          "time": 46.40000000000024,
          "velocity": 0.3543307086614173,
          "duration": 0.19583333333333286
        },
        {
          "name": "E2",
          "midi": 40,
          "time": 46.40000000000024,
          "velocity": 0.3543307086614173,
          "duration": 0.19583333333333286
        },
        {
          "name": "F4",
          "midi": 65,
          "time": 46.60000000000024,
          "velocity": 0.8661417322834646,
          "duration": 0.19583333333333286
        },
        {
          "name": "A3",
          "midi": 57,
          "time": 46.60000000000024,
          "velocity": 0.8661417322834646,
          "duration": 0.19583333333333286
        },
        {
          "name": "D4",
          "midi": 62,
          "time": 46.60000000000024,
          "velocity": 0.8661417322834646,
          "duration": 0.19583333333333286
        },
        {
          "name": "F4",
          "midi": 65,
          "time": 46.60000000000024,
          "velocity": 0.8661417322834646,
          "duration": 0.19583333333333286
        },
        {
          "name": "C#2",
          "midi": 37,
          "time": 46.60000000000024,
          "velocity": 0.3543307086614173,
          "duration": 0.19583333333333286
        },
        {
          "name": "E2",
          "midi": 40,
          "time": 46.60000000000024,
          "velocity": 0.3543307086614173,
          "duration": 0.19583333333333286
        },
        {
          "name": "A4",
          "midi": 69,
          "time": 46.800000000000246,
          "velocity": 0.8661417322834646,
          "duration": 0.3333333333333357
        },
        {
          "name": "A3",
          "midi": 57,
          "time": 46.800000000000246,
          "velocity": 0.8661417322834646,
          "duration": 0.19583333333333286
        },
        {
          "name": "D4",
          "midi": 62,
          "time": 46.800000000000246,
          "velocity": 0.8661417322834646,
          "duration": 0.19583333333333286
        },
        {
          "name": "F4",
          "midi": 65,
          "time": 46.800000000000246,
          "velocity": 0.8661417322834646,
          "duration": 0.19583333333333286
        },
        {
          "name": "D3",
          "midi": 50,
          "time": 46.800000000000246,
          "velocity": 0.8661417322834646,
          "duration": 0.3333333333333357
        },
        {
          "name": "C#2",
          "midi": 37,
          "time": 46.800000000000246,
          "velocity": 0.3543307086614173,
          "duration": 0.19583333333333286
        },
        {
          "name": "E2",
          "midi": 40,
          "time": 46.800000000000246,
          "velocity": 0.3543307086614173,
          "duration": 0.19583333333333286
        },
        {
          "name": "A3",
          "midi": 57,
          "time": 47.00000000000025,
          "velocity": 0.8661417322834646,
          "duration": 0.09583333333333144
        },
        {
          "name": "D4",
          "midi": 62,
          "time": 47.00000000000025,
          "velocity": 0.8661417322834646,
          "duration": 0.09583333333333144
        },
        {
          "name": "F4",
          "midi": 65,
          "time": 47.00000000000025,
          "velocity": 0.8661417322834646,
          "duration": 0.09583333333333144
        },
        {
          "name": "C#2",
          "midi": 37,
          "time": 47.00000000000025,
          "velocity": 0.3543307086614173,
          "duration": 0.09583333333333144
        },
        {
          "name": "E2",
          "midi": 40,
          "time": 47.00000000000025,
          "velocity": 0.3543307086614173,
          "duration": 0.09583333333333144
        },
        {
          "name": "A3",
          "midi": 57,
          "time": 47.10000000000025,
          "velocity": 0.8661417322834646,
          "duration": 0.09583333333333144
        },
        {
          "name": "D4",
          "midi": 62,
          "time": 47.10000000000025,
          "velocity": 0.8661417322834646,
          "duration": 0.09583333333333144
        },
        {
          "name": "F4",
          "midi": 65,
          "time": 47.10000000000025,
          "velocity": 0.8661417322834646,
          "duration": 0.09583333333333144
        },
        {
          "name": "C#2",
          "midi": 37,
          "time": 47.10000000000025,
          "velocity": 0.3543307086614173,
          "duration": 0.09583333333333144
        },
        {
          "name": "E2",
          "midi": 40,
          "time": 47.10000000000025,
          "velocity": 0.3543307086614173,
          "duration": 0.09583333333333144
        },
        {
          "name": "G4",
          "midi": 67,
          "time": 47.20000000000025,
          "velocity": 0.8661417322834646,
          "duration": 0.3333333333333357
        },
        {
          "name": "A3",
          "midi": 57,
          "time": 47.20000000000025,
          "velocity": 0.8661417322834646,
          "duration": 0.19583333333333286
        },
        {
          "name": "D4",
          "midi": 62,
          "time": 47.20000000000025,
          "velocity": 0.8661417322834646,
          "duration": 0.19583333333333286
        },
        {
          "name": "F4",
          "midi": 65,
          "time": 47.20000000000025,
          "velocity": 0.8661417322834646,
          "duration": 0.19583333333333286
        },
        {
          "name": "C#2",
          "midi": 37,
          "time": 47.20000000000025,
          "velocity": 0.3543307086614173,
          "duration": 0.19583333333333286
        },
        {
          "name": "E2",
          "midi": 40,
          "time": 47.20000000000025,
          "velocity": 0.3543307086614173,
          "duration": 0.19583333333333286
        },
        {
          "name": "A3",
          "midi": 57,
          "time": 47.400000000000254,
          "velocity": 0.8661417322834646,
          "duration": 0.19583333333333286
        },
        {
          "name": "D4",
          "midi": 62,
          "time": 47.400000000000254,
          "velocity": 0.8661417322834646,
          "duration": 0.19583333333333286
        },
        {
          "name": "F4",
          "midi": 65,
          "time": 47.400000000000254,
          "velocity": 0.8661417322834646,
          "duration": 0.19583333333333286
        },
        {
          "name": "C#2",
          "midi": 37,
          "time": 47.400000000000254,
          "velocity": 0.3543307086614173,
          "duration": 0.19583333333333286
        },
        {
          "name": "E2",
          "midi": 40,
          "time": 47.400000000000254,
          "velocity": 0.3543307086614173,
          "duration": 0.19583333333333286
        },
        {
          "name": "F4",
          "midi": 65,
          "time": 47.60000000000026,
          "velocity": 0.8661417322834646,
          "duration": 0.19583333333333286
        },
        {
          "name": "A3",
          "midi": 57,
          "time": 47.60000000000026,
          "velocity": 0.8661417322834646,
          "duration": 0.19583333333333286
        },
        {
          "name": "D4",
          "midi": 62,
          "time": 47.60000000000026,
          "velocity": 0.8661417322834646,
          "duration": 0.19583333333333286
        },
        {
          "name": "F4",
          "midi": 65,
          "time": 47.60000000000026,
          "velocity": 0.8661417322834646,
          "duration": 0.3333333333333357
        },
        {
          "name": "A2",
          "midi": 45,
          "time": 47.60000000000026,
          "velocity": 0.8661417322834646,
          "duration": 0.3333333333333357
        },
        {
          "name": "C#2",
          "midi": 37,
          "time": 47.60000000000026,
          "velocity": 0.3543307086614173,
          "duration": 0.19583333333333286
        },
        {
          "name": "E2",
          "midi": 40,
          "time": 47.60000000000026,
          "velocity": 0.3543307086614173,
          "duration": 0.19583333333333286
        },
        {
          "name": "F4",
          "midi": 65,
          "time": 47.80000000000026,
          "velocity": 0.8661417322834646,
          "duration": 0.19583333333333286
        },
        {
          "name": "D4",
          "midi": 62,
          "time": 47.80000000000026,
          "velocity": 0.8661417322834646,
          "duration": 0.19583333333333286
        },
        {
          "name": "A3",
          "midi": 57,
          "time": 47.80000000000026,
          "velocity": 0.8661417322834646,
          "duration": 0.19583333333333286
        },
        {
          "name": "C#2",
          "midi": 37,
          "time": 47.80000000000026,
          "velocity": 0.3543307086614173,
          "duration": 0.19583333333333286
        },
        {
          "name": "E2",
          "midi": 40,
          "time": 47.80000000000026,
          "velocity": 0.3543307086614173,
          "duration": 0.19583333333333286
        },
        {
          "name": "A4",
          "midi": 69,
          "time": 48.00000000000026,
          "velocity": 0.8661417322834646,
          "duration": 0.7958333333333414
        },
        {
          "name": "A3",
          "midi": 57,
          "time": 48.00000000000026,
          "velocity": 0.8661417322834646,
          "duration": 0.19583333333333286
        },
        {
          "name": "D4",
          "midi": 62,
          "time": 48.00000000000026,
          "velocity": 0.8661417322834646,
          "duration": 0.19583333333333286
        },
        {
          "name": "F4",
          "midi": 65,
          "time": 48.00000000000026,
          "velocity": 0.8661417322834646,
          "duration": 0.19583333333333286
        },
        {
          "name": "D3",
          "midi": 50,
          "time": 48.00000000000026,
          "velocity": 0.8661417322834646,
          "duration": 0.3333333333333357
        },
        {
          "name": "A3",
          "midi": 57,
          "time": 48.00000000000026,
          "velocity": 0.8661417322834646,
          "duration": 0.19583333333333286
        },
        {
          "name": "D4",
          "midi": 62,
          "time": 48.00000000000026,
          "velocity": 0.8661417322834646,
          "duration": 0.19583333333333286
        },
        {
          "name": "F4",
          "midi": 65,
          "time": 48.00000000000026,
          "velocity": 0.8661417322834646,
          "duration": 0.19583333333333286
        },
        {
          "name": "C#2",
          "midi": 37,
          "time": 48.00000000000026,
          "velocity": 0.3543307086614173,
          "duration": 0.19583333333333286
        },
        {
          "name": "E2",
          "midi": 40,
          "time": 48.00000000000026,
          "velocity": 0.3543307086614173,
          "duration": 0.19583333333333286
        },
        {
          "name": "A3",
          "midi": 57,
          "time": 48.200000000000266,
          "velocity": 0.8661417322834646,
          "duration": 0.09583333333333144
        },
        {
          "name": "D4",
          "midi": 62,
          "time": 48.200000000000266,
          "velocity": 0.8661417322834646,
          "duration": 0.09583333333333144
        },
        {
          "name": "F4",
          "midi": 65,
          "time": 48.200000000000266,
          "velocity": 0.8661417322834646,
          "duration": 0.09583333333333144
        },
        {
          "name": "A3",
          "midi": 57,
          "time": 48.200000000000266,
          "velocity": 0.8661417322834646,
          "duration": 0.09583333333333144
        },
        {
          "name": "D4",
          "midi": 62,
          "time": 48.200000000000266,
          "velocity": 0.8661417322834646,
          "duration": 0.09583333333333144
        },
        {
          "name": "F4",
          "midi": 65,
          "time": 48.200000000000266,
          "velocity": 0.8661417322834646,
          "duration": 0.09583333333333144
        },
        {
          "name": "C#2",
          "midi": 37,
          "time": 48.200000000000266,
          "velocity": 0.3543307086614173,
          "duration": 0.09583333333333144
        },
        {
          "name": "E2",
          "midi": 40,
          "time": 48.200000000000266,
          "velocity": 0.3543307086614173,
          "duration": 0.09583333333333144
        },
        {
          "name": "A3",
          "midi": 57,
          "time": 48.30000000000027,
          "velocity": 0.8661417322834646,
          "duration": 0.09583333333333144
        },
        {
          "name": "D4",
          "midi": 62,
          "time": 48.30000000000027,
          "velocity": 0.8661417322834646,
          "duration": 0.09583333333333144
        },
        {
          "name": "F4",
          "midi": 65,
          "time": 48.30000000000027,
          "velocity": 0.8661417322834646,
          "duration": 0.09583333333333144
        },
        {
          "name": "A3",
          "midi": 57,
          "time": 48.30000000000027,
          "velocity": 0.8661417322834646,
          "duration": 0.09583333333333144
        },
        {
          "name": "D4",
          "midi": 62,
          "time": 48.30000000000027,
          "velocity": 0.8661417322834646,
          "duration": 0.09583333333333144
        },
        {
          "name": "F4",
          "midi": 65,
          "time": 48.30000000000027,
          "velocity": 0.8661417322834646,
          "duration": 0.09583333333333144
        },
        {
          "name": "C#2",
          "midi": 37,
          "time": 48.30000000000027,
          "velocity": 0.3543307086614173,
          "duration": 0.09583333333333144
        },
        {
          "name": "E2",
          "midi": 40,
          "time": 48.30000000000027,
          "velocity": 0.3543307086614173,
          "duration": 0.09583333333333144
        },
        {
          "name": "A3",
          "midi": 57,
          "time": 48.40000000000027,
          "velocity": 0.8661417322834646,
          "duration": 0.19583333333333286
        },
        {
          "name": "D4",
          "midi": 62,
          "time": 48.40000000000027,
          "velocity": 0.8661417322834646,
          "duration": 0.19583333333333286
        },
        {
          "name": "F4",
          "midi": 65,
          "time": 48.40000000000027,
          "velocity": 0.8661417322834646,
          "duration": 0.19583333333333286
        },
        {
          "name": "A3",
          "midi": 57,
          "time": 48.40000000000027,
          "velocity": 0.8661417322834646,
          "duration": 0.19583333333333286
        },
        {
          "name": "D4",
          "midi": 62,
          "time": 48.40000000000027,
          "velocity": 0.8661417322834646,
          "duration": 0.19583333333333286
        },
        {
          "name": "F4",
          "midi": 65,
          "time": 48.40000000000027,
          "velocity": 0.8661417322834646,
          "duration": 0.19583333333333286
        },
        {
          "name": "C#2",
          "midi": 37,
          "time": 48.40000000000027,
          "velocity": 0.3543307086614173,
          "duration": 0.19583333333333286
        },
        {
          "name": "E2",
          "midi": 40,
          "time": 48.40000000000027,
          "velocity": 0.3543307086614173,
          "duration": 0.19583333333333286
        },
        {
          "name": "D4",
          "midi": 62,
          "time": 48.60000000000027,
          "velocity": 0.8661417322834646,
          "duration": 0.19583333333333286
        },
        {
          "name": "F4",
          "midi": 65,
          "time": 48.60000000000027,
          "velocity": 0.8661417322834646,
          "duration": 0.19583333333333286
        },
        {
          "name": "A4",
          "midi": 69,
          "time": 48.60000000000027,
          "velocity": 0.8661417322834646,
          "duration": 0.19583333333333286
        },
        {
          "name": "D4",
          "midi": 62,
          "time": 48.60000000000027,
          "velocity": 0.8661417322834646,
          "duration": 0.19583333333333286
        },
        {
          "name": "F4",
          "midi": 65,
          "time": 48.60000000000027,
          "velocity": 0.8661417322834646,
          "duration": 0.19583333333333286
        },
        {
          "name": "A4",
          "midi": 69,
          "time": 48.60000000000027,
          "velocity": 0.8661417322834646,
          "duration": 0.5958333333333385
        },
        {
          "name": "C#2",
          "midi": 37,
          "time": 48.60000000000027,
          "velocity": 0.3543307086614173,
          "duration": 0.19583333333333286
        },
        {
          "name": "E2",
          "midi": 40,
          "time": 48.60000000000027,
          "velocity": 0.3543307086614173,
          "duration": 0.19583333333333286
        },
        {
          "name": "C4",
          "midi": 60,
          "time": 48.800000000000274,
          "velocity": 0.8661417322834646,
          "duration": 0.19583333333333286
        },
        {
          "name": "E4",
          "midi": 64,
          "time": 48.800000000000274,
          "velocity": 0.8661417322834646,
          "duration": 0.19583333333333286
        },
        {
          "name": "G4",
          "midi": 67,
          "time": 48.800000000000274,
          "velocity": 0.8661417322834646,
          "duration": 0.19583333333333286
        },
        {
          "name": "A2",
          "midi": 45,
          "time": 48.800000000000274,
          "velocity": 0.8661417322834646,
          "duration": 0.3333333333333357
        },
        {
          "name": "C4",
          "midi": 60,
          "time": 48.800000000000274,
          "velocity": 0.8661417322834646,
          "duration": 0.19583333333333286
        },
        {
          "name": "E4",
          "midi": 64,
          "time": 48.800000000000274,
          "velocity": 0.8661417322834646,
          "duration": 0.19583333333333286
        },
        {
          "name": "G4",
          "midi": 67,
          "time": 48.800000000000274,
          "velocity": 0.8661417322834646,
          "duration": 0.19583333333333286
        },
        {
          "name": "C#2",
          "midi": 37,
          "time": 48.800000000000274,
          "velocity": 0.3543307086614173,
          "duration": 0.19583333333333286
        },
        {
          "name": "E2",
          "midi": 40,
          "time": 48.800000000000274,
          "velocity": 0.3543307086614173,
          "duration": 0.19583333333333286
        },
        {
          "name": "D4",
          "midi": 62,
          "time": 49.00000000000028,
          "velocity": 0.8661417322834646,
          "duration": 0.19583333333333286
        },
        {
          "name": "F4",
          "midi": 65,
          "time": 49.00000000000028,
          "velocity": 0.8661417322834646,
          "duration": 0.19583333333333286
        },
        {
          "name": "A4",
          "midi": 69,
          "time": 49.00000000000028,
          "velocity": 0.8661417322834646,
          "duration": 0.19583333333333286
        },
        {
          "name": "D4",
          "midi": 62,
          "time": 49.00000000000028,
          "velocity": 0.8661417322834646,
          "duration": 0.19583333333333286
        },
        {
          "name": "F4",
          "midi": 65,
          "time": 49.00000000000028,
          "velocity": 0.8661417322834646,
          "duration": 0.19583333333333286
        },
        {
          "name": "A4",
          "midi": 69,
          "time": 49.00000000000028,
          "velocity": 0.8661417322834646,
          "duration": 0.3958333333333357
        },
        {
          "name": "C#2",
          "midi": 37,
          "time": 49.00000000000028,
          "velocity": 0.3543307086614173,
          "duration": 0.19583333333333286
        },
        {
          "name": "E2",
          "midi": 40,
          "time": 49.00000000000028,
          "velocity": 0.3543307086614173,
          "duration": 0.19583333333333286
        },
        {
          "name": "F4",
          "midi": 65,
          "time": 49.20000000000028,
          "velocity": 0.8661417322834646,
          "duration": 0.19583333333333286
        },
        {
          "name": "A4",
          "midi": 69,
          "time": 49.20000000000028,
          "velocity": 0.8661417322834646,
          "duration": 0.19583333333333286
        },
        {
          "name": "D5",
          "midi": 74,
          "time": 49.20000000000028,
          "velocity": 0.8661417322834646,
          "duration": 0.19583333333333286
        },
        {
          "name": "D3",
          "midi": 50,
          "time": 49.20000000000028,
          "velocity": 0.8661417322834646,
          "duration": 0.3333333333333357
        },
        {
          "name": "F4",
          "midi": 65,
          "time": 49.20000000000028,
          "velocity": 0.8661417322834646,
          "duration": 0.19583333333333286
        },
        {
          "name": "A4",
          "midi": 69,
          "time": 49.20000000000028,
          "velocity": 0.8661417322834646,
          "duration": 0.2958333333333343
        },
        {
          "name": "D5",
          "midi": 74,
          "time": 49.20000000000028,
          "velocity": 0.8661417322834646,
          "duration": 0.19583333333333286
        },
        {
          "name": "C#2",
          "midi": 37,
          "time": 49.20000000000028,
          "velocity": 0.3543307086614173,
          "duration": 0.19583333333333286
        },
        {
          "name": "E2",
          "midi": 40,
          "time": 49.20000000000028,
          "velocity": 0.3543307086614173,
          "duration": 0.19583333333333286
        },
        {
          "name": "D4",
          "midi": 62,
          "time": 49.40000000000028,
          "velocity": 0.8661417322834646,
          "duration": 0.09583333333333144
        },
        {
          "name": "F4",
          "midi": 65,
          "time": 49.40000000000028,
          "velocity": 0.8661417322834646,
          "duration": 0.09583333333333144
        },
        {
          "name": "A4",
          "midi": 69,
          "time": 49.40000000000028,
          "velocity": 0.8661417322834646,
          "duration": 0.09583333333333144
        },
        {
          "name": "D4",
          "midi": 62,
          "time": 49.40000000000028,
          "velocity": 0.8661417322834646,
          "duration": 0.09583333333333144
        },
        {
          "name": "F4",
          "midi": 65,
          "time": 49.40000000000028,
          "velocity": 0.8661417322834646,
          "duration": 0.09583333333333144
        },
        {
          "name": "A4",
          "midi": 69,
          "time": 49.40000000000028,
          "velocity": 0.8661417322834646,
          "duration": 0.19583333333333286
        },
        {
          "name": "C#2",
          "midi": 37,
          "time": 49.40000000000028,
          "velocity": 0.3543307086614173,
          "duration": 0.09583333333333144
        },
        {
          "name": "E2",
          "midi": 40,
          "time": 49.40000000000028,
          "velocity": 0.3543307086614173,
          "duration": 0.09583333333333144
        },
        {
          "name": "D4",
          "midi": 62,
          "time": 49.500000000000284,
          "velocity": 0.8661417322834646,
          "duration": 0.09583333333333144
        },
        {
          "name": "F4",
          "midi": 65,
          "time": 49.500000000000284,
          "velocity": 0.8661417322834646,
          "duration": 0.09583333333333144
        },
        {
          "name": "A4",
          "midi": 69,
          "time": 49.500000000000284,
          "velocity": 0.8661417322834646,
          "duration": 0.09583333333333144
        },
        {
          "name": "D4",
          "midi": 62,
          "time": 49.500000000000284,
          "velocity": 0.8661417322834646,
          "duration": 0.09583333333333144
        },
        {
          "name": "F4",
          "midi": 65,
          "time": 49.500000000000284,
          "velocity": 0.8661417322834646,
          "duration": 0.09583333333333144
        },
        {
          "name": "A4",
          "midi": 69,
          "time": 49.500000000000284,
          "velocity": 0.8661417322834646,
          "duration": 0.2958333333333343
        },
        {
          "name": "C#2",
          "midi": 37,
          "time": 49.500000000000284,
          "velocity": 0.3543307086614173,
          "duration": 0.09583333333333144
        },
        {
          "name": "E2",
          "midi": 40,
          "time": 49.500000000000284,
          "velocity": 0.3543307086614173,
          "duration": 0.09583333333333144
        },
        {
          "name": "D4",
          "midi": 62,
          "time": 49.600000000000286,
          "velocity": 0.8661417322834646,
          "duration": 0.19583333333333286
        },
        {
          "name": "F4",
          "midi": 65,
          "time": 49.600000000000286,
          "velocity": 0.8661417322834646,
          "duration": 0.19583333333333286
        },
        {
          "name": "A4",
          "midi": 69,
          "time": 49.600000000000286,
          "velocity": 0.8661417322834646,
          "duration": 0.19583333333333286
        },
        {
          "name": "D4",
          "midi": 62,
          "time": 49.600000000000286,
          "velocity": 0.8661417322834646,
          "duration": 0.19583333333333286
        },
        {
          "name": "F4",
          "midi": 65,
          "time": 49.600000000000286,
          "velocity": 0.8661417322834646,
          "duration": 0.19583333333333286
        },
        {
          "name": "A4",
          "midi": 69,
          "time": 49.600000000000286,
          "velocity": 0.8661417322834646,
          "duration": 0.30000000000000426
        },
        {
          "name": "C#2",
          "midi": 37,
          "time": 49.600000000000286,
          "velocity": 0.3543307086614173,
          "duration": 0.19583333333333286
        },
        {
          "name": "E2",
          "midi": 40,
          "time": 49.600000000000286,
          "velocity": 0.3543307086614173,
          "duration": 0.19583333333333286
        },
        {
          "name": "F4",
          "midi": 65,
          "time": 49.80000000000029,
          "velocity": 0.8661417322834646,
          "duration": 0.19583333333333286
        },
        {
          "name": "A4",
          "midi": 69,
          "time": 49.80000000000029,
          "velocity": 0.8661417322834646,
          "duration": 0.19583333333333286
        },
        {
          "name": "D5",
          "midi": 74,
          "time": 49.80000000000029,
          "velocity": 0.8661417322834646,
          "duration": 0.19583333333333286
        },
        {
          "name": "F4",
          "midi": 65,
          "time": 49.80000000000029,
          "velocity": 0.8661417322834646,
          "duration": 0.19583333333333286
        },
        {
          "name": "A4",
          "midi": 69,
          "time": 49.80000000000029,
          "velocity": 0.8661417322834646,
          "duration": 0.19583333333333286
        },
        {
          "name": "D5",
          "midi": 74,
          "time": 49.80000000000029,
          "velocity": 0.8661417322834646,
          "duration": 0.19583333333333286
        },
        {
          "name": "C#2",
          "midi": 37,
          "time": 49.80000000000029,
          "velocity": 0.3543307086614173,
          "duration": 0.19583333333333286
        },
        {
          "name": "E2",
          "midi": 40,
          "time": 49.80000000000029,
          "velocity": 0.3543307086614173,
          "duration": 0.19583333333333286
        },
        {
          "name": "E4",
          "midi": 64,
          "time": 50.00000000000029,
          "velocity": 0.8661417322834646,
          "duration": 0.19583333333333286
        },
        {
          "name": "A4",
          "midi": 69,
          "time": 50.00000000000029,
          "velocity": 0.8661417322834646,
          "duration": 0.19583333333333286
        },
        {
          "name": "A2",
          "midi": 45,
          "time": 50.00000000000029,
          "velocity": 0.8661417322834646,
          "duration": 0.3333333333333357
        },
        {
          "name": "E4",
          "midi": 64,
          "time": 50.00000000000029,
          "velocity": 1,
          "duration": 0.3333333333333357
        },
        {
          "name": "A4",
          "midi": 69,
          "time": 50.00000000000029,
          "velocity": 1,
          "duration": 0.3333333333333357
        },
        {
          "name": "C5",
          "midi": 72,
          "time": 50.00000000000029,
          "velocity": 1,
          "duration": 0.3333333333333357
        },
        {
          "name": "C#2",
          "midi": 37,
          "time": 50.00000000000029,
          "velocity": 0.3543307086614173,
          "duration": 0.19583333333333286
        },
        {
          "name": "E2",
          "midi": 40,
          "time": 50.00000000000029,
          "velocity": 0.3543307086614173,
          "duration": 0.19583333333333286
        },
        {
          "name": "E4",
          "midi": 64,
          "time": 50.200000000000294,
          "velocity": 0.8661417322834646,
          "duration": 0.19583333333333286
        },
        {
          "name": "A4",
          "midi": 69,
          "time": 50.200000000000294,
          "velocity": 0.8661417322834646,
          "duration": 0.19583333333333286
        },
        {
          "name": "C#2",
          "midi": 37,
          "time": 50.200000000000294,
          "velocity": 0.3543307086614173,
          "duration": 0.19583333333333286
        },
        {
          "name": "E2",
          "midi": 40,
          "time": 50.200000000000294,
          "velocity": 0.3543307086614173,
          "duration": 0.19583333333333286
        },
        {
          "name": "A4",
          "midi": 69,
          "time": 50.4000000000003,
          "velocity": 0.8661417322834646,
          "duration": 0.19583333333333286
        },
        {
          "name": "C4",
          "midi": 60,
          "time": 50.4000000000003,
          "velocity": 0.8661417322834646,
          "duration": 0.19583333333333286
        },
        {
          "name": "F4",
          "midi": 65,
          "time": 50.4000000000003,
          "velocity": 0.8661417322834646,
          "duration": 0.19583333333333286
        },
        {
          "name": "A4",
          "midi": 69,
          "time": 50.4000000000003,
          "velocity": 0.8661417322834646,
          "duration": 0.2958333333333343
        },
        {
          "name": "F2",
          "midi": 41,
          "time": 50.4000000000003,
          "velocity": 0.8661417322834646,
          "duration": 0.3333333333333357
        },
        {
          "name": "C#2",
          "midi": 37,
          "time": 50.4000000000003,
          "velocity": 0.3543307086614173,
          "duration": 0.19583333333333286
        },
        {
          "name": "E2",
          "midi": 40,
          "time": 50.4000000000003,
          "velocity": 0.3543307086614173,
          "duration": 0.19583333333333286
        },
        {
          "name": "C4",
          "midi": 60,
          "time": 50.6000000000003,
          "velocity": 0.8661417322834646,
          "duration": 0.09583333333333144
        },
        {
          "name": "F4",
          "midi": 65,
          "time": 50.6000000000003,
          "velocity": 0.8661417322834646,
          "duration": 0.09583333333333144
        },
        {
          "name": "A4",
          "midi": 69,
          "time": 50.6000000000003,
          "velocity": 0.8661417322834646,
          "duration": 0.19583333333333286
        },
        {
          "name": "C#2",
          "midi": 37,
          "time": 50.6000000000003,
          "velocity": 0.3543307086614173,
          "duration": 0.09583333333333144
        },
        {
          "name": "E2",
          "midi": 40,
          "time": 50.6000000000003,
          "velocity": 0.3543307086614173,
          "duration": 0.09583333333333144
        },
        {
          "name": "C4",
          "midi": 60,
          "time": 50.7000000000003,
          "velocity": 0.8661417322834646,
          "duration": 0.09583333333333144
        },
        {
          "name": "F4",
          "midi": 65,
          "time": 50.7000000000003,
          "velocity": 0.8661417322834646,
          "duration": 0.09583333333333144
        },
        {
          "name": "A4",
          "midi": 69,
          "time": 50.7000000000003,
          "velocity": 0.8661417322834646,
          "duration": 0.23333333333333428
        },
        {
          "name": "C#2",
          "midi": 37,
          "time": 50.7000000000003,
          "velocity": 0.3543307086614173,
          "duration": 0.09583333333333144
        },
        {
          "name": "E2",
          "midi": 40,
          "time": 50.7000000000003,
          "velocity": 0.3543307086614173,
          "duration": 0.09583333333333144
        },
        {
          "name": "C4",
          "midi": 60,
          "time": 50.8000000000003,
          "velocity": 0.8661417322834646,
          "duration": 0.19583333333333286
        },
        {
          "name": "F4",
          "midi": 65,
          "time": 50.8000000000003,
          "velocity": 0.8661417322834646,
          "duration": 0.19583333333333286
        },
        {
          "name": "A4",
          "midi": 69,
          "time": 50.8000000000003,
          "velocity": 0.8661417322834646,
          "duration": 0.19583333333333286
        },
        {
          "name": "C#2",
          "midi": 37,
          "time": 50.8000000000003,
          "velocity": 0.3543307086614173,
          "duration": 0.19583333333333286
        },
        {
          "name": "E2",
          "midi": 40,
          "time": 50.8000000000003,
          "velocity": 0.3543307086614173,
          "duration": 0.19583333333333286
        },
        {
          "name": "A#4",
          "midi": 70,
          "time": 51.000000000000306,
          "velocity": 0.8661417322834646,
          "duration": 0.3958333333333357
        },
        {
          "name": "D4",
          "midi": 62,
          "time": 51.000000000000306,
          "velocity": 0.8661417322834646,
          "duration": 0.3958333333333357
        },
        {
          "name": "F4",
          "midi": 65,
          "time": 51.000000000000306,
          "velocity": 0.8661417322834646,
          "duration": 0.3958333333333357
        },
        {
          "name": "A#4",
          "midi": 70,
          "time": 51.000000000000306,
          "velocity": 0.8661417322834646,
          "duration": 0.3958333333333357
        },
        {
          "name": "C#2",
          "midi": 37,
          "time": 51.000000000000306,
          "velocity": 0.3543307086614173,
          "duration": 0.19583333333333286
        },
        {
          "name": "E2",
          "midi": 40,
          "time": 51.000000000000306,
          "velocity": 0.3543307086614173,
          "duration": 0.19583333333333286
        },
        {
          "name": "F2",
          "midi": 41,
          "time": 51.20000000000031,
          "velocity": 0.8661417322834646,
          "duration": 0.3333333333333357
        },
        {
          "name": "C#2",
          "midi": 37,
          "time": 51.20000000000031,
          "velocity": 0.3543307086614173,
          "duration": 0.19583333333333286
        },
        {
          "name": "E2",
          "midi": 40,
          "time": 51.20000000000031,
          "velocity": 0.3543307086614173,
          "duration": 0.19583333333333286
        },
        {
          "name": "A4",
          "midi": 69,
          "time": 51.40000000000031,
          "velocity": 0.8661417322834646,
          "duration": 0.19583333333333286
        },
        {
          "name": "C4",
          "midi": 60,
          "time": 51.40000000000031,
          "velocity": 0.8661417322834646,
          "duration": 0.19583333333333286
        },
        {
          "name": "F4",
          "midi": 65,
          "time": 51.40000000000031,
          "velocity": 0.8661417322834646,
          "duration": 0.19583333333333286
        },
        {
          "name": "A4",
          "midi": 69,
          "time": 51.40000000000031,
          "velocity": 0.8661417322834646,
          "duration": 0.19583333333333286
        },
        {
          "name": "C#2",
          "midi": 37,
          "time": 51.40000000000031,
          "velocity": 0.3543307086614173,
          "duration": 0.19583333333333286
        },
        {
          "name": "E2",
          "midi": 40,
          "time": 51.40000000000031,
          "velocity": 0.3543307086614173,
          "duration": 0.19583333333333286
        },
        {
          "name": "C5",
          "midi": 72,
          "time": 51.600000000000314,
          "velocity": 0.8661417322834646,
          "duration": 0.3333333333333357
        },
        {
          "name": "C4",
          "midi": 60,
          "time": 51.600000000000314,
          "velocity": 0.8661417322834646,
          "duration": 0.19583333333333286
        },
        {
          "name": "E4",
          "midi": 64,
          "time": 51.600000000000314,
          "velocity": 0.8661417322834646,
          "duration": 0.19583333333333286
        },
        {
          "name": "A4",
          "midi": 69,
          "time": 51.600000000000314,
          "velocity": 0.8661417322834646,
          "duration": 0.19583333333333286
        },
        {
          "name": "A2",
          "midi": 45,
          "time": 51.600000000000314,
          "velocity": 0.8661417322834646,
          "duration": 0.3333333333333357
        },
        {
          "name": "C#2",
          "midi": 37,
          "time": 51.600000000000314,
          "velocity": 0.3543307086614173,
          "duration": 0.19583333333333286
        },
        {
          "name": "E2",
          "midi": 40,
          "time": 51.600000000000314,
          "velocity": 0.3543307086614173,
          "duration": 0.19583333333333286
        },
        {
          "name": "C4",
          "midi": 60,
          "time": 51.80000000000032,
          "velocity": 0.8661417322834646,
          "duration": 0.09583333333333144
        },
        {
          "name": "E4",
          "midi": 64,
          "time": 51.80000000000032,
          "velocity": 0.8661417322834646,
          "duration": 0.09583333333333144
        },
        {
          "name": "A4",
          "midi": 69,
          "time": 51.80000000000032,
          "velocity": 0.8661417322834646,
          "duration": 0.09583333333333144
        },
        {
          "name": "C#2",
          "midi": 37,
          "time": 51.80000000000032,
          "velocity": 0.3543307086614173,
          "duration": 0.09583333333333144
        },
        {
          "name": "E2",
          "midi": 40,
          "time": 51.80000000000032,
          "velocity": 0.3543307086614173,
          "duration": 0.09583333333333144
        },
        {
          "name": "C4",
          "midi": 60,
          "time": 51.90000000000032,
          "velocity": 0.8661417322834646,
          "duration": 0.09583333333333144
        },
        {
          "name": "E4",
          "midi": 64,
          "time": 51.90000000000032,
          "velocity": 0.8661417322834646,
          "duration": 0.09583333333333144
        },
        {
          "name": "A4",
          "midi": 69,
          "time": 51.90000000000032,
          "velocity": 0.8661417322834646,
          "duration": 0.09583333333333144
        },
        {
          "name": "C#2",
          "midi": 37,
          "time": 51.90000000000032,
          "velocity": 0.3543307086614173,
          "duration": 0.09583333333333144
        },
        {
          "name": "E2",
          "midi": 40,
          "time": 51.90000000000032,
          "velocity": 0.3543307086614173,
          "duration": 0.09583333333333144
        },
        {
          "name": "A4",
          "midi": 69,
          "time": 52.00000000000032,
          "velocity": 0.8661417322834646,
          "duration": 0.19583333333333286
        },
        {
          "name": "C4",
          "midi": 60,
          "time": 52.00000000000032,
          "velocity": 0.8661417322834646,
          "duration": 0.19583333333333286
        },
        {
          "name": "E4",
          "midi": 64,
          "time": 52.00000000000032,
          "velocity": 0.8661417322834646,
          "duration": 0.19583333333333286
        },
        {
          "name": "A4",
          "midi": 69,
          "time": 52.00000000000032,
          "velocity": 0.8661417322834646,
          "duration": 0.3333333333333357
        },
        {
          "name": "A1",
          "midi": 33,
          "time": 52.00000000000032,
          "velocity": 0.8661417322834646,
          "duration": 0.3333333333333357
        },
        {
          "name": "C#2",
          "midi": 37,
          "time": 52.00000000000032,
          "velocity": 0.3543307086614173,
          "duration": 0.19583333333333286
        },
        {
          "name": "E2",
          "midi": 40,
          "time": 52.00000000000032,
          "velocity": 0.3543307086614173,
          "duration": 0.19583333333333286
        },
        {
          "name": "C4",
          "midi": 60,
          "time": 52.20000000000032,
          "velocity": 0.8661417322834646,
          "duration": 0.19583333333333286
        },
        {
          "name": "E4",
          "midi": 64,
          "time": 52.20000000000032,
          "velocity": 0.8661417322834646,
          "duration": 0.19583333333333286
        },
        {
          "name": "A4",
          "midi": 69,
          "time": 52.20000000000032,
          "velocity": 0.8661417322834646,
          "duration": 0.19583333333333286
        },
        {
          "name": "C#2",
          "midi": 37,
          "time": 52.20000000000032,
          "velocity": 0.3543307086614173,
          "duration": 0.19583333333333286
        },
        {
          "name": "E2",
          "midi": 40,
          "time": 52.20000000000032,
          "velocity": 0.3543307086614173,
          "duration": 0.19583333333333286
        },
        {
          "name": "E5",
          "midi": 76,
          "time": 52.400000000000325,
          "velocity": 0.8661417322834646,
          "duration": 0.3333333333333357
        },
        {
          "name": "C4",
          "midi": 60,
          "time": 52.400000000000325,
          "velocity": 0.8661417322834646,
          "duration": 0.19583333333333286
        },
        {
          "name": "E4",
          "midi": 64,
          "time": 52.400000000000325,
          "velocity": 0.8661417322834646,
          "duration": 0.19583333333333286
        },
        {
          "name": "A4",
          "midi": 69,
          "time": 52.400000000000325,
          "velocity": 0.8661417322834646,
          "duration": 0.19583333333333286
        },
        {
          "name": "A2",
          "midi": 45,
          "time": 52.400000000000325,
          "velocity": 0.8661417322834646,
          "duration": 0.3333333333333357
        },
        {
          "name": "C#2",
          "midi": 37,
          "time": 52.400000000000325,
          "velocity": 0.3543307086614173,
          "duration": 0.19583333333333286
        },
        {
          "name": "E2",
          "midi": 40,
          "time": 52.400000000000325,
          "velocity": 0.3543307086614173,
          "duration": 0.19583333333333286
        },
        {
          "name": "C4",
          "midi": 60,
          "time": 52.60000000000033,
          "velocity": 0.8661417322834646,
          "duration": 0.19583333333333286
        },
        {
          "name": "E4",
          "midi": 64,
          "time": 52.60000000000033,
          "velocity": 0.8661417322834646,
          "duration": 0.19583333333333286
        },
        {
          "name": "A4",
          "midi": 69,
          "time": 52.60000000000033,
          "velocity": 0.8661417322834646,
          "duration": 0.19583333333333286
        },
        {
          "name": "C#2",
          "midi": 37,
          "time": 52.60000000000033,
          "velocity": 0.3543307086614173,
          "duration": 0.19583333333333286
        },
        {
          "name": "E2",
          "midi": 40,
          "time": 52.60000000000033,
          "velocity": 0.3543307086614173,
          "duration": 0.19583333333333286
        },
        {
          "name": "D5",
          "midi": 74,
          "time": 52.80000000000033,
          "velocity": 0.8661417322834646,
          "duration": 1.3958333333333712
        },
        {
          "name": "D4",
          "midi": 62,
          "time": 52.80000000000033,
          "velocity": 0.8661417322834646,
          "duration": 0.19583333333333286
        },
        {
          "name": "F4",
          "midi": 65,
          "time": 52.80000000000033,
          "velocity": 0.8661417322834646,
          "duration": 0.19583333333333286
        },
        {
          "name": "A4",
          "midi": 69,
          "time": 52.80000000000033,
          "velocity": 0.8661417322834646,
          "duration": 0.19583333333333286
        },
        {
          "name": "D3",
          "midi": 50,
          "time": 52.80000000000033,
          "velocity": 0.8661417322834646,
          "duration": 0.700000000000017
        },
        {
          "name": "D4",
          "midi": 62,
          "time": 52.80000000000033,
          "velocity": 0.8661417322834646,
          "duration": 0.19583333333333286
        },
        {
          "name": "F4",
          "midi": 65,
          "time": 52.80000000000033,
          "velocity": 0.8661417322834646,
          "duration": 0.19583333333333286
        },
        {
          "name": "A4",
          "midi": 69,
          "time": 52.80000000000033,
          "velocity": 0.8661417322834646,
          "duration": 0.19583333333333286
        },
        {
          "name": "C#2",
          "midi": 37,
          "time": 52.80000000000033,
          "velocity": 0.3543307086614173,
          "duration": 0.19583333333333286
        },
        {
          "name": "E2",
          "midi": 40,
          "time": 52.80000000000033,
          "velocity": 0.3543307086614173,
          "duration": 0.19583333333333286
        },
        {
          "name": "D4",
          "midi": 62,
          "time": 53.000000000000334,
          "velocity": 0.8661417322834646,
          "duration": 0.09583333333333144
        },
        {
          "name": "F4",
          "midi": 65,
          "time": 53.000000000000334,
          "velocity": 0.8661417322834646,
          "duration": 0.09583333333333144
        },
        {
          "name": "A4",
          "midi": 69,
          "time": 53.000000000000334,
          "velocity": 0.8661417322834646,
          "duration": 0.09583333333333144
        },
        {
          "name": "D6",
          "midi": 86,
          "time": 53.000000000000334,
          "velocity": 0.8661417322834646,
          "duration": 0.10000000000000142
        },
        {
          "name": "D4",
          "midi": 62,
          "time": 53.000000000000334,
          "velocity": 0.8661417322834646,
          "duration": 0.09583333333333144
        },
        {
          "name": "F4",
          "midi": 65,
          "time": 53.000000000000334,
          "velocity": 0.8661417322834646,
          "duration": 0.09583333333333144
        },
        {
          "name": "A4",
          "midi": 69,
          "time": 53.000000000000334,
          "velocity": 0.8661417322834646,
          "duration": 0.09583333333333144
        },
        {
          "name": "C#2",
          "midi": 37,
          "time": 53.000000000000334,
          "velocity": 0.3543307086614173,
          "duration": 0.09583333333333144
        },
        {
          "name": "E2",
          "midi": 40,
          "time": 53.000000000000334,
          "velocity": 0.3543307086614173,
          "duration": 0.09583333333333144
        },
        {
          "name": "D4",
          "midi": 62,
          "time": 53.100000000000335,
          "velocity": 0.8661417322834646,
          "duration": 0.09583333333333144
        },
        {
          "name": "F4",
          "midi": 65,
          "time": 53.100000000000335,
          "velocity": 0.8661417322834646,
          "duration": 0.09583333333333144
        },
        {
          "name": "A4",
          "midi": 69,
          "time": 53.100000000000335,
          "velocity": 0.8661417322834646,
          "duration": 0.09583333333333144
        },
        {
          "name": "C#6",
          "midi": 85,
          "time": 53.100000000000335,
          "velocity": 0.8661417322834646,
          "duration": 0.09583333333333144
        },
        {
          "name": "D4",
          "midi": 62,
          "time": 53.100000000000335,
          "velocity": 0.8661417322834646,
          "duration": 0.09583333333333144
        },
        {
          "name": "F4",
          "midi": 65,
          "time": 53.100000000000335,
          "velocity": 0.8661417322834646,
          "duration": 0.09583333333333144
        },
        {
          "name": "A4",
          "midi": 69,
          "time": 53.100000000000335,
          "velocity": 0.8661417322834646,
          "duration": 0.09583333333333144
        },
        {
          "name": "C#2",
          "midi": 37,
          "time": 53.100000000000335,
          "velocity": 0.3543307086614173,
          "duration": 0.09583333333333144
        },
        {
          "name": "E2",
          "midi": 40,
          "time": 53.100000000000335,
          "velocity": 0.3543307086614173,
          "duration": 0.09583333333333144
        },
        {
          "name": "D4",
          "midi": 62,
          "time": 53.20000000000034,
          "velocity": 0.8661417322834646,
          "duration": 0.19583333333333997
        },
        {
          "name": "F4",
          "midi": 65,
          "time": 53.20000000000034,
          "velocity": 0.8661417322834646,
          "duration": 0.19583333333333997
        },
        {
          "name": "A4",
          "midi": 69,
          "time": 53.20000000000034,
          "velocity": 0.8661417322834646,
          "duration": 0.19583333333333997
        },
        {
          "name": "C6",
          "midi": 84,
          "time": 53.20000000000034,
          "velocity": 0.8661417322834646,
          "duration": 0.06666666666666998
        },
        {
          "name": "D4",
          "midi": 62,
          "time": 53.20000000000034,
          "velocity": 0.8661417322834646,
          "duration": 0.19583333333333997
        },
        {
          "name": "F4",
          "midi": 65,
          "time": 53.20000000000034,
          "velocity": 0.8661417322834646,
          "duration": 0.19583333333333997
        },
        {
          "name": "A4",
          "midi": 69,
          "time": 53.20000000000034,
          "velocity": 0.8661417322834646,
          "duration": 0.19583333333333997
        },
        {
          "name": "C#2",
          "midi": 37,
          "time": 53.20000000000034,
          "velocity": 0.3543307086614173,
          "duration": 0.19583333333333997
        },
        {
          "name": "E2",
          "midi": 40,
          "time": 53.20000000000034,
          "velocity": 0.3543307086614173,
          "duration": 0.19583333333333997
        },
        {
          "name": "D4",
          "midi": 62,
          "time": 53.40000000000035,
          "velocity": 0.8661417322834646,
          "duration": 0.19583333333333286
        },
        {
          "name": "F4",
          "midi": 65,
          "time": 53.40000000000035,
          "velocity": 0.8661417322834646,
          "duration": 0.19583333333333286
        },
        {
          "name": "A4",
          "midi": 69,
          "time": 53.40000000000035,
          "velocity": 0.8661417322834646,
          "duration": 0.19583333333333286
        },
        {
          "name": "B5",
          "midi": 83,
          "time": 53.40000000000035,
          "velocity": 0.8661417322834646,
          "duration": 0.06666666666666998
        },
        {
          "name": "D4",
          "midi": 62,
          "time": 53.40000000000035,
          "velocity": 0.8661417322834646,
          "duration": 0.19583333333333286
        },
        {
          "name": "F4",
          "midi": 65,
          "time": 53.40000000000035,
          "velocity": 0.8661417322834646,
          "duration": 0.19583333333333286
        },
        {
          "name": "A4",
          "midi": 69,
          "time": 53.40000000000035,
          "velocity": 0.8661417322834646,
          "duration": 0.19583333333333286
        },
        {
          "name": "C#2",
          "midi": 37,
          "time": 53.40000000000035,
          "velocity": 0.3543307086614173,
          "duration": 0.19583333333333286
        },
        {
          "name": "E2",
          "midi": 40,
          "time": 53.40000000000035,
          "velocity": 0.3543307086614173,
          "duration": 0.19583333333333286
        },
        {
          "name": "A#3",
          "midi": 58,
          "time": 53.60000000000035,
          "velocity": 0.8661417322834646,
          "duration": 0.19583333333333997
        },
        {
          "name": "D#4",
          "midi": 63,
          "time": 53.60000000000035,
          "velocity": 0.8661417322834646,
          "duration": 0.19583333333333997
        },
        {
          "name": "G4",
          "midi": 67,
          "time": 53.60000000000035,
          "velocity": 0.8661417322834646,
          "duration": 0.19583333333333997
        },
        {
          "name": "A#4",
          "midi": 70,
          "time": 53.60000000000035,
          "velocity": 0.8661417322834646,
          "duration": 0.19583333333333997
        },
        {
          "name": "A2",
          "midi": 45,
          "time": 53.60000000000035,
          "velocity": 0.8661417322834646,
          "duration": 0.3333333333333499
        },
        {
          "name": "A#5",
          "midi": 82,
          "time": 53.60000000000035,
          "velocity": 0.8661417322834646,
          "duration": 0.06666666666666998
        },
        {
          "name": "A#3",
          "midi": 58,
          "time": 53.60000000000035,
          "velocity": 0.8661417322834646,
          "duration": 0.19583333333333997
        },
        {
          "name": "D#4",
          "midi": 63,
          "time": 53.60000000000035,
          "velocity": 0.8661417322834646,
          "duration": 0.19583333333333997
        },
        {
          "name": "G4",
          "midi": 67,
          "time": 53.60000000000035,
          "velocity": 0.8661417322834646,
          "duration": 0.19583333333333997
        },
        {
          "name": "A#4",
          "midi": 70,
          "time": 53.60000000000035,
          "velocity": 0.8661417322834646,
          "duration": 0.19583333333333997
        },
        {
          "name": "C#2",
          "midi": 37,
          "time": 53.60000000000035,
          "velocity": 0.3543307086614173,
          "duration": 0.19583333333333997
        },
        {
          "name": "E2",
          "midi": 40,
          "time": 53.60000000000035,
          "velocity": 0.3543307086614173,
          "duration": 0.19583333333333997
        },
        {
          "name": "C6",
          "midi": 84,
          "time": 53.66666666666702,
          "velocity": 0.8661417322834646,
          "duration": 0.06666666666666998
        },
        {
          "name": "A#5",
          "midi": 82,
          "time": 53.73333333333369,
          "velocity": 0.8661417322834646,
          "duration": 0.0625
        },
        {
          "name": "D4",
          "midi": 62,
          "time": 53.80000000000036,
          "velocity": 0.8661417322834646,
          "duration": 0.19583333333333997
        },
        {
          "name": "F4",
          "midi": 65,
          "time": 53.80000000000036,
          "velocity": 0.8661417322834646,
          "duration": 0.19583333333333997
        },
        {
          "name": "A4",
          "midi": 69,
          "time": 53.80000000000036,
          "velocity": 0.8661417322834646,
          "duration": 0.19583333333333997
        },
        {
          "name": "A5",
          "midi": 81,
          "time": 53.80000000000036,
          "velocity": 0.8661417322834646,
          "duration": 0.06666666666666998
        },
        {
          "name": "D4",
          "midi": 62,
          "time": 53.80000000000036,
          "velocity": 0.8661417322834646,
          "duration": 0.19583333333333997
        },
        {
          "name": "F4",
          "midi": 65,
          "time": 53.80000000000036,
          "velocity": 0.8661417322834646,
          "duration": 0.19583333333333997
        },
        {
          "name": "A4",
          "midi": 69,
          "time": 53.80000000000036,
          "velocity": 0.8661417322834646,
          "duration": 0.19583333333333997
        },
        {
          "name": "C#2",
          "midi": 37,
          "time": 53.80000000000036,
          "velocity": 0.3543307086614173,
          "duration": 0.19583333333333997
        },
        {
          "name": "E2",
          "midi": 40,
          "time": 53.80000000000036,
          "velocity": 0.3543307086614173,
          "duration": 0.19583333333333997
        },
        {
          "name": "D4",
          "midi": 62,
          "time": 54.00000000000037,
          "velocity": 0.8661417322834646,
          "duration": 0.19583333333333286
        },
        {
          "name": "F4",
          "midi": 65,
          "time": 54.00000000000037,
          "velocity": 0.8661417322834646,
          "duration": 0.19583333333333286
        },
        {
          "name": "A4",
          "midi": 69,
          "time": 54.00000000000037,
          "velocity": 0.8661417322834646,
          "duration": 0.19583333333333286
        },
        {
          "name": "D5",
          "midi": 74,
          "time": 54.00000000000037,
          "velocity": 0.8661417322834646,
          "duration": 0.19583333333333286
        },
        {
          "name": "D3",
          "midi": 50,
          "time": 54.00000000000037,
          "velocity": 0.8661417322834646,
          "duration": 0.700000000000017
        },
        {
          "name": "D4",
          "midi": 62,
          "time": 54.00000000000037,
          "velocity": 0.8661417322834646,
          "duration": 0.19583333333333286
        },
        {
          "name": "F4",
          "midi": 65,
          "time": 54.00000000000037,
          "velocity": 0.8661417322834646,
          "duration": 0.19583333333333286
        },
        {
          "name": "A4",
          "midi": 69,
          "time": 54.00000000000037,
          "velocity": 0.8661417322834646,
          "duration": 0.19583333333333286
        },
        {
          "name": "D5",
          "midi": 74,
          "time": 54.00000000000037,
          "velocity": 0.8661417322834646,
          "duration": 0.3333333333333357
        },
        {
          "name": "C#2",
          "midi": 37,
          "time": 54.00000000000037,
          "velocity": 0.3543307086614173,
          "duration": 0.19583333333333286
        },
        {
          "name": "E2",
          "midi": 40,
          "time": 54.00000000000037,
          "velocity": 0.3543307086614173,
          "duration": 0.19583333333333286
        },
        {
          "name": "D4",
          "midi": 62,
          "time": 54.20000000000037,
          "velocity": 0.8661417322834646,
          "duration": 0.09583333333333144
        },
        {
          "name": "F4",
          "midi": 65,
          "time": 54.20000000000037,
          "velocity": 0.8661417322834646,
          "duration": 0.09583333333333144
        },
        {
          "name": "A4",
          "midi": 69,
          "time": 54.20000000000037,
          "velocity": 0.8661417322834646,
          "duration": 0.09583333333333144
        },
        {
          "name": "D6",
          "midi": 86,
          "time": 54.20000000000037,
          "velocity": 0.8661417322834646,
          "duration": 0.10000000000000142
        },
        {
          "name": "D4",
          "midi": 62,
          "time": 54.20000000000037,
          "velocity": 0.8661417322834646,
          "duration": 0.09583333333333144
        },
        {
          "name": "F4",
          "midi": 65,
          "time": 54.20000000000037,
          "velocity": 0.8661417322834646,
          "duration": 0.09583333333333144
        },
        {
          "name": "A4",
          "midi": 69,
          "time": 54.20000000000037,
          "velocity": 0.8661417322834646,
          "duration": 0.09583333333333144
        },
        {
          "name": "C#2",
          "midi": 37,
          "time": 54.20000000000037,
          "velocity": 0.3543307086614173,
          "duration": 0.09583333333333144
        },
        {
          "name": "E2",
          "midi": 40,
          "time": 54.20000000000037,
          "velocity": 0.3543307086614173,
          "duration": 0.09583333333333144
        },
        {
          "name": "D4",
          "midi": 62,
          "time": 54.300000000000374,
          "velocity": 0.8661417322834646,
          "duration": 0.09583333333333144
        },
        {
          "name": "F4",
          "midi": 65,
          "time": 54.300000000000374,
          "velocity": 0.8661417322834646,
          "duration": 0.09583333333333144
        },
        {
          "name": "A4",
          "midi": 69,
          "time": 54.300000000000374,
          "velocity": 0.8661417322834646,
          "duration": 0.09583333333333144
        },
        {
          "name": "C#6",
          "midi": 85,
          "time": 54.300000000000374,
          "velocity": 0.8661417322834646,
          "duration": 0.09583333333333144
        },
        {
          "name": "D4",
          "midi": 62,
          "time": 54.300000000000374,
          "velocity": 0.8661417322834646,
          "duration": 0.09583333333333144
        },
        {
          "name": "F4",
          "midi": 65,
          "time": 54.300000000000374,
          "velocity": 0.8661417322834646,
          "duration": 0.09583333333333144
        },
        {
          "name": "A4",
          "midi": 69,
          "time": 54.300000000000374,
          "velocity": 0.8661417322834646,
          "duration": 0.09583333333333144
        },
        {
          "name": "C#2",
          "midi": 37,
          "time": 54.300000000000374,
          "velocity": 0.3543307086614173,
          "duration": 0.09583333333333144
        },
        {
          "name": "E2",
          "midi": 40,
          "time": 54.300000000000374,
          "velocity": 0.3543307086614173,
          "duration": 0.09583333333333144
        },
        {
          "name": "D4",
          "midi": 62,
          "time": 54.400000000000375,
          "velocity": 0.8661417322834646,
          "duration": 0.19583333333333997
        },
        {
          "name": "F4",
          "midi": 65,
          "time": 54.400000000000375,
          "velocity": 0.8661417322834646,
          "duration": 0.19583333333333997
        },
        {
          "name": "A4",
          "midi": 69,
          "time": 54.400000000000375,
          "velocity": 0.8661417322834646,
          "duration": 0.19583333333333997
        },
        {
          "name": "C6",
          "midi": 84,
          "time": 54.400000000000375,
          "velocity": 0.8661417322834646,
          "duration": 0.06666666666666998
        },
        {
          "name": "D4",
          "midi": 62,
          "time": 54.400000000000375,
          "velocity": 0.8661417322834646,
          "duration": 0.19583333333333997
        },
        {
          "name": "F4",
          "midi": 65,
          "time": 54.400000000000375,
          "velocity": 0.8661417322834646,
          "duration": 0.19583333333333997
        },
        {
          "name": "A4",
          "midi": 69,
          "time": 54.400000000000375,
          "velocity": 0.8661417322834646,
          "duration": 0.19583333333333997
        },
        {
          "name": "C#2",
          "midi": 37,
          "time": 54.400000000000375,
          "velocity": 0.3543307086614173,
          "duration": 0.19583333333333997
        },
        {
          "name": "E2",
          "midi": 40,
          "time": 54.400000000000375,
          "velocity": 0.3543307086614173,
          "duration": 0.19583333333333997
        },
        {
          "name": "D4",
          "midi": 62,
          "time": 54.600000000000385,
          "velocity": 0.8661417322834646,
          "duration": 0.19583333333333286
        },
        {
          "name": "F4",
          "midi": 65,
          "time": 54.600000000000385,
          "velocity": 0.8661417322834646,
          "duration": 0.19583333333333286
        },
        {
          "name": "A4",
          "midi": 69,
          "time": 54.600000000000385,
          "velocity": 0.8661417322834646,
          "duration": 0.19583333333333286
        },
        {
          "name": "B5",
          "midi": 83,
          "time": 54.600000000000385,
          "velocity": 0.8661417322834646,
          "duration": 0.06666666666666998
        },
        {
          "name": "D4",
          "midi": 62,
          "time": 54.600000000000385,
          "velocity": 0.8661417322834646,
          "duration": 0.19583333333333286
        },
        {
          "name": "F4",
          "midi": 65,
          "time": 54.600000000000385,
          "velocity": 0.8661417322834646,
          "duration": 0.19583333333333286
        },
        {
          "name": "A4",
          "midi": 69,
          "time": 54.600000000000385,
          "velocity": 0.8661417322834646,
          "duration": 0.19583333333333286
        },
        {
          "name": "C#2",
          "midi": 37,
          "time": 54.600000000000385,
          "velocity": 0.3543307086614173,
          "duration": 0.19583333333333286
        },
        {
          "name": "E2",
          "midi": 40,
          "time": 54.600000000000385,
          "velocity": 0.3543307086614173,
          "duration": 0.19583333333333286
        },
        {
          "name": "A#3",
          "midi": 58,
          "time": 54.80000000000039,
          "velocity": 0.8661417322834646,
          "duration": 0.19583333333333997
        },
        {
          "name": "D#4",
          "midi": 63,
          "time": 54.80000000000039,
          "velocity": 0.8661417322834646,
          "duration": 0.19583333333333997
        },
        {
          "name": "G4",
          "midi": 67,
          "time": 54.80000000000039,
          "velocity": 0.8661417322834646,
          "duration": 0.19583333333333997
        },
        {
          "name": "A#4",
          "midi": 70,
          "time": 54.80000000000039,
          "velocity": 0.8661417322834646,
          "duration": 0.19583333333333997
        },
        {
          "name": "A2",
          "midi": 45,
          "time": 54.80000000000039,
          "velocity": 0.8661417322834646,
          "duration": 0.3333333333333499
        },
        {
          "name": "A#5",
          "midi": 82,
          "time": 54.80000000000039,
          "velocity": 0.8661417322834646,
          "duration": 0.06666666666666998
        },
        {
          "name": "A#3",
          "midi": 58,
          "time": 54.80000000000039,
          "velocity": 0.8661417322834646,
          "duration": 0.19583333333333997
        },
        {
          "name": "D#4",
          "midi": 63,
          "time": 54.80000000000039,
          "velocity": 0.8661417322834646,
          "duration": 0.19583333333333997
        },
        {
          "name": "G4",
          "midi": 67,
          "time": 54.80000000000039,
          "velocity": 0.8661417322834646,
          "duration": 0.19583333333333997
        },
        {
          "name": "A#4",
          "midi": 70,
          "time": 54.80000000000039,
          "velocity": 0.8661417322834646,
          "duration": 0.19583333333333997
        },
        {
          "name": "C#2",
          "midi": 37,
          "time": 54.80000000000039,
          "velocity": 0.3543307086614173,
          "duration": 0.19583333333333997
        },
        {
          "name": "E2",
          "midi": 40,
          "time": 54.80000000000039,
          "velocity": 0.3543307086614173,
          "duration": 0.19583333333333997
        },
        {
          "name": "C6",
          "midi": 84,
          "time": 54.86666666666706,
          "velocity": 0.8661417322834646,
          "duration": 0.06666666666666998
        },
        {
          "name": "A#5",
          "midi": 82,
          "time": 54.93333333333373,
          "velocity": 0.8661417322834646,
          "duration": 0.0625
        },
        {
          "name": "D4",
          "midi": 62,
          "time": 55.0000000000004,
          "velocity": 0.8661417322834646,
          "duration": 0.19583333333333997
        },
        {
          "name": "F4",
          "midi": 65,
          "time": 55.0000000000004,
          "velocity": 0.8661417322834646,
          "duration": 0.19583333333333997
        },
        {
          "name": "A4",
          "midi": 69,
          "time": 55.0000000000004,
          "velocity": 0.8661417322834646,
          "duration": 0.19583333333333997
        },
        {
          "name": "A5",
          "midi": 81,
          "time": 55.0000000000004,
          "velocity": 0.8661417322834646,
          "duration": 0.06666666666666998
        },
        {
          "name": "D4",
          "midi": 62,
          "time": 55.0000000000004,
          "velocity": 0.8661417322834646,
          "duration": 0.19583333333333997
        },
        {
          "name": "F4",
          "midi": 65,
          "time": 55.0000000000004,
          "velocity": 0.8661417322834646,
          "duration": 0.19583333333333997
        },
        {
          "name": "A4",
          "midi": 69,
          "time": 55.0000000000004,
          "velocity": 0.8661417322834646,
          "duration": 0.19583333333333997
        },
        {
          "name": "C#2",
          "midi": 37,
          "time": 55.0000000000004,
          "velocity": 0.3543307086614173,
          "duration": 0.19583333333333997
        },
        {
          "name": "E2",
          "midi": 40,
          "time": 55.0000000000004,
          "velocity": 0.3543307086614173,
          "duration": 0.19583333333333997
        },
        {
          "name": "C#4",
          "midi": 61,
          "time": 55.20000000000041,
          "velocity": 0.8661417322834646,
          "duration": 0.19583333333333286
        },
        {
          "name": "E4",
          "midi": 64,
          "time": 55.20000000000041,
          "velocity": 0.8661417322834646,
          "duration": 0.19583333333333286
        },
        {
          "name": "G4",
          "midi": 67,
          "time": 55.20000000000041,
          "velocity": 0.8661417322834646,
          "duration": 0.19583333333333286
        },
        {
          "name": "A4",
          "midi": 69,
          "time": 55.20000000000041,
          "velocity": 0.8661417322834646,
          "duration": 0.19583333333333286
        },
        {
          "name": "A2",
          "midi": 45,
          "time": 55.20000000000041,
          "velocity": 0.8661417322834646,
          "duration": 0.3333333333333357
        },
        {
          "name": "C#2",
          "midi": 37,
          "time": 55.20000000000041,
          "velocity": 0.3543307086614173,
          "duration": 0.19583333333333286
        },
        {
          "name": "E2",
          "midi": 40,
          "time": 55.20000000000041,
          "velocity": 0.3543307086614173,
          "duration": 0.19583333333333286
        },
        {
          "name": "C#4",
          "midi": 61,
          "time": 55.40000000000041,
          "velocity": 0.8661417322834646,
          "duration": 0.09583333333333144
        },
        {
          "name": "E4",
          "midi": 64,
          "time": 55.40000000000041,
          "velocity": 0.8661417322834646,
          "duration": 0.09583333333333144
        },
        {
          "name": "G4",
          "midi": 67,
          "time": 55.40000000000041,
          "velocity": 0.8661417322834646,
          "duration": 0.09583333333333144
        },
        {
          "name": "A4",
          "midi": 69,
          "time": 55.40000000000041,
          "velocity": 0.8661417322834646,
          "duration": 0.09583333333333144
        },
        {
          "name": "A5",
          "midi": 81,
          "time": 55.40000000000041,
          "velocity": 0.8661417322834646,
          "duration": 0.10000000000000142
        },
        {
          "name": "C#2",
          "midi": 37,
          "time": 55.40000000000041,
          "velocity": 0.3543307086614173,
          "duration": 0.09583333333333144
        },
        {
          "name": "E2",
          "midi": 40,
          "time": 55.40000000000041,
          "velocity": 0.3543307086614173,
          "duration": 0.09583333333333144
        },
        {
          "name": "C#4",
          "midi": 61,
          "time": 55.50000000000041,
          "velocity": 0.8661417322834646,
          "duration": 0.09583333333333144
        },
        {
          "name": "E4",
          "midi": 64,
          "time": 55.50000000000041,
          "velocity": 0.8661417322834646,
          "duration": 0.09583333333333144
        },
        {
          "name": "G4",
          "midi": 67,
          "time": 55.50000000000041,
          "velocity": 0.8661417322834646,
          "duration": 0.09583333333333144
        },
        {
          "name": "A4",
          "midi": 69,
          "time": 55.50000000000041,
          "velocity": 0.8661417322834646,
          "duration": 0.09583333333333144
        },
        {
          "name": "G#5",
          "midi": 80,
          "time": 55.50000000000041,
          "velocity": 0.8661417322834646,
          "duration": 0.10000000000000142
        },
        {
          "name": "C#2",
          "midi": 37,
          "time": 55.50000000000041,
          "velocity": 0.3543307086614173,
          "duration": 0.09583333333333144
        },
        {
          "name": "E2",
          "midi": 40,
          "time": 55.50000000000041,
          "velocity": 0.3543307086614173,
          "duration": 0.09583333333333144
        },
        {
          "name": "C#4",
          "midi": 61,
          "time": 55.60000000000041,
          "velocity": 0.8661417322834646,
          "duration": 0.19583333333333286
        },
        {
          "name": "E4",
          "midi": 64,
          "time": 55.60000000000041,
          "velocity": 0.8661417322834646,
          "duration": 0.19583333333333286
        },
        {
          "name": "G4",
          "midi": 67,
          "time": 55.60000000000041,
          "velocity": 0.8661417322834646,
          "duration": 0.19583333333333286
        },
        {
          "name": "A4",
          "midi": 69,
          "time": 55.60000000000041,
          "velocity": 0.8661417322834646,
          "duration": 0.19583333333333286
        },
        {
          "name": "G5",
          "midi": 79,
          "time": 55.60000000000041,
          "velocity": 0.8661417322834646,
          "duration": 0.19583333333333286
        },
        {
          "name": "C#2",
          "midi": 37,
          "time": 55.60000000000041,
          "velocity": 0.3543307086614173,
          "duration": 0.19583333333333286
        },
        {
          "name": "E2",
          "midi": 40,
          "time": 55.60000000000041,
          "velocity": 0.3543307086614173,
          "duration": 0.19583333333333286
        },
        {
          "name": "C#4",
          "midi": 61,
          "time": 55.800000000000416,
          "velocity": 0.8661417322834646,
          "duration": 0.19583333333333286
        },
        {
          "name": "E4",
          "midi": 64,
          "time": 55.800000000000416,
          "velocity": 0.8661417322834646,
          "duration": 0.19583333333333286
        },
        {
          "name": "G4",
          "midi": 67,
          "time": 55.800000000000416,
          "velocity": 0.8661417322834646,
          "duration": 0.19583333333333286
        },
        {
          "name": "A4",
          "midi": 69,
          "time": 55.800000000000416,
          "velocity": 0.8661417322834646,
          "duration": 0.19583333333333286
        },
        {
          "name": "F#5",
          "midi": 78,
          "time": 55.800000000000416,
          "velocity": 0.8661417322834646,
          "duration": 0.10000000000000142
        },
        {
          "name": "C#2",
          "midi": 37,
          "time": 55.800000000000416,
          "velocity": 0.3543307086614173,
          "duration": 0.19583333333333286
        },
        {
          "name": "E2",
          "midi": 40,
          "time": 55.800000000000416,
          "velocity": 0.3543307086614173,
          "duration": 0.19583333333333286
        },
        {
          "name": "F5",
          "midi": 77,
          "time": 55.90000000000042,
          "velocity": 0.8661417322834646,
          "duration": 0.10000000000000142
        },
        {
          "name": "C#4",
          "midi": 61,
          "time": 56.00000000000042,
          "velocity": 0.8661417322834646,
          "duration": 0.19583333333333286
        },
        {
          "name": "E4",
          "midi": 64,
          "time": 56.00000000000042,
          "velocity": 0.8661417322834646,
          "duration": 0.19583333333333286
        },
        {
          "name": "G4",
          "midi": 67,
          "time": 56.00000000000042,
          "velocity": 0.8661417322834646,
          "duration": 0.19583333333333286
        },
        {
          "name": "A4",
          "midi": 69,
          "time": 56.00000000000042,
          "velocity": 0.8661417322834646,
          "duration": 0.19583333333333286
        },
        {
          "name": "A1",
          "midi": 33,
          "time": 56.00000000000042,
          "velocity": 0.8661417322834646,
          "duration": 0.3333333333333357
        },
        {
          "name": "E5",
          "midi": 76,
          "time": 56.00000000000042,
          "velocity": 0.8661417322834646,
          "duration": 0.19583333333333286
        },
        {
          "name": "C#2",
          "midi": 37,
          "time": 56.00000000000042,
          "velocity": 0.3543307086614173,
          "duration": 0.19583333333333286
        },
        {
          "name": "E2",
          "midi": 40,
          "time": 56.00000000000042,
          "velocity": 0.3543307086614173,
          "duration": 0.19583333333333286
        },
        {
          "name": "C#4",
          "midi": 61,
          "time": 56.20000000000042,
          "velocity": 0.8661417322834646,
          "duration": 0.19583333333333286
        },
        {
          "name": "E4",
          "midi": 64,
          "time": 56.20000000000042,
          "velocity": 0.8661417322834646,
          "duration": 0.19583333333333286
        },
        {
          "name": "G4",
          "midi": 67,
          "time": 56.20000000000042,
          "velocity": 0.8661417322834646,
          "duration": 0.19583333333333286
        },
        {
          "name": "A4",
          "midi": 69,
          "time": 56.20000000000042,
          "velocity": 0.8661417322834646,
          "duration": 0.19583333333333286
        },
        {
          "name": "C#2",
          "midi": 37,
          "time": 56.20000000000042,
          "velocity": 0.3543307086614173,
          "duration": 0.19583333333333286
        },
        {
          "name": "E2",
          "midi": 40,
          "time": 56.20000000000042,
          "velocity": 0.3543307086614173,
          "duration": 0.19583333333333286
        },
        {
          "name": "F#5",
          "midi": 78,
          "time": 56.400000000000425,
          "velocity": 0.8661417322834646,
          "duration": 1.1000000000000156
        },
        {
          "name": "D4",
          "midi": 62,
          "time": 56.400000000000425,
          "velocity": 0.8661417322834646,
          "duration": 0.19583333333333286
        },
        {
          "name": "F#4",
          "midi": 66,
          "time": 56.400000000000425,
          "velocity": 0.8661417322834646,
          "duration": 0.19583333333333286
        },
        {
          "name": "A4",
          "midi": 69,
          "time": 56.400000000000425,
          "velocity": 0.8661417322834646,
          "duration": 0.19583333333333286
        },
        {
          "name": "D2",
          "midi": 38,
          "time": 56.400000000000425,
          "velocity": 0.8661417322834646,
          "duration": 0.3333333333333357
        },
        {
          "name": "C#2",
          "midi": 37,
          "time": 56.400000000000425,
          "velocity": 0.3543307086614173,
          "duration": 0.19583333333333286
        },
        {
          "name": "E2",
          "midi": 40,
          "time": 56.400000000000425,
          "velocity": 0.3543307086614173,
          "duration": 0.19583333333333286
        },
        {
          "name": "D4",
          "midi": 62,
          "time": 56.60000000000043,
          "velocity": 0.8661417322834646,
          "duration": 0.09583333333333144
        },
        {
          "name": "F#4",
          "midi": 66,
          "time": 56.60000000000043,
          "velocity": 0.8661417322834646,
          "duration": 0.09583333333333144
        },
        {
          "name": "A4",
          "midi": 69,
          "time": 56.60000000000043,
          "velocity": 0.8661417322834646,
          "duration": 0.09583333333333144
        },
        {
          "name": "D4",
          "midi": 62,
          "time": 56.60000000000043,
          "velocity": 0.8661417322834646,
          "duration": 0.19583333333333286
        },
        {
          "name": "F#4",
          "midi": 66,
          "time": 56.60000000000043,
          "velocity": 0.8661417322834646,
          "duration": 0.19583333333333286
        },
        {
          "name": "A4",
          "midi": 69,
          "time": 56.60000000000043,
          "velocity": 0.8661417322834646,
          "duration": 0.19583333333333286
        },
        {
          "name": "C#2",
          "midi": 37,
          "time": 56.60000000000043,
          "velocity": 0.3543307086614173,
          "duration": 0.09583333333333144
        },
        {
          "name": "E2",
          "midi": 40,
          "time": 56.60000000000043,
          "velocity": 0.3543307086614173,
          "duration": 0.09583333333333144
        },
        {
          "name": "D4",
          "midi": 62,
          "time": 56.70000000000043,
          "velocity": 0.8661417322834646,
          "duration": 0.23333333333333428
        },
        {
          "name": "F#4",
          "midi": 66,
          "time": 56.70000000000043,
          "velocity": 0.8661417322834646,
          "duration": 0.23333333333333428
        },
        {
          "name": "A4",
          "midi": 69,
          "time": 56.70000000000043,
          "velocity": 0.8661417322834646,
          "duration": 0.23333333333333428
        },
        {
          "name": "C#2",
          "midi": 37,
          "time": 56.70000000000043,
          "velocity": 0.3543307086614173,
          "duration": 0.09583333333333144
        },
        {
          "name": "E2",
          "midi": 40,
          "time": 56.70000000000043,
          "velocity": 0.3543307086614173,
          "duration": 0.09583333333333144
        },
        {
          "name": "D4",
          "midi": 62,
          "time": 56.80000000000043,
          "velocity": 0.8661417322834646,
          "duration": 0.19583333333333286
        },
        {
          "name": "F#4",
          "midi": 66,
          "time": 56.80000000000043,
          "velocity": 0.8661417322834646,
          "duration": 0.19583333333333286
        },
        {
          "name": "A4",
          "midi": 69,
          "time": 56.80000000000043,
          "velocity": 0.8661417322834646,
          "duration": 0.19583333333333286
        },
        {
          "name": "C#2",
          "midi": 37,
          "time": 56.80000000000043,
          "velocity": 0.3543307086614173,
          "duration": 0.19583333333333286
        },
        {
          "name": "E2",
          "midi": 40,
          "time": 56.80000000000043,
          "velocity": 0.3543307086614173,
          "duration": 0.19583333333333286
        },
        {
          "name": "D4",
          "midi": 62,
          "time": 57.00000000000043,
          "velocity": 0.8661417322834646,
          "duration": 0.09583333333333144
        },
        {
          "name": "F#4",
          "midi": 66,
          "time": 57.00000000000043,
          "velocity": 0.8661417322834646,
          "duration": 0.09583333333333144
        },
        {
          "name": "A4",
          "midi": 69,
          "time": 57.00000000000043,
          "velocity": 0.8661417322834646,
          "duration": 0.09583333333333144
        },
        {
          "name": "D4",
          "midi": 62,
          "time": 57.00000000000043,
          "velocity": 0.8661417322834646,
          "duration": 0.19583333333333286
        },
        {
          "name": "F#4",
          "midi": 66,
          "time": 57.00000000000043,
          "velocity": 0.8661417322834646,
          "duration": 0.19583333333333286
        },
        {
          "name": "A4",
          "midi": 69,
          "time": 57.00000000000043,
          "velocity": 0.8661417322834646,
          "duration": 0.19583333333333286
        },
        {
          "name": "C#2",
          "midi": 37,
          "time": 57.00000000000043,
          "velocity": 0.3543307086614173,
          "duration": 0.19583333333333286
        },
        {
          "name": "E2",
          "midi": 40,
          "time": 57.00000000000043,
          "velocity": 0.3543307086614173,
          "duration": 0.19583333333333286
        },
        {
          "name": "D4",
          "midi": 62,
          "time": 57.100000000000435,
          "velocity": 0.8661417322834646,
          "duration": 0.09583333333333144
        },
        {
          "name": "F#4",
          "midi": 66,
          "time": 57.100000000000435,
          "velocity": 0.8661417322834646,
          "duration": 0.09583333333333144
        },
        {
          "name": "A4",
          "midi": 69,
          "time": 57.100000000000435,
          "velocity": 0.8661417322834646,
          "duration": 0.09583333333333144
        },
        {
          "name": "D4",
          "midi": 62,
          "time": 57.200000000000436,
          "velocity": 0.8661417322834646,
          "duration": 0.19583333333333286
        },
        {
          "name": "F#4",
          "midi": 66,
          "time": 57.200000000000436,
          "velocity": 0.8661417322834646,
          "duration": 0.19583333333333286
        },
        {
          "name": "A4",
          "midi": 69,
          "time": 57.200000000000436,
          "velocity": 0.8661417322834646,
          "duration": 0.19583333333333286
        },
        {
          "name": "A1",
          "midi": 33,
          "time": 57.200000000000436,
          "velocity": 0.8661417322834646,
          "duration": 0.3333333333333357
        },
        {
          "name": "D4",
          "midi": 62,
          "time": 57.200000000000436,
          "velocity": 0.8661417322834646,
          "duration": 0.19583333333333286
        },
        {
          "name": "F#4",
          "midi": 66,
          "time": 57.200000000000436,
          "velocity": 0.8661417322834646,
          "duration": 0.19583333333333286
        },
        {
          "name": "A4",
          "midi": 69,
          "time": 57.200000000000436,
          "velocity": 0.8661417322834646,
          "duration": 0.19583333333333286
        },
        {
          "name": "C#2",
          "midi": 37,
          "time": 57.200000000000436,
          "velocity": 0.3543307086614173,
          "duration": 0.19583333333333286
        },
        {
          "name": "E2",
          "midi": 40,
          "time": 57.200000000000436,
          "velocity": 0.3543307086614173,
          "duration": 0.19583333333333286
        },
        {
          "name": "D4",
          "midi": 62,
          "time": 57.40000000000044,
          "velocity": 0.8661417322834646,
          "duration": 0.19583333333333286
        },
        {
          "name": "F#4",
          "midi": 66,
          "time": 57.40000000000044,
          "velocity": 0.8661417322834646,
          "duration": 0.19583333333333286
        },
        {
          "name": "A4",
          "midi": 69,
          "time": 57.40000000000044,
          "velocity": 0.8661417322834646,
          "duration": 0.19583333333333286
        },
        {
          "name": "C#2",
          "midi": 37,
          "time": 57.40000000000044,
          "velocity": 0.3543307086614173,
          "duration": 0.19583333333333286
        },
        {
          "name": "E2",
          "midi": 40,
          "time": 57.40000000000044,
          "velocity": 0.3543307086614173,
          "duration": 0.19583333333333286
        },
        {
          "name": "F#5",
          "midi": 78,
          "time": 57.60000000000044,
          "velocity": 0.8661417322834646,
          "duration": 0.3333333333333357
        },
        {
          "name": "A3",
          "midi": 57,
          "time": 57.60000000000044,
          "velocity": 0.8661417322834646,
          "duration": 0.19583333333333286
        },
        {
          "name": "D4",
          "midi": 62,
          "time": 57.60000000000044,
          "velocity": 0.8661417322834646,
          "duration": 0.19583333333333286
        },
        {
          "name": "F#4",
          "midi": 66,
          "time": 57.60000000000044,
          "velocity": 0.8661417322834646,
          "duration": 0.19583333333333286
        },
        {
          "name": "A4",
          "midi": 69,
          "time": 57.60000000000044,
          "velocity": 0.8661417322834646,
          "duration": 0.19583333333333286
        },
        {
          "name": "D2",
          "midi": 38,
          "time": 57.60000000000044,
          "velocity": 0.8661417322834646,
          "duration": 0.3333333333333357
        },
        {
          "name": "C#2",
          "midi": 37,
          "time": 57.60000000000044,
          "velocity": 0.3543307086614173,
          "duration": 0.19583333333333286
        },
        {
          "name": "E2",
          "midi": 40,
          "time": 57.60000000000044,
          "velocity": 0.3543307086614173,
          "duration": 0.19583333333333286
        },
        {
          "name": "A3",
          "midi": 57,
          "time": 57.800000000000445,
          "velocity": 0.8661417322834646,
          "duration": 0.09583333333333144
        },
        {
          "name": "D4",
          "midi": 62,
          "time": 57.800000000000445,
          "velocity": 0.8661417322834646,
          "duration": 0.09583333333333144
        },
        {
          "name": "F#4",
          "midi": 66,
          "time": 57.800000000000445,
          "velocity": 0.8661417322834646,
          "duration": 0.09583333333333144
        },
        {
          "name": "A4",
          "midi": 69,
          "time": 57.800000000000445,
          "velocity": 0.8661417322834646,
          "duration": 0.09583333333333144
        },
        {
          "name": "C#2",
          "midi": 37,
          "time": 57.800000000000445,
          "velocity": 0.3543307086614173,
          "duration": 0.09583333333333144
        },
        {
          "name": "E2",
          "midi": 40,
          "time": 57.800000000000445,
          "velocity": 0.3543307086614173,
          "duration": 0.09583333333333144
        },
        {
          "name": "A3",
          "midi": 57,
          "time": 57.900000000000446,
          "velocity": 0.8661417322834646,
          "duration": 0.09583333333333144
        },
        {
          "name": "D4",
          "midi": 62,
          "time": 57.900000000000446,
          "velocity": 0.8661417322834646,
          "duration": 0.09583333333333144
        },
        {
          "name": "F#4",
          "midi": 66,
          "time": 57.900000000000446,
          "velocity": 0.8661417322834646,
          "duration": 0.09583333333333144
        },
        {
          "name": "A4",
          "midi": 69,
          "time": 57.900000000000446,
          "velocity": 0.8661417322834646,
          "duration": 0.09583333333333144
        },
        {
          "name": "C#2",
          "midi": 37,
          "time": 57.900000000000446,
          "velocity": 0.3543307086614173,
          "duration": 0.09583333333333144
        },
        {
          "name": "E2",
          "midi": 40,
          "time": 57.900000000000446,
          "velocity": 0.3543307086614173,
          "duration": 0.09583333333333144
        },
        {
          "name": "G5",
          "midi": 79,
          "time": 58.00000000000045,
          "velocity": 0.8661417322834646,
          "duration": 0.5333333333333385
        },
        {
          "name": "A3",
          "midi": 57,
          "time": 58.00000000000045,
          "velocity": 0.8661417322834646,
          "duration": 0.19583333333333286
        },
        {
          "name": "C#4",
          "midi": 61,
          "time": 58.00000000000045,
          "velocity": 0.8661417322834646,
          "duration": 0.19583333333333286
        },
        {
          "name": "E4",
          "midi": 64,
          "time": 58.00000000000045,
          "velocity": 0.8661417322834646,
          "duration": 0.19583333333333286
        },
        {
          "name": "G4",
          "midi": 67,
          "time": 58.00000000000045,
          "velocity": 0.8661417322834646,
          "duration": 0.19583333333333286
        },
        {
          "name": "C#2",
          "midi": 37,
          "time": 58.00000000000045,
          "velocity": 0.3543307086614173,
          "duration": 0.19583333333333286
        },
        {
          "name": "E2",
          "midi": 40,
          "time": 58.00000000000045,
          "velocity": 0.3543307086614173,
          "duration": 0.19583333333333286
        },
        {
          "name": "A3",
          "midi": 57,
          "time": 58.20000000000045,
          "velocity": 0.8661417322834646,
          "duration": 0.19583333333333286
        },
        {
          "name": "C#4",
          "midi": 61,
          "time": 58.20000000000045,
          "velocity": 0.8661417322834646,
          "duration": 0.19583333333333286
        },
        {
          "name": "E4",
          "midi": 64,
          "time": 58.20000000000045,
          "velocity": 0.8661417322834646,
          "duration": 0.19583333333333286
        },
        {
          "name": "G4",
          "midi": 67,
          "time": 58.20000000000045,
          "velocity": 0.8661417322834646,
          "duration": 0.19583333333333286
        },
        {
          "name": "C#2",
          "midi": 37,
          "time": 58.20000000000045,
          "velocity": 0.3543307086614173,
          "duration": 0.19583333333333286
        },
        {
          "name": "E2",
          "midi": 40,
          "time": 58.20000000000045,
          "velocity": 0.3543307086614173,
          "duration": 0.19583333333333286
        },
        {
          "name": "A3",
          "midi": 57,
          "time": 58.40000000000045,
          "velocity": 0.8661417322834646,
          "duration": 0.19583333333333286
        },
        {
          "name": "C#4",
          "midi": 61,
          "time": 58.40000000000045,
          "velocity": 0.8661417322834646,
          "duration": 0.19583333333333286
        },
        {
          "name": "E4",
          "midi": 64,
          "time": 58.40000000000045,
          "velocity": 0.8661417322834646,
          "duration": 0.19583333333333286
        },
        {
          "name": "G4",
          "midi": 67,
          "time": 58.40000000000045,
          "velocity": 0.8661417322834646,
          "duration": 0.19583333333333286
        },
        {
          "name": "A2",
          "midi": 45,
          "time": 58.40000000000045,
          "velocity": 0.8661417322834646,
          "duration": 0.3333333333333357
        },
        {
          "name": "C#2",
          "midi": 37,
          "time": 58.40000000000045,
          "velocity": 0.3543307086614173,
          "duration": 0.19583333333333286
        },
        {
          "name": "E2",
          "midi": 40,
          "time": 58.40000000000045,
          "velocity": 0.3543307086614173,
          "duration": 0.19583333333333286
        },
        {
          "name": "E5",
          "midi": 76,
          "time": 58.600000000000456,
          "velocity": 0.8661417322834646,
          "duration": 0.19583333333333286
        },
        {
          "name": "A3",
          "midi": 57,
          "time": 58.600000000000456,
          "velocity": 0.8661417322834646,
          "duration": 0.19583333333333286
        },
        {
          "name": "C#4",
          "midi": 61,
          "time": 58.600000000000456,
          "velocity": 0.8661417322834646,
          "duration": 0.19583333333333286
        },
        {
          "name": "E4",
          "midi": 64,
          "time": 58.600000000000456,
          "velocity": 0.8661417322834646,
          "duration": 0.19583333333333286
        },
        {
          "name": "G4",
          "midi": 67,
          "time": 58.600000000000456,
          "velocity": 0.8661417322834646,
          "duration": 0.19583333333333286
        },
        {
          "name": "C#2",
          "midi": 37,
          "time": 58.600000000000456,
          "velocity": 0.3543307086614173,
          "duration": 0.19583333333333286
        },
        {
          "name": "E2",
          "midi": 40,
          "time": 58.600000000000456,
          "velocity": 0.3543307086614173,
          "duration": 0.19583333333333286
        },
        {
          "name": "F#5",
          "midi": 78,
          "time": 58.80000000000046,
          "velocity": 0.8661417322834646,
          "duration": 1.1000000000000156
        },
        {
          "name": "D4",
          "midi": 62,
          "time": 58.80000000000046,
          "velocity": 0.8661417322834646,
          "duration": 0.19583333333333286
        },
        {
          "name": "F#4",
          "midi": 66,
          "time": 58.80000000000046,
          "velocity": 0.8661417322834646,
          "duration": 0.19583333333333286
        },
        {
          "name": "A4",
          "midi": 69,
          "time": 58.80000000000046,
          "velocity": 0.8661417322834646,
          "duration": 0.19583333333333286
        },
        {
          "name": "D2",
          "midi": 38,
          "time": 58.80000000000046,
          "velocity": 0.8661417322834646,
          "duration": 0.3333333333333357
        },
        {
          "name": "C#2",
          "midi": 37,
          "time": 58.80000000000046,
          "velocity": 0.3543307086614173,
          "duration": 0.19583333333333286
        },
        {
          "name": "E2",
          "midi": 40,
          "time": 58.80000000000046,
          "velocity": 0.3543307086614173,
          "duration": 0.19583333333333286
        },
        {
          "name": "D4",
          "midi": 62,
          "time": 59.00000000000046,
          "velocity": 0.8661417322834646,
          "duration": 0.09583333333333144
        },
        {
          "name": "F#4",
          "midi": 66,
          "time": 59.00000000000046,
          "velocity": 0.8661417322834646,
          "duration": 0.09583333333333144
        },
        {
          "name": "A4",
          "midi": 69,
          "time": 59.00000000000046,
          "velocity": 0.8661417322834646,
          "duration": 0.09583333333333144
        },
        {
          "name": "D4",
          "midi": 62,
          "time": 59.00000000000046,
          "velocity": 0.8661417322834646,
          "duration": 0.19583333333333286
        },
        {
          "name": "F#4",
          "midi": 66,
          "time": 59.00000000000046,
          "velocity": 0.8661417322834646,
          "duration": 0.19583333333333286
        },
        {
          "name": "A4",
          "midi": 69,
          "time": 59.00000000000046,
          "velocity": 0.8661417322834646,
          "duration": 0.19583333333333286
        },
        {
          "name": "C#2",
          "midi": 37,
          "time": 59.00000000000046,
          "velocity": 0.3543307086614173,
          "duration": 0.09583333333333144
        },
        {
          "name": "E2",
          "midi": 40,
          "time": 59.00000000000046,
          "velocity": 0.3543307086614173,
          "duration": 0.09583333333333144
        },
        {
          "name": "D4",
          "midi": 62,
          "time": 59.10000000000046,
          "velocity": 0.8661417322834646,
          "duration": 0.23333333333333428
        },
        {
          "name": "F#4",
          "midi": 66,
          "time": 59.10000000000046,
          "velocity": 0.8661417322834646,
          "duration": 0.23333333333333428
        },
        {
          "name": "A4",
          "midi": 69,
          "time": 59.10000000000046,
          "velocity": 0.8661417322834646,
          "duration": 0.23333333333333428
        },
        {
          "name": "C#2",
          "midi": 37,
          "time": 59.10000000000046,
          "velocity": 0.3543307086614173,
          "duration": 0.09583333333333144
        },
        {
          "name": "E2",
          "midi": 40,
          "time": 59.10000000000046,
          "velocity": 0.3543307086614173,
          "duration": 0.09583333333333144
        },
        {
          "name": "D4",
          "midi": 62,
          "time": 59.200000000000465,
          "velocity": 0.8661417322834646,
          "duration": 0.19583333333333286
        },
        {
          "name": "F#4",
          "midi": 66,
          "time": 59.200000000000465,
          "velocity": 0.8661417322834646,
          "duration": 0.19583333333333286
        },
        {
          "name": "A4",
          "midi": 69,
          "time": 59.200000000000465,
          "velocity": 0.8661417322834646,
          "duration": 0.19583333333333286
        },
        {
          "name": "C#2",
          "midi": 37,
          "time": 59.200000000000465,
          "velocity": 0.3543307086614173,
          "duration": 0.19583333333333286
        },
        {
          "name": "E2",
          "midi": 40,
          "time": 59.200000000000465,
          "velocity": 0.3543307086614173,
          "duration": 0.19583333333333286
        },
        {
          "name": "D4",
          "midi": 62,
          "time": 59.40000000000047,
          "velocity": 0.8661417322834646,
          "duration": 0.09583333333333144
        },
        {
          "name": "F#4",
          "midi": 66,
          "time": 59.40000000000047,
          "velocity": 0.8661417322834646,
          "duration": 0.09583333333333144
        },
        {
          "name": "A4",
          "midi": 69,
          "time": 59.40000000000047,
          "velocity": 0.8661417322834646,
          "duration": 0.09583333333333144
        },
        {
          "name": "D4",
          "midi": 62,
          "time": 59.40000000000047,
          "velocity": 0.8661417322834646,
          "duration": 0.19583333333333286
        },
        {
          "name": "F#4",
          "midi": 66,
          "time": 59.40000000000047,
          "velocity": 0.8661417322834646,
          "duration": 0.19583333333333286
        },
        {
          "name": "A4",
          "midi": 69,
          "time": 59.40000000000047,
          "velocity": 0.8661417322834646,
          "duration": 0.19583333333333286
        },
        {
          "name": "C#2",
          "midi": 37,
          "time": 59.40000000000047,
          "velocity": 0.3543307086614173,
          "duration": 0.19583333333333286
        },
        {
          "name": "E2",
          "midi": 40,
          "time": 59.40000000000047,
          "velocity": 0.3543307086614173,
          "duration": 0.19583333333333286
        },
        {
          "name": "A4",
          "midi": 69,
          "time": 59.50000000000047,
          "velocity": 0.8661417322834646,
          "duration": 0.09583333333333144
        },
        {
          "name": "F#4",
          "midi": 66,
          "time": 59.50000000000047,
          "velocity": 0.8661417322834646,
          "duration": 0.09583333333333144
        },
        {
          "name": "D4",
          "midi": 62,
          "time": 59.50000000000047,
          "velocity": 0.8661417322834646,
          "duration": 0.09583333333333144
        },
        {
          "name": "A1",
          "midi": 33,
          "time": 59.60000000000047,
          "velocity": 0.8661417322834646,
          "duration": 0.3333333333333357
        },
        {
          "name": "A4",
          "midi": 69,
          "time": 59.60000000000047,
          "velocity": 0.8661417322834646,
          "duration": 0.19583333333333286
        },
        {
          "name": "F#4",
          "midi": 66,
          "time": 59.60000000000047,
          "velocity": 0.8661417322834646,
          "duration": 0.19583333333333286
        },
        {
          "name": "D4",
          "midi": 62,
          "time": 59.60000000000047,
          "velocity": 0.8661417322834646,
          "duration": 0.19583333333333286
        },
        {
          "name": "D4",
          "midi": 62,
          "time": 59.60000000000047,
          "velocity": 0.8661417322834646,
          "duration": 0.19583333333333286
        },
        {
          "name": "F#4",
          "midi": 66,
          "time": 59.60000000000047,
          "velocity": 0.8661417322834646,
          "duration": 0.19583333333333286
        },
        {
          "name": "A4",
          "midi": 69,
          "time": 59.60000000000047,
          "velocity": 0.8661417322834646,
          "duration": 0.19583333333333286
        },
        {
          "name": "C#2",
          "midi": 37,
          "time": 59.60000000000047,
          "velocity": 0.3543307086614173,
          "duration": 0.19583333333333286
        },
        {
          "name": "E2",
          "midi": 40,
          "time": 59.60000000000047,
          "velocity": 0.3543307086614173,
          "duration": 0.19583333333333286
        },
        {
          "name": "F#4",
          "midi": 66,
          "time": 59.80000000000047,
          "velocity": 0.8661417322834646,
          "duration": 0.19583333333333286
        },
        {
          "name": "A4",
          "midi": 69,
          "time": 59.80000000000047,
          "velocity": 0.8661417322834646,
          "duration": 0.19583333333333286
        },
        {
          "name": "D4",
          "midi": 62,
          "time": 59.80000000000047,
          "velocity": 0.8661417322834646,
          "duration": 0.19583333333333286
        },
        {
          "name": "C#2",
          "midi": 37,
          "time": 59.80000000000047,
          "velocity": 0.3543307086614173,
          "duration": 0.19583333333333286
        },
        {
          "name": "E2",
          "midi": 40,
          "time": 59.80000000000047,
          "velocity": 0.3543307086614173,
          "duration": 0.19583333333333286
        },
        {
          "name": "F#5",
          "midi": 78,
          "time": 60.000000000000476,
          "velocity": 0.8661417322834646,
          "duration": 0.3333333333333357
        },
        {
          "name": "A3",
          "midi": 57,
          "time": 60.000000000000476,
          "velocity": 0.8661417322834646,
          "duration": 0.19583333333333286
        },
        {
          "name": "D4",
          "midi": 62,
          "time": 60.000000000000476,
          "velocity": 0.8661417322834646,
          "duration": 0.19583333333333286
        },
        {
          "name": "F#4",
          "midi": 66,
          "time": 60.000000000000476,
          "velocity": 0.8661417322834646,
          "duration": 0.19583333333333286
        },
        {
          "name": "A4",
          "midi": 69,
          "time": 60.000000000000476,
          "velocity": 0.8661417322834646,
          "duration": 0.19583333333333286
        },
        {
          "name": "D2",
          "midi": 38,
          "time": 60.000000000000476,
          "velocity": 0.8661417322834646,
          "duration": 0.3333333333333357
        },
        {
          "name": "C#2",
          "midi": 37,
          "time": 60.000000000000476,
          "velocity": 0.3543307086614173,
          "duration": 0.19583333333333286
        },
        {
          "name": "E2",
          "midi": 40,
          "time": 60.000000000000476,
          "velocity": 0.3543307086614173,
          "duration": 0.19583333333333286
        },
        {
          "name": "A3",
          "midi": 57,
          "time": 60.20000000000048,
          "velocity": 0.8661417322834646,
          "duration": 0.09583333333333144
        },
        {
          "name": "D4",
          "midi": 62,
          "time": 60.20000000000048,
          "velocity": 0.8661417322834646,
          "duration": 0.09583333333333144
        },
        {
          "name": "F#4",
          "midi": 66,
          "time": 60.20000000000048,
          "velocity": 0.8661417322834646,
          "duration": 0.09583333333333144
        },
        {
          "name": "A4",
          "midi": 69,
          "time": 60.20000000000048,
          "velocity": 0.8661417322834646,
          "duration": 0.09583333333333144
        },
        {
          "name": "C#2",
          "midi": 37,
          "time": 60.20000000000048,
          "velocity": 0.3543307086614173,
          "duration": 0.09583333333333144
        },
        {
          "name": "E2",
          "midi": 40,
          "time": 60.20000000000048,
          "velocity": 0.3543307086614173,
          "duration": 0.09583333333333144
        },
        {
          "name": "A3",
          "midi": 57,
          "time": 60.30000000000048,
          "velocity": 0.8661417322834646,
          "duration": 0.09583333333333144
        },
        {
          "name": "D4",
          "midi": 62,
          "time": 60.30000000000048,
          "velocity": 0.8661417322834646,
          "duration": 0.09583333333333144
        },
        {
          "name": "F#4",
          "midi": 66,
          "time": 60.30000000000048,
          "velocity": 0.8661417322834646,
          "duration": 0.09583333333333144
        },
        {
          "name": "A4",
          "midi": 69,
          "time": 60.30000000000048,
          "velocity": 0.8661417322834646,
          "duration": 0.09583333333333144
        },
        {
          "name": "C#2",
          "midi": 37,
          "time": 60.30000000000048,
          "velocity": 0.3543307086614173,
          "duration": 0.09583333333333144
        },
        {
          "name": "E2",
          "midi": 40,
          "time": 60.30000000000048,
          "velocity": 0.3543307086614173,
          "duration": 0.09583333333333144
        },
        {
          "name": "G5",
          "midi": 79,
          "time": 60.40000000000048,
          "velocity": 0.8661417322834646,
          "duration": 0.5333333333333385
        },
        {
          "name": "A3",
          "midi": 57,
          "time": 60.40000000000048,
          "velocity": 0.8661417322834646,
          "duration": 0.19583333333333286
        },
        {
          "name": "C#4",
          "midi": 61,
          "time": 60.40000000000048,
          "velocity": 0.8661417322834646,
          "duration": 0.19583333333333286
        },
        {
          "name": "E4",
          "midi": 64,
          "time": 60.40000000000048,
          "velocity": 0.8661417322834646,
          "duration": 0.19583333333333286
        },
        {
          "name": "G4",
          "midi": 67,
          "time": 60.40000000000048,
          "velocity": 0.8661417322834646,
          "duration": 0.19583333333333286
        },
        {
          "name": "C#2",
          "midi": 37,
          "time": 60.40000000000048,
          "velocity": 0.3543307086614173,
          "duration": 0.19583333333333286
        },
        {
          "name": "E2",
          "midi": 40,
          "time": 60.40000000000048,
          "velocity": 0.3543307086614173,
          "duration": 0.19583333333333286
        },
        {
          "name": "A3",
          "midi": 57,
          "time": 60.600000000000485,
          "velocity": 0.8661417322834646,
          "duration": 0.19583333333333286
        },
        {
          "name": "C#4",
          "midi": 61,
          "time": 60.600000000000485,
          "velocity": 0.8661417322834646,
          "duration": 0.19583333333333286
        },
        {
          "name": "E4",
          "midi": 64,
          "time": 60.600000000000485,
          "velocity": 0.8661417322834646,
          "duration": 0.19583333333333286
        },
        {
          "name": "G4",
          "midi": 67,
          "time": 60.600000000000485,
          "velocity": 0.8661417322834646,
          "duration": 0.19583333333333286
        },
        {
          "name": "C#2",
          "midi": 37,
          "time": 60.600000000000485,
          "velocity": 0.3543307086614173,
          "duration": 0.19583333333333286
        },
        {
          "name": "E2",
          "midi": 40,
          "time": 60.600000000000485,
          "velocity": 0.3543307086614173,
          "duration": 0.19583333333333286
        },
        {
          "name": "A3",
          "midi": 57,
          "time": 60.80000000000049,
          "velocity": 0.8661417322834646,
          "duration": 0.19583333333333286
        },
        {
          "name": "C#4",
          "midi": 61,
          "time": 60.80000000000049,
          "velocity": 0.8661417322834646,
          "duration": 0.19583333333333286
        },
        {
          "name": "E4",
          "midi": 64,
          "time": 60.80000000000049,
          "velocity": 0.8661417322834646,
          "duration": 0.19583333333333286
        },
        {
          "name": "G4",
          "midi": 67,
          "time": 60.80000000000049,
          "velocity": 0.8661417322834646,
          "duration": 0.19583333333333286
        },
        {
          "name": "A2",
          "midi": 45,
          "time": 60.80000000000049,
          "velocity": 0.8661417322834646,
          "duration": 0.3333333333333357
        },
        {
          "name": "C#2",
          "midi": 37,
          "time": 60.80000000000049,
          "velocity": 0.3543307086614173,
          "duration": 0.19583333333333286
        },
        {
          "name": "E2",
          "midi": 40,
          "time": 60.80000000000049,
          "velocity": 0.3543307086614173,
          "duration": 0.19583333333333286
        },
        {
          "name": "E5",
          "midi": 76,
          "time": 61.00000000000049,
          "velocity": 0.8661417322834646,
          "duration": 0.19583333333333286
        },
        {
          "name": "A3",
          "midi": 57,
          "time": 61.00000000000049,
          "velocity": 0.8661417322834646,
          "duration": 0.19583333333333286
        },
        {
          "name": "C#4",
          "midi": 61,
          "time": 61.00000000000049,
          "velocity": 0.8661417322834646,
          "duration": 0.19583333333333286
        },
        {
          "name": "E4",
          "midi": 64,
          "time": 61.00000000000049,
          "velocity": 0.8661417322834646,
          "duration": 0.19583333333333286
        },
        {
          "name": "G4",
          "midi": 67,
          "time": 61.00000000000049,
          "velocity": 0.8661417322834646,
          "duration": 0.19583333333333286
        },
        {
          "name": "C#2",
          "midi": 37,
          "time": 61.00000000000049,
          "velocity": 0.3543307086614173,
          "duration": 0.19583333333333286
        },
        {
          "name": "E2",
          "midi": 40,
          "time": 61.00000000000049,
          "velocity": 0.3543307086614173,
          "duration": 0.19583333333333286
        },
        {
          "name": "B4",
          "midi": 71,
          "time": 61.20000000000049,
          "velocity": 0.8661417322834646,
          "duration": 0.3333333333333357
        },
        {
          "name": "B3",
          "midi": 59,
          "time": 61.20000000000049,
          "velocity": 0.8661417322834646,
          "duration": 0.19583333333333286
        },
        {
          "name": "D4",
          "midi": 62,
          "time": 61.20000000000049,
          "velocity": 0.8661417322834646,
          "duration": 0.19583333333333286
        },
        {
          "name": "F#4",
          "midi": 66,
          "time": 61.20000000000049,
          "velocity": 0.8661417322834646,
          "duration": 0.19583333333333286
        },
        {
          "name": "B2",
          "midi": 47,
          "time": 61.20000000000049,
          "velocity": 0.8661417322834646,
          "duration": 0.3333333333333357
        },
        {
          "name": "C#2",
          "midi": 37,
          "time": 61.20000000000049,
          "velocity": 0.3543307086614173,
          "duration": 0.19583333333333286
        },
        {
          "name": "E2",
          "midi": 40,
          "time": 61.20000000000049,
          "velocity": 0.3543307086614173,
          "duration": 0.19583333333333286
        },
        {
          "name": "B3",
          "midi": 59,
          "time": 61.400000000000496,
          "velocity": 0.8661417322834646,
          "duration": 0.09583333333333144
        },
        {
          "name": "D4",
          "midi": 62,
          "time": 61.400000000000496,
          "velocity": 0.8661417322834646,
          "duration": 0.09583333333333144
        },
        {
          "name": "F#4",
          "midi": 66,
          "time": 61.400000000000496,
          "velocity": 0.8661417322834646,
          "duration": 0.09583333333333144
        },
        {
          "name": "C#2",
          "midi": 37,
          "time": 61.400000000000496,
          "velocity": 0.3543307086614173,
          "duration": 0.09583333333333144
        },
        {
          "name": "E2",
          "midi": 40,
          "time": 61.400000000000496,
          "velocity": 0.3543307086614173,
          "duration": 0.09583333333333144
        },
        {
          "name": "B3",
          "midi": 59,
          "time": 61.5000000000005,
          "velocity": 0.8661417322834646,
          "duration": 0.09583333333333144
        },
        {
          "name": "D4",
          "midi": 62,
          "time": 61.5000000000005,
          "velocity": 0.8661417322834646,
          "duration": 0.09583333333333144
        },
        {
          "name": "F#4",
          "midi": 66,
          "time": 61.5000000000005,
          "velocity": 0.8661417322834646,
          "duration": 0.09583333333333144
        },
        {
          "name": "C#2",
          "midi": 37,
          "time": 61.5000000000005,
          "velocity": 0.3543307086614173,
          "duration": 0.09583333333333144
        },
        {
          "name": "E2",
          "midi": 40,
          "time": 61.5000000000005,
          "velocity": 0.3543307086614173,
          "duration": 0.09583333333333144
        },
        {
          "name": "D5",
          "midi": 74,
          "time": 61.6000000000005,
          "velocity": 0.8661417322834646,
          "duration": 0.3333333333333357
        },
        {
          "name": "B3",
          "midi": 59,
          "time": 61.6000000000005,
          "velocity": 0.8661417322834646,
          "duration": 0.19583333333333286
        },
        {
          "name": "D4",
          "midi": 62,
          "time": 61.6000000000005,
          "velocity": 0.8661417322834646,
          "duration": 0.19583333333333286
        },
        {
          "name": "F#4",
          "midi": 66,
          "time": 61.6000000000005,
          "velocity": 0.8661417322834646,
          "duration": 0.19583333333333286
        },
        {
          "name": "C#2",
          "midi": 37,
          "time": 61.6000000000005,
          "velocity": 0.3543307086614173,
          "duration": 0.19583333333333286
        },
        {
          "name": "E2",
          "midi": 40,
          "time": 61.6000000000005,
          "velocity": 0.3543307086614173,
          "duration": 0.19583333333333286
        },
        {
          "name": "B3",
          "midi": 59,
          "time": 61.8000000000005,
          "velocity": 0.8661417322834646,
          "duration": 0.19583333333333286
        },
        {
          "name": "D4",
          "midi": 62,
          "time": 61.8000000000005,
          "velocity": 0.8661417322834646,
          "duration": 0.19583333333333286
        },
        {
          "name": "F#4",
          "midi": 66,
          "time": 61.8000000000005,
          "velocity": 0.8661417322834646,
          "duration": 0.19583333333333286
        },
        {
          "name": "C#2",
          "midi": 37,
          "time": 61.8000000000005,
          "velocity": 0.3543307086614173,
          "duration": 0.19583333333333286
        },
        {
          "name": "E2",
          "midi": 40,
          "time": 61.8000000000005,
          "velocity": 0.3543307086614173,
          "duration": 0.19583333333333286
        },
        {
          "name": "E5",
          "midi": 76,
          "time": 62.000000000000504,
          "velocity": 0.8661417322834646,
          "duration": 0.3333333333333357
        },
        {
          "name": "F#3",
          "midi": 54,
          "time": 62.000000000000504,
          "velocity": 0.8661417322834646,
          "duration": 0.19583333333333286
        },
        {
          "name": "B3",
          "midi": 59,
          "time": 62.000000000000504,
          "velocity": 0.8661417322834646,
          "duration": 0.19583333333333286
        },
        {
          "name": "B1",
          "midi": 35,
          "time": 62.000000000000504,
          "velocity": 0.8661417322834646,
          "duration": 0.3333333333333357
        },
        {
          "name": "D4",
          "midi": 62,
          "time": 62.000000000000504,
          "velocity": 0.8661417322834646,
          "duration": 0.4000000000000057
        },
        {
          "name": "C#2",
          "midi": 37,
          "time": 62.000000000000504,
          "velocity": 0.3543307086614173,
          "duration": 0.19583333333333286
        },
        {
          "name": "E2",
          "midi": 40,
          "time": 62.000000000000504,
          "velocity": 0.3543307086614173,
          "duration": 0.19583333333333286
        },
        {
          "name": "F#3",
          "midi": 54,
          "time": 62.20000000000051,
          "velocity": 0.8661417322834646,
          "duration": 0.19583333333333286
        },
        {
          "name": "B3",
          "midi": 59,
          "time": 62.20000000000051,
          "velocity": 0.8661417322834646,
          "duration": 0.19583333333333286
        },
        {
          "name": "C#2",
          "midi": 37,
          "time": 62.20000000000051,
          "velocity": 0.3543307086614173,
          "duration": 0.19583333333333286
        },
        {
          "name": "E2",
          "midi": 40,
          "time": 62.20000000000051,
          "velocity": 0.3543307086614173,
          "duration": 0.19583333333333286
        },
        {
          "name": "F#5",
          "midi": 78,
          "time": 62.40000000000051,
          "velocity": 0.8661417322834646,
          "duration": 0.70000000000001
        },
        {
          "name": "E3",
          "midi": 52,
          "time": 62.40000000000051,
          "velocity": 0.8661417322834646,
          "duration": 0.19583333333333286
        },
        {
          "name": "A3",
          "midi": 57,
          "time": 62.40000000000051,
          "velocity": 0.8661417322834646,
          "duration": 0.19583333333333286
        },
        {
          "name": "F#2",
          "midi": 42,
          "time": 62.40000000000051,
          "velocity": 0.8661417322834646,
          "duration": 0.3333333333333357
        },
        {
          "name": "C#4",
          "midi": 61,
          "time": 62.40000000000051,
          "velocity": 0.8661417322834646,
          "duration": 0.70000000000001
        },
        {
          "name": "C#2",
          "midi": 37,
          "time": 62.40000000000051,
          "velocity": 0.3543307086614173,
          "duration": 0.19583333333333286
        },
        {
          "name": "E2",
          "midi": 40,
          "time": 62.40000000000051,
          "velocity": 0.3543307086614173,
          "duration": 0.19583333333333286
        },
        {
          "name": "E3",
          "midi": 52,
          "time": 62.60000000000051,
          "velocity": 0.8661417322834646,
          "duration": 0.09583333333333144
        },
        {
          "name": "A3",
          "midi": 57,
          "time": 62.60000000000051,
          "velocity": 0.8661417322834646,
          "duration": 0.09583333333333144
        },
        {
          "name": "C#2",
          "midi": 37,
          "time": 62.60000000000051,
          "velocity": 0.3543307086614173,
          "duration": 0.09583333333333144
        },
        {
          "name": "E2",
          "midi": 40,
          "time": 62.60000000000051,
          "velocity": 0.3543307086614173,
          "duration": 0.09583333333333144
        },
        {
          "name": "E3",
          "midi": 52,
          "time": 62.700000000000514,
          "velocity": 0.8661417322834646,
          "duration": 0.09583333333333144
        },
        {
          "name": "A3",
          "midi": 57,
          "time": 62.700000000000514,
          "velocity": 0.8661417322834646,
          "duration": 0.09583333333333144
        },
        {
          "name": "C#2",
          "midi": 37,
          "time": 62.700000000000514,
          "velocity": 0.3543307086614173,
          "duration": 0.09583333333333144
        },
        {
          "name": "E2",
          "midi": 40,
          "time": 62.700000000000514,
          "velocity": 0.3543307086614173,
          "duration": 0.09583333333333144
        },
        {
          "name": "E3",
          "midi": 52,
          "time": 62.800000000000516,
          "velocity": 0.8661417322834646,
          "duration": 0.19583333333333286
        },
        {
          "name": "A3",
          "midi": 57,
          "time": 62.800000000000516,
          "velocity": 0.8661417322834646,
          "duration": 0.19583333333333286
        },
        {
          "name": "C#2",
          "midi": 37,
          "time": 62.800000000000516,
          "velocity": 0.3543307086614173,
          "duration": 0.19583333333333286
        },
        {
          "name": "E2",
          "midi": 40,
          "time": 62.800000000000516,
          "velocity": 0.3543307086614173,
          "duration": 0.19583333333333286
        },
        {
          "name": "E3",
          "midi": 52,
          "time": 63.00000000000052,
          "velocity": 0.8661417322834646,
          "duration": 0.19583333333333286
        },
        {
          "name": "A3",
          "midi": 57,
          "time": 63.00000000000052,
          "velocity": 0.8661417322834646,
          "duration": 0.19583333333333286
        },
        {
          "name": "C#2",
          "midi": 37,
          "time": 63.00000000000052,
          "velocity": 0.3543307086614173,
          "duration": 0.19583333333333286
        },
        {
          "name": "E2",
          "midi": 40,
          "time": 63.00000000000052,
          "velocity": 0.3543307086614173,
          "duration": 0.19583333333333286
        },
        {
          "name": "G5",
          "midi": 79,
          "time": 63.20000000000052,
          "velocity": 0.8661417322834646,
          "duration": 0.3333333333333357
        },
        {
          "name": "E3",
          "midi": 52,
          "time": 63.20000000000052,
          "velocity": 0.8661417322834646,
          "duration": 0.19583333333333286
        },
        {
          "name": "G3",
          "midi": 55,
          "time": 63.20000000000052,
          "velocity": 0.8661417322834646,
          "duration": 0.19583333333333286
        },
        {
          "name": "B3",
          "midi": 59,
          "time": 63.20000000000052,
          "velocity": 0.8661417322834646,
          "duration": 0.19583333333333286
        },
        {
          "name": "E2",
          "midi": 40,
          "time": 63.20000000000052,
          "velocity": 0.8661417322834646,
          "duration": 0.19583333333333286
        },
        {
          "name": "D4",
          "midi": 62,
          "time": 63.20000000000052,
          "velocity": 0.8661417322834646,
          "duration": 0.4000000000000057
        },
        {
          "name": "C#2",
          "midi": 37,
          "time": 63.20000000000052,
          "velocity": 0.3543307086614173,
          "duration": 0.19583333333333286
        },
        {
          "name": "E2",
          "midi": 40,
          "time": 63.20000000000052,
          "velocity": 0.3543307086614173,
          "duration": 0.3333333333333357
        },
        {
          "name": "E3",
          "midi": 52,
          "time": 63.400000000000524,
          "velocity": 0.8661417322834646,
          "duration": 0.19583333333333286
        },
        {
          "name": "G3",
          "midi": 55,
          "time": 63.400000000000524,
          "velocity": 0.8661417322834646,
          "duration": 0.19583333333333286
        },
        {
          "name": "B3",
          "midi": 59,
          "time": 63.400000000000524,
          "velocity": 0.8661417322834646,
          "duration": 0.19583333333333286
        },
        {
          "name": "C#2",
          "midi": 37,
          "time": 63.400000000000524,
          "velocity": 0.3543307086614173,
          "duration": 0.19583333333333286
        },
        {
          "name": "E2",
          "midi": 40,
          "time": 63.400000000000524,
          "velocity": 0.3543307086614173,
          "duration": 0.19583333333333286
        },
        {
          "name": "E5",
          "midi": 76,
          "time": 63.60000000000053,
          "velocity": 0.8661417322834646,
          "duration": 0.6999999999999957
        },
        {
          "name": "E3",
          "midi": 52,
          "time": 63.60000000000053,
          "velocity": 0.8661417322834646,
          "duration": 0.19583333333333286
        },
        {
          "name": "G3",
          "midi": 55,
          "time": 63.60000000000053,
          "velocity": 0.8661417322834646,
          "duration": 0.19583333333333286
        },
        {
          "name": "A3",
          "midi": 57,
          "time": 63.60000000000053,
          "velocity": 0.8661417322834646,
          "duration": 0.19583333333333286
        },
        {
          "name": "A2",
          "midi": 45,
          "time": 63.60000000000053,
          "velocity": 0.8661417322834646,
          "duration": 0.3333333333333357
        },
        {
          "name": "C#4",
          "midi": 61,
          "time": 63.60000000000053,
          "velocity": 0.8661417322834646,
          "duration": 1.0999999999999872
        },
        {
          "name": "C#2",
          "midi": 37,
          "time": 63.60000000000053,
          "velocity": 0.3543307086614173,
          "duration": 0.19583333333333286
        },
        {
          "name": "E2",
          "midi": 40,
          "time": 63.60000000000053,
          "velocity": 0.3543307086614173,
          "duration": 0.19583333333333286
        },
        {
          "name": "E3",
          "midi": 52,
          "time": 63.80000000000053,
          "velocity": 0.8661417322834646,
          "duration": 0.09583333333333144
        },
        {
          "name": "G3",
          "midi": 55,
          "time": 63.80000000000053,
          "velocity": 0.8661417322834646,
          "duration": 0.09583333333333144
        },
        {
          "name": "A3",
          "midi": 57,
          "time": 63.80000000000053,
          "velocity": 0.8661417322834646,
          "duration": 0.09583333333333144
        },
        {
          "name": "C#2",
          "midi": 37,
          "time": 63.80000000000053,
          "velocity": 0.3543307086614173,
          "duration": 0.09583333333333144
        },
        {
          "name": "E2",
          "midi": 40,
          "time": 63.80000000000053,
          "velocity": 0.3543307086614173,
          "duration": 0.09583333333333144
        },
        {
          "name": "E3",
          "midi": 52,
          "time": 63.90000000000053,
          "velocity": 0.8661417322834646,
          "duration": 0.09583333333333144
        },
        {
          "name": "G3",
          "midi": 55,
          "time": 63.90000000000053,
          "velocity": 0.8661417322834646,
          "duration": 0.09583333333333144
        },
        {
          "name": "A3",
          "midi": 57,
          "time": 63.90000000000053,
          "velocity": 0.8661417322834646,
          "duration": 0.09583333333333144
        },
        {
          "name": "C#2",
          "midi": 37,
          "time": 63.90000000000053,
          "velocity": 0.3543307086614173,
          "duration": 0.09583333333333144
        },
        {
          "name": "E2",
          "midi": 40,
          "time": 63.90000000000053,
          "velocity": 0.3543307086614173,
          "duration": 0.09583333333333144
        },
        {
          "name": "E3",
          "midi": 52,
          "time": 64.00000000000053,
          "velocity": 0.8661417322834646,
          "duration": 0.19583333333333997
        },
        {
          "name": "G3",
          "midi": 55,
          "time": 64.00000000000053,
          "velocity": 0.8661417322834646,
          "duration": 0.19583333333333997
        },
        {
          "name": "A3",
          "midi": 57,
          "time": 64.00000000000053,
          "velocity": 0.8661417322834646,
          "duration": 0.19583333333333997
        },
        {
          "name": "C#2",
          "midi": 37,
          "time": 64.00000000000053,
          "velocity": 0.3543307086614173,
          "duration": 0.19583333333333997
        },
        {
          "name": "E2",
          "midi": 40,
          "time": 64.00000000000053,
          "velocity": 0.3543307086614173,
          "duration": 0.19583333333333997
        },
        {
          "name": "E3",
          "midi": 52,
          "time": 64.20000000000053,
          "velocity": 0.8661417322834646,
          "duration": 0.19583333333332575
        },
        {
          "name": "G3",
          "midi": 55,
          "time": 64.20000000000053,
          "velocity": 0.8661417322834646,
          "duration": 0.19583333333332575
        },
        {
          "name": "A3",
          "midi": 57,
          "time": 64.20000000000053,
          "velocity": 0.8661417322834646,
          "duration": 0.19583333333332575
        },
        {
          "name": "C#2",
          "midi": 37,
          "time": 64.20000000000053,
          "velocity": 0.3543307086614173,
          "duration": 0.19583333333332575
        },
        {
          "name": "E2",
          "midi": 40,
          "time": 64.20000000000053,
          "velocity": 0.3543307086614173,
          "duration": 0.19583333333332575
        },
        {
          "name": "C#5",
          "midi": 73,
          "time": 64.40000000000052,
          "velocity": 0.8661417322834646,
          "duration": 0.3333333333333286
        },
        {
          "name": "E3",
          "midi": 52,
          "time": 64.40000000000052,
          "velocity": 0.8661417322834646,
          "duration": 0.19583333333333997
        },
        {
          "name": "G3",
          "midi": 55,
          "time": 64.40000000000052,
          "velocity": 0.8661417322834646,
          "duration": 0.19583333333333997
        },
        {
          "name": "A3",
          "midi": 57,
          "time": 64.40000000000052,
          "velocity": 0.8661417322834646,
          "duration": 0.19583333333333997
        },
        {
          "name": "A1",
          "midi": 33,
          "time": 64.40000000000052,
          "velocity": 0.8661417322834646,
          "duration": 0.3333333333333286
        },
        {
          "name": "C#2",
          "midi": 37,
          "time": 64.40000000000052,
          "velocity": 0.3543307086614173,
          "duration": 0.19583333333333997
        },
        {
          "name": "E2",
          "midi": 40,
          "time": 64.40000000000052,
          "velocity": 0.3543307086614173,
          "duration": 0.19583333333333997
        },
        {
          "name": "E3",
          "midi": 52,
          "time": 64.60000000000052,
          "velocity": 0.8661417322834646,
          "duration": 0.19583333333332575
        },
        {
          "name": "G3",
          "midi": 55,
          "time": 64.60000000000052,
          "velocity": 0.8661417322834646,
          "duration": 0.19583333333332575
        },
        {
          "name": "A3",
          "midi": 57,
          "time": 64.60000000000052,
          "velocity": 0.8661417322834646,
          "duration": 0.19583333333332575
        },
        {
          "name": "C#2",
          "midi": 37,
          "time": 64.60000000000052,
          "velocity": 0.3543307086614173,
          "duration": 0.19583333333332575
        },
        {
          "name": "E2",
          "midi": 40,
          "time": 64.60000000000052,
          "velocity": 0.3543307086614173,
          "duration": 0.19583333333332575
        },
        {
          "name": "E5",
          "midi": 76,
          "time": 64.80000000000051,
          "velocity": 0.8661417322834646,
          "duration": 0.2958333333333343
        },
        {
          "name": "E3",
          "midi": 52,
          "time": 64.80000000000051,
          "velocity": 0.8661417322834646,
          "duration": 0.19583333333333997
        },
        {
          "name": "G3",
          "midi": 55,
          "time": 64.80000000000051,
          "velocity": 0.8661417322834646,
          "duration": 0.19583333333333997
        },
        {
          "name": "A3",
          "midi": 57,
          "time": 64.80000000000051,
          "velocity": 0.8661417322834646,
          "duration": 0.19583333333333997
        },
        {
          "name": "C#4",
          "midi": 61,
          "time": 64.80000000000051,
          "velocity": 0.8661417322834646,
          "duration": 0.19583333333333997
        },
        {
          "name": "A2",
          "midi": 45,
          "time": 64.80000000000051,
          "velocity": 0.8661417322834646,
          "duration": 0.3333333333333286
        },
        {
          "name": "C#4",
          "midi": 61,
          "time": 64.80000000000051,
          "velocity": 0.8661417322834646,
          "duration": 0.19583333333333997
        },
        {
          "name": "C#2",
          "midi": 37,
          "time": 64.80000000000051,
          "velocity": 0.3543307086614173,
          "duration": 0.19583333333333997
        },
        {
          "name": "E2",
          "midi": 40,
          "time": 64.80000000000051,
          "velocity": 0.3543307086614173,
          "duration": 0.19583333333333997
        },
        {
          "name": "E3",
          "midi": 52,
          "time": 65.00000000000051,
          "velocity": 0.8661417322834646,
          "duration": 0.09583333333333144
        },
        {
          "name": "G3",
          "midi": 55,
          "time": 65.00000000000051,
          "velocity": 0.8661417322834646,
          "duration": 0.09583333333333144
        },
        {
          "name": "A3",
          "midi": 57,
          "time": 65.00000000000051,
          "velocity": 0.8661417322834646,
          "duration": 0.09583333333333144
        },
        {
          "name": "C#4",
          "midi": 61,
          "time": 65.00000000000051,
          "velocity": 0.8661417322834646,
          "duration": 0.09583333333333144
        },
        {
          "name": "E5",
          "midi": 76,
          "time": 65.00000000000051,
          "velocity": 0.8661417322834646,
          "duration": 0.8999999999999773
        },
        {
          "name": "C#4",
          "midi": 61,
          "time": 65.00000000000051,
          "velocity": 0.8661417322834646,
          "duration": 0.09583333333333144
        },
        {
          "name": "C#2",
          "midi": 37,
          "time": 65.00000000000051,
          "velocity": 0.3543307086614173,
          "duration": 0.09583333333333144
        },
        {
          "name": "E2",
          "midi": 40,
          "time": 65.00000000000051,
          "velocity": 0.3543307086614173,
          "duration": 0.09583333333333144
        },
        {
          "name": "E3",
          "midi": 52,
          "time": 65.1000000000005,
          "velocity": 0.8661417322834646,
          "duration": 0.09583333333333144
        },
        {
          "name": "G3",
          "midi": 55,
          "time": 65.1000000000005,
          "velocity": 0.8661417322834646,
          "duration": 0.09583333333333144
        },
        {
          "name": "A3",
          "midi": 57,
          "time": 65.1000000000005,
          "velocity": 0.8661417322834646,
          "duration": 0.09583333333333144
        },
        {
          "name": "C#4",
          "midi": 61,
          "time": 65.1000000000005,
          "velocity": 0.8661417322834646,
          "duration": 0.09583333333333144
        },
        {
          "name": "F5",
          "midi": 77,
          "time": 65.1000000000005,
          "velocity": 0.8661417322834646,
          "duration": 0.09583333333333144
        },
        {
          "name": "C#4",
          "midi": 61,
          "time": 65.1000000000005,
          "velocity": 0.8661417322834646,
          "duration": 0.09583333333333144
        },
        {
          "name": "C#2",
          "midi": 37,
          "time": 65.1000000000005,
          "velocity": 0.3543307086614173,
          "duration": 0.09583333333333144
        },
        {
          "name": "E2",
          "midi": 40,
          "time": 65.1000000000005,
          "velocity": 0.3543307086614173,
          "duration": 0.09583333333333144
        },
        {
          "name": "E3",
          "midi": 52,
          "time": 65.2000000000005,
          "velocity": 0.8661417322834646,
          "duration": 0.19583333333333997
        },
        {
          "name": "G3",
          "midi": 55,
          "time": 65.2000000000005,
          "velocity": 0.8661417322834646,
          "duration": 0.19583333333333997
        },
        {
          "name": "A3",
          "midi": 57,
          "time": 65.2000000000005,
          "velocity": 0.8661417322834646,
          "duration": 0.19583333333333997
        },
        {
          "name": "C#4",
          "midi": 61,
          "time": 65.2000000000005,
          "velocity": 0.8661417322834646,
          "duration": 0.19583333333333997
        },
        {
          "name": "F#5",
          "midi": 78,
          "time": 65.2000000000005,
          "velocity": 0.8661417322834646,
          "duration": 0.19583333333333997
        },
        {
          "name": "C#4",
          "midi": 61,
          "time": 65.2000000000005,
          "velocity": 0.8661417322834646,
          "duration": 0.19583333333333997
        },
        {
          "name": "C#2",
          "midi": 37,
          "time": 65.2000000000005,
          "velocity": 0.3543307086614173,
          "duration": 0.19583333333333997
        },
        {
          "name": "E2",
          "midi": 40,
          "time": 65.2000000000005,
          "velocity": 0.3543307086614173,
          "duration": 0.19583333333333997
        },
        {
          "name": "E3",
          "midi": 52,
          "time": 65.4000000000005,
          "velocity": 0.8661417322834646,
          "duration": 0.19583333333332575
        },
        {
          "name": "G3",
          "midi": 55,
          "time": 65.4000000000005,
          "velocity": 0.8661417322834646,
          "duration": 0.19583333333332575
        },
        {
          "name": "A3",
          "midi": 57,
          "time": 65.4000000000005,
          "velocity": 0.8661417322834646,
          "duration": 0.19583333333332575
        },
        {
          "name": "C#4",
          "midi": 61,
          "time": 65.4000000000005,
          "velocity": 0.8661417322834646,
          "duration": 0.19583333333332575
        },
        {
          "name": "G5",
          "midi": 79,
          "time": 65.4000000000005,
          "velocity": 0.8661417322834646,
          "duration": 0.09583333333333144
        },
        {
          "name": "C#2",
          "midi": 37,
          "time": 65.4000000000005,
          "velocity": 0.3543307086614173,
          "duration": 0.19583333333332575
        },
        {
          "name": "E2",
          "midi": 40,
          "time": 65.4000000000005,
          "velocity": 0.3543307086614173,
          "duration": 0.19583333333332575
        },
        {
          "name": "G#5",
          "midi": 80,
          "time": 65.5000000000005,
          "velocity": 0.8661417322834646,
          "duration": 0.09583333333333144
        },
        {
          "name": "E3",
          "midi": 52,
          "time": 65.60000000000049,
          "velocity": 0.8661417322834646,
          "duration": 0.19583333333333997
        },
        {
          "name": "G3",
          "midi": 55,
          "time": 65.60000000000049,
          "velocity": 0.8661417322834646,
          "duration": 0.19583333333333997
        },
        {
          "name": "A3",
          "midi": 57,
          "time": 65.60000000000049,
          "velocity": 0.8661417322834646,
          "duration": 0.19583333333333997
        },
        {
          "name": "C#4",
          "midi": 61,
          "time": 65.60000000000049,
          "velocity": 0.8661417322834646,
          "duration": 0.19583333333333997
        },
        {
          "name": "A2",
          "midi": 45,
          "time": 65.60000000000049,
          "velocity": 0.8661417322834646,
          "duration": 0.3333333333333286
        },
        {
          "name": "A5",
          "midi": 81,
          "time": 65.60000000000049,
          "velocity": 0.8661417322834646,
          "duration": 0.19583333333333997
        },
        {
          "name": "C#2",
          "midi": 37,
          "time": 65.60000000000049,
          "velocity": 0.3543307086614173,
          "duration": 0.19583333333333997
        },
        {
          "name": "E2",
          "midi": 40,
          "time": 65.60000000000049,
          "velocity": 0.3543307086614173,
          "duration": 0.19583333333333997
        },
        {
          "name": "E3",
          "midi": 52,
          "time": 65.8000000000005,
          "velocity": 0.8661417322834646,
          "duration": 0.19583333333332575
        },
        {
          "name": "G3",
          "midi": 55,
          "time": 65.8000000000005,
          "velocity": 0.8661417322834646,
          "duration": 0.19583333333332575
        },
        {
          "name": "A3",
          "midi": 57,
          "time": 65.8000000000005,
          "velocity": 0.8661417322834646,
          "duration": 0.19583333333332575
        },
        {
          "name": "C#4",
          "midi": 61,
          "time": 65.8000000000005,
          "velocity": 0.8661417322834646,
          "duration": 0.19583333333332575
        },
        {
          "name": "C#2",
          "midi": 37,
          "time": 65.8000000000005,
          "velocity": 0.3543307086614173,
          "duration": 0.19583333333332575
        },
        {
          "name": "E2",
          "midi": 40,
          "time": 65.8000000000005,
          "velocity": 0.3543307086614173,
          "duration": 0.19583333333332575
        },
        {
          "name": "F5",
          "midi": 77,
          "time": 66.00000000000048,
          "velocity": 0.8661417322834646,
          "duration": 1.09999999999998
        },
        {
          "name": "F3",
          "midi": 53,
          "time": 66.00000000000048,
          "velocity": 0.8661417322834646,
          "duration": 0.19583333333333997
        },
        {
          "name": "A3",
          "midi": 57,
          "time": 66.00000000000048,
          "velocity": 0.8661417322834646,
          "duration": 0.19583333333333997
        },
        {
          "name": "D4",
          "midi": 62,
          "time": 66.00000000000048,
          "velocity": 0.8661417322834646,
          "duration": 0.19583333333333997
        },
        {
          "name": "D2",
          "midi": 38,
          "time": 66.00000000000048,
          "velocity": 0.8661417322834646,
          "duration": 0.3333333333333286
        },
        {
          "name": "C#2",
          "midi": 37,
          "time": 66.00000000000048,
          "velocity": 0.3543307086614173,
          "duration": 0.19583333333333997
        },
        {
          "name": "E2",
          "midi": 40,
          "time": 66.00000000000048,
          "velocity": 0.3543307086614173,
          "duration": 0.19583333333333997
        },
        {
          "name": "A3",
          "midi": 57,
          "time": 66.20000000000049,
          "velocity": 0.8661417322834646,
          "duration": 0.09583333333333144
        },
        {
          "name": "D4",
          "midi": 62,
          "time": 66.20000000000049,
          "velocity": 0.8661417322834646,
          "duration": 0.09583333333333144
        },
        {
          "name": "F4",
          "midi": 65,
          "time": 66.20000000000049,
          "velocity": 0.8661417322834646,
          "duration": 0.09583333333333144
        },
        {
          "name": "D4",
          "midi": 62,
          "time": 66.20000000000049,
          "velocity": 0.8661417322834646,
          "duration": 0.19583333333332575
        },
        {
          "name": "F4",
          "midi": 65,
          "time": 66.20000000000049,
          "velocity": 0.8661417322834646,
          "duration": 0.19583333333332575
        },
        {
          "name": "A4",
          "midi": 69,
          "time": 66.20000000000049,
          "velocity": 0.8661417322834646,
          "duration": 0.3333333333333286
        },
        {
          "name": "C#2",
          "midi": 37,
          "time": 66.20000000000049,
          "velocity": 0.3543307086614173,
          "duration": 0.09583333333333144
        },
        {
          "name": "E2",
          "midi": 40,
          "time": 66.20000000000049,
          "velocity": 0.3543307086614173,
          "duration": 0.09583333333333144
        },
        {
          "name": "A3",
          "midi": 57,
          "time": 66.30000000000048,
          "velocity": 0.8661417322834646,
          "duration": 0.09583333333333144
        },
        {
          "name": "D4",
          "midi": 62,
          "time": 66.30000000000048,
          "velocity": 0.8661417322834646,
          "duration": 0.23333333333333428
        },
        {
          "name": "F4",
          "midi": 65,
          "time": 66.30000000000048,
          "velocity": 0.8661417322834646,
          "duration": 0.23333333333333428
        },
        {
          "name": "C#2",
          "midi": 37,
          "time": 66.30000000000048,
          "velocity": 0.3543307086614173,
          "duration": 0.09583333333333144
        },
        {
          "name": "E2",
          "midi": 40,
          "time": 66.30000000000048,
          "velocity": 0.3543307086614173,
          "duration": 0.09583333333333144
        },
        {
          "name": "A3",
          "midi": 57,
          "time": 66.40000000000047,
          "velocity": 0.8661417322834646,
          "duration": 0.19583333333333997
        },
        {
          "name": "D4",
          "midi": 62,
          "time": 66.40000000000047,
          "velocity": 0.8661417322834646,
          "duration": 0.19583333333333997
        },
        {
          "name": "F4",
          "midi": 65,
          "time": 66.40000000000047,
          "velocity": 0.8661417322834646,
          "duration": 0.19583333333333997
        },
        {
          "name": "C#2",
          "midi": 37,
          "time": 66.40000000000047,
          "velocity": 0.3543307086614173,
          "duration": 0.19583333333333997
        },
        {
          "name": "E2",
          "midi": 40,
          "time": 66.40000000000047,
          "velocity": 0.3543307086614173,
          "duration": 0.19583333333333997
        },
        {
          "name": "A3",
          "midi": 57,
          "time": 66.60000000000048,
          "velocity": 0.8661417322834646,
          "duration": 0.19583333333332575
        },
        {
          "name": "D4",
          "midi": 62,
          "time": 66.60000000000048,
          "velocity": 0.8661417322834646,
          "duration": 0.09583333333333144
        },
        {
          "name": "F4",
          "midi": 65,
          "time": 66.60000000000048,
          "velocity": 0.8661417322834646,
          "duration": 0.09583333333333144
        },
        {
          "name": "D4",
          "midi": 62,
          "time": 66.60000000000048,
          "velocity": 0.8661417322834646,
          "duration": 0.19583333333332575
        },
        {
          "name": "F4",
          "midi": 65,
          "time": 66.60000000000048,
          "velocity": 0.8661417322834646,
          "duration": 0.19583333333332575
        },
        {
          "name": "A4",
          "midi": 69,
          "time": 66.60000000000048,
          "velocity": 0.8661417322834646,
          "duration": 0.09583333333333144
        },
        {
          "name": "C#2",
          "midi": 37,
          "time": 66.60000000000048,
          "velocity": 0.3543307086614173,
          "duration": 0.19583333333332575
        },
        {
          "name": "E2",
          "midi": 40,
          "time": 66.60000000000048,
          "velocity": 0.3543307086614173,
          "duration": 0.19583333333332575
        },
        {
          "name": "D4",
          "midi": 62,
          "time": 66.70000000000047,
          "velocity": 0.8661417322834646,
          "duration": 0.09583333333333144
        },
        {
          "name": "F4",
          "midi": 65,
          "time": 66.70000000000047,
          "velocity": 0.8661417322834646,
          "duration": 0.09583333333333144
        },
        {
          "name": "A4",
          "midi": 69,
          "time": 66.70000000000047,
          "velocity": 0.8661417322834646,
          "duration": 0.09583333333333144
        },
        {
          "name": "A3",
          "midi": 57,
          "time": 66.80000000000047,
          "velocity": 0.8661417322834646,
          "duration": 0.19583333333333997
        },
        {
          "name": "D4",
          "midi": 62,
          "time": 66.80000000000047,
          "velocity": 0.8661417322834646,
          "duration": 0.19583333333333997
        },
        {
          "name": "F4",
          "midi": 65,
          "time": 66.80000000000047,
          "velocity": 0.8661417322834646,
          "duration": 0.19583333333333997
        },
        {
          "name": "A1",
          "midi": 33,
          "time": 66.80000000000047,
          "velocity": 0.8661417322834646,
          "duration": 0.3333333333333286
        },
        {
          "name": "D4",
          "midi": 62,
          "time": 66.80000000000047,
          "velocity": 0.8661417322834646,
          "duration": 0.19583333333333997
        },
        {
          "name": "F4",
          "midi": 65,
          "time": 66.80000000000047,
          "velocity": 0.8661417322834646,
          "duration": 0.19583333333333997
        },
        {
          "name": "A4",
          "midi": 69,
          "time": 66.80000000000047,
          "velocity": 0.8661417322834646,
          "duration": 0.19583333333333997
        },
        {
          "name": "C#2",
          "midi": 37,
          "time": 66.80000000000047,
          "velocity": 0.3543307086614173,
          "duration": 0.19583333333333997
        },
        {
          "name": "E2",
          "midi": 40,
          "time": 66.80000000000047,
          "velocity": 0.3543307086614173,
          "duration": 0.19583333333333997
        },
        {
          "name": "A3",
          "midi": 57,
          "time": 67.00000000000047,
          "velocity": 0.8661417322834646,
          "duration": 0.19583333333332575
        },
        {
          "name": "D4",
          "midi": 62,
          "time": 67.00000000000047,
          "velocity": 0.8661417322834646,
          "duration": 0.19583333333332575
        },
        {
          "name": "F4",
          "midi": 65,
          "time": 67.00000000000047,
          "velocity": 0.8661417322834646,
          "duration": 0.19583333333332575
        },
        {
          "name": "C#2",
          "midi": 37,
          "time": 67.00000000000047,
          "velocity": 0.3543307086614173,
          "duration": 0.19583333333332575
        },
        {
          "name": "E2",
          "midi": 40,
          "time": 67.00000000000047,
          "velocity": 0.3543307086614173,
          "duration": 0.19583333333332575
        },
        {
          "name": "F5",
          "midi": 77,
          "time": 67.20000000000046,
          "velocity": 0.8661417322834646,
          "duration": 0.3333333333333286
        },
        {
          "name": "A3",
          "midi": 57,
          "time": 67.20000000000046,
          "velocity": 0.8661417322834646,
          "duration": 0.19583333333333997
        },
        {
          "name": "D4",
          "midi": 62,
          "time": 67.20000000000046,
          "velocity": 0.8661417322834646,
          "duration": 0.19583333333333997
        },
        {
          "name": "F4",
          "midi": 65,
          "time": 67.20000000000046,
          "velocity": 0.8661417322834646,
          "duration": 0.19583333333333997
        },
        {
          "name": "D2",
          "midi": 38,
          "time": 67.20000000000046,
          "velocity": 0.8661417322834646,
          "duration": 0.3333333333333286
        },
        {
          "name": "C#2",
          "midi": 37,
          "time": 67.20000000000046,
          "velocity": 0.3543307086614173,
          "duration": 0.19583333333333997
        },
        {
          "name": "E2",
          "midi": 40,
          "time": 67.20000000000046,
          "velocity": 0.3543307086614173,
          "duration": 0.19583333333333997
        },
        {
          "name": "A3",
          "midi": 57,
          "time": 67.40000000000046,
          "velocity": 0.8661417322834646,
          "duration": 0.09583333333333144
        },
        {
          "name": "D4",
          "midi": 62,
          "time": 67.40000000000046,
          "velocity": 0.8661417322834646,
          "duration": 0.09583333333333144
        },
        {
          "name": "F4",
          "midi": 65,
          "time": 67.40000000000046,
          "velocity": 0.8661417322834646,
          "duration": 0.09583333333333144
        },
        {
          "name": "C#2",
          "midi": 37,
          "time": 67.40000000000046,
          "velocity": 0.3543307086614173,
          "duration": 0.09583333333333144
        },
        {
          "name": "E2",
          "midi": 40,
          "time": 67.40000000000046,
          "velocity": 0.3543307086614173,
          "duration": 0.09583333333333144
        },
        {
          "name": "A3",
          "midi": 57,
          "time": 67.50000000000045,
          "velocity": 0.8661417322834646,
          "duration": 0.09583333333333144
        },
        {
          "name": "D4",
          "midi": 62,
          "time": 67.50000000000045,
          "velocity": 0.8661417322834646,
          "duration": 0.09583333333333144
        },
        {
          "name": "F4",
          "midi": 65,
          "time": 67.50000000000045,
          "velocity": 0.8661417322834646,
          "duration": 0.09583333333333144
        },
        {
          "name": "C#2",
          "midi": 37,
          "time": 67.50000000000045,
          "velocity": 0.3543307086614173,
          "duration": 0.09583333333333144
        },
        {
          "name": "E2",
          "midi": 40,
          "time": 67.50000000000045,
          "velocity": 0.3543307086614173,
          "duration": 0.09583333333333144
        },
        {
          "name": "G5",
          "midi": 79,
          "time": 67.60000000000045,
          "velocity": 0.8661417322834646,
          "duration": 0.5333333333333456
        },
        {
          "name": "A3",
          "midi": 57,
          "time": 67.60000000000045,
          "velocity": 0.8661417322834646,
          "duration": 0.19583333333333997
        },
        {
          "name": "C4",
          "midi": 60,
          "time": 67.60000000000045,
          "velocity": 0.8661417322834646,
          "duration": 0.19583333333333997
        },
        {
          "name": "E4",
          "midi": 64,
          "time": 67.60000000000045,
          "velocity": 0.8661417322834646,
          "duration": 0.19583333333333997
        },
        {
          "name": "C#2",
          "midi": 37,
          "time": 67.60000000000045,
          "velocity": 0.3543307086614173,
          "duration": 0.19583333333333997
        },
        {
          "name": "E2",
          "midi": 40,
          "time": 67.60000000000045,
          "velocity": 0.3543307086614173,
          "duration": 0.19583333333333997
        },
        {
          "name": "A3",
          "midi": 57,
          "time": 67.80000000000045,
          "velocity": 0.8661417322834646,
          "duration": 0.19583333333333997
        },
        {
          "name": "C4",
          "midi": 60,
          "time": 67.80000000000045,
          "velocity": 0.8661417322834646,
          "duration": 0.19583333333333997
        },
        {
          "name": "E4",
          "midi": 64,
          "time": 67.80000000000045,
          "velocity": 0.8661417322834646,
          "duration": 0.19583333333333997
        },
        {
          "name": "C#2",
          "midi": 37,
          "time": 67.80000000000045,
          "velocity": 0.3543307086614173,
          "duration": 0.19583333333333997
        },
        {
          "name": "E2",
          "midi": 40,
          "time": 67.80000000000045,
          "velocity": 0.3543307086614173,
          "duration": 0.19583333333333997
        },
        {
          "name": "A3",
          "midi": 57,
          "time": 68.00000000000045,
          "velocity": 0.8661417322834646,
          "duration": 0.19583333333333997
        },
        {
          "name": "C4",
          "midi": 60,
          "time": 68.00000000000045,
          "velocity": 0.8661417322834646,
          "duration": 0.19583333333333997
        },
        {
          "name": "E4",
          "midi": 64,
          "time": 68.00000000000045,
          "velocity": 0.8661417322834646,
          "duration": 0.19583333333333997
        },
        {
          "name": "A2",
          "midi": 45,
          "time": 68.00000000000045,
          "velocity": 0.8661417322834646,
          "duration": 0.3333333333333428
        },
        {
          "name": "C#2",
          "midi": 37,
          "time": 68.00000000000045,
          "velocity": 0.3543307086614173,
          "duration": 0.19583333333333997
        },
        {
          "name": "E2",
          "midi": 40,
          "time": 68.00000000000045,
          "velocity": 0.3543307086614173,
          "duration": 0.19583333333333997
        },
        {
          "name": "E5",
          "midi": 76,
          "time": 68.20000000000046,
          "velocity": 0.8661417322834646,
          "duration": 0.19583333333333997
        },
        {
          "name": "A3",
          "midi": 57,
          "time": 68.20000000000046,
          "velocity": 0.8661417322834646,
          "duration": 0.19583333333333997
        },
        {
          "name": "C4",
          "midi": 60,
          "time": 68.20000000000046,
          "velocity": 0.8661417322834646,
          "duration": 0.19583333333333997
        },
        {
          "name": "E4",
          "midi": 64,
          "time": 68.20000000000046,
          "velocity": 0.8661417322834646,
          "duration": 0.19583333333333997
        },
        {
          "name": "C#2",
          "midi": 37,
          "time": 68.20000000000046,
          "velocity": 0.3543307086614173,
          "duration": 0.19583333333333997
        },
        {
          "name": "E2",
          "midi": 40,
          "time": 68.20000000000046,
          "velocity": 0.3543307086614173,
          "duration": 0.19583333333333997
        },
        {
          "name": "F5",
          "midi": 77,
          "time": 68.40000000000046,
          "velocity": 0.8661417322834646,
          "duration": 1.09999999999998
        },
        {
          "name": "F3",
          "midi": 53,
          "time": 68.40000000000046,
          "velocity": 0.8661417322834646,
          "duration": 0.19583333333333997
        },
        {
          "name": "A3",
          "midi": 57,
          "time": 68.40000000000046,
          "velocity": 0.8661417322834646,
          "duration": 0.19583333333333997
        },
        {
          "name": "D4",
          "midi": 62,
          "time": 68.40000000000046,
          "velocity": 0.8661417322834646,
          "duration": 0.19583333333333997
        },
        {
          "name": "D2",
          "midi": 38,
          "time": 68.40000000000046,
          "velocity": 0.8661417322834646,
          "duration": 0.3333333333333286
        },
        {
          "name": "C#2",
          "midi": 37,
          "time": 68.40000000000046,
          "velocity": 0.3543307086614173,
          "duration": 0.19583333333333997
        },
        {
          "name": "E2",
          "midi": 40,
          "time": 68.40000000000046,
          "velocity": 0.3543307086614173,
          "duration": 0.19583333333333997
        },
        {
          "name": "A3",
          "midi": 57,
          "time": 68.60000000000046,
          "velocity": 0.8661417322834646,
          "duration": 0.09583333333333144
        },
        {
          "name": "D4",
          "midi": 62,
          "time": 68.60000000000046,
          "velocity": 0.8661417322834646,
          "duration": 0.09583333333333144
        },
        {
          "name": "F4",
          "midi": 65,
          "time": 68.60000000000046,
          "velocity": 0.8661417322834646,
          "duration": 0.09583333333333144
        },
        {
          "name": "D4",
          "midi": 62,
          "time": 68.60000000000046,
          "velocity": 0.8661417322834646,
          "duration": 0.19583333333332575
        },
        {
          "name": "F4",
          "midi": 65,
          "time": 68.60000000000046,
          "velocity": 0.8661417322834646,
          "duration": 0.19583333333332575
        },
        {
          "name": "A4",
          "midi": 69,
          "time": 68.60000000000046,
          "velocity": 0.8661417322834646,
          "duration": 0.3333333333333286
        },
        {
          "name": "C#2",
          "midi": 37,
          "time": 68.60000000000046,
          "velocity": 0.3543307086614173,
          "duration": 0.09583333333333144
        },
        {
          "name": "E2",
          "midi": 40,
          "time": 68.60000000000046,
          "velocity": 0.3543307086614173,
          "duration": 0.09583333333333144
        },
        {
          "name": "A3",
          "midi": 57,
          "time": 68.70000000000046,
          "velocity": 0.8661417322834646,
          "duration": 0.09583333333333144
        },
        {
          "name": "D4",
          "midi": 62,
          "time": 68.70000000000046,
          "velocity": 0.8661417322834646,
          "duration": 0.23333333333333428
        },
        {
          "name": "F4",
          "midi": 65,
          "time": 68.70000000000046,
          "velocity": 0.8661417322834646,
          "duration": 0.23333333333333428
        },
        {
          "name": "C#2",
          "midi": 37,
          "time": 68.70000000000046,
          "velocity": 0.3543307086614173,
          "duration": 0.09583333333333144
        },
        {
          "name": "E2",
          "midi": 40,
          "time": 68.70000000000046,
          "velocity": 0.3543307086614173,
          "duration": 0.09583333333333144
        },
        {
          "name": "A3",
          "midi": 57,
          "time": 68.80000000000045,
          "velocity": 0.8661417322834646,
          "duration": 0.19583333333333997
        },
        {
          "name": "D4",
          "midi": 62,
          "time": 68.80000000000045,
          "velocity": 0.8661417322834646,
          "duration": 0.19583333333333997
        },
        {
          "name": "F4",
          "midi": 65,
          "time": 68.80000000000045,
          "velocity": 0.8661417322834646,
          "duration": 0.19583333333333997
        },
        {
          "name": "C#2",
          "midi": 37,
          "time": 68.80000000000045,
          "velocity": 0.3543307086614173,
          "duration": 0.19583333333333997
        },
        {
          "name": "E2",
          "midi": 40,
          "time": 68.80000000000045,
          "velocity": 0.3543307086614173,
          "duration": 0.19583333333333997
        },
        {
          "name": "A3",
          "midi": 57,
          "time": 69.00000000000045,
          "velocity": 0.8661417322834646,
          "duration": 0.19583333333332575
        },
        {
          "name": "D4",
          "midi": 62,
          "time": 69.00000000000045,
          "velocity": 0.8661417322834646,
          "duration": 0.09583333333333144
        },
        {
          "name": "F4",
          "midi": 65,
          "time": 69.00000000000045,
          "velocity": 0.8661417322834646,
          "duration": 0.09583333333333144
        },
        {
          "name": "D4",
          "midi": 62,
          "time": 69.00000000000045,
          "velocity": 0.8661417322834646,
          "duration": 0.19583333333332575
        },
        {
          "name": "F4",
          "midi": 65,
          "time": 69.00000000000045,
          "velocity": 0.8661417322834646,
          "duration": 0.19583333333332575
        },
        {
          "name": "A4",
          "midi": 69,
          "time": 69.00000000000045,
          "velocity": 0.8661417322834646,
          "duration": 0.09583333333333144
        },
        {
          "name": "C#2",
          "midi": 37,
          "time": 69.00000000000045,
          "velocity": 0.3543307086614173,
          "duration": 0.19583333333332575
        },
        {
          "name": "E2",
          "midi": 40,
          "time": 69.00000000000045,
          "velocity": 0.3543307086614173,
          "duration": 0.19583333333332575
        },
        {
          "name": "D4",
          "midi": 62,
          "time": 69.10000000000045,
          "velocity": 0.8661417322834646,
          "duration": 0.09583333333333144
        },
        {
          "name": "F4",
          "midi": 65,
          "time": 69.10000000000045,
          "velocity": 0.8661417322834646,
          "duration": 0.09583333333333144
        },
        {
          "name": "A4",
          "midi": 69,
          "time": 69.10000000000045,
          "velocity": 0.8661417322834646,
          "duration": 0.09583333333333144
        },
        {
          "name": "A3",
          "midi": 57,
          "time": 69.20000000000044,
          "velocity": 0.8661417322834646,
          "duration": 0.19583333333333997
        },
        {
          "name": "D4",
          "midi": 62,
          "time": 69.20000000000044,
          "velocity": 0.8661417322834646,
          "duration": 0.19583333333333997
        },
        {
          "name": "F4",
          "midi": 65,
          "time": 69.20000000000044,
          "velocity": 0.8661417322834646,
          "duration": 0.19583333333333997
        },
        {
          "name": "A1",
          "midi": 33,
          "time": 69.20000000000044,
          "velocity": 0.8661417322834646,
          "duration": 0.3333333333333286
        },
        {
          "name": "D4",
          "midi": 62,
          "time": 69.20000000000044,
          "velocity": 0.8661417322834646,
          "duration": 0.19583333333333997
        },
        {
          "name": "F4",
          "midi": 65,
          "time": 69.20000000000044,
          "velocity": 0.8661417322834646,
          "duration": 0.19583333333333997
        },
        {
          "name": "A4",
          "midi": 69,
          "time": 69.20000000000044,
          "velocity": 0.8661417322834646,
          "duration": 0.19583333333333997
        },
        {
          "name": "C#2",
          "midi": 37,
          "time": 69.20000000000044,
          "velocity": 0.3543307086614173,
          "duration": 0.19583333333333997
        },
        {
          "name": "E2",
          "midi": 40,
          "time": 69.20000000000044,
          "velocity": 0.3543307086614173,
          "duration": 0.19583333333333997
        },
        {
          "name": "A3",
          "midi": 57,
          "time": 69.40000000000045,
          "velocity": 0.8661417322834646,
          "duration": 0.19583333333332575
        },
        {
          "name": "D4",
          "midi": 62,
          "time": 69.40000000000045,
          "velocity": 0.8661417322834646,
          "duration": 0.19583333333332575
        },
        {
          "name": "F4",
          "midi": 65,
          "time": 69.40000000000045,
          "velocity": 0.8661417322834646,
          "duration": 0.19583333333332575
        },
        {
          "name": "C#2",
          "midi": 37,
          "time": 69.40000000000045,
          "velocity": 0.3543307086614173,
          "duration": 0.19583333333332575
        },
        {
          "name": "E2",
          "midi": 40,
          "time": 69.40000000000045,
          "velocity": 0.3543307086614173,
          "duration": 0.19583333333332575
        },
        {
          "name": "F5",
          "midi": 77,
          "time": 69.60000000000043,
          "velocity": 0.8661417322834646,
          "duration": 0.3333333333333286
        },
        {
          "name": "A3",
          "midi": 57,
          "time": 69.60000000000043,
          "velocity": 0.8661417322834646,
          "duration": 0.19583333333333997
        },
        {
          "name": "D4",
          "midi": 62,
          "time": 69.60000000000043,
          "velocity": 0.8661417322834646,
          "duration": 0.19583333333333997
        },
        {
          "name": "F4",
          "midi": 65,
          "time": 69.60000000000043,
          "velocity": 0.8661417322834646,
          "duration": 0.19583333333333997
        },
        {
          "name": "D2",
          "midi": 38,
          "time": 69.60000000000043,
          "velocity": 0.8661417322834646,
          "duration": 0.3333333333333286
        },
        {
          "name": "C#2",
          "midi": 37,
          "time": 69.60000000000043,
          "velocity": 0.3543307086614173,
          "duration": 0.19583333333333997
        },
        {
          "name": "E2",
          "midi": 40,
          "time": 69.60000000000043,
          "velocity": 0.3543307086614173,
          "duration": 0.19583333333333997
        },
        {
          "name": "A3",
          "midi": 57,
          "time": 69.80000000000044,
          "velocity": 0.8661417322834646,
          "duration": 0.09583333333333144
        },
        {
          "name": "D4",
          "midi": 62,
          "time": 69.80000000000044,
          "velocity": 0.8661417322834646,
          "duration": 0.09583333333333144
        },
        {
          "name": "F4",
          "midi": 65,
          "time": 69.80000000000044,
          "velocity": 0.8661417322834646,
          "duration": 0.09583333333333144
        },
        {
          "name": "C#2",
          "midi": 37,
          "time": 69.80000000000044,
          "velocity": 0.3543307086614173,
          "duration": 0.09583333333333144
        },
        {
          "name": "E2",
          "midi": 40,
          "time": 69.80000000000044,
          "velocity": 0.3543307086614173,
          "duration": 0.09583333333333144
        },
        {
          "name": "A3",
          "midi": 57,
          "time": 69.90000000000043,
          "velocity": 0.8661417322834646,
          "duration": 0.09583333333333144
        },
        {
          "name": "D4",
          "midi": 62,
          "time": 69.90000000000043,
          "velocity": 0.8661417322834646,
          "duration": 0.09583333333333144
        },
        {
          "name": "F4",
          "midi": 65,
          "time": 69.90000000000043,
          "velocity": 0.8661417322834646,
          "duration": 0.09583333333333144
        },
        {
          "name": "C#2",
          "midi": 37,
          "time": 69.90000000000043,
          "velocity": 0.3543307086614173,
          "duration": 0.09583333333333144
        },
        {
          "name": "E2",
          "midi": 40,
          "time": 69.90000000000043,
          "velocity": 0.3543307086614173,
          "duration": 0.09583333333333144
        },
        {
          "name": "G5",
          "midi": 79,
          "time": 70.00000000000043,
          "velocity": 0.8661417322834646,
          "duration": 0.7000000000000028
        },
        {
          "name": "A3",
          "midi": 57,
          "time": 70.00000000000043,
          "velocity": 0.8661417322834646,
          "duration": 0.19583333333333997
        },
        {
          "name": "C4",
          "midi": 60,
          "time": 70.00000000000043,
          "velocity": 0.8661417322834646,
          "duration": 0.19583333333333997
        },
        {
          "name": "E4",
          "midi": 64,
          "time": 70.00000000000043,
          "velocity": 0.8661417322834646,
          "duration": 0.19583333333333997
        },
        {
          "name": "C#2",
          "midi": 37,
          "time": 70.00000000000043,
          "velocity": 0.3543307086614173,
          "duration": 0.19583333333333997
        },
        {
          "name": "E2",
          "midi": 40,
          "time": 70.00000000000043,
          "velocity": 0.3543307086614173,
          "duration": 0.19583333333333997
        },
        {
          "name": "A3",
          "midi": 57,
          "time": 70.20000000000043,
          "velocity": 0.8661417322834646,
          "duration": 0.19583333333333997
        },
        {
          "name": "C4",
          "midi": 60,
          "time": 70.20000000000043,
          "velocity": 0.8661417322834646,
          "duration": 0.19583333333333997
        },
        {
          "name": "E4",
          "midi": 64,
          "time": 70.20000000000043,
          "velocity": 0.8661417322834646,
          "duration": 0.19583333333333997
        },
        {
          "name": "C#2",
          "midi": 37,
          "time": 70.20000000000043,
          "velocity": 0.3543307086614173,
          "duration": 0.19583333333333997
        },
        {
          "name": "E2",
          "midi": 40,
          "time": 70.20000000000043,
          "velocity": 0.3543307086614173,
          "duration": 0.19583333333333997
        },
        {
          "name": "A3",
          "midi": 57,
          "time": 70.40000000000043,
          "velocity": 0.8661417322834646,
          "duration": 0.19583333333333997
        },
        {
          "name": "C4",
          "midi": 60,
          "time": 70.40000000000043,
          "velocity": 0.8661417322834646,
          "duration": 0.19583333333333997
        },
        {
          "name": "E4",
          "midi": 64,
          "time": 70.40000000000043,
          "velocity": 0.8661417322834646,
          "duration": 0.19583333333333997
        },
        {
          "name": "A2",
          "midi": 45,
          "time": 70.40000000000043,
          "velocity": 0.8661417322834646,
          "duration": 0.3333333333333286
        },
        {
          "name": "C#2",
          "midi": 37,
          "time": 70.40000000000043,
          "velocity": 0.3543307086614173,
          "duration": 0.19583333333333997
        },
        {
          "name": "E2",
          "midi": 40,
          "time": 70.40000000000043,
          "velocity": 0.3543307086614173,
          "duration": 0.19583333333333997
        },
        {
          "name": "A3",
          "midi": 57,
          "time": 70.60000000000043,
          "velocity": 0.8661417322834646,
          "duration": 0.19583333333332575
        },
        {
          "name": "C4",
          "midi": 60,
          "time": 70.60000000000043,
          "velocity": 0.8661417322834646,
          "duration": 0.19583333333332575
        },
        {
          "name": "E4",
          "midi": 64,
          "time": 70.60000000000043,
          "velocity": 0.8661417322834646,
          "duration": 0.19583333333332575
        },
        {
          "name": "C#2",
          "midi": 37,
          "time": 70.60000000000043,
          "velocity": 0.3543307086614173,
          "duration": 0.19583333333332575
        },
        {
          "name": "E2",
          "midi": 40,
          "time": 70.60000000000043,
          "velocity": 0.3543307086614173,
          "duration": 0.19583333333332575
        },
        {
          "name": "F5",
          "midi": 77,
          "time": 70.80000000000042,
          "velocity": 0.8661417322834646,
          "duration": 0.6999999999999886
        },
        {
          "name": "A3",
          "midi": 57,
          "time": 70.80000000000042,
          "velocity": 0.8661417322834646,
          "duration": 0.19583333333333997
        },
        {
          "name": "D4",
          "midi": 62,
          "time": 70.80000000000042,
          "velocity": 0.8661417322834646,
          "duration": 0.19583333333333997
        },
        {
          "name": "F4",
          "midi": 65,
          "time": 70.80000000000042,
          "velocity": 0.8661417322834646,
          "duration": 0.19583333333333997
        },
        {
          "name": "D3",
          "midi": 50,
          "time": 70.80000000000042,
          "velocity": 0.8661417322834646,
          "duration": 0.3333333333333286
        },
        {
          "name": "C#2",
          "midi": 37,
          "time": 70.80000000000042,
          "velocity": 0.3543307086614173,
          "duration": 0.19583333333333997
        },
        {
          "name": "E2",
          "midi": 40,
          "time": 70.80000000000042,
          "velocity": 0.3543307086614173,
          "duration": 0.19583333333333997
        },
        {
          "name": "A3",
          "midi": 57,
          "time": 71.00000000000043,
          "velocity": 0.8661417322834646,
          "duration": 0.09583333333333144
        },
        {
          "name": "D4",
          "midi": 62,
          "time": 71.00000000000043,
          "velocity": 0.8661417322834646,
          "duration": 0.09583333333333144
        },
        {
          "name": "F4",
          "midi": 65,
          "time": 71.00000000000043,
          "velocity": 0.8661417322834646,
          "duration": 0.09583333333333144
        },
        {
          "name": "C#2",
          "midi": 37,
          "time": 71.00000000000043,
          "velocity": 0.3543307086614173,
          "duration": 0.09583333333333144
        },
        {
          "name": "E2",
          "midi": 40,
          "time": 71.00000000000043,
          "velocity": 0.3543307086614173,
          "duration": 0.09583333333333144
        },
        {
          "name": "A3",
          "midi": 57,
          "time": 71.10000000000042,
          "velocity": 0.8661417322834646,
          "duration": 0.09583333333333144
        },
        {
          "name": "D4",
          "midi": 62,
          "time": 71.10000000000042,
          "velocity": 0.8661417322834646,
          "duration": 0.09583333333333144
        },
        {
          "name": "F4",
          "midi": 65,
          "time": 71.10000000000042,
          "velocity": 0.8661417322834646,
          "duration": 0.09583333333333144
        },
        {
          "name": "C#2",
          "midi": 37,
          "time": 71.10000000000042,
          "velocity": 0.3543307086614173,
          "duration": 0.09583333333333144
        },
        {
          "name": "E2",
          "midi": 40,
          "time": 71.10000000000042,
          "velocity": 0.3543307086614173,
          "duration": 0.09583333333333144
        },
        {
          "name": "F3",
          "midi": 53,
          "time": 71.20000000000041,
          "velocity": 0.8661417322834646,
          "duration": 0.19583333333333997
        },
        {
          "name": "A3",
          "midi": 57,
          "time": 71.20000000000041,
          "velocity": 0.8661417322834646,
          "duration": 0.19583333333333997
        },
        {
          "name": "D4",
          "midi": 62,
          "time": 71.20000000000041,
          "velocity": 0.8661417322834646,
          "duration": 0.3333333333333286
        },
        {
          "name": "C#2",
          "midi": 37,
          "time": 71.20000000000041,
          "velocity": 0.3543307086614173,
          "duration": 0.19583333333333997
        },
        {
          "name": "E2",
          "midi": 40,
          "time": 71.20000000000041,
          "velocity": 0.3543307086614173,
          "duration": 0.19583333333333997
        },
        {
          "name": "F3",
          "midi": 53,
          "time": 71.40000000000042,
          "velocity": 0.8661417322834646,
          "duration": 0.19583333333332575
        },
        {
          "name": "A3",
          "midi": 57,
          "time": 71.40000000000042,
          "velocity": 0.8661417322834646,
          "duration": 0.19583333333332575
        },
        {
          "name": "C#2",
          "midi": 37,
          "time": 71.40000000000042,
          "velocity": 0.3543307086614173,
          "duration": 0.19583333333332575
        },
        {
          "name": "E2",
          "midi": 40,
          "time": 71.40000000000042,
          "velocity": 0.3543307086614173,
          "duration": 0.19583333333332575
        },
        {
          "name": "E5",
          "midi": 76,
          "time": 71.6000000000004,
          "velocity": 0.8661417322834646,
          "duration": 0.3333333333333428
        },
        {
          "name": "G3",
          "midi": 55,
          "time": 71.6000000000004,
          "velocity": 0.8661417322834646,
          "duration": 0.19583333333333997
        },
        {
          "name": "A#3",
          "midi": 58,
          "time": 71.6000000000004,
          "velocity": 0.8661417322834646,
          "duration": 0.19583333333333997
        },
        {
          "name": "C3",
          "midi": 48,
          "time": 71.6000000000004,
          "velocity": 0.8661417322834646,
          "duration": 0.3333333333333428
        },
        {
          "name": "E4",
          "midi": 64,
          "time": 71.6000000000004,
          "velocity": 0.8661417322834646,
          "duration": 0.3333333333333428
        },
        {
          "name": "C#2",
          "midi": 37,
          "time": 71.6000000000004,
          "velocity": 0.3543307086614173,
          "duration": 0.19583333333333997
        },
        {
          "name": "E2",
          "midi": 40,
          "time": 71.6000000000004,
          "velocity": 0.3543307086614173,
          "duration": 0.19583333333333997
        },
        {
          "name": "G3",
          "midi": 55,
          "time": 71.80000000000041,
          "velocity": 0.8661417322834646,
          "duration": 0.19583333333333997
        },
        {
          "name": "A#3",
          "midi": 58,
          "time": 71.80000000000041,
          "velocity": 0.8661417322834646,
          "duration": 0.19583333333333997
        },
        {
          "name": "C#2",
          "midi": 37,
          "time": 71.80000000000041,
          "velocity": 0.3543307086614173,
          "duration": 0.19583333333333997
        },
        {
          "name": "E2",
          "midi": 40,
          "time": 71.80000000000041,
          "velocity": 0.3543307086614173,
          "duration": 0.19583333333333997
        },
        {
          "name": "F5",
          "midi": 77,
          "time": 72.00000000000041,
          "velocity": 0.8661417322834646,
          "duration": 0.3333333333333286
        },
        {
          "name": "A3",
          "midi": 57,
          "time": 72.00000000000041,
          "velocity": 0.8661417322834646,
          "duration": 0.19583333333333997
        },
        {
          "name": "C4",
          "midi": 60,
          "time": 72.00000000000041,
          "velocity": 0.8661417322834646,
          "duration": 0.19583333333333997
        },
        {
          "name": "F3",
          "midi": 53,
          "time": 72.00000000000041,
          "velocity": 0.8661417322834646,
          "duration": 0.3333333333333286
        },
        {
          "name": "F4",
          "midi": 65,
          "time": 72.00000000000041,
          "velocity": 0.8661417322834646,
          "duration": 0.9958333333333371
        },
        {
          "name": "C#2",
          "midi": 37,
          "time": 72.00000000000041,
          "velocity": 0.3543307086614173,
          "duration": 0.19583333333333997
        },
        {
          "name": "E2",
          "midi": 40,
          "time": 72.00000000000041,
          "velocity": 0.3543307086614173,
          "duration": 0.19583333333333997
        },
        {
          "name": "A3",
          "midi": 57,
          "time": 72.20000000000041,
          "velocity": 0.8661417322834646,
          "duration": 0.09583333333333144
        },
        {
          "name": "C4",
          "midi": 60,
          "time": 72.20000000000041,
          "velocity": 0.8661417322834646,
          "duration": 0.09583333333333144
        },
        {
          "name": "C#2",
          "midi": 37,
          "time": 72.20000000000041,
          "velocity": 0.3543307086614173,
          "duration": 0.09583333333333144
        },
        {
          "name": "E2",
          "midi": 40,
          "time": 72.20000000000041,
          "velocity": 0.3543307086614173,
          "duration": 0.09583333333333144
        },
        {
          "name": "A3",
          "midi": 57,
          "time": 72.30000000000041,
          "velocity": 0.8661417322834646,
          "duration": 0.09583333333333144
        },
        {
          "name": "C4",
          "midi": 60,
          "time": 72.30000000000041,
          "velocity": 0.8661417322834646,
          "duration": 0.09583333333333144
        },
        {
          "name": "C#2",
          "midi": 37,
          "time": 72.30000000000041,
          "velocity": 0.3543307086614173,
          "duration": 0.09583333333333144
        },
        {
          "name": "E2",
          "midi": 40,
          "time": 72.30000000000041,
          "velocity": 0.3543307086614173,
          "duration": 0.09583333333333144
        },
        {
          "name": "C5",
          "midi": 72,
          "time": 72.4000000000004,
          "velocity": 0.8661417322834646,
          "duration": 0.7000000000000028
        },
        {
          "name": "A3",
          "midi": 57,
          "time": 72.4000000000004,
          "velocity": 0.8661417322834646,
          "duration": 0.19583333333333997
        },
        {
          "name": "C4",
          "midi": 60,
          "time": 72.4000000000004,
          "velocity": 0.8661417322834646,
          "duration": 0.19583333333333997
        },
        {
          "name": "C#2",
          "midi": 37,
          "time": 72.4000000000004,
          "velocity": 0.3543307086614173,
          "duration": 0.19583333333333997
        },
        {
          "name": "E2",
          "midi": 40,
          "time": 72.4000000000004,
          "velocity": 0.3543307086614173,
          "duration": 0.19583333333333997
        },
        {
          "name": "A3",
          "midi": 57,
          "time": 72.6000000000004,
          "velocity": 0.8661417322834646,
          "duration": 0.19583333333333997
        },
        {
          "name": "C4",
          "midi": 60,
          "time": 72.6000000000004,
          "velocity": 0.8661417322834646,
          "duration": 0.19583333333333997
        },
        {
          "name": "C#2",
          "midi": 37,
          "time": 72.6000000000004,
          "velocity": 0.3543307086614173,
          "duration": 0.19583333333333997
        },
        {
          "name": "E2",
          "midi": 40,
          "time": 72.6000000000004,
          "velocity": 0.3543307086614173,
          "duration": 0.19583333333333997
        },
        {
          "name": "A3",
          "midi": 57,
          "time": 72.80000000000041,
          "velocity": 0.8661417322834646,
          "duration": 0.19583333333333997
        },
        {
          "name": "C4",
          "midi": 60,
          "time": 72.80000000000041,
          "velocity": 0.8661417322834646,
          "duration": 0.19583333333333997
        },
        {
          "name": "F3",
          "midi": 53,
          "time": 72.80000000000041,
          "velocity": 0.8661417322834646,
          "duration": 0.3333333333333286
        },
        {
          "name": "C#2",
          "midi": 37,
          "time": 72.80000000000041,
          "velocity": 0.3543307086614173,
          "duration": 0.19583333333333997
        },
        {
          "name": "E2",
          "midi": 40,
          "time": 72.80000000000041,
          "velocity": 0.3543307086614173,
          "duration": 0.19583333333333997
        },
        {
          "name": "A3",
          "midi": 57,
          "time": 73.00000000000041,
          "velocity": 0.8661417322834646,
          "duration": 0.19583333333332575
        },
        {
          "name": "C4",
          "midi": 60,
          "time": 73.00000000000041,
          "velocity": 0.8661417322834646,
          "duration": 0.19583333333332575
        },
        {
          "name": "G4",
          "midi": 67,
          "time": 73.00000000000041,
          "velocity": 0.8661417322834646,
          "duration": 0.09583333333333144
        },
        {
          "name": "C#2",
          "midi": 37,
          "time": 73.00000000000041,
          "velocity": 0.3543307086614173,
          "duration": 0.19583333333332575
        },
        {
          "name": "E2",
          "midi": 40,
          "time": 73.00000000000041,
          "velocity": 0.3543307086614173,
          "duration": 0.19583333333332575
        },
        {
          "name": "G#4",
          "midi": 68,
          "time": 73.1000000000004,
          "velocity": 0.8661417322834646,
          "duration": 0.09583333333333144
        },
        {
          "name": "A3",
          "midi": 57,
          "time": 73.2000000000004,
          "velocity": 0.8661417322834646,
          "duration": 0.19583333333333997
        },
        {
          "name": "D4",
          "midi": 62,
          "time": 73.2000000000004,
          "velocity": 0.8661417322834646,
          "duration": 0.19583333333333997
        },
        {
          "name": "F4",
          "midi": 65,
          "time": 73.2000000000004,
          "velocity": 0.8661417322834646,
          "duration": 0.19583333333333997
        },
        {
          "name": "D3",
          "midi": 50,
          "time": 73.2000000000004,
          "velocity": 0.8661417322834646,
          "duration": 0.3333333333333286
        },
        {
          "name": "A4",
          "midi": 69,
          "time": 73.2000000000004,
          "velocity": 0.8661417322834646,
          "duration": 0.19583333333333997
        },
        {
          "name": "C#2",
          "midi": 37,
          "time": 73.2000000000004,
          "velocity": 0.3543307086614173,
          "duration": 0.19583333333333997
        },
        {
          "name": "E2",
          "midi": 40,
          "time": 73.2000000000004,
          "velocity": 0.3543307086614173,
          "duration": 0.19583333333333997
        },
        {
          "name": "A3",
          "midi": 57,
          "time": 73.4000000000004,
          "velocity": 0.8661417322834646,
          "duration": 0.09583333333333144
        },
        {
          "name": "D4",
          "midi": 62,
          "time": 73.4000000000004,
          "velocity": 0.8661417322834646,
          "duration": 0.09583333333333144
        },
        {
          "name": "F4",
          "midi": 65,
          "time": 73.4000000000004,
          "velocity": 0.8661417322834646,
          "duration": 0.09583333333333144
        },
        {
          "name": "C#2",
          "midi": 37,
          "time": 73.4000000000004,
          "velocity": 0.3543307086614173,
          "duration": 0.09583333333333144
        },
        {
          "name": "E2",
          "midi": 40,
          "time": 73.4000000000004,
          "velocity": 0.3543307086614173,
          "duration": 0.09583333333333144
        },
        {
          "name": "A3",
          "midi": 57,
          "time": 73.5000000000004,
          "velocity": 0.8661417322834646,
          "duration": 0.09583333333333144
        },
        {
          "name": "D4",
          "midi": 62,
          "time": 73.5000000000004,
          "velocity": 0.8661417322834646,
          "duration": 0.09583333333333144
        },
        {
          "name": "F4",
          "midi": 65,
          "time": 73.5000000000004,
          "velocity": 0.8661417322834646,
          "duration": 0.09583333333333144
        },
        {
          "name": "C#2",
          "midi": 37,
          "time": 73.5000000000004,
          "velocity": 0.3543307086614173,
          "duration": 0.09583333333333144
        },
        {
          "name": "E2",
          "midi": 40,
          "time": 73.5000000000004,
          "velocity": 0.3543307086614173,
          "duration": 0.09583333333333144
        },
        {
          "name": "D5",
          "midi": 74,
          "time": 73.60000000000039,
          "velocity": 0.8661417322834646,
          "duration": 0.3333333333333428
        },
        {
          "name": "A3",
          "midi": 57,
          "time": 73.60000000000039,
          "velocity": 0.8661417322834646,
          "duration": 0.19583333333333997
        },
        {
          "name": "D4",
          "midi": 62,
          "time": 73.60000000000039,
          "velocity": 0.8661417322834646,
          "duration": 0.19583333333333997
        },
        {
          "name": "F4",
          "midi": 65,
          "time": 73.60000000000039,
          "velocity": 0.8661417322834646,
          "duration": 0.19583333333333997
        },
        {
          "name": "C#2",
          "midi": 37,
          "time": 73.60000000000039,
          "velocity": 0.3543307086614173,
          "duration": 0.19583333333333997
        },
        {
          "name": "E2",
          "midi": 40,
          "time": 73.60000000000039,
          "velocity": 0.3543307086614173,
          "duration": 0.19583333333333997
        },
        {
          "name": "F4",
          "midi": 65,
          "time": 73.8000000000004,
          "velocity": 0.8661417322834646,
          "duration": 0.19583333333333997
        },
        {
          "name": "D4",
          "midi": 62,
          "time": 73.8000000000004,
          "velocity": 0.8661417322834646,
          "duration": 0.19583333333333997
        },
        {
          "name": "C#2",
          "midi": 37,
          "time": 73.8000000000004,
          "velocity": 0.3543307086614173,
          "duration": 0.19583333333333997
        },
        {
          "name": "E2",
          "midi": 40,
          "time": 73.8000000000004,
          "velocity": 0.3543307086614173,
          "duration": 0.19583333333333997
        },
        {
          "name": "A3",
          "midi": 57,
          "time": 73.8000000000004,
          "velocity": 0.8661417322834646,
          "duration": 0.19583333333333997
        },
        {
          "name": "C5",
          "midi": 72,
          "time": 74.0000000000004,
          "velocity": 0.8661417322834646,
          "duration": 0.3333333333333428
        },
        {
          "name": "A3",
          "midi": 57,
          "time": 74.0000000000004,
          "velocity": 0.8661417322834646,
          "duration": 0.19583333333333997
        },
        {
          "name": "C4",
          "midi": 60,
          "time": 74.0000000000004,
          "velocity": 0.8661417322834646,
          "duration": 0.19583333333333997
        },
        {
          "name": "E4",
          "midi": 64,
          "time": 74.0000000000004,
          "velocity": 0.8661417322834646,
          "duration": 0.19583333333333997
        },
        {
          "name": "C3",
          "midi": 48,
          "time": 74.0000000000004,
          "velocity": 0.8661417322834646,
          "duration": 0.3333333333333428
        },
        {
          "name": "C#2",
          "midi": 37,
          "time": 74.0000000000004,
          "velocity": 0.3543307086614173,
          "duration": 0.19583333333333997
        },
        {
          "name": "E2",
          "midi": 40,
          "time": 74.0000000000004,
          "velocity": 0.3543307086614173,
          "duration": 0.19583333333333997
        },
        {
          "name": "A3",
          "midi": 57,
          "time": 74.2000000000004,
          "velocity": 0.8661417322834646,
          "duration": 0.19583333333333997
        },
        {
          "name": "C4",
          "midi": 60,
          "time": 74.2000000000004,
          "velocity": 0.8661417322834646,
          "duration": 0.19583333333333997
        },
        {
          "name": "E4",
          "midi": 64,
          "time": 74.2000000000004,
          "velocity": 0.8661417322834646,
          "duration": 0.19583333333333997
        },
        {
          "name": "C#2",
          "midi": 37,
          "time": 74.2000000000004,
          "velocity": 0.3543307086614173,
          "duration": 0.19583333333333997
        },
        {
          "name": "E2",
          "midi": 40,
          "time": 74.2000000000004,
          "velocity": 0.3543307086614173,
          "duration": 0.19583333333333997
        },
        {
          "name": "D5",
          "midi": 74,
          "time": 74.4000000000004,
          "velocity": 0.8661417322834646,
          "duration": 1.0999999999999943
        },
        {
          "name": "A3",
          "midi": 57,
          "time": 74.4000000000004,
          "velocity": 0.8661417322834646,
          "duration": 0.19583333333333997
        },
        {
          "name": "D4",
          "midi": 62,
          "time": 74.4000000000004,
          "velocity": 0.8661417322834646,
          "duration": 0.19583333333333997
        },
        {
          "name": "F4",
          "midi": 65,
          "time": 74.4000000000004,
          "velocity": 0.8661417322834646,
          "duration": 0.19583333333333997
        },
        {
          "name": "D3",
          "midi": 50,
          "time": 74.4000000000004,
          "velocity": 0.8661417322834646,
          "duration": 0.3333333333333286
        },
        {
          "name": "A3",
          "midi": 57,
          "time": 74.4000000000004,
          "velocity": 0.8661417322834646,
          "duration": 0.19583333333333997
        },
        {
          "name": "D4",
          "midi": 62,
          "time": 74.4000000000004,
          "velocity": 0.8661417322834646,
          "duration": 0.19583333333333997
        },
        {
          "name": "F4",
          "midi": 65,
          "time": 74.4000000000004,
          "velocity": 0.8661417322834646,
          "duration": 0.19583333333333997
        },
        {
          "name": "C#2",
          "midi": 37,
          "time": 74.4000000000004,
          "velocity": 0.3543307086614173,
          "duration": 0.19583333333333997
        },
        {
          "name": "E2",
          "midi": 40,
          "time": 74.4000000000004,
          "velocity": 0.3543307086614173,
          "duration": 0.19583333333333997
        },
        {
          "name": "A3",
          "midi": 57,
          "time": 74.6000000000004,
          "velocity": 0.8661417322834646,
          "duration": 0.09583333333333144
        },
        {
          "name": "D4",
          "midi": 62,
          "time": 74.6000000000004,
          "velocity": 0.8661417322834646,
          "duration": 0.09583333333333144
        },
        {
          "name": "F4",
          "midi": 65,
          "time": 74.6000000000004,
          "velocity": 0.8661417322834646,
          "duration": 0.09583333333333144
        },
        {
          "name": "A3",
          "midi": 57,
          "time": 74.6000000000004,
          "velocity": 0.8661417322834646,
          "duration": 0.09583333333333144
        },
        {
          "name": "D4",
          "midi": 62,
          "time": 74.6000000000004,
          "velocity": 0.8661417322834646,
          "duration": 0.09583333333333144
        },
        {
          "name": "F4",
          "midi": 65,
          "time": 74.6000000000004,
          "velocity": 0.8661417322834646,
          "duration": 0.09583333333333144
        },
        {
          "name": "C#2",
          "midi": 37,
          "time": 74.6000000000004,
          "velocity": 0.3543307086614173,
          "duration": 0.09583333333333144
        },
        {
          "name": "E2",
          "midi": 40,
          "time": 74.6000000000004,
          "velocity": 0.3543307086614173,
          "duration": 0.09583333333333144
        },
        {
          "name": "A3",
          "midi": 57,
          "time": 74.7000000000004,
          "velocity": 0.8661417322834646,
          "duration": 0.09583333333333144
        },
        {
          "name": "D4",
          "midi": 62,
          "time": 74.7000000000004,
          "velocity": 0.8661417322834646,
          "duration": 0.09583333333333144
        },
        {
          "name": "F4",
          "midi": 65,
          "time": 74.7000000000004,
          "velocity": 0.8661417322834646,
          "duration": 0.09583333333333144
        },
        {
          "name": "A3",
          "midi": 57,
          "time": 74.7000000000004,
          "velocity": 0.8661417322834646,
          "duration": 0.09583333333333144
        },
        {
          "name": "D4",
          "midi": 62,
          "time": 74.7000000000004,
          "velocity": 0.8661417322834646,
          "duration": 0.09583333333333144
        },
        {
          "name": "F4",
          "midi": 65,
          "time": 74.7000000000004,
          "velocity": 0.8661417322834646,
          "duration": 0.09583333333333144
        },
        {
          "name": "C#2",
          "midi": 37,
          "time": 74.7000000000004,
          "velocity": 0.3543307086614173,
          "duration": 0.09583333333333144
        },
        {
          "name": "E2",
          "midi": 40,
          "time": 74.7000000000004,
          "velocity": 0.3543307086614173,
          "duration": 0.09583333333333144
        },
        {
          "name": "A3",
          "midi": 57,
          "time": 74.8000000000004,
          "velocity": 0.8661417322834646,
          "duration": 0.19583333333333997
        },
        {
          "name": "D4",
          "midi": 62,
          "time": 74.8000000000004,
          "velocity": 0.8661417322834646,
          "duration": 0.19583333333333997
        },
        {
          "name": "F4",
          "midi": 65,
          "time": 74.8000000000004,
          "velocity": 0.8661417322834646,
          "duration": 0.19583333333333997
        },
        {
          "name": "D3",
          "midi": 50,
          "time": 74.8000000000004,
          "velocity": 0.8661417322834646,
          "duration": 0.3333333333333428
        },
        {
          "name": "A3",
          "midi": 57,
          "time": 74.8000000000004,
          "velocity": 0.8661417322834646,
          "duration": 0.19583333333333997
        },
        {
          "name": "D4",
          "midi": 62,
          "time": 74.8000000000004,
          "velocity": 0.8661417322834646,
          "duration": 0.19583333333333997
        },
        {
          "name": "F4",
          "midi": 65,
          "time": 74.8000000000004,
          "velocity": 0.8661417322834646,
          "duration": 0.19583333333333997
        },
        {
          "name": "C#2",
          "midi": 37,
          "time": 74.8000000000004,
          "velocity": 0.3543307086614173,
          "duration": 0.19583333333333997
        },
        {
          "name": "E2",
          "midi": 40,
          "time": 74.8000000000004,
          "velocity": 0.3543307086614173,
          "duration": 0.19583333333333997
        },
        {
          "name": "A3",
          "midi": 57,
          "time": 75.0000000000004,
          "velocity": 0.8661417322834646,
          "duration": 0.19583333333333997
        },
        {
          "name": "D4",
          "midi": 62,
          "time": 75.0000000000004,
          "velocity": 0.8661417322834646,
          "duration": 0.19583333333333997
        },
        {
          "name": "F4",
          "midi": 65,
          "time": 75.0000000000004,
          "velocity": 0.8661417322834646,
          "duration": 0.19583333333333997
        },
        {
          "name": "A3",
          "midi": 57,
          "time": 75.0000000000004,
          "velocity": 0.8661417322834646,
          "duration": 0.19583333333333997
        },
        {
          "name": "D4",
          "midi": 62,
          "time": 75.0000000000004,
          "velocity": 0.8661417322834646,
          "duration": 0.19583333333333997
        },
        {
          "name": "F4",
          "midi": 65,
          "time": 75.0000000000004,
          "velocity": 0.8661417322834646,
          "duration": 0.19583333333333997
        },
        {
          "name": "C#2",
          "midi": 37,
          "time": 75.0000000000004,
          "velocity": 0.3543307086614173,
          "duration": 0.19583333333333997
        },
        {
          "name": "E2",
          "midi": 40,
          "time": 75.0000000000004,
          "velocity": 0.3543307086614173,
          "duration": 0.19583333333333997
        },
        {
          "name": "D4",
          "midi": 62,
          "time": 75.2000000000004,
          "velocity": 0.8661417322834646,
          "duration": 0.19583333333333997
        },
        {
          "name": "D4",
          "midi": 62,
          "time": 75.2000000000004,
          "velocity": 0.8661417322834646,
          "duration": 0.19583333333333997
        },
        {
          "name": "C#2",
          "midi": 37,
          "time": 75.2000000000004,
          "velocity": 0.3543307086614173,
          "duration": 0.19583333333333997
        },
        {
          "name": "E2",
          "midi": 40,
          "time": 75.2000000000004,
          "velocity": 0.3543307086614173,
          "duration": 0.19583333333333997
        },
        {
          "name": "F4",
          "midi": 65,
          "time": 75.4000000000004,
          "velocity": 0.8661417322834646,
          "duration": 0.19583333333332575
        },
        {
          "name": "F4",
          "midi": 65,
          "time": 75.4000000000004,
          "velocity": 0.8661417322834646,
          "duration": 0.19583333333332575
        },
        {
          "name": "C#2",
          "midi": 37,
          "time": 75.4000000000004,
          "velocity": 0.3543307086614173,
          "duration": 0.19583333333332575
        },
        {
          "name": "E2",
          "midi": 40,
          "time": 75.4000000000004,
          "velocity": 0.3543307086614173,
          "duration": 0.19583333333332575
        },
        {
          "name": "A3",
          "midi": 57,
          "time": 75.60000000000039,
          "velocity": 0.8661417322834646,
          "duration": 0.19583333333333997
        },
        {
          "name": "D4",
          "midi": 62,
          "time": 75.60000000000039,
          "velocity": 0.8661417322834646,
          "duration": 0.19583333333333997
        },
        {
          "name": "F4",
          "midi": 65,
          "time": 75.60000000000039,
          "velocity": 0.8661417322834646,
          "duration": 0.19583333333333997
        },
        {
          "name": "A4",
          "midi": 69,
          "time": 75.60000000000039,
          "velocity": 0.8661417322834646,
          "duration": 0.19583333333333997
        },
        {
          "name": "D3",
          "midi": 50,
          "time": 75.60000000000039,
          "velocity": 0.8661417322834646,
          "duration": 0.3333333333333286
        },
        {
          "name": "A3",
          "midi": 57,
          "time": 75.60000000000039,
          "velocity": 0.8661417322834646,
          "duration": 0.19583333333333997
        },
        {
          "name": "D4",
          "midi": 62,
          "time": 75.60000000000039,
          "velocity": 0.8661417322834646,
          "duration": 0.19583333333333997
        },
        {
          "name": "F4",
          "midi": 65,
          "time": 75.60000000000039,
          "velocity": 0.8661417322834646,
          "duration": 0.19583333333333997
        },
        {
          "name": "A4",
          "midi": 69,
          "time": 75.60000000000039,
          "velocity": 0.8661417322834646,
          "duration": 0.19583333333333997
        },
        {
          "name": "C#2",
          "midi": 37,
          "time": 75.60000000000039,
          "velocity": 0.3543307086614173,
          "duration": 0.19583333333333997
        },
        {
          "name": "E2",
          "midi": 40,
          "time": 75.60000000000039,
          "velocity": 0.3543307086614173,
          "duration": 0.19583333333333997
        },
        {
          "name": "A3",
          "midi": 57,
          "time": 75.8000000000004,
          "velocity": 0.8661417322834646,
          "duration": 0.09583333333333144
        },
        {
          "name": "D4",
          "midi": 62,
          "time": 75.8000000000004,
          "velocity": 0.8661417322834646,
          "duration": 0.09583333333333144
        },
        {
          "name": "F4",
          "midi": 65,
          "time": 75.8000000000004,
          "velocity": 0.8661417322834646,
          "duration": 0.09583333333333144
        },
        {
          "name": "A4",
          "midi": 69,
          "time": 75.8000000000004,
          "velocity": 0.8661417322834646,
          "duration": 0.09583333333333144
        },
        {
          "name": "A5",
          "midi": 81,
          "time": 75.8000000000004,
          "velocity": 0.8661417322834646,
          "duration": 0.06666666666666288
        },
        {
          "name": "A3",
          "midi": 57,
          "time": 75.8000000000004,
          "velocity": 0.8661417322834646,
          "duration": 0.09583333333333144
        },
        {
          "name": "D4",
          "midi": 62,
          "time": 75.8000000000004,
          "velocity": 0.8661417322834646,
          "duration": 0.09583333333333144
        },
        {
          "name": "F4",
          "midi": 65,
          "time": 75.8000000000004,
          "velocity": 0.8661417322834646,
          "duration": 0.09583333333333144
        },
        {
          "name": "A4",
          "midi": 69,
          "time": 75.8000000000004,
          "velocity": 0.8661417322834646,
          "duration": 0.09583333333333144
        },
        {
          "name": "C#2",
          "midi": 37,
          "time": 75.8000000000004,
          "velocity": 0.3543307086614173,
          "duration": 0.09583333333333144
        },
        {
          "name": "E2",
          "midi": 40,
          "time": 75.8000000000004,
          "velocity": 0.3543307086614173,
          "duration": 0.09583333333333144
        },
        {
          "name": "F5",
          "midi": 77,
          "time": 75.86666666666706,
          "velocity": 0.8661417322834646,
          "duration": 0.06666666666666288
        },
        {
          "name": "A3",
          "midi": 57,
          "time": 75.90000000000039,
          "velocity": 0.8661417322834646,
          "duration": 0.09583333333333144
        },
        {
          "name": "D4",
          "midi": 62,
          "time": 75.90000000000039,
          "velocity": 0.8661417322834646,
          "duration": 0.09583333333333144
        },
        {
          "name": "F4",
          "midi": 65,
          "time": 75.90000000000039,
          "velocity": 0.8661417322834646,
          "duration": 0.09583333333333144
        },
        {
          "name": "A4",
          "midi": 69,
          "time": 75.90000000000039,
          "velocity": 0.8661417322834646,
          "duration": 0.09583333333333144
        },
        {
          "name": "A3",
          "midi": 57,
          "time": 75.90000000000039,
          "velocity": 0.8661417322834646,
          "duration": 0.09583333333333144
        },
        {
          "name": "D4",
          "midi": 62,
          "time": 75.90000000000039,
          "velocity": 0.8661417322834646,
          "duration": 0.09583333333333144
        },
        {
          "name": "F4",
          "midi": 65,
          "time": 75.90000000000039,
          "velocity": 0.8661417322834646,
          "duration": 0.09583333333333144
        },
        {
          "name": "A4",
          "midi": 69,
          "time": 75.90000000000039,
          "velocity": 0.8661417322834646,
          "duration": 0.09583333333333144
        },
        {
          "name": "C#2",
          "midi": 37,
          "time": 75.90000000000039,
          "velocity": 0.3543307086614173,
          "duration": 0.09583333333333144
        },
        {
          "name": "E2",
          "midi": 40,
          "time": 75.90000000000039,
          "velocity": 0.3543307086614173,
          "duration": 0.09583333333333144
        },
        {
          "name": "D5",
          "midi": 74,
          "time": 75.93333333333372,
          "velocity": 0.8661417322834646,
          "duration": 0.0625
        },
        {
          "name": "A3",
          "midi": 57,
          "time": 76.00000000000038,
          "velocity": 0.8661417322834646,
          "duration": 0.19583333333332575
        },
        {
          "name": "D4",
          "midi": 62,
          "time": 76.00000000000038,
          "velocity": 0.8661417322834646,
          "duration": 0.19583333333332575
        },
        {
          "name": "F4",
          "midi": 65,
          "time": 76.00000000000038,
          "velocity": 0.8661417322834646,
          "duration": 0.19583333333332575
        },
        {
          "name": "A4",
          "midi": 69,
          "time": 76.00000000000038,
          "velocity": 0.8661417322834646,
          "duration": 0.06666666666666288
        },
        {
          "name": "A4",
          "midi": 69,
          "time": 76.00000000000038,
          "velocity": 0.8661417322834646,
          "duration": 0.19583333333332575
        },
        {
          "name": "A3",
          "midi": 57,
          "time": 76.00000000000038,
          "velocity": 0.8661417322834646,
          "duration": 0.19583333333332575
        },
        {
          "name": "D4",
          "midi": 62,
          "time": 76.00000000000038,
          "velocity": 0.8661417322834646,
          "duration": 0.19583333333332575
        },
        {
          "name": "F4",
          "midi": 65,
          "time": 76.00000000000038,
          "velocity": 0.8661417322834646,
          "duration": 0.19583333333332575
        },
        {
          "name": "A4",
          "midi": 69,
          "time": 76.00000000000038,
          "velocity": 0.8661417322834646,
          "duration": 0.19583333333332575
        },
        {
          "name": "C#2",
          "midi": 37,
          "time": 76.00000000000038,
          "velocity": 0.3543307086614173,
          "duration": 0.19583333333332575
        },
        {
          "name": "E2",
          "midi": 40,
          "time": 76.00000000000038,
          "velocity": 0.3543307086614173,
          "duration": 0.19583333333332575
        },
        {
          "name": "A3",
          "midi": 57,
          "time": 76.20000000000037,
          "velocity": 0.8661417322834646,
          "duration": 0.19583333333332575
        },
        {
          "name": "D4",
          "midi": 62,
          "time": 76.20000000000037,
          "velocity": 0.8661417322834646,
          "duration": 0.19583333333332575
        },
        {
          "name": "F4",
          "midi": 65,
          "time": 76.20000000000037,
          "velocity": 0.8661417322834646,
          "duration": 0.19583333333332575
        },
        {
          "name": "A4",
          "midi": 69,
          "time": 76.20000000000037,
          "velocity": 0.8661417322834646,
          "duration": 0.19583333333332575
        },
        {
          "name": "A5",
          "midi": 81,
          "time": 76.20000000000037,
          "velocity": 0.8661417322834646,
          "duration": 0.06666666666666288
        },
        {
          "name": "A3",
          "midi": 57,
          "time": 76.20000000000037,
          "velocity": 0.8661417322834646,
          "duration": 0.19583333333332575
        },
        {
          "name": "D4",
          "midi": 62,
          "time": 76.20000000000037,
          "velocity": 0.8661417322834646,
          "duration": 0.19583333333332575
        },
        {
          "name": "F4",
          "midi": 65,
          "time": 76.20000000000037,
          "velocity": 0.8661417322834646,
          "duration": 0.19583333333332575
        },
        {
          "name": "A4",
          "midi": 69,
          "time": 76.20000000000037,
          "velocity": 0.8661417322834646,
          "duration": 0.19583333333332575
        },
        {
          "name": "C#2",
          "midi": 37,
          "time": 76.20000000000037,
          "velocity": 0.3543307086614173,
          "duration": 0.19583333333332575
        },
        {
          "name": "E2",
          "midi": 40,
          "time": 76.20000000000037,
          "velocity": 0.3543307086614173,
          "duration": 0.19583333333332575
        },
        {
          "name": "C4",
          "midi": 60,
          "time": 76.40000000000036,
          "velocity": 0.8661417322834646,
          "duration": 0.19583333333332575
        },
        {
          "name": "E4",
          "midi": 64,
          "time": 76.40000000000036,
          "velocity": 0.8661417322834646,
          "duration": 0.19583333333332575
        },
        {
          "name": "G4",
          "midi": 67,
          "time": 76.40000000000036,
          "velocity": 0.8661417322834646,
          "duration": 0.19583333333332575
        },
        {
          "name": "C3",
          "midi": 48,
          "time": 76.40000000000036,
          "velocity": 0.8661417322834646,
          "duration": 0.3333333333333286
        },
        {
          "name": "G5",
          "midi": 79,
          "time": 76.40000000000036,
          "velocity": 0.8661417322834646,
          "duration": 0.09999999999999432
        },
        {
          "name": "C4",
          "midi": 60,
          "time": 76.40000000000036,
          "velocity": 0.8661417322834646,
          "duration": 0.19583333333332575
        },
        {
          "name": "E4",
          "midi": 64,
          "time": 76.40000000000036,
          "velocity": 0.8661417322834646,
          "duration": 0.19583333333332575
        },
        {
          "name": "G4",
          "midi": 67,
          "time": 76.40000000000036,
          "velocity": 0.8661417322834646,
          "duration": 0.19583333333332575
        },
        {
          "name": "C#2",
          "midi": 37,
          "time": 76.40000000000036,
          "velocity": 0.3543307086614173,
          "duration": 0.19583333333332575
        },
        {
          "name": "E2",
          "midi": 40,
          "time": 76.40000000000036,
          "velocity": 0.3543307086614173,
          "duration": 0.19583333333332575
        },
        {
          "name": "G4",
          "midi": 67,
          "time": 76.50000000000036,
          "velocity": 0.8661417322834646,
          "duration": 0.09999999999999432
        },
        {
          "name": "C4",
          "midi": 60,
          "time": 76.60000000000035,
          "velocity": 0.8661417322834646,
          "duration": 0.19583333333333997
        },
        {
          "name": "E4",
          "midi": 64,
          "time": 76.60000000000035,
          "velocity": 0.8661417322834646,
          "duration": 0.19583333333333997
        },
        {
          "name": "G4",
          "midi": 67,
          "time": 76.60000000000035,
          "velocity": 0.8661417322834646,
          "duration": 0.19583333333333997
        },
        {
          "name": "G5",
          "midi": 79,
          "time": 76.60000000000035,
          "velocity": 0.8661417322834646,
          "duration": 0.19583333333333997
        },
        {
          "name": "C4",
          "midi": 60,
          "time": 76.60000000000035,
          "velocity": 0.8661417322834646,
          "duration": 0.19583333333333997
        },
        {
          "name": "E4",
          "midi": 64,
          "time": 76.60000000000035,
          "velocity": 0.8661417322834646,
          "duration": 0.19583333333333997
        },
        {
          "name": "G4",
          "midi": 67,
          "time": 76.60000000000035,
          "velocity": 0.8661417322834646,
          "duration": 0.19583333333333997
        },
        {
          "name": "C#2",
          "midi": 37,
          "time": 76.60000000000035,
          "velocity": 0.3543307086614173,
          "duration": 0.19583333333333997
        },
        {
          "name": "E2",
          "midi": 40,
          "time": 76.60000000000035,
          "velocity": 0.3543307086614173,
          "duration": 0.19583333333333997
        },
        {
          "name": "A3",
          "midi": 57,
          "time": 76.80000000000035,
          "velocity": 0.8661417322834646,
          "duration": 0.19583333333333997
        },
        {
          "name": "D4",
          "midi": 62,
          "time": 76.80000000000035,
          "velocity": 0.8661417322834646,
          "duration": 0.19583333333333997
        },
        {
          "name": "F4",
          "midi": 65,
          "time": 76.80000000000035,
          "velocity": 0.8661417322834646,
          "duration": 0.19583333333333997
        },
        {
          "name": "A4",
          "midi": 69,
          "time": 76.80000000000035,
          "velocity": 0.8661417322834646,
          "duration": 0.19583333333333997
        },
        {
          "name": "D3",
          "midi": 50,
          "time": 76.80000000000035,
          "velocity": 0.8661417322834646,
          "duration": 0.3333333333333286
        },
        {
          "name": "A5",
          "midi": 81,
          "time": 76.80000000000035,
          "velocity": 0.8661417322834646,
          "duration": 0.19583333333333997
        },
        {
          "name": "A3",
          "midi": 57,
          "time": 76.80000000000035,
          "velocity": 0.8661417322834646,
          "duration": 0.19583333333333997
        },
        {
          "name": "D4",
          "midi": 62,
          "time": 76.80000000000035,
          "velocity": 0.8661417322834646,
          "duration": 0.19583333333333997
        },
        {
          "name": "F4",
          "midi": 65,
          "time": 76.80000000000035,
          "velocity": 0.8661417322834646,
          "duration": 0.19583333333333997
        },
        {
          "name": "A4",
          "midi": 69,
          "time": 76.80000000000035,
          "velocity": 0.8661417322834646,
          "duration": 0.19583333333333997
        },
        {
          "name": "C#2",
          "midi": 37,
          "time": 76.80000000000035,
          "velocity": 0.3543307086614173,
          "duration": 0.19583333333333997
        },
        {
          "name": "E2",
          "midi": 40,
          "time": 76.80000000000035,
          "velocity": 0.3543307086614173,
          "duration": 0.19583333333333997
        },
        {
          "name": "A3",
          "midi": 57,
          "time": 77.00000000000036,
          "velocity": 0.8661417322834646,
          "duration": 0.09583333333333144
        },
        {
          "name": "D4",
          "midi": 62,
          "time": 77.00000000000036,
          "velocity": 0.8661417322834646,
          "duration": 0.09583333333333144
        },
        {
          "name": "F4",
          "midi": 65,
          "time": 77.00000000000036,
          "velocity": 0.8661417322834646,
          "duration": 0.09583333333333144
        },
        {
          "name": "A4",
          "midi": 69,
          "time": 77.00000000000036,
          "velocity": 0.8661417322834646,
          "duration": 0.06666666666666288
        },
        {
          "name": "A4",
          "midi": 69,
          "time": 77.00000000000036,
          "velocity": 0.8661417322834646,
          "duration": 0.09583333333333144
        },
        {
          "name": "A3",
          "midi": 57,
          "time": 77.00000000000036,
          "velocity": 0.8661417322834646,
          "duration": 0.09583333333333144
        },
        {
          "name": "D4",
          "midi": 62,
          "time": 77.00000000000036,
          "velocity": 0.8661417322834646,
          "duration": 0.09583333333333144
        },
        {
          "name": "F4",
          "midi": 65,
          "time": 77.00000000000036,
          "velocity": 0.8661417322834646,
          "duration": 0.09583333333333144
        },
        {
          "name": "A4",
          "midi": 69,
          "time": 77.00000000000036,
          "velocity": 0.8661417322834646,
          "duration": 0.09583333333333144
        },
        {
          "name": "C#2",
          "midi": 37,
          "time": 77.00000000000036,
          "velocity": 0.3543307086614173,
          "duration": 0.09583333333333144
        },
        {
          "name": "E2",
          "midi": 40,
          "time": 77.00000000000036,
          "velocity": 0.3543307086614173,
          "duration": 0.09583333333333144
        },
        {
          "name": "D5",
          "midi": 74,
          "time": 77.06666666666702,
          "velocity": 0.8661417322834646,
          "duration": 0.06666666666666288
        },
        {
          "name": "A3",
          "midi": 57,
          "time": 77.10000000000035,
          "velocity": 0.8661417322834646,
          "duration": 0.09583333333333144
        },
        {
          "name": "D4",
          "midi": 62,
          "time": 77.10000000000035,
          "velocity": 0.8661417322834646,
          "duration": 0.09583333333333144
        },
        {
          "name": "F4",
          "midi": 65,
          "time": 77.10000000000035,
          "velocity": 0.8661417322834646,
          "duration": 0.09583333333333144
        },
        {
          "name": "A4",
          "midi": 69,
          "time": 77.10000000000035,
          "velocity": 0.8661417322834646,
          "duration": 0.09583333333333144
        },
        {
          "name": "A3",
          "midi": 57,
          "time": 77.10000000000035,
          "velocity": 0.8661417322834646,
          "duration": 0.09583333333333144
        },
        {
          "name": "D4",
          "midi": 62,
          "time": 77.10000000000035,
          "velocity": 0.8661417322834646,
          "duration": 0.09583333333333144
        },
        {
          "name": "F4",
          "midi": 65,
          "time": 77.10000000000035,
          "velocity": 0.8661417322834646,
          "duration": 0.09583333333333144
        },
        {
          "name": "A4",
          "midi": 69,
          "time": 77.10000000000035,
          "velocity": 0.8661417322834646,
          "duration": 0.09583333333333144
        },
        {
          "name": "C#2",
          "midi": 37,
          "time": 77.10000000000035,
          "velocity": 0.3543307086614173,
          "duration": 0.09583333333333144
        },
        {
          "name": "E2",
          "midi": 40,
          "time": 77.10000000000035,
          "velocity": 0.3543307086614173,
          "duration": 0.09583333333333144
        },
        {
          "name": "F5",
          "midi": 77,
          "time": 77.13333333333368,
          "velocity": 0.8661417322834646,
          "duration": 0.06666666666666288
        },
        {
          "name": "A3",
          "midi": 57,
          "time": 77.20000000000034,
          "velocity": 0.8661417322834646,
          "duration": 0.3333333333333286
        },
        {
          "name": "D4",
          "midi": 62,
          "time": 77.20000000000034,
          "velocity": 0.8661417322834646,
          "duration": 0.3333333333333286
        },
        {
          "name": "F4",
          "midi": 65,
          "time": 77.20000000000034,
          "velocity": 0.8661417322834646,
          "duration": 0.3333333333333286
        },
        {
          "name": "A4",
          "midi": 69,
          "time": 77.20000000000034,
          "velocity": 0.8661417322834646,
          "duration": 0.3333333333333286
        },
        {
          "name": "D3",
          "midi": 50,
          "time": 77.20000000000034,
          "velocity": 0.8661417322834646,
          "duration": 0.3333333333333286
        },
        {
          "name": "A5",
          "midi": 81,
          "time": 77.20000000000034,
          "velocity": 0.8661417322834646,
          "duration": 0.09999999999999432
        },
        {
          "name": "A3",
          "midi": 57,
          "time": 77.20000000000034,
          "velocity": 0.8661417322834646,
          "duration": 0.3333333333333286
        },
        {
          "name": "D4",
          "midi": 62,
          "time": 77.20000000000034,
          "velocity": 0.8661417322834646,
          "duration": 0.3333333333333286
        },
        {
          "name": "F4",
          "midi": 65,
          "time": 77.20000000000034,
          "velocity": 0.8661417322834646,
          "duration": 0.3333333333333286
        },
        {
          "name": "A4",
          "midi": 69,
          "time": 77.20000000000034,
          "velocity": 0.8661417322834646,
          "duration": 0.3333333333333286
        },
        {
          "name": "C#2",
          "midi": 37,
          "time": 77.20000000000034,
          "velocity": 0.3543307086614173,
          "duration": 0.3333333333333286
        },
        {
          "name": "E2",
          "midi": 40,
          "time": 77.20000000000034,
          "velocity": 0.3543307086614173,
          "duration": 0.3333333333333286
        },
        {
          "name": "D4",
          "midi": 62,
          "time": 77.60000000000034,
          "velocity": 0.8661417322834646,
          "duration": 0.19583333333333997
        },
        {
          "name": "F4",
          "midi": 65,
          "time": 77.80000000000034,
          "velocity": 0.8661417322834646,
          "duration": 0.19583333333333997
        },
        {
          "name": "A4",
          "midi": 69,
          "time": 78.00000000000034,
          "velocity": 0.8661417322834646,
          "duration": 0.5333333333333314
        },
        {
          "name": "A3",
          "midi": 57,
          "time": 78.00000000000034,
          "velocity": 0.8661417322834646,
          "duration": 0.19583333333333997
        },
        {
          "name": "D4",
          "midi": 62,
          "time": 78.00000000000034,
          "velocity": 0.8661417322834646,
          "duration": 0.19583333333333997
        },
        {
          "name": "F4",
          "midi": 65,
          "time": 78.00000000000034,
          "velocity": 0.8661417322834646,
          "duration": 0.19583333333333997
        },
        {
          "name": "D3",
          "midi": 50,
          "time": 78.00000000000034,
          "velocity": 0.8661417322834646,
          "duration": 0.3333333333333286
        },
        {
          "name": "D2",
          "midi": 38,
          "time": 78.00000000000034,
          "velocity": 0.8661417322834646,
          "duration": 0.3333333333333286
        },
        {
          "name": "A3",
          "midi": 57,
          "time": 78.00000000000034,
          "velocity": 0.8661417322834646,
          "duration": 0.19583333333333997
        },
        {
          "name": "D4",
          "midi": 62,
          "time": 78.00000000000034,
          "velocity": 0.8661417322834646,
          "duration": 0.19583333333333997
        },
        {
          "name": "F4",
          "midi": 65,
          "time": 78.00000000000034,
          "velocity": 0.8661417322834646,
          "duration": 0.19583333333333997
        },
        {
          "name": "C#2",
          "midi": 37,
          "time": 78.00000000000034,
          "velocity": 0.3543307086614173,
          "duration": 0.19583333333333997
        },
        {
          "name": "E2",
          "midi": 40,
          "time": 78.00000000000034,
          "velocity": 0.3543307086614173,
          "duration": 0.19583333333333997
        },
        {
          "name": "A3",
          "midi": 57,
          "time": 78.20000000000034,
          "velocity": 0.8661417322834646,
          "duration": 0.09583333333333144
        },
        {
          "name": "D4",
          "midi": 62,
          "time": 78.20000000000034,
          "velocity": 0.8661417322834646,
          "duration": 0.09583333333333144
        },
        {
          "name": "F4",
          "midi": 65,
          "time": 78.20000000000034,
          "velocity": 0.8661417322834646,
          "duration": 0.09583333333333144
        },
        {
          "name": "D4",
          "midi": 62,
          "time": 78.20000000000034,
          "velocity": 0.8661417322834646,
          "duration": 0.09583333333333144
        },
        {
          "name": "A3",
          "midi": 57,
          "time": 78.20000000000034,
          "velocity": 0.8661417322834646,
          "duration": 0.09583333333333144
        },
        {
          "name": "D4",
          "midi": 62,
          "time": 78.20000000000034,
          "velocity": 0.8661417322834646,
          "duration": 0.19583333333332575
        },
        {
          "name": "F4",
          "midi": 65,
          "time": 78.20000000000034,
          "velocity": 0.8661417322834646,
          "duration": 0.09583333333333144
        },
        {
          "name": "C#2",
          "midi": 37,
          "time": 78.20000000000034,
          "velocity": 0.3543307086614173,
          "duration": 0.09583333333333144
        },
        {
          "name": "E2",
          "midi": 40,
          "time": 78.20000000000034,
          "velocity": 0.3543307086614173,
          "duration": 0.09583333333333144
        },
        {
          "name": "A3",
          "midi": 57,
          "time": 78.30000000000034,
          "velocity": 0.8661417322834646,
          "duration": 0.09583333333333144
        },
        {
          "name": "D4",
          "midi": 62,
          "time": 78.30000000000034,
          "velocity": 0.8661417322834646,
          "duration": 0.09583333333333144
        },
        {
          "name": "F4",
          "midi": 65,
          "time": 78.30000000000034,
          "velocity": 0.8661417322834646,
          "duration": 0.09583333333333144
        },
        {
          "name": "A3",
          "midi": 57,
          "time": 78.30000000000034,
          "velocity": 0.8661417322834646,
          "duration": 0.09583333333333144
        },
        {
          "name": "D4",
          "midi": 62,
          "time": 78.30000000000034,
          "velocity": 0.8661417322834646,
          "duration": 0.2958333333333343
        },
        {
          "name": "F4",
          "midi": 65,
          "time": 78.30000000000034,
          "velocity": 0.8661417322834646,
          "duration": 0.09583333333333144
        },
        {
          "name": "C#2",
          "midi": 37,
          "time": 78.30000000000034,
          "velocity": 0.3543307086614173,
          "duration": 0.09583333333333144
        },
        {
          "name": "E2",
          "midi": 40,
          "time": 78.30000000000034,
          "velocity": 0.3543307086614173,
          "duration": 0.09583333333333144
        },
        {
          "name": "A3",
          "midi": 57,
          "time": 78.40000000000033,
          "velocity": 0.8661417322834646,
          "duration": 0.19583333333333997
        },
        {
          "name": "D4",
          "midi": 62,
          "time": 78.40000000000033,
          "velocity": 0.8661417322834646,
          "duration": 0.19583333333333997
        },
        {
          "name": "F4",
          "midi": 65,
          "time": 78.40000000000033,
          "velocity": 0.8661417322834646,
          "duration": 0.19583333333333997
        },
        {
          "name": "A3",
          "midi": 57,
          "time": 78.40000000000033,
          "velocity": 0.8661417322834646,
          "duration": 0.19583333333333997
        },
        {
          "name": "D4",
          "midi": 62,
          "time": 78.40000000000033,
          "velocity": 0.8661417322834646,
          "duration": 0.3958333333333428
        },
        {
          "name": "F4",
          "midi": 65,
          "time": 78.40000000000033,
          "velocity": 0.8661417322834646,
          "duration": 0.19583333333333997
        },
        {
          "name": "C#2",
          "midi": 37,
          "time": 78.40000000000033,
          "velocity": 0.3543307086614173,
          "duration": 0.19583333333333997
        },
        {
          "name": "E2",
          "midi": 40,
          "time": 78.40000000000033,
          "velocity": 0.3543307086614173,
          "duration": 0.19583333333333997
        },
        {
          "name": "D4",
          "midi": 62,
          "time": 78.60000000000034,
          "velocity": 0.8661417322834646,
          "duration": 0.19583333333333997
        },
        {
          "name": "D4",
          "midi": 62,
          "time": 78.60000000000034,
          "velocity": 0.8661417322834646,
          "duration": 0.3958333333333428
        },
        {
          "name": "F4",
          "midi": 65,
          "time": 78.60000000000034,
          "velocity": 0.8661417322834646,
          "duration": 0.19583333333333997
        },
        {
          "name": "A2",
          "midi": 45,
          "time": 78.60000000000034,
          "velocity": 0.8661417322834646,
          "duration": 0.3958333333333428
        },
        {
          "name": "D4",
          "midi": 62,
          "time": 78.60000000000034,
          "velocity": 0.8661417322834646,
          "duration": 0.3958333333333428
        },
        {
          "name": "F4",
          "midi": 65,
          "time": 78.60000000000034,
          "velocity": 0.8661417322834646,
          "duration": 0.19583333333333997
        },
        {
          "name": "C#2",
          "midi": 37,
          "time": 78.60000000000034,
          "velocity": 0.3543307086614173,
          "duration": 0.19583333333333997
        },
        {
          "name": "E2",
          "midi": 40,
          "time": 78.60000000000034,
          "velocity": 0.3543307086614173,
          "duration": 0.19583333333333997
        },
        {
          "name": "D4",
          "midi": 62,
          "time": 78.80000000000034,
          "velocity": 0.8661417322834646,
          "duration": 0.19583333333333997
        },
        {
          "name": "F4",
          "midi": 65,
          "time": 78.80000000000034,
          "velocity": 0.8661417322834646,
          "duration": 0.19583333333333997
        },
        {
          "name": "A2",
          "midi": 45,
          "time": 78.80000000000034,
          "velocity": 0.8661417322834646,
          "duration": 0.3333333333333428
        },
        {
          "name": "D4",
          "midi": 62,
          "time": 78.80000000000034,
          "velocity": 0.8661417322834646,
          "duration": 0.3958333333333428
        },
        {
          "name": "F4",
          "midi": 65,
          "time": 78.80000000000034,
          "velocity": 0.8661417322834646,
          "duration": 0.19583333333333997
        },
        {
          "name": "C#2",
          "midi": 37,
          "time": 78.80000000000034,
          "velocity": 0.3543307086614173,
          "duration": 0.19583333333333997
        },
        {
          "name": "E2",
          "midi": 40,
          "time": 78.80000000000034,
          "velocity": 0.3543307086614173,
          "duration": 0.19583333333333997
        },
        {
          "name": "F4",
          "midi": 65,
          "time": 79.00000000000034,
          "velocity": 0.8661417322834646,
          "duration": 0.19583333333333997
        },
        {
          "name": "A3",
          "midi": 57,
          "time": 79.00000000000034,
          "velocity": 0.8661417322834646,
          "duration": 0.19583333333333997
        },
        {
          "name": "D4",
          "midi": 62,
          "time": 79.00000000000034,
          "velocity": 0.8661417322834646,
          "duration": 0.19583333333333997
        },
        {
          "name": "F4",
          "midi": 65,
          "time": 79.00000000000034,
          "velocity": 0.8661417322834646,
          "duration": 0.19583333333333997
        },
        {
          "name": "A1",
          "midi": 33,
          "time": 79.00000000000034,
          "velocity": 0.8661417322834646,
          "duration": 0.19583333333333997
        },
        {
          "name": "A3",
          "midi": 57,
          "time": 79.00000000000034,
          "velocity": 0.8661417322834646,
          "duration": 0.19583333333333997
        },
        {
          "name": "D4",
          "midi": 62,
          "time": 79.00000000000034,
          "velocity": 0.8661417322834646,
          "duration": 0.3958333333333428
        },
        {
          "name": "F4",
          "midi": 65,
          "time": 79.00000000000034,
          "velocity": 0.8661417322834646,
          "duration": 0.19583333333333997
        },
        {
          "name": "C#2",
          "midi": 37,
          "time": 79.00000000000034,
          "velocity": 0.3543307086614173,
          "duration": 0.19583333333333997
        },
        {
          "name": "E2",
          "midi": 40,
          "time": 79.00000000000034,
          "velocity": 0.3543307086614173,
          "duration": 0.19583333333333997
        },
        {
          "name": "A4",
          "midi": 69,
          "time": 79.20000000000034,
          "velocity": 0.8661417322834646,
          "duration": 0.3333333333333286
        },
        {
          "name": "A3",
          "midi": 57,
          "time": 79.20000000000034,
          "velocity": 0.8661417322834646,
          "duration": 0.19583333333333997
        },
        {
          "name": "D4",
          "midi": 62,
          "time": 79.20000000000034,
          "velocity": 0.8661417322834646,
          "duration": 0.19583333333333997
        },
        {
          "name": "F4",
          "midi": 65,
          "time": 79.20000000000034,
          "velocity": 0.8661417322834646,
          "duration": 0.19583333333333997
        },
        {
          "name": "D3",
          "midi": 50,
          "time": 79.20000000000034,
          "velocity": 0.8661417322834646,
          "duration": 0.3333333333333286
        },
        {
          "name": "D1",
          "midi": 26,
          "time": 79.20000000000034,
          "velocity": 0.8661417322834646,
          "duration": 0.3333333333333286
        },
        {
          "name": "D2",
          "midi": 38,
          "time": 79.20000000000034,
          "velocity": 0.8661417322834646,
          "duration": 0.3333333333333286
        },
        {
          "name": "A3",
          "midi": 57,
          "time": 79.20000000000034,
          "velocity": 0.8661417322834646,
          "duration": 0.19583333333333997
        },
        {
          "name": "D4",
          "midi": 62,
          "time": 79.20000000000034,
          "velocity": 0.8661417322834646,
          "duration": 0.2958333333333343
        },
        {
          "name": "F4",
          "midi": 65,
          "time": 79.20000000000034,
          "velocity": 0.8661417322834646,
          "duration": 0.19583333333333997
        },
        {
          "name": "C#2",
          "midi": 37,
          "time": 79.20000000000034,
          "velocity": 0.3543307086614173,
          "duration": 0.19583333333333997
        },
        {
          "name": "E2",
          "midi": 40,
          "time": 79.20000000000034,
          "velocity": 0.3543307086614173,
          "duration": 0.19583333333333997
        },
        {
          "name": "A3",
          "midi": 57,
          "time": 79.40000000000035,
          "velocity": 0.8661417322834646,
          "duration": 0.09583333333333144
        },
        {
          "name": "D4",
          "midi": 62,
          "time": 79.40000000000035,
          "velocity": 0.8661417322834646,
          "duration": 0.09583333333333144
        },
        {
          "name": "F4",
          "midi": 65,
          "time": 79.40000000000035,
          "velocity": 0.8661417322834646,
          "duration": 0.09583333333333144
        },
        {
          "name": "A3",
          "midi": 57,
          "time": 79.40000000000035,
          "velocity": 0.8661417322834646,
          "duration": 0.09583333333333144
        },
        {
          "name": "D4",
          "midi": 62,
          "time": 79.40000000000035,
          "velocity": 0.8661417322834646,
          "duration": 0.19583333333332575
        },
        {
          "name": "F4",
          "midi": 65,
          "time": 79.40000000000035,
          "velocity": 0.8661417322834646,
          "duration": 0.09583333333333144
        },
        {
          "name": "C#2",
          "midi": 37,
          "time": 79.40000000000035,
          "velocity": 0.3543307086614173,
          "duration": 0.09583333333333144
        },
        {
          "name": "E2",
          "midi": 40,
          "time": 79.40000000000035,
          "velocity": 0.3543307086614173,
          "duration": 0.09583333333333144
        },
        {
          "name": "A3",
          "midi": 57,
          "time": 79.50000000000034,
          "velocity": 0.8661417322834646,
          "duration": 0.09583333333333144
        },
        {
          "name": "D4",
          "midi": 62,
          "time": 79.50000000000034,
          "velocity": 0.8661417322834646,
          "duration": 0.09583333333333144
        },
        {
          "name": "F4",
          "midi": 65,
          "time": 79.50000000000034,
          "velocity": 0.8661417322834646,
          "duration": 0.09583333333333144
        },
        {
          "name": "A3",
          "midi": 57,
          "time": 79.50000000000034,
          "velocity": 0.8661417322834646,
          "duration": 0.09583333333333144
        },
        {
          "name": "D4",
          "midi": 62,
          "time": 79.50000000000034,
          "velocity": 0.8661417322834646,
          "duration": 0.2958333333333343
        },
        {
          "name": "F4",
          "midi": 65,
          "time": 79.50000000000034,
          "velocity": 0.8661417322834646,
          "duration": 0.09583333333333144
        },
        {
          "name": "C#2",
          "midi": 37,
          "time": 79.50000000000034,
          "velocity": 0.3543307086614173,
          "duration": 0.09583333333333144
        },
        {
          "name": "E2",
          "midi": 40,
          "time": 79.50000000000034,
          "velocity": 0.3543307086614173,
          "duration": 0.09583333333333144
        },
        {
          "name": "A#4",
          "midi": 70,
          "time": 79.60000000000034,
          "velocity": 0.8661417322834646,
          "duration": 0.3333333333333428
        },
        {
          "name": "A3",
          "midi": 57,
          "time": 79.60000000000034,
          "velocity": 0.8661417322834646,
          "duration": 0.19583333333333997
        },
        {
          "name": "D4",
          "midi": 62,
          "time": 79.60000000000034,
          "velocity": 0.8661417322834646,
          "duration": 0.19583333333333997
        },
        {
          "name": "F4",
          "midi": 65,
          "time": 79.60000000000034,
          "velocity": 0.8661417322834646,
          "duration": 0.19583333333333997
        },
        {
          "name": "A1",
          "midi": 33,
          "time": 79.60000000000034,
          "velocity": 0.8661417322834646,
          "duration": 0.3333333333333428
        },
        {
          "name": "A3",
          "midi": 57,
          "time": 79.60000000000034,
          "velocity": 0.8661417322834646,
          "duration": 0.19583333333333997
        },
        {
          "name": "D4",
          "midi": 62,
          "time": 79.60000000000034,
          "velocity": 0.8661417322834646,
          "duration": 0.3958333333333428
        },
        {
          "name": "F4",
          "midi": 65,
          "time": 79.60000000000034,
          "velocity": 0.8661417322834646,
          "duration": 0.19583333333333997
        },
        {
          "name": "C#2",
          "midi": 37,
          "time": 79.60000000000034,
          "velocity": 0.3543307086614173,
          "duration": 0.19583333333333997
        },
        {
          "name": "E2",
          "midi": 40,
          "time": 79.60000000000034,
          "velocity": 0.3543307086614173,
          "duration": 0.19583333333333997
        },
        {
          "name": "D4",
          "midi": 62,
          "time": 79.80000000000034,
          "velocity": 0.8661417322834646,
          "duration": 0.19583333333333997
        },
        {
          "name": "F4",
          "midi": 65,
          "time": 79.80000000000034,
          "velocity": 0.8661417322834646,
          "duration": 0.19583333333333997
        },
        {
          "name": "D4",
          "midi": 62,
          "time": 79.80000000000034,
          "velocity": 0.8661417322834646,
          "duration": 0.3958333333333428
        },
        {
          "name": "F4",
          "midi": 65,
          "time": 79.80000000000034,
          "velocity": 0.8661417322834646,
          "duration": 0.19583333333333997
        },
        {
          "name": "C#2",
          "midi": 37,
          "time": 79.80000000000034,
          "velocity": 0.3543307086614173,
          "duration": 0.19583333333333997
        },
        {
          "name": "E2",
          "midi": 40,
          "time": 79.80000000000034,
          "velocity": 0.3543307086614173,
          "duration": 0.19583333333333997
        },
        {
          "name": "A4",
          "midi": 69,
          "time": 80.00000000000034,
          "velocity": 0.8661417322834646,
          "duration": 0.3333333333333286
        },
        {
          "name": "D4",
          "midi": 62,
          "time": 80.00000000000034,
          "velocity": 0.8661417322834646,
          "duration": 0.19583333333333997
        },
        {
          "name": "F4",
          "midi": 65,
          "time": 80.00000000000034,
          "velocity": 0.8661417322834646,
          "duration": 0.19583333333333997
        },
        {
          "name": "A2",
          "midi": 45,
          "time": 80.00000000000034,
          "velocity": 0.8661417322834646,
          "duration": 0.3333333333333286
        },
        {
          "name": "D1",
          "midi": 26,
          "time": 80.00000000000034,
          "velocity": 0.8661417322834646,
          "duration": 0.3333333333333286
        },
        {
          "name": "D2",
          "midi": 38,
          "time": 80.00000000000034,
          "velocity": 0.8661417322834646,
          "duration": 0.3333333333333286
        },
        {
          "name": "D4",
          "midi": 62,
          "time": 80.00000000000034,
          "velocity": 0.8661417322834646,
          "duration": 0.29999999999999716
        },
        {
          "name": "F4",
          "midi": 65,
          "time": 80.00000000000034,
          "velocity": 0.8661417322834646,
          "duration": 0.19583333333333997
        },
        {
          "name": "C#2",
          "midi": 37,
          "time": 80.00000000000034,
          "velocity": 0.3543307086614173,
          "duration": 0.19583333333333997
        },
        {
          "name": "E2",
          "midi": 40,
          "time": 80.00000000000034,
          "velocity": 0.3543307086614173,
          "duration": 0.19583333333333997
        },
        {
          "name": "A3",
          "midi": 57,
          "time": 80.20000000000034,
          "velocity": 0.8661417322834646,
          "duration": 0.19583333333332575
        },
        {
          "name": "D4",
          "midi": 62,
          "time": 80.20000000000034,
          "velocity": 0.8661417322834646,
          "duration": 0.19583333333332575
        },
        {
          "name": "F4",
          "midi": 65,
          "time": 80.20000000000034,
          "velocity": 0.8661417322834646,
          "duration": 0.19583333333332575
        },
        {
          "name": "A3",
          "midi": 57,
          "time": 80.20000000000034,
          "velocity": 0.8661417322834646,
          "duration": 0.19583333333332575
        },
        {
          "name": "D4",
          "midi": 62,
          "time": 80.20000000000034,
          "velocity": 0.8661417322834646,
          "duration": 0.19583333333332575
        },
        {
          "name": "F4",
          "midi": 65,
          "time": 80.20000000000034,
          "velocity": 0.8661417322834646,
          "duration": 0.19583333333332575
        },
        {
          "name": "C#2",
          "midi": 37,
          "time": 80.20000000000034,
          "velocity": 0.3543307086614173,
          "duration": 0.19583333333332575
        },
        {
          "name": "E2",
          "midi": 40,
          "time": 80.20000000000034,
          "velocity": 0.3543307086614173,
          "duration": 0.19583333333332575
        },
        {
          "name": "C5",
          "midi": 72,
          "time": 80.40000000000033,
          "velocity": 0.8661417322834646,
          "duration": 0.5333333333333314
        },
        {
          "name": "A#3",
          "midi": 58,
          "time": 80.40000000000033,
          "velocity": 0.8661417322834646,
          "duration": 0.19583333333333997
        },
        {
          "name": "D4",
          "midi": 62,
          "time": 80.40000000000033,
          "velocity": 0.8661417322834646,
          "duration": 0.19583333333333997
        },
        {
          "name": "G4",
          "midi": 67,
          "time": 80.40000000000033,
          "velocity": 0.8661417322834646,
          "duration": 0.19583333333333997
        },
        {
          "name": "G2",
          "midi": 43,
          "time": 80.40000000000033,
          "velocity": 0.8661417322834646,
          "duration": 0.3333333333333286
        },
        {
          "name": "G1",
          "midi": 31,
          "time": 80.40000000000033,
          "velocity": 0.8661417322834646,
          "duration": 0.3333333333333286
        },
        {
          "name": "E4",
          "midi": 64,
          "time": 80.40000000000033,
          "velocity": 0.8661417322834646,
          "duration": 1.0999999999999943
        },
        {
          "name": "A#3",
          "midi": 58,
          "time": 80.40000000000033,
          "velocity": 0.8661417322834646,
          "duration": 0.19583333333333997
        },
        {
          "name": "D4",
          "midi": 62,
          "time": 80.40000000000033,
          "velocity": 0.8661417322834646,
          "duration": 0.19583333333333997
        },
        {
          "name": "G4",
          "midi": 67,
          "time": 80.40000000000033,
          "velocity": 0.8661417322834646,
          "duration": 0.19583333333333997
        },
        {
          "name": "C#2",
          "midi": 37,
          "time": 80.40000000000033,
          "velocity": 0.3543307086614173,
          "duration": 0.19583333333333997
        },
        {
          "name": "E2",
          "midi": 40,
          "time": 80.40000000000033,
          "velocity": 0.3543307086614173,
          "duration": 0.19583333333333997
        },
        {
          "name": "A#3",
          "midi": 58,
          "time": 80.60000000000034,
          "velocity": 0.8661417322834646,
          "duration": 0.09583333333333144
        },
        {
          "name": "D4",
          "midi": 62,
          "time": 80.60000000000034,
          "velocity": 0.8661417322834646,
          "duration": 0.09583333333333144
        },
        {
          "name": "G4",
          "midi": 67,
          "time": 80.60000000000034,
          "velocity": 0.8661417322834646,
          "duration": 0.09583333333333144
        },
        {
          "name": "A#3",
          "midi": 58,
          "time": 80.60000000000034,
          "velocity": 0.8661417322834646,
          "duration": 0.09583333333333144
        },
        {
          "name": "D4",
          "midi": 62,
          "time": 80.60000000000034,
          "velocity": 0.8661417322834646,
          "duration": 0.09583333333333144
        },
        {
          "name": "G4",
          "midi": 67,
          "time": 80.60000000000034,
          "velocity": 0.8661417322834646,
          "duration": 0.09583333333333144
        },
        {
          "name": "C#2",
          "midi": 37,
          "time": 80.60000000000034,
          "velocity": 0.3543307086614173,
          "duration": 0.09583333333333144
        },
        {
          "name": "E2",
          "midi": 40,
          "time": 80.60000000000034,
          "velocity": 0.3543307086614173,
          "duration": 0.09583333333333144
        },
        {
          "name": "A#3",
          "midi": 58,
          "time": 80.70000000000033,
          "velocity": 0.8661417322834646,
          "duration": 0.09583333333333144
        },
        {
          "name": "D4",
          "midi": 62,
          "time": 80.70000000000033,
          "velocity": 0.8661417322834646,
          "duration": 0.09583333333333144
        },
        {
          "name": "G4",
          "midi": 67,
          "time": 80.70000000000033,
          "velocity": 0.8661417322834646,
          "duration": 0.09583333333333144
        },
        {
          "name": "A#3",
          "midi": 58,
          "time": 80.70000000000033,
          "velocity": 0.8661417322834646,
          "duration": 0.09583333333333144
        },
        {
          "name": "D4",
          "midi": 62,
          "time": 80.70000000000033,
          "velocity": 0.8661417322834646,
          "duration": 0.09583333333333144
        },
        {
          "name": "G4",
          "midi": 67,
          "time": 80.70000000000033,
          "velocity": 0.8661417322834646,
          "duration": 0.09583333333333144
        },
        {
          "name": "C#2",
          "midi": 37,
          "time": 80.70000000000033,
          "velocity": 0.3543307086614173,
          "duration": 0.09583333333333144
        },
        {
          "name": "E2",
          "midi": 40,
          "time": 80.70000000000033,
          "velocity": 0.3543307086614173,
          "duration": 0.09583333333333144
        },
        {
          "name": "A#3",
          "midi": 58,
          "time": 80.80000000000032,
          "velocity": 0.8661417322834646,
          "duration": 0.19583333333333997
        },
        {
          "name": "D4",
          "midi": 62,
          "time": 80.80000000000032,
          "velocity": 0.8661417322834646,
          "duration": 0.19583333333333997
        },
        {
          "name": "G4",
          "midi": 67,
          "time": 80.80000000000032,
          "velocity": 0.8661417322834646,
          "duration": 0.19583333333333997
        },
        {
          "name": "A#3",
          "midi": 58,
          "time": 80.80000000000032,
          "velocity": 0.8661417322834646,
          "duration": 0.19583333333333997
        },
        {
          "name": "D4",
          "midi": 62,
          "time": 80.80000000000032,
          "velocity": 0.8661417322834646,
          "duration": 0.19583333333333997
        },
        {
          "name": "G4",
          "midi": 67,
          "time": 80.80000000000032,
          "velocity": 0.8661417322834646,
          "duration": 0.19583333333333997
        },
        {
          "name": "C#2",
          "midi": 37,
          "time": 80.80000000000032,
          "velocity": 0.3543307086614173,
          "duration": 0.19583333333333997
        },
        {
          "name": "E2",
          "midi": 40,
          "time": 80.80000000000032,
          "velocity": 0.3543307086614173,
          "duration": 0.19583333333333997
        },
        {
          "name": "A#4",
          "midi": 70,
          "time": 81.00000000000033,
          "velocity": 0.8661417322834646,
          "duration": 0.3958333333333428
        },
        {
          "name": "A#3",
          "midi": 58,
          "time": 81.00000000000033,
          "velocity": 0.8661417322834646,
          "duration": 0.19583333333333997
        },
        {
          "name": "D4",
          "midi": 62,
          "time": 81.00000000000033,
          "velocity": 0.8661417322834646,
          "duration": 0.19583333333333997
        },
        {
          "name": "G4",
          "midi": 67,
          "time": 81.00000000000033,
          "velocity": 0.8661417322834646,
          "duration": 0.19583333333333997
        },
        {
          "name": "D2",
          "midi": 38,
          "time": 81.00000000000033,
          "velocity": 0.8661417322834646,
          "duration": 0.3958333333333428
        },
        {
          "name": "A#3",
          "midi": 58,
          "time": 81.00000000000033,
          "velocity": 0.8661417322834646,
          "duration": 0.19583333333333997
        },
        {
          "name": "D4",
          "midi": 62,
          "time": 81.00000000000033,
          "velocity": 0.8661417322834646,
          "duration": 0.19583333333333997
        },
        {
          "name": "G4",
          "midi": 67,
          "time": 81.00000000000033,
          "velocity": 0.8661417322834646,
          "duration": 0.19583333333333997
        },
        {
          "name": "C#2",
          "midi": 37,
          "time": 81.00000000000033,
          "velocity": 0.3543307086614173,
          "duration": 0.19583333333333997
        },
        {
          "name": "E2",
          "midi": 40,
          "time": 81.00000000000033,
          "velocity": 0.3543307086614173,
          "duration": 0.19583333333333997
        },
        {
          "name": "A#3",
          "midi": 58,
          "time": 81.20000000000033,
          "velocity": 0.8661417322834646,
          "duration": 0.19583333333333997
        },
        {
          "name": "D4",
          "midi": 62,
          "time": 81.20000000000033,
          "velocity": 0.8661417322834646,
          "duration": 0.19583333333333997
        },
        {
          "name": "G4",
          "midi": 67,
          "time": 81.20000000000033,
          "velocity": 0.8661417322834646,
          "duration": 0.19583333333333997
        },
        {
          "name": "A#2",
          "midi": 46,
          "time": 81.20000000000033,
          "velocity": 0.8661417322834646,
          "duration": 0.3333333333333286
        },
        {
          "name": "A#3",
          "midi": 58,
          "time": 81.20000000000033,
          "velocity": 0.8661417322834646,
          "duration": 0.19583333333333997
        },
        {
          "name": "D4",
          "midi": 62,
          "time": 81.20000000000033,
          "velocity": 0.8661417322834646,
          "duration": 0.19583333333333997
        },
        {
          "name": "G4",
          "midi": 67,
          "time": 81.20000000000033,
          "velocity": 0.8661417322834646,
          "duration": 0.19583333333333997
        },
        {
          "name": "C#2",
          "midi": 37,
          "time": 81.20000000000033,
          "velocity": 0.3543307086614173,
          "duration": 0.19583333333333997
        },
        {
          "name": "E2",
          "midi": 40,
          "time": 81.20000000000033,
          "velocity": 0.3543307086614173,
          "duration": 0.19583333333333997
        },
        {
          "name": "G4",
          "midi": 67,
          "time": 81.40000000000033,
          "velocity": 0.8661417322834646,
          "duration": 0.19583333333332575
        },
        {
          "name": "A#3",
          "midi": 58,
          "time": 81.40000000000033,
          "velocity": 0.8661417322834646,
          "duration": 0.19583333333332575
        },
        {
          "name": "D4",
          "midi": 62,
          "time": 81.40000000000033,
          "velocity": 0.8661417322834646,
          "duration": 0.19583333333332575
        },
        {
          "name": "G4",
          "midi": 67,
          "time": 81.40000000000033,
          "velocity": 0.8661417322834646,
          "duration": 0.19583333333332575
        },
        {
          "name": "G1",
          "midi": 31,
          "time": 81.40000000000033,
          "velocity": 0.8661417322834646,
          "duration": 0.19583333333332575
        },
        {
          "name": "A#3",
          "midi": 58,
          "time": 81.40000000000033,
          "velocity": 0.8661417322834646,
          "duration": 0.19583333333332575
        },
        {
          "name": "D4",
          "midi": 62,
          "time": 81.40000000000033,
          "velocity": 0.8661417322834646,
          "duration": 0.19583333333332575
        },
        {
          "name": "G4",
          "midi": 67,
          "time": 81.40000000000033,
          "velocity": 0.8661417322834646,
          "duration": 0.19583333333332575
        },
        {
          "name": "C#2",
          "midi": 37,
          "time": 81.40000000000033,
          "velocity": 0.3543307086614173,
          "duration": 0.19583333333332575
        },
        {
          "name": "E2",
          "midi": 40,
          "time": 81.40000000000033,
          "velocity": 0.3543307086614173,
          "duration": 0.19583333333332575
        },
        {
          "name": "A4",
          "midi": 69,
          "time": 81.60000000000032,
          "velocity": 0.8661417322834646,
          "duration": 0.6999999999999886
        },
        {
          "name": "A3",
          "midi": 57,
          "time": 81.60000000000032,
          "velocity": 0.8661417322834646,
          "duration": 0.19583333333333997
        },
        {
          "name": "D4",
          "midi": 62,
          "time": 81.60000000000032,
          "velocity": 0.8661417322834646,
          "duration": 0.19583333333333997
        },
        {
          "name": "F4",
          "midi": 65,
          "time": 81.60000000000032,
          "velocity": 0.8661417322834646,
          "duration": 0.19583333333333997
        },
        {
          "name": "D3",
          "midi": 50,
          "time": 81.60000000000032,
          "velocity": 0.8661417322834646,
          "duration": 0.3333333333333286
        },
        {
          "name": "D1",
          "midi": 26,
          "time": 81.60000000000032,
          "velocity": 0.8661417322834646,
          "duration": 0.3333333333333286
        },
        {
          "name": "D2",
          "midi": 38,
          "time": 81.60000000000032,
          "velocity": 0.8661417322834646,
          "duration": 0.3333333333333286
        },
        {
          "name": "F4",
          "midi": 65,
          "time": 81.60000000000032,
          "velocity": 0.8661417322834646,
          "duration": 0.19583333333333997
        },
        {
          "name": "A3",
          "midi": 57,
          "time": 81.60000000000032,
          "velocity": 0.8661417322834646,
          "duration": 0.19583333333333997
        },
        {
          "name": "D4",
          "midi": 62,
          "time": 81.60000000000032,
          "velocity": 0.8661417322834646,
          "duration": 0.19583333333333997
        },
        {
          "name": "F4",
          "midi": 65,
          "time": 81.60000000000032,
          "velocity": 0.8661417322834646,
          "duration": 0.2958333333333343
        },
        {
          "name": "C#2",
          "midi": 37,
          "time": 81.60000000000032,
          "velocity": 0.3543307086614173,
          "duration": 0.19583333333333997
        },
        {
          "name": "E2",
          "midi": 40,
          "time": 81.60000000000032,
          "velocity": 0.3543307086614173,
          "duration": 0.19583333333333997
        },
        {
          "name": "A3",
          "midi": 57,
          "time": 81.80000000000032,
          "velocity": 0.8661417322834646,
          "duration": 0.09583333333333144
        },
        {
          "name": "D4",
          "midi": 62,
          "time": 81.80000000000032,
          "velocity": 0.8661417322834646,
          "duration": 0.09583333333333144
        },
        {
          "name": "F4",
          "midi": 65,
          "time": 81.80000000000032,
          "velocity": 0.8661417322834646,
          "duration": 0.09583333333333144
        },
        {
          "name": "A3",
          "midi": 57,
          "time": 81.80000000000032,
          "velocity": 0.8661417322834646,
          "duration": 0.09583333333333144
        },
        {
          "name": "D4",
          "midi": 62,
          "time": 81.80000000000032,
          "velocity": 0.8661417322834646,
          "duration": 0.09583333333333144
        },
        {
          "name": "F4",
          "midi": 65,
          "time": 81.80000000000032,
          "velocity": 0.8661417322834646,
          "duration": 0.19583333333332575
        },
        {
          "name": "C#2",
          "midi": 37,
          "time": 81.80000000000032,
          "velocity": 0.3543307086614173,
          "duration": 0.09583333333333144
        },
        {
          "name": "E2",
          "midi": 40,
          "time": 81.80000000000032,
          "velocity": 0.3543307086614173,
          "duration": 0.09583333333333144
        },
        {
          "name": "A3",
          "midi": 57,
          "time": 81.90000000000032,
          "velocity": 0.8661417322834646,
          "duration": 0.09583333333333144
        },
        {
          "name": "D4",
          "midi": 62,
          "time": 81.90000000000032,
          "velocity": 0.8661417322834646,
          "duration": 0.09583333333333144
        },
        {
          "name": "F4",
          "midi": 65,
          "time": 81.90000000000032,
          "velocity": 0.8661417322834646,
          "duration": 0.09583333333333144
        },
        {
          "name": "A3",
          "midi": 57,
          "time": 81.90000000000032,
          "velocity": 0.8661417322834646,
          "duration": 0.09583333333333144
        },
        {
          "name": "D4",
          "midi": 62,
          "time": 81.90000000000032,
          "velocity": 0.8661417322834646,
          "duration": 0.09583333333333144
        },
        {
          "name": "F4",
          "midi": 65,
          "time": 81.90000000000032,
          "velocity": 0.8661417322834646,
          "duration": 0.23333333333333428
        },
        {
          "name": "C#2",
          "midi": 37,
          "time": 81.90000000000032,
          "velocity": 0.3543307086614173,
          "duration": 0.09583333333333144
        },
        {
          "name": "E2",
          "midi": 40,
          "time": 81.90000000000032,
          "velocity": 0.3543307086614173,
          "duration": 0.09583333333333144
        },
        {
          "name": "A3",
          "midi": 57,
          "time": 82.00000000000031,
          "velocity": 0.8661417322834646,
          "duration": 0.19583333333333997
        },
        {
          "name": "D4",
          "midi": 62,
          "time": 82.00000000000031,
          "velocity": 0.8661417322834646,
          "duration": 0.19583333333333997
        },
        {
          "name": "F4",
          "midi": 65,
          "time": 82.00000000000031,
          "velocity": 0.8661417322834646,
          "duration": 0.19583333333333997
        },
        {
          "name": "A2",
          "midi": 45,
          "time": 82.00000000000031,
          "velocity": 0.8661417322834646,
          "duration": 0.3333333333333286
        },
        {
          "name": "A3",
          "midi": 57,
          "time": 82.00000000000031,
          "velocity": 0.8661417322834646,
          "duration": 0.19583333333333997
        },
        {
          "name": "D4",
          "midi": 62,
          "time": 82.00000000000031,
          "velocity": 0.8661417322834646,
          "duration": 0.19583333333333997
        },
        {
          "name": "F4",
          "midi": 65,
          "time": 82.00000000000031,
          "velocity": 0.8661417322834646,
          "duration": 0.19583333333333997
        },
        {
          "name": "C#2",
          "midi": 37,
          "time": 82.00000000000031,
          "velocity": 0.3543307086614173,
          "duration": 0.19583333333333997
        },
        {
          "name": "E2",
          "midi": 40,
          "time": 82.00000000000031,
          "velocity": 0.3543307086614173,
          "duration": 0.19583333333333997
        },
        {
          "name": "D4",
          "midi": 62,
          "time": 82.20000000000032,
          "velocity": 0.8661417322834646,
          "duration": 0.19583333333332575
        },
        {
          "name": "F4",
          "midi": 65,
          "time": 82.20000000000032,
          "velocity": 0.8661417322834646,
          "duration": 0.19583333333332575
        },
        {
          "name": "G4",
          "midi": 67,
          "time": 82.20000000000032,
          "velocity": 0.8661417322834646,
          "duration": 0.19583333333332575
        },
        {
          "name": "D4",
          "midi": 62,
          "time": 82.20000000000032,
          "velocity": 0.8661417322834646,
          "duration": 0.19583333333332575
        },
        {
          "name": "F4",
          "midi": 65,
          "time": 82.20000000000032,
          "velocity": 0.8661417322834646,
          "duration": 0.19583333333332575
        },
        {
          "name": "C#2",
          "midi": 37,
          "time": 82.20000000000032,
          "velocity": 0.3543307086614173,
          "duration": 0.19583333333332575
        },
        {
          "name": "E2",
          "midi": 40,
          "time": 82.20000000000032,
          "velocity": 0.3543307086614173,
          "duration": 0.19583333333332575
        },
        {
          "name": "F4",
          "midi": 65,
          "time": 82.4000000000003,
          "velocity": 0.8661417322834646,
          "duration": 0.19583333333333997
        },
        {
          "name": "D4",
          "midi": 62,
          "time": 82.4000000000003,
          "velocity": 0.8661417322834646,
          "duration": 0.19583333333333997
        },
        {
          "name": "F4",
          "midi": 65,
          "time": 82.4000000000003,
          "velocity": 0.8661417322834646,
          "duration": 0.19583333333333997
        },
        {
          "name": "G2",
          "midi": 43,
          "time": 82.4000000000003,
          "velocity": 0.8661417322834646,
          "duration": 0.3333333333333428
        },
        {
          "name": "A1",
          "midi": 33,
          "time": 82.4000000000003,
          "velocity": 0.8661417322834646,
          "duration": 0.3333333333333428
        },
        {
          "name": "F4",
          "midi": 65,
          "time": 82.4000000000003,
          "velocity": 0.8661417322834646,
          "duration": 0.19583333333333997
        },
        {
          "name": "D4",
          "midi": 62,
          "time": 82.4000000000003,
          "velocity": 0.8661417322834646,
          "duration": 0.19583333333333997
        },
        {
          "name": "F4",
          "midi": 65,
          "time": 82.4000000000003,
          "velocity": 0.8661417322834646,
          "duration": 0.19583333333333997
        },
        {
          "name": "C#2",
          "midi": 37,
          "time": 82.4000000000003,
          "velocity": 0.3543307086614173,
          "duration": 0.19583333333333997
        },
        {
          "name": "E2",
          "midi": 40,
          "time": 82.4000000000003,
          "velocity": 0.3543307086614173,
          "duration": 0.19583333333333997
        },
        {
          "name": "G4",
          "midi": 67,
          "time": 82.6000000000003,
          "velocity": 0.8661417322834646,
          "duration": 0.19583333333333997
        },
        {
          "name": "A3",
          "midi": 57,
          "time": 82.6000000000003,
          "velocity": 0.8661417322834646,
          "duration": 0.19583333333333997
        },
        {
          "name": "D4",
          "midi": 62,
          "time": 82.6000000000003,
          "velocity": 0.8661417322834646,
          "duration": 0.19583333333333997
        },
        {
          "name": "F4",
          "midi": 65,
          "time": 82.6000000000003,
          "velocity": 0.8661417322834646,
          "duration": 0.19583333333333997
        },
        {
          "name": "E4",
          "midi": 64,
          "time": 82.6000000000003,
          "velocity": 0.8661417322834646,
          "duration": 0.19583333333333997
        },
        {
          "name": "A3",
          "midi": 57,
          "time": 82.6000000000003,
          "velocity": 0.8661417322834646,
          "duration": 0.19583333333333997
        },
        {
          "name": "D4",
          "midi": 62,
          "time": 82.6000000000003,
          "velocity": 0.8661417322834646,
          "duration": 0.19583333333333997
        },
        {
          "name": "F4",
          "midi": 65,
          "time": 82.6000000000003,
          "velocity": 0.8661417322834646,
          "duration": 0.19583333333333997
        },
        {
          "name": "C#2",
          "midi": 37,
          "time": 82.6000000000003,
          "velocity": 0.3543307086614173,
          "duration": 0.19583333333333997
        },
        {
          "name": "E2",
          "midi": 40,
          "time": 82.6000000000003,
          "velocity": 0.3543307086614173,
          "duration": 0.19583333333333997
        },
        {
          "name": "A4",
          "midi": 69,
          "time": 82.80000000000031,
          "velocity": 0.8661417322834646,
          "duration": 0.5333333333333314
        },
        {
          "name": "A3",
          "midi": 57,
          "time": 82.80000000000031,
          "velocity": 0.8661417322834646,
          "duration": 0.19583333333333997
        },
        {
          "name": "D4",
          "midi": 62,
          "time": 82.80000000000031,
          "velocity": 0.8661417322834646,
          "duration": 0.19583333333333997
        },
        {
          "name": "F4",
          "midi": 65,
          "time": 82.80000000000031,
          "velocity": 0.8661417322834646,
          "duration": 0.19583333333333997
        },
        {
          "name": "D3",
          "midi": 50,
          "time": 82.80000000000031,
          "velocity": 0.8661417322834646,
          "duration": 0.3333333333333286
        },
        {
          "name": "D2",
          "midi": 38,
          "time": 82.80000000000031,
          "velocity": 0.8661417322834646,
          "duration": 0.3333333333333286
        },
        {
          "name": "D4",
          "midi": 62,
          "time": 82.80000000000031,
          "velocity": 0.8661417322834646,
          "duration": 0.19583333333333997
        },
        {
          "name": "A3",
          "midi": 57,
          "time": 82.80000000000031,
          "velocity": 0.8661417322834646,
          "duration": 0.19583333333333997
        },
        {
          "name": "D4",
          "midi": 62,
          "time": 82.80000000000031,
          "velocity": 0.8661417322834646,
          "duration": 0.2958333333333343
        },
        {
          "name": "F4",
          "midi": 65,
          "time": 82.80000000000031,
          "velocity": 0.8661417322834646,
          "duration": 0.19583333333333997
        },
        {
          "name": "C#2",
          "midi": 37,
          "time": 82.80000000000031,
          "velocity": 0.3543307086614173,
          "duration": 0.19583333333333997
        },
        {
          "name": "E2",
          "midi": 40,
          "time": 82.80000000000031,
          "velocity": 0.3543307086614173,
          "duration": 0.19583333333333997
        },
        {
          "name": "A3",
          "midi": 57,
          "time": 83.00000000000031,
          "velocity": 0.8661417322834646,
          "duration": 0.09583333333333144
        },
        {
          "name": "D4",
          "midi": 62,
          "time": 83.00000000000031,
          "velocity": 0.8661417322834646,
          "duration": 0.09583333333333144
        },
        {
          "name": "F4",
          "midi": 65,
          "time": 83.00000000000031,
          "velocity": 0.8661417322834646,
          "duration": 0.09583333333333144
        },
        {
          "name": "A3",
          "midi": 57,
          "time": 83.00000000000031,
          "velocity": 0.8661417322834646,
          "duration": 0.09583333333333144
        },
        {
          "name": "D4",
          "midi": 62,
          "time": 83.00000000000031,
          "velocity": 0.8661417322834646,
          "duration": 0.19583333333332575
        },
        {
          "name": "F4",
          "midi": 65,
          "time": 83.00000000000031,
          "velocity": 0.8661417322834646,
          "duration": 0.09583333333333144
        },
        {
          "name": "C#2",
          "midi": 37,
          "time": 83.00000000000031,
          "velocity": 0.3543307086614173,
          "duration": 0.09583333333333144
        },
        {
          "name": "E2",
          "midi": 40,
          "time": 83.00000000000031,
          "velocity": 0.3543307086614173,
          "duration": 0.09583333333333144
        },
        {
          "name": "A3",
          "midi": 57,
          "time": 83.1000000000003,
          "velocity": 0.8661417322834646,
          "duration": 0.09583333333333144
        },
        {
          "name": "D4",
          "midi": 62,
          "time": 83.1000000000003,
          "velocity": 0.8661417322834646,
          "duration": 0.09583333333333144
        },
        {
          "name": "F4",
          "midi": 65,
          "time": 83.1000000000003,
          "velocity": 0.8661417322834646,
          "duration": 0.09583333333333144
        },
        {
          "name": "A3",
          "midi": 57,
          "time": 83.1000000000003,
          "velocity": 0.8661417322834646,
          "duration": 0.09583333333333144
        },
        {
          "name": "D4",
          "midi": 62,
          "time": 83.1000000000003,
          "velocity": 0.8661417322834646,
          "duration": 0.2958333333333343
        },
        {
          "name": "F4",
          "midi": 65,
          "time": 83.1000000000003,
          "velocity": 0.8661417322834646,
          "duration": 0.09583333333333144
        },
        {
          "name": "C#2",
          "midi": 37,
          "time": 83.1000000000003,
          "velocity": 0.3543307086614173,
          "duration": 0.09583333333333144
        },
        {
          "name": "E2",
          "midi": 40,
          "time": 83.1000000000003,
          "velocity": 0.3543307086614173,
          "duration": 0.09583333333333144
        },
        {
          "name": "A3",
          "midi": 57,
          "time": 83.2000000000003,
          "velocity": 0.8661417322834646,
          "duration": 0.19583333333333997
        },
        {
          "name": "D4",
          "midi": 62,
          "time": 83.2000000000003,
          "velocity": 0.8661417322834646,
          "duration": 0.19583333333333997
        },
        {
          "name": "F4",
          "midi": 65,
          "time": 83.2000000000003,
          "velocity": 0.8661417322834646,
          "duration": 0.19583333333333997
        },
        {
          "name": "A3",
          "midi": 57,
          "time": 83.2000000000003,
          "velocity": 0.8661417322834646,
          "duration": 0.19583333333333997
        },
        {
          "name": "D4",
          "midi": 62,
          "time": 83.2000000000003,
          "velocity": 0.8661417322834646,
          "duration": 0.3958333333333428
        },
        {
          "name": "F4",
          "midi": 65,
          "time": 83.2000000000003,
          "velocity": 0.8661417322834646,
          "duration": 0.19583333333333997
        },
        {
          "name": "C#2",
          "midi": 37,
          "time": 83.2000000000003,
          "velocity": 0.3543307086614173,
          "duration": 0.19583333333333997
        },
        {
          "name": "E2",
          "midi": 40,
          "time": 83.2000000000003,
          "velocity": 0.3543307086614173,
          "duration": 0.19583333333333997
        },
        {
          "name": "A#4",
          "midi": 70,
          "time": 83.4000000000003,
          "velocity": 0.8661417322834646,
          "duration": 0.3958333333333428
        },
        {
          "name": "D4",
          "midi": 62,
          "time": 83.4000000000003,
          "velocity": 0.8661417322834646,
          "duration": 0.19583333333333997
        },
        {
          "name": "F4",
          "midi": 65,
          "time": 83.4000000000003,
          "velocity": 0.8661417322834646,
          "duration": 0.19583333333333997
        },
        {
          "name": "A2",
          "midi": 45,
          "time": 83.4000000000003,
          "velocity": 0.8661417322834646,
          "duration": 0.3958333333333428
        },
        {
          "name": "D4",
          "midi": 62,
          "time": 83.4000000000003,
          "velocity": 0.8661417322834646,
          "duration": 0.3958333333333428
        },
        {
          "name": "F4",
          "midi": 65,
          "time": 83.4000000000003,
          "velocity": 0.8661417322834646,
          "duration": 0.19583333333333997
        },
        {
          "name": "C#2",
          "midi": 37,
          "time": 83.4000000000003,
          "velocity": 0.3543307086614173,
          "duration": 0.19583333333333997
        },
        {
          "name": "E2",
          "midi": 40,
          "time": 83.4000000000003,
          "velocity": 0.3543307086614173,
          "duration": 0.19583333333333997
        },
        {
          "name": "D4",
          "midi": 62,
          "time": 83.6000000000003,
          "velocity": 0.8661417322834646,
          "duration": 0.19583333333333997
        },
        {
          "name": "F4",
          "midi": 65,
          "time": 83.6000000000003,
          "velocity": 0.8661417322834646,
          "duration": 0.19583333333333997
        },
        {
          "name": "A2",
          "midi": 45,
          "time": 83.6000000000003,
          "velocity": 0.8661417322834646,
          "duration": 0.3333333333333428
        },
        {
          "name": "D4",
          "midi": 62,
          "time": 83.6000000000003,
          "velocity": 0.8661417322834646,
          "duration": 0.3958333333333428
        },
        {
          "name": "F4",
          "midi": 65,
          "time": 83.6000000000003,
          "velocity": 0.8661417322834646,
          "duration": 0.19583333333333997
        },
        {
          "name": "C#2",
          "midi": 37,
          "time": 83.6000000000003,
          "velocity": 0.3543307086614173,
          "duration": 0.19583333333333997
        },
        {
          "name": "E2",
          "midi": 40,
          "time": 83.6000000000003,
          "velocity": 0.3543307086614173,
          "duration": 0.19583333333333997
        },
        {
          "name": "A4",
          "midi": 69,
          "time": 83.80000000000031,
          "velocity": 0.8661417322834646,
          "duration": 0.19583333333333997
        },
        {
          "name": "A3",
          "midi": 57,
          "time": 83.80000000000031,
          "velocity": 0.8661417322834646,
          "duration": 0.19583333333333997
        },
        {
          "name": "D4",
          "midi": 62,
          "time": 83.80000000000031,
          "velocity": 0.8661417322834646,
          "duration": 0.19583333333333997
        },
        {
          "name": "F4",
          "midi": 65,
          "time": 83.80000000000031,
          "velocity": 0.8661417322834646,
          "duration": 0.19583333333333997
        },
        {
          "name": "A1",
          "midi": 33,
          "time": 83.80000000000031,
          "velocity": 0.8661417322834646,
          "duration": 0.19583333333333997
        },
        {
          "name": "A3",
          "midi": 57,
          "time": 83.80000000000031,
          "velocity": 0.8661417322834646,
          "duration": 0.19583333333333997
        },
        {
          "name": "D4",
          "midi": 62,
          "time": 83.80000000000031,
          "velocity": 0.8661417322834646,
          "duration": 0.3958333333333428
        },
        {
          "name": "F4",
          "midi": 65,
          "time": 83.80000000000031,
          "velocity": 0.8661417322834646,
          "duration": 0.19583333333333997
        },
        {
          "name": "C#2",
          "midi": 37,
          "time": 83.80000000000031,
          "velocity": 0.3543307086614173,
          "duration": 0.19583333333333997
        },
        {
          "name": "E2",
          "midi": 40,
          "time": 83.80000000000031,
          "velocity": 0.3543307086614173,
          "duration": 0.19583333333333997
        },
        {
          "name": "G4",
          "midi": 67,
          "time": 84.00000000000031,
          "velocity": 0.8661417322834646,
          "duration": 0.3333333333333286
        },
        {
          "name": "A3",
          "midi": 57,
          "time": 84.00000000000031,
          "velocity": 0.8661417322834646,
          "duration": 0.19583333333333997
        },
        {
          "name": "D4",
          "midi": 62,
          "time": 84.00000000000031,
          "velocity": 0.8661417322834646,
          "duration": 0.19583333333333997
        },
        {
          "name": "F4",
          "midi": 65,
          "time": 84.00000000000031,
          "velocity": 0.8661417322834646,
          "duration": 0.19583333333333997
        },
        {
          "name": "D3",
          "midi": 50,
          "time": 84.00000000000031,
          "velocity": 0.8661417322834646,
          "duration": 0.3333333333333286
        },
        {
          "name": "D2",
          "midi": 38,
          "time": 84.00000000000031,
          "velocity": 0.8661417322834646,
          "duration": 0.3333333333333286
        },
        {
          "name": "A3",
          "midi": 57,
          "time": 84.00000000000031,
          "velocity": 0.8661417322834646,
          "duration": 0.19583333333333997
        },
        {
          "name": "D4",
          "midi": 62,
          "time": 84.00000000000031,
          "velocity": 0.8661417322834646,
          "duration": 0.2958333333333343
        },
        {
          "name": "E2",
          "midi": 40,
          "time": 84.00000000000031,
          "velocity": 0.3543307086614173,
          "duration": 0.19583333333333997
        },
        {
          "name": "C#2",
          "midi": 37,
          "time": 84.00000000000031,
          "velocity": 0.3543307086614173,
          "duration": 0.19583333333333997
        },
        {
          "name": "F4",
          "midi": 65,
          "time": 84.00000000000031,
          "velocity": 0.8661417322834646,
          "duration": 0.19583333333333997
        },
        {
          "name": "F4",
          "midi": 65,
          "time": 84.20000000000032,
          "velocity": 0.8661417322834646,
          "duration": 0.09583333333333144
        },
        {
          "name": "D4",
          "midi": 62,
          "time": 84.20000000000032,
          "velocity": 0.8661417322834646,
          "duration": 0.09583333333333144
        },
        {
          "name": "A3",
          "midi": 57,
          "time": 84.20000000000032,
          "velocity": 0.8661417322834646,
          "duration": 0.09583333333333144
        },
        {
          "name": "A3",
          "midi": 57,
          "time": 84.20000000000032,
          "velocity": 0.8661417322834646,
          "duration": 0.09583333333333144
        },
        {
          "name": "D4",
          "midi": 62,
          "time": 84.20000000000032,
          "velocity": 0.8661417322834646,
          "duration": 0.19583333333332575
        },
        {
          "name": "F4",
          "midi": 65,
          "time": 84.20000000000032,
          "velocity": 0.8661417322834646,
          "duration": 0.09583333333333144
        },
        {
          "name": "C#2",
          "midi": 37,
          "time": 84.20000000000032,
          "velocity": 0.3543307086614173,
          "duration": 0.09583333333333144
        },
        {
          "name": "E2",
          "midi": 40,
          "time": 84.20000000000032,
          "velocity": 0.3543307086614173,
          "duration": 0.09583333333333144
        },
        {
          "name": "A3",
          "midi": 57,
          "time": 84.30000000000031,
          "velocity": 0.8661417322834646,
          "duration": 0.09583333333333144
        },
        {
          "name": "D4",
          "midi": 62,
          "time": 84.30000000000031,
          "velocity": 0.8661417322834646,
          "duration": 0.09583333333333144
        },
        {
          "name": "F4",
          "midi": 65,
          "time": 84.30000000000031,
          "velocity": 0.8661417322834646,
          "duration": 0.09583333333333144
        },
        {
          "name": "A3",
          "midi": 57,
          "time": 84.30000000000031,
          "velocity": 0.8661417322834646,
          "duration": 0.09583333333333144
        },
        {
          "name": "D4",
          "midi": 62,
          "time": 84.30000000000031,
          "velocity": 0.8661417322834646,
          "duration": 0.2958333333333343
        },
        {
          "name": "F4",
          "midi": 65,
          "time": 84.30000000000031,
          "velocity": 0.8661417322834646,
          "duration": 0.09583333333333144
        },
        {
          "name": "C#2",
          "midi": 37,
          "time": 84.30000000000031,
          "velocity": 0.3543307086614173,
          "duration": 0.09583333333333144
        },
        {
          "name": "E2",
          "midi": 40,
          "time": 84.30000000000031,
          "velocity": 0.3543307086614173,
          "duration": 0.09583333333333144
        },
        {
          "name": "F4",
          "midi": 65,
          "time": 84.4000000000003,
          "velocity": 0.8661417322834646,
          "duration": 0.19583333333333997
        },
        {
          "name": "A3",
          "midi": 57,
          "time": 84.4000000000003,
          "velocity": 0.8661417322834646,
          "duration": 0.19583333333333997
        },
        {
          "name": "D4",
          "midi": 62,
          "time": 84.4000000000003,
          "velocity": 0.8661417322834646,
          "duration": 0.19583333333333997
        },
        {
          "name": "F4",
          "midi": 65,
          "time": 84.4000000000003,
          "velocity": 0.8661417322834646,
          "duration": 0.19583333333333997
        },
        {
          "name": "A2",
          "midi": 45,
          "time": 84.4000000000003,
          "velocity": 0.8661417322834646,
          "duration": 0.3333333333333428
        },
        {
          "name": "A3",
          "midi": 57,
          "time": 84.4000000000003,
          "velocity": 0.8661417322834646,
          "duration": 0.19583333333333997
        },
        {
          "name": "D4",
          "midi": 62,
          "time": 84.4000000000003,
          "velocity": 0.8661417322834646,
          "duration": 0.3958333333333428
        },
        {
          "name": "F4",
          "midi": 65,
          "time": 84.4000000000003,
          "velocity": 0.8661417322834646,
          "duration": 0.3333333333333428
        },
        {
          "name": "C#2",
          "midi": 37,
          "time": 84.4000000000003,
          "velocity": 0.3543307086614173,
          "duration": 0.19583333333333997
        },
        {
          "name": "E2",
          "midi": 40,
          "time": 84.4000000000003,
          "velocity": 0.3543307086614173,
          "duration": 0.19583333333333997
        },
        {
          "name": "D4",
          "midi": 62,
          "time": 84.6000000000003,
          "velocity": 0.8661417322834646,
          "duration": 0.19583333333333997
        },
        {
          "name": "F4",
          "midi": 65,
          "time": 84.6000000000003,
          "velocity": 0.8661417322834646,
          "duration": 0.19583333333333997
        },
        {
          "name": "D4",
          "midi": 62,
          "time": 84.6000000000003,
          "velocity": 0.8661417322834646,
          "duration": 0.3958333333333428
        },
        {
          "name": "F4",
          "midi": 65,
          "time": 84.6000000000003,
          "velocity": 0.8661417322834646,
          "duration": 0.19583333333333997
        },
        {
          "name": "C#2",
          "midi": 37,
          "time": 84.6000000000003,
          "velocity": 0.3543307086614173,
          "duration": 0.19583333333333997
        },
        {
          "name": "E2",
          "midi": 40,
          "time": 84.6000000000003,
          "velocity": 0.3543307086614173,
          "duration": 0.19583333333333997
        },
        {
          "name": "G4",
          "midi": 67,
          "time": 84.80000000000031,
          "velocity": 0.8661417322834646,
          "duration": 0.3333333333333286
        },
        {
          "name": "D4",
          "midi": 62,
          "time": 84.80000000000031,
          "velocity": 0.8661417322834646,
          "duration": 0.19583333333333997
        },
        {
          "name": "F4",
          "midi": 65,
          "time": 84.80000000000031,
          "velocity": 0.8661417322834646,
          "duration": 0.19583333333333997
        },
        {
          "name": "A2",
          "midi": 45,
          "time": 84.80000000000031,
          "velocity": 0.8661417322834646,
          "duration": 0.3333333333333286
        },
        {
          "name": "A1",
          "midi": 33,
          "time": 84.80000000000031,
          "velocity": 0.8661417322834646,
          "duration": 0.3333333333333286
        },
        {
          "name": "D4",
          "midi": 62,
          "time": 84.80000000000031,
          "velocity": 0.8661417322834646,
          "duration": 0.29999999999999716
        },
        {
          "name": "F4",
          "midi": 65,
          "time": 84.80000000000031,
          "velocity": 0.8661417322834646,
          "duration": 0.19583333333333997
        },
        {
          "name": "C#2",
          "midi": 37,
          "time": 84.80000000000031,
          "velocity": 0.3543307086614173,
          "duration": 0.19583333333333997
        },
        {
          "name": "E2",
          "midi": 40,
          "time": 84.80000000000031,
          "velocity": 0.3543307086614173,
          "duration": 0.19583333333333997
        },
        {
          "name": "A3",
          "midi": 57,
          "time": 85.00000000000031,
          "velocity": 0.8661417322834646,
          "duration": 0.19583333333332575
        },
        {
          "name": "D4",
          "midi": 62,
          "time": 85.00000000000031,
          "velocity": 0.8661417322834646,
          "duration": 0.19583333333332575
        },
        {
          "name": "F4",
          "midi": 65,
          "time": 85.00000000000031,
          "velocity": 0.8661417322834646,
          "duration": 0.19583333333332575
        },
        {
          "name": "A3",
          "midi": 57,
          "time": 85.00000000000031,
          "velocity": 0.8661417322834646,
          "duration": 0.19583333333332575
        },
        {
          "name": "D4",
          "midi": 62,
          "time": 85.00000000000031,
          "velocity": 0.8661417322834646,
          "duration": 0.19583333333332575
        },
        {
          "name": "F4",
          "midi": 65,
          "time": 85.00000000000031,
          "velocity": 0.8661417322834646,
          "duration": 0.19583333333332575
        },
        {
          "name": "C#2",
          "midi": 37,
          "time": 85.00000000000031,
          "velocity": 0.3543307086614173,
          "duration": 0.19583333333332575
        },
        {
          "name": "E2",
          "midi": 40,
          "time": 85.00000000000031,
          "velocity": 0.3543307086614173,
          "duration": 0.19583333333332575
        },
        {
          "name": "E4",
          "midi": 64,
          "time": 85.2000000000003,
          "velocity": 0.8661417322834646,
          "duration": 1.3958333333333428
        },
        {
          "name": "A#3",
          "midi": 58,
          "time": 85.2000000000003,
          "velocity": 0.8661417322834646,
          "duration": 0.19583333333333997
        },
        {
          "name": "D4",
          "midi": 62,
          "time": 85.2000000000003,
          "velocity": 0.8661417322834646,
          "duration": 0.19583333333333997
        },
        {
          "name": "G4",
          "midi": 67,
          "time": 85.2000000000003,
          "velocity": 0.8661417322834646,
          "duration": 0.19583333333333997
        },
        {
          "name": "A#2",
          "midi": 46,
          "time": 85.2000000000003,
          "velocity": 0.8661417322834646,
          "duration": 0.3333333333333286
        },
        {
          "name": "A#1",
          "midi": 34,
          "time": 85.2000000000003,
          "velocity": 0.8661417322834646,
          "duration": 0.3333333333333286
        },
        {
          "name": "A#3",
          "midi": 58,
          "time": 85.2000000000003,
          "velocity": 0.8661417322834646,
          "duration": 0.19583333333333997
        },
        {
          "name": "D4",
          "midi": 62,
          "time": 85.2000000000003,
          "velocity": 0.8661417322834646,
          "duration": 0.19583333333333997
        },
        {
          "name": "G4",
          "midi": 67,
          "time": 85.2000000000003,
          "velocity": 0.8661417322834646,
          "duration": 0.19583333333333997
        },
        {
          "name": "C#2",
          "midi": 37,
          "time": 85.2000000000003,
          "velocity": 0.3543307086614173,
          "duration": 0.19583333333333997
        },
        {
          "name": "E2",
          "midi": 40,
          "time": 85.2000000000003,
          "velocity": 0.3543307086614173,
          "duration": 0.19583333333333997
        },
        {
          "name": "A#3",
          "midi": 58,
          "time": 85.4000000000003,
          "velocity": 0.8661417322834646,
          "duration": 0.09583333333333144
        },
        {
          "name": "D4",
          "midi": 62,
          "time": 85.4000000000003,
          "velocity": 0.8661417322834646,
          "duration": 0.09583333333333144
        },
        {
          "name": "G4",
          "midi": 67,
          "time": 85.4000000000003,
          "velocity": 0.8661417322834646,
          "duration": 0.09583333333333144
        },
        {
          "name": "A#3",
          "midi": 58,
          "time": 85.4000000000003,
          "velocity": 0.8661417322834646,
          "duration": 0.09583333333333144
        },
        {
          "name": "D4",
          "midi": 62,
          "time": 85.4000000000003,
          "velocity": 0.8661417322834646,
          "duration": 0.09583333333333144
        },
        {
          "name": "G4",
          "midi": 67,
          "time": 85.4000000000003,
          "velocity": 0.8661417322834646,
          "duration": 0.09583333333333144
        },
        {
          "name": "C#2",
          "midi": 37,
          "time": 85.4000000000003,
          "velocity": 0.3543307086614173,
          "duration": 0.09583333333333144
        },
        {
          "name": "E2",
          "midi": 40,
          "time": 85.4000000000003,
          "velocity": 0.3543307086614173,
          "duration": 0.09583333333333144
        },
        {
          "name": "A#3",
          "midi": 58,
          "time": 85.5000000000003,
          "velocity": 0.8661417322834646,
          "duration": 0.09583333333333144
        },
        {
          "name": "D4",
          "midi": 62,
          "time": 85.5000000000003,
          "velocity": 0.8661417322834646,
          "duration": 0.09583333333333144
        },
        {
          "name": "G4",
          "midi": 67,
          "time": 85.5000000000003,
          "velocity": 0.8661417322834646,
          "duration": 0.09583333333333144
        },
        {
          "name": "A#3",
          "midi": 58,
          "time": 85.5000000000003,
          "velocity": 0.8661417322834646,
          "duration": 0.09583333333333144
        },
        {
          "name": "D4",
          "midi": 62,
          "time": 85.5000000000003,
          "velocity": 0.8661417322834646,
          "duration": 0.09583333333333144
        },
        {
          "name": "G4",
          "midi": 67,
          "time": 85.5000000000003,
          "velocity": 0.8661417322834646,
          "duration": 0.09583333333333144
        },
        {
          "name": "C#2",
          "midi": 37,
          "time": 85.5000000000003,
          "velocity": 0.3543307086614173,
          "duration": 0.09583333333333144
        },
        {
          "name": "E2",
          "midi": 40,
          "time": 85.5000000000003,
          "velocity": 0.3543307086614173,
          "duration": 0.09583333333333144
        },
        {
          "name": "A#3",
          "midi": 58,
          "time": 85.60000000000029,
          "velocity": 0.8661417322834646,
          "duration": 0.19583333333333997
        },
        {
          "name": "D4",
          "midi": 62,
          "time": 85.60000000000029,
          "velocity": 0.8661417322834646,
          "duration": 0.19583333333333997
        },
        {
          "name": "G4",
          "midi": 67,
          "time": 85.60000000000029,
          "velocity": 0.8661417322834646,
          "duration": 0.19583333333333997
        },
        {
          "name": "A#3",
          "midi": 58,
          "time": 85.60000000000029,
          "velocity": 0.8661417322834646,
          "duration": 0.19583333333333997
        },
        {
          "name": "D4",
          "midi": 62,
          "time": 85.60000000000029,
          "velocity": 0.8661417322834646,
          "duration": 0.19583333333333997
        },
        {
          "name": "G4",
          "midi": 67,
          "time": 85.60000000000029,
          "velocity": 0.8661417322834646,
          "duration": 0.19583333333333997
        },
        {
          "name": "C#2",
          "midi": 37,
          "time": 85.60000000000029,
          "velocity": 0.3543307086614173,
          "duration": 0.19583333333333997
        },
        {
          "name": "E2",
          "midi": 40,
          "time": 85.60000000000029,
          "velocity": 0.3543307086614173,
          "duration": 0.19583333333333997
        },
        {
          "name": "A#3",
          "midi": 58,
          "time": 85.8000000000003,
          "velocity": 0.8661417322834646,
          "duration": 0.19583333333333997
        },
        {
          "name": "D4",
          "midi": 62,
          "time": 85.8000000000003,
          "velocity": 0.8661417322834646,
          "duration": 0.19583333333333997
        },
        {
          "name": "G4",
          "midi": 67,
          "time": 85.8000000000003,
          "velocity": 0.8661417322834646,
          "duration": 0.19583333333333997
        },
        {
          "name": "A#2",
          "midi": 46,
          "time": 85.8000000000003,
          "velocity": 0.8661417322834646,
          "duration": 0.3333333333333428
        },
        {
          "name": "E1",
          "midi": 28,
          "time": 85.8000000000003,
          "velocity": 0.8661417322834646,
          "duration": 0.3958333333333428
        },
        {
          "name": "A#3",
          "midi": 58,
          "time": 85.8000000000003,
          "velocity": 0.8661417322834646,
          "duration": 0.19583333333333997
        },
        {
          "name": "D4",
          "midi": 62,
          "time": 85.8000000000003,
          "velocity": 0.8661417322834646,
          "duration": 0.19583333333333997
        },
        {
          "name": "G4",
          "midi": 67,
          "time": 85.8000000000003,
          "velocity": 0.8661417322834646,
          "duration": 0.19583333333333997
        },
        {
          "name": "C#2",
          "midi": 37,
          "time": 85.8000000000003,
          "velocity": 0.3543307086614173,
          "duration": 0.19583333333333997
        },
        {
          "name": "E2",
          "midi": 40,
          "time": 85.8000000000003,
          "velocity": 0.3543307086614173,
          "duration": 0.19583333333333997
        },
        {
          "name": "A#3",
          "midi": 58,
          "time": 86.0000000000003,
          "velocity": 0.8661417322834646,
          "duration": 0.19583333333333997
        },
        {
          "name": "D4",
          "midi": 62,
          "time": 86.0000000000003,
          "velocity": 0.8661417322834646,
          "duration": 0.19583333333333997
        },
        {
          "name": "G4",
          "midi": 67,
          "time": 86.0000000000003,
          "velocity": 0.8661417322834646,
          "duration": 0.19583333333333997
        },
        {
          "name": "A#3",
          "midi": 58,
          "time": 86.0000000000003,
          "velocity": 0.8661417322834646,
          "duration": 0.19583333333333997
        },
        {
          "name": "D4",
          "midi": 62,
          "time": 86.0000000000003,
          "velocity": 0.8661417322834646,
          "duration": 0.19583333333333997
        },
        {
          "name": "G4",
          "midi": 67,
          "time": 86.0000000000003,
          "velocity": 0.8661417322834646,
          "duration": 0.19583333333333997
        },
        {
          "name": "C#2",
          "midi": 37,
          "time": 86.0000000000003,
          "velocity": 0.3543307086614173,
          "duration": 0.19583333333333997
        },
        {
          "name": "E2",
          "midi": 40,
          "time": 86.0000000000003,
          "velocity": 0.3543307086614173,
          "duration": 0.19583333333333997
        },
        {
          "name": "A#3",
          "midi": 58,
          "time": 86.2000000000003,
          "velocity": 0.8661417322834646,
          "duration": 0.19583333333333997
        },
        {
          "name": "D4",
          "midi": 62,
          "time": 86.2000000000003,
          "velocity": 0.8661417322834646,
          "duration": 0.19583333333333997
        },
        {
          "name": "G4",
          "midi": 67,
          "time": 86.2000000000003,
          "velocity": 0.8661417322834646,
          "duration": 0.19583333333333997
        },
        {
          "name": "A#2",
          "midi": 46,
          "time": 86.2000000000003,
          "velocity": 0.8661417322834646,
          "duration": 0.19583333333333997
        },
        {
          "name": "A#1",
          "midi": 34,
          "time": 86.2000000000003,
          "velocity": 0.8661417322834646,
          "duration": 0.19583333333333997
        },
        {
          "name": "A#3",
          "midi": 58,
          "time": 86.2000000000003,
          "velocity": 0.8661417322834646,
          "duration": 0.19583333333333997
        },
        {
          "name": "D4",
          "midi": 62,
          "time": 86.2000000000003,
          "velocity": 0.8661417322834646,
          "duration": 0.19583333333333997
        },
        {
          "name": "G4",
          "midi": 67,
          "time": 86.2000000000003,
          "velocity": 0.8661417322834646,
          "duration": 0.19583333333333997
        },
        {
          "name": "C#2",
          "midi": 37,
          "time": 86.2000000000003,
          "velocity": 0.3543307086614173,
          "duration": 0.19583333333333997
        },
        {
          "name": "E2",
          "midi": 40,
          "time": 86.2000000000003,
          "velocity": 0.3543307086614173,
          "duration": 0.19583333333333997
        },
        {
          "name": "A3",
          "midi": 57,
          "time": 86.4000000000003,
          "velocity": 0.8661417322834646,
          "duration": 0.19583333333333997
        },
        {
          "name": "C#4",
          "midi": 61,
          "time": 86.4000000000003,
          "velocity": 0.8661417322834646,
          "duration": 0.19583333333333997
        },
        {
          "name": "E4",
          "midi": 64,
          "time": 86.4000000000003,
          "velocity": 0.8661417322834646,
          "duration": 0.19583333333333997
        },
        {
          "name": "G4",
          "midi": 67,
          "time": 86.4000000000003,
          "velocity": 0.8661417322834646,
          "duration": 0.19583333333333997
        },
        {
          "name": "A2",
          "midi": 45,
          "time": 86.4000000000003,
          "velocity": 0.8661417322834646,
          "duration": 0.3333333333333286
        },
        {
          "name": "A1",
          "midi": 33,
          "time": 86.4000000000003,
          "velocity": 0.8661417322834646,
          "duration": 0.3333333333333286
        },
        {
          "name": "A3",
          "midi": 57,
          "time": 86.4000000000003,
          "velocity": 0.8661417322834646,
          "duration": 0.19583333333333997
        },
        {
          "name": "C#4",
          "midi": 61,
          "time": 86.4000000000003,
          "velocity": 0.8661417322834646,
          "duration": 0.19583333333333997
        },
        {
          "name": "E4",
          "midi": 64,
          "time": 86.4000000000003,
          "velocity": 0.8661417322834646,
          "duration": 0.2958333333333343
        },
        {
          "name": "G4",
          "midi": 67,
          "time": 86.4000000000003,
          "velocity": 0.8661417322834646,
          "duration": 0.19583333333333997
        },
        {
          "name": "C#2",
          "midi": 37,
          "time": 86.4000000000003,
          "velocity": 0.3543307086614173,
          "duration": 0.19583333333333997
        },
        {
          "name": "E2",
          "midi": 40,
          "time": 86.4000000000003,
          "velocity": 0.3543307086614173,
          "duration": 0.19583333333333997
        },
        {
          "name": "A3",
          "midi": 57,
          "time": 86.6000000000003,
          "velocity": 0.8661417322834646,
          "duration": 0.09583333333333144
        },
        {
          "name": "C#4",
          "midi": 61,
          "time": 86.6000000000003,
          "velocity": 0.8661417322834646,
          "duration": 0.09583333333333144
        },
        {
          "name": "E4",
          "midi": 64,
          "time": 86.6000000000003,
          "velocity": 0.8661417322834646,
          "duration": 0.09583333333333144
        },
        {
          "name": "G4",
          "midi": 67,
          "time": 86.6000000000003,
          "velocity": 0.8661417322834646,
          "duration": 0.09583333333333144
        },
        {
          "name": "A3",
          "midi": 57,
          "time": 86.6000000000003,
          "velocity": 0.8661417322834646,
          "duration": 0.09583333333333144
        },
        {
          "name": "C#4",
          "midi": 61,
          "time": 86.6000000000003,
          "velocity": 0.8661417322834646,
          "duration": 0.09583333333333144
        },
        {
          "name": "E4",
          "midi": 64,
          "time": 86.6000000000003,
          "velocity": 0.8661417322834646,
          "duration": 0.13333333333332575
        },
        {
          "name": "G4",
          "midi": 67,
          "time": 86.6000000000003,
          "velocity": 0.8661417322834646,
          "duration": 0.09583333333333144
        },
        {
          "name": "C#2",
          "midi": 37,
          "time": 86.6000000000003,
          "velocity": 0.3543307086614173,
          "duration": 0.09583333333333144
        },
        {
          "name": "E2",
          "midi": 40,
          "time": 86.6000000000003,
          "velocity": 0.3543307086614173,
          "duration": 0.09583333333333144
        },
        {
          "name": "A3",
          "midi": 57,
          "time": 86.7000000000003,
          "velocity": 0.8661417322834646,
          "duration": 0.09583333333333144
        },
        {
          "name": "C#4",
          "midi": 61,
          "time": 86.7000000000003,
          "velocity": 0.8661417322834646,
          "duration": 0.09583333333333144
        },
        {
          "name": "E4",
          "midi": 64,
          "time": 86.7000000000003,
          "velocity": 0.8661417322834646,
          "duration": 0.09583333333333144
        },
        {
          "name": "G4",
          "midi": 67,
          "time": 86.7000000000003,
          "velocity": 0.8661417322834646,
          "duration": 0.09583333333333144
        },
        {
          "name": "A3",
          "midi": 57,
          "time": 86.7000000000003,
          "velocity": 0.8661417322834646,
          "duration": 0.09583333333333144
        },
        {
          "name": "C#4",
          "midi": 61,
          "time": 86.7000000000003,
          "velocity": 0.8661417322834646,
          "duration": 0.09583333333333144
        },
        {
          "name": "E4",
          "midi": 64,
          "time": 86.7000000000003,
          "velocity": 0.8661417322834646,
          "duration": 0.09583333333333144
        },
        {
          "name": "G4",
          "midi": 67,
          "time": 86.7000000000003,
          "velocity": 0.8661417322834646,
          "duration": 0.09583333333333144
        },
        {
          "name": "C#2",
          "midi": 37,
          "time": 86.7000000000003,
          "velocity": 0.3543307086614173,
          "duration": 0.09583333333333144
        },
        {
          "name": "E2",
          "midi": 40,
          "time": 86.7000000000003,
          "velocity": 0.3543307086614173,
          "duration": 0.09583333333333144
        },
        {
          "name": "C#4",
          "midi": 61,
          "time": 86.8000000000003,
          "velocity": 0.8661417322834646,
          "duration": 0.19583333333332575
        },
        {
          "name": "E4",
          "midi": 64,
          "time": 86.8000000000003,
          "velocity": 0.8661417322834646,
          "duration": 0.19583333333332575
        },
        {
          "name": "G4",
          "midi": 67,
          "time": 86.8000000000003,
          "velocity": 0.8661417322834646,
          "duration": 0.19583333333332575
        },
        {
          "name": "A1",
          "midi": 33,
          "time": 86.8000000000003,
          "velocity": 0.8661417322834646,
          "duration": 0.09999999999999432
        },
        {
          "name": "A2",
          "midi": 45,
          "time": 86.8000000000003,
          "velocity": 0.8661417322834646,
          "duration": 0.3333333333333286
        },
        {
          "name": "C#4",
          "midi": 61,
          "time": 86.8000000000003,
          "velocity": 0.8661417322834646,
          "duration": 0.19583333333332575
        },
        {
          "name": "E4",
          "midi": 64,
          "time": 86.8000000000003,
          "velocity": 0.8661417322834646,
          "duration": 0.19583333333332575
        },
        {
          "name": "G4",
          "midi": 67,
          "time": 86.8000000000003,
          "velocity": 0.8661417322834646,
          "duration": 0.19583333333332575
        },
        {
          "name": "C#2",
          "midi": 37,
          "time": 86.8000000000003,
          "velocity": 0.3543307086614173,
          "duration": 0.19583333333332575
        },
        {
          "name": "E2",
          "midi": 40,
          "time": 86.8000000000003,
          "velocity": 0.3543307086614173,
          "duration": 0.19583333333332575
        },
        {
          "name": "C#4",
          "midi": 61,
          "time": 87.00000000000028,
          "velocity": 0.8661417322834646,
          "duration": 0.19583333333333997
        },
        {
          "name": "E4",
          "midi": 64,
          "time": 87.00000000000028,
          "velocity": 0.8661417322834646,
          "duration": 0.19583333333333997
        },
        {
          "name": "G4",
          "midi": 67,
          "time": 87.00000000000028,
          "velocity": 0.8661417322834646,
          "duration": 0.19583333333333997
        },
        {
          "name": "C#4",
          "midi": 61,
          "time": 87.00000000000028,
          "velocity": 0.8661417322834646,
          "duration": 0.19583333333333997
        },
        {
          "name": "E4",
          "midi": 64,
          "time": 87.00000000000028,
          "velocity": 0.8661417322834646,
          "duration": 0.19583333333333997
        },
        {
          "name": "G4",
          "midi": 67,
          "time": 87.00000000000028,
          "velocity": 0.8661417322834646,
          "duration": 0.19583333333333997
        },
        {
          "name": "C#2",
          "midi": 37,
          "time": 87.00000000000028,
          "velocity": 0.3543307086614173,
          "duration": 0.19583333333333997
        },
        {
          "name": "E2",
          "midi": 40,
          "time": 87.00000000000028,
          "velocity": 0.3543307086614173,
          "duration": 0.19583333333333997
        },
        {
          "name": "D4",
          "midi": 62,
          "time": 87.20000000000029,
          "velocity": 0.8661417322834646,
          "duration": 0.19583333333333997
        },
        {
          "name": "A3",
          "midi": 57,
          "time": 87.20000000000029,
          "velocity": 0.8661417322834646,
          "duration": 0.19583333333333997
        },
        {
          "name": "D4",
          "midi": 62,
          "time": 87.20000000000029,
          "velocity": 0.8661417322834646,
          "duration": 0.19583333333333997
        },
        {
          "name": "F4",
          "midi": 65,
          "time": 87.20000000000029,
          "velocity": 0.8661417322834646,
          "duration": 0.19583333333333997
        },
        {
          "name": "A1",
          "midi": 33,
          "time": 87.20000000000029,
          "velocity": 0.8661417322834646,
          "duration": 0.3333333333333428
        },
        {
          "name": "A3",
          "midi": 57,
          "time": 87.20000000000029,
          "velocity": 0.8661417322834646,
          "duration": 0.19583333333333997
        },
        {
          "name": "D4",
          "midi": 62,
          "time": 87.20000000000029,
          "velocity": 0.8661417322834646,
          "duration": 0.19583333333333997
        },
        {
          "name": "F4",
          "midi": 65,
          "time": 87.20000000000029,
          "velocity": 0.8661417322834646,
          "duration": 0.19583333333333997
        },
        {
          "name": "C#2",
          "midi": 37,
          "time": 87.20000000000029,
          "velocity": 0.3543307086614173,
          "duration": 0.19583333333333997
        },
        {
          "name": "E2",
          "midi": 40,
          "time": 87.20000000000029,
          "velocity": 0.3543307086614173,
          "duration": 0.19583333333333997
        },
        {
          "name": "F4",
          "midi": 65,
          "time": 87.40000000000029,
          "velocity": 0.8661417322834646,
          "duration": 0.19583333333333997
        },
        {
          "name": "A3",
          "midi": 57,
          "time": 87.40000000000029,
          "velocity": 0.8661417322834646,
          "duration": 0.19583333333333997
        },
        {
          "name": "D4",
          "midi": 62,
          "time": 87.40000000000029,
          "velocity": 0.8661417322834646,
          "duration": 0.19583333333333997
        },
        {
          "name": "F4",
          "midi": 65,
          "time": 87.40000000000029,
          "velocity": 0.8661417322834646,
          "duration": 0.19583333333333997
        },
        {
          "name": "A3",
          "midi": 57,
          "time": 87.40000000000029,
          "velocity": 0.8661417322834646,
          "duration": 0.19583333333333997
        },
        {
          "name": "D4",
          "midi": 62,
          "time": 87.40000000000029,
          "velocity": 0.8661417322834646,
          "duration": 0.19583333333333997
        },
        {
          "name": "F4",
          "midi": 65,
          "time": 87.40000000000029,
          "velocity": 0.8661417322834646,
          "duration": 0.19583333333333997
        },
        {
          "name": "C#2",
          "midi": 37,
          "time": 87.40000000000029,
          "velocity": 0.3543307086614173,
          "duration": 0.19583333333333997
        },
        {
          "name": "E2",
          "midi": 40,
          "time": 87.40000000000029,
          "velocity": 0.3543307086614173,
          "duration": 0.19583333333333997
        },
        {
          "name": "A4",
          "midi": 69,
          "time": 87.60000000000029,
          "velocity": 0.8661417322834646,
          "duration": 0.5333333333333314
        },
        {
          "name": "A3",
          "midi": 57,
          "time": 87.60000000000029,
          "velocity": 0.8661417322834646,
          "duration": 0.19583333333333997
        },
        {
          "name": "D4",
          "midi": 62,
          "time": 87.60000000000029,
          "velocity": 0.8661417322834646,
          "duration": 0.19583333333333997
        },
        {
          "name": "F4",
          "midi": 65,
          "time": 87.60000000000029,
          "velocity": 0.8661417322834646,
          "duration": 0.19583333333333997
        },
        {
          "name": "D3",
          "midi": 50,
          "time": 87.60000000000029,
          "velocity": 0.8661417322834646,
          "duration": 0.3333333333333286
        },
        {
          "name": "D1",
          "midi": 26,
          "time": 87.60000000000029,
          "velocity": 0.8661417322834646,
          "duration": 0.3333333333333286
        },
        {
          "name": "D2",
          "midi": 38,
          "time": 87.60000000000029,
          "velocity": 0.8661417322834646,
          "duration": 0.3333333333333286
        },
        {
          "name": "A3",
          "midi": 57,
          "time": 87.60000000000029,
          "velocity": 0.8661417322834646,
          "duration": 0.19583333333333997
        },
        {
          "name": "D4",
          "midi": 62,
          "time": 87.60000000000029,
          "velocity": 0.8661417322834646,
          "duration": 0.19583333333333997
        },
        {
          "name": "F4",
          "midi": 65,
          "time": 87.60000000000029,
          "velocity": 0.8661417322834646,
          "duration": 0.19583333333333997
        },
        {
          "name": "C#2",
          "midi": 37,
          "time": 87.60000000000029,
          "velocity": 0.3543307086614173,
          "duration": 0.19583333333333997
        },
        {
          "name": "E2",
          "midi": 40,
          "time": 87.60000000000029,
          "velocity": 0.3543307086614173,
          "duration": 0.19583333333333997
        },
        {
          "name": "A3",
          "midi": 57,
          "time": 87.8000000000003,
          "velocity": 0.8661417322834646,
          "duration": 0.09583333333333144
        },
        {
          "name": "D4",
          "midi": 62,
          "time": 87.8000000000003,
          "velocity": 0.8661417322834646,
          "duration": 0.09583333333333144
        },
        {
          "name": "F4",
          "midi": 65,
          "time": 87.8000000000003,
          "velocity": 0.8661417322834646,
          "duration": 0.09583333333333144
        },
        {
          "name": "A3",
          "midi": 57,
          "time": 87.8000000000003,
          "velocity": 0.8661417322834646,
          "duration": 0.09583333333333144
        },
        {
          "name": "D4",
          "midi": 62,
          "time": 87.8000000000003,
          "velocity": 0.8661417322834646,
          "duration": 0.09583333333333144
        },
        {
          "name": "F4",
          "midi": 65,
          "time": 87.8000000000003,
          "velocity": 0.8661417322834646,
          "duration": 0.09583333333333144
        },
        {
          "name": "C#2",
          "midi": 37,
          "time": 87.8000000000003,
          "velocity": 0.3543307086614173,
          "duration": 0.09583333333333144
        },
        {
          "name": "E2",
          "midi": 40,
          "time": 87.8000000000003,
          "velocity": 0.3543307086614173,
          "duration": 0.09583333333333144
        },
        {
          "name": "A3",
          "midi": 57,
          "time": 87.90000000000029,
          "velocity": 0.8661417322834646,
          "duration": 0.09583333333333144
        },
        {
          "name": "D4",
          "midi": 62,
          "time": 87.90000000000029,
          "velocity": 0.8661417322834646,
          "duration": 0.09583333333333144
        },
        {
          "name": "F4",
          "midi": 65,
          "time": 87.90000000000029,
          "velocity": 0.8661417322834646,
          "duration": 0.09583333333333144
        },
        {
          "name": "A3",
          "midi": 57,
          "time": 87.90000000000029,
          "velocity": 0.8661417322834646,
          "duration": 0.09583333333333144
        },
        {
          "name": "D4",
          "midi": 62,
          "time": 87.90000000000029,
          "velocity": 0.8661417322834646,
          "duration": 0.09583333333333144
        },
        {
          "name": "F4",
          "midi": 65,
          "time": 87.90000000000029,
          "velocity": 0.8661417322834646,
          "duration": 0.09583333333333144
        },
        {
          "name": "C#2",
          "midi": 37,
          "time": 87.90000000000029,
          "velocity": 0.3543307086614173,
          "duration": 0.09583333333333144
        },
        {
          "name": "E2",
          "midi": 40,
          "time": 87.90000000000029,
          "velocity": 0.3543307086614173,
          "duration": 0.09583333333333144
        },
        {
          "name": "A3",
          "midi": 57,
          "time": 88.00000000000028,
          "velocity": 0.8661417322834646,
          "duration": 0.19583333333333997
        },
        {
          "name": "D4",
          "midi": 62,
          "time": 88.00000000000028,
          "velocity": 0.8661417322834646,
          "duration": 0.19583333333333997
        },
        {
          "name": "F4",
          "midi": 65,
          "time": 88.00000000000028,
          "velocity": 0.8661417322834646,
          "duration": 0.19583333333333997
        },
        {
          "name": "A3",
          "midi": 57,
          "time": 88.00000000000028,
          "velocity": 0.8661417322834646,
          "duration": 0.19583333333333997
        },
        {
          "name": "D4",
          "midi": 62,
          "time": 88.00000000000028,
          "velocity": 0.8661417322834646,
          "duration": 0.19583333333333997
        },
        {
          "name": "F4",
          "midi": 65,
          "time": 88.00000000000028,
          "velocity": 0.8661417322834646,
          "duration": 0.19583333333333997
        },
        {
          "name": "C#2",
          "midi": 37,
          "time": 88.00000000000028,
          "velocity": 0.3543307086614173,
          "duration": 0.19583333333333997
        },
        {
          "name": "E2",
          "midi": 40,
          "time": 88.00000000000028,
          "velocity": 0.3543307086614173,
          "duration": 0.19583333333333997
        },
        {
          "name": "D4",
          "midi": 62,
          "time": 88.20000000000029,
          "velocity": 0.8661417322834646,
          "duration": 0.3958333333333428
        },
        {
          "name": "D4",
          "midi": 62,
          "time": 88.20000000000029,
          "velocity": 0.8661417322834646,
          "duration": 0.3958333333333428
        },
        {
          "name": "F4",
          "midi": 65,
          "time": 88.20000000000029,
          "velocity": 0.8661417322834646,
          "duration": 0.3958333333333428
        },
        {
          "name": "A2",
          "midi": 45,
          "time": 88.20000000000029,
          "velocity": 0.8661417322834646,
          "duration": 0.3958333333333428
        },
        {
          "name": "D4",
          "midi": 62,
          "time": 88.20000000000029,
          "velocity": 0.8661417322834646,
          "duration": 0.3958333333333428
        },
        {
          "name": "F4",
          "midi": 65,
          "time": 88.20000000000029,
          "velocity": 0.8661417322834646,
          "duration": 0.3958333333333428
        },
        {
          "name": "C#2",
          "midi": 37,
          "time": 88.20000000000029,
          "velocity": 0.3543307086614173,
          "duration": 0.19583333333333997
        },
        {
          "name": "E2",
          "midi": 40,
          "time": 88.20000000000029,
          "velocity": 0.3543307086614173,
          "duration": 0.19583333333333997
        },
        {
          "name": "A2",
          "midi": 45,
          "time": 88.40000000000029,
          "velocity": 0.8661417322834646,
          "duration": 0.3333333333333428
        },
        {
          "name": "C#2",
          "midi": 37,
          "time": 88.40000000000029,
          "velocity": 0.3543307086614173,
          "duration": 0.19583333333333997
        },
        {
          "name": "E2",
          "midi": 40,
          "time": 88.40000000000029,
          "velocity": 0.3543307086614173,
          "duration": 0.19583333333333997
        },
        {
          "name": "F4",
          "midi": 65,
          "time": 88.60000000000029,
          "velocity": 0.8661417322834646,
          "duration": 0.19583333333333997
        },
        {
          "name": "A3",
          "midi": 57,
          "time": 88.60000000000029,
          "velocity": 0.8661417322834646,
          "duration": 0.19583333333333997
        },
        {
          "name": "D4",
          "midi": 62,
          "time": 88.60000000000029,
          "velocity": 0.8661417322834646,
          "duration": 0.19583333333333997
        },
        {
          "name": "F4",
          "midi": 65,
          "time": 88.60000000000029,
          "velocity": 0.8661417322834646,
          "duration": 0.19583333333333997
        },
        {
          "name": "A1",
          "midi": 33,
          "time": 88.60000000000029,
          "velocity": 0.8661417322834646,
          "duration": 0.19583333333333997
        },
        {
          "name": "A3",
          "midi": 57,
          "time": 88.60000000000029,
          "velocity": 0.8661417322834646,
          "duration": 0.19583333333333997
        },
        {
          "name": "D4",
          "midi": 62,
          "time": 88.60000000000029,
          "velocity": 0.8661417322834646,
          "duration": 0.19583333333333997
        },
        {
          "name": "F4",
          "midi": 65,
          "time": 88.60000000000029,
          "velocity": 0.8661417322834646,
          "duration": 0.19583333333333997
        },
        {
          "name": "C#2",
          "midi": 37,
          "time": 88.60000000000029,
          "velocity": 0.3543307086614173,
          "duration": 0.19583333333333997
        },
        {
          "name": "E2",
          "midi": 40,
          "time": 88.60000000000029,
          "velocity": 0.3543307086614173,
          "duration": 0.19583333333333997
        },
        {
          "name": "A4",
          "midi": 69,
          "time": 88.8000000000003,
          "velocity": 0.8661417322834646,
          "duration": 0.3333333333333286
        },
        {
          "name": "A3",
          "midi": 57,
          "time": 88.8000000000003,
          "velocity": 0.8661417322834646,
          "duration": 0.19583333333333997
        },
        {
          "name": "D4",
          "midi": 62,
          "time": 88.8000000000003,
          "velocity": 0.8661417322834646,
          "duration": 0.19583333333333997
        },
        {
          "name": "F4",
          "midi": 65,
          "time": 88.8000000000003,
          "velocity": 0.8661417322834646,
          "duration": 0.19583333333333997
        },
        {
          "name": "D3",
          "midi": 50,
          "time": 88.8000000000003,
          "velocity": 0.8661417322834646,
          "duration": 0.3333333333333286
        },
        {
          "name": "D2",
          "midi": 38,
          "time": 88.8000000000003,
          "velocity": 0.8661417322834646,
          "duration": 0.3333333333333286
        },
        {
          "name": "A3",
          "midi": 57,
          "time": 88.8000000000003,
          "velocity": 0.8661417322834646,
          "duration": 0.19583333333333997
        },
        {
          "name": "D4",
          "midi": 62,
          "time": 88.8000000000003,
          "velocity": 0.8661417322834646,
          "duration": 0.19583333333333997
        },
        {
          "name": "F4",
          "midi": 65,
          "time": 88.8000000000003,
          "velocity": 0.8661417322834646,
          "duration": 0.19583333333333997
        },
        {
          "name": "C#2",
          "midi": 37,
          "time": 88.8000000000003,
          "velocity": 0.3543307086614173,
          "duration": 0.19583333333333997
        },
        {
          "name": "E2",
          "midi": 40,
          "time": 88.8000000000003,
          "velocity": 0.3543307086614173,
          "duration": 0.19583333333333997
        },
        {
          "name": "A3",
          "midi": 57,
          "time": 89.0000000000003,
          "velocity": 0.8661417322834646,
          "duration": 0.09583333333333144
        },
        {
          "name": "D4",
          "midi": 62,
          "time": 89.0000000000003,
          "velocity": 0.8661417322834646,
          "duration": 0.09583333333333144
        },
        {
          "name": "F4",
          "midi": 65,
          "time": 89.0000000000003,
          "velocity": 0.8661417322834646,
          "duration": 0.09583333333333144
        },
        {
          "name": "A3",
          "midi": 57,
          "time": 89.0000000000003,
          "velocity": 0.8661417322834646,
          "duration": 0.09583333333333144
        },
        {
          "name": "D4",
          "midi": 62,
          "time": 89.0000000000003,
          "velocity": 0.8661417322834646,
          "duration": 0.09583333333333144
        },
        {
          "name": "F4",
          "midi": 65,
          "time": 89.0000000000003,
          "velocity": 0.8661417322834646,
          "duration": 0.09583333333333144
        },
        {
          "name": "C#2",
          "midi": 37,
          "time": 89.0000000000003,
          "velocity": 0.3543307086614173,
          "duration": 0.09583333333333144
        },
        {
          "name": "E2",
          "midi": 40,
          "time": 89.0000000000003,
          "velocity": 0.3543307086614173,
          "duration": 0.09583333333333144
        },
        {
          "name": "A3",
          "midi": 57,
          "time": 89.10000000000029,
          "velocity": 0.8661417322834646,
          "duration": 0.09583333333333144
        },
        {
          "name": "D4",
          "midi": 62,
          "time": 89.10000000000029,
          "velocity": 0.8661417322834646,
          "duration": 0.09583333333333144
        },
        {
          "name": "F4",
          "midi": 65,
          "time": 89.10000000000029,
          "velocity": 0.8661417322834646,
          "duration": 0.09583333333333144
        },
        {
          "name": "A3",
          "midi": 57,
          "time": 89.10000000000029,
          "velocity": 0.8661417322834646,
          "duration": 0.09583333333333144
        },
        {
          "name": "D4",
          "midi": 62,
          "time": 89.10000000000029,
          "velocity": 0.8661417322834646,
          "duration": 0.09583333333333144
        },
        {
          "name": "F4",
          "midi": 65,
          "time": 89.10000000000029,
          "velocity": 0.8661417322834646,
          "duration": 0.09583333333333144
        },
        {
          "name": "C#2",
          "midi": 37,
          "time": 89.10000000000029,
          "velocity": 0.3543307086614173,
          "duration": 0.09583333333333144
        },
        {
          "name": "E2",
          "midi": 40,
          "time": 89.10000000000029,
          "velocity": 0.3543307086614173,
          "duration": 0.09583333333333144
        },
        {
          "name": "A#4",
          "midi": 70,
          "time": 89.20000000000029,
          "velocity": 0.8661417322834646,
          "duration": 0.3333333333333428
        },
        {
          "name": "A3",
          "midi": 57,
          "time": 89.20000000000029,
          "velocity": 0.8661417322834646,
          "duration": 0.19583333333333997
        },
        {
          "name": "D4",
          "midi": 62,
          "time": 89.20000000000029,
          "velocity": 0.8661417322834646,
          "duration": 0.19583333333333997
        },
        {
          "name": "F4",
          "midi": 65,
          "time": 89.20000000000029,
          "velocity": 0.8661417322834646,
          "duration": 0.19583333333333997
        },
        {
          "name": "A1",
          "midi": 33,
          "time": 89.20000000000029,
          "velocity": 0.8661417322834646,
          "duration": 0.3333333333333428
        },
        {
          "name": "A3",
          "midi": 57,
          "time": 89.20000000000029,
          "velocity": 0.8661417322834646,
          "duration": 0.19583333333333997
        },
        {
          "name": "D4",
          "midi": 62,
          "time": 89.20000000000029,
          "velocity": 0.8661417322834646,
          "duration": 0.19583333333333997
        },
        {
          "name": "F4",
          "midi": 65,
          "time": 89.20000000000029,
          "velocity": 0.8661417322834646,
          "duration": 0.19583333333333997
        },
        {
          "name": "C#2",
          "midi": 37,
          "time": 89.20000000000029,
          "velocity": 0.3543307086614173,
          "duration": 0.19583333333333997
        },
        {
          "name": "E2",
          "midi": 40,
          "time": 89.20000000000029,
          "velocity": 0.3543307086614173,
          "duration": 0.19583333333333997
        },
        {
          "name": "A3",
          "midi": 57,
          "time": 89.40000000000029,
          "velocity": 0.8661417322834646,
          "duration": 0.19583333333333997
        },
        {
          "name": "D4",
          "midi": 62,
          "time": 89.40000000000029,
          "velocity": 0.8661417322834646,
          "duration": 0.19583333333333997
        },
        {
          "name": "F4",
          "midi": 65,
          "time": 89.40000000000029,
          "velocity": 0.8661417322834646,
          "duration": 0.19583333333333997
        },
        {
          "name": "A3",
          "midi": 57,
          "time": 89.40000000000029,
          "velocity": 0.8661417322834646,
          "duration": 0.19583333333333997
        },
        {
          "name": "D4",
          "midi": 62,
          "time": 89.40000000000029,
          "velocity": 0.8661417322834646,
          "duration": 0.19583333333333997
        },
        {
          "name": "F4",
          "midi": 65,
          "time": 89.40000000000029,
          "velocity": 0.8661417322834646,
          "duration": 0.19583333333333997
        },
        {
          "name": "C#2",
          "midi": 37,
          "time": 89.40000000000029,
          "velocity": 0.3543307086614173,
          "duration": 0.19583333333333997
        },
        {
          "name": "E2",
          "midi": 40,
          "time": 89.40000000000029,
          "velocity": 0.3543307086614173,
          "duration": 0.19583333333333997
        },
        {
          "name": "A4",
          "midi": 69,
          "time": 89.60000000000029,
          "velocity": 0.8661417322834646,
          "duration": 0.3333333333333428
        },
        {
          "name": "A3",
          "midi": 57,
          "time": 89.60000000000029,
          "velocity": 0.8661417322834646,
          "duration": 0.19583333333333997
        },
        {
          "name": "D4",
          "midi": 62,
          "time": 89.60000000000029,
          "velocity": 0.8661417322834646,
          "duration": 0.19583333333333997
        },
        {
          "name": "F4",
          "midi": 65,
          "time": 89.60000000000029,
          "velocity": 0.8661417322834646,
          "duration": 0.19583333333333997
        },
        {
          "name": "A2",
          "midi": 45,
          "time": 89.60000000000029,
          "velocity": 0.8661417322834646,
          "duration": 0.3333333333333428
        },
        {
          "name": "D1",
          "midi": 26,
          "time": 89.60000000000029,
          "velocity": 0.8661417322834646,
          "duration": 0.3333333333333428
        },
        {
          "name": "A3",
          "midi": 57,
          "time": 89.60000000000029,
          "velocity": 0.8661417322834646,
          "duration": 0.19583333333333997
        },
        {
          "name": "D4",
          "midi": 62,
          "time": 89.60000000000029,
          "velocity": 0.8661417322834646,
          "duration": 0.19583333333333997
        },
        {
          "name": "F4",
          "midi": 65,
          "time": 89.60000000000029,
          "velocity": 0.8661417322834646,
          "duration": 0.19583333333333997
        },
        {
          "name": "C#2",
          "midi": 37,
          "time": 89.60000000000029,
          "velocity": 0.3543307086614173,
          "duration": 0.19583333333333997
        },
        {
          "name": "E2",
          "midi": 40,
          "time": 89.60000000000029,
          "velocity": 0.3543307086614173,
          "duration": 0.19583333333333997
        },
        {
          "name": "A3",
          "midi": 57,
          "time": 89.8000000000003,
          "velocity": 0.8661417322834646,
          "duration": 0.19583333333333997
        },
        {
          "name": "D4",
          "midi": 62,
          "time": 89.8000000000003,
          "velocity": 0.8661417322834646,
          "duration": 0.19583333333333997
        },
        {
          "name": "F4",
          "midi": 65,
          "time": 89.8000000000003,
          "velocity": 0.8661417322834646,
          "duration": 0.19583333333333997
        },
        {
          "name": "A3",
          "midi": 57,
          "time": 89.8000000000003,
          "velocity": 0.8661417322834646,
          "duration": 0.19583333333333997
        },
        {
          "name": "D4",
          "midi": 62,
          "time": 89.8000000000003,
          "velocity": 0.8661417322834646,
          "duration": 0.19583333333333997
        },
        {
          "name": "F4",
          "midi": 65,
          "time": 89.8000000000003,
          "velocity": 0.8661417322834646,
          "duration": 0.19583333333333997
        },
        {
          "name": "C#2",
          "midi": 37,
          "time": 89.8000000000003,
          "velocity": 0.3543307086614173,
          "duration": 0.19583333333333997
        },
        {
          "name": "E2",
          "midi": 40,
          "time": 89.8000000000003,
          "velocity": 0.3543307086614173,
          "duration": 0.19583333333333997
        },
        {
          "name": "C5",
          "midi": 72,
          "time": 90.0000000000003,
          "velocity": 0.8661417322834646,
          "duration": 0.5333333333333314
        },
        {
          "name": "A#3",
          "midi": 58,
          "time": 90.0000000000003,
          "velocity": 0.8661417322834646,
          "duration": 0.19583333333333997
        },
        {
          "name": "D4",
          "midi": 62,
          "time": 90.0000000000003,
          "velocity": 0.8661417322834646,
          "duration": 0.19583333333333997
        },
        {
          "name": "G4",
          "midi": 67,
          "time": 90.0000000000003,
          "velocity": 0.8661417322834646,
          "duration": 0.19583333333333997
        },
        {
          "name": "G2",
          "midi": 43,
          "time": 90.0000000000003,
          "velocity": 0.8661417322834646,
          "duration": 0.3333333333333286
        },
        {
          "name": "G1",
          "midi": 31,
          "time": 90.0000000000003,
          "velocity": 0.8661417322834646,
          "duration": 0.3333333333333286
        },
        {
          "name": "A#3",
          "midi": 58,
          "time": 90.0000000000003,
          "velocity": 0.8661417322834646,
          "duration": 0.19583333333333997
        },
        {
          "name": "D4",
          "midi": 62,
          "time": 90.0000000000003,
          "velocity": 0.8661417322834646,
          "duration": 0.19583333333333997
        },
        {
          "name": "G4",
          "midi": 67,
          "time": 90.0000000000003,
          "velocity": 0.8661417322834646,
          "duration": 0.19583333333333997
        },
        {
          "name": "C#2",
          "midi": 37,
          "time": 90.0000000000003,
          "velocity": 0.3543307086614173,
          "duration": 0.19583333333333997
        },
        {
          "name": "E2",
          "midi": 40,
          "time": 90.0000000000003,
          "velocity": 0.3543307086614173,
          "duration": 0.19583333333333997
        },
        {
          "name": "A#3",
          "midi": 58,
          "time": 90.2000000000003,
          "velocity": 0.8661417322834646,
          "duration": 0.09583333333333144
        },
        {
          "name": "D4",
          "midi": 62,
          "time": 90.2000000000003,
          "velocity": 0.8661417322834646,
          "duration": 0.09583333333333144
        },
        {
          "name": "G4",
          "midi": 67,
          "time": 90.2000000000003,
          "velocity": 0.8661417322834646,
          "duration": 0.09583333333333144
        },
        {
          "name": "A#3",
          "midi": 58,
          "time": 90.2000000000003,
          "velocity": 0.8661417322834646,
          "duration": 0.09583333333333144
        },
        {
          "name": "D4",
          "midi": 62,
          "time": 90.2000000000003,
          "velocity": 0.8661417322834646,
          "duration": 0.09583333333333144
        },
        {
          "name": "G4",
          "midi": 67,
          "time": 90.2000000000003,
          "velocity": 0.8661417322834646,
          "duration": 0.09583333333333144
        },
        {
          "name": "C#2",
          "midi": 37,
          "time": 90.2000000000003,
          "velocity": 0.3543307086614173,
          "duration": 0.09583333333333144
        },
        {
          "name": "E2",
          "midi": 40,
          "time": 90.2000000000003,
          "velocity": 0.3543307086614173,
          "duration": 0.09583333333333144
        },
        {
          "name": "A#3",
          "midi": 58,
          "time": 90.3000000000003,
          "velocity": 0.8661417322834646,
          "duration": 0.09583333333333144
        },
        {
          "name": "D4",
          "midi": 62,
          "time": 90.3000000000003,
          "velocity": 0.8661417322834646,
          "duration": 0.09583333333333144
        },
        {
          "name": "G4",
          "midi": 67,
          "time": 90.3000000000003,
          "velocity": 0.8661417322834646,
          "duration": 0.09583333333333144
        },
        {
          "name": "A#3",
          "midi": 58,
          "time": 90.3000000000003,
          "velocity": 0.8661417322834646,
          "duration": 0.09583333333333144
        },
        {
          "name": "D4",
          "midi": 62,
          "time": 90.3000000000003,
          "velocity": 0.8661417322834646,
          "duration": 0.09583333333333144
        },
        {
          "name": "G4",
          "midi": 67,
          "time": 90.3000000000003,
          "velocity": 0.8661417322834646,
          "duration": 0.09583333333333144
        },
        {
          "name": "C#2",
          "midi": 37,
          "time": 90.3000000000003,
          "velocity": 0.3543307086614173,
          "duration": 0.09583333333333144
        },
        {
          "name": "E2",
          "midi": 40,
          "time": 90.3000000000003,
          "velocity": 0.3543307086614173,
          "duration": 0.09583333333333144
        },
        {
          "name": "A#3",
          "midi": 58,
          "time": 90.40000000000029,
          "velocity": 0.8661417322834646,
          "duration": 0.19583333333333997
        },
        {
          "name": "D4",
          "midi": 62,
          "time": 90.40000000000029,
          "velocity": 0.8661417322834646,
          "duration": 0.19583333333333997
        },
        {
          "name": "G4",
          "midi": 67,
          "time": 90.40000000000029,
          "velocity": 0.8661417322834646,
          "duration": 0.19583333333333997
        },
        {
          "name": "A#3",
          "midi": 58,
          "time": 90.40000000000029,
          "velocity": 0.8661417322834646,
          "duration": 0.19583333333333997
        },
        {
          "name": "D4",
          "midi": 62,
          "time": 90.40000000000029,
          "velocity": 0.8661417322834646,
          "duration": 0.19583333333333997
        },
        {
          "name": "G4",
          "midi": 67,
          "time": 90.40000000000029,
          "velocity": 0.8661417322834646,
          "duration": 0.19583333333333997
        },
        {
          "name": "C#2",
          "midi": 37,
          "time": 90.40000000000029,
          "velocity": 0.3543307086614173,
          "duration": 0.19583333333333997
        },
        {
          "name": "E2",
          "midi": 40,
          "time": 90.40000000000029,
          "velocity": 0.3543307086614173,
          "duration": 0.19583333333333997
        },
        {
          "name": "A#4",
          "midi": 70,
          "time": 90.60000000000029,
          "velocity": 0.8661417322834646,
          "duration": 0.3958333333333428
        },
        {
          "name": "A#3",
          "midi": 58,
          "time": 90.60000000000029,
          "velocity": 0.8661417322834646,
          "duration": 0.3958333333333428
        },
        {
          "name": "D4",
          "midi": 62,
          "time": 90.60000000000029,
          "velocity": 0.8661417322834646,
          "duration": 0.3958333333333428
        },
        {
          "name": "G4",
          "midi": 67,
          "time": 90.60000000000029,
          "velocity": 0.8661417322834646,
          "duration": 0.3958333333333428
        },
        {
          "name": "D2",
          "midi": 38,
          "time": 90.60000000000029,
          "velocity": 0.8661417322834646,
          "duration": 0.3958333333333428
        },
        {
          "name": "A#3",
          "midi": 58,
          "time": 90.60000000000029,
          "velocity": 0.8661417322834646,
          "duration": 0.3958333333333428
        },
        {
          "name": "D4",
          "midi": 62,
          "time": 90.60000000000029,
          "velocity": 0.8661417322834646,
          "duration": 0.3958333333333428
        },
        {
          "name": "G4",
          "midi": 67,
          "time": 90.60000000000029,
          "velocity": 0.8661417322834646,
          "duration": 0.3958333333333428
        },
        {
          "name": "C#2",
          "midi": 37,
          "time": 90.60000000000029,
          "velocity": 0.3543307086614173,
          "duration": 0.19583333333333997
        },
        {
          "name": "E2",
          "midi": 40,
          "time": 90.60000000000029,
          "velocity": 0.3543307086614173,
          "duration": 0.19583333333333997
        },
        {
          "name": "A#2",
          "midi": 46,
          "time": 90.8000000000003,
          "velocity": 0.8661417322834646,
          "duration": 0.3333333333333428
        },
        {
          "name": "C#2",
          "midi": 37,
          "time": 90.8000000000003,
          "velocity": 0.3543307086614173,
          "duration": 0.19583333333333997
        },
        {
          "name": "E2",
          "midi": 40,
          "time": 90.8000000000003,
          "velocity": 0.3543307086614173,
          "duration": 0.19583333333333997
        },
        {
          "name": "G4",
          "midi": 67,
          "time": 91.0000000000003,
          "velocity": 0.8661417322834646,
          "duration": 0.19583333333333997
        },
        {
          "name": "A#3",
          "midi": 58,
          "time": 91.0000000000003,
          "velocity": 0.8661417322834646,
          "duration": 0.19583333333333997
        },
        {
          "name": "D4",
          "midi": 62,
          "time": 91.0000000000003,
          "velocity": 0.8661417322834646,
          "duration": 0.19583333333333997
        },
        {
          "name": "G4",
          "midi": 67,
          "time": 91.0000000000003,
          "velocity": 0.8661417322834646,
          "duration": 0.19583333333333997
        },
        {
          "name": "G1",
          "midi": 31,
          "time": 91.0000000000003,
          "velocity": 0.8661417322834646,
          "duration": 0.19583333333333997
        },
        {
          "name": "A#3",
          "midi": 58,
          "time": 91.0000000000003,
          "velocity": 0.8661417322834646,
          "duration": 0.19583333333333997
        },
        {
          "name": "D4",
          "midi": 62,
          "time": 91.0000000000003,
          "velocity": 0.8661417322834646,
          "duration": 0.19583333333333997
        },
        {
          "name": "G4",
          "midi": 67,
          "time": 91.0000000000003,
          "velocity": 0.8661417322834646,
          "duration": 0.19583333333333997
        },
        {
          "name": "C#2",
          "midi": 37,
          "time": 91.0000000000003,
          "velocity": 0.3543307086614173,
          "duration": 0.19583333333333997
        },
        {
          "name": "E2",
          "midi": 40,
          "time": 91.0000000000003,
          "velocity": 0.3543307086614173,
          "duration": 0.19583333333333997
        },
        {
          "name": "A4",
          "midi": 69,
          "time": 91.2000000000003,
          "velocity": 0.8661417322834646,
          "duration": 0.6999999999999886
        },
        {
          "name": "A3",
          "midi": 57,
          "time": 91.2000000000003,
          "velocity": 0.8661417322834646,
          "duration": 0.19583333333333997
        },
        {
          "name": "D4",
          "midi": 62,
          "time": 91.2000000000003,
          "velocity": 0.8661417322834646,
          "duration": 0.19583333333333997
        },
        {
          "name": "F4",
          "midi": 65,
          "time": 91.2000000000003,
          "velocity": 0.8661417322834646,
          "duration": 0.19583333333333997
        },
        {
          "name": "D3",
          "midi": 50,
          "time": 91.2000000000003,
          "velocity": 0.8661417322834646,
          "duration": 0.3333333333333286
        },
        {
          "name": "D2",
          "midi": 38,
          "time": 91.2000000000003,
          "velocity": 0.8661417322834646,
          "duration": 0.3333333333333286
        },
        {
          "name": "A3",
          "midi": 57,
          "time": 91.2000000000003,
          "velocity": 0.8661417322834646,
          "duration": 0.19583333333333997
        },
        {
          "name": "D4",
          "midi": 62,
          "time": 91.2000000000003,
          "velocity": 0.8661417322834646,
          "duration": 0.19583333333333997
        },
        {
          "name": "F4",
          "midi": 65,
          "time": 91.2000000000003,
          "velocity": 0.8661417322834646,
          "duration": 0.19583333333333997
        },
        {
          "name": "C#2",
          "midi": 37,
          "time": 91.2000000000003,
          "velocity": 0.3543307086614173,
          "duration": 0.19583333333333997
        },
        {
          "name": "E2",
          "midi": 40,
          "time": 91.2000000000003,
          "velocity": 0.3543307086614173,
          "duration": 0.19583333333333997
        },
        {
          "name": "A3",
          "midi": 57,
          "time": 91.4000000000003,
          "velocity": 0.8661417322834646,
          "duration": 0.09583333333333144
        },
        {
          "name": "D4",
          "midi": 62,
          "time": 91.4000000000003,
          "velocity": 0.8661417322834646,
          "duration": 0.09583333333333144
        },
        {
          "name": "F4",
          "midi": 65,
          "time": 91.4000000000003,
          "velocity": 0.8661417322834646,
          "duration": 0.09583333333333144
        },
        {
          "name": "A3",
          "midi": 57,
          "time": 91.4000000000003,
          "velocity": 0.8661417322834646,
          "duration": 0.09583333333333144
        },
        {
          "name": "D4",
          "midi": 62,
          "time": 91.4000000000003,
          "velocity": 0.8661417322834646,
          "duration": 0.09583333333333144
        },
        {
          "name": "F4",
          "midi": 65,
          "time": 91.4000000000003,
          "velocity": 0.8661417322834646,
          "duration": 0.09583333333333144
        },
        {
          "name": "C#2",
          "midi": 37,
          "time": 91.4000000000003,
          "velocity": 0.3543307086614173,
          "duration": 0.09583333333333144
        },
        {
          "name": "E2",
          "midi": 40,
          "time": 91.4000000000003,
          "velocity": 0.3543307086614173,
          "duration": 0.09583333333333144
        },
        {
          "name": "A3",
          "midi": 57,
          "time": 91.5000000000003,
          "velocity": 0.8661417322834646,
          "duration": 0.09583333333333144
        },
        {
          "name": "D4",
          "midi": 62,
          "time": 91.5000000000003,
          "velocity": 0.8661417322834646,
          "duration": 0.09583333333333144
        },
        {
          "name": "F4",
          "midi": 65,
          "time": 91.5000000000003,
          "velocity": 0.8661417322834646,
          "duration": 0.09583333333333144
        },
        {
          "name": "A3",
          "midi": 57,
          "time": 91.5000000000003,
          "velocity": 0.8661417322834646,
          "duration": 0.09583333333333144
        },
        {
          "name": "D4",
          "midi": 62,
          "time": 91.5000000000003,
          "velocity": 0.8661417322834646,
          "duration": 0.09583333333333144
        },
        {
          "name": "F4",
          "midi": 65,
          "time": 91.5000000000003,
          "velocity": 0.8661417322834646,
          "duration": 0.09583333333333144
        },
        {
          "name": "C#2",
          "midi": 37,
          "time": 91.5000000000003,
          "velocity": 0.3543307086614173,
          "duration": 0.09583333333333144
        },
        {
          "name": "E2",
          "midi": 40,
          "time": 91.5000000000003,
          "velocity": 0.3543307086614173,
          "duration": 0.09583333333333144
        },
        {
          "name": "D4",
          "midi": 62,
          "time": 91.60000000000029,
          "velocity": 0.8661417322834646,
          "duration": 0.19583333333333997
        },
        {
          "name": "F4",
          "midi": 65,
          "time": 91.60000000000029,
          "velocity": 0.8661417322834646,
          "duration": 0.19583333333333997
        },
        {
          "name": "A2",
          "midi": 45,
          "time": 91.60000000000029,
          "velocity": 0.8661417322834646,
          "duration": 0.3333333333333286
        },
        {
          "name": "D4",
          "midi": 62,
          "time": 91.60000000000029,
          "velocity": 0.8661417322834646,
          "duration": 0.19583333333333997
        },
        {
          "name": "F4",
          "midi": 65,
          "time": 91.60000000000029,
          "velocity": 0.8661417322834646,
          "duration": 0.19583333333333997
        },
        {
          "name": "C#2",
          "midi": 37,
          "time": 91.60000000000029,
          "velocity": 0.3543307086614173,
          "duration": 0.19583333333333997
        },
        {
          "name": "E2",
          "midi": 40,
          "time": 91.60000000000029,
          "velocity": 0.3543307086614173,
          "duration": 0.19583333333333997
        },
        {
          "name": "D4",
          "midi": 62,
          "time": 91.8000000000003,
          "velocity": 0.8661417322834646,
          "duration": 0.19583333333332575
        },
        {
          "name": "F4",
          "midi": 65,
          "time": 91.8000000000003,
          "velocity": 0.8661417322834646,
          "duration": 0.19583333333332575
        },
        {
          "name": "D4",
          "midi": 62,
          "time": 91.8000000000003,
          "velocity": 0.8661417322834646,
          "duration": 0.19583333333332575
        },
        {
          "name": "F4",
          "midi": 65,
          "time": 91.8000000000003,
          "velocity": 0.8661417322834646,
          "duration": 0.19583333333332575
        },
        {
          "name": "C#2",
          "midi": 37,
          "time": 91.8000000000003,
          "velocity": 0.3543307086614173,
          "duration": 0.19583333333332575
        },
        {
          "name": "E2",
          "midi": 40,
          "time": 91.8000000000003,
          "velocity": 0.3543307086614173,
          "duration": 0.19583333333332575
        },
        {
          "name": "F4",
          "midi": 65,
          "time": 92.00000000000028,
          "velocity": 0.8661417322834646,
          "duration": 0.19583333333333997
        },
        {
          "name": "A3",
          "midi": 57,
          "time": 92.00000000000028,
          "velocity": 0.8661417322834646,
          "duration": 0.19583333333333997
        },
        {
          "name": "D4",
          "midi": 62,
          "time": 92.00000000000028,
          "velocity": 0.8661417322834646,
          "duration": 0.19583333333333997
        },
        {
          "name": "F4",
          "midi": 65,
          "time": 92.00000000000028,
          "velocity": 0.8661417322834646,
          "duration": 0.19583333333333997
        },
        {
          "name": "A2",
          "midi": 45,
          "time": 92.00000000000028,
          "velocity": 0.8661417322834646,
          "duration": 0.3333333333333428
        },
        {
          "name": "A1",
          "midi": 33,
          "time": 92.00000000000028,
          "velocity": 0.8661417322834646,
          "duration": 0.3333333333333428
        },
        {
          "name": "A3",
          "midi": 57,
          "time": 92.00000000000028,
          "velocity": 0.8661417322834646,
          "duration": 0.19583333333333997
        },
        {
          "name": "D4",
          "midi": 62,
          "time": 92.00000000000028,
          "velocity": 0.8661417322834646,
          "duration": 0.19583333333333997
        },
        {
          "name": "F4",
          "midi": 65,
          "time": 92.00000000000028,
          "velocity": 0.8661417322834646,
          "duration": 0.3333333333333428
        },
        {
          "name": "C#2",
          "midi": 37,
          "time": 92.00000000000028,
          "velocity": 0.3543307086614173,
          "duration": 0.19583333333333997
        },
        {
          "name": "E2",
          "midi": 40,
          "time": 92.00000000000028,
          "velocity": 0.3543307086614173,
          "duration": 0.19583333333333997
        },
        {
          "name": "A3",
          "midi": 57,
          "time": 92.20000000000029,
          "velocity": 0.8661417322834646,
          "duration": 0.19583333333333997
        },
        {
          "name": "D4",
          "midi": 62,
          "time": 92.20000000000029,
          "velocity": 0.8661417322834646,
          "duration": 0.19583333333333997
        },
        {
          "name": "F4",
          "midi": 65,
          "time": 92.20000000000029,
          "velocity": 0.8661417322834646,
          "duration": 0.19583333333333997
        },
        {
          "name": "A3",
          "midi": 57,
          "time": 92.20000000000029,
          "velocity": 0.8661417322834646,
          "duration": 0.19583333333333997
        },
        {
          "name": "D4",
          "midi": 62,
          "time": 92.20000000000029,
          "velocity": 0.8661417322834646,
          "duration": 0.19583333333333997
        },
        {
          "name": "F4",
          "midi": 65,
          "time": 92.20000000000029,
          "velocity": 0.8661417322834646,
          "duration": 0.19583333333333997
        },
        {
          "name": "C#2",
          "midi": 37,
          "time": 92.20000000000029,
          "velocity": 0.3543307086614173,
          "duration": 0.19583333333333997
        },
        {
          "name": "E2",
          "midi": 40,
          "time": 92.20000000000029,
          "velocity": 0.3543307086614173,
          "duration": 0.19583333333333997
        },
        {
          "name": "G4",
          "midi": 67,
          "time": 92.40000000000029,
          "velocity": 0.8661417322834646,
          "duration": 0.5333333333333314
        },
        {
          "name": "G3",
          "midi": 55,
          "time": 92.40000000000029,
          "velocity": 0.8661417322834646,
          "duration": 0.19583333333333997
        },
        {
          "name": "A#3",
          "midi": 58,
          "time": 92.40000000000029,
          "velocity": 0.8661417322834646,
          "duration": 0.19583333333333997
        },
        {
          "name": "D4",
          "midi": 62,
          "time": 92.40000000000029,
          "velocity": 0.8661417322834646,
          "duration": 0.19583333333333997
        },
        {
          "name": "A#2",
          "midi": 46,
          "time": 92.40000000000029,
          "velocity": 0.8661417322834646,
          "duration": 0.3333333333333286
        },
        {
          "name": "A#1",
          "midi": 34,
          "time": 92.40000000000029,
          "velocity": 0.8661417322834646,
          "duration": 0.3333333333333286
        },
        {
          "name": "G3",
          "midi": 55,
          "time": 92.40000000000029,
          "velocity": 0.8661417322834646,
          "duration": 0.19583333333333997
        },
        {
          "name": "A#3",
          "midi": 58,
          "time": 92.40000000000029,
          "velocity": 0.8661417322834646,
          "duration": 0.19583333333333997
        },
        {
          "name": "D4",
          "midi": 62,
          "time": 92.40000000000029,
          "velocity": 0.8661417322834646,
          "duration": 0.19583333333333997
        },
        {
          "name": "C#2",
          "midi": 37,
          "time": 92.40000000000029,
          "velocity": 0.3543307086614173,
          "duration": 0.19583333333333997
        },
        {
          "name": "E2",
          "midi": 40,
          "time": 92.40000000000029,
          "velocity": 0.3543307086614173,
          "duration": 0.19583333333333997
        },
        {
          "name": "G3",
          "midi": 55,
          "time": 92.60000000000029,
          "velocity": 0.8661417322834646,
          "duration": 0.09583333333333144
        },
        {
          "name": "A#3",
          "midi": 58,
          "time": 92.60000000000029,
          "velocity": 0.8661417322834646,
          "duration": 0.09583333333333144
        },
        {
          "name": "D4",
          "midi": 62,
          "time": 92.60000000000029,
          "velocity": 0.8661417322834646,
          "duration": 0.09583333333333144
        },
        {
          "name": "G3",
          "midi": 55,
          "time": 92.60000000000029,
          "velocity": 0.8661417322834646,
          "duration": 0.09583333333333144
        },
        {
          "name": "A#3",
          "midi": 58,
          "time": 92.60000000000029,
          "velocity": 0.8661417322834646,
          "duration": 0.09583333333333144
        },
        {
          "name": "D4",
          "midi": 62,
          "time": 92.60000000000029,
          "velocity": 0.8661417322834646,
          "duration": 0.09583333333333144
        },
        {
          "name": "C#2",
          "midi": 37,
          "time": 92.60000000000029,
          "velocity": 0.3543307086614173,
          "duration": 0.09583333333333144
        },
        {
          "name": "E2",
          "midi": 40,
          "time": 92.60000000000029,
          "velocity": 0.3543307086614173,
          "duration": 0.09583333333333144
        },
        {
          "name": "G3",
          "midi": 55,
          "time": 92.70000000000029,
          "velocity": 0.8661417322834646,
          "duration": 0.09583333333333144
        },
        {
          "name": "A#3",
          "midi": 58,
          "time": 92.70000000000029,
          "velocity": 0.8661417322834646,
          "duration": 0.09583333333333144
        },
        {
          "name": "D4",
          "midi": 62,
          "time": 92.70000000000029,
          "velocity": 0.8661417322834646,
          "duration": 0.09583333333333144
        },
        {
          "name": "G3",
          "midi": 55,
          "time": 92.70000000000029,
          "velocity": 0.8661417322834646,
          "duration": 0.09583333333333144
        },
        {
          "name": "A#3",
          "midi": 58,
          "time": 92.70000000000029,
          "velocity": 0.8661417322834646,
          "duration": 0.09583333333333144
        },
        {
          "name": "D4",
          "midi": 62,
          "time": 92.70000000000029,
          "velocity": 0.8661417322834646,
          "duration": 0.09583333333333144
        },
        {
          "name": "C#2",
          "midi": 37,
          "time": 92.70000000000029,
          "velocity": 0.3543307086614173,
          "duration": 0.09583333333333144
        },
        {
          "name": "E2",
          "midi": 40,
          "time": 92.70000000000029,
          "velocity": 0.3543307086614173,
          "duration": 0.09583333333333144
        },
        {
          "name": "G3",
          "midi": 55,
          "time": 92.80000000000028,
          "velocity": 0.8661417322834646,
          "duration": 0.19583333333333997
        },
        {
          "name": "A#3",
          "midi": 58,
          "time": 92.80000000000028,
          "velocity": 0.8661417322834646,
          "duration": 0.19583333333333997
        },
        {
          "name": "D4",
          "midi": 62,
          "time": 92.80000000000028,
          "velocity": 0.8661417322834646,
          "duration": 0.19583333333333997
        },
        {
          "name": "G3",
          "midi": 55,
          "time": 92.80000000000028,
          "velocity": 0.8661417322834646,
          "duration": 0.19583333333333997
        },
        {
          "name": "A#3",
          "midi": 58,
          "time": 92.80000000000028,
          "velocity": 0.8661417322834646,
          "duration": 0.19583333333333997
        },
        {
          "name": "D4",
          "midi": 62,
          "time": 92.80000000000028,
          "velocity": 0.8661417322834646,
          "duration": 0.19583333333333997
        },
        {
          "name": "C#2",
          "midi": 37,
          "time": 92.80000000000028,
          "velocity": 0.3543307086614173,
          "duration": 0.19583333333333997
        },
        {
          "name": "E2",
          "midi": 40,
          "time": 92.80000000000028,
          "velocity": 0.3543307086614173,
          "duration": 0.19583333333333997
        },
        {
          "name": "A4",
          "midi": 69,
          "time": 93.00000000000028,
          "velocity": 0.8661417322834646,
          "duration": 0.3958333333333428
        },
        {
          "name": "G3",
          "midi": 55,
          "time": 93.00000000000028,
          "velocity": 0.8661417322834646,
          "duration": 0.3958333333333428
        },
        {
          "name": "A#3",
          "midi": 58,
          "time": 93.00000000000028,
          "velocity": 0.8661417322834646,
          "duration": 0.3958333333333428
        },
        {
          "name": "D4",
          "midi": 62,
          "time": 93.00000000000028,
          "velocity": 0.8661417322834646,
          "duration": 0.3958333333333428
        },
        {
          "name": "A#2",
          "midi": 46,
          "time": 93.00000000000028,
          "velocity": 0.8661417322834646,
          "duration": 0.3958333333333428
        },
        {
          "name": "A#1",
          "midi": 34,
          "time": 93.00000000000028,
          "velocity": 0.8661417322834646,
          "duration": 0.3958333333333428
        },
        {
          "name": "G3",
          "midi": 55,
          "time": 93.00000000000028,
          "velocity": 0.8661417322834646,
          "duration": 0.3958333333333428
        },
        {
          "name": "A#3",
          "midi": 58,
          "time": 93.00000000000028,
          "velocity": 0.8661417322834646,
          "duration": 0.3958333333333428
        },
        {
          "name": "D4",
          "midi": 62,
          "time": 93.00000000000028,
          "velocity": 0.8661417322834646,
          "duration": 0.3958333333333428
        },
        {
          "name": "C#2",
          "midi": 37,
          "time": 93.00000000000028,
          "velocity": 0.3543307086614173,
          "duration": 0.19583333333333997
        },
        {
          "name": "E2",
          "midi": 40,
          "time": 93.00000000000028,
          "velocity": 0.3543307086614173,
          "duration": 0.19583333333333997
        },
        {
          "name": "C#2",
          "midi": 37,
          "time": 93.20000000000029,
          "velocity": 0.3543307086614173,
          "duration": 0.19583333333333997
        },
        {
          "name": "E2",
          "midi": 40,
          "time": 93.20000000000029,
          "velocity": 0.3543307086614173,
          "duration": 0.19583333333333997
        },
        {
          "name": "A#4",
          "midi": 70,
          "time": 93.40000000000029,
          "velocity": 0.8661417322834646,
          "duration": 0.19583333333333997
        },
        {
          "name": "G3",
          "midi": 55,
          "time": 93.40000000000029,
          "velocity": 0.8661417322834646,
          "duration": 0.19583333333333997
        },
        {
          "name": "A#3",
          "midi": 58,
          "time": 93.40000000000029,
          "velocity": 0.8661417322834646,
          "duration": 0.19583333333333997
        },
        {
          "name": "D4",
          "midi": 62,
          "time": 93.40000000000029,
          "velocity": 0.8661417322834646,
          "duration": 0.19583333333333997
        },
        {
          "name": "A#2",
          "midi": 46,
          "time": 93.40000000000029,
          "velocity": 0.8661417322834646,
          "duration": 0.19583333333333997
        },
        {
          "name": "A#1",
          "midi": 34,
          "time": 93.40000000000029,
          "velocity": 0.8661417322834646,
          "duration": 0.19583333333333997
        },
        {
          "name": "G3",
          "midi": 55,
          "time": 93.40000000000029,
          "velocity": 0.8661417322834646,
          "duration": 0.19583333333333997
        },
        {
          "name": "A#3",
          "midi": 58,
          "time": 93.40000000000029,
          "velocity": 0.8661417322834646,
          "duration": 0.19583333333333997
        },
        {
          "name": "D4",
          "midi": 62,
          "time": 93.40000000000029,
          "velocity": 0.8661417322834646,
          "duration": 0.19583333333333997
        },
        {
          "name": "C#2",
          "midi": 37,
          "time": 93.40000000000029,
          "velocity": 0.3543307086614173,
          "duration": 0.19583333333333997
        },
        {
          "name": "E2",
          "midi": 40,
          "time": 93.40000000000029,
          "velocity": 0.3543307086614173,
          "duration": 0.19583333333333997
        },
        {
          "name": "C5",
          "midi": 72,
          "time": 93.60000000000029,
          "velocity": 0.8661417322834646,
          "duration": 0.3333333333333286
        },
        {
          "name": "A3",
          "midi": 57,
          "time": 93.60000000000029,
          "velocity": 0.8661417322834646,
          "duration": 0.19583333333333997
        },
        {
          "name": "C4",
          "midi": 60,
          "time": 93.60000000000029,
          "velocity": 0.8661417322834646,
          "duration": 0.19583333333333997
        },
        {
          "name": "F4",
          "midi": 65,
          "time": 93.60000000000029,
          "velocity": 0.8661417322834646,
          "duration": 0.19583333333333997
        },
        {
          "name": "F2",
          "midi": 41,
          "time": 93.60000000000029,
          "velocity": 0.8661417322834646,
          "duration": 0.3333333333333286
        },
        {
          "name": "F1",
          "midi": 29,
          "time": 93.60000000000029,
          "velocity": 0.8661417322834646,
          "duration": 0.3333333333333286
        },
        {
          "name": "A3",
          "midi": 57,
          "time": 93.60000000000029,
          "velocity": 0.8661417322834646,
          "duration": 0.19583333333333997
        },
        {
          "name": "C4",
          "midi": 60,
          "time": 93.60000000000029,
          "velocity": 0.8661417322834646,
          "duration": 0.19583333333333997
        },
        {
          "name": "F4",
          "midi": 65,
          "time": 93.60000000000029,
          "velocity": 0.8661417322834646,
          "duration": 0.19583333333333997
        },
        {
          "name": "C#2",
          "midi": 37,
          "time": 93.60000000000029,
          "velocity": 0.3543307086614173,
          "duration": 0.19583333333333997
        },
        {
          "name": "E2",
          "midi": 40,
          "time": 93.60000000000029,
          "velocity": 0.3543307086614173,
          "duration": 0.19583333333333997
        },
        {
          "name": "A3",
          "midi": 57,
          "time": 93.8000000000003,
          "velocity": 0.8661417322834646,
          "duration": 0.09583333333333144
        },
        {
          "name": "C4",
          "midi": 60,
          "time": 93.8000000000003,
          "velocity": 0.8661417322834646,
          "duration": 0.09583333333333144
        },
        {
          "name": "F4",
          "midi": 65,
          "time": 93.8000000000003,
          "velocity": 0.8661417322834646,
          "duration": 0.09583333333333144
        },
        {
          "name": "A3",
          "midi": 57,
          "time": 93.8000000000003,
          "velocity": 0.8661417322834646,
          "duration": 0.09583333333333144
        },
        {
          "name": "C4",
          "midi": 60,
          "time": 93.8000000000003,
          "velocity": 0.8661417322834646,
          "duration": 0.09583333333333144
        },
        {
          "name": "F4",
          "midi": 65,
          "time": 93.8000000000003,
          "velocity": 0.8661417322834646,
          "duration": 0.09583333333333144
        },
        {
          "name": "C#2",
          "midi": 37,
          "time": 93.8000000000003,
          "velocity": 0.3543307086614173,
          "duration": 0.09583333333333144
        },
        {
          "name": "E2",
          "midi": 40,
          "time": 93.8000000000003,
          "velocity": 0.3543307086614173,
          "duration": 0.09583333333333144
        },
        {
          "name": "A3",
          "midi": 57,
          "time": 93.90000000000029,
          "velocity": 0.8661417322834646,
          "duration": 0.09583333333333144
        },
        {
          "name": "C4",
          "midi": 60,
          "time": 93.90000000000029,
          "velocity": 0.8661417322834646,
          "duration": 0.09583333333333144
        },
        {
          "name": "F4",
          "midi": 65,
          "time": 93.90000000000029,
          "velocity": 0.8661417322834646,
          "duration": 0.09583333333333144
        },
        {
          "name": "A3",
          "midi": 57,
          "time": 93.90000000000029,
          "velocity": 0.8661417322834646,
          "duration": 0.09583333333333144
        },
        {
          "name": "C4",
          "midi": 60,
          "time": 93.90000000000029,
          "velocity": 0.8661417322834646,
          "duration": 0.09583333333333144
        },
        {
          "name": "F4",
          "midi": 65,
          "time": 93.90000000000029,
          "velocity": 0.8661417322834646,
          "duration": 0.09583333333333144
        },
        {
          "name": "C#2",
          "midi": 37,
          "time": 93.90000000000029,
          "velocity": 0.3543307086614173,
          "duration": 0.09583333333333144
        },
        {
          "name": "E2",
          "midi": 40,
          "time": 93.90000000000029,
          "velocity": 0.3543307086614173,
          "duration": 0.09583333333333144
        },
        {
          "name": "F4",
          "midi": 65,
          "time": 94.00000000000028,
          "velocity": 0.8661417322834646,
          "duration": 0.19583333333333997
        },
        {
          "name": "C4",
          "midi": 60,
          "time": 94.00000000000028,
          "velocity": 0.8661417322834646,
          "duration": 0.19583333333333997
        },
        {
          "name": "A3",
          "midi": 57,
          "time": 94.00000000000028,
          "velocity": 0.8661417322834646,
          "duration": 0.19583333333333997
        },
        {
          "name": "C2",
          "midi": 36,
          "time": 94.00000000000028,
          "velocity": 0.8661417322834646,
          "duration": 0.3333333333333428
        },
        {
          "name": "C3",
          "midi": 48,
          "time": 94.00000000000028,
          "velocity": 0.8661417322834646,
          "duration": 0.3333333333333428
        },
        {
          "name": "F4",
          "midi": 65,
          "time": 94.00000000000028,
          "velocity": 0.8661417322834646,
          "duration": 0.19583333333333997
        },
        {
          "name": "C4",
          "midi": 60,
          "time": 94.00000000000028,
          "velocity": 0.8661417322834646,
          "duration": 0.19583333333333997
        },
        {
          "name": "A3",
          "midi": 57,
          "time": 94.00000000000028,
          "velocity": 0.8661417322834646,
          "duration": 0.19583333333333997
        },
        {
          "name": "C#2",
          "midi": 37,
          "time": 94.00000000000028,
          "velocity": 0.3543307086614173,
          "duration": 0.19583333333333997
        },
        {
          "name": "E2",
          "midi": 40,
          "time": 94.00000000000028,
          "velocity": 0.3543307086614173,
          "duration": 0.19583333333333997
        },
        {
          "name": "A4",
          "midi": 69,
          "time": 94.00000000000028,
          "velocity": 0.8661417322834646,
          "duration": 0.3333333333333428
        },
        {
          "name": "F4",
          "midi": 65,
          "time": 94.20000000000029,
          "velocity": 0.8661417322834646,
          "duration": 0.19583333333333997
        },
        {
          "name": "C4",
          "midi": 60,
          "time": 94.20000000000029,
          "velocity": 0.8661417322834646,
          "duration": 0.19583333333333997
        },
        {
          "name": "A3",
          "midi": 57,
          "time": 94.20000000000029,
          "velocity": 0.8661417322834646,
          "duration": 0.19583333333333997
        },
        {
          "name": "A3",
          "midi": 57,
          "time": 94.20000000000029,
          "velocity": 0.8661417322834646,
          "duration": 0.19583333333333997
        },
        {
          "name": "C4",
          "midi": 60,
          "time": 94.20000000000029,
          "velocity": 0.8661417322834646,
          "duration": 0.19583333333333997
        },
        {
          "name": "F4",
          "midi": 65,
          "time": 94.20000000000029,
          "velocity": 0.8661417322834646,
          "duration": 0.19583333333333997
        },
        {
          "name": "C#2",
          "midi": 37,
          "time": 94.20000000000029,
          "velocity": 0.3543307086614173,
          "duration": 0.19583333333333997
        },
        {
          "name": "E2",
          "midi": 40,
          "time": 94.20000000000029,
          "velocity": 0.3543307086614173,
          "duration": 0.19583333333333997
        },
        {
          "name": "C5",
          "midi": 72,
          "time": 94.40000000000029,
          "velocity": 0.8661417322834646,
          "duration": 0.3333333333333428
        },
        {
          "name": "A3",
          "midi": 57,
          "time": 94.40000000000029,
          "velocity": 0.8661417322834646,
          "duration": 0.19583333333333997
        },
        {
          "name": "C4",
          "midi": 60,
          "time": 94.40000000000029,
          "velocity": 0.8661417322834646,
          "duration": 0.19583333333333997
        },
        {
          "name": "F4",
          "midi": 65,
          "time": 94.40000000000029,
          "velocity": 0.8661417322834646,
          "duration": 0.19583333333333997
        },
        {
          "name": "F3",
          "midi": 53,
          "time": 94.40000000000029,
          "velocity": 0.8661417322834646,
          "duration": 0.3333333333333428
        },
        {
          "name": "F2",
          "midi": 41,
          "time": 94.40000000000029,
          "velocity": 0.8661417322834646,
          "duration": 0.3333333333333428
        },
        {
          "name": "A3",
          "midi": 57,
          "time": 94.40000000000029,
          "velocity": 0.8661417322834646,
          "duration": 0.19583333333333997
        },
        {
          "name": "C4",
          "midi": 60,
          "time": 94.40000000000029,
          "velocity": 0.8661417322834646,
          "duration": 0.19583333333333997
        },
        {
          "name": "F4",
          "midi": 65,
          "time": 94.40000000000029,
          "velocity": 0.8661417322834646,
          "duration": 0.19583333333333997
        },
        {
          "name": "C#2",
          "midi": 37,
          "time": 94.40000000000029,
          "velocity": 0.3543307086614173,
          "duration": 0.19583333333333997
        },
        {
          "name": "E2",
          "midi": 40,
          "time": 94.40000000000029,
          "velocity": 0.3543307086614173,
          "duration": 0.19583333333333997
        },
        {
          "name": "A3",
          "midi": 57,
          "time": 94.60000000000029,
          "velocity": 0.8661417322834646,
          "duration": 0.19583333333333997
        },
        {
          "name": "C4",
          "midi": 60,
          "time": 94.60000000000029,
          "velocity": 0.8661417322834646,
          "duration": 0.19583333333333997
        },
        {
          "name": "F4",
          "midi": 65,
          "time": 94.60000000000029,
          "velocity": 0.8661417322834646,
          "duration": 0.19583333333333997
        },
        {
          "name": "A3",
          "midi": 57,
          "time": 94.60000000000029,
          "velocity": 0.8661417322834646,
          "duration": 0.19583333333333997
        },
        {
          "name": "C4",
          "midi": 60,
          "time": 94.60000000000029,
          "velocity": 0.8661417322834646,
          "duration": 0.19583333333333997
        },
        {
          "name": "F4",
          "midi": 65,
          "time": 94.60000000000029,
          "velocity": 0.8661417322834646,
          "duration": 0.19583333333333997
        },
        {
          "name": "C#2",
          "midi": 37,
          "time": 94.60000000000029,
          "velocity": 0.3543307086614173,
          "duration": 0.19583333333333997
        },
        {
          "name": "E2",
          "midi": 40,
          "time": 94.60000000000029,
          "velocity": 0.3543307086614173,
          "duration": 0.19583333333333997
        },
        {
          "name": "C#5",
          "midi": 73,
          "time": 94.8000000000003,
          "velocity": 0.8661417322834646,
          "duration": 1.5333333333333314
        },
        {
          "name": "A3",
          "midi": 57,
          "time": 94.8000000000003,
          "velocity": 0.8661417322834646,
          "duration": 0.19583333333333997
        },
        {
          "name": "C#4",
          "midi": 61,
          "time": 94.8000000000003,
          "velocity": 0.8661417322834646,
          "duration": 0.19583333333333997
        },
        {
          "name": "E4",
          "midi": 64,
          "time": 94.8000000000003,
          "velocity": 0.8661417322834646,
          "duration": 0.19583333333333997
        },
        {
          "name": "G4",
          "midi": 67,
          "time": 94.8000000000003,
          "velocity": 0.8661417322834646,
          "duration": 0.19583333333333997
        },
        {
          "name": "E3",
          "midi": 52,
          "time": 94.8000000000003,
          "velocity": 0.8661417322834646,
          "duration": 0.3333333333333286
        },
        {
          "name": "E2",
          "midi": 40,
          "time": 94.8000000000003,
          "velocity": 0.8661417322834646,
          "duration": 0.19583333333333997
        },
        {
          "name": "A3",
          "midi": 57,
          "time": 94.8000000000003,
          "velocity": 0.8661417322834646,
          "duration": 0.19583333333333997
        },
        {
          "name": "C#4",
          "midi": 61,
          "time": 94.8000000000003,
          "velocity": 0.8661417322834646,
          "duration": 0.19583333333333997
        },
        {
          "name": "E4",
          "midi": 64,
          "time": 94.8000000000003,
          "velocity": 0.8661417322834646,
          "duration": 0.19583333333333997
        },
        {
          "name": "G4",
          "midi": 67,
          "time": 94.8000000000003,
          "velocity": 0.8661417322834646,
          "duration": 0.19583333333333997
        },
        {
          "name": "C#2",
          "midi": 37,
          "time": 94.8000000000003,
          "velocity": 0.3543307086614173,
          "duration": 0.19583333333333997
        },
        {
          "name": "E2",
          "midi": 40,
          "time": 94.8000000000003,
          "velocity": 0.3543307086614173,
          "duration": 0.2958333333333343
        },
        {
          "name": "A3",
          "midi": 57,
          "time": 95.0000000000003,
          "velocity": 0.8661417322834646,
          "duration": 0.09583333333333144
        },
        {
          "name": "C#4",
          "midi": 61,
          "time": 95.0000000000003,
          "velocity": 0.8661417322834646,
          "duration": 0.09583333333333144
        },
        {
          "name": "E4",
          "midi": 64,
          "time": 95.0000000000003,
          "velocity": 0.8661417322834646,
          "duration": 0.09583333333333144
        },
        {
          "name": "G4",
          "midi": 67,
          "time": 95.0000000000003,
          "velocity": 0.8661417322834646,
          "duration": 0.09583333333333144
        },
        {
          "name": "A3",
          "midi": 57,
          "time": 95.0000000000003,
          "velocity": 0.8661417322834646,
          "duration": 0.09583333333333144
        },
        {
          "name": "C#4",
          "midi": 61,
          "time": 95.0000000000003,
          "velocity": 0.8661417322834646,
          "duration": 0.09583333333333144
        },
        {
          "name": "E4",
          "midi": 64,
          "time": 95.0000000000003,
          "velocity": 0.8661417322834646,
          "duration": 0.09583333333333144
        },
        {
          "name": "G4",
          "midi": 67,
          "time": 95.0000000000003,
          "velocity": 0.8661417322834646,
          "duration": 0.09583333333333144
        },
        {
          "name": "C#2",
          "midi": 37,
          "time": 95.0000000000003,
          "velocity": 0.3543307086614173,
          "duration": 0.09583333333333144
        },
        {
          "name": "E2",
          "midi": 40,
          "time": 95.0000000000003,
          "velocity": 0.3543307086614173,
          "duration": 0.13333333333332575
        },
        {
          "name": "A3",
          "midi": 57,
          "time": 95.10000000000029,
          "velocity": 0.8661417322834646,
          "duration": 0.09583333333333144
        },
        {
          "name": "C#4",
          "midi": 61,
          "time": 95.10000000000029,
          "velocity": 0.8661417322834646,
          "duration": 0.09583333333333144
        },
        {
          "name": "E4",
          "midi": 64,
          "time": 95.10000000000029,
          "velocity": 0.8661417322834646,
          "duration": 0.09583333333333144
        },
        {
          "name": "G4",
          "midi": 67,
          "time": 95.10000000000029,
          "velocity": 0.8661417322834646,
          "duration": 0.09583333333333144
        },
        {
          "name": "A3",
          "midi": 57,
          "time": 95.10000000000029,
          "velocity": 0.8661417322834646,
          "duration": 0.09583333333333144
        },
        {
          "name": "C#4",
          "midi": 61,
          "time": 95.10000000000029,
          "velocity": 0.8661417322834646,
          "duration": 0.09583333333333144
        },
        {
          "name": "E4",
          "midi": 64,
          "time": 95.10000000000029,
          "velocity": 0.8661417322834646,
          "duration": 0.09583333333333144
        },
        {
          "name": "G4",
          "midi": 67,
          "time": 95.10000000000029,
          "velocity": 0.8661417322834646,
          "duration": 0.09583333333333144
        },
        {
          "name": "C#2",
          "midi": 37,
          "time": 95.10000000000029,
          "velocity": 0.3543307086614173,
          "duration": 0.09583333333333144
        },
        {
          "name": "E2",
          "midi": 40,
          "time": 95.10000000000029,
          "velocity": 0.3543307086614173,
          "duration": 0.09583333333333144
        },
        {
          "name": "A3",
          "midi": 57,
          "time": 95.20000000000029,
          "velocity": 0.8661417322834646,
          "duration": 0.19583333333333997
        },
        {
          "name": "C#4",
          "midi": 61,
          "time": 95.20000000000029,
          "velocity": 0.8661417322834646,
          "duration": 0.19583333333333997
        },
        {
          "name": "E4",
          "midi": 64,
          "time": 95.20000000000029,
          "velocity": 0.8661417322834646,
          "duration": 0.19583333333333997
        },
        {
          "name": "G4",
          "midi": 67,
          "time": 95.20000000000029,
          "velocity": 0.8661417322834646,
          "duration": 0.19583333333333997
        },
        {
          "name": "A3",
          "midi": 57,
          "time": 95.20000000000029,
          "velocity": 0.8661417322834646,
          "duration": 0.19583333333333997
        },
        {
          "name": "C#4",
          "midi": 61,
          "time": 95.20000000000029,
          "velocity": 0.8661417322834646,
          "duration": 0.19583333333333997
        },
        {
          "name": "E4",
          "midi": 64,
          "time": 95.20000000000029,
          "velocity": 0.8661417322834646,
          "duration": 0.19583333333333997
        },
        {
          "name": "G4",
          "midi": 67,
          "time": 95.20000000000029,
          "velocity": 0.8661417322834646,
          "duration": 0.19583333333333997
        },
        {
          "name": "C#2",
          "midi": 37,
          "time": 95.20000000000029,
          "velocity": 0.3543307086614173,
          "duration": 0.19583333333333997
        },
        {
          "name": "E2",
          "midi": 40,
          "time": 95.20000000000029,
          "velocity": 0.3543307086614173,
          "duration": 0.19583333333333997
        },
        {
          "name": "A3",
          "midi": 57,
          "time": 95.40000000000029,
          "velocity": 0.8661417322834646,
          "duration": 0.3958333333333428
        },
        {
          "name": "C#4",
          "midi": 61,
          "time": 95.40000000000029,
          "velocity": 0.8661417322834646,
          "duration": 0.3958333333333428
        },
        {
          "name": "E4",
          "midi": 64,
          "time": 95.40000000000029,
          "velocity": 0.8661417322834646,
          "duration": 0.3958333333333428
        },
        {
          "name": "G4",
          "midi": 67,
          "time": 95.40000000000029,
          "velocity": 0.8661417322834646,
          "duration": 0.3958333333333428
        },
        {
          "name": "E3",
          "midi": 52,
          "time": 95.40000000000029,
          "velocity": 0.8661417322834646,
          "duration": 0.3958333333333428
        },
        {
          "name": "E2",
          "midi": 40,
          "time": 95.40000000000029,
          "velocity": 0.8661417322834646,
          "duration": 0.19583333333333997
        },
        {
          "name": "A3",
          "midi": 57,
          "time": 95.40000000000029,
          "velocity": 0.8661417322834646,
          "duration": 0.3958333333333428
        },
        {
          "name": "C#4",
          "midi": 61,
          "time": 95.40000000000029,
          "velocity": 0.8661417322834646,
          "duration": 0.3958333333333428
        },
        {
          "name": "E4",
          "midi": 64,
          "time": 95.40000000000029,
          "velocity": 0.8661417322834646,
          "duration": 0.3958333333333428
        },
        {
          "name": "G4",
          "midi": 67,
          "time": 95.40000000000029,
          "velocity": 0.8661417322834646,
          "duration": 0.3958333333333428
        },
        {
          "name": "C#2",
          "midi": 37,
          "time": 95.40000000000029,
          "velocity": 0.3543307086614173,
          "duration": 0.19583333333333997
        },
        {
          "name": "E2",
          "midi": 40,
          "time": 95.40000000000029,
          "velocity": 0.3543307086614173,
          "duration": 0.3958333333333428
        },
        {
          "name": "C#2",
          "midi": 37,
          "time": 95.60000000000029,
          "velocity": 0.3543307086614173,
          "duration": 0.19583333333333997
        },
        {
          "name": "E2",
          "midi": 40,
          "time": 95.60000000000029,
          "velocity": 0.3543307086614173,
          "duration": 0.19583333333333997
        },
        {
          "name": "A3",
          "midi": 57,
          "time": 95.8000000000003,
          "velocity": 0.8661417322834646,
          "duration": 0.19583333333333997
        },
        {
          "name": "C#4",
          "midi": 61,
          "time": 95.8000000000003,
          "velocity": 0.8661417322834646,
          "duration": 0.19583333333333997
        },
        {
          "name": "E4",
          "midi": 64,
          "time": 95.8000000000003,
          "velocity": 0.8661417322834646,
          "duration": 0.19583333333333997
        },
        {
          "name": "G4",
          "midi": 67,
          "time": 95.8000000000003,
          "velocity": 0.8661417322834646,
          "duration": 0.19583333333333997
        },
        {
          "name": "E3",
          "midi": 52,
          "time": 95.8000000000003,
          "velocity": 0.8661417322834646,
          "duration": 0.19583333333333997
        },
        {
          "name": "E2",
          "midi": 40,
          "time": 95.8000000000003,
          "velocity": 0.8661417322834646,
          "duration": 0.19583333333333997
        },
        {
          "name": "A3",
          "midi": 57,
          "time": 95.8000000000003,
          "velocity": 0.8661417322834646,
          "duration": 0.19583333333333997
        },
        {
          "name": "C#4",
          "midi": 61,
          "time": 95.8000000000003,
          "velocity": 0.8661417322834646,
          "duration": 0.19583333333333997
        },
        {
          "name": "E4",
          "midi": 64,
          "time": 95.8000000000003,
          "velocity": 0.8661417322834646,
          "duration": 0.19583333333333997
        },
        {
          "name": "G4",
          "midi": 67,
          "time": 95.8000000000003,
          "velocity": 0.8661417322834646,
          "duration": 0.19583333333333997
        },
        {
          "name": "C#2",
          "midi": 37,
          "time": 95.8000000000003,
          "velocity": 0.3543307086614173,
          "duration": 0.19583333333333997
        },
        {
          "name": "E2",
          "midi": 40,
          "time": 95.8000000000003,
          "velocity": 0.3543307086614173,
          "duration": 0.19583333333333997
        },
        {
          "name": "A2",
          "midi": 45,
          "time": 96.0000000000003,
          "velocity": 0.8661417322834646,
          "duration": 0.3333333333333286
        },
        {
          "name": "A1",
          "midi": 33,
          "time": 96.0000000000003,
          "velocity": 0.8661417322834646,
          "duration": 0.3333333333333286
        },
        {
          "name": "A3",
          "midi": 57,
          "time": 96.0000000000003,
          "velocity": 0.8661417322834646,
          "duration": 0.19583333333333997
        },
        {
          "name": "C#4",
          "midi": 61,
          "time": 96.0000000000003,
          "velocity": 0.8661417322834646,
          "duration": 0.19583333333333997
        },
        {
          "name": "E4",
          "midi": 64,
          "time": 96.0000000000003,
          "velocity": 0.8661417322834646,
          "duration": 0.19583333333333997
        },
        {
          "name": "G4",
          "midi": 67,
          "time": 96.0000000000003,
          "velocity": 0.8661417322834646,
          "duration": 0.19583333333333997
        },
        {
          "name": "C#2",
          "midi": 37,
          "time": 96.0000000000003,
          "velocity": 0.3543307086614173,
          "duration": 0.19583333333333997
        },
        {
          "name": "E2",
          "midi": 40,
          "time": 96.0000000000003,
          "velocity": 0.3543307086614173,
          "duration": 0.19583333333333997
        },
        {
          "name": "G#3",
          "midi": 56,
          "time": 96.2000000000003,
          "velocity": 0.8661417322834646,
          "duration": 0.09583333333333144
        },
        {
          "name": "C4",
          "midi": 60,
          "time": 96.2000000000003,
          "velocity": 0.8661417322834646,
          "duration": 0.09583333333333144
        },
        {
          "name": "D#4",
          "midi": 63,
          "time": 96.2000000000003,
          "velocity": 0.8661417322834646,
          "duration": 0.09583333333333144
        },
        {
          "name": "G#4",
          "midi": 68,
          "time": 96.2000000000003,
          "velocity": 0.8661417322834646,
          "duration": 0.09583333333333144
        },
        {
          "name": "C#2",
          "midi": 37,
          "time": 96.2000000000003,
          "velocity": 0.3543307086614173,
          "duration": 0.09583333333333144
        },
        {
          "name": "E2",
          "midi": 40,
          "time": 96.2000000000003,
          "velocity": 0.3543307086614173,
          "duration": 0.09583333333333144
        },
        {
          "name": "G#3",
          "midi": 56,
          "time": 96.3000000000003,
          "velocity": 0.8661417322834646,
          "duration": 0.09583333333333144
        },
        {
          "name": "C4",
          "midi": 60,
          "time": 96.3000000000003,
          "velocity": 0.8661417322834646,
          "duration": 0.09583333333333144
        },
        {
          "name": "D#4",
          "midi": 63,
          "time": 96.3000000000003,
          "velocity": 0.8661417322834646,
          "duration": 0.09583333333333144
        },
        {
          "name": "G#4",
          "midi": 68,
          "time": 96.3000000000003,
          "velocity": 0.8661417322834646,
          "duration": 0.09583333333333144
        },
        {
          "name": "C#2",
          "midi": 37,
          "time": 96.3000000000003,
          "velocity": 0.3543307086614173,
          "duration": 0.09583333333333144
        },
        {
          "name": "E2",
          "midi": 40,
          "time": 96.3000000000003,
          "velocity": 0.3543307086614173,
          "duration": 0.09583333333333144
        },
        {
          "name": "A3",
          "midi": 57,
          "time": 96.40000000000029,
          "velocity": 0.8661417322834646,
          "duration": 0.3333333333333428
        },
        {
          "name": "A2",
          "midi": 45,
          "time": 96.40000000000029,
          "velocity": 0.8661417322834646,
          "duration": 0.3333333333333428
        },
        {
          "name": "C#4",
          "midi": 61,
          "time": 96.40000000000029,
          "velocity": 0.8661417322834646,
          "duration": 0.19583333333333997
        },
        {
          "name": "E4",
          "midi": 64,
          "time": 96.40000000000029,
          "velocity": 0.8661417322834646,
          "duration": 0.19583333333333997
        },
        {
          "name": "A4",
          "midi": 69,
          "time": 96.40000000000029,
          "velocity": 0.8661417322834646,
          "duration": 0.19583333333333997
        },
        {
          "name": "C#2",
          "midi": 37,
          "time": 96.40000000000029,
          "velocity": 0.3543307086614173,
          "duration": 0.19583333333333997
        },
        {
          "name": "E2",
          "midi": 40,
          "time": 96.40000000000029,
          "velocity": 0.3543307086614173,
          "duration": 0.19583333333333997
        },
        {
          "name": "C4",
          "midi": 60,
          "time": 96.60000000000029,
          "velocity": 0.8661417322834646,
          "duration": 0.19583333333333997
        },
        {
          "name": "D4",
          "midi": 62,
          "time": 96.60000000000029,
          "velocity": 0.8661417322834646,
          "duration": 0.19583333333333997
        },
        {
          "name": "F4",
          "midi": 65,
          "time": 96.60000000000029,
          "velocity": 0.8661417322834646,
          "duration": 0.19583333333333997
        },
        {
          "name": "C5",
          "midi": 72,
          "time": 96.60000000000029,
          "velocity": 0.8661417322834646,
          "duration": 0.19583333333333997
        },
        {
          "name": "C#2",
          "midi": 37,
          "time": 96.60000000000029,
          "velocity": 0.3543307086614173,
          "duration": 0.19583333333333997
        },
        {
          "name": "E2",
          "midi": 40,
          "time": 96.60000000000029,
          "velocity": 0.3543307086614173,
          "duration": 0.19583333333333997
        },
        {
          "name": "A2",
          "midi": 45,
          "time": 96.8000000000003,
          "velocity": 0.8661417322834646,
          "duration": 0.3333333333333428
        },
        {
          "name": "A1",
          "midi": 33,
          "time": 96.8000000000003,
          "velocity": 0.8661417322834646,
          "duration": 0.3333333333333428
        },
        {
          "name": "B3",
          "midi": 59,
          "time": 96.8000000000003,
          "velocity": 0.8661417322834646,
          "duration": 0.19583333333333997
        },
        {
          "name": "D#4",
          "midi": 63,
          "time": 96.8000000000003,
          "velocity": 0.8661417322834646,
          "duration": 0.19583333333333997
        },
        {
          "name": "F#4",
          "midi": 66,
          "time": 96.8000000000003,
          "velocity": 0.8661417322834646,
          "duration": 0.19583333333333997
        },
        {
          "name": "B4",
          "midi": 71,
          "time": 96.8000000000003,
          "velocity": 0.8661417322834646,
          "duration": 0.19583333333333997
        },
        {
          "name": "C#2",
          "midi": 37,
          "time": 96.8000000000003,
          "velocity": 0.3543307086614173,
          "duration": 0.19583333333333997
        },
        {
          "name": "E2",
          "midi": 40,
          "time": 96.8000000000003,
          "velocity": 0.3543307086614173,
          "duration": 0.19583333333333997
        },
        {
          "name": "C#4",
          "midi": 61,
          "time": 97.0000000000003,
          "velocity": 0.8661417322834646,
          "duration": 0.19583333333333997
        },
        {
          "name": "E4",
          "midi": 64,
          "time": 97.0000000000003,
          "velocity": 0.8661417322834646,
          "duration": 0.19583333333333997
        },
        {
          "name": "G4",
          "midi": 67,
          "time": 97.0000000000003,
          "velocity": 0.8661417322834646,
          "duration": 0.19583333333333997
        },
        {
          "name": "C#5",
          "midi": 73,
          "time": 97.0000000000003,
          "velocity": 0.8661417322834646,
          "duration": 0.19583333333333997
        },
        {
          "name": "C#2",
          "midi": 37,
          "time": 97.0000000000003,
          "velocity": 0.3543307086614173,
          "duration": 0.19583333333333997
        },
        {
          "name": "E2",
          "midi": 40,
          "time": 97.0000000000003,
          "velocity": 0.3543307086614173,
          "duration": 0.19583333333333997
        },
        {
          "name": "D2",
          "midi": 38,
          "time": 97.2000000000003,
          "velocity": 0.8661417322834646,
          "duration": 0.3333333333333286
        },
        {
          "name": "D4",
          "midi": 62,
          "time": 97.2000000000003,
          "velocity": 0.8661417322834646,
          "duration": 0.19583333333333997
        },
        {
          "name": "F4",
          "midi": 65,
          "time": 97.2000000000003,
          "velocity": 0.8661417322834646,
          "duration": 0.19583333333333997
        },
        {
          "name": "A4",
          "midi": 69,
          "time": 97.2000000000003,
          "velocity": 0.8661417322834646,
          "duration": 0.19583333333333997
        },
        {
          "name": "D5",
          "midi": 74,
          "time": 97.2000000000003,
          "velocity": 0.8661417322834646,
          "duration": 0.19583333333333997
        },
        {
          "name": "C#2",
          "midi": 37,
          "time": 97.2000000000003,
          "velocity": 0.3543307086614173,
          "duration": 0.19583333333333997
        },
        {
          "name": "E2",
          "midi": 40,
          "time": 97.2000000000003,
          "velocity": 0.3543307086614173,
          "duration": 0.19583333333333997
        },
        {
          "name": "C#6",
          "midi": 85,
          "time": 97.4000000000003,
          "velocity": 0.8661417322834646,
          "duration": 0.04583333333333428
        },
        {
          "name": "D#4",
          "midi": 63,
          "time": 97.4000000000003,
          "velocity": 0.8661417322834646,
          "duration": 0.3333333333333286
        },
        {
          "name": "G4",
          "midi": 67,
          "time": 97.4000000000003,
          "velocity": 0.8661417322834646,
          "duration": 0.3333333333333286
        },
        {
          "name": "A#4",
          "midi": 70,
          "time": 97.4000000000003,
          "velocity": 0.8661417322834646,
          "duration": 0.3333333333333286
        },
        {
          "name": "D#5",
          "midi": 75,
          "time": 97.4000000000003,
          "velocity": 0.8661417322834646,
          "duration": 0.3333333333333286
        },
        {
          "name": "C#2",
          "midi": 37,
          "time": 97.4000000000003,
          "velocity": 0.3543307086614173,
          "duration": 0.09583333333333144
        },
        {
          "name": "E2",
          "midi": 40,
          "time": 97.4000000000003,
          "velocity": 0.3543307086614173,
          "duration": 0.09583333333333144
        },
        {
          "name": "D6",
          "midi": 86,
          "time": 97.4500000000003,
          "velocity": 0.8661417322834646,
          "duration": 0.34583333333333144
        },
        {
          "name": "C#2",
          "midi": 37,
          "time": 97.5000000000003,
          "velocity": 0.3543307086614173,
          "duration": 0.09583333333333144
        },
        {
          "name": "E2",
          "midi": 40,
          "time": 97.5000000000003,
          "velocity": 0.3543307086614173,
          "duration": 0.09583333333333144
        },
        {
          "name": "C#2",
          "midi": 37,
          "time": 97.60000000000029,
          "velocity": 0.3543307086614173,
          "duration": 0.19583333333333997
        },
        {
          "name": "E2",
          "midi": 40,
          "time": 97.60000000000029,
          "velocity": 0.3543307086614173,
          "duration": 0.19583333333333997
        },
        {
          "name": "A2",
          "midi": 45,
          "time": 97.8000000000003,
          "velocity": 0.8661417322834646,
          "duration": 0.3958333333333428
        },
        {
          "name": "C#4",
          "midi": 61,
          "time": 97.8000000000003,
          "velocity": 0.8661417322834646,
          "duration": 0.19583333333333997
        },
        {
          "name": "E4",
          "midi": 64,
          "time": 97.8000000000003,
          "velocity": 0.8661417322834646,
          "duration": 0.19583333333333997
        },
        {
          "name": "G#4",
          "midi": 68,
          "time": 97.8000000000003,
          "velocity": 0.8661417322834646,
          "duration": 0.19583333333333997
        },
        {
          "name": "C#5",
          "midi": 73,
          "time": 97.8000000000003,
          "velocity": 0.8661417322834646,
          "duration": 0.19583333333333997
        },
        {
          "name": "C#2",
          "midi": 37,
          "time": 97.8000000000003,
          "velocity": 0.3543307086614173,
          "duration": 0.19583333333333997
        },
        {
          "name": "E2",
          "midi": 40,
          "time": 97.8000000000003,
          "velocity": 0.3543307086614173,
          "duration": 0.19583333333333997
        },
        {
          "name": "D4",
          "midi": 62,
          "time": 98.0000000000003,
          "velocity": 0.8661417322834646,
          "duration": 0.3333333333333428
        },
        {
          "name": "F4",
          "midi": 65,
          "time": 98.0000000000003,
          "velocity": 0.8661417322834646,
          "duration": 0.3333333333333428
        },
        {
          "name": "A4",
          "midi": 69,
          "time": 98.0000000000003,
          "velocity": 0.8661417322834646,
          "duration": 0.3333333333333428
        },
        {
          "name": "D5",
          "midi": 74,
          "time": 98.0000000000003,
          "velocity": 0.8661417322834646,
          "duration": 0.3333333333333428
        },
        {
          "name": "C#2",
          "midi": 37,
          "time": 98.0000000000003,
          "velocity": 0.3543307086614173,
          "duration": 0.19583333333333997
        },
        {
          "name": "E2",
          "midi": 40,
          "time": 98.0000000000003,
          "velocity": 0.3543307086614173,
          "duration": 0.19583333333333997
        },
        {
          "name": "A1",
          "midi": 33,
          "time": 98.2000000000003,
          "velocity": 0.8661417322834646,
          "duration": 0.19583333333333997
        },
        {
          "name": "C#2",
          "midi": 37,
          "time": 98.2000000000003,
          "velocity": 0.3543307086614173,
          "duration": 0.19583333333333997
        },
        {
          "name": "E2",
          "midi": 40,
          "time": 98.2000000000003,
          "velocity": 0.3543307086614173,
          "duration": 0.19583333333333997
        },
        {
          "name": "D2",
          "midi": 38,
          "time": 98.4000000000003,
          "velocity": 0.8661417322834646,
          "duration": 0.3333333333333286
        },
        {
          "name": "D4",
          "midi": 62,
          "time": 98.4000000000003,
          "velocity": 0.8661417322834646,
          "duration": 0.19583333333333997
        },
        {
          "name": "F4",
          "midi": 65,
          "time": 98.4000000000003,
          "velocity": 0.8661417322834646,
          "duration": 0.19583333333333997
        },
        {
          "name": "A4",
          "midi": 69,
          "time": 98.4000000000003,
          "velocity": 0.8661417322834646,
          "duration": 0.19583333333333997
        },
        {
          "name": "D5",
          "midi": 74,
          "time": 98.4000000000003,
          "velocity": 0.8661417322834646,
          "duration": 0.19583333333333997
        },
        {
          "name": "C#2",
          "midi": 37,
          "time": 98.4000000000003,
          "velocity": 0.3543307086614173,
          "duration": 0.19583333333333997
        },
        {
          "name": "E2",
          "midi": 40,
          "time": 98.4000000000003,
          "velocity": 0.3543307086614173,
          "duration": 0.19583333333333997
        },
        {
          "name": "C#4",
          "midi": 61,
          "time": 98.6000000000003,
          "velocity": 0.8661417322834646,
          "duration": 0.19583333333332575
        },
        {
          "name": "E4",
          "midi": 64,
          "time": 98.6000000000003,
          "velocity": 0.8661417322834646,
          "duration": 0.19583333333332575
        },
        {
          "name": "G#4",
          "midi": 68,
          "time": 98.6000000000003,
          "velocity": 0.8661417322834646,
          "duration": 0.19583333333332575
        },
        {
          "name": "C#5",
          "midi": 73,
          "time": 98.6000000000003,
          "velocity": 0.8661417322834646,
          "duration": 0.19583333333332575
        },
        {
          "name": "C#2",
          "midi": 37,
          "time": 98.6000000000003,
          "velocity": 0.3543307086614173,
          "duration": 0.09583333333333144
        },
        {
          "name": "E2",
          "midi": 40,
          "time": 98.6000000000003,
          "velocity": 0.3543307086614173,
          "duration": 0.09583333333333144
        },
        {
          "name": "C#2",
          "midi": 37,
          "time": 98.7000000000003,
          "velocity": 0.3543307086614173,
          "duration": 0.09583333333333144
        },
        {
          "name": "E2",
          "midi": 40,
          "time": 98.7000000000003,
          "velocity": 0.3543307086614173,
          "duration": 0.09583333333333144
        },
        {
          "name": "A2",
          "midi": 45,
          "time": 98.8000000000003,
          "velocity": 0.8661417322834646,
          "duration": 0.3333333333333286
        },
        {
          "name": "F6",
          "midi": 89,
          "time": 98.8000000000003,
          "velocity": 0.8661417322834646,
          "duration": 0.04583333333333428
        },
        {
          "name": "D4",
          "midi": 62,
          "time": 98.8000000000003,
          "velocity": 0.8661417322834646,
          "duration": 0.19583333333332575
        },
        {
          "name": "F4",
          "midi": 65,
          "time": 98.8000000000003,
          "velocity": 0.8661417322834646,
          "duration": 0.19583333333332575
        },
        {
          "name": "A4",
          "midi": 69,
          "time": 98.8000000000003,
          "velocity": 0.8661417322834646,
          "duration": 0.19583333333332575
        },
        {
          "name": "D5",
          "midi": 74,
          "time": 98.8000000000003,
          "velocity": 0.8661417322834646,
          "duration": 0.19583333333332575
        },
        {
          "name": "C#2",
          "midi": 37,
          "time": 98.8000000000003,
          "velocity": 0.3543307086614173,
          "duration": 0.19583333333332575
        },
        {
          "name": "E2",
          "midi": 40,
          "time": 98.8000000000003,
          "velocity": 0.3543307086614173,
          "duration": 0.19583333333332575
        },
        {
          "name": "G6",
          "midi": 91,
          "time": 98.85000000000029,
          "velocity": 0.8661417322834646,
          "duration": 0.04583333333333428
        },
        {
          "name": "G#6",
          "midi": 92,
          "time": 98.90000000000029,
          "velocity": 0.8661417322834646,
          "duration": 0.04583333333333428
        },
        {
          "name": "A6",
          "midi": 93,
          "time": 98.95000000000029,
          "velocity": 1,
          "duration": 0.24583333333333712
        },
        {
          "name": "D#4",
          "midi": 63,
          "time": 99.00000000000028,
          "velocity": 0.8661417322834646,
          "duration": 0.19583333333333997
        },
        {
          "name": "G4",
          "midi": 67,
          "time": 99.00000000000028,
          "velocity": 0.8661417322834646,
          "duration": 0.19583333333333997
        },
        {
          "name": "A#4",
          "midi": 70,
          "time": 99.00000000000028,
          "velocity": 0.8661417322834646,
          "duration": 0.19583333333333997
        },
        {
          "name": "D#5",
          "midi": 75,
          "time": 99.00000000000028,
          "velocity": 0.8661417322834646,
          "duration": 0.19583333333333997
        },
        {
          "name": "C#2",
          "midi": 37,
          "time": 99.00000000000028,
          "velocity": 0.3543307086614173,
          "duration": 0.19583333333333997
        },
        {
          "name": "E2",
          "midi": 40,
          "time": 99.00000000000028,
          "velocity": 0.3543307086614173,
          "duration": 0.19583333333333997
        },
        {
          "name": "A1",
          "midi": 33,
          "time": 99.20000000000029,
          "velocity": 0.8661417322834646,
          "duration": 0.3333333333333286
        },
        {
          "name": "F6",
          "midi": 89,
          "time": 99.20000000000029,
          "velocity": 0.8661417322834646,
          "duration": 0.04583333333333428
        },
        {
          "name": "F4",
          "midi": 65,
          "time": 99.20000000000029,
          "velocity": 0.8661417322834646,
          "duration": 0.19583333333332575
        },
        {
          "name": "A4",
          "midi": 69,
          "time": 99.20000000000029,
          "velocity": 0.8661417322834646,
          "duration": 0.19583333333332575
        },
        {
          "name": "C5",
          "midi": 72,
          "time": 99.20000000000029,
          "velocity": 0.8661417322834646,
          "duration": 0.19583333333332575
        },
        {
          "name": "F5",
          "midi": 77,
          "time": 99.20000000000029,
          "velocity": 0.8661417322834646,
          "duration": 0.19583333333332575
        },
        {
          "name": "C#2",
          "midi": 37,
          "time": 99.20000000000029,
          "velocity": 0.3543307086614173,
          "duration": 0.19583333333332575
        },
        {
          "name": "E2",
          "midi": 40,
          "time": 99.20000000000029,
          "velocity": 0.3543307086614173,
          "duration": 0.19583333333332575
        },
        {
          "name": "G6",
          "midi": 91,
          "time": 99.25000000000028,
          "velocity": 0.8661417322834646,
          "duration": 0.04583333333333428
        },
        {
          "name": "G#6",
          "midi": 92,
          "time": 99.30000000000028,
          "velocity": 0.8661417322834646,
          "duration": 0.04583333333333428
        },
        {
          "name": "A6",
          "midi": 93,
          "time": 99.35000000000028,
          "velocity": 1,
          "duration": 0.24583333333333712
        },
        {
          "name": "D#4",
          "midi": 63,
          "time": 99.40000000000028,
          "velocity": 0.8661417322834646,
          "duration": 0.19583333333333997
        },
        {
          "name": "G4",
          "midi": 67,
          "time": 99.40000000000028,
          "velocity": 0.8661417322834646,
          "duration": 0.19583333333333997
        },
        {
          "name": "A#4",
          "midi": 70,
          "time": 99.40000000000028,
          "velocity": 0.8661417322834646,
          "duration": 0.19583333333333997
        },
        {
          "name": "D#5",
          "midi": 75,
          "time": 99.40000000000028,
          "velocity": 0.8661417322834646,
          "duration": 0.19583333333333997
        },
        {
          "name": "C#2",
          "midi": 37,
          "time": 99.40000000000028,
          "velocity": 0.3543307086614173,
          "duration": 0.19583333333333997
        },
        {
          "name": "E2",
          "midi": 40,
          "time": 99.40000000000028,
          "velocity": 0.3543307086614173,
          "duration": 0.19583333333333997
        },
        {
          "name": "D2",
          "midi": 38,
          "time": 99.60000000000028,
          "velocity": 0.8661417322834646,
          "duration": 0.3333333333333286
        },
        {
          "name": "D4",
          "midi": 62,
          "time": 99.60000000000028,
          "velocity": 0.8661417322834646,
          "duration": 0.19583333333333997
        },
        {
          "name": "F4",
          "midi": 65,
          "time": 99.60000000000028,
          "velocity": 0.8661417322834646,
          "duration": 0.19583333333333997
        },
        {
          "name": "A4",
          "midi": 69,
          "time": 99.60000000000028,
          "velocity": 0.8661417322834646,
          "duration": 0.19583333333333997
        },
        {
          "name": "D5",
          "midi": 74,
          "time": 99.60000000000028,
          "velocity": 0.8661417322834646,
          "duration": 0.19583333333333997
        },
        {
          "name": "C#2",
          "midi": 37,
          "time": 99.60000000000028,
          "velocity": 0.3543307086614173,
          "duration": 0.19583333333333997
        },
        {
          "name": "E2",
          "midi": 40,
          "time": 99.60000000000028,
          "velocity": 0.3543307086614173,
          "duration": 0.19583333333333997
        },
        {
          "name": "C#6",
          "midi": 85,
          "time": 99.80000000000028,
          "velocity": 0.8661417322834646,
          "duration": 0.04583333333333428
        },
        {
          "name": "D#4",
          "midi": 63,
          "time": 99.80000000000028,
          "velocity": 0.8661417322834646,
          "duration": 0.3333333333333286
        },
        {
          "name": "G4",
          "midi": 67,
          "time": 99.80000000000028,
          "velocity": 0.8661417322834646,
          "duration": 0.3333333333333286
        },
        {
          "name": "A#4",
          "midi": 70,
          "time": 99.80000000000028,
          "velocity": 0.8661417322834646,
          "duration": 0.3333333333333286
        },
        {
          "name": "D#5",
          "midi": 75,
          "time": 99.80000000000028,
          "velocity": 0.8661417322834646,
          "duration": 0.3333333333333286
        },
        {
          "name": "C#2",
          "midi": 37,
          "time": 99.80000000000028,
          "velocity": 0.3543307086614173,
          "duration": 0.09583333333333144
        },
        {
          "name": "E2",
          "midi": 40,
          "time": 99.80000000000028,
          "velocity": 0.3543307086614173,
          "duration": 0.09583333333333144
        },
        {
          "name": "D6",
          "midi": 86,
          "time": 99.85000000000028,
          "velocity": 0.8661417322834646,
          "duration": 0.34583333333333144
        },
        {
          "name": "C#2",
          "midi": 37,
          "time": 99.90000000000028,
          "velocity": 0.3543307086614173,
          "duration": 0.09583333333333144
        },
        {
          "name": "E2",
          "midi": 40,
          "time": 99.90000000000028,
          "velocity": 0.3543307086614173,
          "duration": 0.09583333333333144
        },
        {
          "name": "C#2",
          "midi": 37,
          "time": 100.00000000000027,
          "velocity": 0.3543307086614173,
          "duration": 0.19583333333333997
        },
        {
          "name": "E2",
          "midi": 40,
          "time": 100.00000000000027,
          "velocity": 0.3543307086614173,
          "duration": 0.19583333333333997
        },
        {
          "name": "A2",
          "midi": 45,
          "time": 100.20000000000027,
          "velocity": 0.8661417322834646,
          "duration": 0.3958333333333428
        },
        {
          "name": "C#4",
          "midi": 61,
          "time": 100.20000000000027,
          "velocity": 0.8661417322834646,
          "duration": 0.19583333333333997
        },
        {
          "name": "E4",
          "midi": 64,
          "time": 100.20000000000027,
          "velocity": 0.8661417322834646,
          "duration": 0.19583333333333997
        },
        {
          "name": "G#4",
          "midi": 68,
          "time": 100.20000000000027,
          "velocity": 0.8661417322834646,
          "duration": 0.19583333333333997
        },
        {
          "name": "C#5",
          "midi": 73,
          "time": 100.20000000000027,
          "velocity": 0.8661417322834646,
          "duration": 0.19583333333333997
        },
        {
          "name": "C#2",
          "midi": 37,
          "time": 100.20000000000027,
          "velocity": 0.3543307086614173,
          "duration": 0.19583333333333997
        },
        {
          "name": "E2",
          "midi": 40,
          "time": 100.20000000000027,
          "velocity": 0.3543307086614173,
          "duration": 0.19583333333333997
        },
        {
          "name": "D4",
          "midi": 62,
          "time": 100.40000000000028,
          "velocity": 0.8661417322834646,
          "duration": 0.3333333333333428
        },
        {
          "name": "F4",
          "midi": 65,
          "time": 100.40000000000028,
          "velocity": 0.8661417322834646,
          "duration": 0.3333333333333428
        },
        {
          "name": "A4",
          "midi": 69,
          "time": 100.40000000000028,
          "velocity": 0.8661417322834646,
          "duration": 0.3333333333333428
        },
        {
          "name": "D5",
          "midi": 74,
          "time": 100.40000000000028,
          "velocity": 0.8661417322834646,
          "duration": 0.3333333333333428
        },
        {
          "name": "C#2",
          "midi": 37,
          "time": 100.40000000000028,
          "velocity": 0.3543307086614173,
          "duration": 0.19583333333333997
        },
        {
          "name": "E2",
          "midi": 40,
          "time": 100.40000000000028,
          "velocity": 0.3543307086614173,
          "duration": 0.19583333333333997
        },
        {
          "name": "A1",
          "midi": 33,
          "time": 100.60000000000028,
          "velocity": 0.8661417322834646,
          "duration": 0.19583333333333997
        },
        {
          "name": "C#2",
          "midi": 37,
          "time": 100.60000000000028,
          "velocity": 0.3543307086614173,
          "duration": 0.19583333333333997
        },
        {
          "name": "E2",
          "midi": 40,
          "time": 100.60000000000028,
          "velocity": 0.3543307086614173,
          "duration": 0.19583333333333997
        },
        {
          "name": "D2",
          "midi": 38,
          "time": 100.80000000000028,
          "velocity": 0.8661417322834646,
          "duration": 0.3333333333333286
        },
        {
          "name": "D4",
          "midi": 62,
          "time": 100.80000000000028,
          "velocity": 0.8661417322834646,
          "duration": 0.19583333333333997
        },
        {
          "name": "F4",
          "midi": 65,
          "time": 100.80000000000028,
          "velocity": 0.8661417322834646,
          "duration": 0.19583333333333997
        },
        {
          "name": "A4",
          "midi": 69,
          "time": 100.80000000000028,
          "velocity": 0.8661417322834646,
          "duration": 0.19583333333333997
        },
        {
          "name": "D5",
          "midi": 74,
          "time": 100.80000000000028,
          "velocity": 0.8661417322834646,
          "duration": 0.19583333333333997
        },
        {
          "name": "C#2",
          "midi": 37,
          "time": 100.80000000000028,
          "velocity": 0.3543307086614173,
          "duration": 0.19583333333333997
        },
        {
          "name": "E2",
          "midi": 40,
          "time": 100.80000000000028,
          "velocity": 0.3543307086614173,
          "duration": 0.19583333333333997
        },
        {
          "name": "C#4",
          "midi": 61,
          "time": 101.00000000000028,
          "velocity": 0.8661417322834646,
          "duration": 0.19583333333332575
        },
        {
          "name": "E4",
          "midi": 64,
          "time": 101.00000000000028,
          "velocity": 0.8661417322834646,
          "duration": 0.19583333333332575
        },
        {
          "name": "G#4",
          "midi": 68,
          "time": 101.00000000000028,
          "velocity": 0.8661417322834646,
          "duration": 0.19583333333332575
        },
        {
          "name": "C#5",
          "midi": 73,
          "time": 101.00000000000028,
          "velocity": 0.8661417322834646,
          "duration": 0.19583333333332575
        },
        {
          "name": "C#2",
          "midi": 37,
          "time": 101.00000000000028,
          "velocity": 0.3543307086614173,
          "duration": 0.09583333333333144
        },
        {
          "name": "E2",
          "midi": 40,
          "time": 101.00000000000028,
          "velocity": 0.3543307086614173,
          "duration": 0.09583333333333144
        },
        {
          "name": "C#2",
          "midi": 37,
          "time": 101.10000000000028,
          "velocity": 0.3543307086614173,
          "duration": 0.09583333333333144
        },
        {
          "name": "E2",
          "midi": 40,
          "time": 101.10000000000028,
          "velocity": 0.3543307086614173,
          "duration": 0.09583333333333144
        },
        {
          "name": "A2",
          "midi": 45,
          "time": 101.20000000000027,
          "velocity": 0.8661417322834646,
          "duration": 0.3333333333333286
        },
        {
          "name": "F6",
          "midi": 89,
          "time": 101.20000000000027,
          "velocity": 0.8661417322834646,
          "duration": 0.04583333333333428
        },
        {
          "name": "D4",
          "midi": 62,
          "time": 101.20000000000027,
          "velocity": 0.8661417322834646,
          "duration": 0.19583333333332575
        },
        {
          "name": "F4",
          "midi": 65,
          "time": 101.20000000000027,
          "velocity": 0.8661417322834646,
          "duration": 0.19583333333332575
        },
        {
          "name": "A4",
          "midi": 69,
          "time": 101.20000000000027,
          "velocity": 0.8661417322834646,
          "duration": 0.19583333333332575
        },
        {
          "name": "D5",
          "midi": 74,
          "time": 101.20000000000027,
          "velocity": 0.8661417322834646,
          "duration": 0.19583333333332575
        },
        {
          "name": "C#2",
          "midi": 37,
          "time": 101.20000000000027,
          "velocity": 0.3543307086614173,
          "duration": 0.19583333333332575
        },
        {
          "name": "E2",
          "midi": 40,
          "time": 101.20000000000027,
          "velocity": 0.3543307086614173,
          "duration": 0.19583333333332575
        },
        {
          "name": "G6",
          "midi": 91,
          "time": 101.25000000000027,
          "velocity": 0.8661417322834646,
          "duration": 0.04583333333333428
        },
        {
          "name": "G#6",
          "midi": 92,
          "time": 101.30000000000027,
          "velocity": 0.8661417322834646,
          "duration": 0.04583333333333428
        },
        {
          "name": "A6",
          "midi": 93,
          "time": 101.35000000000026,
          "velocity": 1,
          "duration": 0.24583333333333712
        },
        {
          "name": "D#4",
          "midi": 63,
          "time": 101.40000000000026,
          "velocity": 0.8661417322834646,
          "duration": 0.19583333333333997
        },
        {
          "name": "G4",
          "midi": 67,
          "time": 101.40000000000026,
          "velocity": 0.8661417322834646,
          "duration": 0.19583333333333997
        },
        {
          "name": "A#4",
          "midi": 70,
          "time": 101.40000000000026,
          "velocity": 0.8661417322834646,
          "duration": 0.19583333333333997
        },
        {
          "name": "D#5",
          "midi": 75,
          "time": 101.40000000000026,
          "velocity": 0.8661417322834646,
          "duration": 0.19583333333333997
        },
        {
          "name": "C#2",
          "midi": 37,
          "time": 101.40000000000026,
          "velocity": 0.3543307086614173,
          "duration": 0.19583333333333997
        },
        {
          "name": "E2",
          "midi": 40,
          "time": 101.40000000000026,
          "velocity": 0.3543307086614173,
          "duration": 0.19583333333333997
        },
        {
          "name": "A1",
          "midi": 33,
          "time": 101.60000000000026,
          "velocity": 0.8661417322834646,
          "duration": 0.3333333333333286
        },
        {
          "name": "F6",
          "midi": 89,
          "time": 101.60000000000026,
          "velocity": 0.8661417322834646,
          "duration": 0.04583333333333428
        },
        {
          "name": "F4",
          "midi": 65,
          "time": 101.60000000000026,
          "velocity": 0.8661417322834646,
          "duration": 0.19583333333332575
        },
        {
          "name": "A4",
          "midi": 69,
          "time": 101.60000000000026,
          "velocity": 0.8661417322834646,
          "duration": 0.19583333333332575
        },
        {
          "name": "C5",
          "midi": 72,
          "time": 101.60000000000026,
          "velocity": 0.8661417322834646,
          "duration": 0.19583333333332575
        },
        {
          "name": "F5",
          "midi": 77,
          "time": 101.60000000000026,
          "velocity": 0.8661417322834646,
          "duration": 0.19583333333332575
        },
        {
          "name": "C#2",
          "midi": 37,
          "time": 101.60000000000026,
          "velocity": 0.3543307086614173,
          "duration": 0.19583333333332575
        },
        {
          "name": "E2",
          "midi": 40,
          "time": 101.60000000000026,
          "velocity": 0.3543307086614173,
          "duration": 0.19583333333332575
        },
        {
          "name": "G6",
          "midi": 91,
          "time": 101.65000000000026,
          "velocity": 0.8661417322834646,
          "duration": 0.04583333333333428
        },
        {
          "name": "G#6",
          "midi": 92,
          "time": 101.70000000000026,
          "velocity": 0.8661417322834646,
          "duration": 0.04583333333333428
        },
        {
          "name": "A6",
          "midi": 93,
          "time": 101.75000000000026,
          "velocity": 1,
          "duration": 0.24583333333333712
        },
        {
          "name": "D#4",
          "midi": 63,
          "time": 101.80000000000025,
          "velocity": 0.8661417322834646,
          "duration": 0.19583333333333997
        },
        {
          "name": "G4",
          "midi": 67,
          "time": 101.80000000000025,
          "velocity": 0.8661417322834646,
          "duration": 0.19583333333333997
        },
        {
          "name": "A#4",
          "midi": 70,
          "time": 101.80000000000025,
          "velocity": 0.8661417322834646,
          "duration": 0.19583333333333997
        },
        {
          "name": "D#5",
          "midi": 75,
          "time": 101.80000000000025,
          "velocity": 0.8661417322834646,
          "duration": 0.19583333333333997
        },
        {
          "name": "C#2",
          "midi": 37,
          "time": 101.80000000000025,
          "velocity": 0.3543307086614173,
          "duration": 0.19583333333333997
        },
        {
          "name": "E2",
          "midi": 40,
          "time": 101.80000000000025,
          "velocity": 0.3543307086614173,
          "duration": 0.19583333333333997
        },
        {
          "name": "D#2",
          "midi": 39,
          "time": 102.00000000000026,
          "velocity": 0.8661417322834646,
          "duration": 0.3333333333333286
        },
        {
          "name": "D#4",
          "midi": 63,
          "time": 102.00000000000026,
          "velocity": 0.8661417322834646,
          "duration": 0.19583333333333997
        },
        {
          "name": "F#4",
          "midi": 66,
          "time": 102.00000000000026,
          "velocity": 0.8661417322834646,
          "duration": 0.19583333333333997
        },
        {
          "name": "A#4",
          "midi": 70,
          "time": 102.00000000000026,
          "velocity": 0.8661417322834646,
          "duration": 0.19583333333333997
        },
        {
          "name": "D#5",
          "midi": 75,
          "time": 102.00000000000026,
          "velocity": 0.8661417322834646,
          "duration": 0.19583333333333997
        },
        {
          "name": "C#2",
          "midi": 37,
          "time": 102.00000000000026,
          "velocity": 0.3543307086614173,
          "duration": 0.19583333333333997
        },
        {
          "name": "E2",
          "midi": 40,
          "time": 102.00000000000026,
          "velocity": 0.3543307086614173,
          "duration": 0.19583333333333997
        },
        {
          "name": "D6",
          "midi": 86,
          "time": 102.20000000000026,
          "velocity": 0.8661417322834646,
          "duration": 0.04583333333333428
        },
        {
          "name": "F4",
          "midi": 65,
          "time": 102.20000000000026,
          "velocity": 0.8661417322834646,
          "duration": 0.3333333333333286
        },
        {
          "name": "G#4",
          "midi": 68,
          "time": 102.20000000000026,
          "velocity": 0.8661417322834646,
          "duration": 0.3333333333333286
        },
        {
          "name": "C5",
          "midi": 72,
          "time": 102.20000000000026,
          "velocity": 0.8661417322834646,
          "duration": 0.3333333333333286
        },
        {
          "name": "F5",
          "midi": 77,
          "time": 102.20000000000026,
          "velocity": 0.8661417322834646,
          "duration": 0.3333333333333286
        },
        {
          "name": "C#2",
          "midi": 37,
          "time": 102.20000000000026,
          "velocity": 0.3543307086614173,
          "duration": 0.09583333333333144
        },
        {
          "name": "E2",
          "midi": 40,
          "time": 102.20000000000026,
          "velocity": 0.3543307086614173,
          "duration": 0.09583333333333144
        },
        {
          "name": "D#6",
          "midi": 87,
          "time": 102.25000000000026,
          "velocity": 0.8661417322834646,
          "duration": 0.34583333333333144
        },
        {
          "name": "C#2",
          "midi": 37,
          "time": 102.30000000000025,
          "velocity": 0.3543307086614173,
          "duration": 0.09583333333333144
        },
        {
          "name": "E2",
          "midi": 40,
          "time": 102.30000000000025,
          "velocity": 0.3543307086614173,
          "duration": 0.09583333333333144
        },
        {
          "name": "C#2",
          "midi": 37,
          "time": 102.40000000000025,
          "velocity": 0.3543307086614173,
          "duration": 0.19583333333333997
        },
        {
          "name": "E2",
          "midi": 40,
          "time": 102.40000000000025,
          "velocity": 0.3543307086614173,
          "duration": 0.19583333333333997
        },
        {
          "name": "A#2",
          "midi": 46,
          "time": 102.60000000000025,
          "velocity": 0.8661417322834646,
          "duration": 0.3958333333333428
        },
        {
          "name": "D4",
          "midi": 62,
          "time": 102.60000000000025,
          "velocity": 0.8661417322834646,
          "duration": 0.19583333333333997
        },
        {
          "name": "F4",
          "midi": 65,
          "time": 102.60000000000025,
          "velocity": 0.8661417322834646,
          "duration": 0.19583333333333997
        },
        {
          "name": "A4",
          "midi": 69,
          "time": 102.60000000000025,
          "velocity": 0.8661417322834646,
          "duration": 0.19583333333333997
        },
        {
          "name": "D5",
          "midi": 74,
          "time": 102.60000000000025,
          "velocity": 0.8661417322834646,
          "duration": 0.19583333333333997
        },
        {
          "name": "C#2",
          "midi": 37,
          "time": 102.60000000000025,
          "velocity": 0.3543307086614173,
          "duration": 0.19583333333333997
        },
        {
          "name": "E2",
          "midi": 40,
          "time": 102.60000000000025,
          "velocity": 0.3543307086614173,
          "duration": 0.19583333333333997
        },
        {
          "name": "D#4",
          "midi": 63,
          "time": 102.80000000000025,
          "velocity": 0.8661417322834646,
          "duration": 0.3333333333333428
        },
        {
          "name": "F#4",
          "midi": 66,
          "time": 102.80000000000025,
          "velocity": 0.8661417322834646,
          "duration": 0.3333333333333428
        },
        {
          "name": "A#4",
          "midi": 70,
          "time": 102.80000000000025,
          "velocity": 0.8661417322834646,
          "duration": 0.3333333333333428
        },
        {
          "name": "D#5",
          "midi": 75,
          "time": 102.80000000000025,
          "velocity": 0.8661417322834646,
          "duration": 0.3333333333333428
        },
        {
          "name": "C#2",
          "midi": 37,
          "time": 102.80000000000025,
          "velocity": 0.3543307086614173,
          "duration": 0.19583333333333997
        },
        {
          "name": "E2",
          "midi": 40,
          "time": 102.80000000000025,
          "velocity": 0.3543307086614173,
          "duration": 0.19583333333333997
        },
        {
          "name": "A#1",
          "midi": 34,
          "time": 103.00000000000026,
          "velocity": 0.8661417322834646,
          "duration": 0.19583333333333997
        },
        {
          "name": "C#2",
          "midi": 37,
          "time": 103.00000000000026,
          "velocity": 0.3543307086614173,
          "duration": 0.19583333333333997
        },
        {
          "name": "E2",
          "midi": 40,
          "time": 103.00000000000026,
          "velocity": 0.3543307086614173,
          "duration": 0.19583333333333997
        },
        {
          "name": "D#2",
          "midi": 39,
          "time": 103.20000000000026,
          "velocity": 0.8661417322834646,
          "duration": 0.3333333333333286
        },
        {
          "name": "D#4",
          "midi": 63,
          "time": 103.20000000000026,
          "velocity": 0.8661417322834646,
          "duration": 0.19583333333333997
        },
        {
          "name": "F#4",
          "midi": 66,
          "time": 103.20000000000026,
          "velocity": 0.8661417322834646,
          "duration": 0.19583333333333997
        },
        {
          "name": "A#4",
          "midi": 70,
          "time": 103.20000000000026,
          "velocity": 0.8661417322834646,
          "duration": 0.19583333333333997
        },
        {
          "name": "D#5",
          "midi": 75,
          "time": 103.20000000000026,
          "velocity": 0.8661417322834646,
          "duration": 0.19583333333333997
        },
        {
          "name": "C#2",
          "midi": 37,
          "time": 103.20000000000026,
          "velocity": 0.3543307086614173,
          "duration": 0.19583333333333997
        },
        {
          "name": "E2",
          "midi": 40,
          "time": 103.20000000000026,
          "velocity": 0.3543307086614173,
          "duration": 0.19583333333333997
        },
        {
          "name": "D4",
          "midi": 62,
          "time": 103.40000000000026,
          "velocity": 0.8661417322834646,
          "duration": 0.19583333333332575
        },
        {
          "name": "F4",
          "midi": 65,
          "time": 103.40000000000026,
          "velocity": 0.8661417322834646,
          "duration": 0.19583333333332575
        },
        {
          "name": "A4",
          "midi": 69,
          "time": 103.40000000000026,
          "velocity": 0.8661417322834646,
          "duration": 0.19583333333332575
        },
        {
          "name": "D5",
          "midi": 74,
          "time": 103.40000000000026,
          "velocity": 0.8661417322834646,
          "duration": 0.19583333333332575
        },
        {
          "name": "C#2",
          "midi": 37,
          "time": 103.40000000000026,
          "velocity": 0.3543307086614173,
          "duration": 0.09583333333333144
        },
        {
          "name": "E2",
          "midi": 40,
          "time": 103.40000000000026,
          "velocity": 0.3543307086614173,
          "duration": 0.09583333333333144
        },
        {
          "name": "C#2",
          "midi": 37,
          "time": 103.50000000000026,
          "velocity": 0.3543307086614173,
          "duration": 0.09583333333333144
        },
        {
          "name": "E2",
          "midi": 40,
          "time": 103.50000000000026,
          "velocity": 0.3543307086614173,
          "duration": 0.09583333333333144
        },
        {
          "name": "A#2",
          "midi": 46,
          "time": 103.60000000000025,
          "velocity": 0.8661417322834646,
          "duration": 0.3333333333333286
        },
        {
          "name": "F#6",
          "midi": 90,
          "time": 103.60000000000025,
          "velocity": 0.8661417322834646,
          "duration": 0.04583333333333428
        },
        {
          "name": "D#4",
          "midi": 63,
          "time": 103.60000000000025,
          "velocity": 0.8661417322834646,
          "duration": 0.19583333333332575
        },
        {
          "name": "F#4",
          "midi": 66,
          "time": 103.60000000000025,
          "velocity": 0.8661417322834646,
          "duration": 0.19583333333332575
        },
        {
          "name": "A#4",
          "midi": 70,
          "time": 103.60000000000025,
          "velocity": 0.8661417322834646,
          "duration": 0.19583333333332575
        },
        {
          "name": "D#5",
          "midi": 75,
          "time": 103.60000000000025,
          "velocity": 0.8661417322834646,
          "duration": 0.19583333333332575
        },
        {
          "name": "C#2",
          "midi": 37,
          "time": 103.60000000000025,
          "velocity": 0.3543307086614173,
          "duration": 0.19583333333332575
        },
        {
          "name": "E2",
          "midi": 40,
          "time": 103.60000000000025,
          "velocity": 0.3543307086614173,
          "duration": 0.19583333333332575
        },
        {
          "name": "G#6",
          "midi": 92,
          "time": 103.65000000000025,
          "velocity": 0.8661417322834646,
          "duration": 0.04583333333333428
        },
        {
          "name": "A6",
          "midi": 93,
          "time": 103.70000000000024,
          "velocity": 0.8661417322834646,
          "duration": 0.04583333333333428
        },
        {
          "name": "A#6",
          "midi": 94,
          "time": 103.75000000000024,
          "velocity": 0.8661417322834646,
          "duration": 0.24583333333333712
        },
        {
          "name": "F4",
          "midi": 65,
          "time": 103.80000000000024,
          "velocity": 0.8661417322834646,
          "duration": 0.19583333333333997
        },
        {
          "name": "G#4",
          "midi": 68,
          "time": 103.80000000000024,
          "velocity": 0.8661417322834646,
          "duration": 0.19583333333333997
        },
        {
          "name": "C5",
          "midi": 72,
          "time": 103.80000000000024,
          "velocity": 0.8661417322834646,
          "duration": 0.19583333333333997
        },
        {
          "name": "F5",
          "midi": 77,
          "time": 103.80000000000024,
          "velocity": 0.8661417322834646,
          "duration": 0.19583333333333997
        },
        {
          "name": "C#2",
          "midi": 37,
          "time": 103.80000000000024,
          "velocity": 0.3543307086614173,
          "duration": 0.19583333333333997
        },
        {
          "name": "E2",
          "midi": 40,
          "time": 103.80000000000024,
          "velocity": 0.3543307086614173,
          "duration": 0.19583333333333997
        },
        {
          "name": "A#1",
          "midi": 34,
          "time": 104.00000000000024,
          "velocity": 0.8661417322834646,
          "duration": 0.3333333333333286
        },
        {
          "name": "F#6",
          "midi": 90,
          "time": 104.00000000000024,
          "velocity": 0.8661417322834646,
          "duration": 0.04583333333333428
        },
        {
          "name": "F#4",
          "midi": 66,
          "time": 104.00000000000024,
          "velocity": 0.8661417322834646,
          "duration": 0.19583333333332575
        },
        {
          "name": "A#4",
          "midi": 70,
          "time": 104.00000000000024,
          "velocity": 0.8661417322834646,
          "duration": 0.19583333333332575
        },
        {
          "name": "C#5",
          "midi": 73,
          "time": 104.00000000000024,
          "velocity": 0.8661417322834646,
          "duration": 0.19583333333332575
        },
        {
          "name": "F#5",
          "midi": 78,
          "time": 104.00000000000024,
          "velocity": 0.8661417322834646,
          "duration": 0.19583333333332575
        },
        {
          "name": "C#2",
          "midi": 37,
          "time": 104.00000000000024,
          "velocity": 0.3543307086614173,
          "duration": 0.19583333333332575
        },
        {
          "name": "E2",
          "midi": 40,
          "time": 104.00000000000024,
          "velocity": 0.3543307086614173,
          "duration": 0.19583333333332575
        },
        {
          "name": "G#6",
          "midi": 92,
          "time": 104.05000000000024,
          "velocity": 0.8661417322834646,
          "duration": 0.04583333333333428
        },
        {
          "name": "A6",
          "midi": 93,
          "time": 104.10000000000024,
          "velocity": 0.8661417322834646,
          "duration": 0.04583333333333428
        },
        {
          "name": "A#6",
          "midi": 94,
          "time": 104.15000000000023,
          "velocity": 0.8661417322834646,
          "duration": 0.24583333333333712
        },
        {
          "name": "G#4",
          "midi": 68,
          "time": 104.20000000000023,
          "velocity": 0.8661417322834646,
          "duration": 0.19583333333333997
        },
        {
          "name": "C5",
          "midi": 72,
          "time": 104.20000000000023,
          "velocity": 0.8661417322834646,
          "duration": 0.19583333333333997
        },
        {
          "name": "D#5",
          "midi": 75,
          "time": 104.20000000000023,
          "velocity": 0.8661417322834646,
          "duration": 0.19583333333333997
        },
        {
          "name": "G#5",
          "midi": 80,
          "time": 104.20000000000023,
          "velocity": 0.8661417322834646,
          "duration": 0.19583333333333997
        },
        {
          "name": "C#2",
          "midi": 37,
          "time": 104.20000000000023,
          "velocity": 0.3543307086614173,
          "duration": 0.19583333333333997
        },
        {
          "name": "E2",
          "midi": 40,
          "time": 104.20000000000023,
          "velocity": 0.3543307086614173,
          "duration": 0.19583333333333997
        },
        {
          "name": "A2",
          "midi": 45,
          "time": 104.40000000000023,
          "velocity": 0.8661417322834646,
          "duration": 0.19583333333332575
        },
        {
          "name": "A6",
          "midi": 93,
          "time": 104.40000000000023,
          "velocity": 0.8661417322834646,
          "duration": 0.09999999999999432
        },
        {
          "name": "A4",
          "midi": 69,
          "time": 104.40000000000023,
          "velocity": 0.8661417322834646,
          "duration": 0.19583333333332575
        },
        {
          "name": "C#5",
          "midi": 73,
          "time": 104.40000000000023,
          "velocity": 0.8661417322834646,
          "duration": 0.19583333333332575
        },
        {
          "name": "E5",
          "midi": 76,
          "time": 104.40000000000023,
          "velocity": 0.8661417322834646,
          "duration": 0.19583333333332575
        },
        {
          "name": "A5",
          "midi": 81,
          "time": 104.40000000000023,
          "velocity": 0.8661417322834646,
          "duration": 0.19583333333332575
        },
        {
          "name": "C#2",
          "midi": 37,
          "time": 104.40000000000023,
          "velocity": 0.3543307086614173,
          "duration": 0.19583333333332575
        },
        {
          "name": "E2",
          "midi": 40,
          "time": 104.40000000000023,
          "velocity": 0.3543307086614173,
          "duration": 0.19583333333332575
        },
        {
          "name": "G6",
          "midi": 91,
          "time": 104.50000000000023,
          "velocity": 0.8661417322834646,
          "duration": 0.09999999999999432
        },
        {
          "name": "G#2",
          "midi": 44,
          "time": 104.60000000000022,
          "velocity": 0.8661417322834646,
          "duration": 0.19583333333332575
        },
        {
          "name": "F6",
          "midi": 89,
          "time": 104.60000000000022,
          "velocity": 0.8661417322834646,
          "duration": 0.09999999999999432
        },
        {
          "name": "A4",
          "midi": 69,
          "time": 104.60000000000022,
          "velocity": 0.8661417322834646,
          "duration": 0.09583333333333144
        },
        {
          "name": "C#5",
          "midi": 73,
          "time": 104.60000000000022,
          "velocity": 0.8661417322834646,
          "duration": 0.09583333333333144
        },
        {
          "name": "E5",
          "midi": 76,
          "time": 104.60000000000022,
          "velocity": 0.8661417322834646,
          "duration": 0.09583333333333144
        },
        {
          "name": "A5",
          "midi": 81,
          "time": 104.60000000000022,
          "velocity": 0.8661417322834646,
          "duration": 0.09583333333333144
        },
        {
          "name": "C#2",
          "midi": 37,
          "time": 104.60000000000022,
          "velocity": 0.3543307086614173,
          "duration": 0.09583333333333144
        },
        {
          "name": "E2",
          "midi": 40,
          "time": 104.60000000000022,
          "velocity": 0.3543307086614173,
          "duration": 0.09583333333333144
        },
        {
          "name": "E6",
          "midi": 88,
          "time": 104.70000000000022,
          "velocity": 0.8661417322834646,
          "duration": 0.09999999999999432
        },
        {
          "name": "A4",
          "midi": 69,
          "time": 104.70000000000022,
          "velocity": 0.8661417322834646,
          "duration": 0.09583333333333144
        },
        {
          "name": "C#5",
          "midi": 73,
          "time": 104.70000000000022,
          "velocity": 0.8661417322834646,
          "duration": 0.09583333333333144
        },
        {
          "name": "E5",
          "midi": 76,
          "time": 104.70000000000022,
          "velocity": 0.8661417322834646,
          "duration": 0.09583333333333144
        },
        {
          "name": "A5",
          "midi": 81,
          "time": 104.70000000000022,
          "velocity": 0.8661417322834646,
          "duration": 0.09583333333333144
        },
        {
          "name": "C#2",
          "midi": 37,
          "time": 104.70000000000022,
          "velocity": 0.3543307086614173,
          "duration": 0.09583333333333144
        },
        {
          "name": "E2",
          "midi": 40,
          "time": 104.70000000000022,
          "velocity": 0.3543307086614173,
          "duration": 0.09583333333333144
        },
        {
          "name": "G2",
          "midi": 43,
          "time": 104.80000000000021,
          "velocity": 0.8661417322834646,
          "duration": 0.19583333333332575
        },
        {
          "name": "F6",
          "midi": 89,
          "time": 104.80000000000021,
          "velocity": 0.8661417322834646,
          "duration": 0.09999999999999432
        },
        {
          "name": "A4",
          "midi": 69,
          "time": 104.80000000000021,
          "velocity": 0.8661417322834646,
          "duration": 0.19583333333332575
        },
        {
          "name": "C#5",
          "midi": 73,
          "time": 104.80000000000021,
          "velocity": 0.8661417322834646,
          "duration": 0.19583333333332575
        },
        {
          "name": "E5",
          "midi": 76,
          "time": 104.80000000000021,
          "velocity": 0.8661417322834646,
          "duration": 0.19583333333332575
        },
        {
          "name": "A5",
          "midi": 81,
          "time": 104.80000000000021,
          "velocity": 0.8661417322834646,
          "duration": 0.19583333333332575
        },
        {
          "name": "C#2",
          "midi": 37,
          "time": 104.80000000000021,
          "velocity": 0.3543307086614173,
          "duration": 0.19583333333332575
        },
        {
          "name": "E2",
          "midi": 40,
          "time": 104.80000000000021,
          "velocity": 0.3543307086614173,
          "duration": 0.19583333333332575
        },
        {
          "name": "G6",
          "midi": 91,
          "time": 104.9000000000002,
          "velocity": 0.8661417322834646,
          "duration": 0.09999999999999432
        },
        {
          "name": "F#2",
          "midi": 42,
          "time": 105.0000000000002,
          "velocity": 0.8661417322834646,
          "duration": 0.19583333333332575
        },
        {
          "name": "A6",
          "midi": 93,
          "time": 105.0000000000002,
          "velocity": 0.8661417322834646,
          "duration": 0.09999999999999432
        },
        {
          "name": "A4",
          "midi": 69,
          "time": 105.0000000000002,
          "velocity": 0.8661417322834646,
          "duration": 0.09583333333333144
        },
        {
          "name": "C#5",
          "midi": 73,
          "time": 105.0000000000002,
          "velocity": 0.8661417322834646,
          "duration": 0.09583333333333144
        },
        {
          "name": "E5",
          "midi": 76,
          "time": 105.0000000000002,
          "velocity": 0.8661417322834646,
          "duration": 0.09583333333333144
        },
        {
          "name": "A5",
          "midi": 81,
          "time": 105.0000000000002,
          "velocity": 0.8661417322834646,
          "duration": 0.09583333333333144
        },
        {
          "name": "C#2",
          "midi": 37,
          "time": 105.0000000000002,
          "velocity": 0.3543307086614173,
          "duration": 0.19583333333332575
        },
        {
          "name": "E2",
          "midi": 40,
          "time": 105.0000000000002,
          "velocity": 0.3543307086614173,
          "duration": 0.19583333333332575
        },
        {
          "name": "G6",
          "midi": 91,
          "time": 105.1000000000002,
          "velocity": 0.8661417322834646,
          "duration": 0.09999999999999432
        },
        {
          "name": "A4",
          "midi": 69,
          "time": 105.1000000000002,
          "velocity": 0.8661417322834646,
          "duration": 0.09583333333333144
        },
        {
          "name": "C#5",
          "midi": 73,
          "time": 105.1000000000002,
          "velocity": 0.8661417322834646,
          "duration": 0.09583333333333144
        },
        {
          "name": "E5",
          "midi": 76,
          "time": 105.1000000000002,
          "velocity": 0.8661417322834646,
          "duration": 0.09583333333333144
        },
        {
          "name": "A5",
          "midi": 81,
          "time": 105.1000000000002,
          "velocity": 0.8661417322834646,
          "duration": 0.09583333333333144
        },
        {
          "name": "F2",
          "midi": 41,
          "time": 105.20000000000019,
          "velocity": 0.8661417322834646,
          "duration": 0.19583333333332575
        },
        {
          "name": "F6",
          "midi": 89,
          "time": 105.20000000000019,
          "velocity": 0.8661417322834646,
          "duration": 0.09999999999999432
        },
        {
          "name": "A4",
          "midi": 69,
          "time": 105.20000000000019,
          "velocity": 0.8661417322834646,
          "duration": 0.19583333333332575
        },
        {
          "name": "C#5",
          "midi": 73,
          "time": 105.20000000000019,
          "velocity": 0.8661417322834646,
          "duration": 0.19583333333332575
        },
        {
          "name": "E5",
          "midi": 76,
          "time": 105.20000000000019,
          "velocity": 0.8661417322834646,
          "duration": 0.19583333333332575
        },
        {
          "name": "A5",
          "midi": 81,
          "time": 105.20000000000019,
          "velocity": 0.8661417322834646,
          "duration": 0.19583333333332575
        },
        {
          "name": "C#2",
          "midi": 37,
          "time": 105.20000000000019,
          "velocity": 0.3543307086614173,
          "duration": 0.19583333333332575
        },
        {
          "name": "E2",
          "midi": 40,
          "time": 105.20000000000019,
          "velocity": 0.3543307086614173,
          "duration": 0.19583333333332575
        },
        {
          "name": "E6",
          "midi": 88,
          "time": 105.30000000000018,
          "velocity": 0.8661417322834646,
          "duration": 0.09999999999999432
        },
        {
          "name": "E2",
          "midi": 40,
          "time": 105.40000000000018,
          "velocity": 0.8661417322834646,
          "duration": 0.19583333333332575
        },
        {
          "name": "F6",
          "midi": 89,
          "time": 105.40000000000018,
          "velocity": 0.8661417322834646,
          "duration": 0.09999999999999432
        },
        {
          "name": "A4",
          "midi": 69,
          "time": 105.40000000000018,
          "velocity": 0.8661417322834646,
          "duration": 0.09583333333333144
        },
        {
          "name": "C#5",
          "midi": 73,
          "time": 105.40000000000018,
          "velocity": 0.8661417322834646,
          "duration": 0.09583333333333144
        },
        {
          "name": "E5",
          "midi": 76,
          "time": 105.40000000000018,
          "velocity": 0.8661417322834646,
          "duration": 0.09583333333333144
        },
        {
          "name": "A5",
          "midi": 81,
          "time": 105.40000000000018,
          "velocity": 0.8661417322834646,
          "duration": 0.09583333333333144
        },
        {
          "name": "C#2",
          "midi": 37,
          "time": 105.40000000000018,
          "velocity": 0.3543307086614173,
          "duration": 0.19583333333332575
        },
        {
          "name": "E2",
          "midi": 40,
          "time": 105.40000000000018,
          "velocity": 0.3543307086614173,
          "duration": 0.19583333333332575
        },
        {
          "name": "G6",
          "midi": 91,
          "time": 105.50000000000017,
          "velocity": 0.8661417322834646,
          "duration": 0.09999999999999432
        },
        {
          "name": "A4",
          "midi": 69,
          "time": 105.50000000000017,
          "velocity": 0.8661417322834646,
          "duration": 0.09583333333333144
        },
        {
          "name": "C#5",
          "midi": 73,
          "time": 105.50000000000017,
          "velocity": 0.8661417322834646,
          "duration": 0.09583333333333144
        },
        {
          "name": "E5",
          "midi": 76,
          "time": 105.50000000000017,
          "velocity": 0.8661417322834646,
          "duration": 0.09583333333333144
        },
        {
          "name": "A5",
          "midi": 81,
          "time": 105.50000000000017,
          "velocity": 0.8661417322834646,
          "duration": 0.09583333333333144
        },
        {
          "name": "A1",
          "midi": 33,
          "time": 105.60000000000016,
          "velocity": 0.8661417322834646,
          "duration": 0.19583333333332575
        },
        {
          "name": "A6",
          "midi": 93,
          "time": 105.60000000000016,
          "velocity": 0.8661417322834646,
          "duration": 0.06666666666666288
        },
        {
          "name": "A4",
          "midi": 69,
          "time": 105.60000000000016,
          "velocity": 0.8661417322834646,
          "duration": 0.19583333333332575
        },
        {
          "name": "C#5",
          "midi": 73,
          "time": 105.60000000000016,
          "velocity": 0.8661417322834646,
          "duration": 0.19583333333332575
        },
        {
          "name": "E5",
          "midi": 76,
          "time": 105.60000000000016,
          "velocity": 0.8661417322834646,
          "duration": 0.19583333333332575
        },
        {
          "name": "A5",
          "midi": 81,
          "time": 105.60000000000016,
          "velocity": 0.8661417322834646,
          "duration": 0.19583333333332575
        },
        {
          "name": "C#2",
          "midi": 37,
          "time": 105.60000000000016,
          "velocity": 0.3543307086614173,
          "duration": 0.19583333333332575
        },
        {
          "name": "E2",
          "midi": 40,
          "time": 105.60000000000016,
          "velocity": 0.3543307086614173,
          "duration": 0.19583333333332575
        },
        {
          "name": "A3",
          "midi": 57,
          "time": 105.80000000000015,
          "velocity": 0.8661417322834646,
          "duration": 0.09583333333333144
        },
        {
          "name": "C#2",
          "midi": 37,
          "time": 105.80000000000015,
          "velocity": 0.3543307086614173,
          "duration": 0.09583333333333144
        },
        {
          "name": "E2",
          "midi": 40,
          "time": 105.80000000000015,
          "velocity": 0.3543307086614173,
          "duration": 0.09583333333333144
        },
        {
          "name": "A3",
          "midi": 57,
          "time": 105.90000000000015,
          "velocity": 0.8661417322834646,
          "duration": 0.09583333333333144
        },
        {
          "name": "C#2",
          "midi": 37,
          "time": 105.90000000000015,
          "velocity": 0.3543307086614173,
          "duration": 0.09583333333333144
        },
        {
          "name": "E2",
          "midi": 40,
          "time": 105.90000000000015,
          "velocity": 0.3543307086614173,
          "duration": 0.09583333333333144
        },
        {
          "name": "A3",
          "midi": 57,
          "time": 106.00000000000014,
          "velocity": 0.8661417322834646,
          "duration": 0.19583333333333997
        },
        {
          "name": "C#2",
          "midi": 37,
          "time": 106.00000000000014,
          "velocity": 0.3543307086614173,
          "duration": 0.19583333333333997
        },
        {
          "name": "E2",
          "midi": 40,
          "time": 106.00000000000014,
          "velocity": 0.3543307086614173,
          "duration": 0.19583333333333997
        },
        {
          "name": "D4",
          "midi": 62,
          "time": 106.20000000000014,
          "velocity": 0.8661417322834646,
          "duration": 0.09583333333333144
        },
        {
          "name": "C#2",
          "midi": 37,
          "time": 106.20000000000014,
          "velocity": 0.3543307086614173,
          "duration": 0.19583333333332575
        },
        {
          "name": "E2",
          "midi": 40,
          "time": 106.20000000000014,
          "velocity": 0.3543307086614173,
          "duration": 0.19583333333332575
        },
        {
          "name": "D4",
          "midi": 62,
          "time": 106.30000000000014,
          "velocity": 0.8661417322834646,
          "duration": 0.09583333333333144
        },
        {
          "name": "D4",
          "midi": 62,
          "time": 106.40000000000013,
          "velocity": 0.8661417322834646,
          "duration": 0.19583333333333997
        },
        {
          "name": "C#2",
          "midi": 37,
          "time": 106.40000000000013,
          "velocity": 0.3543307086614173,
          "duration": 0.19583333333333997
        },
        {
          "name": "E2",
          "midi": 40,
          "time": 106.40000000000013,
          "velocity": 0.3543307086614173,
          "duration": 0.19583333333333997
        },
        {
          "name": "F4",
          "midi": 65,
          "time": 106.60000000000014,
          "velocity": 0.8661417322834646,
          "duration": 0.09583333333333144
        },
        {
          "name": "C#2",
          "midi": 37,
          "time": 106.60000000000014,
          "velocity": 0.3543307086614173,
          "duration": 0.19583333333332575
        },
        {
          "name": "E2",
          "midi": 40,
          "time": 106.60000000000014,
          "velocity": 0.3543307086614173,
          "duration": 0.19583333333332575
        },
        {
          "name": "F4",
          "midi": 65,
          "time": 106.70000000000013,
          "velocity": 0.8661417322834646,
          "duration": 0.09583333333333144
        },
        {
          "name": "D2",
          "midi": 38,
          "time": 106.80000000000013,
          "velocity": 0.8661417322834646,
          "duration": 0.5333333333333314
        },
        {
          "name": "D3",
          "midi": 50,
          "time": 106.80000000000013,
          "velocity": 0.8661417322834646,
          "duration": 0.5333333333333314
        },
        {
          "name": "A3",
          "midi": 57,
          "time": 106.80000000000013,
          "velocity": 0.8661417322834646,
          "duration": 0.19583333333333997
        },
        {
          "name": "D4",
          "midi": 62,
          "time": 106.80000000000013,
          "velocity": 0.8661417322834646,
          "duration": 0.19583333333333997
        },
        {
          "name": "F4",
          "midi": 65,
          "time": 106.80000000000013,
          "velocity": 0.8661417322834646,
          "duration": 0.19583333333333997
        },
        {
          "name": "C#2",
          "midi": 37,
          "time": 106.80000000000013,
          "velocity": 0.3543307086614173,
          "duration": 0.19583333333333997
        },
        {
          "name": "E2",
          "midi": 40,
          "time": 106.80000000000013,
          "velocity": 0.3543307086614173,
          "duration": 0.19583333333333997
        },
        {
          "name": "A3",
          "midi": 57,
          "time": 107.00000000000013,
          "velocity": 0.8661417322834646,
          "duration": 0.09583333333333144
        },
        {
          "name": "D4",
          "midi": 62,
          "time": 107.00000000000013,
          "velocity": 0.8661417322834646,
          "duration": 0.09583333333333144
        },
        {
          "name": "F4",
          "midi": 65,
          "time": 107.00000000000013,
          "velocity": 0.8661417322834646,
          "duration": 0.09583333333333144
        },
        {
          "name": "C#2",
          "midi": 37,
          "time": 107.00000000000013,
          "velocity": 0.3543307086614173,
          "duration": 0.09583333333333144
        },
        {
          "name": "E2",
          "midi": 40,
          "time": 107.00000000000013,
          "velocity": 0.3543307086614173,
          "duration": 0.09583333333333144
        },
        {
          "name": "F4",
          "midi": 65,
          "time": 107.10000000000012,
          "velocity": 0.8661417322834646,
          "duration": 0.09583333333333144
        },
        {
          "name": "D4",
          "midi": 62,
          "time": 107.10000000000012,
          "velocity": 0.8661417322834646,
          "duration": 0.09583333333333144
        },
        {
          "name": "A3",
          "midi": 57,
          "time": 107.10000000000012,
          "velocity": 0.8661417322834646,
          "duration": 0.09583333333333144
        },
        {
          "name": "C#2",
          "midi": 37,
          "time": 107.10000000000012,
          "velocity": 0.3543307086614173,
          "duration": 0.09583333333333144
        },
        {
          "name": "E2",
          "midi": 40,
          "time": 107.10000000000012,
          "velocity": 0.3543307086614173,
          "duration": 0.09583333333333144
        },
        {
          "name": "A3",
          "midi": 57,
          "time": 107.20000000000012,
          "velocity": 0.8661417322834646,
          "duration": 0.19583333333333997
        },
        {
          "name": "D4",
          "midi": 62,
          "time": 107.20000000000012,
          "velocity": 0.8661417322834646,
          "duration": 0.19583333333333997
        },
        {
          "name": "F4",
          "midi": 65,
          "time": 107.20000000000012,
          "velocity": 0.8661417322834646,
          "duration": 0.19583333333333997
        },
        {
          "name": "C#2",
          "midi": 37,
          "time": 107.20000000000012,
          "velocity": 0.3543307086614173,
          "duration": 0.19583333333333997
        },
        {
          "name": "E2",
          "midi": 40,
          "time": 107.20000000000012,
          "velocity": 0.3543307086614173,
          "duration": 0.19583333333333997
        },
        {
          "name": "A2",
          "midi": 45,
          "time": 107.40000000000012,
          "velocity": 0.8661417322834646,
          "duration": 0.3958333333333428
        },
        {
          "name": "A#3",
          "midi": 58,
          "time": 107.40000000000012,
          "velocity": 0.8661417322834646,
          "duration": 0.3958333333333428
        },
        {
          "name": "D#4",
          "midi": 63,
          "time": 107.40000000000012,
          "velocity": 0.8661417322834646,
          "duration": 0.3958333333333428
        },
        {
          "name": "G4",
          "midi": 67,
          "time": 107.40000000000012,
          "velocity": 0.8661417322834646,
          "duration": 0.3958333333333428
        },
        {
          "name": "C#2",
          "midi": 37,
          "time": 107.40000000000012,
          "velocity": 0.3543307086614173,
          "duration": 0.19583333333333997
        },
        {
          "name": "E2",
          "midi": 40,
          "time": 107.40000000000012,
          "velocity": 0.3543307086614173,
          "duration": 0.19583333333333997
        },
        {
          "name": "C#2",
          "midi": 37,
          "time": 107.60000000000012,
          "velocity": 0.3543307086614173,
          "duration": 0.19583333333333997
        },
        {
          "name": "E2",
          "midi": 40,
          "time": 107.60000000000012,
          "velocity": 0.3543307086614173,
          "duration": 0.19583333333333997
        },
        {
          "name": "A2",
          "midi": 45,
          "time": 107.80000000000013,
          "velocity": 0.8661417322834646,
          "duration": 0.19583333333333997
        },
        {
          "name": "A3",
          "midi": 57,
          "time": 107.80000000000013,
          "velocity": 0.8661417322834646,
          "duration": 0.19583333333333997
        },
        {
          "name": "D4",
          "midi": 62,
          "time": 107.80000000000013,
          "velocity": 0.8661417322834646,
          "duration": 0.19583333333333997
        },
        {
          "name": "F4",
          "midi": 65,
          "time": 107.80000000000013,
          "velocity": 0.8661417322834646,
          "duration": 0.19583333333333997
        },
        {
          "name": "C#2",
          "midi": 37,
          "time": 107.80000000000013,
          "velocity": 0.3543307086614173,
          "duration": 0.19583333333333997
        },
        {
          "name": "E2",
          "midi": 40,
          "time": 107.80000000000013,
          "velocity": 0.3543307086614173,
          "duration": 0.19583333333333997
        },
        {
          "name": "F2",
          "midi": 41,
          "time": 108.00000000000013,
          "velocity": 0.8661417322834646,
          "duration": 0.3333333333333286
        },
        {
          "name": "F3",
          "midi": 53,
          "time": 108.00000000000013,
          "velocity": 0.8661417322834646,
          "duration": 0.3333333333333286
        },
        {
          "name": "C4",
          "midi": 60,
          "time": 108.00000000000013,
          "velocity": 0.8661417322834646,
          "duration": 0.19583333333333997
        },
        {
          "name": "F4",
          "midi": 65,
          "time": 108.00000000000013,
          "velocity": 0.8661417322834646,
          "duration": 0.19583333333333997
        },
        {
          "name": "A4",
          "midi": 69,
          "time": 108.00000000000013,
          "velocity": 0.8661417322834646,
          "duration": 0.19583333333333997
        },
        {
          "name": "C#2",
          "midi": 37,
          "time": 108.00000000000013,
          "velocity": 0.3543307086614173,
          "duration": 0.19583333333333997
        },
        {
          "name": "E2",
          "midi": 40,
          "time": 108.00000000000013,
          "velocity": 0.3543307086614173,
          "duration": 0.19583333333333997
        },
        {
          "name": "C4",
          "midi": 60,
          "time": 108.20000000000013,
          "velocity": 0.8661417322834646,
          "duration": 0.09583333333333144
        },
        {
          "name": "F4",
          "midi": 65,
          "time": 108.20000000000013,
          "velocity": 0.8661417322834646,
          "duration": 0.09583333333333144
        },
        {
          "name": "A4",
          "midi": 69,
          "time": 108.20000000000013,
          "velocity": 0.8661417322834646,
          "duration": 0.09583333333333144
        },
        {
          "name": "C#2",
          "midi": 37,
          "time": 108.20000000000013,
          "velocity": 0.3543307086614173,
          "duration": 0.09583333333333144
        },
        {
          "name": "E2",
          "midi": 40,
          "time": 108.20000000000013,
          "velocity": 0.3543307086614173,
          "duration": 0.09583333333333144
        },
        {
          "name": "C4",
          "midi": 60,
          "time": 108.30000000000013,
          "velocity": 0.8661417322834646,
          "duration": 0.09583333333333144
        },
        {
          "name": "F4",
          "midi": 65,
          "time": 108.30000000000013,
          "velocity": 0.8661417322834646,
          "duration": 0.09583333333333144
        },
        {
          "name": "A4",
          "midi": 69,
          "time": 108.30000000000013,
          "velocity": 0.8661417322834646,
          "duration": 0.09583333333333144
        },
        {
          "name": "C#2",
          "midi": 37,
          "time": 108.30000000000013,
          "velocity": 0.3543307086614173,
          "duration": 0.09583333333333144
        },
        {
          "name": "E2",
          "midi": 40,
          "time": 108.30000000000013,
          "velocity": 0.3543307086614173,
          "duration": 0.09583333333333144
        },
        {
          "name": "C3",
          "midi": 48,
          "time": 108.40000000000012,
          "velocity": 0.8661417322834646,
          "duration": 0.3333333333333428
        },
        {
          "name": "C4",
          "midi": 60,
          "time": 108.40000000000012,
          "velocity": 0.8661417322834646,
          "duration": 0.19583333333333997
        },
        {
          "name": "F4",
          "midi": 65,
          "time": 108.40000000000012,
          "velocity": 0.8661417322834646,
          "duration": 0.19583333333333997
        },
        {
          "name": "C#2",
          "midi": 37,
          "time": 108.40000000000012,
          "velocity": 0.3543307086614173,
          "duration": 0.19583333333333997
        },
        {
          "name": "E2",
          "midi": 40,
          "time": 108.40000000000012,
          "velocity": 0.3543307086614173,
          "duration": 0.19583333333333997
        },
        {
          "name": "C4",
          "midi": 60,
          "time": 108.60000000000012,
          "velocity": 0.8661417322834646,
          "duration": 0.19583333333333997
        },
        {
          "name": "F4",
          "midi": 65,
          "time": 108.60000000000012,
          "velocity": 0.8661417322834646,
          "duration": 0.19583333333333997
        },
        {
          "name": "C#2",
          "midi": 37,
          "time": 108.60000000000012,
          "velocity": 0.3543307086614173,
          "duration": 0.19583333333333997
        },
        {
          "name": "E2",
          "midi": 40,
          "time": 108.60000000000012,
          "velocity": 0.3543307086614173,
          "duration": 0.19583333333333997
        },
        {
          "name": "F2",
          "midi": 41,
          "time": 108.80000000000013,
          "velocity": 0.8661417322834646,
          "duration": 0.3333333333333428
        },
        {
          "name": "F3",
          "midi": 53,
          "time": 108.80000000000013,
          "velocity": 0.8661417322834646,
          "duration": 0.3333333333333428
        },
        {
          "name": "C4",
          "midi": 60,
          "time": 108.80000000000013,
          "velocity": 0.8661417322834646,
          "duration": 0.19583333333333997
        },
        {
          "name": "F4",
          "midi": 65,
          "time": 108.80000000000013,
          "velocity": 0.8661417322834646,
          "duration": 0.19583333333333997
        },
        {
          "name": "A4",
          "midi": 69,
          "time": 108.80000000000013,
          "velocity": 0.8661417322834646,
          "duration": 0.19583333333333997
        },
        {
          "name": "C#2",
          "midi": 37,
          "time": 108.80000000000013,
          "velocity": 0.3543307086614173,
          "duration": 0.19583333333333997
        },
        {
          "name": "E2",
          "midi": 40,
          "time": 108.80000000000013,
          "velocity": 0.3543307086614173,
          "duration": 0.19583333333333997
        },
        {
          "name": "C4",
          "midi": 60,
          "time": 109.00000000000013,
          "velocity": 0.8661417322834646,
          "duration": 0.19583333333333997
        },
        {
          "name": "F4",
          "midi": 65,
          "time": 109.00000000000013,
          "velocity": 0.8661417322834646,
          "duration": 0.19583333333333997
        },
        {
          "name": "A4",
          "midi": 69,
          "time": 109.00000000000013,
          "velocity": 0.8661417322834646,
          "duration": 0.19583333333333997
        },
        {
          "name": "C#2",
          "midi": 37,
          "time": 109.00000000000013,
          "velocity": 0.3543307086614173,
          "duration": 0.19583333333333997
        },
        {
          "name": "E2",
          "midi": 40,
          "time": 109.00000000000013,
          "velocity": 0.3543307086614173,
          "duration": 0.19583333333333997
        },
        {
          "name": "E2",
          "midi": 40,
          "time": 109.20000000000013,
          "velocity": 0.8661417322834646,
          "duration": 0.19583333333333997
        },
        {
          "name": "E3",
          "midi": 52,
          "time": 109.20000000000013,
          "velocity": 0.8661417322834646,
          "duration": 0.3333333333333286
        },
        {
          "name": "C#4",
          "midi": 61,
          "time": 109.20000000000013,
          "velocity": 0.8661417322834646,
          "duration": 0.19583333333333997
        },
        {
          "name": "E4",
          "midi": 64,
          "time": 109.20000000000013,
          "velocity": 0.8661417322834646,
          "duration": 0.19583333333333997
        },
        {
          "name": "G4",
          "midi": 67,
          "time": 109.20000000000013,
          "velocity": 0.8661417322834646,
          "duration": 0.19583333333333997
        },
        {
          "name": "C#2",
          "midi": 37,
          "time": 109.20000000000013,
          "velocity": 0.3543307086614173,
          "duration": 0.19583333333333997
        },
        {
          "name": "E2",
          "midi": 40,
          "time": 109.20000000000013,
          "velocity": 0.3543307086614173,
          "duration": 0.2958333333333343
        },
        {
          "name": "G5",
          "midi": 79,
          "time": 109.40000000000013,
          "velocity": 0.8661417322834646,
          "duration": 0.09999999999999432
        },
        {
          "name": "C#4",
          "midi": 61,
          "time": 109.40000000000013,
          "velocity": 0.8661417322834646,
          "duration": 0.09583333333333144
        },
        {
          "name": "E4",
          "midi": 64,
          "time": 109.40000000000013,
          "velocity": 0.8661417322834646,
          "duration": 0.09583333333333144
        },
        {
          "name": "G4",
          "midi": 67,
          "time": 109.40000000000013,
          "velocity": 0.8661417322834646,
          "duration": 0.09583333333333144
        },
        {
          "name": "C#2",
          "midi": 37,
          "time": 109.40000000000013,
          "velocity": 0.3543307086614173,
          "duration": 0.09583333333333144
        },
        {
          "name": "E2",
          "midi": 40,
          "time": 109.40000000000013,
          "velocity": 0.3543307086614173,
          "duration": 0.13333333333332575
        },
        {
          "name": "A5",
          "midi": 81,
          "time": 109.50000000000013,
          "velocity": 0.8661417322834646,
          "duration": 0.09583333333333144
        },
        {
          "name": "C#4",
          "midi": 61,
          "time": 109.50000000000013,
          "velocity": 0.8661417322834646,
          "duration": 0.09583333333333144
        },
        {
          "name": "E4",
          "midi": 64,
          "time": 109.50000000000013,
          "velocity": 0.8661417322834646,
          "duration": 0.09583333333333144
        },
        {
          "name": "G4",
          "midi": 67,
          "time": 109.50000000000013,
          "velocity": 0.8661417322834646,
          "duration": 0.09583333333333144
        },
        {
          "name": "C#2",
          "midi": 37,
          "time": 109.50000000000013,
          "velocity": 0.3543307086614173,
          "duration": 0.09583333333333144
        },
        {
          "name": "E2",
          "midi": 40,
          "time": 109.50000000000013,
          "velocity": 0.3543307086614173,
          "duration": 0.09583333333333144
        },
        {
          "name": "C#6",
          "midi": 85,
          "time": 109.60000000000012,
          "velocity": 0.8661417322834646,
          "duration": 0.19583333333333997
        },
        {
          "name": "C#4",
          "midi": 61,
          "time": 109.60000000000012,
          "velocity": 0.8661417322834646,
          "duration": 0.19583333333333997
        },
        {
          "name": "E4",
          "midi": 64,
          "time": 109.60000000000012,
          "velocity": 0.8661417322834646,
          "duration": 0.19583333333333997
        },
        {
          "name": "G4",
          "midi": 67,
          "time": 109.60000000000012,
          "velocity": 0.8661417322834646,
          "duration": 0.19583333333333997
        },
        {
          "name": "C#2",
          "midi": 37,
          "time": 109.60000000000012,
          "velocity": 0.3543307086614173,
          "duration": 0.19583333333333997
        },
        {
          "name": "E2",
          "midi": 40,
          "time": 109.60000000000012,
          "velocity": 0.3543307086614173,
          "duration": 0.19583333333333997
        },
        {
          "name": "A2",
          "midi": 45,
          "time": 109.80000000000013,
          "velocity": 0.8661417322834646,
          "duration": 0.3958333333333428
        },
        {
          "name": "F6",
          "midi": 89,
          "time": 109.80000000000013,
          "velocity": 0.8661417322834646,
          "duration": 0.4000000000000057
        },
        {
          "name": "F4",
          "midi": 65,
          "time": 109.80000000000013,
          "velocity": 0.8661417322834646,
          "duration": 0.3958333333333428
        },
        {
          "name": "A4",
          "midi": 69,
          "time": 109.80000000000013,
          "velocity": 0.8661417322834646,
          "duration": 0.3958333333333428
        },
        {
          "name": "C#5",
          "midi": 73,
          "time": 109.80000000000013,
          "velocity": 0.8661417322834646,
          "duration": 0.3958333333333428
        },
        {
          "name": "C#2",
          "midi": 37,
          "time": 109.80000000000013,
          "velocity": 0.3543307086614173,
          "duration": 0.19583333333333997
        },
        {
          "name": "E2",
          "midi": 40,
          "time": 109.80000000000013,
          "velocity": 0.3543307086614173,
          "duration": 0.19583333333333997
        },
        {
          "name": "C#2",
          "midi": 37,
          "time": 110.00000000000013,
          "velocity": 0.3543307086614173,
          "duration": 0.19583333333333997
        },
        {
          "name": "E2",
          "midi": 40,
          "time": 110.00000000000013,
          "velocity": 0.3543307086614173,
          "duration": 0.19583333333333997
        },
        {
          "name": "A2",
          "midi": 45,
          "time": 110.20000000000013,
          "velocity": 0.8661417322834646,
          "duration": 0.19583333333332575
        },
        {
          "name": "E6",
          "midi": 88,
          "time": 110.20000000000013,
          "velocity": 0.8661417322834646,
          "duration": 0.06666666666666288
        },
        {
          "name": "E4",
          "midi": 64,
          "time": 110.20000000000013,
          "velocity": 0.8661417322834646,
          "duration": 0.19583333333332575
        },
        {
          "name": "A4",
          "midi": 69,
          "time": 110.20000000000013,
          "velocity": 0.8661417322834646,
          "duration": 0.19583333333332575
        },
        {
          "name": "C#5",
          "midi": 73,
          "time": 110.20000000000013,
          "velocity": 0.8661417322834646,
          "duration": 0.19583333333332575
        },
        {
          "name": "C#2",
          "midi": 37,
          "time": 110.20000000000013,
          "velocity": 0.3543307086614173,
          "duration": 0.19583333333332575
        },
        {
          "name": "E2",
          "midi": 40,
          "time": 110.20000000000013,
          "velocity": 0.3543307086614173,
          "duration": 0.19583333333332575
        },
        {
          "name": "A2",
          "midi": 45,
          "time": 110.40000000000012,
          "velocity": 0.8661417322834646,
          "duration": 0.3333333333333286
        },
        {
          "name": "A6",
          "midi": 93,
          "time": 110.40000000000012,
          "velocity": 0.8661417322834646,
          "duration": 0.06666666666666288
        },
        {
          "name": "A4",
          "midi": 69,
          "time": 110.40000000000012,
          "velocity": 0.8661417322834646,
          "duration": 0.3333333333333286
        },
        {
          "name": "C#5",
          "midi": 73,
          "time": 110.40000000000012,
          "velocity": 0.8661417322834646,
          "duration": 0.3333333333333286
        },
        {
          "name": "E5",
          "midi": 76,
          "time": 110.40000000000012,
          "velocity": 0.8661417322834646,
          "duration": 0.3333333333333286
        },
        {
          "name": "A5",
          "midi": 81,
          "time": 110.40000000000012,
          "velocity": 0.8661417322834646,
          "duration": 0.3333333333333286
        },
        {
          "name": "C#2",
          "midi": 37,
          "time": 110.40000000000012,
          "velocity": 0.3543307086614173,
          "duration": 0.3333333333333286
        },
        {
          "name": "E2",
          "midi": 40,
          "time": 110.40000000000012,
          "velocity": 0.3543307086614173,
          "duration": 0.3333333333333286
        },
        {
          "name": "D4",
          "midi": 62,
          "time": 110.80000000000011,
          "velocity": 0.8661417322834646,
          "duration": 0.3333333333333286
        },
        {
          "name": "G4",
          "midi": 67,
          "time": 110.80000000000011,
          "velocity": 0.8661417322834646,
          "duration": 0.3333333333333286
        },
        {
          "name": "A4",
          "midi": 69,
          "time": 110.80000000000011,
          "velocity": 0.8661417322834646,
          "duration": 0.3333333333333286
        },
        {
          "name": "D5",
          "midi": 74,
          "time": 110.80000000000011,
          "velocity": 0.8661417322834646,
          "duration": 0.3333333333333286
        },
        {
          "name": "C#2",
          "midi": 37,
          "time": 110.80000000000011,
          "velocity": 0.3543307086614173,
          "duration": 0.3333333333333286
        },
        {
          "name": "E2",
          "midi": 40,
          "time": 110.80000000000011,
          "velocity": 0.3543307086614173,
          "duration": 0.3333333333333286
        },
        {
          "name": "C#4",
          "midi": 61,
          "time": 111.2000000000001,
          "velocity": 0.8661417322834646,
          "duration": 0.3333333333333286
        },
        {
          "name": "G4",
          "midi": 67,
          "time": 111.2000000000001,
          "velocity": 0.8661417322834646,
          "duration": 0.3333333333333286
        },
        {
          "name": "A4",
          "midi": 69,
          "time": 111.2000000000001,
          "velocity": 0.8661417322834646,
          "duration": 0.3333333333333286
        },
        {
          "name": "C#5",
          "midi": 73,
          "time": 111.2000000000001,
          "velocity": 0.8661417322834646,
          "duration": 0.3333333333333286
        },
        {
          "name": "C#2",
          "midi": 37,
          "time": 111.2000000000001,
          "velocity": 0.3543307086614173,
          "duration": 0.3333333333333286
        },
        {
          "name": "E2",
          "midi": 40,
          "time": 111.2000000000001,
          "velocity": 0.3543307086614173,
          "duration": 0.3333333333333286
        },
        {
          "name": "D4",
          "midi": 62,
          "time": 111.6000000000001,
          "velocity": 0.8661417322834646,
          "duration": 0.19583333333333997
        },
        {
          "name": "F#4",
          "midi": 66,
          "time": 111.6000000000001,
          "velocity": 0.8661417322834646,
          "duration": 0.19583333333333997
        },
        {
          "name": "A4",
          "midi": 69,
          "time": 111.6000000000001,
          "velocity": 0.8661417322834646,
          "duration": 0.19583333333333997
        },
        {
          "name": "D2",
          "midi": 38,
          "time": 111.6000000000001,
          "velocity": 0.8661417322834646,
          "duration": 0.3333333333333286
        },
        {
          "name": "D4",
          "midi": 62,
          "time": 111.6000000000001,
          "velocity": 0.8661417322834646,
          "duration": 0.2958333333333343
        },
        {
          "name": "F#4",
          "midi": 66,
          "time": 111.6000000000001,
          "velocity": 0.8661417322834646,
          "duration": 0.2958333333333343
        },
        {
          "name": "A4",
          "midi": 69,
          "time": 111.6000000000001,
          "velocity": 0.8661417322834646,
          "duration": 0.2958333333333343
        },
        {
          "name": "D5",
          "midi": 74,
          "time": 111.6000000000001,
          "velocity": 0.8661417322834646,
          "duration": 0.29999999999999716
        },
        {
          "name": "C#2",
          "midi": 37,
          "time": 111.6000000000001,
          "velocity": 0.3543307086614173,
          "duration": 0.19583333333333997
        },
        {
          "name": "E2",
          "midi": 40,
          "time": 111.6000000000001,
          "velocity": 0.3543307086614173,
          "duration": 0.19583333333333997
        },
        {
          "name": "D4",
          "midi": 62,
          "time": 111.8000000000001,
          "velocity": 0.8661417322834646,
          "duration": 0.19583333333332575
        },
        {
          "name": "F#4",
          "midi": 66,
          "time": 111.8000000000001,
          "velocity": 0.8661417322834646,
          "duration": 0.19583333333332575
        },
        {
          "name": "A4",
          "midi": 69,
          "time": 111.8000000000001,
          "velocity": 0.8661417322834646,
          "duration": 0.19583333333332575
        },
        {
          "name": "D5",
          "midi": 74,
          "time": 111.8000000000001,
          "velocity": 0.8661417322834646,
          "duration": 0.3333333333333286
        },
        {
          "name": "C#2",
          "midi": 37,
          "time": 111.8000000000001,
          "velocity": 0.3543307086614173,
          "duration": 0.09583333333333144
        },
        {
          "name": "E2",
          "midi": 40,
          "time": 111.8000000000001,
          "velocity": 0.3543307086614173,
          "duration": 0.09583333333333144
        },
        {
          "name": "D4",
          "midi": 62,
          "time": 111.90000000000009,
          "velocity": 0.8661417322834646,
          "duration": 0.23333333333333428
        },
        {
          "name": "F#4",
          "midi": 66,
          "time": 111.90000000000009,
          "velocity": 0.8661417322834646,
          "duration": 0.23333333333333428
        },
        {
          "name": "A4",
          "midi": 69,
          "time": 111.90000000000009,
          "velocity": 0.8661417322834646,
          "duration": 0.23333333333333428
        },
        {
          "name": "F#5",
          "midi": 78,
          "time": 111.90000000000009,
          "velocity": 0.8661417322834646,
          "duration": 0.09999999999999432
        },
        {
          "name": "C#2",
          "midi": 37,
          "time": 111.90000000000009,
          "velocity": 0.3543307086614173,
          "duration": 0.09583333333333144
        },
        {
          "name": "E2",
          "midi": 40,
          "time": 111.90000000000009,
          "velocity": 0.3543307086614173,
          "duration": 0.09583333333333144
        },
        {
          "name": "D4",
          "midi": 62,
          "time": 112.00000000000009,
          "velocity": 0.8661417322834646,
          "duration": 0.19583333333333997
        },
        {
          "name": "F#4",
          "midi": 66,
          "time": 112.00000000000009,
          "velocity": 0.8661417322834646,
          "duration": 0.19583333333333997
        },
        {
          "name": "A4",
          "midi": 69,
          "time": 112.00000000000009,
          "velocity": 0.8661417322834646,
          "duration": 0.19583333333333997
        },
        {
          "name": "A5",
          "midi": 81,
          "time": 112.00000000000009,
          "velocity": 0.8661417322834646,
          "duration": 0.19583333333333997
        },
        {
          "name": "C#2",
          "midi": 37,
          "time": 112.00000000000009,
          "velocity": 0.3543307086614173,
          "duration": 0.19583333333333997
        },
        {
          "name": "E2",
          "midi": 40,
          "time": 112.00000000000009,
          "velocity": 0.3543307086614173,
          "duration": 0.19583333333333997
        },
        {
          "name": "D4",
          "midi": 62,
          "time": 112.20000000000009,
          "velocity": 0.8661417322834646,
          "duration": 0.19583333333332575
        },
        {
          "name": "F#4",
          "midi": 66,
          "time": 112.20000000000009,
          "velocity": 0.8661417322834646,
          "duration": 0.19583333333332575
        },
        {
          "name": "A4",
          "midi": 69,
          "time": 112.20000000000009,
          "velocity": 0.8661417322834646,
          "duration": 0.19583333333332575
        },
        {
          "name": "A2",
          "midi": 45,
          "time": 112.20000000000009,
          "velocity": 0.8661417322834646,
          "duration": 0.3958333333333286
        },
        {
          "name": "D6",
          "midi": 86,
          "time": 112.20000000000009,
          "velocity": 0.8661417322834646,
          "duration": 0.06666666666666288
        },
        {
          "name": "D4",
          "midi": 62,
          "time": 112.20000000000009,
          "velocity": 0.8661417322834646,
          "duration": 0.3958333333333286
        },
        {
          "name": "F#4",
          "midi": 66,
          "time": 112.20000000000009,
          "velocity": 0.8661417322834646,
          "duration": 0.3958333333333286
        },
        {
          "name": "A4",
          "midi": 69,
          "time": 112.20000000000009,
          "velocity": 0.8661417322834646,
          "duration": 0.3958333333333286
        },
        {
          "name": "D5",
          "midi": 74,
          "time": 112.20000000000009,
          "velocity": 0.8661417322834646,
          "duration": 0.3958333333333286
        },
        {
          "name": "C#2",
          "midi": 37,
          "time": 112.20000000000009,
          "velocity": 0.3543307086614173,
          "duration": 0.19583333333332575
        },
        {
          "name": "E2",
          "midi": 40,
          "time": 112.20000000000009,
          "velocity": 0.3543307086614173,
          "duration": 0.19583333333332575
        },
        {
          "name": "D4",
          "midi": 62,
          "time": 112.40000000000008,
          "velocity": 0.8661417322834646,
          "duration": 0.19583333333333997
        },
        {
          "name": "F#4",
          "midi": 66,
          "time": 112.40000000000008,
          "velocity": 0.8661417322834646,
          "duration": 0.19583333333333997
        },
        {
          "name": "A4",
          "midi": 69,
          "time": 112.40000000000008,
          "velocity": 0.8661417322834646,
          "duration": 0.19583333333333997
        },
        {
          "name": "C#2",
          "midi": 37,
          "time": 112.40000000000008,
          "velocity": 0.3543307086614173,
          "duration": 0.19583333333333997
        },
        {
          "name": "E2",
          "midi": 40,
          "time": 112.40000000000008,
          "velocity": 0.3543307086614173,
          "duration": 0.19583333333333997
        },
        {
          "name": "C#4",
          "midi": 61,
          "time": 112.60000000000008,
          "velocity": 0.8661417322834646,
          "duration": 0.19583333333333997
        },
        {
          "name": "E4",
          "midi": 64,
          "time": 112.60000000000008,
          "velocity": 0.8661417322834646,
          "duration": 0.19583333333333997
        },
        {
          "name": "A4",
          "midi": 69,
          "time": 112.60000000000008,
          "velocity": 0.8661417322834646,
          "duration": 0.19583333333333997
        },
        {
          "name": "A1",
          "midi": 33,
          "time": 112.60000000000008,
          "velocity": 0.8661417322834646,
          "duration": 0.19583333333333997
        },
        {
          "name": "C#4",
          "midi": 61,
          "time": 112.60000000000008,
          "velocity": 0.8661417322834646,
          "duration": 0.19583333333333997
        },
        {
          "name": "F#4",
          "midi": 66,
          "time": 112.60000000000008,
          "velocity": 0.8661417322834646,
          "duration": 0.19583333333333997
        },
        {
          "name": "A4",
          "midi": 69,
          "time": 112.60000000000008,
          "velocity": 0.8661417322834646,
          "duration": 0.19583333333333997
        },
        {
          "name": "C#5",
          "midi": 73,
          "time": 112.60000000000008,
          "velocity": 0.8661417322834646,
          "duration": 0.19583333333333997
        },
        {
          "name": "C#2",
          "midi": 37,
          "time": 112.60000000000008,
          "velocity": 0.3543307086614173,
          "duration": 0.19583333333333997
        },
        {
          "name": "E2",
          "midi": 40,
          "time": 112.60000000000008,
          "velocity": 0.3543307086614173,
          "duration": 0.19583333333333997
        },
        {
          "name": "D4",
          "midi": 62,
          "time": 112.80000000000008,
          "velocity": 0.8661417322834646,
          "duration": 0.19583333333333997
        },
        {
          "name": "F#4",
          "midi": 66,
          "time": 112.80000000000008,
          "velocity": 0.8661417322834646,
          "duration": 0.19583333333333997
        },
        {
          "name": "A4",
          "midi": 69,
          "time": 112.80000000000008,
          "velocity": 0.8661417322834646,
          "duration": 0.19583333333333997
        },
        {
          "name": "D2",
          "midi": 38,
          "time": 112.80000000000008,
          "velocity": 0.8661417322834646,
          "duration": 0.3333333333333286
        },
        {
          "name": "D4",
          "midi": 62,
          "time": 112.80000000000008,
          "velocity": 0.8661417322834646,
          "duration": 0.3333333333333286
        },
        {
          "name": "F#4",
          "midi": 66,
          "time": 112.80000000000008,
          "velocity": 0.8661417322834646,
          "duration": 0.3333333333333286
        },
        {
          "name": "A4",
          "midi": 69,
          "time": 112.80000000000008,
          "velocity": 0.8661417322834646,
          "duration": 0.3333333333333286
        },
        {
          "name": "D5",
          "midi": 74,
          "time": 112.80000000000008,
          "velocity": 0.8661417322834646,
          "duration": 0.3333333333333286
        },
        {
          "name": "C#2",
          "midi": 37,
          "time": 112.80000000000008,
          "velocity": 0.3543307086614173,
          "duration": 0.19583333333333997
        },
        {
          "name": "E2",
          "midi": 40,
          "time": 112.80000000000008,
          "velocity": 0.3543307086614173,
          "duration": 0.19583333333333997
        },
        {
          "name": "D4",
          "midi": 62,
          "time": 113.00000000000009,
          "velocity": 0.8661417322834646,
          "duration": 0.19583333333332575
        },
        {
          "name": "F#4",
          "midi": 66,
          "time": 113.00000000000009,
          "velocity": 0.8661417322834646,
          "duration": 0.19583333333332575
        },
        {
          "name": "A4",
          "midi": 69,
          "time": 113.00000000000009,
          "velocity": 0.8661417322834646,
          "duration": 0.19583333333332575
        },
        {
          "name": "C#2",
          "midi": 37,
          "time": 113.00000000000009,
          "velocity": 0.3543307086614173,
          "duration": 0.09583333333333144
        },
        {
          "name": "E2",
          "midi": 40,
          "time": 113.00000000000009,
          "velocity": 0.3543307086614173,
          "duration": 0.09583333333333144
        },
        {
          "name": "C#2",
          "midi": 37,
          "time": 113.10000000000008,
          "velocity": 0.3543307086614173,
          "duration": 0.09583333333333144
        },
        {
          "name": "E2",
          "midi": 40,
          "time": 113.10000000000008,
          "velocity": 0.3543307086614173,
          "duration": 0.09583333333333144
        },
        {
          "name": "D4",
          "midi": 62,
          "time": 113.20000000000007,
          "velocity": 0.8661417322834646,
          "duration": 0.19583333333333997
        },
        {
          "name": "F#4",
          "midi": 66,
          "time": 113.20000000000007,
          "velocity": 0.8661417322834646,
          "duration": 0.19583333333333997
        },
        {
          "name": "A2",
          "midi": 45,
          "time": 113.20000000000007,
          "velocity": 0.8661417322834646,
          "duration": 0.3333333333333428
        },
        {
          "name": "A3",
          "midi": 57,
          "time": 113.20000000000007,
          "velocity": 0.8661417322834646,
          "duration": 0.3333333333333428
        },
        {
          "name": "D4",
          "midi": 62,
          "time": 113.20000000000007,
          "velocity": 0.8661417322834646,
          "duration": 0.3333333333333428
        },
        {
          "name": "F#4",
          "midi": 66,
          "time": 113.20000000000007,
          "velocity": 0.8661417322834646,
          "duration": 0.3333333333333428
        },
        {
          "name": "A4",
          "midi": 69,
          "time": 113.20000000000007,
          "velocity": 0.8661417322834646,
          "duration": 0.3333333333333428
        },
        {
          "name": "C#2",
          "midi": 37,
          "time": 113.20000000000007,
          "velocity": 0.3543307086614173,
          "duration": 0.19583333333333997
        },
        {
          "name": "E2",
          "midi": 40,
          "time": 113.20000000000007,
          "velocity": 0.3543307086614173,
          "duration": 0.19583333333333997
        },
        {
          "name": "D4",
          "midi": 62,
          "time": 113.40000000000008,
          "velocity": 0.8661417322834646,
          "duration": 0.19583333333333997
        },
        {
          "name": "F#4",
          "midi": 66,
          "time": 113.40000000000008,
          "velocity": 0.8661417322834646,
          "duration": 0.19583333333333997
        },
        {
          "name": "C#2",
          "midi": 37,
          "time": 113.40000000000008,
          "velocity": 0.3543307086614173,
          "duration": 0.19583333333333997
        },
        {
          "name": "E2",
          "midi": 40,
          "time": 113.40000000000008,
          "velocity": 0.3543307086614173,
          "duration": 0.19583333333333997
        },
        {
          "name": "C#4",
          "midi": 61,
          "time": 113.60000000000008,
          "velocity": 0.8661417322834646,
          "duration": 0.19583333333333997
        },
        {
          "name": "E4",
          "midi": 64,
          "time": 113.60000000000008,
          "velocity": 0.8661417322834646,
          "duration": 0.19583333333333997
        },
        {
          "name": "A1",
          "midi": 33,
          "time": 113.60000000000008,
          "velocity": 0.8661417322834646,
          "duration": 0.3333333333333428
        },
        {
          "name": "C#4",
          "midi": 61,
          "time": 113.60000000000008,
          "velocity": 0.8661417322834646,
          "duration": 0.3333333333333428
        },
        {
          "name": "E4",
          "midi": 64,
          "time": 113.60000000000008,
          "velocity": 0.8661417322834646,
          "duration": 0.3333333333333428
        },
        {
          "name": "A4",
          "midi": 69,
          "time": 113.60000000000008,
          "velocity": 0.8661417322834646,
          "duration": 0.3333333333333428
        },
        {
          "name": "C#5",
          "midi": 73,
          "time": 113.60000000000008,
          "velocity": 0.8661417322834646,
          "duration": 0.3333333333333428
        },
        {
          "name": "C#2",
          "midi": 37,
          "time": 113.60000000000008,
          "velocity": 0.3543307086614173,
          "duration": 0.19583333333333997
        },
        {
          "name": "E2",
          "midi": 40,
          "time": 113.60000000000008,
          "velocity": 0.3543307086614173,
          "duration": 0.19583333333333997
        },
        {
          "name": "C#4",
          "midi": 61,
          "time": 113.80000000000008,
          "velocity": 0.8661417322834646,
          "duration": 0.19583333333333997
        },
        {
          "name": "E4",
          "midi": 64,
          "time": 113.80000000000008,
          "velocity": 0.8661417322834646,
          "duration": 0.19583333333333997
        },
        {
          "name": "C#2",
          "midi": 37,
          "time": 113.80000000000008,
          "velocity": 0.3543307086614173,
          "duration": 0.19583333333333997
        },
        {
          "name": "E2",
          "midi": 40,
          "time": 113.80000000000008,
          "velocity": 0.3543307086614173,
          "duration": 0.19583333333333997
        },
        {
          "name": "D4",
          "midi": 62,
          "time": 114.00000000000009,
          "velocity": 0.8661417322834646,
          "duration": 0.19583333333333997
        },
        {
          "name": "F#4",
          "midi": 66,
          "time": 114.00000000000009,
          "velocity": 0.8661417322834646,
          "duration": 0.19583333333333997
        },
        {
          "name": "A4",
          "midi": 69,
          "time": 114.00000000000009,
          "velocity": 0.8661417322834646,
          "duration": 0.19583333333333997
        },
        {
          "name": "D2",
          "midi": 38,
          "time": 114.00000000000009,
          "velocity": 0.8661417322834646,
          "duration": 0.3333333333333286
        },
        {
          "name": "D4",
          "midi": 62,
          "time": 114.00000000000009,
          "velocity": 0.8661417322834646,
          "duration": 0.2958333333333343
        },
        {
          "name": "F#4",
          "midi": 66,
          "time": 114.00000000000009,
          "velocity": 0.8661417322834646,
          "duration": 0.2958333333333343
        },
        {
          "name": "A4",
          "midi": 69,
          "time": 114.00000000000009,
          "velocity": 0.8661417322834646,
          "duration": 0.2958333333333343
        },
        {
          "name": "D5",
          "midi": 74,
          "time": 114.00000000000009,
          "velocity": 0.8661417322834646,
          "duration": 0.29999999999999716
        },
        {
          "name": "C#2",
          "midi": 37,
          "time": 114.00000000000009,
          "velocity": 0.3543307086614173,
          "duration": 0.19583333333333997
        },
        {
          "name": "E2",
          "midi": 40,
          "time": 114.00000000000009,
          "velocity": 0.3543307086614173,
          "duration": 0.19583333333333997
        },
        {
          "name": "D4",
          "midi": 62,
          "time": 114.20000000000009,
          "velocity": 0.8661417322834646,
          "duration": 0.19583333333332575
        },
        {
          "name": "F#4",
          "midi": 66,
          "time": 114.20000000000009,
          "velocity": 0.8661417322834646,
          "duration": 0.19583333333332575
        },
        {
          "name": "A4",
          "midi": 69,
          "time": 114.20000000000009,
          "velocity": 0.8661417322834646,
          "duration": 0.19583333333332575
        },
        {
          "name": "D5",
          "midi": 74,
          "time": 114.20000000000009,
          "velocity": 0.8661417322834646,
          "duration": 0.3333333333333286
        },
        {
          "name": "C#2",
          "midi": 37,
          "time": 114.20000000000009,
          "velocity": 0.3543307086614173,
          "duration": 0.09583333333333144
        },
        {
          "name": "E2",
          "midi": 40,
          "time": 114.20000000000009,
          "velocity": 0.3543307086614173,
          "duration": 0.09583333333333144
        },
        {
          "name": "D4",
          "midi": 62,
          "time": 114.30000000000008,
          "velocity": 0.8661417322834646,
          "duration": 0.23333333333333428
        },
        {
          "name": "F#4",
          "midi": 66,
          "time": 114.30000000000008,
          "velocity": 0.8661417322834646,
          "duration": 0.23333333333333428
        },
        {
          "name": "A4",
          "midi": 69,
          "time": 114.30000000000008,
          "velocity": 0.8661417322834646,
          "duration": 0.23333333333333428
        },
        {
          "name": "F#5",
          "midi": 78,
          "time": 114.30000000000008,
          "velocity": 0.8661417322834646,
          "duration": 0.09999999999999432
        },
        {
          "name": "C#2",
          "midi": 37,
          "time": 114.30000000000008,
          "velocity": 0.3543307086614173,
          "duration": 0.09583333333333144
        },
        {
          "name": "E2",
          "midi": 40,
          "time": 114.30000000000008,
          "velocity": 0.3543307086614173,
          "duration": 0.09583333333333144
        },
        {
          "name": "D4",
          "midi": 62,
          "time": 114.40000000000008,
          "velocity": 0.8661417322834646,
          "duration": 0.19583333333333997
        },
        {
          "name": "F#4",
          "midi": 66,
          "time": 114.40000000000008,
          "velocity": 0.8661417322834646,
          "duration": 0.19583333333333997
        },
        {
          "name": "A4",
          "midi": 69,
          "time": 114.40000000000008,
          "velocity": 0.8661417322834646,
          "duration": 0.19583333333333997
        },
        {
          "name": "A5",
          "midi": 81,
          "time": 114.40000000000008,
          "velocity": 0.8661417322834646,
          "duration": 0.19583333333333997
        },
        {
          "name": "C#2",
          "midi": 37,
          "time": 114.40000000000008,
          "velocity": 0.3543307086614173,
          "duration": 0.19583333333333997
        },
        {
          "name": "E2",
          "midi": 40,
          "time": 114.40000000000008,
          "velocity": 0.3543307086614173,
          "duration": 0.19583333333333997
        },
        {
          "name": "D4",
          "midi": 62,
          "time": 114.60000000000008,
          "velocity": 0.8661417322834646,
          "duration": 0.19583333333332575
        },
        {
          "name": "F#4",
          "midi": 66,
          "time": 114.60000000000008,
          "velocity": 0.8661417322834646,
          "duration": 0.19583333333332575
        },
        {
          "name": "A4",
          "midi": 69,
          "time": 114.60000000000008,
          "velocity": 0.8661417322834646,
          "duration": 0.19583333333332575
        },
        {
          "name": "A2",
          "midi": 45,
          "time": 114.60000000000008,
          "velocity": 0.8661417322834646,
          "duration": 0.3958333333333286
        },
        {
          "name": "D6",
          "midi": 86,
          "time": 114.60000000000008,
          "velocity": 0.8661417322834646,
          "duration": 0.06666666666666288
        },
        {
          "name": "D4",
          "midi": 62,
          "time": 114.60000000000008,
          "velocity": 0.8661417322834646,
          "duration": 0.3958333333333286
        },
        {
          "name": "F#4",
          "midi": 66,
          "time": 114.60000000000008,
          "velocity": 0.8661417322834646,
          "duration": 0.3958333333333286
        },
        {
          "name": "A4",
          "midi": 69,
          "time": 114.60000000000008,
          "velocity": 0.8661417322834646,
          "duration": 0.3958333333333286
        },
        {
          "name": "D5",
          "midi": 74,
          "time": 114.60000000000008,
          "velocity": 0.8661417322834646,
          "duration": 0.3958333333333286
        },
        {
          "name": "C#2",
          "midi": 37,
          "time": 114.60000000000008,
          "velocity": 0.3543307086614173,
          "duration": 0.19583333333332575
        },
        {
          "name": "E2",
          "midi": 40,
          "time": 114.60000000000008,
          "velocity": 0.3543307086614173,
          "duration": 0.19583333333332575
        },
        {
          "name": "D4",
          "midi": 62,
          "time": 114.80000000000007,
          "velocity": 0.8661417322834646,
          "duration": 0.19583333333333997
        },
        {
          "name": "F#4",
          "midi": 66,
          "time": 114.80000000000007,
          "velocity": 0.8661417322834646,
          "duration": 0.19583333333333997
        },
        {
          "name": "A4",
          "midi": 69,
          "time": 114.80000000000007,
          "velocity": 0.8661417322834646,
          "duration": 0.19583333333333997
        },
        {
          "name": "C#2",
          "midi": 37,
          "time": 114.80000000000007,
          "velocity": 0.3543307086614173,
          "duration": 0.19583333333333997
        },
        {
          "name": "E2",
          "midi": 40,
          "time": 114.80000000000007,
          "velocity": 0.3543307086614173,
          "duration": 0.19583333333333997
        },
        {
          "name": "C#4",
          "midi": 61,
          "time": 115.00000000000007,
          "velocity": 0.8661417322834646,
          "duration": 0.19583333333333997
        },
        {
          "name": "E4",
          "midi": 64,
          "time": 115.00000000000007,
          "velocity": 0.8661417322834646,
          "duration": 0.19583333333333997
        },
        {
          "name": "A4",
          "midi": 69,
          "time": 115.00000000000007,
          "velocity": 0.8661417322834646,
          "duration": 0.19583333333333997
        },
        {
          "name": "A1",
          "midi": 33,
          "time": 115.00000000000007,
          "velocity": 0.8661417322834646,
          "duration": 0.19583333333333997
        },
        {
          "name": "C#4",
          "midi": 61,
          "time": 115.00000000000007,
          "velocity": 0.8661417322834646,
          "duration": 0.19583333333333997
        },
        {
          "name": "F#4",
          "midi": 66,
          "time": 115.00000000000007,
          "velocity": 0.8661417322834646,
          "duration": 0.19583333333333997
        },
        {
          "name": "A4",
          "midi": 69,
          "time": 115.00000000000007,
          "velocity": 0.8661417322834646,
          "duration": 0.19583333333333997
        },
        {
          "name": "C#5",
          "midi": 73,
          "time": 115.00000000000007,
          "velocity": 0.8661417322834646,
          "duration": 0.19583333333333997
        },
        {
          "name": "C#2",
          "midi": 37,
          "time": 115.00000000000007,
          "velocity": 0.3543307086614173,
          "duration": 0.19583333333333997
        },
        {
          "name": "E2",
          "midi": 40,
          "time": 115.00000000000007,
          "velocity": 0.3543307086614173,
          "duration": 0.19583333333333997
        },
        {
          "name": "D4",
          "midi": 62,
          "time": 115.20000000000007,
          "velocity": 0.8661417322834646,
          "duration": 0.19583333333333997
        },
        {
          "name": "F#4",
          "midi": 66,
          "time": 115.20000000000007,
          "velocity": 0.8661417322834646,
          "duration": 0.19583333333333997
        },
        {
          "name": "A4",
          "midi": 69,
          "time": 115.20000000000007,
          "velocity": 0.8661417322834646,
          "duration": 0.19583333333333997
        },
        {
          "name": "D2",
          "midi": 38,
          "time": 115.20000000000007,
          "velocity": 0.8661417322834646,
          "duration": 0.3333333333333286
        },
        {
          "name": "D4",
          "midi": 62,
          "time": 115.20000000000007,
          "velocity": 0.8661417322834646,
          "duration": 0.3333333333333286
        },
        {
          "name": "F#4",
          "midi": 66,
          "time": 115.20000000000007,
          "velocity": 0.8661417322834646,
          "duration": 0.3333333333333286
        },
        {
          "name": "A4",
          "midi": 69,
          "time": 115.20000000000007,
          "velocity": 0.8661417322834646,
          "duration": 0.3333333333333286
        },
        {
          "name": "D5",
          "midi": 74,
          "time": 115.20000000000007,
          "velocity": 0.8661417322834646,
          "duration": 0.3333333333333286
        },
        {
          "name": "C#2",
          "midi": 37,
          "time": 115.20000000000007,
          "velocity": 0.3543307086614173,
          "duration": 0.19583333333333997
        },
        {
          "name": "E2",
          "midi": 40,
          "time": 115.20000000000007,
          "velocity": 0.3543307086614173,
          "duration": 0.19583333333333997
        },
        {
          "name": "D4",
          "midi": 62,
          "time": 115.40000000000008,
          "velocity": 0.8661417322834646,
          "duration": 0.19583333333332575
        },
        {
          "name": "F#4",
          "midi": 66,
          "time": 115.40000000000008,
          "velocity": 0.8661417322834646,
          "duration": 0.19583333333332575
        },
        {
          "name": "A4",
          "midi": 69,
          "time": 115.40000000000008,
          "velocity": 0.8661417322834646,
          "duration": 0.19583333333332575
        },
        {
          "name": "C#2",
          "midi": 37,
          "time": 115.40000000000008,
          "velocity": 0.3543307086614173,
          "duration": 0.09583333333333144
        },
        {
          "name": "E2",
          "midi": 40,
          "time": 115.40000000000008,
          "velocity": 0.3543307086614173,
          "duration": 0.09583333333333144
        },
        {
          "name": "C#2",
          "midi": 37,
          "time": 115.50000000000007,
          "velocity": 0.3543307086614173,
          "duration": 0.09583333333333144
        },
        {
          "name": "E2",
          "midi": 40,
          "time": 115.50000000000007,
          "velocity": 0.3543307086614173,
          "duration": 0.09583333333333144
        },
        {
          "name": "D4",
          "midi": 62,
          "time": 115.60000000000007,
          "velocity": 0.8661417322834646,
          "duration": 0.19583333333333997
        },
        {
          "name": "F#4",
          "midi": 66,
          "time": 115.60000000000007,
          "velocity": 0.8661417322834646,
          "duration": 0.19583333333333997
        },
        {
          "name": "A2",
          "midi": 45,
          "time": 115.60000000000007,
          "velocity": 0.8661417322834646,
          "duration": 0.3333333333333428
        },
        {
          "name": "A3",
          "midi": 57,
          "time": 115.60000000000007,
          "velocity": 0.8661417322834646,
          "duration": 0.3333333333333428
        },
        {
          "name": "D4",
          "midi": 62,
          "time": 115.60000000000007,
          "velocity": 0.8661417322834646,
          "duration": 0.3333333333333428
        },
        {
          "name": "F#4",
          "midi": 66,
          "time": 115.60000000000007,
          "velocity": 0.8661417322834646,
          "duration": 0.3333333333333428
        },
        {
          "name": "A4",
          "midi": 69,
          "time": 115.60000000000007,
          "velocity": 0.8661417322834646,
          "duration": 0.3333333333333428
        },
        {
          "name": "C#2",
          "midi": 37,
          "time": 115.60000000000007,
          "velocity": 0.3543307086614173,
          "duration": 0.19583333333333997
        },
        {
          "name": "E2",
          "midi": 40,
          "time": 115.60000000000007,
          "velocity": 0.3543307086614173,
          "duration": 0.19583333333333997
        },
        {
          "name": "D4",
          "midi": 62,
          "time": 115.80000000000007,
          "velocity": 0.8661417322834646,
          "duration": 0.19583333333333997
        },
        {
          "name": "F#4",
          "midi": 66,
          "time": 115.80000000000007,
          "velocity": 0.8661417322834646,
          "duration": 0.19583333333333997
        },
        {
          "name": "C#2",
          "midi": 37,
          "time": 115.80000000000007,
          "velocity": 0.3543307086614173,
          "duration": 0.19583333333333997
        },
        {
          "name": "E2",
          "midi": 40,
          "time": 115.80000000000007,
          "velocity": 0.3543307086614173,
          "duration": 0.19583333333333997
        },
        {
          "name": "C#4",
          "midi": 61,
          "time": 116.00000000000007,
          "velocity": 0.8661417322834646,
          "duration": 0.19583333333333997
        },
        {
          "name": "E4",
          "midi": 64,
          "time": 116.00000000000007,
          "velocity": 0.8661417322834646,
          "duration": 0.19583333333333997
        },
        {
          "name": "A1",
          "midi": 33,
          "time": 116.00000000000007,
          "velocity": 0.8661417322834646,
          "duration": 0.3333333333333428
        },
        {
          "name": "C#4",
          "midi": 61,
          "time": 116.00000000000007,
          "velocity": 0.8661417322834646,
          "duration": 0.3333333333333428
        },
        {
          "name": "E4",
          "midi": 64,
          "time": 116.00000000000007,
          "velocity": 0.8661417322834646,
          "duration": 0.3333333333333428
        },
        {
          "name": "A4",
          "midi": 69,
          "time": 116.00000000000007,
          "velocity": 0.8661417322834646,
          "duration": 0.3333333333333428
        },
        {
          "name": "C#5",
          "midi": 73,
          "time": 116.00000000000007,
          "velocity": 0.8661417322834646,
          "duration": 0.3333333333333428
        },
        {
          "name": "C#2",
          "midi": 37,
          "time": 116.00000000000007,
          "velocity": 0.3543307086614173,
          "duration": 0.19583333333333997
        },
        {
          "name": "E2",
          "midi": 40,
          "time": 116.00000000000007,
          "velocity": 0.3543307086614173,
          "duration": 0.19583333333333997
        },
        {
          "name": "C#4",
          "midi": 61,
          "time": 116.20000000000007,
          "velocity": 0.8661417322834646,
          "duration": 0.19583333333333997
        },
        {
          "name": "E4",
          "midi": 64,
          "time": 116.20000000000007,
          "velocity": 0.8661417322834646,
          "duration": 0.19583333333333997
        },
        {
          "name": "C#2",
          "midi": 37,
          "time": 116.20000000000007,
          "velocity": 0.3543307086614173,
          "duration": 0.19583333333333997
        },
        {
          "name": "E2",
          "midi": 40,
          "time": 116.20000000000007,
          "velocity": 0.3543307086614173,
          "duration": 0.19583333333333997
        },
        {
          "name": "D4",
          "midi": 62,
          "time": 116.40000000000008,
          "velocity": 0.8661417322834646,
          "duration": 0.19583333333333997
        },
        {
          "name": "F#4",
          "midi": 66,
          "time": 116.40000000000008,
          "velocity": 0.8661417322834646,
          "duration": 0.19583333333333997
        },
        {
          "name": "B4",
          "midi": 71,
          "time": 116.40000000000008,
          "velocity": 0.8661417322834646,
          "duration": 0.19583333333333997
        },
        {
          "name": "B2",
          "midi": 47,
          "time": 116.40000000000008,
          "velocity": 0.8661417322834646,
          "duration": 0.3333333333333286
        },
        {
          "name": "D4",
          "midi": 62,
          "time": 116.40000000000008,
          "velocity": 0.8661417322834646,
          "duration": 0.2958333333333343
        },
        {
          "name": "F#4",
          "midi": 66,
          "time": 116.40000000000008,
          "velocity": 0.8661417322834646,
          "duration": 0.2958333333333343
        },
        {
          "name": "B4",
          "midi": 71,
          "time": 116.40000000000008,
          "velocity": 0.8661417322834646,
          "duration": 0.2958333333333343
        },
        {
          "name": "D5",
          "midi": 74,
          "time": 116.40000000000008,
          "velocity": 0.8661417322834646,
          "duration": 0.29999999999999716
        },
        {
          "name": "C#2",
          "midi": 37,
          "time": 116.40000000000008,
          "velocity": 0.3543307086614173,
          "duration": 0.19583333333333997
        },
        {
          "name": "E2",
          "midi": 40,
          "time": 116.40000000000008,
          "velocity": 0.3543307086614173,
          "duration": 0.19583333333333997
        },
        {
          "name": "D4",
          "midi": 62,
          "time": 116.60000000000008,
          "velocity": 0.8661417322834646,
          "duration": 0.19583333333332575
        },
        {
          "name": "F#4",
          "midi": 66,
          "time": 116.60000000000008,
          "velocity": 0.8661417322834646,
          "duration": 0.19583333333332575
        },
        {
          "name": "B4",
          "midi": 71,
          "time": 116.60000000000008,
          "velocity": 0.8661417322834646,
          "duration": 0.19583333333332575
        },
        {
          "name": "D5",
          "midi": 74,
          "time": 116.60000000000008,
          "velocity": 0.8661417322834646,
          "duration": 0.3333333333333286
        },
        {
          "name": "C#2",
          "midi": 37,
          "time": 116.60000000000008,
          "velocity": 0.3543307086614173,
          "duration": 0.09583333333333144
        },
        {
          "name": "E2",
          "midi": 40,
          "time": 116.60000000000008,
          "velocity": 0.3543307086614173,
          "duration": 0.09583333333333144
        },
        {
          "name": "D4",
          "midi": 62,
          "time": 116.70000000000007,
          "velocity": 0.8661417322834646,
          "duration": 0.23333333333333428
        },
        {
          "name": "F#4",
          "midi": 66,
          "time": 116.70000000000007,
          "velocity": 0.8661417322834646,
          "duration": 0.23333333333333428
        },
        {
          "name": "B4",
          "midi": 71,
          "time": 116.70000000000007,
          "velocity": 0.8661417322834646,
          "duration": 0.23333333333333428
        },
        {
          "name": "F#5",
          "midi": 78,
          "time": 116.70000000000007,
          "velocity": 0.8661417322834646,
          "duration": 0.09999999999999432
        },
        {
          "name": "C#2",
          "midi": 37,
          "time": 116.70000000000007,
          "velocity": 0.3543307086614173,
          "duration": 0.09583333333333144
        },
        {
          "name": "E2",
          "midi": 40,
          "time": 116.70000000000007,
          "velocity": 0.3543307086614173,
          "duration": 0.09583333333333144
        },
        {
          "name": "D4",
          "midi": 62,
          "time": 116.80000000000007,
          "velocity": 0.8661417322834646,
          "duration": 0.19583333333333997
        },
        {
          "name": "F#4",
          "midi": 66,
          "time": 116.80000000000007,
          "velocity": 0.8661417322834646,
          "duration": 0.19583333333333997
        },
        {
          "name": "B4",
          "midi": 71,
          "time": 116.80000000000007,
          "velocity": 0.8661417322834646,
          "duration": 0.19583333333333997
        },
        {
          "name": "B5",
          "midi": 83,
          "time": 116.80000000000007,
          "velocity": 0.8661417322834646,
          "duration": 0.19583333333333997
        },
        {
          "name": "C#2",
          "midi": 37,
          "time": 116.80000000000007,
          "velocity": 0.3543307086614173,
          "duration": 0.19583333333333997
        },
        {
          "name": "E2",
          "midi": 40,
          "time": 116.80000000000007,
          "velocity": 0.3543307086614173,
          "duration": 0.19583333333333997
        },
        {
          "name": "C#4",
          "midi": 61,
          "time": 117.00000000000007,
          "velocity": 0.8661417322834646,
          "duration": 0.3958333333333286
        },
        {
          "name": "E4",
          "midi": 64,
          "time": 117.00000000000007,
          "velocity": 0.8661417322834646,
          "duration": 0.3958333333333286
        },
        {
          "name": "F#4",
          "midi": 66,
          "time": 117.00000000000007,
          "velocity": 0.8661417322834646,
          "duration": 0.3958333333333286
        },
        {
          "name": "F#2",
          "midi": 42,
          "time": 117.00000000000007,
          "velocity": 0.8661417322834646,
          "duration": 0.3958333333333286
        },
        {
          "name": "C#6",
          "midi": 85,
          "time": 117.00000000000007,
          "velocity": 0.8661417322834646,
          "duration": 0.06666666666666288
        },
        {
          "name": "C#4",
          "midi": 61,
          "time": 117.00000000000007,
          "velocity": 0.8661417322834646,
          "duration": 0.3958333333333286
        },
        {
          "name": "E4",
          "midi": 64,
          "time": 117.00000000000007,
          "velocity": 0.8661417322834646,
          "duration": 0.3958333333333286
        },
        {
          "name": "F#4",
          "midi": 66,
          "time": 117.00000000000007,
          "velocity": 0.8661417322834646,
          "duration": 0.3958333333333286
        },
        {
          "name": "C#5",
          "midi": 73,
          "time": 117.00000000000007,
          "velocity": 0.8661417322834646,
          "duration": 0.3958333333333286
        },
        {
          "name": "C#2",
          "midi": 37,
          "time": 117.00000000000007,
          "velocity": 0.3543307086614173,
          "duration": 0.19583333333332575
        },
        {
          "name": "E2",
          "midi": 40,
          "time": 117.00000000000007,
          "velocity": 0.3543307086614173,
          "duration": 0.19583333333332575
        },
        {
          "name": "C#2",
          "midi": 37,
          "time": 117.20000000000006,
          "velocity": 0.3543307086614173,
          "duration": 0.19583333333333997
        },
        {
          "name": "E2",
          "midi": 40,
          "time": 117.20000000000006,
          "velocity": 0.3543307086614173,
          "duration": 0.19583333333333997
        },
        {
          "name": "B3",
          "midi": 59,
          "time": 117.40000000000006,
          "velocity": 0.8661417322834646,
          "duration": 0.19583333333333997
        },
        {
          "name": "D4",
          "midi": 62,
          "time": 117.40000000000006,
          "velocity": 0.8661417322834646,
          "duration": 0.19583333333333997
        },
        {
          "name": "F#4",
          "midi": 66,
          "time": 117.40000000000006,
          "velocity": 0.8661417322834646,
          "duration": 0.19583333333333997
        },
        {
          "name": "B1",
          "midi": 35,
          "time": 117.40000000000006,
          "velocity": 0.8661417322834646,
          "duration": 0.19583333333333997
        },
        {
          "name": "B3",
          "midi": 59,
          "time": 117.40000000000006,
          "velocity": 0.8661417322834646,
          "duration": 0.19583333333333997
        },
        {
          "name": "D4",
          "midi": 62,
          "time": 117.40000000000006,
          "velocity": 0.8661417322834646,
          "duration": 0.19583333333333997
        },
        {
          "name": "F#4",
          "midi": 66,
          "time": 117.40000000000006,
          "velocity": 0.8661417322834646,
          "duration": 0.19583333333333997
        },
        {
          "name": "B4",
          "midi": 71,
          "time": 117.40000000000006,
          "velocity": 0.8661417322834646,
          "duration": 0.19583333333333997
        },
        {
          "name": "C#2",
          "midi": 37,
          "time": 117.40000000000006,
          "velocity": 0.3543307086614173,
          "duration": 0.19583333333333997
        },
        {
          "name": "E2",
          "midi": 40,
          "time": 117.40000000000006,
          "velocity": 0.3543307086614173,
          "duration": 0.19583333333333997
        },
        {
          "name": "C#4",
          "midi": 61,
          "time": 117.60000000000007,
          "velocity": 0.8661417322834646,
          "duration": 0.19583333333333997
        },
        {
          "name": "F#4",
          "midi": 66,
          "time": 117.60000000000007,
          "velocity": 0.8661417322834646,
          "duration": 0.19583333333333997
        },
        {
          "name": "F#2",
          "midi": 42,
          "time": 117.60000000000007,
          "velocity": 0.8661417322834646,
          "duration": 0.3333333333333286
        },
        {
          "name": "F#3",
          "midi": 54,
          "time": 117.60000000000007,
          "velocity": 0.8661417322834646,
          "duration": 0.3333333333333286
        },
        {
          "name": "A3",
          "midi": 57,
          "time": 117.60000000000007,
          "velocity": 0.8661417322834646,
          "duration": 0.3333333333333286
        },
        {
          "name": "C#4",
          "midi": 61,
          "time": 117.60000000000007,
          "velocity": 0.8661417322834646,
          "duration": 0.3333333333333286
        },
        {
          "name": "F#4",
          "midi": 66,
          "time": 117.60000000000007,
          "velocity": 0.8661417322834646,
          "duration": 0.3333333333333286
        },
        {
          "name": "A4",
          "midi": 69,
          "time": 117.60000000000007,
          "velocity": 0.8661417322834646,
          "duration": 0.3333333333333286
        },
        {
          "name": "C#2",
          "midi": 37,
          "time": 117.60000000000007,
          "velocity": 0.3543307086614173,
          "duration": 0.19583333333333997
        },
        {
          "name": "E2",
          "midi": 40,
          "time": 117.60000000000007,
          "velocity": 0.3543307086614173,
          "duration": 0.19583333333333997
        },
        {
          "name": "C#4",
          "midi": 61,
          "time": 117.80000000000007,
          "velocity": 0.8661417322834646,
          "duration": 0.19583333333332575
        },
        {
          "name": "F#4",
          "midi": 66,
          "time": 117.80000000000007,
          "velocity": 0.8661417322834646,
          "duration": 0.19583333333332575
        },
        {
          "name": "C#2",
          "midi": 37,
          "time": 117.80000000000007,
          "velocity": 0.3543307086614173,
          "duration": 0.09583333333333144
        },
        {
          "name": "E2",
          "midi": 40,
          "time": 117.80000000000007,
          "velocity": 0.3543307086614173,
          "duration": 0.09583333333333144
        },
        {
          "name": "C#2",
          "midi": 37,
          "time": 117.90000000000006,
          "velocity": 0.3543307086614173,
          "duration": 0.09583333333333144
        },
        {
          "name": "E2",
          "midi": 40,
          "time": 117.90000000000006,
          "velocity": 0.3543307086614173,
          "duration": 0.09583333333333144
        },
        {
          "name": "A3",
          "midi": 57,
          "time": 118.00000000000006,
          "velocity": 0.8661417322834646,
          "duration": 0.19583333333333997
        },
        {
          "name": "C#4",
          "midi": 61,
          "time": 118.00000000000006,
          "velocity": 0.8661417322834646,
          "duration": 0.19583333333333997
        },
        {
          "name": "F#2",
          "midi": 42,
          "time": 118.00000000000006,
          "velocity": 0.8661417322834646,
          "duration": 0.3333333333333428
        },
        {
          "name": "F#3",
          "midi": 54,
          "time": 118.00000000000006,
          "velocity": 0.8661417322834646,
          "duration": 0.3333333333333428
        },
        {
          "name": "F#3",
          "midi": 54,
          "time": 118.00000000000006,
          "velocity": 0.8661417322834646,
          "duration": 0.3333333333333428
        },
        {
          "name": "A3",
          "midi": 57,
          "time": 118.00000000000006,
          "velocity": 0.8661417322834646,
          "duration": 0.3333333333333428
        },
        {
          "name": "C#4",
          "midi": 61,
          "time": 118.00000000000006,
          "velocity": 0.8661417322834646,
          "duration": 0.3333333333333428
        },
        {
          "name": "F#4",
          "midi": 66,
          "time": 118.00000000000006,
          "velocity": 0.8661417322834646,
          "duration": 0.3333333333333428
        },
        {
          "name": "C#2",
          "midi": 37,
          "time": 118.00000000000006,
          "velocity": 0.3543307086614173,
          "duration": 0.19583333333333997
        },
        {
          "name": "E2",
          "midi": 40,
          "time": 118.00000000000006,
          "velocity": 0.3543307086614173,
          "duration": 0.19583333333333997
        },
        {
          "name": "A3",
          "midi": 57,
          "time": 118.20000000000006,
          "velocity": 0.8661417322834646,
          "duration": 0.19583333333333997
        },
        {
          "name": "C#4",
          "midi": 61,
          "time": 118.20000000000006,
          "velocity": 0.8661417322834646,
          "duration": 0.19583333333333997
        },
        {
          "name": "C#2",
          "midi": 37,
          "time": 118.20000000000006,
          "velocity": 0.3543307086614173,
          "duration": 0.19583333333333997
        },
        {
          "name": "E2",
          "midi": 40,
          "time": 118.20000000000006,
          "velocity": 0.3543307086614173,
          "duration": 0.19583333333333997
        },
        {
          "name": "B3",
          "midi": 59,
          "time": 118.40000000000006,
          "velocity": 0.8661417322834646,
          "duration": 0.19583333333333997
        },
        {
          "name": "D4",
          "midi": 62,
          "time": 118.40000000000006,
          "velocity": 0.8661417322834646,
          "duration": 0.19583333333333997
        },
        {
          "name": "E2",
          "midi": 40,
          "time": 118.40000000000006,
          "velocity": 0.8661417322834646,
          "duration": 0.19583333333333997
        },
        {
          "name": "E3",
          "midi": 52,
          "time": 118.40000000000006,
          "velocity": 0.8661417322834646,
          "duration": 0.3333333333333428
        },
        {
          "name": "G3",
          "midi": 55,
          "time": 118.40000000000006,
          "velocity": 0.8661417322834646,
          "duration": 0.3333333333333428
        },
        {
          "name": "B3",
          "midi": 59,
          "time": 118.40000000000006,
          "velocity": 0.8661417322834646,
          "duration": 0.3333333333333428
        },
        {
          "name": "D4",
          "midi": 62,
          "time": 118.40000000000006,
          "velocity": 0.8661417322834646,
          "duration": 0.3333333333333428
        },
        {
          "name": "G4",
          "midi": 67,
          "time": 118.40000000000006,
          "velocity": 0.8661417322834646,
          "duration": 0.3333333333333428
        },
        {
          "name": "C#2",
          "midi": 37,
          "time": 118.40000000000006,
          "velocity": 0.3543307086614173,
          "duration": 0.19583333333333997
        },
        {
          "name": "E2",
          "midi": 40,
          "time": 118.40000000000006,
          "velocity": 0.3543307086614173,
          "duration": 0.3333333333333428
        },
        {
          "name": "B3",
          "midi": 59,
          "time": 118.60000000000007,
          "velocity": 0.8661417322834646,
          "duration": 0.19583333333333997
        },
        {
          "name": "D4",
          "midi": 62,
          "time": 118.60000000000007,
          "velocity": 0.8661417322834646,
          "duration": 0.19583333333333997
        },
        {
          "name": "C#2",
          "midi": 37,
          "time": 118.60000000000007,
          "velocity": 0.3543307086614173,
          "duration": 0.19583333333333997
        },
        {
          "name": "E2",
          "midi": 40,
          "time": 118.60000000000007,
          "velocity": 0.3543307086614173,
          "duration": 0.19583333333333997
        },
        {
          "name": "A2",
          "midi": 45,
          "time": 118.80000000000007,
          "velocity": 0.8661417322834646,
          "duration": 0.3333333333333286
        },
        {
          "name": "A3",
          "midi": 57,
          "time": 118.80000000000007,
          "velocity": 0.8661417322834646,
          "duration": 1.3958333333333144
        },
        {
          "name": "C#4",
          "midi": 61,
          "time": 118.80000000000007,
          "velocity": 0.8661417322834646,
          "duration": 0.2958333333333343
        },
        {
          "name": "E4",
          "midi": 64,
          "time": 118.80000000000007,
          "velocity": 0.8661417322834646,
          "duration": 0.2958333333333343
        },
        {
          "name": "A4",
          "midi": 69,
          "time": 118.80000000000007,
          "velocity": 0.8661417322834646,
          "duration": 0.2958333333333343
        },
        {
          "name": "C#2",
          "midi": 37,
          "time": 118.80000000000007,
          "velocity": 0.3543307086614173,
          "duration": 0.19583333333333997
        },
        {
          "name": "E2",
          "midi": 40,
          "time": 118.80000000000007,
          "velocity": 0.3543307086614173,
          "duration": 0.19583333333333997
        },
        {
          "name": "C#4",
          "midi": 61,
          "time": 119.00000000000007,
          "velocity": 0.8661417322834646,
          "duration": 0.19583333333332575
        },
        {
          "name": "E4",
          "midi": 64,
          "time": 119.00000000000007,
          "velocity": 0.8661417322834646,
          "duration": 0.19583333333332575
        },
        {
          "name": "A4",
          "midi": 69,
          "time": 119.00000000000007,
          "velocity": 0.8661417322834646,
          "duration": 0.19583333333332575
        },
        {
          "name": "E5",
          "midi": 76,
          "time": 119.00000000000007,
          "velocity": 0.8661417322834646,
          "duration": 0.09999999999999432
        },
        {
          "name": "C#2",
          "midi": 37,
          "time": 119.00000000000007,
          "velocity": 0.3543307086614173,
          "duration": 0.09583333333333144
        },
        {
          "name": "E2",
          "midi": 40,
          "time": 119.00000000000007,
          "velocity": 0.3543307086614173,
          "duration": 0.09583333333333144
        },
        {
          "name": "C#4",
          "midi": 61,
          "time": 119.10000000000007,
          "velocity": 0.8661417322834646,
          "duration": 0.2958333333333343
        },
        {
          "name": "E4",
          "midi": 64,
          "time": 119.10000000000007,
          "velocity": 0.8661417322834646,
          "duration": 0.2958333333333343
        },
        {
          "name": "A4",
          "midi": 69,
          "time": 119.10000000000007,
          "velocity": 0.8661417322834646,
          "duration": 0.2958333333333343
        },
        {
          "name": "A5",
          "midi": 81,
          "time": 119.10000000000007,
          "velocity": 0.8661417322834646,
          "duration": 0.09999999999999432
        },
        {
          "name": "C#2",
          "midi": 37,
          "time": 119.10000000000007,
          "velocity": 0.3543307086614173,
          "duration": 0.09583333333333144
        },
        {
          "name": "E2",
          "midi": 40,
          "time": 119.10000000000007,
          "velocity": 0.3543307086614173,
          "duration": 0.09583333333333144
        },
        {
          "name": "C#4",
          "midi": 61,
          "time": 119.20000000000006,
          "velocity": 0.8661417322834646,
          "duration": 0.3958333333333428
        },
        {
          "name": "E4",
          "midi": 64,
          "time": 119.20000000000006,
          "velocity": 0.8661417322834646,
          "duration": 0.3958333333333428
        },
        {
          "name": "A4",
          "midi": 69,
          "time": 119.20000000000006,
          "velocity": 0.8661417322834646,
          "duration": 0.3958333333333428
        },
        {
          "name": "A2",
          "midi": 45,
          "time": 119.20000000000006,
          "velocity": 0.8661417322834646,
          "duration": 0.3333333333333428
        },
        {
          "name": "C#6",
          "midi": 85,
          "time": 119.20000000000006,
          "velocity": 0.8661417322834646,
          "duration": 0.19583333333333997
        },
        {
          "name": "C#2",
          "midi": 37,
          "time": 119.20000000000006,
          "velocity": 0.3543307086614173,
          "duration": 0.19583333333333997
        },
        {
          "name": "E2",
          "midi": 40,
          "time": 119.20000000000006,
          "velocity": 0.3543307086614173,
          "duration": 0.19583333333333997
        },
        {
          "name": "C#4",
          "midi": 61,
          "time": 119.40000000000006,
          "velocity": 0.8661417322834646,
          "duration": 0.2958333333333343
        },
        {
          "name": "E4",
          "midi": 64,
          "time": 119.40000000000006,
          "velocity": 0.8661417322834646,
          "duration": 0.2958333333333343
        },
        {
          "name": "A4",
          "midi": 69,
          "time": 119.40000000000006,
          "velocity": 0.8661417322834646,
          "duration": 0.2958333333333343
        },
        {
          "name": "E6",
          "midi": 88,
          "time": 119.40000000000006,
          "velocity": 0.8661417322834646,
          "duration": 0.19583333333333997
        },
        {
          "name": "C#2",
          "midi": 37,
          "time": 119.40000000000006,
          "velocity": 0.3543307086614173,
          "duration": 0.19583333333333997
        },
        {
          "name": "E2",
          "midi": 40,
          "time": 119.40000000000006,
          "velocity": 0.3543307086614173,
          "duration": 0.19583333333333997
        },
        {
          "name": "C#4",
          "midi": 61,
          "time": 119.60000000000007,
          "velocity": 0.8661417322834646,
          "duration": 0.19583333333332575
        },
        {
          "name": "E4",
          "midi": 64,
          "time": 119.60000000000007,
          "velocity": 0.8661417322834646,
          "duration": 0.19583333333332575
        },
        {
          "name": "A4",
          "midi": 69,
          "time": 119.60000000000007,
          "velocity": 0.8661417322834646,
          "duration": 0.19583333333332575
        },
        {
          "name": "A2",
          "midi": 45,
          "time": 119.60000000000007,
          "velocity": 0.8661417322834646,
          "duration": 0.19583333333332575
        },
        {
          "name": "A5",
          "midi": 81,
          "time": 119.60000000000007,
          "velocity": 0.8661417322834646,
          "duration": 0.09999999999999432
        },
        {
          "name": "C#2",
          "midi": 37,
          "time": 119.60000000000007,
          "velocity": 0.3543307086614173,
          "duration": 0.19583333333332575
        },
        {
          "name": "E2",
          "midi": 40,
          "time": 119.60000000000007,
          "velocity": 0.3543307086614173,
          "duration": 0.19583333333332575
        },
        {
          "name": "C#4",
          "midi": 61,
          "time": 119.70000000000006,
          "velocity": 0.8661417322834646,
          "duration": 0.2958333333333343
        },
        {
          "name": "E4",
          "midi": 64,
          "time": 119.70000000000006,
          "velocity": 0.8661417322834646,
          "duration": 0.2958333333333343
        },
        {
          "name": "A4",
          "midi": 69,
          "time": 119.70000000000006,
          "velocity": 0.8661417322834646,
          "duration": 0.2958333333333343
        },
        {
          "name": "C#6",
          "midi": 85,
          "time": 119.70000000000006,
          "velocity": 0.8661417322834646,
          "duration": 0.09999999999999432
        },
        {
          "name": "C#4",
          "midi": 61,
          "time": 119.80000000000005,
          "velocity": 0.8661417322834646,
          "duration": 0.29999999999999716
        },
        {
          "name": "E4",
          "midi": 64,
          "time": 119.80000000000005,
          "velocity": 0.8661417322834646,
          "duration": 0.29999999999999716
        },
        {
          "name": "A4",
          "midi": 69,
          "time": 119.80000000000005,
          "velocity": 0.8661417322834646,
          "duration": 0.29999999999999716
        },
        {
          "name": "A2",
          "midi": 45,
          "time": 119.80000000000005,
          "velocity": 0.8661417322834646,
          "duration": 0.19583333333333997
        },
        {
          "name": "E6",
          "midi": 88,
          "time": 119.80000000000005,
          "velocity": 0.8661417322834646,
          "duration": 0.19583333333333997
        },
        {
          "name": "C#2",
          "midi": 37,
          "time": 119.80000000000005,
          "velocity": 0.3543307086614173,
          "duration": 0.19583333333333997
        },
        {
          "name": "E2",
          "midi": 40,
          "time": 119.80000000000005,
          "velocity": 0.3543307086614173,
          "duration": 0.19583333333333997
        },
        {
          "name": "C#4",
          "midi": 61,
          "time": 120.00000000000006,
          "velocity": 0.8661417322834646,
          "duration": 0.19583333333332575
        },
        {
          "name": "E4",
          "midi": 64,
          "time": 120.00000000000006,
          "velocity": 0.8661417322834646,
          "duration": 0.19583333333332575
        },
        {
          "name": "A4",
          "midi": 69,
          "time": 120.00000000000006,
          "velocity": 0.8661417322834646,
          "duration": 0.19583333333332575
        },
        {
          "name": "A2",
          "midi": 45,
          "time": 120.00000000000006,
          "velocity": 0.8661417322834646,
          "duration": 0.09999999999999432
        },
        {
          "name": "A6",
          "midi": 93,
          "time": 120.00000000000006,
          "velocity": 0.8661417322834646,
          "duration": 0.06666666666666288
        },
        {
          "name": "C#2",
          "midi": 37,
          "time": 120.00000000000006,
          "velocity": 0.3543307086614173,
          "duration": 0.19583333333332575
        },
        {
          "name": "E2",
          "midi": 40,
          "time": 120.00000000000006,
          "velocity": 0.3543307086614173,
          "duration": 0.19583333333332575
        },
        {
          "name": "A3",
          "midi": 57,
          "time": 120.40000000000005,
          "velocity": 0.8661417322834646,
          "duration": 0.3333333333333428
        },
        {
          "name": "C#4",
          "midi": 61,
          "time": 120.40000000000005,
          "velocity": 0.8661417322834646,
          "duration": 0.3333333333333428
        },
        {
          "name": "E4",
          "midi": 64,
          "time": 120.40000000000005,
          "velocity": 0.8661417322834646,
          "duration": 0.3333333333333428
        },
        {
          "name": "A4",
          "midi": 69,
          "time": 120.40000000000005,
          "velocity": 0.8661417322834646,
          "duration": 0.3333333333333428
        },
        {
          "name": "C#2",
          "midi": 37,
          "time": 120.40000000000005,
          "velocity": 0.3543307086614173,
          "duration": 0.19583333333333997
        },
        {
          "name": "E2",
          "midi": 40,
          "time": 120.40000000000005,
          "velocity": 0.3543307086614173,
          "duration": 0.19583333333333997
        },
        {
          "name": "C#2",
          "midi": 37,
          "time": 120.60000000000005,
          "velocity": 0.3543307086614173,
          "duration": 0.19583333333333997
        },
        {
          "name": "E2",
          "midi": 40,
          "time": 120.60000000000005,
          "velocity": 0.3543307086614173,
          "duration": 0.19583333333333997
        },
        {
          "name": "C4",
          "midi": 60,
          "time": 120.80000000000005,
          "velocity": 0.8661417322834646,
          "duration": 0.3333333333333428
        },
        {
          "name": "E4",
          "midi": 64,
          "time": 120.80000000000005,
          "velocity": 0.8661417322834646,
          "duration": 0.3333333333333428
        },
        {
          "name": "G4",
          "midi": 67,
          "time": 120.80000000000005,
          "velocity": 0.8661417322834646,
          "duration": 0.3333333333333428
        },
        {
          "name": "C5",
          "midi": 72,
          "time": 120.80000000000005,
          "velocity": 0.8661417322834646,
          "duration": 0.3333333333333428
        },
        {
          "name": "C#2",
          "midi": 37,
          "time": 120.80000000000005,
          "velocity": 0.3543307086614173,
          "duration": 0.19583333333333997
        },
        {
          "name": "E2",
          "midi": 40,
          "time": 120.80000000000005,
          "velocity": 0.3543307086614173,
          "duration": 0.19583333333333997
        },
        {
          "name": "C#2",
          "midi": 37,
          "time": 121.00000000000006,
          "velocity": 0.3543307086614173,
          "duration": 0.19583333333333997
        },
        {
          "name": "E2",
          "midi": 40,
          "time": 121.00000000000006,
          "velocity": 0.3543307086614173,
          "duration": 0.19583333333333997
        },
        {
          "name": "D4",
          "midi": 62,
          "time": 121.20000000000006,
          "velocity": 0.8661417322834646,
          "duration": 0.19583333333333997
        },
        {
          "name": "F4",
          "midi": 65,
          "time": 121.20000000000006,
          "velocity": 0.8661417322834646,
          "duration": 0.19583333333333997
        },
        {
          "name": "A4",
          "midi": 69,
          "time": 121.20000000000006,
          "velocity": 0.8661417322834646,
          "duration": 0.19583333333333997
        },
        {
          "name": "D2",
          "midi": 38,
          "time": 121.20000000000006,
          "velocity": 0.8661417322834646,
          "duration": 0.3333333333333286
        },
        {
          "name": "D4",
          "midi": 62,
          "time": 121.20000000000006,
          "velocity": 0.8661417322834646,
          "duration": 0.2958333333333343
        },
        {
          "name": "F4",
          "midi": 65,
          "time": 121.20000000000006,
          "velocity": 0.8661417322834646,
          "duration": 0.2958333333333343
        },
        {
          "name": "A4",
          "midi": 69,
          "time": 121.20000000000006,
          "velocity": 0.8661417322834646,
          "duration": 0.2958333333333343
        },
        {
          "name": "D5",
          "midi": 74,
          "time": 121.20000000000006,
          "velocity": 0.8661417322834646,
          "duration": 0.29999999999999716
        },
        {
          "name": "C#2",
          "midi": 37,
          "time": 121.20000000000006,
          "velocity": 0.3543307086614173,
          "duration": 0.19583333333333997
        },
        {
          "name": "E2",
          "midi": 40,
          "time": 121.20000000000006,
          "velocity": 0.3543307086614173,
          "duration": 0.19583333333333997
        },
        {
          "name": "D4",
          "midi": 62,
          "time": 121.40000000000006,
          "velocity": 0.8661417322834646,
          "duration": 0.19583333333332575
        },
        {
          "name": "F4",
          "midi": 65,
          "time": 121.40000000000006,
          "velocity": 0.8661417322834646,
          "duration": 0.19583333333332575
        },
        {
          "name": "A4",
          "midi": 69,
          "time": 121.40000000000006,
          "velocity": 0.8661417322834646,
          "duration": 0.19583333333332575
        },
        {
          "name": "D5",
          "midi": 74,
          "time": 121.40000000000006,
          "velocity": 0.8661417322834646,
          "duration": 0.3333333333333286
        },
        {
          "name": "C#2",
          "midi": 37,
          "time": 121.40000000000006,
          "velocity": 0.3543307086614173,
          "duration": 0.09583333333333144
        },
        {
          "name": "E2",
          "midi": 40,
          "time": 121.40000000000006,
          "velocity": 0.3543307086614173,
          "duration": 0.09583333333333144
        },
        {
          "name": "D4",
          "midi": 62,
          "time": 121.50000000000006,
          "velocity": 0.8661417322834646,
          "duration": 0.23333333333333428
        },
        {
          "name": "F4",
          "midi": 65,
          "time": 121.50000000000006,
          "velocity": 0.8661417322834646,
          "duration": 0.23333333333333428
        },
        {
          "name": "A4",
          "midi": 69,
          "time": 121.50000000000006,
          "velocity": 0.8661417322834646,
          "duration": 0.23333333333333428
        },
        {
          "name": "F5",
          "midi": 77,
          "time": 121.50000000000006,
          "velocity": 0.8661417322834646,
          "duration": 0.09999999999999432
        },
        {
          "name": "C#2",
          "midi": 37,
          "time": 121.50000000000006,
          "velocity": 0.3543307086614173,
          "duration": 0.09583333333333144
        },
        {
          "name": "E2",
          "midi": 40,
          "time": 121.50000000000006,
          "velocity": 0.3543307086614173,
          "duration": 0.09583333333333144
        },
        {
          "name": "D4",
          "midi": 62,
          "time": 121.60000000000005,
          "velocity": 0.8661417322834646,
          "duration": 0.19583333333333997
        },
        {
          "name": "F4",
          "midi": 65,
          "time": 121.60000000000005,
          "velocity": 0.8661417322834646,
          "duration": 0.19583333333333997
        },
        {
          "name": "A4",
          "midi": 69,
          "time": 121.60000000000005,
          "velocity": 0.8661417322834646,
          "duration": 0.19583333333333997
        },
        {
          "name": "A5",
          "midi": 81,
          "time": 121.60000000000005,
          "velocity": 0.8661417322834646,
          "duration": 0.19583333333333997
        },
        {
          "name": "C#2",
          "midi": 37,
          "time": 121.60000000000005,
          "velocity": 0.3543307086614173,
          "duration": 0.19583333333333997
        },
        {
          "name": "E2",
          "midi": 40,
          "time": 121.60000000000005,
          "velocity": 0.3543307086614173,
          "duration": 0.19583333333333997
        },
        {
          "name": "D4",
          "midi": 62,
          "time": 121.80000000000005,
          "velocity": 0.8661417322834646,
          "duration": 0.3958333333333286
        },
        {
          "name": "F4",
          "midi": 65,
          "time": 121.80000000000005,
          "velocity": 0.8661417322834646,
          "duration": 0.3958333333333286
        },
        {
          "name": "A4",
          "midi": 69,
          "time": 121.80000000000005,
          "velocity": 0.8661417322834646,
          "duration": 0.3958333333333286
        },
        {
          "name": "A2",
          "midi": 45,
          "time": 121.80000000000005,
          "velocity": 0.8661417322834646,
          "duration": 0.3958333333333286
        },
        {
          "name": "D6",
          "midi": 86,
          "time": 121.80000000000005,
          "velocity": 0.8661417322834646,
          "duration": 0.06666666666666288
        },
        {
          "name": "D4",
          "midi": 62,
          "time": 121.80000000000005,
          "velocity": 0.8661417322834646,
          "duration": 0.3958333333333286
        },
        {
          "name": "F4",
          "midi": 65,
          "time": 121.80000000000005,
          "velocity": 0.8661417322834646,
          "duration": 0.3958333333333286
        },
        {
          "name": "A4",
          "midi": 69,
          "time": 121.80000000000005,
          "velocity": 0.8661417322834646,
          "duration": 0.3958333333333286
        },
        {
          "name": "D5",
          "midi": 74,
          "time": 121.80000000000005,
          "velocity": 0.8661417322834646,
          "duration": 0.3958333333333286
        },
        {
          "name": "C#2",
          "midi": 37,
          "time": 121.80000000000005,
          "velocity": 0.3543307086614173,
          "duration": 0.19583333333332575
        },
        {
          "name": "E2",
          "midi": 40,
          "time": 121.80000000000005,
          "velocity": 0.3543307086614173,
          "duration": 0.19583333333332575
        },
        {
          "name": "C#2",
          "midi": 37,
          "time": 122.00000000000004,
          "velocity": 0.3543307086614173,
          "duration": 0.19583333333333997
        },
        {
          "name": "E2",
          "midi": 40,
          "time": 122.00000000000004,
          "velocity": 0.3543307086614173,
          "duration": 0.19583333333333997
        },
        {
          "name": "C4",
          "midi": 60,
          "time": 122.20000000000005,
          "velocity": 0.8661417322834646,
          "duration": 0.19583333333333997
        },
        {
          "name": "E4",
          "midi": 64,
          "time": 122.20000000000005,
          "velocity": 0.8661417322834646,
          "duration": 0.19583333333333997
        },
        {
          "name": "A4",
          "midi": 69,
          "time": 122.20000000000005,
          "velocity": 0.8661417322834646,
          "duration": 0.19583333333333997
        },
        {
          "name": "A1",
          "midi": 33,
          "time": 122.20000000000005,
          "velocity": 0.8661417322834646,
          "duration": 0.19583333333333997
        },
        {
          "name": "C4",
          "midi": 60,
          "time": 122.20000000000005,
          "velocity": 0.8661417322834646,
          "duration": 0.19583333333333997
        },
        {
          "name": "E4",
          "midi": 64,
          "time": 122.20000000000005,
          "velocity": 0.8661417322834646,
          "duration": 0.19583333333333997
        },
        {
          "name": "A4",
          "midi": 69,
          "time": 122.20000000000005,
          "velocity": 0.8661417322834646,
          "duration": 0.19583333333333997
        },
        {
          "name": "C5",
          "midi": 72,
          "time": 122.20000000000005,
          "velocity": 0.8661417322834646,
          "duration": 0.19583333333333997
        },
        {
          "name": "C#2",
          "midi": 37,
          "time": 122.20000000000005,
          "velocity": 0.3543307086614173,
          "duration": 0.19583333333333997
        },
        {
          "name": "E2",
          "midi": 40,
          "time": 122.20000000000005,
          "velocity": 0.3543307086614173,
          "duration": 0.19583333333333997
        },
        {
          "name": "D4",
          "midi": 62,
          "time": 122.40000000000005,
          "velocity": 0.8661417322834646,
          "duration": 0.3333333333333286
        },
        {
          "name": "F4",
          "midi": 65,
          "time": 122.40000000000005,
          "velocity": 0.8661417322834646,
          "duration": 0.3333333333333286
        },
        {
          "name": "A4",
          "midi": 69,
          "time": 122.40000000000005,
          "velocity": 0.8661417322834646,
          "duration": 0.3333333333333286
        },
        {
          "name": "D2",
          "midi": 38,
          "time": 122.40000000000005,
          "velocity": 0.8661417322834646,
          "duration": 0.3333333333333286
        },
        {
          "name": "D4",
          "midi": 62,
          "time": 122.40000000000005,
          "velocity": 0.8661417322834646,
          "duration": 0.3333333333333286
        },
        {
          "name": "F4",
          "midi": 65,
          "time": 122.40000000000005,
          "velocity": 0.8661417322834646,
          "duration": 0.3333333333333286
        },
        {
          "name": "A4",
          "midi": 69,
          "time": 122.40000000000005,
          "velocity": 0.8661417322834646,
          "duration": 0.3333333333333286
        },
        {
          "name": "D5",
          "midi": 74,
          "time": 122.40000000000005,
          "velocity": 0.8661417322834646,
          "duration": 0.3333333333333286
        },
        {
          "name": "C#2",
          "midi": 37,
          "time": 122.40000000000005,
          "velocity": 0.3543307086614173,
          "duration": 0.19583333333333997
        },
        {
          "name": "E2",
          "midi": 40,
          "time": 122.40000000000005,
          "velocity": 0.3543307086614173,
          "duration": 0.19583333333333997
        },
        {
          "name": "C#2",
          "midi": 37,
          "time": 122.60000000000005,
          "velocity": 0.3543307086614173,
          "duration": 0.09583333333333144
        },
        {
          "name": "E2",
          "midi": 40,
          "time": 122.60000000000005,
          "velocity": 0.3543307086614173,
          "duration": 0.09583333333333144
        },
        {
          "name": "C#2",
          "midi": 37,
          "time": 122.70000000000005,
          "velocity": 0.3543307086614173,
          "duration": 0.09583333333333144
        },
        {
          "name": "E2",
          "midi": 40,
          "time": 122.70000000000005,
          "velocity": 0.3543307086614173,
          "duration": 0.09583333333333144
        },
        {
          "name": "D4",
          "midi": 62,
          "time": 122.80000000000004,
          "velocity": 0.8661417322834646,
          "duration": 0.3333333333333428
        },
        {
          "name": "F4",
          "midi": 65,
          "time": 122.80000000000004,
          "velocity": 0.8661417322834646,
          "duration": 0.3333333333333428
        },
        {
          "name": "A2",
          "midi": 45,
          "time": 122.80000000000004,
          "velocity": 0.8661417322834646,
          "duration": 0.3333333333333428
        },
        {
          "name": "A3",
          "midi": 57,
          "time": 122.80000000000004,
          "velocity": 0.8661417322834646,
          "duration": 0.3333333333333428
        },
        {
          "name": "D4",
          "midi": 62,
          "time": 122.80000000000004,
          "velocity": 0.8661417322834646,
          "duration": 0.3333333333333428
        },
        {
          "name": "F4",
          "midi": 65,
          "time": 122.80000000000004,
          "velocity": 0.8661417322834646,
          "duration": 0.3333333333333428
        },
        {
          "name": "A4",
          "midi": 69,
          "time": 122.80000000000004,
          "velocity": 0.8661417322834646,
          "duration": 0.3333333333333428
        },
        {
          "name": "C#2",
          "midi": 37,
          "time": 122.80000000000004,
          "velocity": 0.3543307086614173,
          "duration": 0.19583333333333997
        },
        {
          "name": "E2",
          "midi": 40,
          "time": 122.80000000000004,
          "velocity": 0.3543307086614173,
          "duration": 0.19583333333333997
        },
        {
          "name": "C#2",
          "midi": 37,
          "time": 123.00000000000004,
          "velocity": 0.3543307086614173,
          "duration": 0.19583333333333997
        },
        {
          "name": "E2",
          "midi": 40,
          "time": 123.00000000000004,
          "velocity": 0.3543307086614173,
          "duration": 0.19583333333333997
        },
        {
          "name": "C4",
          "midi": 60,
          "time": 123.20000000000005,
          "velocity": 0.8661417322834646,
          "duration": 0.3333333333333428
        },
        {
          "name": "E4",
          "midi": 64,
          "time": 123.20000000000005,
          "velocity": 0.8661417322834646,
          "duration": 0.3333333333333428
        },
        {
          "name": "A4",
          "midi": 69,
          "time": 123.20000000000005,
          "velocity": 0.8661417322834646,
          "duration": 0.3333333333333428
        },
        {
          "name": "A1",
          "midi": 33,
          "time": 123.20000000000005,
          "velocity": 0.8661417322834646,
          "duration": 0.3333333333333428
        },
        {
          "name": "C4",
          "midi": 60,
          "time": 123.20000000000005,
          "velocity": 0.8661417322834646,
          "duration": 0.3333333333333428
        },
        {
          "name": "E4",
          "midi": 64,
          "time": 123.20000000000005,
          "velocity": 0.8661417322834646,
          "duration": 0.3333333333333428
        },
        {
          "name": "A4",
          "midi": 69,
          "time": 123.20000000000005,
          "velocity": 0.8661417322834646,
          "duration": 0.3333333333333428
        },
        {
          "name": "C5",
          "midi": 72,
          "time": 123.20000000000005,
          "velocity": 0.8661417322834646,
          "duration": 0.3333333333333428
        },
        {
          "name": "C#2",
          "midi": 37,
          "time": 123.20000000000005,
          "velocity": 0.3543307086614173,
          "duration": 0.19583333333333997
        },
        {
          "name": "E2",
          "midi": 40,
          "time": 123.20000000000005,
          "velocity": 0.3543307086614173,
          "duration": 0.19583333333333997
        },
        {
          "name": "C#2",
          "midi": 37,
          "time": 123.40000000000005,
          "velocity": 0.3543307086614173,
          "duration": 0.19583333333333997
        },
        {
          "name": "E2",
          "midi": 40,
          "time": 123.40000000000005,
          "velocity": 0.3543307086614173,
          "duration": 0.19583333333333997
        },
        {
          "name": "D4",
          "midi": 62,
          "time": 123.60000000000005,
          "velocity": 0.8661417322834646,
          "duration": 0.19583333333333997
        },
        {
          "name": "F4",
          "midi": 65,
          "time": 123.60000000000005,
          "velocity": 0.8661417322834646,
          "duration": 0.19583333333333997
        },
        {
          "name": "A4",
          "midi": 69,
          "time": 123.60000000000005,
          "velocity": 0.8661417322834646,
          "duration": 0.19583333333333997
        },
        {
          "name": "D2",
          "midi": 38,
          "time": 123.60000000000005,
          "velocity": 0.8661417322834646,
          "duration": 0.3333333333333286
        },
        {
          "name": "D4",
          "midi": 62,
          "time": 123.60000000000005,
          "velocity": 0.8661417322834646,
          "duration": 0.2958333333333343
        },
        {
          "name": "F4",
          "midi": 65,
          "time": 123.60000000000005,
          "velocity": 0.8661417322834646,
          "duration": 0.2958333333333343
        },
        {
          "name": "A4",
          "midi": 69,
          "time": 123.60000000000005,
          "velocity": 0.8661417322834646,
          "duration": 0.2958333333333343
        },
        {
          "name": "D5",
          "midi": 74,
          "time": 123.60000000000005,
          "velocity": 0.8661417322834646,
          "duration": 0.29999999999999716
        },
        {
          "name": "C#2",
          "midi": 37,
          "time": 123.60000000000005,
          "velocity": 0.3543307086614173,
          "duration": 0.19583333333333997
        },
        {
          "name": "E2",
          "midi": 40,
          "time": 123.60000000000005,
          "velocity": 0.3543307086614173,
          "duration": 0.19583333333333997
        },
        {
          "name": "D4",
          "midi": 62,
          "time": 123.80000000000005,
          "velocity": 0.8661417322834646,
          "duration": 0.19583333333332575
        },
        {
          "name": "F4",
          "midi": 65,
          "time": 123.80000000000005,
          "velocity": 0.8661417322834646,
          "duration": 0.19583333333332575
        },
        {
          "name": "A4",
          "midi": 69,
          "time": 123.80000000000005,
          "velocity": 0.8661417322834646,
          "duration": 0.19583333333332575
        },
        {
          "name": "D5",
          "midi": 74,
          "time": 123.80000000000005,
          "velocity": 0.8661417322834646,
          "duration": 0.3333333333333286
        },
        {
          "name": "C#2",
          "midi": 37,
          "time": 123.80000000000005,
          "velocity": 0.3543307086614173,
          "duration": 0.09583333333333144
        },
        {
          "name": "E2",
          "midi": 40,
          "time": 123.80000000000005,
          "velocity": 0.3543307086614173,
          "duration": 0.09583333333333144
        },
        {
          "name": "D4",
          "midi": 62,
          "time": 123.90000000000005,
          "velocity": 0.8661417322834646,
          "duration": 0.23333333333333428
        },
        {
          "name": "F4",
          "midi": 65,
          "time": 123.90000000000005,
          "velocity": 0.8661417322834646,
          "duration": 0.23333333333333428
        },
        {
          "name": "A4",
          "midi": 69,
          "time": 123.90000000000005,
          "velocity": 0.8661417322834646,
          "duration": 0.23333333333333428
        },
        {
          "name": "F5",
          "midi": 77,
          "time": 123.90000000000005,
          "velocity": 0.8661417322834646,
          "duration": 0.09999999999999432
        },
        {
          "name": "C#2",
          "midi": 37,
          "time": 123.90000000000005,
          "velocity": 0.3543307086614173,
          "duration": 0.09583333333333144
        },
        {
          "name": "E2",
          "midi": 40,
          "time": 123.90000000000005,
          "velocity": 0.3543307086614173,
          "duration": 0.09583333333333144
        },
        {
          "name": "D4",
          "midi": 62,
          "time": 124.00000000000004,
          "velocity": 0.8661417322834646,
          "duration": 0.19583333333333997
        },
        {
          "name": "F4",
          "midi": 65,
          "time": 124.00000000000004,
          "velocity": 0.8661417322834646,
          "duration": 0.19583333333333997
        },
        {
          "name": "A4",
          "midi": 69,
          "time": 124.00000000000004,
          "velocity": 0.8661417322834646,
          "duration": 0.19583333333333997
        },
        {
          "name": "A5",
          "midi": 81,
          "time": 124.00000000000004,
          "velocity": 0.8661417322834646,
          "duration": 0.19583333333333997
        },
        {
          "name": "C#2",
          "midi": 37,
          "time": 124.00000000000004,
          "velocity": 0.3543307086614173,
          "duration": 0.19583333333333997
        },
        {
          "name": "E2",
          "midi": 40,
          "time": 124.00000000000004,
          "velocity": 0.3543307086614173,
          "duration": 0.19583333333333997
        },
        {
          "name": "D4",
          "midi": 62,
          "time": 124.20000000000005,
          "velocity": 0.8661417322834646,
          "duration": 0.3958333333333286
        },
        {
          "name": "F4",
          "midi": 65,
          "time": 124.20000000000005,
          "velocity": 0.8661417322834646,
          "duration": 0.3958333333333286
        },
        {
          "name": "A4",
          "midi": 69,
          "time": 124.20000000000005,
          "velocity": 0.8661417322834646,
          "duration": 0.3958333333333286
        },
        {
          "name": "A2",
          "midi": 45,
          "time": 124.20000000000005,
          "velocity": 0.8661417322834646,
          "duration": 0.3958333333333286
        },
        {
          "name": "D6",
          "midi": 86,
          "time": 124.20000000000005,
          "velocity": 0.8661417322834646,
          "duration": 0.06666666666666288
        },
        {
          "name": "D4",
          "midi": 62,
          "time": 124.20000000000005,
          "velocity": 0.8661417322834646,
          "duration": 0.3958333333333286
        },
        {
          "name": "F4",
          "midi": 65,
          "time": 124.20000000000005,
          "velocity": 0.8661417322834646,
          "duration": 0.3958333333333286
        },
        {
          "name": "A4",
          "midi": 69,
          "time": 124.20000000000005,
          "velocity": 0.8661417322834646,
          "duration": 0.3958333333333286
        },
        {
          "name": "D5",
          "midi": 74,
          "time": 124.20000000000005,
          "velocity": 0.8661417322834646,
          "duration": 0.3958333333333286
        },
        {
          "name": "C#2",
          "midi": 37,
          "time": 124.20000000000005,
          "velocity": 0.3543307086614173,
          "duration": 0.19583333333332575
        },
        {
          "name": "E2",
          "midi": 40,
          "time": 124.20000000000005,
          "velocity": 0.3543307086614173,
          "duration": 0.19583333333332575
        },
        {
          "name": "C#2",
          "midi": 37,
          "time": 124.40000000000003,
          "velocity": 0.3543307086614173,
          "duration": 0.19583333333333997
        },
        {
          "name": "E2",
          "midi": 40,
          "time": 124.40000000000003,
          "velocity": 0.3543307086614173,
          "duration": 0.19583333333333997
        },
        {
          "name": "C4",
          "midi": 60,
          "time": 124.60000000000004,
          "velocity": 0.8661417322834646,
          "duration": 0.19583333333333997
        },
        {
          "name": "E4",
          "midi": 64,
          "time": 124.60000000000004,
          "velocity": 0.8661417322834646,
          "duration": 0.19583333333333997
        },
        {
          "name": "A4",
          "midi": 69,
          "time": 124.60000000000004,
          "velocity": 0.8661417322834646,
          "duration": 0.19583333333333997
        },
        {
          "name": "A1",
          "midi": 33,
          "time": 124.60000000000004,
          "velocity": 0.8661417322834646,
          "duration": 0.19583333333333997
        },
        {
          "name": "C4",
          "midi": 60,
          "time": 124.60000000000004,
          "velocity": 0.8661417322834646,
          "duration": 0.19583333333333997
        },
        {
          "name": "E4",
          "midi": 64,
          "time": 124.60000000000004,
          "velocity": 0.8661417322834646,
          "duration": 0.19583333333333997
        },
        {
          "name": "A4",
          "midi": 69,
          "time": 124.60000000000004,
          "velocity": 0.8661417322834646,
          "duration": 0.19583333333333997
        },
        {
          "name": "C5",
          "midi": 72,
          "time": 124.60000000000004,
          "velocity": 0.8661417322834646,
          "duration": 0.19583333333333997
        },
        {
          "name": "C#2",
          "midi": 37,
          "time": 124.60000000000004,
          "velocity": 0.3543307086614173,
          "duration": 0.19583333333333997
        },
        {
          "name": "E2",
          "midi": 40,
          "time": 124.60000000000004,
          "velocity": 0.3543307086614173,
          "duration": 0.19583333333333997
        },
        {
          "name": "D4",
          "midi": 62,
          "time": 124.80000000000004,
          "velocity": 0.8661417322834646,
          "duration": 0.3333333333333286
        },
        {
          "name": "F4",
          "midi": 65,
          "time": 124.80000000000004,
          "velocity": 0.8661417322834646,
          "duration": 0.3333333333333286
        },
        {
          "name": "A4",
          "midi": 69,
          "time": 124.80000000000004,
          "velocity": 0.8661417322834646,
          "duration": 0.3333333333333286
        },
        {
          "name": "D2",
          "midi": 38,
          "time": 124.80000000000004,
          "velocity": 0.8661417322834646,
          "duration": 0.3333333333333286
        },
        {
          "name": "D4",
          "midi": 62,
          "time": 124.80000000000004,
          "velocity": 0.8661417322834646,
          "duration": 0.3333333333333286
        },
        {
          "name": "F4",
          "midi": 65,
          "time": 124.80000000000004,
          "velocity": 0.8661417322834646,
          "duration": 0.3333333333333286
        },
        {
          "name": "A4",
          "midi": 69,
          "time": 124.80000000000004,
          "velocity": 0.8661417322834646,
          "duration": 0.3333333333333286
        },
        {
          "name": "D5",
          "midi": 74,
          "time": 124.80000000000004,
          "velocity": 0.8661417322834646,
          "duration": 0.3333333333333286
        },
        {
          "name": "C#2",
          "midi": 37,
          "time": 124.80000000000004,
          "velocity": 0.3543307086614173,
          "duration": 0.19583333333333997
        },
        {
          "name": "E2",
          "midi": 40,
          "time": 124.80000000000004,
          "velocity": 0.3543307086614173,
          "duration": 0.19583333333333997
        },
        {
          "name": "C#2",
          "midi": 37,
          "time": 125.00000000000004,
          "velocity": 0.3543307086614173,
          "duration": 0.09583333333333144
        },
        {
          "name": "E2",
          "midi": 40,
          "time": 125.00000000000004,
          "velocity": 0.3543307086614173,
          "duration": 0.09583333333333144
        },
        {
          "name": "C#2",
          "midi": 37,
          "time": 125.10000000000004,
          "velocity": 0.3543307086614173,
          "duration": 0.09583333333333144
        },
        {
          "name": "E2",
          "midi": 40,
          "time": 125.10000000000004,
          "velocity": 0.3543307086614173,
          "duration": 0.09583333333333144
        },
        {
          "name": "D4",
          "midi": 62,
          "time": 125.20000000000003,
          "velocity": 0.8661417322834646,
          "duration": 0.3333333333333428
        },
        {
          "name": "F4",
          "midi": 65,
          "time": 125.20000000000003,
          "velocity": 0.8661417322834646,
          "duration": 0.3333333333333428
        },
        {
          "name": "A2",
          "midi": 45,
          "time": 125.20000000000003,
          "velocity": 0.8661417322834646,
          "duration": 0.3333333333333428
        },
        {
          "name": "A3",
          "midi": 57,
          "time": 125.20000000000003,
          "velocity": 0.8661417322834646,
          "duration": 0.3333333333333428
        },
        {
          "name": "D4",
          "midi": 62,
          "time": 125.20000000000003,
          "velocity": 0.8661417322834646,
          "duration": 0.3333333333333428
        },
        {
          "name": "F4",
          "midi": 65,
          "time": 125.20000000000003,
          "velocity": 0.8661417322834646,
          "duration": 0.3333333333333428
        },
        {
          "name": "A4",
          "midi": 69,
          "time": 125.20000000000003,
          "velocity": 0.8661417322834646,
          "duration": 0.3333333333333428
        },
        {
          "name": "C#2",
          "midi": 37,
          "time": 125.20000000000003,
          "velocity": 0.3543307086614173,
          "duration": 0.19583333333333997
        },
        {
          "name": "E2",
          "midi": 40,
          "time": 125.20000000000003,
          "velocity": 0.3543307086614173,
          "duration": 0.19583333333333997
        },
        {
          "name": "C#2",
          "midi": 37,
          "time": 125.40000000000003,
          "velocity": 0.3543307086614173,
          "duration": 0.19583333333333997
        },
        {
          "name": "E2",
          "midi": 40,
          "time": 125.40000000000003,
          "velocity": 0.3543307086614173,
          "duration": 0.19583333333333997
        },
        {
          "name": "C4",
          "midi": 60,
          "time": 125.60000000000004,
          "velocity": 0.8661417322834646,
          "duration": 0.3333333333333428
        },
        {
          "name": "E4",
          "midi": 64,
          "time": 125.60000000000004,
          "velocity": 0.8661417322834646,
          "duration": 0.3333333333333428
        },
        {
          "name": "A4",
          "midi": 69,
          "time": 125.60000000000004,
          "velocity": 0.8661417322834646,
          "duration": 0.3333333333333428
        },
        {
          "name": "A1",
          "midi": 33,
          "time": 125.60000000000004,
          "velocity": 0.8661417322834646,
          "duration": 0.3333333333333428
        },
        {
          "name": "C4",
          "midi": 60,
          "time": 125.60000000000004,
          "velocity": 0.8661417322834646,
          "duration": 0.3333333333333428
        },
        {
          "name": "E4",
          "midi": 64,
          "time": 125.60000000000004,
          "velocity": 0.8661417322834646,
          "duration": 0.3333333333333428
        },
        {
          "name": "A4",
          "midi": 69,
          "time": 125.60000000000004,
          "velocity": 0.8661417322834646,
          "duration": 0.3333333333333428
        },
        {
          "name": "C5",
          "midi": 72,
          "time": 125.60000000000004,
          "velocity": 0.8661417322834646,
          "duration": 0.3333333333333428
        },
        {
          "name": "C#2",
          "midi": 37,
          "time": 125.60000000000004,
          "velocity": 0.3543307086614173,
          "duration": 0.19583333333333997
        },
        {
          "name": "E2",
          "midi": 40,
          "time": 125.60000000000004,
          "velocity": 0.3543307086614173,
          "duration": 0.19583333333333997
        },
        {
          "name": "C#2",
          "midi": 37,
          "time": 125.80000000000004,
          "velocity": 0.3543307086614173,
          "duration": 0.19583333333333997
        },
        {
          "name": "E2",
          "midi": 40,
          "time": 125.80000000000004,
          "velocity": 0.3543307086614173,
          "duration": 0.19583333333333997
        },
        {
          "name": "D4",
          "midi": 62,
          "time": 126.00000000000004,
          "velocity": 0.8661417322834646,
          "duration": 0.19583333333333997
        },
        {
          "name": "F4",
          "midi": 65,
          "time": 126.00000000000004,
          "velocity": 0.8661417322834646,
          "duration": 0.19583333333333997
        },
        {
          "name": "A4",
          "midi": 69,
          "time": 126.00000000000004,
          "velocity": 0.8661417322834646,
          "duration": 0.19583333333333997
        },
        {
          "name": "D2",
          "midi": 38,
          "time": 126.00000000000004,
          "velocity": 0.8661417322834646,
          "duration": 0.3333333333333286
        },
        {
          "name": "D4",
          "midi": 62,
          "time": 126.00000000000004,
          "velocity": 0.8661417322834646,
          "duration": 0.2958333333333343
        },
        {
          "name": "F4",
          "midi": 65,
          "time": 126.00000000000004,
          "velocity": 0.8661417322834646,
          "duration": 0.2958333333333343
        },
        {
          "name": "A4",
          "midi": 69,
          "time": 126.00000000000004,
          "velocity": 0.8661417322834646,
          "duration": 0.2958333333333343
        },
        {
          "name": "D5",
          "midi": 74,
          "time": 126.00000000000004,
          "velocity": 0.8661417322834646,
          "duration": 0.29999999999999716
        },
        {
          "name": "C#2",
          "midi": 37,
          "time": 126.00000000000004,
          "velocity": 0.3543307086614173,
          "duration": 0.19583333333333997
        },
        {
          "name": "E2",
          "midi": 40,
          "time": 126.00000000000004,
          "velocity": 0.3543307086614173,
          "duration": 0.19583333333333997
        },
        {
          "name": "D4",
          "midi": 62,
          "time": 126.20000000000005,
          "velocity": 0.8661417322834646,
          "duration": 0.19583333333332575
        },
        {
          "name": "F4",
          "midi": 65,
          "time": 126.20000000000005,
          "velocity": 0.8661417322834646,
          "duration": 0.19583333333332575
        },
        {
          "name": "A4",
          "midi": 69,
          "time": 126.20000000000005,
          "velocity": 0.8661417322834646,
          "duration": 0.19583333333332575
        },
        {
          "name": "D5",
          "midi": 74,
          "time": 126.20000000000005,
          "velocity": 0.8661417322834646,
          "duration": 0.3333333333333286
        },
        {
          "name": "C#2",
          "midi": 37,
          "time": 126.20000000000005,
          "velocity": 0.3543307086614173,
          "duration": 0.09583333333333144
        },
        {
          "name": "E2",
          "midi": 40,
          "time": 126.20000000000005,
          "velocity": 0.3543307086614173,
          "duration": 0.09583333333333144
        },
        {
          "name": "D4",
          "midi": 62,
          "time": 126.30000000000004,
          "velocity": 0.8661417322834646,
          "duration": 0.23333333333333428
        },
        {
          "name": "F4",
          "midi": 65,
          "time": 126.30000000000004,
          "velocity": 0.8661417322834646,
          "duration": 0.23333333333333428
        },
        {
          "name": "A4",
          "midi": 69,
          "time": 126.30000000000004,
          "velocity": 0.8661417322834646,
          "duration": 0.23333333333333428
        },
        {
          "name": "F5",
          "midi": 77,
          "time": 126.30000000000004,
          "velocity": 0.8661417322834646,
          "duration": 0.09999999999999432
        },
        {
          "name": "C#2",
          "midi": 37,
          "time": 126.30000000000004,
          "velocity": 0.3543307086614173,
          "duration": 0.09583333333333144
        },
        {
          "name": "E2",
          "midi": 40,
          "time": 126.30000000000004,
          "velocity": 0.3543307086614173,
          "duration": 0.09583333333333144
        },
        {
          "name": "D4",
          "midi": 62,
          "time": 126.40000000000003,
          "velocity": 0.8661417322834646,
          "duration": 0.19583333333333997
        },
        {
          "name": "F4",
          "midi": 65,
          "time": 126.40000000000003,
          "velocity": 0.8661417322834646,
          "duration": 0.19583333333333997
        },
        {
          "name": "A4",
          "midi": 69,
          "time": 126.40000000000003,
          "velocity": 0.8661417322834646,
          "duration": 0.19583333333333997
        },
        {
          "name": "A2",
          "midi": 45,
          "time": 126.40000000000003,
          "velocity": 0.8661417322834646,
          "duration": 0.19583333333333997
        },
        {
          "name": "A5",
          "midi": 81,
          "time": 126.40000000000003,
          "velocity": 0.8661417322834646,
          "duration": 0.19583333333333997
        },
        {
          "name": "C#2",
          "midi": 37,
          "time": 126.40000000000003,
          "velocity": 0.3543307086614173,
          "duration": 0.19583333333333997
        },
        {
          "name": "E2",
          "midi": 40,
          "time": 126.40000000000003,
          "velocity": 0.3543307086614173,
          "duration": 0.19583333333333997
        },
        {
          "name": "C4",
          "midi": 60,
          "time": 126.60000000000004,
          "velocity": 0.8661417322834646,
          "duration": 0.3958333333333286
        },
        {
          "name": "G4",
          "midi": 67,
          "time": 126.60000000000004,
          "velocity": 0.8661417322834646,
          "duration": 0.3958333333333286
        },
        {
          "name": "A#4",
          "midi": 70,
          "time": 126.60000000000004,
          "velocity": 0.8661417322834646,
          "duration": 0.3958333333333286
        },
        {
          "name": "E2",
          "midi": 40,
          "time": 126.60000000000004,
          "velocity": 0.8661417322834646,
          "duration": 0.19583333333332575
        },
        {
          "name": "C6",
          "midi": 84,
          "time": 126.60000000000004,
          "velocity": 0.8661417322834646,
          "duration": 0.06666666666666288
        },
        {
          "name": "C4",
          "midi": 60,
          "time": 126.60000000000004,
          "velocity": 0.8661417322834646,
          "duration": 0.3958333333333286
        },
        {
          "name": "G4",
          "midi": 67,
          "time": 126.60000000000004,
          "velocity": 0.8661417322834646,
          "duration": 0.3958333333333286
        },
        {
          "name": "A#4",
          "midi": 70,
          "time": 126.60000000000004,
          "velocity": 0.8661417322834646,
          "duration": 0.3958333333333286
        },
        {
          "name": "C5",
          "midi": 72,
          "time": 126.60000000000004,
          "velocity": 0.8661417322834646,
          "duration": 0.3958333333333286
        },
        {
          "name": "C#2",
          "midi": 37,
          "time": 126.60000000000004,
          "velocity": 0.3543307086614173,
          "duration": 0.19583333333332575
        },
        {
          "name": "E2",
          "midi": 40,
          "time": 126.60000000000004,
          "velocity": 0.3543307086614173,
          "duration": 0.3958333333333286
        },
        {
          "name": "C#2",
          "midi": 37,
          "time": 126.80000000000003,
          "velocity": 0.3543307086614173,
          "duration": 0.19583333333333997
        },
        {
          "name": "E2",
          "midi": 40,
          "time": 126.80000000000003,
          "velocity": 0.3543307086614173,
          "duration": 0.19583333333333997
        },
        {
          "name": "C4",
          "midi": 60,
          "time": 127.00000000000003,
          "velocity": 0.8661417322834646,
          "duration": 0.19583333333333997
        },
        {
          "name": "G4",
          "midi": 67,
          "time": 127.00000000000003,
          "velocity": 0.8661417322834646,
          "duration": 0.19583333333333997
        },
        {
          "name": "E2",
          "midi": 40,
          "time": 127.00000000000003,
          "velocity": 0.8661417322834646,
          "duration": 0.19583333333333997
        },
        {
          "name": "A#3",
          "midi": 58,
          "time": 127.00000000000003,
          "velocity": 0.8661417322834646,
          "duration": 0.19583333333333997
        },
        {
          "name": "C4",
          "midi": 60,
          "time": 127.00000000000003,
          "velocity": 0.8661417322834646,
          "duration": 0.19583333333333997
        },
        {
          "name": "G4",
          "midi": 67,
          "time": 127.00000000000003,
          "velocity": 0.8661417322834646,
          "duration": 0.19583333333333997
        },
        {
          "name": "A#4",
          "midi": 70,
          "time": 127.00000000000003,
          "velocity": 0.8661417322834646,
          "duration": 0.19583333333333997
        },
        {
          "name": "C#2",
          "midi": 37,
          "time": 127.00000000000003,
          "velocity": 0.3543307086614173,
          "duration": 0.19583333333333997
        },
        {
          "name": "E2",
          "midi": 40,
          "time": 127.00000000000003,
          "velocity": 0.3543307086614173,
          "duration": 0.19583333333333997
        },
        {
          "name": "C4",
          "midi": 60,
          "time": 127.20000000000003,
          "velocity": 0.8661417322834646,
          "duration": 0.19583333333333997
        },
        {
          "name": "F4",
          "midi": 65,
          "time": 127.20000000000003,
          "velocity": 0.8661417322834646,
          "duration": 0.19583333333333997
        },
        {
          "name": "F2",
          "midi": 41,
          "time": 127.20000000000003,
          "velocity": 0.8661417322834646,
          "duration": 0.3333333333333286
        },
        {
          "name": "A3",
          "midi": 57,
          "time": 127.20000000000003,
          "velocity": 0.8661417322834646,
          "duration": 0.3333333333333286
        },
        {
          "name": "C4",
          "midi": 60,
          "time": 127.20000000000003,
          "velocity": 0.8661417322834646,
          "duration": 0.3333333333333286
        },
        {
          "name": "F4",
          "midi": 65,
          "time": 127.20000000000003,
          "velocity": 0.8661417322834646,
          "duration": 0.3333333333333286
        },
        {
          "name": "A4",
          "midi": 69,
          "time": 127.20000000000003,
          "velocity": 0.8661417322834646,
          "duration": 0.3333333333333286
        },
        {
          "name": "C#2",
          "midi": 37,
          "time": 127.20000000000003,
          "velocity": 0.3543307086614173,
          "duration": 0.19583333333333997
        },
        {
          "name": "E2",
          "midi": 40,
          "time": 127.20000000000003,
          "velocity": 0.3543307086614173,
          "duration": 0.19583333333333997
        },
        {
          "name": "C4",
          "midi": 60,
          "time": 127.40000000000003,
          "velocity": 0.8661417322834646,
          "duration": 0.19583333333332575
        },
        {
          "name": "F4",
          "midi": 65,
          "time": 127.40000000000003,
          "velocity": 0.8661417322834646,
          "duration": 0.19583333333332575
        },
        {
          "name": "C#2",
          "midi": 37,
          "time": 127.40000000000003,
          "velocity": 0.3543307086614173,
          "duration": 0.09583333333333144
        },
        {
          "name": "E2",
          "midi": 40,
          "time": 127.40000000000003,
          "velocity": 0.3543307086614173,
          "duration": 0.09583333333333144
        },
        {
          "name": "C#2",
          "midi": 37,
          "time": 127.50000000000003,
          "velocity": 0.3543307086614173,
          "duration": 0.09583333333333144
        },
        {
          "name": "E2",
          "midi": 40,
          "time": 127.50000000000003,
          "velocity": 0.3543307086614173,
          "duration": 0.09583333333333144
        },
        {
          "name": "C4",
          "midi": 60,
          "time": 127.60000000000002,
          "velocity": 0.8661417322834646,
          "duration": 0.19583333333333997
        },
        {
          "name": "F4",
          "midi": 65,
          "time": 127.60000000000002,
          "velocity": 0.8661417322834646,
          "duration": 0.19583333333333997
        },
        {
          "name": "F2",
          "midi": 41,
          "time": 127.60000000000002,
          "velocity": 0.8661417322834646,
          "duration": 0.3333333333333428
        },
        {
          "name": "F3",
          "midi": 53,
          "time": 127.60000000000002,
          "velocity": 0.8661417322834646,
          "duration": 0.3333333333333428
        },
        {
          "name": "C4",
          "midi": 60,
          "time": 127.60000000000002,
          "velocity": 0.8661417322834646,
          "duration": 0.3333333333333428
        },
        {
          "name": "F4",
          "midi": 65,
          "time": 127.60000000000002,
          "velocity": 0.8661417322834646,
          "duration": 0.3333333333333428
        },
        {
          "name": "A4",
          "midi": 69,
          "time": 127.60000000000002,
          "velocity": 0.8661417322834646,
          "duration": 0.3333333333333428
        },
        {
          "name": "C5",
          "midi": 72,
          "time": 127.60000000000002,
          "velocity": 0.8661417322834646,
          "duration": 0.3333333333333428
        },
        {
          "name": "C#2",
          "midi": 37,
          "time": 127.60000000000002,
          "velocity": 0.3543307086614173,
          "duration": 0.19583333333333997
        },
        {
          "name": "E2",
          "midi": 40,
          "time": 127.60000000000002,
          "velocity": 0.3543307086614173,
          "duration": 0.19583333333333997
        },
        {
          "name": "C4",
          "midi": 60,
          "time": 127.80000000000003,
          "velocity": 0.8661417322834646,
          "duration": 0.19583333333333997
        },
        {
          "name": "F4",
          "midi": 65,
          "time": 127.80000000000003,
          "velocity": 0.8661417322834646,
          "duration": 0.19583333333333997
        },
        {
          "name": "C#2",
          "midi": 37,
          "time": 127.80000000000003,
          "velocity": 0.3543307086614173,
          "duration": 0.19583333333333997
        },
        {
          "name": "E2",
          "midi": 40,
          "time": 127.80000000000003,
          "velocity": 0.3543307086614173,
          "duration": 0.19583333333333997
        },
        {
          "name": "C4",
          "midi": 60,
          "time": 128.00000000000003,
          "velocity": 0.8661417322834646,
          "duration": 0.19583333333332575
        },
        {
          "name": "E4",
          "midi": 64,
          "time": 128.00000000000003,
          "velocity": 0.8661417322834646,
          "duration": 0.19583333333332575
        },
        {
          "name": "A4",
          "midi": 69,
          "time": 128.00000000000003,
          "velocity": 0.8661417322834646,
          "duration": 0.19583333333332575
        },
        {
          "name": "A2",
          "midi": 45,
          "time": 128.00000000000003,
          "velocity": 0.8661417322834646,
          "duration": 0.3333333333333144
        },
        {
          "name": "A3",
          "midi": 57,
          "time": 128.00000000000003,
          "velocity": 0.8661417322834646,
          "duration": 0.3333333333333144
        },
        {
          "name": "E4",
          "midi": 64,
          "time": 128.00000000000003,
          "velocity": 0.8661417322834646,
          "duration": 0.3333333333333144
        },
        {
          "name": "A4",
          "midi": 69,
          "time": 128.00000000000003,
          "velocity": 0.8661417322834646,
          "duration": 0.3333333333333144
        },
        {
          "name": "C5",
          "midi": 72,
          "time": 128.00000000000003,
          "velocity": 0.8661417322834646,
          "duration": 0.3333333333333144
        },
        {
          "name": "E5",
          "midi": 76,
          "time": 128.00000000000003,
          "velocity": 0.8661417322834646,
          "duration": 0.3333333333333144
        },
        {
          "name": "C#2",
          "midi": 37,
          "time": 128.00000000000003,
          "velocity": 0.3543307086614173,
          "duration": 0.19583333333332575
        },
        {
          "name": "E2",
          "midi": 40,
          "time": 128.00000000000003,
          "velocity": 0.3543307086614173,
          "duration": 0.19583333333332575
        },
        {
          "name": "C4",
          "midi": 60,
          "time": 128.20000000000002,
          "velocity": 0.8661417322834646,
          "duration": 0.19583333333332575
        },
        {
          "name": "E4",
          "midi": 64,
          "time": 128.20000000000002,
          "velocity": 0.8661417322834646,
          "duration": 0.19583333333332575
        },
        {
          "name": "A4",
          "midi": 69,
          "time": 128.20000000000002,
          "velocity": 0.8661417322834646,
          "duration": 0.19583333333332575
        },
        {
          "name": "C#2",
          "midi": 37,
          "time": 128.20000000000002,
          "velocity": 0.3543307086614173,
          "duration": 0.19583333333332575
        },
        {
          "name": "E2",
          "midi": 40,
          "time": 128.20000000000002,
          "velocity": 0.3543307086614173,
          "duration": 0.19583333333332575
        },
        {
          "name": "D4",
          "midi": 62,
          "time": 128.4,
          "velocity": 0.8661417322834646,
          "duration": 0.19583333333332575
        },
        {
          "name": "F4",
          "midi": 65,
          "time": 128.4,
          "velocity": 0.8661417322834646,
          "duration": 0.19583333333332575
        },
        {
          "name": "A4",
          "midi": 69,
          "time": 128.4,
          "velocity": 0.8661417322834646,
          "duration": 0.19583333333332575
        },
        {
          "name": "D2",
          "midi": 38,
          "time": 128.4,
          "velocity": 0.8661417322834646,
          "duration": 0.3333333333333144
        },
        {
          "name": "D3",
          "midi": 50,
          "time": 128.4,
          "velocity": 0.8661417322834646,
          "duration": 0.3333333333333144
        },
        {
          "name": "A4",
          "midi": 69,
          "time": 128.4,
          "velocity": 0.8661417322834646,
          "duration": 0.19583333333332575
        },
        {
          "name": "D5",
          "midi": 74,
          "time": 128.4,
          "velocity": 0.8661417322834646,
          "duration": 0.19583333333332575
        },
        {
          "name": "F5",
          "midi": 77,
          "time": 128.4,
          "velocity": 0.8661417322834646,
          "duration": 0.19583333333332575
        },
        {
          "name": "A5",
          "midi": 81,
          "time": 128.4,
          "velocity": 0.8661417322834646,
          "duration": 0.19583333333332575
        },
        {
          "name": "C#2",
          "midi": 37,
          "time": 128.4,
          "velocity": 0.3543307086614173,
          "duration": 0.19583333333332575
        },
        {
          "name": "E2",
          "midi": 40,
          "time": 128.4,
          "velocity": 0.3543307086614173,
          "duration": 0.19583333333332575
        },
        {
          "name": "D4",
          "midi": 62,
          "time": 128.6,
          "velocity": 0.8661417322834646,
          "duration": 0.09583333333333144
        },
        {
          "name": "F4",
          "midi": 65,
          "time": 128.6,
          "velocity": 0.8661417322834646,
          "duration": 0.09583333333333144
        },
        {
          "name": "A4",
          "midi": 69,
          "time": 128.6,
          "velocity": 0.8661417322834646,
          "duration": 0.09583333333333144
        },
        {
          "name": "A6",
          "midi": 93,
          "time": 128.6,
          "velocity": 0.8661417322834646,
          "duration": 0.06666666666666288
        },
        {
          "name": "A4",
          "midi": 69,
          "time": 128.6,
          "velocity": 0.8661417322834646,
          "duration": 0.09583333333333144
        },
        {
          "name": "D5",
          "midi": 74,
          "time": 128.6,
          "velocity": 0.8661417322834646,
          "duration": 0.09583333333333144
        },
        {
          "name": "F5",
          "midi": 77,
          "time": 128.6,
          "velocity": 0.8661417322834646,
          "duration": 0.09583333333333144
        },
        {
          "name": "A5",
          "midi": 81,
          "time": 128.6,
          "velocity": 0.8661417322834646,
          "duration": 0.09583333333333144
        },
        {
          "name": "C#2",
          "midi": 37,
          "time": 128.6,
          "velocity": 0.3543307086614173,
          "duration": 0.09583333333333144
        },
        {
          "name": "E2",
          "midi": 40,
          "time": 128.6,
          "velocity": 0.3543307086614173,
          "duration": 0.09583333333333144
        },
        {
          "name": "F6",
          "midi": 89,
          "time": 128.66666666666666,
          "velocity": 0.8661417322834646,
          "duration": 0.06666666666666288
        },
        {
          "name": "D4",
          "midi": 62,
          "time": 128.7,
          "velocity": 0.8661417322834646,
          "duration": 0.09583333333333144
        },
        {
          "name": "F4",
          "midi": 65,
          "time": 128.7,
          "velocity": 0.8661417322834646,
          "duration": 0.09583333333333144
        },
        {
          "name": "A4",
          "midi": 69,
          "time": 128.7,
          "velocity": 0.8661417322834646,
          "duration": 0.09583333333333144
        },
        {
          "name": "A4",
          "midi": 69,
          "time": 128.7,
          "velocity": 0.8661417322834646,
          "duration": 0.09583333333333144
        },
        {
          "name": "D5",
          "midi": 74,
          "time": 128.7,
          "velocity": 0.8661417322834646,
          "duration": 0.09583333333333144
        },
        {
          "name": "F5",
          "midi": 77,
          "time": 128.7,
          "velocity": 0.8661417322834646,
          "duration": 0.09583333333333144
        },
        {
          "name": "A5",
          "midi": 81,
          "time": 128.7,
          "velocity": 0.8661417322834646,
          "duration": 0.09583333333333144
        },
        {
          "name": "C#2",
          "midi": 37,
          "time": 128.7,
          "velocity": 0.3543307086614173,
          "duration": 0.09583333333333144
        },
        {
          "name": "E2",
          "midi": 40,
          "time": 128.7,
          "velocity": 0.3543307086614173,
          "duration": 0.09583333333333144
        },
        {
          "name": "D6",
          "midi": 86,
          "time": 128.73333333333332,
          "velocity": 0.8661417322834646,
          "duration": 0.06666666666666288
        },
        {
          "name": "D4",
          "midi": 62,
          "time": 128.79999999999998,
          "velocity": 0.8661417322834646,
          "duration": 0.19583333333332575
        },
        {
          "name": "F4",
          "midi": 65,
          "time": 128.79999999999998,
          "velocity": 0.8661417322834646,
          "duration": 0.19583333333332575
        },
        {
          "name": "A4",
          "midi": 69,
          "time": 128.79999999999998,
          "velocity": 0.8661417322834646,
          "duration": 0.19583333333332575
        },
        {
          "name": "A5",
          "midi": 81,
          "time": 128.79999999999998,
          "velocity": 0.8661417322834646,
          "duration": 0.19583333333332575
        },
        {
          "name": "A4",
          "midi": 69,
          "time": 128.79999999999998,
          "velocity": 0.8661417322834646,
          "duration": 0.19583333333332575
        },
        {
          "name": "D5",
          "midi": 74,
          "time": 128.79999999999998,
          "velocity": 0.8661417322834646,
          "duration": 0.19583333333332575
        },
        {
          "name": "F5",
          "midi": 77,
          "time": 128.79999999999998,
          "velocity": 0.8661417322834646,
          "duration": 0.19583333333332575
        },
        {
          "name": "A5",
          "midi": 81,
          "time": 128.79999999999998,
          "velocity": 0.8661417322834646,
          "duration": 0.19583333333332575
        },
        {
          "name": "C#2",
          "midi": 37,
          "time": 128.79999999999998,
          "velocity": 0.3543307086614173,
          "duration": 0.19583333333332575
        },
        {
          "name": "E2",
          "midi": 40,
          "time": 128.79999999999998,
          "velocity": 0.3543307086614173,
          "duration": 0.19583333333332575
        },
        {
          "name": "D4",
          "midi": 62,
          "time": 128.99999999999997,
          "velocity": 0.8661417322834646,
          "duration": 0.19583333333332575
        },
        {
          "name": "F4",
          "midi": 65,
          "time": 128.99999999999997,
          "velocity": 0.8661417322834646,
          "duration": 0.19583333333332575
        },
        {
          "name": "A4",
          "midi": 69,
          "time": 128.99999999999997,
          "velocity": 0.8661417322834646,
          "duration": 0.19583333333332575
        },
        {
          "name": "A6",
          "midi": 93,
          "time": 128.99999999999997,
          "velocity": 0.8661417322834646,
          "duration": 0.19583333333332575
        },
        {
          "name": "A4",
          "midi": 69,
          "time": 128.99999999999997,
          "velocity": 0.8661417322834646,
          "duration": 0.19583333333332575
        },
        {
          "name": "D5",
          "midi": 74,
          "time": 128.99999999999997,
          "velocity": 0.8661417322834646,
          "duration": 0.19583333333332575
        },
        {
          "name": "F5",
          "midi": 77,
          "time": 128.99999999999997,
          "velocity": 0.8661417322834646,
          "duration": 0.19583333333332575
        },
        {
          "name": "A5",
          "midi": 81,
          "time": 128.99999999999997,
          "velocity": 0.8661417322834646,
          "duration": 0.19583333333332575
        },
        {
          "name": "C#2",
          "midi": 37,
          "time": 128.99999999999997,
          "velocity": 0.3543307086614173,
          "duration": 0.19583333333332575
        },
        {
          "name": "E2",
          "midi": 40,
          "time": 128.99999999999997,
          "velocity": 0.3543307086614173,
          "duration": 0.19583333333332575
        },
        {
          "name": "C4",
          "midi": 60,
          "time": 129.19999999999996,
          "velocity": 0.8661417322834646,
          "duration": 0.19583333333332575
        },
        {
          "name": "E4",
          "midi": 64,
          "time": 129.19999999999996,
          "velocity": 0.8661417322834646,
          "duration": 0.19583333333332575
        },
        {
          "name": "G4",
          "midi": 67,
          "time": 129.19999999999996,
          "velocity": 0.8661417322834646,
          "duration": 0.19583333333332575
        },
        {
          "name": "C2",
          "midi": 36,
          "time": 129.19999999999996,
          "velocity": 0.8661417322834646,
          "duration": 0.3333333333333144
        },
        {
          "name": "C3",
          "midi": 48,
          "time": 129.19999999999996,
          "velocity": 0.8661417322834646,
          "duration": 0.3333333333333144
        },
        {
          "name": "G6",
          "midi": 91,
          "time": 129.19999999999996,
          "velocity": 0.8661417322834646,
          "duration": 0.09999999999999432
        },
        {
          "name": "G4",
          "midi": 67,
          "time": 129.19999999999996,
          "velocity": 0.8661417322834646,
          "duration": 0.19583333333332575
        },
        {
          "name": "C5",
          "midi": 72,
          "time": 129.19999999999996,
          "velocity": 0.8661417322834646,
          "duration": 0.19583333333332575
        },
        {
          "name": "E5",
          "midi": 76,
          "time": 129.19999999999996,
          "velocity": 0.8661417322834646,
          "duration": 0.19583333333332575
        },
        {
          "name": "G5",
          "midi": 79,
          "time": 129.19999999999996,
          "velocity": 0.8661417322834646,
          "duration": 0.19583333333332575
        },
        {
          "name": "C#2",
          "midi": 37,
          "time": 129.19999999999996,
          "velocity": 0.3543307086614173,
          "duration": 0.19583333333332575
        },
        {
          "name": "E2",
          "midi": 40,
          "time": 129.19999999999996,
          "velocity": 0.3543307086614173,
          "duration": 0.19583333333332575
        },
        {
          "name": "G5",
          "midi": 79,
          "time": 129.29999999999995,
          "velocity": 0.8661417322834646,
          "duration": 0.09583333333333144
        },
        {
          "name": "C4",
          "midi": 60,
          "time": 129.39999999999995,
          "velocity": 0.8661417322834646,
          "duration": 0.19583333333332575
        },
        {
          "name": "E4",
          "midi": 64,
          "time": 129.39999999999995,
          "velocity": 0.8661417322834646,
          "duration": 0.19583333333332575
        },
        {
          "name": "G4",
          "midi": 67,
          "time": 129.39999999999995,
          "velocity": 0.8661417322834646,
          "duration": 0.19583333333332575
        },
        {
          "name": "G6",
          "midi": 91,
          "time": 129.39999999999995,
          "velocity": 0.8661417322834646,
          "duration": 0.06666666666666288
        },
        {
          "name": "G4",
          "midi": 67,
          "time": 129.39999999999995,
          "velocity": 0.8661417322834646,
          "duration": 0.19583333333332575
        },
        {
          "name": "C5",
          "midi": 72,
          "time": 129.39999999999995,
          "velocity": 0.8661417322834646,
          "duration": 0.19583333333332575
        },
        {
          "name": "E5",
          "midi": 76,
          "time": 129.39999999999995,
          "velocity": 0.8661417322834646,
          "duration": 0.19583333333332575
        },
        {
          "name": "G5",
          "midi": 79,
          "time": 129.39999999999995,
          "velocity": 0.8661417322834646,
          "duration": 0.19583333333332575
        },
        {
          "name": "C#2",
          "midi": 37,
          "time": 129.39999999999995,
          "velocity": 0.3543307086614173,
          "duration": 0.19583333333332575
        },
        {
          "name": "E2",
          "midi": 40,
          "time": 129.39999999999995,
          "velocity": 0.3543307086614173,
          "duration": 0.19583333333332575
        },
        {
          "name": "D4",
          "midi": 62,
          "time": 129.59999999999994,
          "velocity": 1,
          "duration": 0.3333333333333428
        },
        {
          "name": "F4",
          "midi": 65,
          "time": 129.59999999999994,
          "velocity": 1,
          "duration": 0.3333333333333428
        },
        {
          "name": "A4",
          "midi": 69,
          "time": 129.59999999999994,
          "velocity": 1,
          "duration": 0.3333333333333428
        },
        {
          "name": "D2",
          "midi": 38,
          "time": 129.59999999999994,
          "velocity": 1,
          "duration": 0.3333333333333428
        },
        {
          "name": "D3",
          "midi": 50,
          "time": 129.59999999999994,
          "velocity": 1,
          "duration": 0.3333333333333428
        },
        {
          "name": "A6",
          "midi": 93,
          "time": 129.59999999999994,
          "velocity": 0.8661417322834646,
          "duration": 0.3333333333333428
        },
        {
          "name": "A4",
          "midi": 69,
          "time": 129.59999999999994,
          "velocity": 1,
          "duration": 0.3333333333333428
        },
        {
          "name": "D5",
          "midi": 74,
          "time": 129.59999999999994,
          "velocity": 1,
          "duration": 0.3333333333333428
        },
        {
          "name": "F5",
          "midi": 77,
          "time": 129.59999999999994,
          "velocity": 1,
          "duration": 0.3333333333333428
        },
        {
          "name": "A5",
          "midi": 81,
          "time": 129.59999999999994,
          "velocity": 1,
          "duration": 0.3333333333333428
        },
        {
          "name": "C#2",
          "midi": 37,
          "time": 129.59999999999994,
          "velocity": 0.49606299212598426,
          "duration": 0.3333333333333428
        },
        {
          "name": "E2",
          "midi": 40,
          "time": 129.59999999999994,
          "velocity": 0.49606299212598426,
          "duration": 0.3333333333333428
        },
        {
          "name": "D5",
          "midi": 74,
          "time": 129.99999999999994,
          "velocity": 0.8661417322834646,
          "duration": 0.3333333333333428
        },
        {
          "name": "C#5",
          "midi": 73,
          "time": 130.39999999999995,
          "velocity": 0.8661417322834646,
          "duration": 0.3333333333333428
        },
        {
          "name": "D5",
          "midi": 74,
          "time": 130.79999999999995,
          "velocity": 0.8661417322834646,
          "duration": 0.533333333333303
        },
        {
          "name": "F#5",
          "midi": 78,
          "time": 130.79999999999995,
          "velocity": 0.8661417322834646,
          "duration": 1.0999999999999375
        },
        {
          "name": "A3",
          "midi": 57,
          "time": 130.79999999999995,
          "velocity": 0.8661417322834646,
          "duration": 0.19583333333332575
        },
        {
          "name": "D4",
          "midi": 62,
          "time": 130.79999999999995,
          "velocity": 0.8661417322834646,
          "duration": 0.19583333333332575
        },
        {
          "name": "F#4",
          "midi": 66,
          "time": 130.79999999999995,
          "velocity": 0.8661417322834646,
          "duration": 0.19583333333332575
        },
        {
          "name": "D3",
          "midi": 50,
          "time": 130.79999999999995,
          "velocity": 0.8661417322834646,
          "duration": 0.3333333333333144
        },
        {
          "name": "C#2",
          "midi": 37,
          "time": 130.79999999999995,
          "velocity": 0.3543307086614173,
          "duration": 0.19583333333332575
        },
        {
          "name": "E2",
          "midi": 40,
          "time": 130.79999999999995,
          "velocity": 0.3543307086614173,
          "duration": 0.19583333333332575
        },
        {
          "name": "D2",
          "midi": 38,
          "time": 130.79999999999995,
          "velocity": 0.8661417322834646,
          "duration": 0.3333333333333144
        },
        {
          "name": "A3",
          "midi": 57,
          "time": 130.99999999999994,
          "velocity": 0.8661417322834646,
          "duration": 0.09583333333333144
        },
        {
          "name": "D4",
          "midi": 62,
          "time": 130.99999999999994,
          "velocity": 0.8661417322834646,
          "duration": 0.09583333333333144
        },
        {
          "name": "F#4",
          "midi": 66,
          "time": 130.99999999999994,
          "velocity": 0.8661417322834646,
          "duration": 0.09583333333333144
        },
        {
          "name": "C#2",
          "midi": 37,
          "time": 130.99999999999994,
          "velocity": 0.3543307086614173,
          "duration": 0.09583333333333144
        },
        {
          "name": "E2",
          "midi": 40,
          "time": 130.99999999999994,
          "velocity": 0.3543307086614173,
          "duration": 0.09583333333333144
        },
        {
          "name": "A3",
          "midi": 57,
          "time": 131.09999999999994,
          "velocity": 0.8661417322834646,
          "duration": 0.09583333333333144
        },
        {
          "name": "D4",
          "midi": 62,
          "time": 131.09999999999994,
          "velocity": 0.8661417322834646,
          "duration": 0.09583333333333144
        },
        {
          "name": "F#4",
          "midi": 66,
          "time": 131.09999999999994,
          "velocity": 0.8661417322834646,
          "duration": 0.09583333333333144
        },
        {
          "name": "C#2",
          "midi": 37,
          "time": 131.09999999999994,
          "velocity": 0.3543307086614173,
          "duration": 0.09583333333333144
        },
        {
          "name": "E2",
          "midi": 40,
          "time": 131.09999999999994,
          "velocity": 0.3543307086614173,
          "duration": 0.09583333333333144
        },
        {
          "name": "A3",
          "midi": 57,
          "time": 131.19999999999993,
          "velocity": 0.8661417322834646,
          "duration": 0.19583333333332575
        },
        {
          "name": "D4",
          "midi": 62,
          "time": 131.19999999999993,
          "velocity": 0.8661417322834646,
          "duration": 0.19583333333332575
        },
        {
          "name": "F#4",
          "midi": 66,
          "time": 131.19999999999993,
          "velocity": 0.8661417322834646,
          "duration": 0.19583333333332575
        },
        {
          "name": "A4",
          "midi": 69,
          "time": 131.19999999999993,
          "velocity": 0.8661417322834646,
          "duration": 1.5333333333332462
        },
        {
          "name": "C#2",
          "midi": 37,
          "time": 131.19999999999993,
          "velocity": 0.3543307086614173,
          "duration": 0.19583333333332575
        },
        {
          "name": "E2",
          "midi": 40,
          "time": 131.19999999999993,
          "velocity": 0.3543307086614173,
          "duration": 0.19583333333332575
        },
        {
          "name": "D5",
          "midi": 74,
          "time": 131.39999999999992,
          "velocity": 0.8661417322834646,
          "duration": 0.3958333333333144
        },
        {
          "name": "A3",
          "midi": 57,
          "time": 131.39999999999992,
          "velocity": 0.8661417322834646,
          "duration": 0.19583333333332575
        },
        {
          "name": "D4",
          "midi": 62,
          "time": 131.39999999999992,
          "velocity": 0.8661417322834646,
          "duration": 0.19583333333332575
        },
        {
          "name": "F#4",
          "midi": 66,
          "time": 131.39999999999992,
          "velocity": 0.8661417322834646,
          "duration": 0.19583333333332575
        },
        {
          "name": "C#2",
          "midi": 37,
          "time": 131.39999999999992,
          "velocity": 0.3543307086614173,
          "duration": 0.19583333333332575
        },
        {
          "name": "E2",
          "midi": 40,
          "time": 131.39999999999992,
          "velocity": 0.3543307086614173,
          "duration": 0.19583333333332575
        },
        {
          "name": "A3",
          "midi": 57,
          "time": 131.5999999999999,
          "velocity": 0.8661417322834646,
          "duration": 0.19583333333332575
        },
        {
          "name": "D4",
          "midi": 62,
          "time": 131.5999999999999,
          "velocity": 0.8661417322834646,
          "duration": 0.19583333333332575
        },
        {
          "name": "F#4",
          "midi": 66,
          "time": 131.5999999999999,
          "velocity": 0.8661417322834646,
          "duration": 0.19583333333332575
        },
        {
          "name": "A2",
          "midi": 45,
          "time": 131.5999999999999,
          "velocity": 0.8661417322834646,
          "duration": 0.29583333333332007
        },
        {
          "name": "C#2",
          "midi": 37,
          "time": 131.5999999999999,
          "velocity": 0.3543307086614173,
          "duration": 0.19583333333332575
        },
        {
          "name": "E2",
          "midi": 40,
          "time": 131.5999999999999,
          "velocity": 0.3543307086614173,
          "duration": 0.19583333333332575
        },
        {
          "name": "C#5",
          "midi": 73,
          "time": 131.7999999999999,
          "velocity": 0.8661417322834646,
          "duration": 0.19583333333332575
        },
        {
          "name": "A3",
          "midi": 57,
          "time": 131.7999999999999,
          "velocity": 0.8661417322834646,
          "duration": 0.19583333333332575
        },
        {
          "name": "D4",
          "midi": 62,
          "time": 131.7999999999999,
          "velocity": 0.8661417322834646,
          "duration": 0.19583333333332575
        },
        {
          "name": "F#4",
          "midi": 66,
          "time": 131.7999999999999,
          "velocity": 0.8661417322834646,
          "duration": 0.19583333333332575
        },
        {
          "name": "C#2",
          "midi": 37,
          "time": 131.7999999999999,
          "velocity": 0.3543307086614173,
          "duration": 0.19583333333332575
        },
        {
          "name": "E2",
          "midi": 40,
          "time": 131.7999999999999,
          "velocity": 0.3543307086614173,
          "duration": 0.19583333333332575
        },
        {
          "name": "A2",
          "midi": 45,
          "time": 131.7999999999999,
          "velocity": 0.8661417322834646,
          "duration": 0.13333333333332575
        },
        {
          "name": "A2",
          "midi": 45,
          "time": 131.8999999999999,
          "velocity": 0.8661417322834646,
          "duration": 0.09583333333333144
        },
        {
          "name": "D5",
          "midi": 74,
          "time": 131.9999999999999,
          "velocity": 0.8661417322834646,
          "duration": 0.3333333333333144
        },
        {
          "name": "F#5",
          "midi": 78,
          "time": 131.9999999999999,
          "velocity": 0.8661417322834646,
          "duration": 0.3333333333333144
        },
        {
          "name": "A3",
          "midi": 57,
          "time": 131.9999999999999,
          "velocity": 0.8661417322834646,
          "duration": 0.19583333333332575
        },
        {
          "name": "D4",
          "midi": 62,
          "time": 131.9999999999999,
          "velocity": 0.8661417322834646,
          "duration": 0.19583333333332575
        },
        {
          "name": "F#4",
          "midi": 66,
          "time": 131.9999999999999,
          "velocity": 0.8661417322834646,
          "duration": 0.19583333333332575
        },
        {
          "name": "D3",
          "midi": 50,
          "time": 131.9999999999999,
          "velocity": 0.8661417322834646,
          "duration": 0.3333333333333144
        },
        {
          "name": "C#2",
          "midi": 37,
          "time": 131.9999999999999,
          "velocity": 0.3543307086614173,
          "duration": 0.19583333333332575
        },
        {
          "name": "E2",
          "midi": 40,
          "time": 131.9999999999999,
          "velocity": 0.3543307086614173,
          "duration": 0.19583333333332575
        },
        {
          "name": "D3",
          "midi": 50,
          "time": 131.9999999999999,
          "velocity": 0.8661417322834646,
          "duration": 0.3333333333333144
        },
        {
          "name": "A3",
          "midi": 57,
          "time": 132.19999999999987,
          "velocity": 0.8661417322834646,
          "duration": 0.09583333333333144
        },
        {
          "name": "D4",
          "midi": 62,
          "time": 132.19999999999987,
          "velocity": 0.8661417322834646,
          "duration": 0.09583333333333144
        },
        {
          "name": "F#4",
          "midi": 66,
          "time": 132.19999999999987,
          "velocity": 0.8661417322834646,
          "duration": 0.09583333333333144
        },
        {
          "name": "C#2",
          "midi": 37,
          "time": 132.19999999999987,
          "velocity": 0.3543307086614173,
          "duration": 0.09583333333333144
        },
        {
          "name": "E2",
          "midi": 40,
          "time": 132.19999999999987,
          "velocity": 0.3543307086614173,
          "duration": 0.09583333333333144
        },
        {
          "name": "A3",
          "midi": 57,
          "time": 132.29999999999987,
          "velocity": 0.8661417322834646,
          "duration": 0.09583333333333144
        },
        {
          "name": "D4",
          "midi": 62,
          "time": 132.29999999999987,
          "velocity": 0.8661417322834646,
          "duration": 0.09583333333333144
        },
        {
          "name": "F#4",
          "midi": 66,
          "time": 132.29999999999987,
          "velocity": 0.8661417322834646,
          "duration": 0.09583333333333144
        },
        {
          "name": "C#2",
          "midi": 37,
          "time": 132.29999999999987,
          "velocity": 0.3543307086614173,
          "duration": 0.09583333333333144
        },
        {
          "name": "E2",
          "midi": 40,
          "time": 132.29999999999987,
          "velocity": 0.3543307086614173,
          "duration": 0.09583333333333144
        },
        {
          "name": "A4",
          "midi": 69,
          "time": 132.39999999999986,
          "velocity": 0.8661417322834646,
          "duration": 0.6999999999999602
        },
        {
          "name": "G5",
          "midi": 79,
          "time": 132.39999999999986,
          "velocity": 0.8661417322834646,
          "duration": 0.3333333333333144
        },
        {
          "name": "A3",
          "midi": 57,
          "time": 132.39999999999986,
          "velocity": 0.8661417322834646,
          "duration": 0.19583333333332575
        },
        {
          "name": "D4",
          "midi": 62,
          "time": 132.39999999999986,
          "velocity": 0.8661417322834646,
          "duration": 0.19583333333332575
        },
        {
          "name": "F#4",
          "midi": 66,
          "time": 132.39999999999986,
          "velocity": 0.8661417322834646,
          "duration": 0.19583333333332575
        },
        {
          "name": "C#2",
          "midi": 37,
          "time": 132.39999999999986,
          "velocity": 0.3543307086614173,
          "duration": 0.19583333333332575
        },
        {
          "name": "E2",
          "midi": 40,
          "time": 132.39999999999986,
          "velocity": 0.3543307086614173,
          "duration": 0.19583333333332575
        },
        {
          "name": "A3",
          "midi": 57,
          "time": 132.59999999999985,
          "velocity": 0.8661417322834646,
          "duration": 0.19583333333332575
        },
        {
          "name": "D4",
          "midi": 62,
          "time": 132.59999999999985,
          "velocity": 0.8661417322834646,
          "duration": 0.19583333333332575
        },
        {
          "name": "F#4",
          "midi": 66,
          "time": 132.59999999999985,
          "velocity": 0.8661417322834646,
          "duration": 0.19583333333332575
        },
        {
          "name": "C#2",
          "midi": 37,
          "time": 132.59999999999985,
          "velocity": 0.3543307086614173,
          "duration": 0.19583333333332575
        },
        {
          "name": "E2",
          "midi": 40,
          "time": 132.59999999999985,
          "velocity": 0.3543307086614173,
          "duration": 0.19583333333332575
        },
        {
          "name": "C#5",
          "midi": 73,
          "time": 132.79999999999984,
          "velocity": 0.8661417322834646,
          "duration": 0.3333333333333144
        },
        {
          "name": "E5",
          "midi": 76,
          "time": 132.79999999999984,
          "velocity": 0.8661417322834646,
          "duration": 0.3333333333333144
        },
        {
          "name": "A3",
          "midi": 57,
          "time": 132.79999999999984,
          "velocity": 0.8661417322834646,
          "duration": 0.19583333333332575
        },
        {
          "name": "C#4",
          "midi": 61,
          "time": 132.79999999999984,
          "velocity": 0.8661417322834646,
          "duration": 0.19583333333332575
        },
        {
          "name": "E4",
          "midi": 64,
          "time": 132.79999999999984,
          "velocity": 0.8661417322834646,
          "duration": 0.19583333333332575
        },
        {
          "name": "G4",
          "midi": 67,
          "time": 132.79999999999984,
          "velocity": 0.8661417322834646,
          "duration": 0.19583333333332575
        },
        {
          "name": "A2",
          "midi": 45,
          "time": 132.79999999999984,
          "velocity": 0.8661417322834646,
          "duration": 0.29583333333332007
        },
        {
          "name": "C#2",
          "midi": 37,
          "time": 132.79999999999984,
          "velocity": 0.3543307086614173,
          "duration": 0.19583333333332575
        },
        {
          "name": "E2",
          "midi": 40,
          "time": 132.79999999999984,
          "velocity": 0.3543307086614173,
          "duration": 0.19583333333332575
        },
        {
          "name": "A3",
          "midi": 57,
          "time": 132.99999999999983,
          "velocity": 0.8661417322834646,
          "duration": 0.19583333333332575
        },
        {
          "name": "C#4",
          "midi": 61,
          "time": 132.99999999999983,
          "velocity": 0.8661417322834646,
          "duration": 0.19583333333332575
        },
        {
          "name": "E4",
          "midi": 64,
          "time": 132.99999999999983,
          "velocity": 0.8661417322834646,
          "duration": 0.19583333333332575
        },
        {
          "name": "G4",
          "midi": 67,
          "time": 132.99999999999983,
          "velocity": 0.8661417322834646,
          "duration": 0.19583333333332575
        },
        {
          "name": "C#2",
          "midi": 37,
          "time": 132.99999999999983,
          "velocity": 0.3543307086614173,
          "duration": 0.19583333333332575
        },
        {
          "name": "E2",
          "midi": 40,
          "time": 132.99999999999983,
          "velocity": 0.3543307086614173,
          "duration": 0.19583333333332575
        },
        {
          "name": "A2",
          "midi": 45,
          "time": 132.99999999999983,
          "velocity": 0.8661417322834646,
          "duration": 0.13333333333332575
        },
        {
          "name": "A2",
          "midi": 45,
          "time": 133.09999999999982,
          "velocity": 0.8661417322834646,
          "duration": 0.09583333333333144
        },
        {
          "name": "D5",
          "midi": 74,
          "time": 133.19999999999982,
          "velocity": 0.8661417322834646,
          "duration": 0.5333333333333314
        },
        {
          "name": "F#5",
          "midi": 78,
          "time": 133.19999999999982,
          "velocity": 0.8661417322834646,
          "duration": 1.099999999999966
        },
        {
          "name": "A3",
          "midi": 57,
          "time": 133.19999999999982,
          "velocity": 0.8661417322834646,
          "duration": 0.19583333333332575
        },
        {
          "name": "D4",
          "midi": 62,
          "time": 133.19999999999982,
          "velocity": 0.8661417322834646,
          "duration": 0.19583333333332575
        },
        {
          "name": "F#4",
          "midi": 66,
          "time": 133.19999999999982,
          "velocity": 0.8661417322834646,
          "duration": 0.19583333333332575
        },
        {
          "name": "D3",
          "midi": 50,
          "time": 133.19999999999982,
          "velocity": 0.8661417322834646,
          "duration": 0.3333333333333144
        },
        {
          "name": "C#2",
          "midi": 37,
          "time": 133.19999999999982,
          "velocity": 0.3543307086614173,
          "duration": 0.19583333333332575
        },
        {
          "name": "E2",
          "midi": 40,
          "time": 133.19999999999982,
          "velocity": 0.3543307086614173,
          "duration": 0.19583333333332575
        },
        {
          "name": "D2",
          "midi": 38,
          "time": 133.19999999999982,
          "velocity": 0.8661417322834646,
          "duration": 0.3333333333333144
        },
        {
          "name": "A3",
          "midi": 57,
          "time": 133.3999999999998,
          "velocity": 0.8661417322834646,
          "duration": 0.09583333333333144
        },
        {
          "name": "D4",
          "midi": 62,
          "time": 133.3999999999998,
          "velocity": 0.8661417322834646,
          "duration": 0.09583333333333144
        },
        {
          "name": "F#4",
          "midi": 66,
          "time": 133.3999999999998,
          "velocity": 0.8661417322834646,
          "duration": 0.09583333333333144
        },
        {
          "name": "C#2",
          "midi": 37,
          "time": 133.3999999999998,
          "velocity": 0.3543307086614173,
          "duration": 0.09583333333333144
        },
        {
          "name": "E2",
          "midi": 40,
          "time": 133.3999999999998,
          "velocity": 0.3543307086614173,
          "duration": 0.09583333333333144
        },
        {
          "name": "A3",
          "midi": 57,
          "time": 133.4999999999998,
          "velocity": 0.8661417322834646,
          "duration": 0.09583333333333144
        },
        {
          "name": "D4",
          "midi": 62,
          "time": 133.4999999999998,
          "velocity": 0.8661417322834646,
          "duration": 0.09583333333333144
        },
        {
          "name": "F#4",
          "midi": 66,
          "time": 133.4999999999998,
          "velocity": 0.8661417322834646,
          "duration": 0.09583333333333144
        },
        {
          "name": "C#2",
          "midi": 37,
          "time": 133.4999999999998,
          "velocity": 0.3543307086614173,
          "duration": 0.09583333333333144
        },
        {
          "name": "E2",
          "midi": 40,
          "time": 133.4999999999998,
          "velocity": 0.3543307086614173,
          "duration": 0.09583333333333144
        },
        {
          "name": "A3",
          "midi": 57,
          "time": 133.5999999999998,
          "velocity": 0.8661417322834646,
          "duration": 0.19583333333335418
        },
        {
          "name": "D4",
          "midi": 62,
          "time": 133.5999999999998,
          "velocity": 0.8661417322834646,
          "duration": 0.19583333333335418
        },
        {
          "name": "F#4",
          "midi": 66,
          "time": 133.5999999999998,
          "velocity": 0.8661417322834646,
          "duration": 0.19583333333335418
        },
        {
          "name": "A4",
          "midi": 69,
          "time": 133.5999999999998,
          "velocity": 0.8661417322834646,
          "duration": 0.05000000000001137
        },
        {
          "name": "C#2",
          "midi": 37,
          "time": 133.5999999999998,
          "velocity": 0.3543307086614173,
          "duration": 0.19583333333335418
        },
        {
          "name": "E2",
          "midi": 40,
          "time": 133.5999999999998,
          "velocity": 0.3543307086614173,
          "duration": 0.19583333333335418
        },
        {
          "name": "B4",
          "midi": 71,
          "time": 133.6499999999998,
          "velocity": 0.8661417322834646,
          "duration": 0.05000000000001137
        },
        {
          "name": "A4",
          "midi": 69,
          "time": 133.69999999999982,
          "velocity": 0.8661417322834646,
          "duration": 1.4333333333332519
        },
        {
          "name": "D5",
          "midi": 74,
          "time": 133.7999999999998,
          "velocity": 0.8661417322834646,
          "duration": 0.3958333333333144
        },
        {
          "name": "A3",
          "midi": 57,
          "time": 133.7999999999998,
          "velocity": 0.8661417322834646,
          "duration": 0.19583333333332575
        },
        {
          "name": "D4",
          "midi": 62,
          "time": 133.7999999999998,
          "velocity": 0.8661417322834646,
          "duration": 0.19583333333332575
        },
        {
          "name": "F#4",
          "midi": 66,
          "time": 133.7999999999998,
          "velocity": 0.8661417322834646,
          "duration": 0.19583333333332575
        },
        {
          "name": "C#2",
          "midi": 37,
          "time": 133.7999999999998,
          "velocity": 0.3543307086614173,
          "duration": 0.19583333333332575
        },
        {
          "name": "E2",
          "midi": 40,
          "time": 133.7999999999998,
          "velocity": 0.3543307086614173,
          "duration": 0.19583333333332575
        },
        {
          "name": "A3",
          "midi": 57,
          "time": 133.9999999999998,
          "velocity": 0.8661417322834646,
          "duration": 0.19583333333332575
        },
        {
          "name": "D4",
          "midi": 62,
          "time": 133.9999999999998,
          "velocity": 0.8661417322834646,
          "duration": 0.19583333333332575
        },
        {
          "name": "F#4",
          "midi": 66,
          "time": 133.9999999999998,
          "velocity": 0.8661417322834646,
          "duration": 0.19583333333332575
        },
        {
          "name": "A2",
          "midi": 45,
          "time": 133.9999999999998,
          "velocity": 0.8661417322834646,
          "duration": 0.29583333333332007
        },
        {
          "name": "C#2",
          "midi": 37,
          "time": 133.9999999999998,
          "velocity": 0.3543307086614173,
          "duration": 0.19583333333332575
        },
        {
          "name": "E2",
          "midi": 40,
          "time": 133.9999999999998,
          "velocity": 0.3543307086614173,
          "duration": 0.19583333333332575
        },
        {
          "name": "C#5",
          "midi": 73,
          "time": 134.1999999999998,
          "velocity": 0.8661417322834646,
          "duration": 0.19583333333332575
        },
        {
          "name": "A3",
          "midi": 57,
          "time": 134.1999999999998,
          "velocity": 0.8661417322834646,
          "duration": 0.19583333333332575
        },
        {
          "name": "D4",
          "midi": 62,
          "time": 134.1999999999998,
          "velocity": 0.8661417322834646,
          "duration": 0.19583333333332575
        },
        {
          "name": "F#4",
          "midi": 66,
          "time": 134.1999999999998,
          "velocity": 0.8661417322834646,
          "duration": 0.19583333333332575
        },
        {
          "name": "C#2",
          "midi": 37,
          "time": 134.1999999999998,
          "velocity": 0.3543307086614173,
          "duration": 0.19583333333332575
        },
        {
          "name": "E2",
          "midi": 40,
          "time": 134.1999999999998,
          "velocity": 0.3543307086614173,
          "duration": 0.19583333333332575
        },
        {
          "name": "A2",
          "midi": 45,
          "time": 134.1999999999998,
          "velocity": 0.8661417322834646,
          "duration": 0.13333333333332575
        },
        {
          "name": "A2",
          "midi": 45,
          "time": 134.29999999999978,
          "velocity": 0.8661417322834646,
          "duration": 0.09583333333333144
        },
        {
          "name": "D5",
          "midi": 74,
          "time": 134.39999999999978,
          "velocity": 0.8661417322834646,
          "duration": 0.3333333333333144
        },
        {
          "name": "F#5",
          "midi": 78,
          "time": 134.39999999999978,
          "velocity": 0.8661417322834646,
          "duration": 0.3333333333333144
        },
        {
          "name": "A3",
          "midi": 57,
          "time": 134.39999999999978,
          "velocity": 0.8661417322834646,
          "duration": 0.19583333333332575
        },
        {
          "name": "D4",
          "midi": 62,
          "time": 134.39999999999978,
          "velocity": 0.8661417322834646,
          "duration": 0.19583333333332575
        },
        {
          "name": "F#4",
          "midi": 66,
          "time": 134.39999999999978,
          "velocity": 0.8661417322834646,
          "duration": 0.19583333333332575
        },
        {
          "name": "D3",
          "midi": 50,
          "time": 134.39999999999978,
          "velocity": 0.8661417322834646,
          "duration": 0.3333333333333144
        },
        {
          "name": "C#2",
          "midi": 37,
          "time": 134.39999999999978,
          "velocity": 0.3543307086614173,
          "duration": 0.19583333333332575
        },
        {
          "name": "E2",
          "midi": 40,
          "time": 134.39999999999978,
          "velocity": 0.3543307086614173,
          "duration": 0.19583333333332575
        },
        {
          "name": "D2",
          "midi": 38,
          "time": 134.39999999999978,
          "velocity": 0.8661417322834646,
          "duration": 0.3333333333333144
        },
        {
          "name": "D3",
          "midi": 50,
          "time": 134.39999999999978,
          "velocity": 0.8661417322834646,
          "duration": 0.3333333333333144
        },
        {
          "name": "A3",
          "midi": 57,
          "time": 134.59999999999977,
          "velocity": 0.8661417322834646,
          "duration": 0.09583333333333144
        },
        {
          "name": "D4",
          "midi": 62,
          "time": 134.59999999999977,
          "velocity": 0.8661417322834646,
          "duration": 0.09583333333333144
        },
        {
          "name": "F#4",
          "midi": 66,
          "time": 134.59999999999977,
          "velocity": 0.8661417322834646,
          "duration": 0.09583333333333144
        },
        {
          "name": "C#2",
          "midi": 37,
          "time": 134.59999999999977,
          "velocity": 0.3543307086614173,
          "duration": 0.09583333333333144
        },
        {
          "name": "E2",
          "midi": 40,
          "time": 134.59999999999977,
          "velocity": 0.3543307086614173,
          "duration": 0.09583333333333144
        },
        {
          "name": "A3",
          "midi": 57,
          "time": 134.69999999999976,
          "velocity": 0.8661417322834646,
          "duration": 0.09583333333333144
        },
        {
          "name": "D4",
          "midi": 62,
          "time": 134.69999999999976,
          "velocity": 0.8661417322834646,
          "duration": 0.09583333333333144
        },
        {
          "name": "F#4",
          "midi": 66,
          "time": 134.69999999999976,
          "velocity": 0.8661417322834646,
          "duration": 0.09583333333333144
        },
        {
          "name": "C#2",
          "midi": 37,
          "time": 134.69999999999976,
          "velocity": 0.3543307086614173,
          "duration": 0.09583333333333144
        },
        {
          "name": "E2",
          "midi": 40,
          "time": 134.69999999999976,
          "velocity": 0.3543307086614173,
          "duration": 0.09583333333333144
        },
        {
          "name": "A4",
          "midi": 69,
          "time": 134.79999999999976,
          "velocity": 0.8661417322834646,
          "duration": 0.6999999999999602
        },
        {
          "name": "G5",
          "midi": 79,
          "time": 134.79999999999976,
          "velocity": 0.8661417322834646,
          "duration": 0.3333333333333144
        },
        {
          "name": "A3",
          "midi": 57,
          "time": 134.79999999999976,
          "velocity": 0.8661417322834646,
          "duration": 0.19583333333332575
        },
        {
          "name": "D4",
          "midi": 62,
          "time": 134.79999999999976,
          "velocity": 0.8661417322834646,
          "duration": 0.19583333333332575
        },
        {
          "name": "F#4",
          "midi": 66,
          "time": 134.79999999999976,
          "velocity": 0.8661417322834646,
          "duration": 0.19583333333332575
        },
        {
          "name": "C#2",
          "midi": 37,
          "time": 134.79999999999976,
          "velocity": 0.3543307086614173,
          "duration": 0.19583333333332575
        },
        {
          "name": "E2",
          "midi": 40,
          "time": 134.79999999999976,
          "velocity": 0.3543307086614173,
          "duration": 0.19583333333332575
        },
        {
          "name": "A3",
          "midi": 57,
          "time": 134.99999999999974,
          "velocity": 0.8661417322834646,
          "duration": 0.19583333333332575
        },
        {
          "name": "D4",
          "midi": 62,
          "time": 134.99999999999974,
          "velocity": 0.8661417322834646,
          "duration": 0.19583333333332575
        },
        {
          "name": "F#4",
          "midi": 66,
          "time": 134.99999999999974,
          "velocity": 0.8661417322834646,
          "duration": 0.19583333333332575
        },
        {
          "name": "C#2",
          "midi": 37,
          "time": 134.99999999999974,
          "velocity": 0.3543307086614173,
          "duration": 0.19583333333332575
        },
        {
          "name": "E2",
          "midi": 40,
          "time": 134.99999999999974,
          "velocity": 0.3543307086614173,
          "duration": 0.19583333333332575
        },
        {
          "name": "C#5",
          "midi": 73,
          "time": 135.19999999999973,
          "velocity": 0.8661417322834646,
          "duration": 0.3333333333333144
        },
        {
          "name": "E5",
          "midi": 76,
          "time": 135.19999999999973,
          "velocity": 0.8661417322834646,
          "duration": 0.3333333333333144
        },
        {
          "name": "A3",
          "midi": 57,
          "time": 135.19999999999973,
          "velocity": 0.8661417322834646,
          "duration": 0.19583333333332575
        },
        {
          "name": "C#4",
          "midi": 61,
          "time": 135.19999999999973,
          "velocity": 0.8661417322834646,
          "duration": 0.19583333333332575
        },
        {
          "name": "E4",
          "midi": 64,
          "time": 135.19999999999973,
          "velocity": 0.8661417322834646,
          "duration": 0.19583333333332575
        },
        {
          "name": "G4",
          "midi": 67,
          "time": 135.19999999999973,
          "velocity": 0.8661417322834646,
          "duration": 0.19583333333332575
        },
        {
          "name": "A2",
          "midi": 45,
          "time": 135.19999999999973,
          "velocity": 0.8661417322834646,
          "duration": 0.3333333333333144
        },
        {
          "name": "E2",
          "midi": 40,
          "time": 135.19999999999973,
          "velocity": 0.3543307086614173,
          "duration": 0.19583333333332575
        },
        {
          "name": "C#2",
          "midi": 37,
          "time": 135.19999999999973,
          "velocity": 0.3543307086614173,
          "duration": 0.19583333333332575
        },
        {
          "name": "A3",
          "midi": 57,
          "time": 135.39999999999972,
          "velocity": 0.8661417322834646,
          "duration": 0.19583333333332575
        },
        {
          "name": "C#4",
          "midi": 61,
          "time": 135.39999999999972,
          "velocity": 0.8661417322834646,
          "duration": 0.19583333333332575
        },
        {
          "name": "E4",
          "midi": 64,
          "time": 135.39999999999972,
          "velocity": 0.8661417322834646,
          "duration": 0.19583333333332575
        },
        {
          "name": "G4",
          "midi": 67,
          "time": 135.39999999999972,
          "velocity": 0.8661417322834646,
          "duration": 0.19583333333332575
        },
        {
          "name": "C#2",
          "midi": 37,
          "time": 135.39999999999972,
          "velocity": 0.3543307086614173,
          "duration": 0.19583333333332575
        },
        {
          "name": "E2",
          "midi": 40,
          "time": 135.39999999999972,
          "velocity": 0.3543307086614173,
          "duration": 0.19583333333332575
        },
        {
          "name": "D5",
          "midi": 74,
          "time": 135.5999999999997,
          "velocity": 0.8661417322834646,
          "duration": 0.533333333333303
        },
        {
          "name": "B4",
          "midi": 71,
          "time": 135.5999999999997,
          "velocity": 0.8661417322834646,
          "duration": 0.3333333333333144
        },
        {
          "name": "B3",
          "midi": 59,
          "time": 135.5999999999997,
          "velocity": 0.8661417322834646,
          "duration": 0.19583333333332575
        },
        {
          "name": "D4",
          "midi": 62,
          "time": 135.5999999999997,
          "velocity": 0.8661417322834646,
          "duration": 0.19583333333332575
        },
        {
          "name": "F#4",
          "midi": 66,
          "time": 135.5999999999997,
          "velocity": 0.8661417322834646,
          "duration": 0.19583333333332575
        },
        {
          "name": "B1",
          "midi": 35,
          "time": 135.5999999999997,
          "velocity": 0.8661417322834646,
          "duration": 0.3333333333333144
        },
        {
          "name": "C#2",
          "midi": 37,
          "time": 135.5999999999997,
          "velocity": 0.3543307086614173,
          "duration": 0.19583333333332575
        },
        {
          "name": "E2",
          "midi": 40,
          "time": 135.5999999999997,
          "velocity": 0.3543307086614173,
          "duration": 0.19583333333332575
        },
        {
          "name": "B2",
          "midi": 47,
          "time": 135.5999999999997,
          "velocity": 0.8661417322834646,
          "duration": 0.3333333333333144
        },
        {
          "name": "B3",
          "midi": 59,
          "time": 135.7999999999997,
          "velocity": 0.8661417322834646,
          "duration": 0.09583333333333144
        },
        {
          "name": "D4",
          "midi": 62,
          "time": 135.7999999999997,
          "velocity": 0.8661417322834646,
          "duration": 0.09583333333333144
        },
        {
          "name": "F#4",
          "midi": 66,
          "time": 135.7999999999997,
          "velocity": 0.8661417322834646,
          "duration": 0.09583333333333144
        },
        {
          "name": "C#2",
          "midi": 37,
          "time": 135.7999999999997,
          "velocity": 0.3543307086614173,
          "duration": 0.09583333333333144
        },
        {
          "name": "E2",
          "midi": 40,
          "time": 135.7999999999997,
          "velocity": 0.3543307086614173,
          "duration": 0.09583333333333144
        },
        {
          "name": "B3",
          "midi": 59,
          "time": 135.8999999999997,
          "velocity": 0.8661417322834646,
          "duration": 0.09583333333333144
        },
        {
          "name": "D4",
          "midi": 62,
          "time": 135.8999999999997,
          "velocity": 0.8661417322834646,
          "duration": 0.09583333333333144
        },
        {
          "name": "F#4",
          "midi": 66,
          "time": 135.8999999999997,
          "velocity": 0.8661417322834646,
          "duration": 0.09583333333333144
        },
        {
          "name": "C#2",
          "midi": 37,
          "time": 135.8999999999997,
          "velocity": 0.3543307086614173,
          "duration": 0.09583333333333144
        },
        {
          "name": "E2",
          "midi": 40,
          "time": 135.8999999999997,
          "velocity": 0.3543307086614173,
          "duration": 0.09583333333333144
        },
        {
          "name": "D5",
          "midi": 74,
          "time": 135.9999999999997,
          "velocity": 0.8661417322834646,
          "duration": 0.3958333333333144
        },
        {
          "name": "B3",
          "midi": 59,
          "time": 135.9999999999997,
          "velocity": 0.8661417322834646,
          "duration": 0.19583333333332575
        },
        {
          "name": "D4",
          "midi": 62,
          "time": 135.9999999999997,
          "velocity": 0.8661417322834646,
          "duration": 0.19583333333332575
        },
        {
          "name": "F#4",
          "midi": 66,
          "time": 135.9999999999997,
          "velocity": 0.8661417322834646,
          "duration": 0.19583333333332575
        },
        {
          "name": "B4",
          "midi": 71,
          "time": 135.9999999999997,
          "velocity": 0.8661417322834646,
          "duration": 0.795833333333178
        },
        {
          "name": "C#2",
          "midi": 37,
          "time": 135.9999999999997,
          "velocity": 0.3543307086614173,
          "duration": 0.19583333333332575
        },
        {
          "name": "E2",
          "midi": 40,
          "time": 135.9999999999997,
          "velocity": 0.3543307086614173,
          "duration": 0.19583333333332575
        },
        {
          "name": "C#5",
          "midi": 73,
          "time": 136.19999999999968,
          "velocity": 0.8661417322834646,
          "duration": 0.39583333333325754
        },
        {
          "name": "B3",
          "midi": 59,
          "time": 136.19999999999968,
          "velocity": 0.8661417322834646,
          "duration": 0.19583333333332575
        },
        {
          "name": "D4",
          "midi": 62,
          "time": 136.19999999999968,
          "velocity": 0.8661417322834646,
          "duration": 0.19583333333332575
        },
        {
          "name": "F#4",
          "midi": 66,
          "time": 136.19999999999968,
          "velocity": 0.8661417322834646,
          "duration": 0.19583333333332575
        },
        {
          "name": "C#2",
          "midi": 37,
          "time": 136.19999999999968,
          "velocity": 0.3543307086614173,
          "duration": 0.19583333333332575
        },
        {
          "name": "E2",
          "midi": 40,
          "time": 136.19999999999968,
          "velocity": 0.3543307086614173,
          "duration": 0.19583333333332575
        },
        {
          "name": "E5",
          "midi": 76,
          "time": 136.39999999999966,
          "velocity": 0.8661417322834646,
          "duration": 0.3333333333332291
        },
        {
          "name": "B3",
          "midi": 59,
          "time": 136.39999999999966,
          "velocity": 0.8661417322834646,
          "duration": 0.1958333333332689
        },
        {
          "name": "D4",
          "midi": 62,
          "time": 136.39999999999966,
          "velocity": 0.8661417322834646,
          "duration": 0.1958333333332689
        },
        {
          "name": "F#4",
          "midi": 66,
          "time": 136.39999999999966,
          "velocity": 0.8661417322834646,
          "duration": 0.1958333333332689
        },
        {
          "name": "B2",
          "midi": 47,
          "time": 136.39999999999966,
          "velocity": 0.8661417322834646,
          "duration": 0.04583333333332007
        },
        {
          "name": "C#2",
          "midi": 37,
          "time": 136.39999999999966,
          "velocity": 0.3543307086614173,
          "duration": 0.1958333333332689
        },
        {
          "name": "E2",
          "midi": 40,
          "time": 136.39999999999966,
          "velocity": 0.3543307086614173,
          "duration": 0.1958333333332689
        },
        {
          "name": "B2",
          "midi": 47,
          "time": 136.39999999999966,
          "velocity": 0.8661417322834646,
          "duration": 0.09583333333330302
        },
        {
          "name": "B2",
          "midi": 47,
          "time": 136.44999999999965,
          "velocity": 0.8661417322834646,
          "duration": 0.09583333333330302
        },
        {
          "name": "B2",
          "midi": 47,
          "time": 136.49999999999963,
          "velocity": 0.8661417322834646,
          "duration": 0.09583333333330302
        },
        {
          "name": "B2",
          "midi": 47,
          "time": 136.5499999999996,
          "velocity": 0.8661417322834646,
          "duration": 0.09583333333330302
        },
        {
          "name": "B4",
          "midi": 71,
          "time": 136.5999999999996,
          "velocity": 0.8661417322834646,
          "duration": 0.1999999999999318
        },
        {
          "name": "B3",
          "midi": 59,
          "time": 136.5999999999996,
          "velocity": 0.8661417322834646,
          "duration": 0.1958333333332689
        },
        {
          "name": "D4",
          "midi": 62,
          "time": 136.5999999999996,
          "velocity": 0.8661417322834646,
          "duration": 0.1958333333332689
        },
        {
          "name": "F#4",
          "midi": 66,
          "time": 136.5999999999996,
          "velocity": 0.8661417322834646,
          "duration": 0.1958333333332689
        },
        {
          "name": "C#2",
          "midi": 37,
          "time": 136.5999999999996,
          "velocity": 0.3543307086614173,
          "duration": 0.1958333333332689
        },
        {
          "name": "E2",
          "midi": 40,
          "time": 136.5999999999996,
          "velocity": 0.3543307086614173,
          "duration": 0.1958333333332689
        },
        {
          "name": "B2",
          "midi": 47,
          "time": 136.5999999999996,
          "velocity": 0.8661417322834646,
          "duration": 0.09583333333330302
        },
        {
          "name": "B2",
          "midi": 47,
          "time": 136.64999999999958,
          "velocity": 0.8661417322834646,
          "duration": 0.08333333333331439
        },
        {
          "name": "B2",
          "midi": 47,
          "time": 136.69999999999956,
          "velocity": 0.8661417322834646,
          "duration": 0.04583333333332007
        },
        {
          "name": "B2",
          "midi": 47,
          "time": 136.74999999999955,
          "velocity": 0.8661417322834646,
          "duration": 0.04583333333332007
        },
        {
          "name": "A4",
          "midi": 69,
          "time": 136.79999999999953,
          "velocity": 0.8661417322834646,
          "duration": 0.3333333333333144
        },
        {
          "name": "F#5",
          "midi": 78,
          "time": 136.79999999999953,
          "velocity": 0.8661417322834646,
          "duration": 0.6999999999999602
        },
        {
          "name": "A3",
          "midi": 57,
          "time": 136.79999999999953,
          "velocity": 0.8661417322834646,
          "duration": 0.19583333333332575
        },
        {
          "name": "C#4",
          "midi": 61,
          "time": 136.79999999999953,
          "velocity": 0.8661417322834646,
          "duration": 0.19583333333332575
        },
        {
          "name": "F#4",
          "midi": 66,
          "time": 136.79999999999953,
          "velocity": 0.8661417322834646,
          "duration": 0.19583333333332575
        },
        {
          "name": "F#2",
          "midi": 42,
          "time": 136.79999999999953,
          "velocity": 0.8661417322834646,
          "duration": 0.3333333333333144
        },
        {
          "name": "C#5",
          "midi": 73,
          "time": 136.79999999999953,
          "velocity": 0.8661417322834646,
          "duration": 0.7999999999999545
        },
        {
          "name": "C#2",
          "midi": 37,
          "time": 136.79999999999953,
          "velocity": 0.3543307086614173,
          "duration": 0.19583333333332575
        },
        {
          "name": "E2",
          "midi": 40,
          "time": 136.79999999999953,
          "velocity": 0.3543307086614173,
          "duration": 0.19583333333332575
        },
        {
          "name": "F#2",
          "midi": 42,
          "time": 136.79999999999953,
          "velocity": 0.8661417322834646,
          "duration": 0.3333333333333144
        },
        {
          "name": "A3",
          "midi": 57,
          "time": 136.99999999999952,
          "velocity": 0.8661417322834646,
          "duration": 0.09583333333333144
        },
        {
          "name": "C#4",
          "midi": 61,
          "time": 136.99999999999952,
          "velocity": 0.8661417322834646,
          "duration": 0.09583333333333144
        },
        {
          "name": "F#4",
          "midi": 66,
          "time": 136.99999999999952,
          "velocity": 0.8661417322834646,
          "duration": 0.09583333333333144
        },
        {
          "name": "C#2",
          "midi": 37,
          "time": 136.99999999999952,
          "velocity": 0.3543307086614173,
          "duration": 0.09583333333333144
        },
        {
          "name": "E2",
          "midi": 40,
          "time": 136.99999999999952,
          "velocity": 0.3543307086614173,
          "duration": 0.09583333333333144
        },
        {
          "name": "A3",
          "midi": 57,
          "time": 137.0999999999995,
          "velocity": 0.8661417322834646,
          "duration": 0.09583333333333144
        },
        {
          "name": "C#4",
          "midi": 61,
          "time": 137.0999999999995,
          "velocity": 0.8661417322834646,
          "duration": 0.09583333333333144
        },
        {
          "name": "F#4",
          "midi": 66,
          "time": 137.0999999999995,
          "velocity": 0.8661417322834646,
          "duration": 0.09583333333333144
        },
        {
          "name": "C#2",
          "midi": 37,
          "time": 137.0999999999995,
          "velocity": 0.3543307086614173,
          "duration": 0.09583333333333144
        },
        {
          "name": "E2",
          "midi": 40,
          "time": 137.0999999999995,
          "velocity": 0.3543307086614173,
          "duration": 0.09583333333333144
        },
        {
          "name": "F#4",
          "midi": 66,
          "time": 137.1999999999995,
          "velocity": 0.8661417322834646,
          "duration": 0.19583333333332575
        },
        {
          "name": "A3",
          "midi": 57,
          "time": 137.1999999999995,
          "velocity": 0.8661417322834646,
          "duration": 0.19583333333332575
        },
        {
          "name": "C#4",
          "midi": 61,
          "time": 137.1999999999995,
          "velocity": 0.8661417322834646,
          "duration": 0.19583333333332575
        },
        {
          "name": "F#4",
          "midi": 66,
          "time": 137.1999999999995,
          "velocity": 0.8661417322834646,
          "duration": 0.3333333333333144
        },
        {
          "name": "C#2",
          "midi": 37,
          "time": 137.1999999999995,
          "velocity": 0.3543307086614173,
          "duration": 0.19583333333332575
        },
        {
          "name": "E2",
          "midi": 40,
          "time": 137.1999999999995,
          "velocity": 0.3543307086614173,
          "duration": 0.19583333333332575
        },
        {
          "name": "A3",
          "midi": 57,
          "time": 137.3999999999995,
          "velocity": 0.8661417322834646,
          "duration": 0.19583333333332575
        },
        {
          "name": "C#4",
          "midi": 61,
          "time": 137.3999999999995,
          "velocity": 0.8661417322834646,
          "duration": 0.19583333333332575
        },
        {
          "name": "F#4",
          "midi": 66,
          "time": 137.3999999999995,
          "velocity": 0.8661417322834646,
          "duration": 0.19583333333332575
        },
        {
          "name": "C#2",
          "midi": 37,
          "time": 137.3999999999995,
          "velocity": 0.3543307086614173,
          "duration": 0.19583333333332575
        },
        {
          "name": "E2",
          "midi": 40,
          "time": 137.3999999999995,
          "velocity": 0.3543307086614173,
          "duration": 0.19583333333332575
        },
        {
          "name": "G4",
          "midi": 67,
          "time": 137.59999999999948,
          "velocity": 0.8661417322834646,
          "duration": 0.3333333333333144
        },
        {
          "name": "G5",
          "midi": 79,
          "time": 137.59999999999948,
          "velocity": 0.8661417322834646,
          "duration": 0.3333333333333144
        },
        {
          "name": "A3",
          "midi": 57,
          "time": 137.59999999999948,
          "velocity": 0.8661417322834646,
          "duration": 0.19583333333332575
        },
        {
          "name": "C#4",
          "midi": 61,
          "time": 137.59999999999948,
          "velocity": 0.8661417322834646,
          "duration": 0.19583333333332575
        },
        {
          "name": "F#4",
          "midi": 66,
          "time": 137.59999999999948,
          "velocity": 0.8661417322834646,
          "duration": 0.19583333333332575
        },
        {
          "name": "E2",
          "midi": 40,
          "time": 137.59999999999948,
          "velocity": 0.8661417322834646,
          "duration": 0.19583333333332575
        },
        {
          "name": "B4",
          "midi": 71,
          "time": 137.59999999999948,
          "velocity": 0.8661417322834646,
          "duration": 0.39999999999997726
        },
        {
          "name": "C#2",
          "midi": 37,
          "time": 137.59999999999948,
          "velocity": 0.3543307086614173,
          "duration": 0.19583333333332575
        },
        {
          "name": "E2",
          "midi": 40,
          "time": 137.59999999999948,
          "velocity": 0.3543307086614173,
          "duration": 0.3333333333333144
        },
        {
          "name": "A3",
          "midi": 57,
          "time": 137.79999999999947,
          "velocity": 0.8661417322834646,
          "duration": 0.19583333333332575
        },
        {
          "name": "C#4",
          "midi": 61,
          "time": 137.79999999999947,
          "velocity": 0.8661417322834646,
          "duration": 0.19583333333332575
        },
        {
          "name": "F#4",
          "midi": 66,
          "time": 137.79999999999947,
          "velocity": 0.8661417322834646,
          "duration": 0.19583333333332575
        },
        {
          "name": "C#2",
          "midi": 37,
          "time": 137.79999999999947,
          "velocity": 0.3543307086614173,
          "duration": 0.19583333333332575
        },
        {
          "name": "E2",
          "midi": 40,
          "time": 137.79999999999947,
          "velocity": 0.3543307086614173,
          "duration": 0.19583333333332575
        },
        {
          "name": "A4",
          "midi": 69,
          "time": 137.99999999999946,
          "velocity": 0.8661417322834646,
          "duration": 1.5333333333332462
        },
        {
          "name": "E5",
          "midi": 76,
          "time": 137.99999999999946,
          "velocity": 0.8661417322834646,
          "duration": 0.6999999999999602
        },
        {
          "name": "A3",
          "midi": 57,
          "time": 137.99999999999946,
          "velocity": 0.8661417322834646,
          "duration": 0.19583333333332575
        },
        {
          "name": "C#4",
          "midi": 61,
          "time": 137.99999999999946,
          "velocity": 0.8661417322834646,
          "duration": 0.19583333333332575
        },
        {
          "name": "E4",
          "midi": 64,
          "time": 137.99999999999946,
          "velocity": 0.8661417322834646,
          "duration": 0.19583333333332575
        },
        {
          "name": "G4",
          "midi": 67,
          "time": 137.99999999999946,
          "velocity": 0.8661417322834646,
          "duration": 0.19583333333332575
        },
        {
          "name": "A2",
          "midi": 45,
          "time": 137.99999999999946,
          "velocity": 0.8661417322834646,
          "duration": 0.3333333333333144
        },
        {
          "name": "C#5",
          "midi": 73,
          "time": 137.99999999999946,
          "velocity": 0.8661417322834646,
          "duration": 1.133333333333269
        },
        {
          "name": "C#2",
          "midi": 37,
          "time": 137.99999999999946,
          "velocity": 0.3543307086614173,
          "duration": 0.19583333333332575
        },
        {
          "name": "E2",
          "midi": 40,
          "time": 137.99999999999946,
          "velocity": 0.3543307086614173,
          "duration": 0.19583333333332575
        },
        {
          "name": "A1",
          "midi": 33,
          "time": 137.99999999999946,
          "velocity": 0.8661417322834646,
          "duration": 0.3333333333333144
        },
        {
          "name": "A2",
          "midi": 45,
          "time": 137.99999999999946,
          "velocity": 0.8661417322834646,
          "duration": 0.3333333333333144
        },
        {
          "name": "A3",
          "midi": 57,
          "time": 138.19999999999945,
          "velocity": 0.8661417322834646,
          "duration": 0.09583333333333144
        },
        {
          "name": "C#4",
          "midi": 61,
          "time": 138.19999999999945,
          "velocity": 0.8661417322834646,
          "duration": 0.09583333333333144
        },
        {
          "name": "E4",
          "midi": 64,
          "time": 138.19999999999945,
          "velocity": 0.8661417322834646,
          "duration": 0.09583333333333144
        },
        {
          "name": "G4",
          "midi": 67,
          "time": 138.19999999999945,
          "velocity": 0.8661417322834646,
          "duration": 0.09583333333333144
        },
        {
          "name": "C#2",
          "midi": 37,
          "time": 138.19999999999945,
          "velocity": 0.3543307086614173,
          "duration": 0.09583333333333144
        },
        {
          "name": "E2",
          "midi": 40,
          "time": 138.19999999999945,
          "velocity": 0.3543307086614173,
          "duration": 0.09583333333333144
        },
        {
          "name": "A3",
          "midi": 57,
          "time": 138.29999999999944,
          "velocity": 0.8661417322834646,
          "duration": 0.09583333333333144
        },
        {
          "name": "C#4",
          "midi": 61,
          "time": 138.29999999999944,
          "velocity": 0.8661417322834646,
          "duration": 0.09583333333333144
        },
        {
          "name": "E4",
          "midi": 64,
          "time": 138.29999999999944,
          "velocity": 0.8661417322834646,
          "duration": 0.09583333333333144
        },
        {
          "name": "G4",
          "midi": 67,
          "time": 138.29999999999944,
          "velocity": 0.8661417322834646,
          "duration": 0.09583333333333144
        },
        {
          "name": "C#2",
          "midi": 37,
          "time": 138.29999999999944,
          "velocity": 0.3543307086614173,
          "duration": 0.09583333333333144
        },
        {
          "name": "E2",
          "midi": 40,
          "time": 138.29999999999944,
          "velocity": 0.3543307086614173,
          "duration": 0.09583333333333144
        },
        {
          "name": "A3",
          "midi": 57,
          "time": 138.39999999999944,
          "velocity": 0.8661417322834646,
          "duration": 0.19583333333332575
        },
        {
          "name": "C#4",
          "midi": 61,
          "time": 138.39999999999944,
          "velocity": 0.8661417322834646,
          "duration": 0.19583333333332575
        },
        {
          "name": "E4",
          "midi": 64,
          "time": 138.39999999999944,
          "velocity": 0.8661417322834646,
          "duration": 0.19583333333332575
        },
        {
          "name": "G4",
          "midi": 67,
          "time": 138.39999999999944,
          "velocity": 0.8661417322834646,
          "duration": 0.19583333333332575
        },
        {
          "name": "C#2",
          "midi": 37,
          "time": 138.39999999999944,
          "velocity": 0.3543307086614173,
          "duration": 0.19583333333332575
        },
        {
          "name": "E2",
          "midi": 40,
          "time": 138.39999999999944,
          "velocity": 0.3543307086614173,
          "duration": 0.19583333333332575
        },
        {
          "name": "A3",
          "midi": 57,
          "time": 138.59999999999943,
          "velocity": 0.8661417322834646,
          "duration": 0.19583333333332575
        },
        {
          "name": "C#4",
          "midi": 61,
          "time": 138.59999999999943,
          "velocity": 0.8661417322834646,
          "duration": 0.19583333333332575
        },
        {
          "name": "E4",
          "midi": 64,
          "time": 138.59999999999943,
          "velocity": 0.8661417322834646,
          "duration": 0.19583333333332575
        },
        {
          "name": "G4",
          "midi": 67,
          "time": 138.59999999999943,
          "velocity": 0.8661417322834646,
          "duration": 0.19583333333332575
        },
        {
          "name": "C#2",
          "midi": 37,
          "time": 138.59999999999943,
          "velocity": 0.3543307086614173,
          "duration": 0.19583333333332575
        },
        {
          "name": "E2",
          "midi": 40,
          "time": 138.59999999999943,
          "velocity": 0.3543307086614173,
          "duration": 0.19583333333332575
        },
        {
          "name": "C#5",
          "midi": 73,
          "time": 138.79999999999941,
          "velocity": 0.8661417322834646,
          "duration": 0.595833333333303
        },
        {
          "name": "A3",
          "midi": 57,
          "time": 138.79999999999941,
          "velocity": 0.8661417322834646,
          "duration": 0.19583333333332575
        },
        {
          "name": "C#4",
          "midi": 61,
          "time": 138.79999999999941,
          "velocity": 0.8661417322834646,
          "duration": 0.19583333333332575
        },
        {
          "name": "E4",
          "midi": 64,
          "time": 138.79999999999941,
          "velocity": 0.8661417322834646,
          "duration": 0.19583333333332575
        },
        {
          "name": "G4",
          "midi": 67,
          "time": 138.79999999999941,
          "velocity": 0.8661417322834646,
          "duration": 0.19583333333332575
        },
        {
          "name": "A1",
          "midi": 33,
          "time": 138.79999999999941,
          "velocity": 0.8661417322834646,
          "duration": 0.29583333333332007
        },
        {
          "name": "C#2",
          "midi": 37,
          "time": 138.79999999999941,
          "velocity": 0.3543307086614173,
          "duration": 0.19583333333332575
        },
        {
          "name": "E2",
          "midi": 40,
          "time": 138.79999999999941,
          "velocity": 0.3543307086614173,
          "duration": 0.19583333333332575
        },
        {
          "name": "A3",
          "midi": 57,
          "time": 138.9999999999994,
          "velocity": 0.8661417322834646,
          "duration": 0.19583333333332575
        },
        {
          "name": "C#4",
          "midi": 61,
          "time": 138.9999999999994,
          "velocity": 0.8661417322834646,
          "duration": 0.19583333333332575
        },
        {
          "name": "E4",
          "midi": 64,
          "time": 138.9999999999994,
          "velocity": 0.8661417322834646,
          "duration": 0.19583333333332575
        },
        {
          "name": "G4",
          "midi": 67,
          "time": 138.9999999999994,
          "velocity": 0.8661417322834646,
          "duration": 0.19583333333332575
        },
        {
          "name": "C#2",
          "midi": 37,
          "time": 138.9999999999994,
          "velocity": 0.3543307086614173,
          "duration": 0.19583333333332575
        },
        {
          "name": "E2",
          "midi": 40,
          "time": 138.9999999999994,
          "velocity": 0.3543307086614173,
          "duration": 0.19583333333332575
        },
        {
          "name": "A1",
          "midi": 33,
          "time": 138.9999999999994,
          "velocity": 0.8661417322834646,
          "duration": 0.13333333333332575
        },
        {
          "name": "A2",
          "midi": 45,
          "time": 138.9999999999994,
          "velocity": 0.8661417322834646,
          "duration": 0.09583333333333144
        },
        {
          "name": "A1",
          "midi": 33,
          "time": 139.0999999999994,
          "velocity": 0.8661417322834646,
          "duration": 0.09583333333333144
        },
        {
          "name": "A2",
          "midi": 45,
          "time": 139.0999999999994,
          "velocity": 0.8661417322834646,
          "duration": 0.09583333333333144
        },
        {
          "name": "E5",
          "midi": 76,
          "time": 139.1999999999994,
          "velocity": 0.8661417322834646,
          "duration": 0.6999999999999602
        },
        {
          "name": "A3",
          "midi": 57,
          "time": 139.1999999999994,
          "velocity": 0.8661417322834646,
          "duration": 0.19583333333332575
        },
        {
          "name": "C#4",
          "midi": 61,
          "time": 139.1999999999994,
          "velocity": 0.8661417322834646,
          "duration": 0.19583333333332575
        },
        {
          "name": "E4",
          "midi": 64,
          "time": 139.1999999999994,
          "velocity": 0.8661417322834646,
          "duration": 0.19583333333332575
        },
        {
          "name": "G4",
          "midi": 67,
          "time": 139.1999999999994,
          "velocity": 0.8661417322834646,
          "duration": 0.19583333333332575
        },
        {
          "name": "A2",
          "midi": 45,
          "time": 139.1999999999994,
          "velocity": 0.8661417322834646,
          "duration": 0.3333333333333144
        },
        {
          "name": "C#2",
          "midi": 37,
          "time": 139.1999999999994,
          "velocity": 0.3543307086614173,
          "duration": 0.19583333333332575
        },
        {
          "name": "E2",
          "midi": 40,
          "time": 139.1999999999994,
          "velocity": 0.3543307086614173,
          "duration": 0.19583333333332575
        },
        {
          "name": "A1",
          "midi": 33,
          "time": 139.1999999999994,
          "velocity": 0.8661417322834646,
          "duration": 0.3333333333333144
        },
        {
          "name": "A2",
          "midi": 45,
          "time": 139.1999999999994,
          "velocity": 0.8661417322834646,
          "duration": 0.3333333333333144
        },
        {
          "name": "A3",
          "midi": 57,
          "time": 139.39999999999938,
          "velocity": 0.8661417322834646,
          "duration": 0.09583333333333144
        },
        {
          "name": "C#4",
          "midi": 61,
          "time": 139.39999999999938,
          "velocity": 0.8661417322834646,
          "duration": 0.09583333333333144
        },
        {
          "name": "E4",
          "midi": 64,
          "time": 139.39999999999938,
          "velocity": 0.8661417322834646,
          "duration": 0.09583333333333144
        },
        {
          "name": "G4",
          "midi": 67,
          "time": 139.39999999999938,
          "velocity": 0.8661417322834646,
          "duration": 0.09583333333333144
        },
        {
          "name": "C#2",
          "midi": 37,
          "time": 139.39999999999938,
          "velocity": 0.3543307086614173,
          "duration": 0.09583333333333144
        },
        {
          "name": "E2",
          "midi": 40,
          "time": 139.39999999999938,
          "velocity": 0.3543307086614173,
          "duration": 0.09583333333333144
        },
        {
          "name": "A3",
          "midi": 57,
          "time": 139.49999999999937,
          "velocity": 0.8661417322834646,
          "duration": 0.09583333333333144
        },
        {
          "name": "C#4",
          "midi": 61,
          "time": 139.49999999999937,
          "velocity": 0.8661417322834646,
          "duration": 0.09583333333333144
        },
        {
          "name": "E4",
          "midi": 64,
          "time": 139.49999999999937,
          "velocity": 0.8661417322834646,
          "duration": 0.09583333333333144
        },
        {
          "name": "G4",
          "midi": 67,
          "time": 139.49999999999937,
          "velocity": 0.8661417322834646,
          "duration": 0.09583333333333144
        },
        {
          "name": "C#2",
          "midi": 37,
          "time": 139.49999999999937,
          "velocity": 0.3543307086614173,
          "duration": 0.09583333333333144
        },
        {
          "name": "E2",
          "midi": 40,
          "time": 139.49999999999937,
          "velocity": 0.3543307086614173,
          "duration": 0.09583333333333144
        },
        {
          "name": "A4",
          "midi": 69,
          "time": 139.59999999999937,
          "velocity": 0.8661417322834646,
          "duration": 0.3333333333333144
        },
        {
          "name": "A3",
          "midi": 57,
          "time": 139.59999999999937,
          "velocity": 0.8661417322834646,
          "duration": 0.19583333333332575
        },
        {
          "name": "C#4",
          "midi": 61,
          "time": 139.59999999999937,
          "velocity": 0.8661417322834646,
          "duration": 0.19583333333332575
        },
        {
          "name": "E4",
          "midi": 64,
          "time": 139.59999999999937,
          "velocity": 0.8661417322834646,
          "duration": 0.19583333333332575
        },
        {
          "name": "G4",
          "midi": 67,
          "time": 139.59999999999937,
          "velocity": 0.8661417322834646,
          "duration": 0.19583333333332575
        },
        {
          "name": "C#2",
          "midi": 37,
          "time": 139.59999999999937,
          "velocity": 0.3543307086614173,
          "duration": 0.19583333333332575
        },
        {
          "name": "E2",
          "midi": 40,
          "time": 139.59999999999937,
          "velocity": 0.3543307086614173,
          "duration": 0.19583333333332575
        },
        {
          "name": "A1",
          "midi": 33,
          "time": 139.59999999999937,
          "velocity": 0.8661417322834646,
          "duration": 0.3333333333333144
        },
        {
          "name": "A2",
          "midi": 45,
          "time": 139.59999999999937,
          "velocity": 0.8661417322834646,
          "duration": 0.3333333333333144
        },
        {
          "name": "A3",
          "midi": 57,
          "time": 139.79999999999936,
          "velocity": 0.8661417322834646,
          "duration": 0.19583333333332575
        },
        {
          "name": "C#4",
          "midi": 61,
          "time": 139.79999999999936,
          "velocity": 0.8661417322834646,
          "duration": 0.19583333333332575
        },
        {
          "name": "E4",
          "midi": 64,
          "time": 139.79999999999936,
          "velocity": 0.8661417322834646,
          "duration": 0.19583333333332575
        },
        {
          "name": "G4",
          "midi": 67,
          "time": 139.79999999999936,
          "velocity": 0.8661417322834646,
          "duration": 0.19583333333332575
        },
        {
          "name": "C#2",
          "midi": 37,
          "time": 139.79999999999936,
          "velocity": 0.3543307086614173,
          "duration": 0.19583333333332575
        },
        {
          "name": "E2",
          "midi": 40,
          "time": 139.79999999999936,
          "velocity": 0.3543307086614173,
          "duration": 0.19583333333332575
        },
        {
          "name": "C5",
          "midi": 72,
          "time": 139.99999999999935,
          "velocity": 0.8661417322834646,
          "duration": 0.3333333333332291
        },
        {
          "name": "A3",
          "midi": 57,
          "time": 139.99999999999935,
          "velocity": 0.8661417322834646,
          "duration": 0.1958333333332689
        },
        {
          "name": "C4",
          "midi": 60,
          "time": 139.99999999999935,
          "velocity": 0.8661417322834646,
          "duration": 0.1958333333332689
        },
        {
          "name": "E4",
          "midi": 64,
          "time": 139.99999999999935,
          "velocity": 0.8661417322834646,
          "duration": 0.1958333333332689
        },
        {
          "name": "A1",
          "midi": 33,
          "time": 139.99999999999935,
          "velocity": 0.8661417322834646,
          "duration": 0.3333333333332291
        },
        {
          "name": "C#2",
          "midi": 37,
          "time": 139.99999999999935,
          "velocity": 0.3543307086614173,
          "duration": 0.1958333333332689
        },
        {
          "name": "E2",
          "midi": 40,
          "time": 139.99999999999935,
          "velocity": 0.3543307086614173,
          "duration": 0.1958333333332689
        },
        {
          "name": "A2",
          "midi": 45,
          "time": 139.99999999999935,
          "velocity": 0.8661417322834646,
          "duration": 0.04583333333332007
        },
        {
          "name": "A2",
          "midi": 45,
          "time": 140.04999999999933,
          "velocity": 0.8661417322834646,
          "duration": 0.04583333333332007
        },
        {
          "name": "A2",
          "midi": 45,
          "time": 140.0999999999993,
          "velocity": 0.8661417322834646,
          "duration": 0.04583333333332007
        },
        {
          "name": "A2",
          "midi": 45,
          "time": 140.1499999999993,
          "velocity": 0.8661417322834646,
          "duration": 0.04583333333332007
        },
        {
          "name": "A3",
          "midi": 57,
          "time": 140.19999999999928,
          "velocity": 0.8661417322834646,
          "duration": 0.1958333333332689
        },
        {
          "name": "C4",
          "midi": 60,
          "time": 140.19999999999928,
          "velocity": 0.8661417322834646,
          "duration": 0.1958333333332689
        },
        {
          "name": "E4",
          "midi": 64,
          "time": 140.19999999999928,
          "velocity": 0.8661417322834646,
          "duration": 0.1958333333332689
        },
        {
          "name": "C#2",
          "midi": 37,
          "time": 140.19999999999928,
          "velocity": 0.3543307086614173,
          "duration": 0.1958333333332689
        },
        {
          "name": "E2",
          "midi": 40,
          "time": 140.19999999999928,
          "velocity": 0.3543307086614173,
          "duration": 0.1958333333332689
        },
        {
          "name": "A2",
          "midi": 45,
          "time": 140.19999999999928,
          "velocity": 0.8661417322834646,
          "duration": 0.04583333333332007
        },
        {
          "name": "A2",
          "midi": 45,
          "time": 140.24999999999926,
          "velocity": 0.8661417322834646,
          "duration": 0.04583333333332007
        },
        {
          "name": "A2",
          "midi": 45,
          "time": 140.29999999999924,
          "velocity": 0.8661417322834646,
          "duration": 0.04583333333332007
        },
        {
          "name": "A2",
          "midi": 45,
          "time": 140.34999999999923,
          "velocity": 0.8661417322834646,
          "duration": 0.04583333333332007
        },
        {
          "name": "D5",
          "midi": 74,
          "time": 140.3999999999992,
          "velocity": 0.8661417322834646,
          "duration": 0.533333333333303
        },
        {
          "name": "F5",
          "midi": 77,
          "time": 140.3999999999992,
          "velocity": 0.8661417322834646,
          "duration": 1.0999999999999375
        },
        {
          "name": "A3",
          "midi": 57,
          "time": 140.3999999999992,
          "velocity": 0.8661417322834646,
          "duration": 0.19583333333332575
        },
        {
          "name": "D4",
          "midi": 62,
          "time": 140.3999999999992,
          "velocity": 0.8661417322834646,
          "duration": 0.19583333333332575
        },
        {
          "name": "F4",
          "midi": 65,
          "time": 140.3999999999992,
          "velocity": 0.8661417322834646,
          "duration": 0.19583333333332575
        },
        {
          "name": "D2",
          "midi": 38,
          "time": 140.3999999999992,
          "velocity": 0.8661417322834646,
          "duration": 0.3333333333333144
        },
        {
          "name": "C#2",
          "midi": 37,
          "time": 140.3999999999992,
          "velocity": 0.3543307086614173,
          "duration": 0.19583333333332575
        },
        {
          "name": "E2",
          "midi": 40,
          "time": 140.3999999999992,
          "velocity": 0.3543307086614173,
          "duration": 0.19583333333332575
        },
        {
          "name": "D2",
          "midi": 38,
          "time": 140.3999999999992,
          "velocity": 0.8661417322834646,
          "duration": 0.3333333333333144
        },
        {
          "name": "D3",
          "midi": 50,
          "time": 140.3999999999992,
          "velocity": 0.8661417322834646,
          "duration": 0.3333333333333144
        },
        {
          "name": "A3",
          "midi": 57,
          "time": 140.5999999999992,
          "velocity": 0.8661417322834646,
          "duration": 0.09583333333333144
        },
        {
          "name": "D4",
          "midi": 62,
          "time": 140.5999999999992,
          "velocity": 0.8661417322834646,
          "duration": 0.09583333333333144
        },
        {
          "name": "F4",
          "midi": 65,
          "time": 140.5999999999992,
          "velocity": 0.8661417322834646,
          "duration": 0.09583333333333144
        },
        {
          "name": "C#2",
          "midi": 37,
          "time": 140.5999999999992,
          "velocity": 0.3543307086614173,
          "duration": 0.09583333333333144
        },
        {
          "name": "E2",
          "midi": 40,
          "time": 140.5999999999992,
          "velocity": 0.3543307086614173,
          "duration": 0.09583333333333144
        },
        {
          "name": "A3",
          "midi": 57,
          "time": 140.6999999999992,
          "velocity": 0.8661417322834646,
          "duration": 0.09583333333333144
        },
        {
          "name": "D4",
          "midi": 62,
          "time": 140.6999999999992,
          "velocity": 0.8661417322834646,
          "duration": 0.09583333333333144
        },
        {
          "name": "F4",
          "midi": 65,
          "time": 140.6999999999992,
          "velocity": 0.8661417322834646,
          "duration": 0.09583333333333144
        },
        {
          "name": "C#2",
          "midi": 37,
          "time": 140.6999999999992,
          "velocity": 0.3543307086614173,
          "duration": 0.09583333333333144
        },
        {
          "name": "E2",
          "midi": 40,
          "time": 140.6999999999992,
          "velocity": 0.3543307086614173,
          "duration": 0.09583333333333144
        },
        {
          "name": "A3",
          "midi": 57,
          "time": 140.7999999999992,
          "velocity": 0.8661417322834646,
          "duration": 0.19583333333332575
        },
        {
          "name": "D4",
          "midi": 62,
          "time": 140.7999999999992,
          "velocity": 0.8661417322834646,
          "duration": 0.19583333333332575
        },
        {
          "name": "F4",
          "midi": 65,
          "time": 140.7999999999992,
          "velocity": 0.8661417322834646,
          "duration": 0.19583333333332575
        },
        {
          "name": "A4",
          "midi": 69,
          "time": 140.7999999999992,
          "velocity": 0.8661417322834646,
          "duration": 1.5333333333332462
        },
        {
          "name": "C#2",
          "midi": 37,
          "time": 140.7999999999992,
          "velocity": 0.3543307086614173,
          "duration": 0.19583333333332575
        },
        {
          "name": "E2",
          "midi": 40,
          "time": 140.7999999999992,
          "velocity": 0.3543307086614173,
          "duration": 0.19583333333332575
        },
        {
          "name": "D5",
          "midi": 74,
          "time": 140.99999999999918,
          "velocity": 0.8661417322834646,
          "duration": 0.3958333333333144
        },
        {
          "name": "A3",
          "midi": 57,
          "time": 140.99999999999918,
          "velocity": 0.8661417322834646,
          "duration": 0.19583333333332575
        },
        {
          "name": "D4",
          "midi": 62,
          "time": 140.99999999999918,
          "velocity": 0.8661417322834646,
          "duration": 0.19583333333332575
        },
        {
          "name": "F4",
          "midi": 65,
          "time": 140.99999999999918,
          "velocity": 0.8661417322834646,
          "duration": 0.19583333333332575
        },
        {
          "name": "C#2",
          "midi": 37,
          "time": 140.99999999999918,
          "velocity": 0.3543307086614173,
          "duration": 0.19583333333332575
        },
        {
          "name": "E2",
          "midi": 40,
          "time": 140.99999999999918,
          "velocity": 0.3543307086614173,
          "duration": 0.19583333333332575
        },
        {
          "name": "A3",
          "midi": 57,
          "time": 141.19999999999916,
          "velocity": 0.8661417322834646,
          "duration": 0.19583333333332575
        },
        {
          "name": "D4",
          "midi": 62,
          "time": 141.19999999999916,
          "velocity": 0.8661417322834646,
          "duration": 0.19583333333332575
        },
        {
          "name": "F4",
          "midi": 65,
          "time": 141.19999999999916,
          "velocity": 0.8661417322834646,
          "duration": 0.19583333333332575
        },
        {
          "name": "A1",
          "midi": 33,
          "time": 141.19999999999916,
          "velocity": 0.8661417322834646,
          "duration": 0.3333333333333144
        },
        {
          "name": "C#2",
          "midi": 37,
          "time": 141.19999999999916,
          "velocity": 0.3543307086614173,
          "duration": 0.19583333333332575
        },
        {
          "name": "E2",
          "midi": 40,
          "time": 141.19999999999916,
          "velocity": 0.3543307086614173,
          "duration": 0.19583333333332575
        },
        {
          "name": "C5",
          "midi": 72,
          "time": 141.39999999999915,
          "velocity": 0.8661417322834646,
          "duration": 0.19583333333332575
        },
        {
          "name": "A3",
          "midi": 57,
          "time": 141.39999999999915,
          "velocity": 0.8661417322834646,
          "duration": 0.19583333333332575
        },
        {
          "name": "D4",
          "midi": 62,
          "time": 141.39999999999915,
          "velocity": 0.8661417322834646,
          "duration": 0.19583333333332575
        },
        {
          "name": "F4",
          "midi": 65,
          "time": 141.39999999999915,
          "velocity": 0.8661417322834646,
          "duration": 0.19583333333332575
        },
        {
          "name": "C#2",
          "midi": 37,
          "time": 141.39999999999915,
          "velocity": 0.3543307086614173,
          "duration": 0.19583333333332575
        },
        {
          "name": "E2",
          "midi": 40,
          "time": 141.39999999999915,
          "velocity": 0.3543307086614173,
          "duration": 0.19583333333332575
        },
        {
          "name": "A2",
          "midi": 45,
          "time": 141.39999999999915,
          "velocity": 0.8661417322834646,
          "duration": 0.09583333333333144
        },
        {
          "name": "A2",
          "midi": 45,
          "time": 141.49999999999915,
          "velocity": 0.8661417322834646,
          "duration": 0.09583333333333144
        },
        {
          "name": "D5",
          "midi": 74,
          "time": 141.59999999999914,
          "velocity": 0.8661417322834646,
          "duration": 0.3333333333333144
        },
        {
          "name": "F5",
          "midi": 77,
          "time": 141.59999999999914,
          "velocity": 0.8661417322834646,
          "duration": 0.3333333333333144
        },
        {
          "name": "A3",
          "midi": 57,
          "time": 141.59999999999914,
          "velocity": 0.8661417322834646,
          "duration": 0.19583333333332575
        },
        {
          "name": "D4",
          "midi": 62,
          "time": 141.59999999999914,
          "velocity": 0.8661417322834646,
          "duration": 0.19583333333332575
        },
        {
          "name": "F4",
          "midi": 65,
          "time": 141.59999999999914,
          "velocity": 0.8661417322834646,
          "duration": 0.19583333333332575
        },
        {
          "name": "D2",
          "midi": 38,
          "time": 141.59999999999914,
          "velocity": 0.8661417322834646,
          "duration": 0.3333333333333144
        },
        {
          "name": "C#2",
          "midi": 37,
          "time": 141.59999999999914,
          "velocity": 0.3543307086614173,
          "duration": 0.19583333333332575
        },
        {
          "name": "E2",
          "midi": 40,
          "time": 141.59999999999914,
          "velocity": 0.3543307086614173,
          "duration": 0.19583333333332575
        },
        {
          "name": "D2",
          "midi": 38,
          "time": 141.59999999999914,
          "velocity": 0.8661417322834646,
          "duration": 0.3333333333333144
        },
        {
          "name": "D3",
          "midi": 50,
          "time": 141.59999999999914,
          "velocity": 0.8661417322834646,
          "duration": 0.3333333333333144
        },
        {
          "name": "A3",
          "midi": 57,
          "time": 141.79999999999913,
          "velocity": 0.8661417322834646,
          "duration": 0.09583333333333144
        },
        {
          "name": "D4",
          "midi": 62,
          "time": 141.79999999999913,
          "velocity": 0.8661417322834646,
          "duration": 0.09583333333333144
        },
        {
          "name": "F4",
          "midi": 65,
          "time": 141.79999999999913,
          "velocity": 0.8661417322834646,
          "duration": 0.09583333333333144
        },
        {
          "name": "C#2",
          "midi": 37,
          "time": 141.79999999999913,
          "velocity": 0.3543307086614173,
          "duration": 0.09583333333333144
        },
        {
          "name": "E2",
          "midi": 40,
          "time": 141.79999999999913,
          "velocity": 0.3543307086614173,
          "duration": 0.09583333333333144
        },
        {
          "name": "A3",
          "midi": 57,
          "time": 141.89999999999912,
          "velocity": 0.8661417322834646,
          "duration": 0.09583333333333144
        },
        {
          "name": "D4",
          "midi": 62,
          "time": 141.89999999999912,
          "velocity": 0.8661417322834646,
          "duration": 0.09583333333333144
        },
        {
          "name": "F4",
          "midi": 65,
          "time": 141.89999999999912,
          "velocity": 0.8661417322834646,
          "duration": 0.09583333333333144
        },
        {
          "name": "C#2",
          "midi": 37,
          "time": 141.89999999999912,
          "velocity": 0.3543307086614173,
          "duration": 0.09583333333333144
        },
        {
          "name": "E2",
          "midi": 40,
          "time": 141.89999999999912,
          "velocity": 0.3543307086614173,
          "duration": 0.09583333333333144
        },
        {
          "name": "A4",
          "midi": 69,
          "time": 141.99999999999912,
          "velocity": 0.8661417322834646,
          "duration": 0.6999999999999602
        },
        {
          "name": "G5",
          "midi": 79,
          "time": 141.99999999999912,
          "velocity": 0.8661417322834646,
          "duration": 0.595833333333303
        },
        {
          "name": "A3",
          "midi": 57,
          "time": 141.99999999999912,
          "velocity": 0.8661417322834646,
          "duration": 0.19583333333332575
        },
        {
          "name": "C4",
          "midi": 60,
          "time": 141.99999999999912,
          "velocity": 0.8661417322834646,
          "duration": 0.19583333333332575
        },
        {
          "name": "E4",
          "midi": 64,
          "time": 141.99999999999912,
          "velocity": 0.8661417322834646,
          "duration": 0.19583333333332575
        },
        {
          "name": "C#2",
          "midi": 37,
          "time": 141.99999999999912,
          "velocity": 0.3543307086614173,
          "duration": 0.19583333333332575
        },
        {
          "name": "E2",
          "midi": 40,
          "time": 141.99999999999912,
          "velocity": 0.3543307086614173,
          "duration": 0.19583333333332575
        },
        {
          "name": "A3",
          "midi": 57,
          "time": 142.1999999999991,
          "velocity": 0.8661417322834646,
          "duration": 0.19583333333332575
        },
        {
          "name": "C4",
          "midi": 60,
          "time": 142.1999999999991,
          "velocity": 0.8661417322834646,
          "duration": 0.19583333333332575
        },
        {
          "name": "E4",
          "midi": 64,
          "time": 142.1999999999991,
          "velocity": 0.8661417322834646,
          "duration": 0.19583333333332575
        },
        {
          "name": "C#2",
          "midi": 37,
          "time": 142.1999999999991,
          "velocity": 0.3543307086614173,
          "duration": 0.19583333333332575
        },
        {
          "name": "E2",
          "midi": 40,
          "time": 142.1999999999991,
          "velocity": 0.3543307086614173,
          "duration": 0.19583333333332575
        },
        {
          "name": "C5",
          "midi": 72,
          "time": 142.3999999999991,
          "velocity": 0.8661417322834646,
          "duration": 0.3958333333333144
        },
        {
          "name": "A3",
          "midi": 57,
          "time": 142.3999999999991,
          "velocity": 0.8661417322834646,
          "duration": 0.19583333333332575
        },
        {
          "name": "C4",
          "midi": 60,
          "time": 142.3999999999991,
          "velocity": 0.8661417322834646,
          "duration": 0.19583333333332575
        },
        {
          "name": "E4",
          "midi": 64,
          "time": 142.3999999999991,
          "velocity": 0.8661417322834646,
          "duration": 0.19583333333332575
        },
        {
          "name": "A2",
          "midi": 45,
          "time": 142.3999999999991,
          "velocity": 0.8661417322834646,
          "duration": 0.29583333333332007
        },
        {
          "name": "C#2",
          "midi": 37,
          "time": 142.3999999999991,
          "velocity": 0.3543307086614173,
          "duration": 0.19583333333332575
        },
        {
          "name": "E2",
          "midi": 40,
          "time": 142.3999999999991,
          "velocity": 0.3543307086614173,
          "duration": 0.19583333333332575
        },
        {
          "name": "E5",
          "midi": 76,
          "time": 142.59999999999908,
          "velocity": 0.8661417322834646,
          "duration": 0.19583333333332575
        },
        {
          "name": "A3",
          "midi": 57,
          "time": 142.59999999999908,
          "velocity": 0.8661417322834646,
          "duration": 0.19583333333332575
        },
        {
          "name": "C4",
          "midi": 60,
          "time": 142.59999999999908,
          "velocity": 0.8661417322834646,
          "duration": 0.19583333333332575
        },
        {
          "name": "E4",
          "midi": 64,
          "time": 142.59999999999908,
          "velocity": 0.8661417322834646,
          "duration": 0.19583333333332575
        },
        {
          "name": "C#2",
          "midi": 37,
          "time": 142.59999999999908,
          "velocity": 0.3543307086614173,
          "duration": 0.19583333333332575
        },
        {
          "name": "E2",
          "midi": 40,
          "time": 142.59999999999908,
          "velocity": 0.3543307086614173,
          "duration": 0.19583333333332575
        },
        {
          "name": "A2",
          "midi": 45,
          "time": 142.59999999999908,
          "velocity": 0.8661417322834646,
          "duration": 0.13333333333332575
        },
        {
          "name": "A2",
          "midi": 45,
          "time": 142.69999999999908,
          "velocity": 0.8661417322834646,
          "duration": 0.09583333333333144
        },
        {
          "name": "D5",
          "midi": 74,
          "time": 142.79999999999907,
          "velocity": 0.8661417322834646,
          "duration": 0.5333333333333314
        },
        {
          "name": "F5",
          "midi": 77,
          "time": 142.79999999999907,
          "velocity": 0.8661417322834646,
          "duration": 1.099999999999966
        },
        {
          "name": "A3",
          "midi": 57,
          "time": 142.79999999999907,
          "velocity": 0.8661417322834646,
          "duration": 0.19583333333332575
        },
        {
          "name": "D4",
          "midi": 62,
          "time": 142.79999999999907,
          "velocity": 0.8661417322834646,
          "duration": 0.19583333333332575
        },
        {
          "name": "F4",
          "midi": 65,
          "time": 142.79999999999907,
          "velocity": 0.8661417322834646,
          "duration": 0.19583333333332575
        },
        {
          "name": "D2",
          "midi": 38,
          "time": 142.79999999999907,
          "velocity": 0.8661417322834646,
          "duration": 0.3333333333333144
        },
        {
          "name": "C#2",
          "midi": 37,
          "time": 142.79999999999907,
          "velocity": 0.3543307086614173,
          "duration": 0.19583333333332575
        },
        {
          "name": "E2",
          "midi": 40,
          "time": 142.79999999999907,
          "velocity": 0.3543307086614173,
          "duration": 0.19583333333332575
        },
        {
          "name": "D2",
          "midi": 38,
          "time": 142.79999999999907,
          "velocity": 0.8661417322834646,
          "duration": 0.3333333333333144
        },
        {
          "name": "D3",
          "midi": 50,
          "time": 142.79999999999907,
          "velocity": 0.8661417322834646,
          "duration": 0.3333333333333144
        },
        {
          "name": "A3",
          "midi": 57,
          "time": 142.99999999999906,
          "velocity": 0.8661417322834646,
          "duration": 0.09583333333333144
        },
        {
          "name": "D4",
          "midi": 62,
          "time": 142.99999999999906,
          "velocity": 0.8661417322834646,
          "duration": 0.09583333333333144
        },
        {
          "name": "F4",
          "midi": 65,
          "time": 142.99999999999906,
          "velocity": 0.8661417322834646,
          "duration": 0.09583333333333144
        },
        {
          "name": "C#2",
          "midi": 37,
          "time": 142.99999999999906,
          "velocity": 0.3543307086614173,
          "duration": 0.09583333333333144
        },
        {
          "name": "E2",
          "midi": 40,
          "time": 142.99999999999906,
          "velocity": 0.3543307086614173,
          "duration": 0.09583333333333144
        },
        {
          "name": "A3",
          "midi": 57,
          "time": 143.09999999999906,
          "velocity": 0.8661417322834646,
          "duration": 0.09583333333333144
        },
        {
          "name": "D4",
          "midi": 62,
          "time": 143.09999999999906,
          "velocity": 0.8661417322834646,
          "duration": 0.09583333333333144
        },
        {
          "name": "F4",
          "midi": 65,
          "time": 143.09999999999906,
          "velocity": 0.8661417322834646,
          "duration": 0.09583333333333144
        },
        {
          "name": "C#2",
          "midi": 37,
          "time": 143.09999999999906,
          "velocity": 0.3543307086614173,
          "duration": 0.09583333333333144
        },
        {
          "name": "E2",
          "midi": 40,
          "time": 143.09999999999906,
          "velocity": 0.3543307086614173,
          "duration": 0.09583333333333144
        },
        {
          "name": "A3",
          "midi": 57,
          "time": 143.19999999999905,
          "velocity": 0.8661417322834646,
          "duration": 0.19583333333335418
        },
        {
          "name": "D4",
          "midi": 62,
          "time": 143.19999999999905,
          "velocity": 0.8661417322834646,
          "duration": 0.19583333333335418
        },
        {
          "name": "F4",
          "midi": 65,
          "time": 143.19999999999905,
          "velocity": 0.8661417322834646,
          "duration": 0.19583333333335418
        },
        {
          "name": "A4",
          "midi": 69,
          "time": 143.19999999999905,
          "velocity": 0.8661417322834646,
          "duration": 0.05000000000001137
        },
        {
          "name": "C#2",
          "midi": 37,
          "time": 143.19999999999905,
          "velocity": 0.3543307086614173,
          "duration": 0.19583333333335418
        },
        {
          "name": "E2",
          "midi": 40,
          "time": 143.19999999999905,
          "velocity": 0.3543307086614173,
          "duration": 0.19583333333335418
        },
        {
          "name": "A#4",
          "midi": 70,
          "time": 143.24999999999906,
          "velocity": 0.8661417322834646,
          "duration": 0.05000000000001137
        },
        {
          "name": "A4",
          "midi": 69,
          "time": 143.29999999999907,
          "velocity": 0.8661417322834646,
          "duration": 1.4333333333332519
        },
        {
          "name": "D5",
          "midi": 74,
          "time": 143.39999999999907,
          "velocity": 0.8661417322834646,
          "duration": 0.3958333333333144
        },
        {
          "name": "A3",
          "midi": 57,
          "time": 143.39999999999907,
          "velocity": 0.8661417322834646,
          "duration": 0.19583333333332575
        },
        {
          "name": "D4",
          "midi": 62,
          "time": 143.39999999999907,
          "velocity": 0.8661417322834646,
          "duration": 0.19583333333332575
        },
        {
          "name": "F4",
          "midi": 65,
          "time": 143.39999999999907,
          "velocity": 0.8661417322834646,
          "duration": 0.19583333333332575
        },
        {
          "name": "C#2",
          "midi": 37,
          "time": 143.39999999999907,
          "velocity": 0.3543307086614173,
          "duration": 0.19583333333332575
        },
        {
          "name": "E2",
          "midi": 40,
          "time": 143.39999999999907,
          "velocity": 0.3543307086614173,
          "duration": 0.19583333333332575
        },
        {
          "name": "A3",
          "midi": 57,
          "time": 143.59999999999906,
          "velocity": 0.8661417322834646,
          "duration": 0.19583333333332575
        },
        {
          "name": "D4",
          "midi": 62,
          "time": 143.59999999999906,
          "velocity": 0.8661417322834646,
          "duration": 0.19583333333332575
        },
        {
          "name": "F4",
          "midi": 65,
          "time": 143.59999999999906,
          "velocity": 0.8661417322834646,
          "duration": 0.19583333333332575
        },
        {
          "name": "A1",
          "midi": 33,
          "time": 143.59999999999906,
          "velocity": 0.8661417322834646,
          "duration": 0.3333333333333144
        },
        {
          "name": "C#2",
          "midi": 37,
          "time": 143.59999999999906,
          "velocity": 0.3543307086614173,
          "duration": 0.19583333333332575
        },
        {
          "name": "E2",
          "midi": 40,
          "time": 143.59999999999906,
          "velocity": 0.3543307086614173,
          "duration": 0.19583333333332575
        },
        {
          "name": "C5",
          "midi": 72,
          "time": 143.79999999999905,
          "velocity": 0.8661417322834646,
          "duration": 0.19583333333332575
        },
        {
          "name": "A3",
          "midi": 57,
          "time": 143.79999999999905,
          "velocity": 0.8661417322834646,
          "duration": 0.19583333333332575
        },
        {
          "name": "D4",
          "midi": 62,
          "time": 143.79999999999905,
          "velocity": 0.8661417322834646,
          "duration": 0.19583333333332575
        },
        {
          "name": "F4",
          "midi": 65,
          "time": 143.79999999999905,
          "velocity": 0.8661417322834646,
          "duration": 0.19583333333332575
        },
        {
          "name": "C#2",
          "midi": 37,
          "time": 143.79999999999905,
          "velocity": 0.3543307086614173,
          "duration": 0.19583333333332575
        },
        {
          "name": "E2",
          "midi": 40,
          "time": 143.79999999999905,
          "velocity": 0.3543307086614173,
          "duration": 0.19583333333332575
        },
        {
          "name": "A2",
          "midi": 45,
          "time": 143.79999999999905,
          "velocity": 0.8661417322834646,
          "duration": 0.09583333333333144
        },
        {
          "name": "A2",
          "midi": 45,
          "time": 143.89999999999904,
          "velocity": 0.8661417322834646,
          "duration": 0.09583333333333144
        },
        {
          "name": "D5",
          "midi": 74,
          "time": 143.99999999999903,
          "velocity": 0.8661417322834646,
          "duration": 0.3333333333333144
        },
        {
          "name": "F5",
          "midi": 77,
          "time": 143.99999999999903,
          "velocity": 0.8661417322834646,
          "duration": 0.3333333333333144
        },
        {
          "name": "A3",
          "midi": 57,
          "time": 143.99999999999903,
          "velocity": 0.8661417322834646,
          "duration": 0.19583333333332575
        },
        {
          "name": "D4",
          "midi": 62,
          "time": 143.99999999999903,
          "velocity": 0.8661417322834646,
          "duration": 0.19583333333332575
        },
        {
          "name": "F4",
          "midi": 65,
          "time": 143.99999999999903,
          "velocity": 0.8661417322834646,
          "duration": 0.19583333333332575
        },
        {
          "name": "D2",
          "midi": 38,
          "time": 143.99999999999903,
          "velocity": 0.8661417322834646,
          "duration": 0.3333333333333144
        },
        {
          "name": "C#2",
          "midi": 37,
          "time": 143.99999999999903,
          "velocity": 0.3543307086614173,
          "duration": 0.19583333333332575
        },
        {
          "name": "E2",
          "midi": 40,
          "time": 143.99999999999903,
          "velocity": 0.3543307086614173,
          "duration": 0.19583333333332575
        },
        {
          "name": "D2",
          "midi": 38,
          "time": 143.99999999999903,
          "velocity": 0.8661417322834646,
          "duration": 0.3333333333333144
        },
        {
          "name": "D3",
          "midi": 50,
          "time": 143.99999999999903,
          "velocity": 0.8661417322834646,
          "duration": 0.3333333333333144
        },
        {
          "name": "A3",
          "midi": 57,
          "time": 144.19999999999902,
          "velocity": 0.8661417322834646,
          "duration": 0.09583333333333144
        },
        {
          "name": "D4",
          "midi": 62,
          "time": 144.19999999999902,
          "velocity": 0.8661417322834646,
          "duration": 0.09583333333333144
        },
        {
          "name": "F4",
          "midi": 65,
          "time": 144.19999999999902,
          "velocity": 0.8661417322834646,
          "duration": 0.09583333333333144
        },
        {
          "name": "C#2",
          "midi": 37,
          "time": 144.19999999999902,
          "velocity": 0.3543307086614173,
          "duration": 0.09583333333333144
        },
        {
          "name": "E2",
          "midi": 40,
          "time": 144.19999999999902,
          "velocity": 0.3543307086614173,
          "duration": 0.09583333333333144
        },
        {
          "name": "A3",
          "midi": 57,
          "time": 144.29999999999902,
          "velocity": 0.8661417322834646,
          "duration": 0.09583333333333144
        },
        {
          "name": "D4",
          "midi": 62,
          "time": 144.29999999999902,
          "velocity": 0.8661417322834646,
          "duration": 0.09583333333333144
        },
        {
          "name": "F4",
          "midi": 65,
          "time": 144.29999999999902,
          "velocity": 0.8661417322834646,
          "duration": 0.09583333333333144
        },
        {
          "name": "C#2",
          "midi": 37,
          "time": 144.29999999999902,
          "velocity": 0.3543307086614173,
          "duration": 0.09583333333333144
        },
        {
          "name": "E2",
          "midi": 40,
          "time": 144.29999999999902,
          "velocity": 0.3543307086614173,
          "duration": 0.09583333333333144
        },
        {
          "name": "A4",
          "midi": 69,
          "time": 144.399999999999,
          "velocity": 0.8661417322834646,
          "duration": 0.6999999999999602
        },
        {
          "name": "G5",
          "midi": 79,
          "time": 144.399999999999,
          "velocity": 0.8661417322834646,
          "duration": 0.6999999999999602
        },
        {
          "name": "A3",
          "midi": 57,
          "time": 144.399999999999,
          "velocity": 0.8661417322834646,
          "duration": 0.19583333333332575
        },
        {
          "name": "C4",
          "midi": 60,
          "time": 144.399999999999,
          "velocity": 0.8661417322834646,
          "duration": 0.19583333333332575
        },
        {
          "name": "E4",
          "midi": 64,
          "time": 144.399999999999,
          "velocity": 0.8661417322834646,
          "duration": 0.19583333333332575
        },
        {
          "name": "C#2",
          "midi": 37,
          "time": 144.399999999999,
          "velocity": 0.3543307086614173,
          "duration": 0.19583333333332575
        },
        {
          "name": "E2",
          "midi": 40,
          "time": 144.399999999999,
          "velocity": 0.3543307086614173,
          "duration": 0.19583333333332575
        },
        {
          "name": "A3",
          "midi": 57,
          "time": 144.599999999999,
          "velocity": 0.8661417322834646,
          "duration": 0.19583333333332575
        },
        {
          "name": "C4",
          "midi": 60,
          "time": 144.599999999999,
          "velocity": 0.8661417322834646,
          "duration": 0.19583333333332575
        },
        {
          "name": "E4",
          "midi": 64,
          "time": 144.599999999999,
          "velocity": 0.8661417322834646,
          "duration": 0.19583333333332575
        },
        {
          "name": "C#2",
          "midi": 37,
          "time": 144.599999999999,
          "velocity": 0.3543307086614173,
          "duration": 0.19583333333332575
        },
        {
          "name": "E2",
          "midi": 40,
          "time": 144.599999999999,
          "velocity": 0.3543307086614173,
          "duration": 0.19583333333332575
        },
        {
          "name": "C5",
          "midi": 72,
          "time": 144.799999999999,
          "velocity": 0.8661417322834646,
          "duration": 0.3333333333333144
        },
        {
          "name": "A3",
          "midi": 57,
          "time": 144.799999999999,
          "velocity": 0.8661417322834646,
          "duration": 0.19583333333332575
        },
        {
          "name": "C4",
          "midi": 60,
          "time": 144.799999999999,
          "velocity": 0.8661417322834646,
          "duration": 0.19583333333332575
        },
        {
          "name": "E4",
          "midi": 64,
          "time": 144.799999999999,
          "velocity": 0.8661417322834646,
          "duration": 0.19583333333332575
        },
        {
          "name": "A1",
          "midi": 33,
          "time": 144.799999999999,
          "velocity": 0.8661417322834646,
          "duration": 0.3333333333333144
        },
        {
          "name": "C#2",
          "midi": 37,
          "time": 144.799999999999,
          "velocity": 0.3543307086614173,
          "duration": 0.19583333333332575
        },
        {
          "name": "E2",
          "midi": 40,
          "time": 144.799999999999,
          "velocity": 0.3543307086614173,
          "duration": 0.19583333333332575
        },
        {
          "name": "A3",
          "midi": 57,
          "time": 144.99999999999898,
          "velocity": 0.8661417322834646,
          "duration": 0.19583333333332575
        },
        {
          "name": "C4",
          "midi": 60,
          "time": 144.99999999999898,
          "velocity": 0.8661417322834646,
          "duration": 0.19583333333332575
        },
        {
          "name": "E4",
          "midi": 64,
          "time": 144.99999999999898,
          "velocity": 0.8661417322834646,
          "duration": 0.19583333333332575
        },
        {
          "name": "C#2",
          "midi": 37,
          "time": 144.99999999999898,
          "velocity": 0.3543307086614173,
          "duration": 0.19583333333332575
        },
        {
          "name": "E2",
          "midi": 40,
          "time": 144.99999999999898,
          "velocity": 0.3543307086614173,
          "duration": 0.19583333333332575
        },
        {
          "name": "A2",
          "midi": 45,
          "time": 144.99999999999898,
          "velocity": 0.8661417322834646,
          "duration": 0.09583333333333144
        },
        {
          "name": "A2",
          "midi": 45,
          "time": 145.09999999999897,
          "velocity": 0.8661417322834646,
          "duration": 0.09583333333333144
        },
        {
          "name": "D5",
          "midi": 74,
          "time": 145.19999999999897,
          "velocity": 0.8661417322834646,
          "duration": 0.533333333333303
        },
        {
          "name": "F5",
          "midi": 77,
          "time": 145.19999999999897,
          "velocity": 0.8661417322834646,
          "duration": 0.6999999999999602
        },
        {
          "name": "A3",
          "midi": 57,
          "time": 145.19999999999897,
          "velocity": 0.8661417322834646,
          "duration": 0.19583333333332575
        },
        {
          "name": "D4",
          "midi": 62,
          "time": 145.19999999999897,
          "velocity": 0.8661417322834646,
          "duration": 0.19583333333332575
        },
        {
          "name": "F4",
          "midi": 65,
          "time": 145.19999999999897,
          "velocity": 0.8661417322834646,
          "duration": 0.19583333333332575
        },
        {
          "name": "D2",
          "midi": 38,
          "time": 145.19999999999897,
          "velocity": 0.8661417322834646,
          "duration": 0.3333333333333144
        },
        {
          "name": "C#2",
          "midi": 37,
          "time": 145.19999999999897,
          "velocity": 0.3543307086614173,
          "duration": 0.19583333333332575
        },
        {
          "name": "E2",
          "midi": 40,
          "time": 145.19999999999897,
          "velocity": 0.3543307086614173,
          "duration": 0.19583333333332575
        },
        {
          "name": "D2",
          "midi": 38,
          "time": 145.19999999999897,
          "velocity": 0.8661417322834646,
          "duration": 0.3333333333333144
        },
        {
          "name": "D3",
          "midi": 50,
          "time": 145.19999999999897,
          "velocity": 0.8661417322834646,
          "duration": 0.3333333333333144
        },
        {
          "name": "A3",
          "midi": 57,
          "time": 145.39999999999895,
          "velocity": 0.8661417322834646,
          "duration": 0.09583333333333144
        },
        {
          "name": "D4",
          "midi": 62,
          "time": 145.39999999999895,
          "velocity": 0.8661417322834646,
          "duration": 0.09583333333333144
        },
        {
          "name": "F4",
          "midi": 65,
          "time": 145.39999999999895,
          "velocity": 0.8661417322834646,
          "duration": 0.09583333333333144
        },
        {
          "name": "C#2",
          "midi": 37,
          "time": 145.39999999999895,
          "velocity": 0.3543307086614173,
          "duration": 0.09583333333333144
        },
        {
          "name": "E2",
          "midi": 40,
          "time": 145.39999999999895,
          "velocity": 0.3543307086614173,
          "duration": 0.09583333333333144
        },
        {
          "name": "A3",
          "midi": 57,
          "time": 145.49999999999895,
          "velocity": 0.8661417322834646,
          "duration": 0.09583333333333144
        },
        {
          "name": "D4",
          "midi": 62,
          "time": 145.49999999999895,
          "velocity": 0.8661417322834646,
          "duration": 0.09583333333333144
        },
        {
          "name": "F4",
          "midi": 65,
          "time": 145.49999999999895,
          "velocity": 0.8661417322834646,
          "duration": 0.09583333333333144
        },
        {
          "name": "C#2",
          "midi": 37,
          "time": 145.49999999999895,
          "velocity": 0.3543307086614173,
          "duration": 0.09583333333333144
        },
        {
          "name": "E2",
          "midi": 40,
          "time": 145.49999999999895,
          "velocity": 0.3543307086614173,
          "duration": 0.09583333333333144
        },
        {
          "name": "A3",
          "midi": 57,
          "time": 145.59999999999894,
          "velocity": 0.8661417322834646,
          "duration": 0.19583333333332575
        },
        {
          "name": "D4",
          "midi": 62,
          "time": 145.59999999999894,
          "velocity": 0.8661417322834646,
          "duration": 0.19583333333332575
        },
        {
          "name": "F4",
          "midi": 65,
          "time": 145.59999999999894,
          "velocity": 0.8661417322834646,
          "duration": 0.19583333333332575
        },
        {
          "name": "A4",
          "midi": 69,
          "time": 145.59999999999894,
          "velocity": 0.8661417322834646,
          "duration": 0.39999999999997726
        },
        {
          "name": "C#2",
          "midi": 37,
          "time": 145.59999999999894,
          "velocity": 0.3543307086614173,
          "duration": 0.19583333333332575
        },
        {
          "name": "E2",
          "midi": 40,
          "time": 145.59999999999894,
          "velocity": 0.3543307086614173,
          "duration": 0.19583333333332575
        },
        {
          "name": "C5",
          "midi": 72,
          "time": 145.79999999999893,
          "velocity": 0.8661417322834646,
          "duration": 0.3958333333333144
        },
        {
          "name": "A3",
          "midi": 57,
          "time": 145.79999999999893,
          "velocity": 0.8661417322834646,
          "duration": 0.19583333333332575
        },
        {
          "name": "D4",
          "midi": 62,
          "time": 145.79999999999893,
          "velocity": 0.8661417322834646,
          "duration": 0.19583333333332575
        },
        {
          "name": "F4",
          "midi": 65,
          "time": 145.79999999999893,
          "velocity": 0.8661417322834646,
          "duration": 0.19583333333332575
        },
        {
          "name": "C#2",
          "midi": 37,
          "time": 145.79999999999893,
          "velocity": 0.3543307086614173,
          "duration": 0.19583333333332575
        },
        {
          "name": "E2",
          "midi": 40,
          "time": 145.79999999999893,
          "velocity": 0.3543307086614173,
          "duration": 0.19583333333332575
        },
        {
          "name": "E5",
          "midi": 76,
          "time": 145.99999999999892,
          "velocity": 0.8661417322834646,
          "duration": 0.3333333333333144
        },
        {
          "name": "A#3",
          "midi": 58,
          "time": 145.99999999999892,
          "velocity": 0.8661417322834646,
          "duration": 0.19583333333332575
        },
        {
          "name": "C4",
          "midi": 60,
          "time": 145.99999999999892,
          "velocity": 0.8661417322834646,
          "duration": 0.19583333333332575
        },
        {
          "name": "G4",
          "midi": 67,
          "time": 145.99999999999892,
          "velocity": 0.8661417322834646,
          "duration": 0.19583333333332575
        },
        {
          "name": "E2",
          "midi": 40,
          "time": 145.99999999999892,
          "velocity": 0.8661417322834646,
          "duration": 0.19583333333332575
        },
        {
          "name": "A#4",
          "midi": 70,
          "time": 145.99999999999892,
          "velocity": 0.8661417322834646,
          "duration": 0.3958333333333144
        },
        {
          "name": "C#2",
          "midi": 37,
          "time": 145.99999999999892,
          "velocity": 0.3543307086614173,
          "duration": 0.19583333333332575
        },
        {
          "name": "E2",
          "midi": 40,
          "time": 145.99999999999892,
          "velocity": 0.3543307086614173,
          "duration": 0.3333333333333144
        },
        {
          "name": "A#4",
          "midi": 70,
          "time": 146.1999999999989,
          "velocity": 0.8661417322834646,
          "duration": 0.19999999999998863
        },
        {
          "name": "A#3",
          "midi": 58,
          "time": 146.1999999999989,
          "velocity": 0.8661417322834646,
          "duration": 0.19583333333332575
        },
        {
          "name": "C4",
          "midi": 60,
          "time": 146.1999999999989,
          "velocity": 0.8661417322834646,
          "duration": 0.19583333333332575
        },
        {
          "name": "G4",
          "midi": 67,
          "time": 146.1999999999989,
          "velocity": 0.8661417322834646,
          "duration": 0.19583333333332575
        },
        {
          "name": "C#2",
          "midi": 37,
          "time": 146.1999999999989,
          "velocity": 0.3543307086614173,
          "duration": 0.19583333333332575
        },
        {
          "name": "E2",
          "midi": 40,
          "time": 146.1999999999989,
          "velocity": 0.3543307086614173,
          "duration": 0.19583333333332575
        },
        {
          "name": "A2",
          "midi": 45,
          "time": 146.1999999999989,
          "velocity": 0.8661417322834646,
          "duration": 0.09583333333333144
        },
        {
          "name": "A2",
          "midi": 45,
          "time": 146.2999999999989,
          "velocity": 0.8661417322834646,
          "duration": 0.09583333333333144
        },
        {
          "name": "A4",
          "midi": 69,
          "time": 146.3999999999989,
          "velocity": 0.8661417322834646,
          "duration": 0.3333333333333144
        },
        {
          "name": "F5",
          "midi": 77,
          "time": 146.3999999999989,
          "velocity": 0.8661417322834646,
          "duration": 0.3333333333333144
        },
        {
          "name": "A3",
          "midi": 57,
          "time": 146.3999999999989,
          "velocity": 0.8661417322834646,
          "duration": 0.19583333333332575
        },
        {
          "name": "C4",
          "midi": 60,
          "time": 146.3999999999989,
          "velocity": 0.8661417322834646,
          "duration": 0.19583333333332575
        },
        {
          "name": "F4",
          "midi": 65,
          "time": 146.3999999999989,
          "velocity": 0.8661417322834646,
          "duration": 0.19583333333332575
        },
        {
          "name": "F2",
          "midi": 41,
          "time": 146.3999999999989,
          "velocity": 0.8661417322834646,
          "duration": 0.3333333333333144
        },
        {
          "name": "C5",
          "midi": 72,
          "time": 146.3999999999989,
          "velocity": 0.8661417322834646,
          "duration": 1.0999999999999375
        },
        {
          "name": "C#2",
          "midi": 37,
          "time": 146.3999999999989,
          "velocity": 0.3543307086614173,
          "duration": 0.19583333333332575
        },
        {
          "name": "E2",
          "midi": 40,
          "time": 146.3999999999989,
          "velocity": 0.3543307086614173,
          "duration": 0.19583333333332575
        },
        {
          "name": "F2",
          "midi": 41,
          "time": 146.3999999999989,
          "velocity": 0.8661417322834646,
          "duration": 0.3333333333333144
        },
        {
          "name": "A3",
          "midi": 57,
          "time": 146.5999999999989,
          "velocity": 0.8661417322834646,
          "duration": 0.09583333333333144
        },
        {
          "name": "C4",
          "midi": 60,
          "time": 146.5999999999989,
          "velocity": 0.8661417322834646,
          "duration": 0.09583333333333144
        },
        {
          "name": "F4",
          "midi": 65,
          "time": 146.5999999999989,
          "velocity": 0.8661417322834646,
          "duration": 0.09583333333333144
        },
        {
          "name": "C#2",
          "midi": 37,
          "time": 146.5999999999989,
          "velocity": 0.3543307086614173,
          "duration": 0.09583333333333144
        },
        {
          "name": "E2",
          "midi": 40,
          "time": 146.5999999999989,
          "velocity": 0.3543307086614173,
          "duration": 0.09583333333333144
        },
        {
          "name": "A3",
          "midi": 57,
          "time": 146.69999999999888,
          "velocity": 0.8661417322834646,
          "duration": 0.09583333333333144
        },
        {
          "name": "C4",
          "midi": 60,
          "time": 146.69999999999888,
          "velocity": 0.8661417322834646,
          "duration": 0.09583333333333144
        },
        {
          "name": "F4",
          "midi": 65,
          "time": 146.69999999999888,
          "velocity": 0.8661417322834646,
          "duration": 0.09583333333333144
        },
        {
          "name": "C#2",
          "midi": 37,
          "time": 146.69999999999888,
          "velocity": 0.3543307086614173,
          "duration": 0.09583333333333144
        },
        {
          "name": "E2",
          "midi": 40,
          "time": 146.69999999999888,
          "velocity": 0.3543307086614173,
          "duration": 0.09583333333333144
        },
        {
          "name": "F4",
          "midi": 65,
          "time": 146.79999999999887,
          "velocity": 0.8661417322834646,
          "duration": 0.19583333333332575
        },
        {
          "name": "C5",
          "midi": 72,
          "time": 146.79999999999887,
          "velocity": 0.8661417322834646,
          "duration": 0.7999999999999545
        },
        {
          "name": "A3",
          "midi": 57,
          "time": 146.79999999999887,
          "velocity": 0.8661417322834646,
          "duration": 0.19583333333332575
        },
        {
          "name": "C4",
          "midi": 60,
          "time": 146.79999999999887,
          "velocity": 0.8661417322834646,
          "duration": 0.19583333333332575
        },
        {
          "name": "F4",
          "midi": 65,
          "time": 146.79999999999887,
          "velocity": 0.8661417322834646,
          "duration": 0.3333333333333144
        },
        {
          "name": "C#2",
          "midi": 37,
          "time": 146.79999999999887,
          "velocity": 0.3543307086614173,
          "duration": 0.19583333333332575
        },
        {
          "name": "E2",
          "midi": 40,
          "time": 146.79999999999887,
          "velocity": 0.3543307086614173,
          "duration": 0.19583333333332575
        },
        {
          "name": "A3",
          "midi": 57,
          "time": 146.99999999999886,
          "velocity": 0.8661417322834646,
          "duration": 0.19583333333332575
        },
        {
          "name": "C4",
          "midi": 60,
          "time": 146.99999999999886,
          "velocity": 0.8661417322834646,
          "duration": 0.19583333333332575
        },
        {
          "name": "F4",
          "midi": 65,
          "time": 146.99999999999886,
          "velocity": 0.8661417322834646,
          "duration": 0.19583333333332575
        },
        {
          "name": "C#2",
          "midi": 37,
          "time": 146.99999999999886,
          "velocity": 0.3543307086614173,
          "duration": 0.19583333333332575
        },
        {
          "name": "E2",
          "midi": 40,
          "time": 146.99999999999886,
          "velocity": 0.3543307086614173,
          "duration": 0.19583333333332575
        },
        {
          "name": "C4",
          "midi": 60,
          "time": 147.19999999999885,
          "velocity": 0.8661417322834646,
          "duration": 0.19583333333332575
        },
        {
          "name": "A3",
          "midi": 57,
          "time": 147.19999999999885,
          "velocity": 0.8661417322834646,
          "duration": 0.19583333333332575
        },
        {
          "name": "C4",
          "midi": 60,
          "time": 147.19999999999885,
          "velocity": 0.8661417322834646,
          "duration": 0.3333333333333144
        },
        {
          "name": "E4",
          "midi": 64,
          "time": 147.19999999999885,
          "velocity": 0.8661417322834646,
          "duration": 0.19583333333332575
        },
        {
          "name": "A2",
          "midi": 45,
          "time": 147.19999999999885,
          "velocity": 0.8661417322834646,
          "duration": 0.3333333333333144
        },
        {
          "name": "C#2",
          "midi": 37,
          "time": 147.19999999999885,
          "velocity": 0.3543307086614173,
          "duration": 0.19583333333332575
        },
        {
          "name": "E2",
          "midi": 40,
          "time": 147.19999999999885,
          "velocity": 0.3543307086614173,
          "duration": 0.19583333333332575
        },
        {
          "name": "A2",
          "midi": 45,
          "time": 147.19999999999885,
          "velocity": 0.8661417322834646,
          "duration": 0.3333333333333144
        },
        {
          "name": "A3",
          "midi": 57,
          "time": 147.39999999999884,
          "velocity": 0.8661417322834646,
          "duration": 0.19583333333332575
        },
        {
          "name": "C4",
          "midi": 60,
          "time": 147.39999999999884,
          "velocity": 0.8661417322834646,
          "duration": 0.19583333333332575
        },
        {
          "name": "E4",
          "midi": 64,
          "time": 147.39999999999884,
          "velocity": 0.8661417322834646,
          "duration": 0.19583333333332575
        },
        {
          "name": "C#2",
          "midi": 37,
          "time": 147.39999999999884,
          "velocity": 0.3543307086614173,
          "duration": 0.19583333333332575
        },
        {
          "name": "E2",
          "midi": 40,
          "time": 147.39999999999884,
          "velocity": 0.3543307086614173,
          "duration": 0.19583333333332575
        },
        {
          "name": "D4",
          "midi": 62,
          "time": 147.59999999999883,
          "velocity": 0.8661417322834646,
          "duration": 0.19583333333332575
        },
        {
          "name": "A3",
          "midi": 57,
          "time": 147.59999999999883,
          "velocity": 0.8661417322834646,
          "duration": 0.19583333333332575
        },
        {
          "name": "D4",
          "midi": 62,
          "time": 147.59999999999883,
          "velocity": 0.8661417322834646,
          "duration": 0.29583333333332007
        },
        {
          "name": "F4",
          "midi": 65,
          "time": 147.59999999999883,
          "velocity": 0.8661417322834646,
          "duration": 0.19583333333332575
        },
        {
          "name": "D2",
          "midi": 38,
          "time": 147.59999999999883,
          "velocity": 0.8661417322834646,
          "duration": 0.3333333333333144
        },
        {
          "name": "A4",
          "midi": 69,
          "time": 147.59999999999883,
          "velocity": 0.8661417322834646,
          "duration": 0.19583333333332575
        },
        {
          "name": "C#2",
          "midi": 37,
          "time": 147.59999999999883,
          "velocity": 0.3543307086614173,
          "duration": 0.19583333333332575
        },
        {
          "name": "E2",
          "midi": 40,
          "time": 147.59999999999883,
          "velocity": 0.3543307086614173,
          "duration": 0.19583333333332575
        },
        {
          "name": "D2",
          "midi": 38,
          "time": 147.59999999999883,
          "velocity": 0.8661417322834646,
          "duration": 0.3333333333333144
        },
        {
          "name": "D3",
          "midi": 50,
          "time": 147.59999999999883,
          "velocity": 0.8661417322834646,
          "duration": 0.3333333333333144
        },
        {
          "name": "A3",
          "midi": 57,
          "time": 147.79999999999882,
          "velocity": 0.8661417322834646,
          "duration": 0.09583333333333144
        },
        {
          "name": "D4",
          "midi": 62,
          "time": 147.79999999999882,
          "velocity": 0.8661417322834646,
          "duration": 0.19583333333332575
        },
        {
          "name": "F4",
          "midi": 65,
          "time": 147.79999999999882,
          "velocity": 0.8661417322834646,
          "duration": 0.09583333333333144
        },
        {
          "name": "C#2",
          "midi": 37,
          "time": 147.79999999999882,
          "velocity": 0.3543307086614173,
          "duration": 0.09583333333333144
        },
        {
          "name": "E2",
          "midi": 40,
          "time": 147.79999999999882,
          "velocity": 0.3543307086614173,
          "duration": 0.09583333333333144
        },
        {
          "name": "F4",
          "midi": 65,
          "time": 147.8999999999988,
          "velocity": 0.8661417322834646,
          "duration": 0.09583333333333144
        },
        {
          "name": "C#2",
          "midi": 37,
          "time": 147.8999999999988,
          "velocity": 0.3543307086614173,
          "duration": 0.09583333333333144
        },
        {
          "name": "E2",
          "midi": 40,
          "time": 147.8999999999988,
          "velocity": 0.3543307086614173,
          "duration": 0.09583333333333144
        },
        {
          "name": "D4",
          "midi": 62,
          "time": 147.8999999999988,
          "velocity": 0.8661417322834646,
          "duration": 0.2958333333332632
        },
        {
          "name": "A3",
          "midi": 57,
          "time": 147.8999999999988,
          "velocity": 0.8661417322834646,
          "duration": 0.09583333333333144
        },
        {
          "name": "D5",
          "midi": 74,
          "time": 147.9999999999988,
          "velocity": 0.8661417322834646,
          "duration": 0.3333333333332291
        },
        {
          "name": "A3",
          "midi": 57,
          "time": 147.9999999999988,
          "velocity": 0.8661417322834646,
          "duration": 0.1958333333332689
        },
        {
          "name": "D4",
          "midi": 62,
          "time": 147.9999999999988,
          "velocity": 0.8661417322834646,
          "duration": 0.3958333333332007
        },
        {
          "name": "F4",
          "midi": 65,
          "time": 147.9999999999988,
          "velocity": 0.8661417322834646,
          "duration": 0.1958333333332689
        },
        {
          "name": "C#2",
          "midi": 37,
          "time": 147.9999999999988,
          "velocity": 0.3543307086614173,
          "duration": 0.1958333333332689
        },
        {
          "name": "E2",
          "midi": 40,
          "time": 147.9999999999988,
          "velocity": 0.3543307086614173,
          "duration": 0.1958333333332689
        },
        {
          "name": "D2",
          "midi": 38,
          "time": 147.9999999999988,
          "velocity": 0.8661417322834646,
          "duration": 0.04583333333332007
        },
        {
          "name": "D2",
          "midi": 38,
          "time": 148.0499999999988,
          "velocity": 0.8661417322834646,
          "duration": 0.04583333333332007
        },
        {
          "name": "D2",
          "midi": 38,
          "time": 148.09999999999877,
          "velocity": 0.8661417322834646,
          "duration": 0.04583333333332007
        },
        {
          "name": "D2",
          "midi": 38,
          "time": 148.14999999999876,
          "velocity": 0.8661417322834646,
          "duration": 0.04583333333332007
        },
        {
          "name": "A3",
          "midi": 57,
          "time": 148.19999999999874,
          "velocity": 0.8661417322834646,
          "duration": 0.1958333333332689
        },
        {
          "name": "D4",
          "midi": 62,
          "time": 148.19999999999874,
          "velocity": 0.8661417322834646,
          "duration": 0.3958333333332007
        },
        {
          "name": "F4",
          "midi": 65,
          "time": 148.19999999999874,
          "velocity": 0.8661417322834646,
          "duration": 0.1958333333332689
        },
        {
          "name": "C#2",
          "midi": 37,
          "time": 148.19999999999874,
          "velocity": 0.3543307086614173,
          "duration": 0.1958333333332689
        },
        {
          "name": "E2",
          "midi": 40,
          "time": 148.19999999999874,
          "velocity": 0.3543307086614173,
          "duration": 0.1958333333332689
        },
        {
          "name": "D2",
          "midi": 38,
          "time": 148.19999999999874,
          "velocity": 0.8661417322834646,
          "duration": 0.04583333333332007
        },
        {
          "name": "D2",
          "midi": 38,
          "time": 148.24999999999872,
          "velocity": 0.8661417322834646,
          "duration": 0.04583333333332007
        },
        {
          "name": "D2",
          "midi": 38,
          "time": 148.2999999999987,
          "velocity": 0.8661417322834646,
          "duration": 0.04583333333332007
        },
        {
          "name": "D2",
          "midi": 38,
          "time": 148.3499999999987,
          "velocity": 0.8661417322834646,
          "duration": 0.04583333333332007
        },
        {
          "name": "C5",
          "midi": 72,
          "time": 148.39999999999867,
          "velocity": 0.8661417322834646,
          "duration": 0.3333333333332291
        },
        {
          "name": "A3",
          "midi": 57,
          "time": 148.39999999999867,
          "velocity": 0.8661417322834646,
          "duration": 0.1958333333332689
        },
        {
          "name": "D4",
          "midi": 62,
          "time": 148.39999999999867,
          "velocity": 0.8661417322834646,
          "duration": 0.3958333333332007
        },
        {
          "name": "F4",
          "midi": 65,
          "time": 148.39999999999867,
          "velocity": 0.8661417322834646,
          "duration": 0.1958333333332689
        },
        {
          "name": "A1",
          "midi": 33,
          "time": 148.39999999999867,
          "velocity": 0.8661417322834646,
          "duration": 0.3333333333332291
        },
        {
          "name": "C#2",
          "midi": 37,
          "time": 148.39999999999867,
          "velocity": 0.3543307086614173,
          "duration": 0.1958333333332689
        },
        {
          "name": "E2",
          "midi": 40,
          "time": 148.39999999999867,
          "velocity": 0.3543307086614173,
          "duration": 0.1958333333332689
        },
        {
          "name": "D2",
          "midi": 38,
          "time": 148.39999999999867,
          "velocity": 0.8661417322834646,
          "duration": 0.04583333333332007
        },
        {
          "name": "D2",
          "midi": 38,
          "time": 148.44999999999865,
          "velocity": 0.8661417322834646,
          "duration": 0.04583333333332007
        },
        {
          "name": "D2",
          "midi": 38,
          "time": 148.49999999999864,
          "velocity": 0.8661417322834646,
          "duration": 0.04583333333332007
        },
        {
          "name": "D2",
          "midi": 38,
          "time": 148.54999999999862,
          "velocity": 0.8661417322834646,
          "duration": 0.04583333333332007
        },
        {
          "name": "A3",
          "midi": 57,
          "time": 148.5999999999986,
          "velocity": 0.8661417322834646,
          "duration": 0.1958333333332689
        },
        {
          "name": "D4",
          "midi": 62,
          "time": 148.5999999999986,
          "velocity": 0.8661417322834646,
          "duration": 0.39583333333325754
        },
        {
          "name": "F4",
          "midi": 65,
          "time": 148.5999999999986,
          "velocity": 0.8661417322834646,
          "duration": 0.1958333333332689
        },
        {
          "name": "C#2",
          "midi": 37,
          "time": 148.5999999999986,
          "velocity": 0.3543307086614173,
          "duration": 0.1958333333332689
        },
        {
          "name": "E2",
          "midi": 40,
          "time": 148.5999999999986,
          "velocity": 0.3543307086614173,
          "duration": 0.1958333333332689
        },
        {
          "name": "D2",
          "midi": 38,
          "time": 148.5999999999986,
          "velocity": 0.8661417322834646,
          "duration": 0.04583333333332007
        },
        {
          "name": "D2",
          "midi": 38,
          "time": 148.64999999999858,
          "velocity": 0.8661417322834646,
          "duration": 0.04583333333332007
        },
        {
          "name": "D2",
          "midi": 38,
          "time": 148.69999999999857,
          "velocity": 0.8661417322834646,
          "duration": 0.04583333333332007
        },
        {
          "name": "D2",
          "midi": 38,
          "time": 148.74999999999855,
          "velocity": 0.8661417322834646,
          "duration": 0.04583333333332007
        },
        {
          "name": "D5",
          "midi": 74,
          "time": 148.79999999999853,
          "velocity": 0.8661417322834646,
          "duration": 1.0999999999999375
        },
        {
          "name": "A3",
          "midi": 57,
          "time": 148.79999999999853,
          "velocity": 0.8661417322834646,
          "duration": 0.19583333333332575
        },
        {
          "name": "D4",
          "midi": 62,
          "time": 148.79999999999853,
          "velocity": 0.8661417322834646,
          "duration": 0.29583333333332007
        },
        {
          "name": "F4",
          "midi": 65,
          "time": 148.79999999999853,
          "velocity": 0.8661417322834646,
          "duration": 0.19583333333332575
        },
        {
          "name": "D2",
          "midi": 38,
          "time": 148.79999999999853,
          "velocity": 0.8661417322834646,
          "duration": 0.3333333333333144
        },
        {
          "name": "C#2",
          "midi": 37,
          "time": 148.79999999999853,
          "velocity": 0.3543307086614173,
          "duration": 0.19583333333332575
        },
        {
          "name": "E2",
          "midi": 40,
          "time": 148.79999999999853,
          "velocity": 0.3543307086614173,
          "duration": 0.19583333333332575
        },
        {
          "name": "D2",
          "midi": 38,
          "time": 148.79999999999853,
          "velocity": 0.8661417322834646,
          "duration": 0.3333333333333144
        },
        {
          "name": "D3",
          "midi": 50,
          "time": 148.79999999999853,
          "velocity": 0.8661417322834646,
          "duration": 0.3333333333333144
        },
        {
          "name": "A3",
          "midi": 57,
          "time": 148.99999999999852,
          "velocity": 0.8661417322834646,
          "duration": 0.09583333333333144
        },
        {
          "name": "D4",
          "midi": 62,
          "time": 148.99999999999852,
          "velocity": 0.8661417322834646,
          "duration": 0.19583333333332575
        },
        {
          "name": "F4",
          "midi": 65,
          "time": 148.99999999999852,
          "velocity": 0.8661417322834646,
          "duration": 0.09583333333333144
        },
        {
          "name": "D4",
          "midi": 62,
          "time": 148.99999999999852,
          "velocity": 1,
          "duration": 0.3333333333333144
        },
        {
          "name": "F4",
          "midi": 65,
          "time": 148.99999999999852,
          "velocity": 1,
          "duration": 0.19583333333332575
        },
        {
          "name": "A4",
          "midi": 69,
          "time": 148.99999999999852,
          "velocity": 1,
          "duration": 0.3333333333333144
        },
        {
          "name": "C#2",
          "midi": 37,
          "time": 148.99999999999852,
          "velocity": 0.3543307086614173,
          "duration": 0.09583333333333144
        },
        {
          "name": "E2",
          "midi": 40,
          "time": 148.99999999999852,
          "velocity": 0.3543307086614173,
          "duration": 0.09583333333333144
        },
        {
          "name": "A3",
          "midi": 57,
          "time": 149.09999999999852,
          "velocity": 0.8661417322834646,
          "duration": 0.09583333333333144
        },
        {
          "name": "D4",
          "midi": 62,
          "time": 149.09999999999852,
          "velocity": 0.8661417322834646,
          "duration": 0.29583333333332007
        },
        {
          "name": "F4",
          "midi": 65,
          "time": 149.09999999999852,
          "velocity": 0.8661417322834646,
          "duration": 0.23333333333332007
        },
        {
          "name": "C#2",
          "midi": 37,
          "time": 149.09999999999852,
          "velocity": 0.3543307086614173,
          "duration": 0.09583333333333144
        },
        {
          "name": "E2",
          "midi": 40,
          "time": 149.09999999999852,
          "velocity": 0.3543307086614173,
          "duration": 0.09583333333333144
        },
        {
          "name": "A3",
          "midi": 57,
          "time": 149.1999999999985,
          "velocity": 0.8661417322834646,
          "duration": 0.19583333333332575
        },
        {
          "name": "D4",
          "midi": 62,
          "time": 149.1999999999985,
          "velocity": 0.8661417322834646,
          "duration": 0.29583333333332007
        },
        {
          "name": "F4",
          "midi": 65,
          "time": 149.1999999999985,
          "velocity": 0.8661417322834646,
          "duration": 0.19583333333332575
        },
        {
          "name": "C#2",
          "midi": 37,
          "time": 149.1999999999985,
          "velocity": 0.3543307086614173,
          "duration": 0.19583333333332575
        },
        {
          "name": "E2",
          "midi": 40,
          "time": 149.1999999999985,
          "velocity": 0.3543307086614173,
          "duration": 0.19583333333332575
        },
        {
          "name": "A1",
          "midi": 33,
          "time": 149.1999999999985,
          "velocity": 0.8661417322834646,
          "duration": 0.3333333333333144
        },
        {
          "name": "A2",
          "midi": 45,
          "time": 149.1999999999985,
          "velocity": 0.8661417322834646,
          "duration": 0.3333333333333144
        },
        {
          "name": "A3",
          "midi": 57,
          "time": 149.3999999999985,
          "velocity": 0.8661417322834646,
          "duration": 0.19583333333332575
        },
        {
          "name": "D4",
          "midi": 62,
          "time": 149.3999999999985,
          "velocity": 0.8661417322834646,
          "duration": 0.19583333333332575
        },
        {
          "name": "F4",
          "midi": 65,
          "time": 149.3999999999985,
          "velocity": 0.8661417322834646,
          "duration": 0.09583333333333144
        },
        {
          "name": "D4",
          "midi": 62,
          "time": 149.3999999999985,
          "velocity": 0.8661417322834646,
          "duration": 0.19583333333332575
        },
        {
          "name": "F4",
          "midi": 65,
          "time": 149.3999999999985,
          "velocity": 0.8661417322834646,
          "duration": 0.19583333333332575
        },
        {
          "name": "A4",
          "midi": 69,
          "time": 149.3999999999985,
          "velocity": 0.8661417322834646,
          "duration": 0.09583333333333144
        },
        {
          "name": "C#2",
          "midi": 37,
          "time": 149.3999999999985,
          "velocity": 0.3543307086614173,
          "duration": 0.19583333333332575
        },
        {
          "name": "E2",
          "midi": 40,
          "time": 149.3999999999985,
          "velocity": 0.3543307086614173,
          "duration": 0.19583333333332575
        },
        {
          "name": "D4",
          "midi": 62,
          "time": 149.4999999999985,
          "velocity": 0.8661417322834646,
          "duration": 0.29583333333332007
        },
        {
          "name": "F4",
          "midi": 65,
          "time": 149.4999999999985,
          "velocity": 0.8661417322834646,
          "duration": 0.09583333333333144
        },
        {
          "name": "A4",
          "midi": 69,
          "time": 149.4999999999985,
          "velocity": 0.8661417322834646,
          "duration": 0.09583333333333144
        },
        {
          "name": "A3",
          "midi": 57,
          "time": 149.5999999999985,
          "velocity": 0.8661417322834646,
          "duration": 0.19583333333332575
        },
        {
          "name": "D4",
          "midi": 62,
          "time": 149.5999999999985,
          "velocity": 0.8661417322834646,
          "duration": 0.19583333333332575
        },
        {
          "name": "F4",
          "midi": 65,
          "time": 149.5999999999985,
          "velocity": 0.8661417322834646,
          "duration": 0.19583333333332575
        },
        {
          "name": "A1",
          "midi": 33,
          "time": 149.5999999999985,
          "velocity": 0.8661417322834646,
          "duration": 0.3333333333333144
        },
        {
          "name": "D4",
          "midi": 62,
          "time": 149.5999999999985,
          "velocity": 0.8661417322834646,
          "duration": 0.29999999999998295
        },
        {
          "name": "F4",
          "midi": 65,
          "time": 149.5999999999985,
          "velocity": 0.8661417322834646,
          "duration": 0.19583333333332575
        },
        {
          "name": "A4",
          "midi": 69,
          "time": 149.5999999999985,
          "velocity": 0.8661417322834646,
          "duration": 0.19583333333332575
        },
        {
          "name": "C#2",
          "midi": 37,
          "time": 149.5999999999985,
          "velocity": 0.3543307086614173,
          "duration": 0.19583333333332575
        },
        {
          "name": "E2",
          "midi": 40,
          "time": 149.5999999999985,
          "velocity": 0.3543307086614173,
          "duration": 0.19583333333332575
        },
        {
          "name": "D1",
          "midi": 26,
          "time": 149.5999999999985,
          "velocity": 0.8661417322834646,
          "duration": 0.3333333333333144
        },
        {
          "name": "D2",
          "midi": 38,
          "time": 149.5999999999985,
          "velocity": 0.8661417322834646,
          "duration": 0.3333333333333144
        },
        {
          "name": "A3",
          "midi": 57,
          "time": 149.79999999999848,
          "velocity": 0.8661417322834646,
          "duration": 0.19583333333332575
        },
        {
          "name": "D4",
          "midi": 62,
          "time": 149.79999999999848,
          "velocity": 0.8661417322834646,
          "duration": 0.19583333333332575
        },
        {
          "name": "F4",
          "midi": 65,
          "time": 149.79999999999848,
          "velocity": 0.8661417322834646,
          "duration": 0.19583333333332575
        },
        {
          "name": "C#2",
          "midi": 37,
          "time": 149.79999999999848,
          "velocity": 0.3543307086614173,
          "duration": 0.19583333333332575
        },
        {
          "name": "E2",
          "midi": 40,
          "time": 149.79999999999848,
          "velocity": 0.3543307086614173,
          "duration": 0.19583333333332575
        },
        {
          "name": "F4",
          "midi": 65,
          "time": 149.99999999999847,
          "velocity": 0.8661417322834646,
          "duration": 0.19583333333332575
        },
        {
          "name": "A3",
          "midi": 57,
          "time": 149.99999999999847,
          "velocity": 0.8661417322834646,
          "duration": 0.19583333333332575
        },
        {
          "name": "D4",
          "midi": 62,
          "time": 149.99999999999847,
          "velocity": 0.8661417322834646,
          "duration": 0.19583333333332575
        },
        {
          "name": "F4",
          "midi": 65,
          "time": 149.99999999999847,
          "velocity": 0.8661417322834646,
          "duration": 0.29583333333332007
        },
        {
          "name": "D2",
          "midi": 38,
          "time": 149.99999999999847,
          "velocity": 0.8661417322834646,
          "duration": 0.3333333333333144
        },
        {
          "name": "C#2",
          "midi": 37,
          "time": 149.99999999999847,
          "velocity": 0.3543307086614173,
          "duration": 0.19583333333332575
        },
        {
          "name": "E2",
          "midi": 40,
          "time": 149.99999999999847,
          "velocity": 0.3543307086614173,
          "duration": 0.19583333333332575
        },
        {
          "name": "D2",
          "midi": 38,
          "time": 149.99999999999847,
          "velocity": 0.8661417322834646,
          "duration": 0.3333333333333144
        },
        {
          "name": "D3",
          "midi": 50,
          "time": 149.99999999999847,
          "velocity": 0.8661417322834646,
          "duration": 0.3333333333333144
        },
        {
          "name": "A3",
          "midi": 57,
          "time": 150.19999999999845,
          "velocity": 0.8661417322834646,
          "duration": 0.09583333333333144
        },
        {
          "name": "D4",
          "midi": 62,
          "time": 150.19999999999845,
          "velocity": 0.8661417322834646,
          "duration": 0.09583333333333144
        },
        {
          "name": "F4",
          "midi": 65,
          "time": 150.19999999999845,
          "velocity": 0.8661417322834646,
          "duration": 0.19583333333332575
        },
        {
          "name": "C#2",
          "midi": 37,
          "time": 150.19999999999845,
          "velocity": 0.3543307086614173,
          "duration": 0.09583333333333144
        },
        {
          "name": "E2",
          "midi": 40,
          "time": 150.19999999999845,
          "velocity": 0.3543307086614173,
          "duration": 0.09583333333333144
        },
        {
          "name": "A3",
          "midi": 57,
          "time": 150.29999999999845,
          "velocity": 0.8661417322834646,
          "duration": 0.09583333333333144
        },
        {
          "name": "D4",
          "midi": 62,
          "time": 150.29999999999845,
          "velocity": 0.8661417322834646,
          "duration": 0.09583333333333144
        },
        {
          "name": "F4",
          "midi": 65,
          "time": 150.29999999999845,
          "velocity": 0.8661417322834646,
          "duration": 0.23333333333332007
        },
        {
          "name": "C#2",
          "midi": 37,
          "time": 150.29999999999845,
          "velocity": 0.3543307086614173,
          "duration": 0.09583333333333144
        },
        {
          "name": "E2",
          "midi": 40,
          "time": 150.29999999999845,
          "velocity": 0.3543307086614173,
          "duration": 0.09583333333333144
        },
        {
          "name": "A3",
          "midi": 57,
          "time": 150.39999999999844,
          "velocity": 0.8661417322834646,
          "duration": 0.19583333333332575
        },
        {
          "name": "D4",
          "midi": 62,
          "time": 150.39999999999844,
          "velocity": 0.8661417322834646,
          "duration": 0.19583333333332575
        },
        {
          "name": "F4",
          "midi": 65,
          "time": 150.39999999999844,
          "velocity": 0.8661417322834646,
          "duration": 0.19583333333332575
        },
        {
          "name": "C#2",
          "midi": 37,
          "time": 150.39999999999844,
          "velocity": 0.3543307086614173,
          "duration": 0.19583333333332575
        },
        {
          "name": "E2",
          "midi": 40,
          "time": 150.39999999999844,
          "velocity": 0.3543307086614173,
          "duration": 0.19583333333332575
        },
        {
          "name": "D4",
          "midi": 62,
          "time": 150.59999999999843,
          "velocity": 0.8661417322834646,
          "duration": 0.19583333333332575
        },
        {
          "name": "A3",
          "midi": 57,
          "time": 150.59999999999843,
          "velocity": 0.8661417322834646,
          "duration": 0.19583333333332575
        },
        {
          "name": "D4",
          "midi": 62,
          "time": 150.59999999999843,
          "velocity": 0.8661417322834646,
          "duration": 0.3958333333333144
        },
        {
          "name": "F4",
          "midi": 65,
          "time": 150.59999999999843,
          "velocity": 0.8661417322834646,
          "duration": 0.19583333333332575
        },
        {
          "name": "C#2",
          "midi": 37,
          "time": 150.59999999999843,
          "velocity": 0.3543307086614173,
          "duration": 0.19583333333332575
        },
        {
          "name": "E2",
          "midi": 40,
          "time": 150.59999999999843,
          "velocity": 0.3543307086614173,
          "duration": 0.19583333333332575
        },
        {
          "name": "A3",
          "midi": 57,
          "time": 150.79999999999842,
          "velocity": 0.8661417322834646,
          "duration": 0.19583333333332575
        },
        {
          "name": "D4",
          "midi": 62,
          "time": 150.79999999999842,
          "velocity": 0.8661417322834646,
          "duration": 0.19583333333332575
        },
        {
          "name": "F4",
          "midi": 65,
          "time": 150.79999999999842,
          "velocity": 0.8661417322834646,
          "duration": 0.19583333333332575
        },
        {
          "name": "A1",
          "midi": 33,
          "time": 150.79999999999842,
          "velocity": 0.8661417322834646,
          "duration": 0.3333333333333144
        },
        {
          "name": "C#2",
          "midi": 37,
          "time": 150.79999999999842,
          "velocity": 0.3543307086614173,
          "duration": 0.19583333333332575
        },
        {
          "name": "E2",
          "midi": 40,
          "time": 150.79999999999842,
          "velocity": 0.3543307086614173,
          "duration": 0.19583333333332575
        },
        {
          "name": "F4",
          "midi": 65,
          "time": 150.9999999999984,
          "velocity": 0.8661417322834646,
          "duration": 0.19583333333332575
        },
        {
          "name": "A3",
          "midi": 57,
          "time": 150.9999999999984,
          "velocity": 0.8661417322834646,
          "duration": 0.19583333333332575
        },
        {
          "name": "D4",
          "midi": 62,
          "time": 150.9999999999984,
          "velocity": 0.8661417322834646,
          "duration": 0.19583333333332575
        },
        {
          "name": "F4",
          "midi": 65,
          "time": 150.9999999999984,
          "velocity": 0.8661417322834646,
          "duration": 0.19583333333332575
        },
        {
          "name": "C#2",
          "midi": 37,
          "time": 150.9999999999984,
          "velocity": 0.3543307086614173,
          "duration": 0.19583333333332575
        },
        {
          "name": "E2",
          "midi": 40,
          "time": 150.9999999999984,
          "velocity": 0.3543307086614173,
          "duration": 0.19583333333332575
        },
        {
          "name": "A2",
          "midi": 45,
          "time": 150.9999999999984,
          "velocity": 0.8661417322834646,
          "duration": 0.09583333333333144
        },
        {
          "name": "A2",
          "midi": 45,
          "time": 151.0999999999984,
          "velocity": 0.8661417322834646,
          "duration": 0.09583333333333144
        },
        {
          "name": "A4",
          "midi": 69,
          "time": 151.1999999999984,
          "velocity": 0.8661417322834646,
          "duration": 0.3333333333333144
        },
        {
          "name": "A3",
          "midi": 57,
          "time": 151.1999999999984,
          "velocity": 0.8661417322834646,
          "duration": 0.19583333333332575
        },
        {
          "name": "D4",
          "midi": 62,
          "time": 151.1999999999984,
          "velocity": 0.8661417322834646,
          "duration": 0.19583333333332575
        },
        {
          "name": "F4",
          "midi": 65,
          "time": 151.1999999999984,
          "velocity": 0.8661417322834646,
          "duration": 0.19583333333332575
        },
        {
          "name": "D2",
          "midi": 38,
          "time": 151.1999999999984,
          "velocity": 0.8661417322834646,
          "duration": 0.3333333333333144
        },
        {
          "name": "C#2",
          "midi": 37,
          "time": 151.1999999999984,
          "velocity": 0.3543307086614173,
          "duration": 0.19583333333332575
        },
        {
          "name": "E2",
          "midi": 40,
          "time": 151.1999999999984,
          "velocity": 0.3543307086614173,
          "duration": 0.19583333333332575
        },
        {
          "name": "D2",
          "midi": 38,
          "time": 151.1999999999984,
          "velocity": 0.8661417322834646,
          "duration": 0.3333333333333144
        },
        {
          "name": "D3",
          "midi": 50,
          "time": 151.1999999999984,
          "velocity": 0.8661417322834646,
          "duration": 0.3333333333333144
        },
        {
          "name": "A3",
          "midi": 57,
          "time": 151.39999999999839,
          "velocity": 0.8661417322834646,
          "duration": 0.09583333333333144
        },
        {
          "name": "D4",
          "midi": 62,
          "time": 151.39999999999839,
          "velocity": 0.8661417322834646,
          "duration": 0.09583333333333144
        },
        {
          "name": "F4",
          "midi": 65,
          "time": 151.39999999999839,
          "velocity": 0.8661417322834646,
          "duration": 0.09583333333333144
        },
        {
          "name": "C#2",
          "midi": 37,
          "time": 151.39999999999839,
          "velocity": 0.3543307086614173,
          "duration": 0.09583333333333144
        },
        {
          "name": "E2",
          "midi": 40,
          "time": 151.39999999999839,
          "velocity": 0.3543307086614173,
          "duration": 0.09583333333333144
        },
        {
          "name": "A3",
          "midi": 57,
          "time": 151.49999999999838,
          "velocity": 0.8661417322834646,
          "duration": 0.09583333333333144
        },
        {
          "name": "D4",
          "midi": 62,
          "time": 151.49999999999838,
          "velocity": 0.8661417322834646,
          "duration": 0.09583333333333144
        },
        {
          "name": "F4",
          "midi": 65,
          "time": 151.49999999999838,
          "velocity": 0.8661417322834646,
          "duration": 0.09583333333333144
        },
        {
          "name": "C#2",
          "midi": 37,
          "time": 151.49999999999838,
          "velocity": 0.3543307086614173,
          "duration": 0.09583333333333144
        },
        {
          "name": "E2",
          "midi": 40,
          "time": 151.49999999999838,
          "velocity": 0.3543307086614173,
          "duration": 0.09583333333333144
        },
        {
          "name": "G4",
          "midi": 67,
          "time": 151.59999999999837,
          "velocity": 0.8661417322834646,
          "duration": 0.3333333333333144
        },
        {
          "name": "A3",
          "midi": 57,
          "time": 151.59999999999837,
          "velocity": 0.8661417322834646,
          "duration": 0.19583333333332575
        },
        {
          "name": "D4",
          "midi": 62,
          "time": 151.59999999999837,
          "velocity": 0.8661417322834646,
          "duration": 0.19583333333332575
        },
        {
          "name": "F4",
          "midi": 65,
          "time": 151.59999999999837,
          "velocity": 0.8661417322834646,
          "duration": 0.19583333333332575
        },
        {
          "name": "C#2",
          "midi": 37,
          "time": 151.59999999999837,
          "velocity": 0.3543307086614173,
          "duration": 0.19583333333332575
        },
        {
          "name": "E2",
          "midi": 40,
          "time": 151.59999999999837,
          "velocity": 0.3543307086614173,
          "duration": 0.19583333333332575
        },
        {
          "name": "A3",
          "midi": 57,
          "time": 151.79999999999836,
          "velocity": 0.8661417322834646,
          "duration": 0.19583333333332575
        },
        {
          "name": "D4",
          "midi": 62,
          "time": 151.79999999999836,
          "velocity": 0.8661417322834646,
          "duration": 0.19583333333332575
        },
        {
          "name": "F4",
          "midi": 65,
          "time": 151.79999999999836,
          "velocity": 0.8661417322834646,
          "duration": 0.19583333333332575
        },
        {
          "name": "C#2",
          "midi": 37,
          "time": 151.79999999999836,
          "velocity": 0.3543307086614173,
          "duration": 0.19583333333332575
        },
        {
          "name": "E2",
          "midi": 40,
          "time": 151.79999999999836,
          "velocity": 0.3543307086614173,
          "duration": 0.19583333333332575
        },
        {
          "name": "F4",
          "midi": 65,
          "time": 151.99999999999835,
          "velocity": 0.8661417322834646,
          "duration": 0.19583333333332575
        },
        {
          "name": "A3",
          "midi": 57,
          "time": 151.99999999999835,
          "velocity": 0.8661417322834646,
          "duration": 0.19583333333332575
        },
        {
          "name": "D4",
          "midi": 62,
          "time": 151.99999999999835,
          "velocity": 0.8661417322834646,
          "duration": 0.19583333333332575
        },
        {
          "name": "F4",
          "midi": 65,
          "time": 151.99999999999835,
          "velocity": 0.8661417322834646,
          "duration": 0.3333333333333144
        },
        {
          "name": "A1",
          "midi": 33,
          "time": 151.99999999999835,
          "velocity": 0.8661417322834646,
          "duration": 0.3333333333333144
        },
        {
          "name": "C#2",
          "midi": 37,
          "time": 151.99999999999835,
          "velocity": 0.3543307086614173,
          "duration": 0.19583333333332575
        },
        {
          "name": "E2",
          "midi": 40,
          "time": 151.99999999999835,
          "velocity": 0.3543307086614173,
          "duration": 0.19583333333332575
        },
        {
          "name": "A3",
          "midi": 57,
          "time": 152.19999999999834,
          "velocity": 0.8661417322834646,
          "duration": 0.19583333333332575
        },
        {
          "name": "D4",
          "midi": 62,
          "time": 152.19999999999834,
          "velocity": 0.8661417322834646,
          "duration": 0.19583333333332575
        },
        {
          "name": "F4",
          "midi": 65,
          "time": 152.19999999999834,
          "velocity": 0.8661417322834646,
          "duration": 0.19583333333332575
        },
        {
          "name": "C#2",
          "midi": 37,
          "time": 152.19999999999834,
          "velocity": 0.3543307086614173,
          "duration": 0.19583333333332575
        },
        {
          "name": "E2",
          "midi": 40,
          "time": 152.19999999999834,
          "velocity": 0.3543307086614173,
          "duration": 0.19583333333332575
        },
        {
          "name": "A2",
          "midi": 45,
          "time": 152.19999999999834,
          "velocity": 0.8661417322834646,
          "duration": 0.09583333333333144
        },
        {
          "name": "A2",
          "midi": 45,
          "time": 152.29999999999833,
          "velocity": 0.8661417322834646,
          "duration": 0.09583333333333144
        },
        {
          "name": "A4",
          "midi": 69,
          "time": 152.39999999999833,
          "velocity": 0.8661417322834646,
          "duration": 0.7958333333332916
        },
        {
          "name": "A3",
          "midi": 57,
          "time": 152.39999999999833,
          "velocity": 0.8661417322834646,
          "duration": 0.19583333333332575
        },
        {
          "name": "D4",
          "midi": 62,
          "time": 152.39999999999833,
          "velocity": 0.8661417322834646,
          "duration": 0.19583333333332575
        },
        {
          "name": "F4",
          "midi": 65,
          "time": 152.39999999999833,
          "velocity": 0.8661417322834646,
          "duration": 0.19583333333332575
        },
        {
          "name": "D2",
          "midi": 38,
          "time": 152.39999999999833,
          "velocity": 0.8661417322834646,
          "duration": 0.3333333333333144
        },
        {
          "name": "C#2",
          "midi": 37,
          "time": 152.39999999999833,
          "velocity": 0.3543307086614173,
          "duration": 0.19583333333332575
        },
        {
          "name": "E2",
          "midi": 40,
          "time": 152.39999999999833,
          "velocity": 0.3543307086614173,
          "duration": 0.19583333333332575
        },
        {
          "name": "D2",
          "midi": 38,
          "time": 152.39999999999833,
          "velocity": 0.8661417322834646,
          "duration": 0.3333333333333144
        },
        {
          "name": "D3",
          "midi": 50,
          "time": 152.39999999999833,
          "velocity": 0.8661417322834646,
          "duration": 0.3333333333333144
        },
        {
          "name": "A3",
          "midi": 57,
          "time": 152.59999999999832,
          "velocity": 0.8661417322834646,
          "duration": 0.09583333333333144
        },
        {
          "name": "D4",
          "midi": 62,
          "time": 152.59999999999832,
          "velocity": 0.8661417322834646,
          "duration": 0.09583333333333144
        },
        {
          "name": "F4",
          "midi": 65,
          "time": 152.59999999999832,
          "velocity": 0.8661417322834646,
          "duration": 0.09583333333333144
        },
        {
          "name": "A3",
          "midi": 57,
          "time": 152.59999999999832,
          "velocity": 0.8661417322834646,
          "duration": 0.09583333333333144
        },
        {
          "name": "D4",
          "midi": 62,
          "time": 152.59999999999832,
          "velocity": 0.8661417322834646,
          "duration": 0.09583333333333144
        },
        {
          "name": "F4",
          "midi": 65,
          "time": 152.59999999999832,
          "velocity": 0.8661417322834646,
          "duration": 0.09583333333333144
        },
        {
          "name": "C#2",
          "midi": 37,
          "time": 152.59999999999832,
          "velocity": 0.3543307086614173,
          "duration": 0.09583333333333144
        },
        {
          "name": "E2",
          "midi": 40,
          "time": 152.59999999999832,
          "velocity": 0.3543307086614173,
          "duration": 0.09583333333333144
        },
        {
          "name": "A3",
          "midi": 57,
          "time": 152.6999999999983,
          "velocity": 0.8661417322834646,
          "duration": 0.09583333333333144
        },
        {
          "name": "D4",
          "midi": 62,
          "time": 152.6999999999983,
          "velocity": 0.8661417322834646,
          "duration": 0.09583333333333144
        },
        {
          "name": "F4",
          "midi": 65,
          "time": 152.6999999999983,
          "velocity": 0.8661417322834646,
          "duration": 0.09583333333333144
        },
        {
          "name": "A3",
          "midi": 57,
          "time": 152.6999999999983,
          "velocity": 0.8661417322834646,
          "duration": 0.09583333333333144
        },
        {
          "name": "D4",
          "midi": 62,
          "time": 152.6999999999983,
          "velocity": 0.8661417322834646,
          "duration": 0.09583333333333144
        },
        {
          "name": "F4",
          "midi": 65,
          "time": 152.6999999999983,
          "velocity": 0.8661417322834646,
          "duration": 0.09583333333333144
        },
        {
          "name": "C#2",
          "midi": 37,
          "time": 152.6999999999983,
          "velocity": 0.3543307086614173,
          "duration": 0.09583333333333144
        },
        {
          "name": "E2",
          "midi": 40,
          "time": 152.6999999999983,
          "velocity": 0.3543307086614173,
          "duration": 0.09583333333333144
        },
        {
          "name": "A3",
          "midi": 57,
          "time": 152.7999999999983,
          "velocity": 0.8661417322834646,
          "duration": 0.19583333333332575
        },
        {
          "name": "D4",
          "midi": 62,
          "time": 152.7999999999983,
          "velocity": 0.8661417322834646,
          "duration": 0.19583333333332575
        },
        {
          "name": "F4",
          "midi": 65,
          "time": 152.7999999999983,
          "velocity": 0.8661417322834646,
          "duration": 0.19583333333332575
        },
        {
          "name": "A3",
          "midi": 57,
          "time": 152.7999999999983,
          "velocity": 0.8661417322834646,
          "duration": 0.19583333333332575
        },
        {
          "name": "D4",
          "midi": 62,
          "time": 152.7999999999983,
          "velocity": 0.8661417322834646,
          "duration": 0.19583333333332575
        },
        {
          "name": "F4",
          "midi": 65,
          "time": 152.7999999999983,
          "velocity": 0.8661417322834646,
          "duration": 0.19583333333332575
        },
        {
          "name": "C#2",
          "midi": 37,
          "time": 152.7999999999983,
          "velocity": 0.3543307086614173,
          "duration": 0.19583333333332575
        },
        {
          "name": "E2",
          "midi": 40,
          "time": 152.7999999999983,
          "velocity": 0.3543307086614173,
          "duration": 0.19583333333332575
        },
        {
          "name": "D4",
          "midi": 62,
          "time": 152.9999999999983,
          "velocity": 0.8661417322834646,
          "duration": 0.19583333333332575
        },
        {
          "name": "F4",
          "midi": 65,
          "time": 152.9999999999983,
          "velocity": 0.8661417322834646,
          "duration": 0.19583333333332575
        },
        {
          "name": "A4",
          "midi": 69,
          "time": 152.9999999999983,
          "velocity": 0.8661417322834646,
          "duration": 0.19583333333332575
        },
        {
          "name": "D4",
          "midi": 62,
          "time": 152.9999999999983,
          "velocity": 0.8661417322834646,
          "duration": 0.19583333333332575
        },
        {
          "name": "F4",
          "midi": 65,
          "time": 152.9999999999983,
          "velocity": 0.8661417322834646,
          "duration": 0.19583333333332575
        },
        {
          "name": "A4",
          "midi": 69,
          "time": 152.9999999999983,
          "velocity": 0.8661417322834646,
          "duration": 0.595833333333303
        },
        {
          "name": "C#2",
          "midi": 37,
          "time": 152.9999999999983,
          "velocity": 0.3543307086614173,
          "duration": 0.19583333333332575
        },
        {
          "name": "E2",
          "midi": 40,
          "time": 152.9999999999983,
          "velocity": 0.3543307086614173,
          "duration": 0.19583333333332575
        },
        {
          "name": "C4",
          "midi": 60,
          "time": 153.19999999999828,
          "velocity": 0.8661417322834646,
          "duration": 0.19583333333332575
        },
        {
          "name": "E4",
          "midi": 64,
          "time": 153.19999999999828,
          "velocity": 0.8661417322834646,
          "duration": 0.19583333333332575
        },
        {
          "name": "G4",
          "midi": 67,
          "time": 153.19999999999828,
          "velocity": 0.8661417322834646,
          "duration": 0.19583333333332575
        },
        {
          "name": "A1",
          "midi": 33,
          "time": 153.19999999999828,
          "velocity": 0.8661417322834646,
          "duration": 0.3333333333333144
        },
        {
          "name": "C4",
          "midi": 60,
          "time": 153.19999999999828,
          "velocity": 1,
          "duration": 0.19583333333332575
        },
        {
          "name": "E4",
          "midi": 64,
          "time": 153.19999999999828,
          "velocity": 1,
          "duration": 0.19583333333332575
        },
        {
          "name": "G4",
          "midi": 67,
          "time": 153.19999999999828,
          "velocity": 1,
          "duration": 0.19583333333332575
        },
        {
          "name": "C#2",
          "midi": 37,
          "time": 153.19999999999828,
          "velocity": 0.3543307086614173,
          "duration": 0.19583333333332575
        },
        {
          "name": "E2",
          "midi": 40,
          "time": 153.19999999999828,
          "velocity": 0.3543307086614173,
          "duration": 0.19583333333332575
        },
        {
          "name": "D4",
          "midi": 62,
          "time": 153.39999999999827,
          "velocity": 0.8661417322834646,
          "duration": 0.19583333333332575
        },
        {
          "name": "F4",
          "midi": 65,
          "time": 153.39999999999827,
          "velocity": 0.8661417322834646,
          "duration": 0.19583333333332575
        },
        {
          "name": "A4",
          "midi": 69,
          "time": 153.39999999999827,
          "velocity": 0.8661417322834646,
          "duration": 0.19583333333332575
        },
        {
          "name": "D4",
          "midi": 62,
          "time": 153.39999999999827,
          "velocity": 0.8661417322834646,
          "duration": 0.19583333333332575
        },
        {
          "name": "F4",
          "midi": 65,
          "time": 153.39999999999827,
          "velocity": 0.8661417322834646,
          "duration": 0.19583333333332575
        },
        {
          "name": "A4",
          "midi": 69,
          "time": 153.39999999999827,
          "velocity": 0.8661417322834646,
          "duration": 0.3958333333333144
        },
        {
          "name": "C#2",
          "midi": 37,
          "time": 153.39999999999827,
          "velocity": 0.3543307086614173,
          "duration": 0.19583333333332575
        },
        {
          "name": "E2",
          "midi": 40,
          "time": 153.39999999999827,
          "velocity": 0.3543307086614173,
          "duration": 0.19583333333332575
        },
        {
          "name": "A2",
          "midi": 45,
          "time": 153.39999999999827,
          "velocity": 0.8661417322834646,
          "duration": 0.09583333333333144
        },
        {
          "name": "A2",
          "midi": 45,
          "time": 153.49999999999827,
          "velocity": 0.8661417322834646,
          "duration": 0.09583333333333144
        },
        {
          "name": "F4",
          "midi": 65,
          "time": 153.59999999999826,
          "velocity": 0.8661417322834646,
          "duration": 0.19583333333332575
        },
        {
          "name": "A4",
          "midi": 69,
          "time": 153.59999999999826,
          "velocity": 0.8661417322834646,
          "duration": 0.19583333333332575
        },
        {
          "name": "D5",
          "midi": 74,
          "time": 153.59999999999826,
          "velocity": 0.8661417322834646,
          "duration": 0.19583333333332575
        },
        {
          "name": "D2",
          "midi": 38,
          "time": 153.59999999999826,
          "velocity": 0.8661417322834646,
          "duration": 0.3333333333333144
        },
        {
          "name": "F4",
          "midi": 65,
          "time": 153.59999999999826,
          "velocity": 0.8661417322834646,
          "duration": 0.19583333333332575
        },
        {
          "name": "A4",
          "midi": 69,
          "time": 153.59999999999826,
          "velocity": 0.8661417322834646,
          "duration": 0.29583333333332007
        },
        {
          "name": "D5",
          "midi": 74,
          "time": 153.59999999999826,
          "velocity": 0.8661417322834646,
          "duration": 0.19583333333332575
        },
        {
          "name": "C#2",
          "midi": 37,
          "time": 153.59999999999826,
          "velocity": 0.3543307086614173,
          "duration": 0.19583333333332575
        },
        {
          "name": "E2",
          "midi": 40,
          "time": 153.59999999999826,
          "velocity": 0.3543307086614173,
          "duration": 0.19583333333332575
        },
        {
          "name": "D2",
          "midi": 38,
          "time": 153.59999999999826,
          "velocity": 0.8661417322834646,
          "duration": 0.3333333333333144
        },
        {
          "name": "D3",
          "midi": 50,
          "time": 153.59999999999826,
          "velocity": 0.8661417322834646,
          "duration": 0.3333333333333144
        },
        {
          "name": "D4",
          "midi": 62,
          "time": 153.79999999999825,
          "velocity": 0.8661417322834646,
          "duration": 0.09583333333333144
        },
        {
          "name": "F4",
          "midi": 65,
          "time": 153.79999999999825,
          "velocity": 0.8661417322834646,
          "duration": 0.09583333333333144
        },
        {
          "name": "A4",
          "midi": 69,
          "time": 153.79999999999825,
          "velocity": 0.8661417322834646,
          "duration": 0.09583333333333144
        },
        {
          "name": "D4",
          "midi": 62,
          "time": 153.79999999999825,
          "velocity": 0.8661417322834646,
          "duration": 0.09583333333333144
        },
        {
          "name": "F4",
          "midi": 65,
          "time": 153.79999999999825,
          "velocity": 0.8661417322834646,
          "duration": 0.09583333333333144
        },
        {
          "name": "A4",
          "midi": 69,
          "time": 153.79999999999825,
          "velocity": 0.8661417322834646,
          "duration": 0.19583333333332575
        },
        {
          "name": "C#2",
          "midi": 37,
          "time": 153.79999999999825,
          "velocity": 0.3543307086614173,
          "duration": 0.09583333333333144
        },
        {
          "name": "E2",
          "midi": 40,
          "time": 153.79999999999825,
          "velocity": 0.3543307086614173,
          "duration": 0.09583333333333144
        },
        {
          "name": "D4",
          "midi": 62,
          "time": 153.89999999999824,
          "velocity": 0.8661417322834646,
          "duration": 0.09583333333333144
        },
        {
          "name": "F4",
          "midi": 65,
          "time": 153.89999999999824,
          "velocity": 0.8661417322834646,
          "duration": 0.09583333333333144
        },
        {
          "name": "A4",
          "midi": 69,
          "time": 153.89999999999824,
          "velocity": 0.8661417322834646,
          "duration": 0.09583333333333144
        },
        {
          "name": "D4",
          "midi": 62,
          "time": 153.89999999999824,
          "velocity": 0.8661417322834646,
          "duration": 0.09583333333333144
        },
        {
          "name": "F4",
          "midi": 65,
          "time": 153.89999999999824,
          "velocity": 0.8661417322834646,
          "duration": 0.09583333333333144
        },
        {
          "name": "A4",
          "midi": 69,
          "time": 153.89999999999824,
          "velocity": 0.8661417322834646,
          "duration": 0.29583333333332007
        },
        {
          "name": "C#2",
          "midi": 37,
          "time": 153.89999999999824,
          "velocity": 0.3543307086614173,
          "duration": 0.09583333333333144
        },
        {
          "name": "E2",
          "midi": 40,
          "time": 153.89999999999824,
          "velocity": 0.3543307086614173,
          "duration": 0.09583333333333144
        },
        {
          "name": "D4",
          "midi": 62,
          "time": 153.99999999999824,
          "velocity": 0.8661417322834646,
          "duration": 0.19583333333332575
        },
        {
          "name": "F4",
          "midi": 65,
          "time": 153.99999999999824,
          "velocity": 0.8661417322834646,
          "duration": 0.19583333333332575
        },
        {
          "name": "A4",
          "midi": 69,
          "time": 153.99999999999824,
          "velocity": 0.8661417322834646,
          "duration": 0.19583333333332575
        },
        {
          "name": "D4",
          "midi": 62,
          "time": 153.99999999999824,
          "velocity": 0.8661417322834646,
          "duration": 0.19583333333332575
        },
        {
          "name": "F4",
          "midi": 65,
          "time": 153.99999999999824,
          "velocity": 0.8661417322834646,
          "duration": 0.19583333333332575
        },
        {
          "name": "A4",
          "midi": 69,
          "time": 153.99999999999824,
          "velocity": 0.8661417322834646,
          "duration": 0.3958333333333144
        },
        {
          "name": "C#2",
          "midi": 37,
          "time": 153.99999999999824,
          "velocity": 0.3543307086614173,
          "duration": 0.19583333333332575
        },
        {
          "name": "E2",
          "midi": 40,
          "time": 153.99999999999824,
          "velocity": 0.3543307086614173,
          "duration": 0.19583333333332575
        },
        {
          "name": "F4",
          "midi": 65,
          "time": 154.19999999999823,
          "velocity": 0.8661417322834646,
          "duration": 0.19583333333332575
        },
        {
          "name": "A4",
          "midi": 69,
          "time": 154.19999999999823,
          "velocity": 0.8661417322834646,
          "duration": 0.19583333333332575
        },
        {
          "name": "D5",
          "midi": 74,
          "time": 154.19999999999823,
          "velocity": 0.8661417322834646,
          "duration": 0.19583333333332575
        },
        {
          "name": "F4",
          "midi": 65,
          "time": 154.19999999999823,
          "velocity": 0.8661417322834646,
          "duration": 0.19583333333332575
        },
        {
          "name": "A4",
          "midi": 69,
          "time": 154.19999999999823,
          "velocity": 0.8661417322834646,
          "duration": 0.4999999999999716
        },
        {
          "name": "D5",
          "midi": 74,
          "time": 154.19999999999823,
          "velocity": 0.8661417322834646,
          "duration": 0.19583333333332575
        },
        {
          "name": "C#2",
          "midi": 37,
          "time": 154.19999999999823,
          "velocity": 0.3543307086614173,
          "duration": 0.19583333333332575
        },
        {
          "name": "E2",
          "midi": 40,
          "time": 154.19999999999823,
          "velocity": 0.3543307086614173,
          "duration": 0.19583333333332575
        },
        {
          "name": "E4",
          "midi": 64,
          "time": 154.39999999999822,
          "velocity": 1,
          "duration": 0.3333333333333144
        },
        {
          "name": "A4",
          "midi": 69,
          "time": 154.39999999999822,
          "velocity": 1,
          "duration": 0.3333333333333144
        },
        {
          "name": "C5",
          "midi": 72,
          "time": 154.39999999999822,
          "velocity": 1,
          "duration": 0.3333333333333144
        },
        {
          "name": "A1",
          "midi": 33,
          "time": 154.39999999999822,
          "velocity": 0.8661417322834646,
          "duration": 0.3333333333333144
        },
        {
          "name": "E4",
          "midi": 64,
          "time": 154.39999999999822,
          "velocity": 1,
          "duration": 0.3333333333333144
        },
        {
          "name": "A4",
          "midi": 69,
          "time": 154.39999999999822,
          "velocity": 1,
          "duration": 0.3333333333333144
        },
        {
          "name": "C5",
          "midi": 72,
          "time": 154.39999999999822,
          "velocity": 1,
          "duration": 0.3333333333333144
        },
        {
          "name": "C#2",
          "midi": 37,
          "time": 154.39999999999822,
          "velocity": 0.3543307086614173,
          "duration": 0.19583333333332575
        },
        {
          "name": "E2",
          "midi": 40,
          "time": 154.39999999999822,
          "velocity": 0.3543307086614173,
          "duration": 0.19583333333332575
        },
        {
          "name": "C#2",
          "midi": 37,
          "time": 154.5999999999982,
          "velocity": 0.3543307086614173,
          "duration": 0.19583333333332575
        },
        {
          "name": "E2",
          "midi": 40,
          "time": 154.5999999999982,
          "velocity": 0.3543307086614173,
          "duration": 0.19583333333332575
        },
        {
          "name": "A2",
          "midi": 45,
          "time": 154.5999999999982,
          "velocity": 0.8661417322834646,
          "duration": 0.09583333333333144
        },
        {
          "name": "A2",
          "midi": 45,
          "time": 154.6999999999982,
          "velocity": 0.8661417322834646,
          "duration": 0.09583333333333144
        },
        {
          "name": "A4",
          "midi": 69,
          "time": 154.7999999999982,
          "velocity": 0.8661417322834646,
          "duration": 0.19583333333332575
        },
        {
          "name": "C4",
          "midi": 60,
          "time": 154.7999999999982,
          "velocity": 0.8661417322834646,
          "duration": 0.19583333333332575
        },
        {
          "name": "F4",
          "midi": 65,
          "time": 154.7999999999982,
          "velocity": 0.8661417322834646,
          "duration": 0.19583333333332575
        },
        {
          "name": "A4",
          "midi": 69,
          "time": 154.7999999999982,
          "velocity": 0.8661417322834646,
          "duration": 0.29583333333332007
        },
        {
          "name": "F1",
          "midi": 29,
          "time": 154.7999999999982,
          "velocity": 0.8661417322834646,
          "duration": 0.3333333333333144
        },
        {
          "name": "F2",
          "midi": 41,
          "time": 154.7999999999982,
          "velocity": 0.8661417322834646,
          "duration": 0.3333333333333144
        },
        {
          "name": "C#2",
          "midi": 37,
          "time": 154.7999999999982,
          "velocity": 0.3543307086614173,
          "duration": 0.19583333333332575
        },
        {
          "name": "E2",
          "midi": 40,
          "time": 154.7999999999982,
          "velocity": 0.3543307086614173,
          "duration": 0.19583333333332575
        },
        {
          "name": "F2",
          "midi": 41,
          "time": 154.7999999999982,
          "velocity": 0.8661417322834646,
          "duration": 0.3333333333333144
        },
        {
          "name": "F3",
          "midi": 53,
          "time": 154.7999999999982,
          "velocity": 0.8661417322834646,
          "duration": 0.3333333333333144
        },
        {
          "name": "C4",
          "midi": 60,
          "time": 154.99999999999818,
          "velocity": 0.8661417322834646,
          "duration": 0.09583333333333144
        },
        {
          "name": "F4",
          "midi": 65,
          "time": 154.99999999999818,
          "velocity": 0.8661417322834646,
          "duration": 0.09583333333333144
        },
        {
          "name": "A4",
          "midi": 69,
          "time": 154.99999999999818,
          "velocity": 0.8661417322834646,
          "duration": 0.19583333333332575
        },
        {
          "name": "A4",
          "midi": 69,
          "time": 154.99999999999818,
          "velocity": 0.8661417322834646,
          "duration": 0.3333333333333144
        },
        {
          "name": "C4",
          "midi": 60,
          "time": 154.99999999999818,
          "velocity": 0.8661417322834646,
          "duration": 0.19583333333332575
        },
        {
          "name": "C#2",
          "midi": 37,
          "time": 154.99999999999818,
          "velocity": 0.3543307086614173,
          "duration": 0.09583333333333144
        },
        {
          "name": "E2",
          "midi": 40,
          "time": 154.99999999999818,
          "velocity": 0.3543307086614173,
          "duration": 0.09583333333333144
        },
        {
          "name": "C4",
          "midi": 60,
          "time": 155.09999999999818,
          "velocity": 0.8661417322834646,
          "duration": 0.29583333333332007
        },
        {
          "name": "F4",
          "midi": 65,
          "time": 155.09999999999818,
          "velocity": 0.8661417322834646,
          "duration": 0.09583333333333144
        },
        {
          "name": "A4",
          "midi": 69,
          "time": 155.09999999999818,
          "velocity": 0.8661417322834646,
          "duration": 0.29583333333332007
        },
        {
          "name": "C#2",
          "midi": 37,
          "time": 155.09999999999818,
          "velocity": 0.3543307086614173,
          "duration": 0.09583333333333144
        },
        {
          "name": "E2",
          "midi": 40,
          "time": 155.09999999999818,
          "velocity": 0.3543307086614173,
          "duration": 0.09583333333333144
        },
        {
          "name": "C4",
          "midi": 60,
          "time": 155.19999999999817,
          "velocity": 0.8661417322834646,
          "duration": 0.3958333333333144
        },
        {
          "name": "F4",
          "midi": 65,
          "time": 155.19999999999817,
          "velocity": 0.8661417322834646,
          "duration": 0.19583333333332575
        },
        {
          "name": "A4",
          "midi": 69,
          "time": 155.19999999999817,
          "velocity": 0.8661417322834646,
          "duration": 0.3958333333333144
        },
        {
          "name": "C#2",
          "midi": 37,
          "time": 155.19999999999817,
          "velocity": 0.3543307086614173,
          "duration": 0.19583333333332575
        },
        {
          "name": "E2",
          "midi": 40,
          "time": 155.19999999999817,
          "velocity": 0.3543307086614173,
          "duration": 0.19583333333332575
        },
        {
          "name": "A#4",
          "midi": 70,
          "time": 155.39999999999816,
          "velocity": 0.8661417322834646,
          "duration": 0.3958333333333144
        },
        {
          "name": "C4",
          "midi": 60,
          "time": 155.39999999999816,
          "velocity": 0.8661417322834646,
          "duration": 0.3958333333333144
        },
        {
          "name": "F4",
          "midi": 65,
          "time": 155.39999999999816,
          "velocity": 0.8661417322834646,
          "duration": 0.19583333333332575
        },
        {
          "name": "A4",
          "midi": 69,
          "time": 155.39999999999816,
          "velocity": 0.8661417322834646,
          "duration": 0.3958333333333144
        },
        {
          "name": "C#2",
          "midi": 37,
          "time": 155.39999999999816,
          "velocity": 0.3543307086614173,
          "duration": 0.19583333333332575
        },
        {
          "name": "E2",
          "midi": 40,
          "time": 155.39999999999816,
          "velocity": 0.3543307086614173,
          "duration": 0.19583333333332575
        },
        {
          "name": "C4",
          "midi": 60,
          "time": 155.59999999999815,
          "velocity": 0.8661417322834646,
          "duration": 0.19999999999998863
        },
        {
          "name": "F4",
          "midi": 65,
          "time": 155.59999999999815,
          "velocity": 0.8661417322834646,
          "duration": 0.19583333333332575
        },
        {
          "name": "A4",
          "midi": 69,
          "time": 155.59999999999815,
          "velocity": 0.8661417322834646,
          "duration": 0.19999999999998863
        },
        {
          "name": "F1",
          "midi": 29,
          "time": 155.59999999999815,
          "velocity": 0.8661417322834646,
          "duration": 0.3333333333333144
        },
        {
          "name": "F2",
          "midi": 41,
          "time": 155.59999999999815,
          "velocity": 0.8661417322834646,
          "duration": 0.3333333333333144
        },
        {
          "name": "C#2",
          "midi": 37,
          "time": 155.59999999999815,
          "velocity": 0.3543307086614173,
          "duration": 0.19583333333332575
        },
        {
          "name": "E2",
          "midi": 40,
          "time": 155.59999999999815,
          "velocity": 0.3543307086614173,
          "duration": 0.19583333333332575
        },
        {
          "name": "A4",
          "midi": 69,
          "time": 155.79999999999814,
          "velocity": 0.8661417322834646,
          "duration": 0.19583333333332575
        },
        {
          "name": "C4",
          "midi": 60,
          "time": 155.79999999999814,
          "velocity": 0.8661417322834646,
          "duration": 0.19583333333332575
        },
        {
          "name": "F4",
          "midi": 65,
          "time": 155.79999999999814,
          "velocity": 0.8661417322834646,
          "duration": 0.19583333333332575
        },
        {
          "name": "A4",
          "midi": 69,
          "time": 155.79999999999814,
          "velocity": 0.8661417322834646,
          "duration": 0.19583333333332575
        },
        {
          "name": "G4",
          "midi": 67,
          "time": 155.79999999999814,
          "velocity": 0.8661417322834646,
          "duration": 0.09999999999999432
        },
        {
          "name": "D4",
          "midi": 62,
          "time": 155.79999999999814,
          "velocity": 0.8661417322834646,
          "duration": 0.09999999999999432
        },
        {
          "name": "C#2",
          "midi": 37,
          "time": 155.79999999999814,
          "velocity": 0.3543307086614173,
          "duration": 0.19583333333332575
        },
        {
          "name": "E2",
          "midi": 40,
          "time": 155.79999999999814,
          "velocity": 0.3543307086614173,
          "duration": 0.19583333333332575
        },
        {
          "name": "A2",
          "midi": 45,
          "time": 155.79999999999814,
          "velocity": 0.8661417322834646,
          "duration": 0.09583333333333144
        },
        {
          "name": "F#4",
          "midi": 66,
          "time": 155.89999999999813,
          "velocity": 0.8661417322834646,
          "duration": 0.09999999999999432
        },
        {
          "name": "D#4",
          "midi": 63,
          "time": 155.89999999999813,
          "velocity": 0.8661417322834646,
          "duration": 0.09999999999999432
        },
        {
          "name": "A2",
          "midi": 45,
          "time": 155.89999999999813,
          "velocity": 0.8661417322834646,
          "duration": 0.09583333333333144
        },
        {
          "name": "C5",
          "midi": 72,
          "time": 155.99999999999812,
          "velocity": 0.8661417322834646,
          "duration": 0.3333333333333144
        },
        {
          "name": "C4",
          "midi": 60,
          "time": 155.99999999999812,
          "velocity": 0.8661417322834646,
          "duration": 0.19583333333332575
        },
        {
          "name": "E4",
          "midi": 64,
          "time": 155.99999999999812,
          "velocity": 0.8661417322834646,
          "duration": 0.19583333333332575
        },
        {
          "name": "A4",
          "midi": 69,
          "time": 155.99999999999812,
          "velocity": 0.8661417322834646,
          "duration": 0.19583333333332575
        },
        {
          "name": "A1",
          "midi": 33,
          "time": 155.99999999999812,
          "velocity": 0.8661417322834646,
          "duration": 0.3333333333333144
        },
        {
          "name": "A2",
          "midi": 45,
          "time": 155.99999999999812,
          "velocity": 0.8661417322834646,
          "duration": 0.3333333333333144
        },
        {
          "name": "A4",
          "midi": 69,
          "time": 155.99999999999812,
          "velocity": 0.8661417322834646,
          "duration": 0.29583333333332007
        },
        {
          "name": "E4",
          "midi": 64,
          "time": 155.99999999999812,
          "velocity": 0.8661417322834646,
          "duration": 0.29583333333332007
        },
        {
          "name": "C#2",
          "midi": 37,
          "time": 155.99999999999812,
          "velocity": 0.3543307086614173,
          "duration": 0.19583333333332575
        },
        {
          "name": "E2",
          "midi": 40,
          "time": 155.99999999999812,
          "velocity": 0.3543307086614173,
          "duration": 0.19583333333332575
        },
        {
          "name": "A1",
          "midi": 33,
          "time": 155.99999999999812,
          "velocity": 0.8661417322834646,
          "duration": 0.3333333333333144
        },
        {
          "name": "A2",
          "midi": 45,
          "time": 155.99999999999812,
          "velocity": 0.8661417322834646,
          "duration": 0.3333333333333144
        },
        {
          "name": "C4",
          "midi": 60,
          "time": 156.1999999999981,
          "velocity": 0.8661417322834646,
          "duration": 0.09583333333333144
        },
        {
          "name": "E4",
          "midi": 64,
          "time": 156.1999999999981,
          "velocity": 0.8661417322834646,
          "duration": 0.19583333333332575
        },
        {
          "name": "A4",
          "midi": 69,
          "time": 156.1999999999981,
          "velocity": 0.8661417322834646,
          "duration": 0.19583333333332575
        },
        {
          "name": "C#2",
          "midi": 37,
          "time": 156.1999999999981,
          "velocity": 0.3543307086614173,
          "duration": 0.09583333333333144
        },
        {
          "name": "E2",
          "midi": 40,
          "time": 156.1999999999981,
          "velocity": 0.3543307086614173,
          "duration": 0.09583333333333144
        },
        {
          "name": "C4",
          "midi": 60,
          "time": 156.2999999999981,
          "velocity": 0.8661417322834646,
          "duration": 0.09583333333333144
        },
        {
          "name": "E4",
          "midi": 64,
          "time": 156.2999999999981,
          "velocity": 0.8661417322834646,
          "duration": 0.29583333333332007
        },
        {
          "name": "A4",
          "midi": 69,
          "time": 156.2999999999981,
          "velocity": 0.8661417322834646,
          "duration": 0.29583333333332007
        },
        {
          "name": "C#2",
          "midi": 37,
          "time": 156.2999999999981,
          "velocity": 0.3543307086614173,
          "duration": 0.09583333333333144
        },
        {
          "name": "E2",
          "midi": 40,
          "time": 156.2999999999981,
          "velocity": 0.3543307086614173,
          "duration": 0.09583333333333144
        },
        {
          "name": "A4",
          "midi": 69,
          "time": 156.3999999999981,
          "velocity": 0.8661417322834646,
          "duration": 0.3333333333333144
        },
        {
          "name": "C4",
          "midi": 60,
          "time": 156.3999999999981,
          "velocity": 0.8661417322834646,
          "duration": 0.19583333333332575
        },
        {
          "name": "E4",
          "midi": 64,
          "time": 156.3999999999981,
          "velocity": 0.8661417322834646,
          "duration": 0.3958333333333144
        },
        {
          "name": "A4",
          "midi": 69,
          "time": 156.3999999999981,
          "velocity": 0.8661417322834646,
          "duration": 0.3958333333333144
        },
        {
          "name": "C#2",
          "midi": 37,
          "time": 156.3999999999981,
          "velocity": 0.3543307086614173,
          "duration": 0.19583333333332575
        },
        {
          "name": "E2",
          "midi": 40,
          "time": 156.3999999999981,
          "velocity": 0.3543307086614173,
          "duration": 0.19583333333332575
        },
        {
          "name": "A1",
          "midi": 33,
          "time": 156.3999999999981,
          "velocity": 0.8661417322834646,
          "duration": 0.3333333333333144
        },
        {
          "name": "A2",
          "midi": 45,
          "time": 156.3999999999981,
          "velocity": 0.8661417322834646,
          "duration": 0.3333333333333144
        },
        {
          "name": "C4",
          "midi": 60,
          "time": 156.5999999999981,
          "velocity": 0.8661417322834646,
          "duration": 0.19583333333332575
        },
        {
          "name": "E4",
          "midi": 64,
          "time": 156.5999999999981,
          "velocity": 0.8661417322834646,
          "duration": 0.3958333333333144
        },
        {
          "name": "A4",
          "midi": 69,
          "time": 156.5999999999981,
          "velocity": 0.8661417322834646,
          "duration": 0.3958333333333144
        },
        {
          "name": "C#2",
          "midi": 37,
          "time": 156.5999999999981,
          "velocity": 0.3543307086614173,
          "duration": 0.19583333333332575
        },
        {
          "name": "E2",
          "midi": 40,
          "time": 156.5999999999981,
          "velocity": 0.3543307086614173,
          "duration": 0.19583333333332575
        },
        {
          "name": "E5",
          "midi": 76,
          "time": 156.79999999999808,
          "velocity": 0.8661417322834646,
          "duration": 0.3333333333333144
        },
        {
          "name": "C4",
          "midi": 60,
          "time": 156.79999999999808,
          "velocity": 0.8661417322834646,
          "duration": 0.19583333333332575
        },
        {
          "name": "E4",
          "midi": 64,
          "time": 156.79999999999808,
          "velocity": 0.8661417322834646,
          "duration": 0.29999999999998295
        },
        {
          "name": "A4",
          "midi": 69,
          "time": 156.79999999999808,
          "velocity": 0.8661417322834646,
          "duration": 0.29999999999998295
        },
        {
          "name": "A1",
          "midi": 33,
          "time": 156.79999999999808,
          "velocity": 0.8661417322834646,
          "duration": 0.3333333333333144
        },
        {
          "name": "A2",
          "midi": 45,
          "time": 156.79999999999808,
          "velocity": 0.8661417322834646,
          "duration": 0.3333333333333144
        },
        {
          "name": "C#2",
          "midi": 37,
          "time": 156.79999999999808,
          "velocity": 0.3543307086614173,
          "duration": 0.19583333333332575
        },
        {
          "name": "E2",
          "midi": 40,
          "time": 156.79999999999808,
          "velocity": 0.3543307086614173,
          "duration": 0.19583333333332575
        },
        {
          "name": "A1",
          "midi": 33,
          "time": 156.79999999999808,
          "velocity": 0.8661417322834646,
          "duration": 0.3333333333333144
        },
        {
          "name": "A2",
          "midi": 45,
          "time": 156.79999999999808,
          "velocity": 0.8661417322834646,
          "duration": 0.3333333333333144
        },
        {
          "name": "C4",
          "midi": 60,
          "time": 156.99999999999807,
          "velocity": 0.8661417322834646,
          "duration": 0.19583333333332575
        },
        {
          "name": "E4",
          "midi": 64,
          "time": 156.99999999999807,
          "velocity": 0.8661417322834646,
          "duration": 0.19583333333332575
        },
        {
          "name": "A4",
          "midi": 69,
          "time": 156.99999999999807,
          "velocity": 0.8661417322834646,
          "duration": 0.19583333333332575
        },
        {
          "name": "C#2",
          "midi": 37,
          "time": 156.99999999999807,
          "velocity": 0.3543307086614173,
          "duration": 0.19583333333332575
        },
        {
          "name": "E2",
          "midi": 40,
          "time": 156.99999999999807,
          "velocity": 0.3543307086614173,
          "duration": 0.19583333333332575
        },
        {
          "name": "D5",
          "midi": 74,
          "time": 157.19999999999806,
          "velocity": 0.8661417322834646,
          "duration": 1.3958333333332575
        },
        {
          "name": "F5",
          "midi": 77,
          "time": 157.19999999999806,
          "velocity": 0.8661417322834646,
          "duration": 3.395833333333144
        },
        {
          "name": "D4",
          "midi": 62,
          "time": 157.19999999999806,
          "velocity": 0.8661417322834646,
          "duration": 0.19583333333332575
        },
        {
          "name": "F4",
          "midi": 65,
          "time": 157.19999999999806,
          "velocity": 0.8661417322834646,
          "duration": 0.19583333333332575
        },
        {
          "name": "A4",
          "midi": 69,
          "time": 157.19999999999806,
          "velocity": 0.8661417322834646,
          "duration": 0.19583333333332575
        },
        {
          "name": "D2",
          "midi": 38,
          "time": 157.19999999999806,
          "velocity": 0.8661417322834646,
          "duration": 0.3333333333333144
        },
        {
          "name": "D3",
          "midi": 50,
          "time": 157.19999999999806,
          "velocity": 0.8661417322834646,
          "duration": 0.3333333333333144
        },
        {
          "name": "D4",
          "midi": 62,
          "time": 157.19999999999806,
          "velocity": 0.8661417322834646,
          "duration": 0.19583333333332575
        },
        {
          "name": "F4",
          "midi": 65,
          "time": 157.19999999999806,
          "velocity": 0.8661417322834646,
          "duration": 0.19583333333332575
        },
        {
          "name": "A4",
          "midi": 69,
          "time": 157.19999999999806,
          "velocity": 0.8661417322834646,
          "duration": 0.19583333333332575
        },
        {
          "name": "C#2",
          "midi": 37,
          "time": 157.19999999999806,
          "velocity": 0.3543307086614173,
          "duration": 0.19583333333332575
        },
        {
          "name": "E2",
          "midi": 40,
          "time": 157.19999999999806,
          "velocity": 0.3543307086614173,
          "duration": 0.19583333333332575
        },
        {
          "name": "D2",
          "midi": 38,
          "time": 157.19999999999806,
          "velocity": 0.8661417322834646,
          "duration": 0.3333333333333144
        },
        {
          "name": "D3",
          "midi": 50,
          "time": 157.19999999999806,
          "velocity": 0.8661417322834646,
          "duration": 0.3333333333333144
        },
        {
          "name": "D4",
          "midi": 62,
          "time": 157.39999999999804,
          "velocity": 0.8661417322834646,
          "duration": 0.09583333333333144
        },
        {
          "name": "F4",
          "midi": 65,
          "time": 157.39999999999804,
          "velocity": 0.8661417322834646,
          "duration": 0.09583333333333144
        },
        {
          "name": "A4",
          "midi": 69,
          "time": 157.39999999999804,
          "velocity": 0.8661417322834646,
          "duration": 0.09583333333333144
        },
        {
          "name": "D6",
          "midi": 86,
          "time": 157.39999999999804,
          "velocity": 0.8661417322834646,
          "duration": 0.09999999999999432
        },
        {
          "name": "D4",
          "midi": 62,
          "time": 157.39999999999804,
          "velocity": 0.8661417322834646,
          "duration": 0.09583333333333144
        },
        {
          "name": "F4",
          "midi": 65,
          "time": 157.39999999999804,
          "velocity": 0.8661417322834646,
          "duration": 0.09583333333333144
        },
        {
          "name": "A4",
          "midi": 69,
          "time": 157.39999999999804,
          "velocity": 0.8661417322834646,
          "duration": 0.09583333333333144
        },
        {
          "name": "C#2",
          "midi": 37,
          "time": 157.39999999999804,
          "velocity": 0.3543307086614173,
          "duration": 0.09583333333333144
        },
        {
          "name": "E2",
          "midi": 40,
          "time": 157.39999999999804,
          "velocity": 0.3543307086614173,
          "duration": 0.09583333333333144
        },
        {
          "name": "D4",
          "midi": 62,
          "time": 157.49999999999804,
          "velocity": 0.8661417322834646,
          "duration": 0.09583333333333144
        },
        {
          "name": "F4",
          "midi": 65,
          "time": 157.49999999999804,
          "velocity": 0.8661417322834646,
          "duration": 0.09583333333333144
        },
        {
          "name": "A4",
          "midi": 69,
          "time": 157.49999999999804,
          "velocity": 0.8661417322834646,
          "duration": 0.09583333333333144
        },
        {
          "name": "C#6",
          "midi": 85,
          "time": 157.49999999999804,
          "velocity": 0.8661417322834646,
          "duration": 0.09999999999999432
        },
        {
          "name": "D4",
          "midi": 62,
          "time": 157.49999999999804,
          "velocity": 0.8661417322834646,
          "duration": 0.09583333333333144
        },
        {
          "name": "F4",
          "midi": 65,
          "time": 157.49999999999804,
          "velocity": 0.8661417322834646,
          "duration": 0.09583333333333144
        },
        {
          "name": "A4",
          "midi": 69,
          "time": 157.49999999999804,
          "velocity": 0.8661417322834646,
          "duration": 0.09583333333333144
        },
        {
          "name": "C#2",
          "midi": 37,
          "time": 157.49999999999804,
          "velocity": 0.3543307086614173,
          "duration": 0.09583333333333144
        },
        {
          "name": "E2",
          "midi": 40,
          "time": 157.49999999999804,
          "velocity": 0.3543307086614173,
          "duration": 0.09583333333333144
        },
        {
          "name": "D4",
          "midi": 62,
          "time": 157.59999999999803,
          "velocity": 0.8661417322834646,
          "duration": 0.19583333333332575
        },
        {
          "name": "F4",
          "midi": 65,
          "time": 157.59999999999803,
          "velocity": 0.8661417322834646,
          "duration": 0.19583333333332575
        },
        {
          "name": "A4",
          "midi": 69,
          "time": 157.59999999999803,
          "velocity": 0.8661417322834646,
          "duration": 0.19583333333332575
        },
        {
          "name": "C6",
          "midi": 84,
          "time": 157.59999999999803,
          "velocity": 0.8661417322834646,
          "duration": 0.06666666666666288
        },
        {
          "name": "D4",
          "midi": 62,
          "time": 157.59999999999803,
          "velocity": 0.8661417322834646,
          "duration": 0.19583333333332575
        },
        {
          "name": "F4",
          "midi": 65,
          "time": 157.59999999999803,
          "velocity": 0.8661417322834646,
          "duration": 0.19583333333332575
        },
        {
          "name": "A4",
          "midi": 69,
          "time": 157.59999999999803,
          "velocity": 0.8661417322834646,
          "duration": 0.19583333333332575
        },
        {
          "name": "C#2",
          "midi": 37,
          "time": 157.59999999999803,
          "velocity": 0.3543307086614173,
          "duration": 0.19583333333332575
        },
        {
          "name": "E2",
          "midi": 40,
          "time": 157.59999999999803,
          "velocity": 0.3543307086614173,
          "duration": 0.19583333333332575
        },
        {
          "name": "D4",
          "midi": 62,
          "time": 157.79999999999802,
          "velocity": 0.8661417322834646,
          "duration": 0.19583333333332575
        },
        {
          "name": "F4",
          "midi": 65,
          "time": 157.79999999999802,
          "velocity": 0.8661417322834646,
          "duration": 0.19583333333332575
        },
        {
          "name": "A4",
          "midi": 69,
          "time": 157.79999999999802,
          "velocity": 0.8661417322834646,
          "duration": 0.19583333333332575
        },
        {
          "name": "B5",
          "midi": 83,
          "time": 157.79999999999802,
          "velocity": 0.8661417322834646,
          "duration": 0.06666666666666288
        },
        {
          "name": "D4",
          "midi": 62,
          "time": 157.79999999999802,
          "velocity": 0.8661417322834646,
          "duration": 0.19583333333332575
        },
        {
          "name": "F4",
          "midi": 65,
          "time": 157.79999999999802,
          "velocity": 0.8661417322834646,
          "duration": 0.19583333333332575
        },
        {
          "name": "A4",
          "midi": 69,
          "time": 157.79999999999802,
          "velocity": 0.8661417322834646,
          "duration": 0.19583333333332575
        },
        {
          "name": "C#2",
          "midi": 37,
          "time": 157.79999999999802,
          "velocity": 0.3543307086614173,
          "duration": 0.19583333333332575
        },
        {
          "name": "E2",
          "midi": 40,
          "time": 157.79999999999802,
          "velocity": 0.3543307086614173,
          "duration": 0.19583333333332575
        },
        {
          "name": "D#4",
          "midi": 63,
          "time": 157.999999999998,
          "velocity": 1,
          "duration": 0.19999999999998863
        },
        {
          "name": "G4",
          "midi": 67,
          "time": 157.999999999998,
          "velocity": 1,
          "duration": 0.19999999999998863
        },
        {
          "name": "A#4",
          "midi": 70,
          "time": 157.999999999998,
          "velocity": 1,
          "duration": 0.19999999999998863
        },
        {
          "name": "A1",
          "midi": 33,
          "time": 157.999999999998,
          "velocity": 0.8661417322834646,
          "duration": 0.3333333333333144
        },
        {
          "name": "A2",
          "midi": 45,
          "time": 157.999999999998,
          "velocity": 0.8661417322834646,
          "duration": 0.3333333333333144
        },
        {
          "name": "A#5",
          "midi": 82,
          "time": 157.999999999998,
          "velocity": 0.8661417322834646,
          "duration": 0.06666666666666288
        },
        {
          "name": "D#4",
          "midi": 63,
          "time": 157.999999999998,
          "velocity": 1,
          "duration": 0.19999999999998863
        },
        {
          "name": "G4",
          "midi": 67,
          "time": 157.999999999998,
          "velocity": 1,
          "duration": 0.19999999999998863
        },
        {
          "name": "A#4",
          "midi": 70,
          "time": 157.999999999998,
          "velocity": 1,
          "duration": 0.19999999999998863
        },
        {
          "name": "C#2",
          "midi": 37,
          "time": 157.999999999998,
          "velocity": 0.3543307086614173,
          "duration": 0.19583333333332575
        },
        {
          "name": "E2",
          "midi": 40,
          "time": 157.999999999998,
          "velocity": 0.3543307086614173,
          "duration": 0.19583333333332575
        },
        {
          "name": "C6",
          "midi": 84,
          "time": 158.06666666666467,
          "velocity": 0.8661417322834646,
          "duration": 0.06666666666666288
        },
        {
          "name": "A#5",
          "midi": 82,
          "time": 158.13333333333134,
          "velocity": 0.8661417322834646,
          "duration": 0.06666666666666288
        },
        {
          "name": "D4",
          "midi": 62,
          "time": 158.199999999998,
          "velocity": 0.8661417322834646,
          "duration": 0.19583333333332575
        },
        {
          "name": "F4",
          "midi": 65,
          "time": 158.199999999998,
          "velocity": 0.8661417322834646,
          "duration": 0.19583333333332575
        },
        {
          "name": "A4",
          "midi": 69,
          "time": 158.199999999998,
          "velocity": 0.8661417322834646,
          "duration": 0.19583333333332575
        },
        {
          "name": "A5",
          "midi": 81,
          "time": 158.199999999998,
          "velocity": 0.8661417322834646,
          "duration": 0.06666666666666288
        },
        {
          "name": "D4",
          "midi": 62,
          "time": 158.199999999998,
          "velocity": 0.8661417322834646,
          "duration": 0.19583333333332575
        },
        {
          "name": "F4",
          "midi": 65,
          "time": 158.199999999998,
          "velocity": 0.8661417322834646,
          "duration": 0.19583333333332575
        },
        {
          "name": "A4",
          "midi": 69,
          "time": 158.199999999998,
          "velocity": 0.8661417322834646,
          "duration": 0.19583333333332575
        },
        {
          "name": "C#2",
          "midi": 37,
          "time": 158.199999999998,
          "velocity": 0.3543307086614173,
          "duration": 0.19583333333332575
        },
        {
          "name": "E2",
          "midi": 40,
          "time": 158.199999999998,
          "velocity": 0.3543307086614173,
          "duration": 0.19583333333332575
        },
        {
          "name": "F4",
          "midi": 65,
          "time": 158.399999999998,
          "velocity": 0.8661417322834646,
          "duration": 0.19583333333332575
        },
        {
          "name": "A4",
          "midi": 69,
          "time": 158.399999999998,
          "velocity": 0.8661417322834646,
          "duration": 0.19583333333332575
        },
        {
          "name": "D5",
          "midi": 74,
          "time": 158.399999999998,
          "velocity": 0.8661417322834646,
          "duration": 0.19583333333332575
        },
        {
          "name": "D2",
          "midi": 38,
          "time": 158.399999999998,
          "velocity": 0.8661417322834646,
          "duration": 0.3333333333333144
        },
        {
          "name": "D3",
          "midi": 50,
          "time": 158.399999999998,
          "velocity": 0.8661417322834646,
          "duration": 0.3333333333333144
        },
        {
          "name": "F4",
          "midi": 65,
          "time": 158.399999999998,
          "velocity": 0.8661417322834646,
          "duration": 0.19583333333332575
        },
        {
          "name": "A4",
          "midi": 69,
          "time": 158.399999999998,
          "velocity": 0.8661417322834646,
          "duration": 0.19583333333332575
        },
        {
          "name": "D5",
          "midi": 74,
          "time": 158.399999999998,
          "velocity": 0.8661417322834646,
          "duration": 2.195833333333212
        },
        {
          "name": "C#2",
          "midi": 37,
          "time": 158.399999999998,
          "velocity": 0.3543307086614173,
          "duration": 0.19583333333332575
        },
        {
          "name": "E2",
          "midi": 40,
          "time": 158.399999999998,
          "velocity": 0.3543307086614173,
          "duration": 0.19583333333332575
        },
        {
          "name": "D2",
          "midi": 38,
          "time": 158.399999999998,
          "velocity": 0.8661417322834646,
          "duration": 0.3333333333333144
        },
        {
          "name": "D3",
          "midi": 50,
          "time": 158.399999999998,
          "velocity": 0.8661417322834646,
          "duration": 0.3333333333333144
        },
        {
          "name": "D4",
          "midi": 62,
          "time": 158.59999999999798,
          "velocity": 0.8661417322834646,
          "duration": 0.09583333333333144
        },
        {
          "name": "F4",
          "midi": 65,
          "time": 158.59999999999798,
          "velocity": 0.8661417322834646,
          "duration": 0.09583333333333144
        },
        {
          "name": "A4",
          "midi": 69,
          "time": 158.59999999999798,
          "velocity": 0.8661417322834646,
          "duration": 0.09583333333333144
        },
        {
          "name": "D6",
          "midi": 86,
          "time": 158.59999999999798,
          "velocity": 0.8661417322834646,
          "duration": 0.09999999999999432
        },
        {
          "name": "D4",
          "midi": 62,
          "time": 158.59999999999798,
          "velocity": 0.8661417322834646,
          "duration": 0.09583333333333144
        },
        {
          "name": "F4",
          "midi": 65,
          "time": 158.59999999999798,
          "velocity": 0.8661417322834646,
          "duration": 0.09583333333333144
        },
        {
          "name": "A4",
          "midi": 69,
          "time": 158.59999999999798,
          "velocity": 0.8661417322834646,
          "duration": 0.09583333333333144
        },
        {
          "name": "C#2",
          "midi": 37,
          "time": 158.59999999999798,
          "velocity": 0.3543307086614173,
          "duration": 0.09583333333333144
        },
        {
          "name": "E2",
          "midi": 40,
          "time": 158.59999999999798,
          "velocity": 0.3543307086614173,
          "duration": 0.09583333333333144
        },
        {
          "name": "D4",
          "midi": 62,
          "time": 158.69999999999797,
          "velocity": 0.8661417322834646,
          "duration": 0.09583333333333144
        },
        {
          "name": "F4",
          "midi": 65,
          "time": 158.69999999999797,
          "velocity": 0.8661417322834646,
          "duration": 0.09583333333333144
        },
        {
          "name": "A4",
          "midi": 69,
          "time": 158.69999999999797,
          "velocity": 0.8661417322834646,
          "duration": 0.09583333333333144
        },
        {
          "name": "C#6",
          "midi": 85,
          "time": 158.69999999999797,
          "velocity": 0.8661417322834646,
          "duration": 0.09999999999999432
        },
        {
          "name": "D4",
          "midi": 62,
          "time": 158.69999999999797,
          "velocity": 0.8661417322834646,
          "duration": 0.09583333333333144
        },
        {
          "name": "F4",
          "midi": 65,
          "time": 158.69999999999797,
          "velocity": 0.8661417322834646,
          "duration": 0.09583333333333144
        },
        {
          "name": "A4",
          "midi": 69,
          "time": 158.69999999999797,
          "velocity": 0.8661417322834646,
          "duration": 0.09583333333333144
        },
        {
          "name": "C#2",
          "midi": 37,
          "time": 158.69999999999797,
          "velocity": 0.3543307086614173,
          "duration": 0.09583333333333144
        },
        {
          "name": "E2",
          "midi": 40,
          "time": 158.69999999999797,
          "velocity": 0.3543307086614173,
          "duration": 0.09583333333333144
        },
        {
          "name": "D4",
          "midi": 62,
          "time": 158.79999999999797,
          "velocity": 0.8661417322834646,
          "duration": 0.19583333333332575
        },
        {
          "name": "F4",
          "midi": 65,
          "time": 158.79999999999797,
          "velocity": 0.8661417322834646,
          "duration": 0.19583333333332575
        },
        {
          "name": "E2",
          "midi": 40,
          "time": 158.79999999999797,
          "velocity": 0.3543307086614173,
          "duration": 0.19583333333332575
        },
        {
          "name": "C#2",
          "midi": 37,
          "time": 158.79999999999797,
          "velocity": 0.3543307086614173,
          "duration": 0.19583333333332575
        },
        {
          "name": "A4",
          "midi": 69,
          "time": 158.79999999999797,
          "velocity": 0.8661417322834646,
          "duration": 0.19583333333332575
        },
        {
          "name": "F4",
          "midi": 65,
          "time": 158.79999999999797,
          "velocity": 0.8661417322834646,
          "duration": 0.19583333333332575
        },
        {
          "name": "D4",
          "midi": 62,
          "time": 158.79999999999797,
          "velocity": 0.8661417322834646,
          "duration": 0.19583333333332575
        },
        {
          "name": "C6",
          "midi": 84,
          "time": 158.79999999999797,
          "velocity": 0.8661417322834646,
          "duration": 0.06666666666666288
        },
        {
          "name": "A4",
          "midi": 69,
          "time": 158.79999999999797,
          "velocity": 0.8661417322834646,
          "duration": 0.19583333333332575
        },
        {
          "name": "A4",
          "midi": 69,
          "time": 158.99999999999795,
          "velocity": 0.8661417322834646,
          "duration": 0.19583333333332575
        },
        {
          "name": "F4",
          "midi": 65,
          "time": 158.99999999999795,
          "velocity": 0.8661417322834646,
          "duration": 0.19583333333332575
        },
        {
          "name": "D4",
          "midi": 62,
          "time": 158.99999999999795,
          "velocity": 0.8661417322834646,
          "duration": 0.19583333333332575
        },
        {
          "name": "B5",
          "midi": 83,
          "time": 158.99999999999795,
          "velocity": 0.8661417322834646,
          "duration": 0.06666666666666288
        },
        {
          "name": "A4",
          "midi": 69,
          "time": 158.99999999999795,
          "velocity": 0.8661417322834646,
          "duration": 0.19583333333332575
        },
        {
          "name": "F4",
          "midi": 65,
          "time": 158.99999999999795,
          "velocity": 0.8661417322834646,
          "duration": 0.19583333333332575
        },
        {
          "name": "D4",
          "midi": 62,
          "time": 158.99999999999795,
          "velocity": 0.8661417322834646,
          "duration": 0.19583333333332575
        },
        {
          "name": "C#2",
          "midi": 37,
          "time": 158.99999999999795,
          "velocity": 0.3543307086614173,
          "duration": 0.19583333333332575
        },
        {
          "name": "E2",
          "midi": 40,
          "time": 158.99999999999795,
          "velocity": 0.3543307086614173,
          "duration": 0.19583333333332575
        },
        {
          "name": "D#4",
          "midi": 63,
          "time": 159.19999999999794,
          "velocity": 1,
          "duration": 0.19999999999998863
        },
        {
          "name": "G4",
          "midi": 67,
          "time": 159.19999999999794,
          "velocity": 1,
          "duration": 0.19999999999998863
        },
        {
          "name": "A#4",
          "midi": 70,
          "time": 159.19999999999794,
          "velocity": 1,
          "duration": 0.19999999999998863
        },
        {
          "name": "A1",
          "midi": 33,
          "time": 159.19999999999794,
          "velocity": 0.8661417322834646,
          "duration": 0.3333333333333144
        },
        {
          "name": "A2",
          "midi": 45,
          "time": 159.19999999999794,
          "velocity": 0.8661417322834646,
          "duration": 0.3333333333333144
        },
        {
          "name": "A#5",
          "midi": 82,
          "time": 159.19999999999794,
          "velocity": 0.8661417322834646,
          "duration": 0.06666666666666288
        },
        {
          "name": "D#4",
          "midi": 63,
          "time": 159.19999999999794,
          "velocity": 1,
          "duration": 0.19999999999998863
        },
        {
          "name": "G4",
          "midi": 67,
          "time": 159.19999999999794,
          "velocity": 1,
          "duration": 0.19999999999998863
        },
        {
          "name": "A#4",
          "midi": 70,
          "time": 159.19999999999794,
          "velocity": 1,
          "duration": 0.19999999999998863
        },
        {
          "name": "C#2",
          "midi": 37,
          "time": 159.19999999999794,
          "velocity": 0.3543307086614173,
          "duration": 0.19583333333332575
        },
        {
          "name": "E2",
          "midi": 40,
          "time": 159.19999999999794,
          "velocity": 0.3543307086614173,
          "duration": 0.19583333333332575
        },
        {
          "name": "C6",
          "midi": 84,
          "time": 159.2666666666646,
          "velocity": 0.8661417322834646,
          "duration": 0.06666666666666288
        },
        {
          "name": "A#5",
          "midi": 82,
          "time": 159.33333333333127,
          "velocity": 0.8661417322834646,
          "duration": 0.06666666666666288
        },
        {
          "name": "D4",
          "midi": 62,
          "time": 159.39999999999793,
          "velocity": 0.8661417322834646,
          "duration": 0.19583333333332575
        },
        {
          "name": "F4",
          "midi": 65,
          "time": 159.39999999999793,
          "velocity": 0.8661417322834646,
          "duration": 0.19583333333332575
        },
        {
          "name": "A4",
          "midi": 69,
          "time": 159.39999999999793,
          "velocity": 0.8661417322834646,
          "duration": 0.19583333333332575
        },
        {
          "name": "A5",
          "midi": 81,
          "time": 159.39999999999793,
          "velocity": 0.8661417322834646,
          "duration": 0.06666666666666288
        },
        {
          "name": "D4",
          "midi": 62,
          "time": 159.39999999999793,
          "velocity": 0.8661417322834646,
          "duration": 0.19583333333332575
        },
        {
          "name": "F4",
          "midi": 65,
          "time": 159.39999999999793,
          "velocity": 0.8661417322834646,
          "duration": 0.19583333333332575
        },
        {
          "name": "A4",
          "midi": 69,
          "time": 159.39999999999793,
          "velocity": 0.8661417322834646,
          "duration": 0.19583333333332575
        },
        {
          "name": "C#2",
          "midi": 37,
          "time": 159.39999999999793,
          "velocity": 0.3543307086614173,
          "duration": 0.19583333333332575
        },
        {
          "name": "E2",
          "midi": 40,
          "time": 159.39999999999793,
          "velocity": 0.3543307086614173,
          "duration": 0.19583333333332575
        },
        {
          "name": "C#4",
          "midi": 61,
          "time": 159.59999999999792,
          "velocity": 0.8661417322834646,
          "duration": 0.09583333333333144
        },
        {
          "name": "E4",
          "midi": 64,
          "time": 159.59999999999792,
          "velocity": 0.8661417322834646,
          "duration": 0.09583333333333144
        },
        {
          "name": "G#4",
          "midi": 68,
          "time": 159.59999999999792,
          "velocity": 0.8661417322834646,
          "duration": 0.09583333333333144
        },
        {
          "name": "D2",
          "midi": 38,
          "time": 159.59999999999792,
          "velocity": 0.8661417322834646,
          "duration": 0.3333333333333144
        },
        {
          "name": "D3",
          "midi": 50,
          "time": 159.59999999999792,
          "velocity": 0.8661417322834646,
          "duration": 0.3333333333333144
        },
        {
          "name": "G#5",
          "midi": 80,
          "time": 159.59999999999792,
          "velocity": 0.8661417322834646,
          "duration": 0.09583333333333144
        },
        {
          "name": "C#4",
          "midi": 61,
          "time": 159.59999999999792,
          "velocity": 0.8661417322834646,
          "duration": 0.09583333333333144
        },
        {
          "name": "E4",
          "midi": 64,
          "time": 159.59999999999792,
          "velocity": 0.8661417322834646,
          "duration": 0.09583333333333144
        },
        {
          "name": "G#4",
          "midi": 68,
          "time": 159.59999999999792,
          "velocity": 0.8661417322834646,
          "duration": 0.09583333333333144
        },
        {
          "name": "C#2",
          "midi": 37,
          "time": 159.59999999999792,
          "velocity": 0.3543307086614173,
          "duration": 0.19583333333332575
        },
        {
          "name": "E2",
          "midi": 40,
          "time": 159.59999999999792,
          "velocity": 0.3543307086614173,
          "duration": 0.19583333333332575
        },
        {
          "name": "D2",
          "midi": 38,
          "time": 159.59999999999792,
          "velocity": 0.8661417322834646,
          "duration": 0.3333333333333144
        },
        {
          "name": "D3",
          "midi": 50,
          "time": 159.59999999999792,
          "velocity": 0.8661417322834646,
          "duration": 0.3333333333333144
        },
        {
          "name": "C#4",
          "midi": 61,
          "time": 159.6999999999979,
          "velocity": 0.8661417322834646,
          "duration": 0.09583333333333144
        },
        {
          "name": "E4",
          "midi": 64,
          "time": 159.6999999999979,
          "velocity": 0.8661417322834646,
          "duration": 0.09583333333333144
        },
        {
          "name": "G#4",
          "midi": 68,
          "time": 159.6999999999979,
          "velocity": 0.8661417322834646,
          "duration": 0.09583333333333144
        },
        {
          "name": "G#5",
          "midi": 80,
          "time": 159.6999999999979,
          "velocity": 0.8661417322834646,
          "duration": 0.09583333333333144
        },
        {
          "name": "C#4",
          "midi": 61,
          "time": 159.6999999999979,
          "velocity": 0.8661417322834646,
          "duration": 0.09583333333333144
        },
        {
          "name": "E4",
          "midi": 64,
          "time": 159.6999999999979,
          "velocity": 0.8661417322834646,
          "duration": 0.09583333333333144
        },
        {
          "name": "G#4",
          "midi": 68,
          "time": 159.6999999999979,
          "velocity": 0.8661417322834646,
          "duration": 0.09583333333333144
        },
        {
          "name": "D4",
          "midi": 62,
          "time": 159.7999999999979,
          "velocity": 0.8661417322834646,
          "duration": 0.19583333333332575
        },
        {
          "name": "F4",
          "midi": 65,
          "time": 159.7999999999979,
          "velocity": 0.8661417322834646,
          "duration": 0.19583333333332575
        },
        {
          "name": "A4",
          "midi": 69,
          "time": 159.7999999999979,
          "velocity": 0.8661417322834646,
          "duration": 0.19583333333332575
        },
        {
          "name": "A5",
          "midi": 81,
          "time": 159.7999999999979,
          "velocity": 0.8661417322834646,
          "duration": 0.19583333333332575
        },
        {
          "name": "D4",
          "midi": 62,
          "time": 159.7999999999979,
          "velocity": 0.8661417322834646,
          "duration": 0.19583333333332575
        },
        {
          "name": "F4",
          "midi": 65,
          "time": 159.7999999999979,
          "velocity": 0.8661417322834646,
          "duration": 0.19583333333332575
        },
        {
          "name": "A4",
          "midi": 69,
          "time": 159.7999999999979,
          "velocity": 0.8661417322834646,
          "duration": 0.19583333333332575
        },
        {
          "name": "C#2",
          "midi": 37,
          "time": 159.7999999999979,
          "velocity": 0.3543307086614173,
          "duration": 0.09583333333333144
        },
        {
          "name": "E2",
          "midi": 40,
          "time": 159.7999999999979,
          "velocity": 0.3543307086614173,
          "duration": 0.09583333333333144
        },
        {
          "name": "C#2",
          "midi": 37,
          "time": 159.8999999999979,
          "velocity": 0.3543307086614173,
          "duration": 0.09583333333333144
        },
        {
          "name": "E2",
          "midi": 40,
          "time": 159.8999999999979,
          "velocity": 0.3543307086614173,
          "duration": 0.09583333333333144
        },
        {
          "name": "D#4",
          "midi": 63,
          "time": 159.9999999999979,
          "velocity": 1,
          "duration": 0.19999999999998863
        },
        {
          "name": "G4",
          "midi": 67,
          "time": 159.9999999999979,
          "velocity": 1,
          "duration": 0.19999999999998863
        },
        {
          "name": "A#4",
          "midi": 70,
          "time": 159.9999999999979,
          "velocity": 1,
          "duration": 0.19999999999998863
        },
        {
          "name": "A1",
          "midi": 33,
          "time": 159.9999999999979,
          "velocity": 0.8661417322834646,
          "duration": 0.3333333333333144
        },
        {
          "name": "A2",
          "midi": 45,
          "time": 159.9999999999979,
          "velocity": 0.8661417322834646,
          "duration": 0.3333333333333144
        },
        {
          "name": "A#5",
          "midi": 82,
          "time": 159.9999999999979,
          "velocity": 0.8661417322834646,
          "duration": 0.06666666666666288
        },
        {
          "name": "D#4",
          "midi": 63,
          "time": 159.9999999999979,
          "velocity": 1,
          "duration": 0.19999999999998863
        },
        {
          "name": "G4",
          "midi": 67,
          "time": 159.9999999999979,
          "velocity": 1,
          "duration": 0.19999999999998863
        },
        {
          "name": "A#4",
          "midi": 70,
          "time": 159.9999999999979,
          "velocity": 1,
          "duration": 0.19999999999998863
        },
        {
          "name": "C#2",
          "midi": 37,
          "time": 159.9999999999979,
          "velocity": 0.3543307086614173,
          "duration": 0.19583333333332575
        },
        {
          "name": "E2",
          "midi": 40,
          "time": 159.9999999999979,
          "velocity": 0.3543307086614173,
          "duration": 0.19583333333332575
        },
        {
          "name": "A1",
          "midi": 33,
          "time": 159.9999999999979,
          "velocity": 0.8661417322834646,
          "duration": 0.3333333333333144
        },
        {
          "name": "A2",
          "midi": 45,
          "time": 159.9999999999979,
          "velocity": 0.8661417322834646,
          "duration": 0.3333333333333144
        },
        {
          "name": "C6",
          "midi": 84,
          "time": 160.06666666666456,
          "velocity": 0.8661417322834646,
          "duration": 0.06666666666666288
        },
        {
          "name": "A#5",
          "midi": 82,
          "time": 160.13333333333122,
          "velocity": 0.8661417322834646,
          "duration": 0.06666666666666288
        },
        {
          "name": "D4",
          "midi": 62,
          "time": 160.19999999999789,
          "velocity": 0.8661417322834646,
          "duration": 0.19583333333332575
        },
        {
          "name": "F4",
          "midi": 65,
          "time": 160.19999999999789,
          "velocity": 0.8661417322834646,
          "duration": 0.19583333333332575
        },
        {
          "name": "A4",
          "midi": 69,
          "time": 160.19999999999789,
          "velocity": 0.8661417322834646,
          "duration": 0.19583333333332575
        },
        {
          "name": "A5",
          "midi": 81,
          "time": 160.19999999999789,
          "velocity": 0.8661417322834646,
          "duration": 0.06666666666666288
        },
        {
          "name": "D4",
          "midi": 62,
          "time": 160.19999999999789,
          "velocity": 0.8661417322834646,
          "duration": 0.19583333333332575
        },
        {
          "name": "F4",
          "midi": 65,
          "time": 160.19999999999789,
          "velocity": 0.8661417322834646,
          "duration": 0.19583333333332575
        },
        {
          "name": "A4",
          "midi": 69,
          "time": 160.19999999999789,
          "velocity": 0.8661417322834646,
          "duration": 0.19583333333332575
        },
        {
          "name": "C#2",
          "midi": 37,
          "time": 160.19999999999789,
          "velocity": 0.3543307086614173,
          "duration": 0.19583333333332575
        },
        {
          "name": "E2",
          "midi": 40,
          "time": 160.19999999999789,
          "velocity": 0.3543307086614173,
          "duration": 0.19583333333332575
        },
        {
          "name": "F4",
          "midi": 65,
          "time": 160.39999999999787,
          "velocity": 1,
          "duration": 0.19999999999998863
        },
        {
          "name": "A4",
          "midi": 69,
          "time": 160.39999999999787,
          "velocity": 1,
          "duration": 0.19999999999998863
        },
        {
          "name": "C5",
          "midi": 72,
          "time": 160.39999999999787,
          "velocity": 1,
          "duration": 0.19999999999998863
        },
        {
          "name": "D1",
          "midi": 26,
          "time": 160.39999999999787,
          "velocity": 0.8661417322834646,
          "duration": 0.3333333333333144
        },
        {
          "name": "D2",
          "midi": 38,
          "time": 160.39999999999787,
          "velocity": 0.8661417322834646,
          "duration": 0.3333333333333144
        },
        {
          "name": "C6",
          "midi": 84,
          "time": 160.39999999999787,
          "velocity": 0.8661417322834646,
          "duration": 0.06666666666666288
        },
        {
          "name": "F4",
          "midi": 65,
          "time": 160.39999999999787,
          "velocity": 1,
          "duration": 0.19999999999998863
        },
        {
          "name": "A4",
          "midi": 69,
          "time": 160.39999999999787,
          "velocity": 1,
          "duration": 0.19999999999998863
        },
        {
          "name": "C5",
          "midi": 72,
          "time": 160.39999999999787,
          "velocity": 1,
          "duration": 0.19999999999998863
        },
        {
          "name": "C#2",
          "midi": 37,
          "time": 160.39999999999787,
          "velocity": 0.3543307086614173,
          "duration": 0.19583333333332575
        },
        {
          "name": "E2",
          "midi": 40,
          "time": 160.39999999999787,
          "velocity": 0.3543307086614173,
          "duration": 0.19583333333332575
        },
        {
          "name": "D1",
          "midi": 26,
          "time": 160.39999999999787,
          "velocity": 0.8661417322834646,
          "duration": 0.3333333333333144
        },
        {
          "name": "D2",
          "midi": 38,
          "time": 160.39999999999787,
          "velocity": 0.8661417322834646,
          "duration": 0.3333333333333144
        },
        {
          "name": "D6",
          "midi": 86,
          "time": 160.46666666666454,
          "velocity": 0.8661417322834646,
          "duration": 0.06666666666666288
        },
        {
          "name": "C6",
          "midi": 84,
          "time": 160.5333333333312,
          "velocity": 0.8661417322834646,
          "duration": 0.06666666666666288
        },
        {
          "name": "E4",
          "midi": 64,
          "time": 160.59999999999786,
          "velocity": 0.8661417322834646,
          "duration": 0.19583333333332575
        },
        {
          "name": "G#4",
          "midi": 68,
          "time": 160.59999999999786,
          "velocity": 0.8661417322834646,
          "duration": 0.19583333333332575
        },
        {
          "name": "B4",
          "midi": 71,
          "time": 160.59999999999786,
          "velocity": 0.8661417322834646,
          "duration": 0.19583333333332575
        },
        {
          "name": "B5",
          "midi": 83,
          "time": 160.59999999999786,
          "velocity": 0.8661417322834646,
          "duration": 0.06666666666666288
        },
        {
          "name": "E4",
          "midi": 64,
          "time": 160.59999999999786,
          "velocity": 0.8661417322834646,
          "duration": 0.19583333333332575
        },
        {
          "name": "G#4",
          "midi": 68,
          "time": 160.59999999999786,
          "velocity": 0.8661417322834646,
          "duration": 0.19583333333332575
        },
        {
          "name": "B4",
          "midi": 71,
          "time": 160.59999999999786,
          "velocity": 0.8661417322834646,
          "duration": 0.19583333333332575
        },
        {
          "name": "C#2",
          "midi": 37,
          "time": 160.59999999999786,
          "velocity": 0.3543307086614173,
          "duration": 0.19583333333332575
        },
        {
          "name": "E2",
          "midi": 40,
          "time": 160.59999999999786,
          "velocity": 0.3543307086614173,
          "duration": 0.19583333333332575
        },
        {
          "name": "D#4",
          "midi": 63,
          "time": 160.79999999999785,
          "velocity": 0.8661417322834646,
          "duration": 0.09583333333330302
        },
        {
          "name": "G4",
          "midi": 67,
          "time": 160.79999999999785,
          "velocity": 0.8661417322834646,
          "duration": 0.09583333333330302
        },
        {
          "name": "A#4",
          "midi": 70,
          "time": 160.79999999999785,
          "velocity": 0.8661417322834646,
          "duration": 0.09583333333330302
        },
        {
          "name": "D2",
          "midi": 38,
          "time": 160.79999999999785,
          "velocity": 0.8661417322834646,
          "duration": 0.04583333333332007
        },
        {
          "name": "D3",
          "midi": 50,
          "time": 160.79999999999785,
          "velocity": 0.8661417322834646,
          "duration": 0.3333333333332291
        },
        {
          "name": "A#5",
          "midi": 82,
          "time": 160.79999999999785,
          "velocity": 0.8661417322834646,
          "duration": 0.09583333333330302
        },
        {
          "name": "D#4",
          "midi": 63,
          "time": 160.79999999999785,
          "velocity": 0.8661417322834646,
          "duration": 0.09583333333330302
        },
        {
          "name": "G4",
          "midi": 67,
          "time": 160.79999999999785,
          "velocity": 0.8661417322834646,
          "duration": 0.09583333333330302
        },
        {
          "name": "A#4",
          "midi": 70,
          "time": 160.79999999999785,
          "velocity": 0.8661417322834646,
          "duration": 0.09583333333330302
        },
        {
          "name": "C#2",
          "midi": 37,
          "time": 160.79999999999785,
          "velocity": 0.3543307086614173,
          "duration": 0.1958333333332689
        },
        {
          "name": "E2",
          "midi": 40,
          "time": 160.79999999999785,
          "velocity": 0.3543307086614173,
          "duration": 0.1958333333332689
        },
        {
          "name": "D2",
          "midi": 38,
          "time": 160.79999999999785,
          "velocity": 0.8661417322834646,
          "duration": 0.09583333333330302
        },
        {
          "name": "D2",
          "midi": 38,
          "time": 160.84999999999783,
          "velocity": 0.8661417322834646,
          "duration": 0.09583333333330302
        },
        {
          "name": "D#4",
          "midi": 63,
          "time": 160.89999999999782,
          "velocity": 0.8661417322834646,
          "duration": 0.09583333333330302
        },
        {
          "name": "G4",
          "midi": 67,
          "time": 160.89999999999782,
          "velocity": 0.8661417322834646,
          "duration": 0.09583333333330302
        },
        {
          "name": "A#4",
          "midi": 70,
          "time": 160.89999999999782,
          "velocity": 0.8661417322834646,
          "duration": 0.09583333333330302
        },
        {
          "name": "A#5",
          "midi": 82,
          "time": 160.89999999999782,
          "velocity": 0.8661417322834646,
          "duration": 0.09583333333330302
        },
        {
          "name": "D#4",
          "midi": 63,
          "time": 160.89999999999782,
          "velocity": 0.8661417322834646,
          "duration": 0.09583333333330302
        },
        {
          "name": "G4",
          "midi": 67,
          "time": 160.89999999999782,
          "velocity": 0.8661417322834646,
          "duration": 0.09583333333330302
        },
        {
          "name": "A#4",
          "midi": 70,
          "time": 160.89999999999782,
          "velocity": 0.8661417322834646,
          "duration": 0.09583333333330302
        },
        {
          "name": "D2",
          "midi": 38,
          "time": 160.89999999999782,
          "velocity": 0.8661417322834646,
          "duration": 0.09583333333330302
        },
        {
          "name": "D2",
          "midi": 38,
          "time": 160.9499999999978,
          "velocity": 0.8661417322834646,
          "duration": 0.09583333333330302
        },
        {
          "name": "E4",
          "midi": 64,
          "time": 160.99999999999778,
          "velocity": 0.8661417322834646,
          "duration": 0.1958333333332689
        },
        {
          "name": "G#4",
          "midi": 68,
          "time": 160.99999999999778,
          "velocity": 0.8661417322834646,
          "duration": 0.1958333333332689
        },
        {
          "name": "B4",
          "midi": 71,
          "time": 160.99999999999778,
          "velocity": 0.8661417322834646,
          "duration": 0.1958333333332689
        },
        {
          "name": "B5",
          "midi": 83,
          "time": 160.99999999999778,
          "velocity": 0.8661417322834646,
          "duration": 0.1958333333332689
        },
        {
          "name": "E4",
          "midi": 64,
          "time": 160.99999999999778,
          "velocity": 0.8661417322834646,
          "duration": 0.1958333333332689
        },
        {
          "name": "G#4",
          "midi": 68,
          "time": 160.99999999999778,
          "velocity": 0.8661417322834646,
          "duration": 0.1958333333332689
        },
        {
          "name": "B4",
          "midi": 71,
          "time": 160.99999999999778,
          "velocity": 0.8661417322834646,
          "duration": 0.1958333333332689
        },
        {
          "name": "C#2",
          "midi": 37,
          "time": 160.99999999999778,
          "velocity": 0.3543307086614173,
          "duration": 0.09583333333330302
        },
        {
          "name": "E2",
          "midi": 40,
          "time": 160.99999999999778,
          "velocity": 0.3543307086614173,
          "duration": 0.09583333333330302
        },
        {
          "name": "D2",
          "midi": 38,
          "time": 160.99999999999778,
          "velocity": 0.8661417322834646,
          "duration": 0.09583333333330302
        },
        {
          "name": "D2",
          "midi": 38,
          "time": 161.04999999999777,
          "velocity": 0.8661417322834646,
          "duration": 0.08333333333331439
        },
        {
          "name": "C#2",
          "midi": 37,
          "time": 161.09999999999775,
          "velocity": 0.3543307086614173,
          "duration": 0.09583333333330302
        },
        {
          "name": "E2",
          "midi": 40,
          "time": 161.09999999999775,
          "velocity": 0.3543307086614173,
          "duration": 0.09583333333330302
        },
        {
          "name": "D2",
          "midi": 38,
          "time": 161.09999999999775,
          "velocity": 0.8661417322834646,
          "duration": 0.04583333333332007
        },
        {
          "name": "D2",
          "midi": 38,
          "time": 161.14999999999773,
          "velocity": 0.8661417322834646,
          "duration": 0.04583333333332007
        },
        {
          "name": "F4",
          "midi": 65,
          "time": 161.19999999999771,
          "velocity": 1,
          "duration": 0.1999999999999602
        },
        {
          "name": "A4",
          "midi": 69,
          "time": 161.19999999999771,
          "velocity": 1,
          "duration": 0.1999999999999602
        },
        {
          "name": "C5",
          "midi": 72,
          "time": 161.19999999999771,
          "velocity": 1,
          "duration": 0.1999999999999602
        },
        {
          "name": "A1",
          "midi": 33,
          "time": 161.19999999999771,
          "velocity": 0.8661417322834646,
          "duration": 0.33333333333328596
        },
        {
          "name": "A2",
          "midi": 45,
          "time": 161.19999999999771,
          "velocity": 0.8661417322834646,
          "duration": 0.33333333333328596
        },
        {
          "name": "C6",
          "midi": 84,
          "time": 161.19999999999771,
          "velocity": 0.8661417322834646,
          "duration": 0.06666666666666288
        },
        {
          "name": "F4",
          "midi": 65,
          "time": 161.19999999999771,
          "velocity": 1,
          "duration": 0.1999999999999602
        },
        {
          "name": "A4",
          "midi": 69,
          "time": 161.19999999999771,
          "velocity": 1,
          "duration": 0.1999999999999602
        },
        {
          "name": "C5",
          "midi": 72,
          "time": 161.19999999999771,
          "velocity": 1,
          "duration": 0.1999999999999602
        },
        {
          "name": "C#2",
          "midi": 37,
          "time": 161.19999999999771,
          "velocity": 0.3543307086614173,
          "duration": 0.19583333333329733
        },
        {
          "name": "E2",
          "midi": 40,
          "time": 161.19999999999771,
          "velocity": 0.3543307086614173,
          "duration": 0.19583333333329733
        },
        {
          "name": "D2",
          "midi": 38,
          "time": 161.19999999999771,
          "velocity": 0.8661417322834646,
          "duration": 0.04583333333332007
        },
        {
          "name": "D2",
          "midi": 38,
          "time": 161.2499999999977,
          "velocity": 0.8661417322834646,
          "duration": 0.04583333333334849
        },
        {
          "name": "D6",
          "midi": 86,
          "time": 161.26666666666438,
          "velocity": 0.8661417322834646,
          "duration": 0.06666666666666288
        },
        {
          "name": "D2",
          "midi": 38,
          "time": 161.2999999999977,
          "velocity": 0.8661417322834646,
          "duration": 0.04583333333332007
        },
        {
          "name": "C6",
          "midi": 84,
          "time": 161.33333333333104,
          "velocity": 0.8661417322834646,
          "duration": 0.06666666666663446
        },
        {
          "name": "D2",
          "midi": 38,
          "time": 161.3499999999977,
          "velocity": 0.8661417322834646,
          "duration": 0.04583333333332007
        },
        {
          "name": "E4",
          "midi": 64,
          "time": 161.39999999999768,
          "velocity": 0.8661417322834646,
          "duration": 0.19583333333329733
        },
        {
          "name": "G#4",
          "midi": 68,
          "time": 161.39999999999768,
          "velocity": 0.8661417322834646,
          "duration": 0.19583333333329733
        },
        {
          "name": "B4",
          "midi": 71,
          "time": 161.39999999999768,
          "velocity": 0.8661417322834646,
          "duration": 0.19583333333329733
        },
        {
          "name": "B5",
          "midi": 83,
          "time": 161.39999999999768,
          "velocity": 0.8661417322834646,
          "duration": 0.06666666666666288
        },
        {
          "name": "E4",
          "midi": 64,
          "time": 161.39999999999768,
          "velocity": 0.8661417322834646,
          "duration": 0.19583333333329733
        },
        {
          "name": "G#4",
          "midi": 68,
          "time": 161.39999999999768,
          "velocity": 0.8661417322834646,
          "duration": 0.19583333333329733
        },
        {
          "name": "B4",
          "midi": 71,
          "time": 161.39999999999768,
          "velocity": 0.8661417322834646,
          "duration": 0.19583333333329733
        },
        {
          "name": "C#2",
          "midi": 37,
          "time": 161.39999999999768,
          "velocity": 0.3543307086614173,
          "duration": 0.19583333333329733
        },
        {
          "name": "E2",
          "midi": 40,
          "time": 161.39999999999768,
          "velocity": 0.3543307086614173,
          "duration": 0.19583333333329733
        },
        {
          "name": "D2",
          "midi": 38,
          "time": 161.39999999999768,
          "velocity": 0.8661417322834646,
          "duration": 0.04583333333332007
        },
        {
          "name": "D2",
          "midi": 38,
          "time": 161.44999999999766,
          "velocity": 0.8661417322834646,
          "duration": 0.04583333333334849
        },
        {
          "name": "D2",
          "midi": 38,
          "time": 161.49999999999767,
          "velocity": 0.8661417322834646,
          "duration": 0.04583333333332007
        },
        {
          "name": "D2",
          "midi": 38,
          "time": 161.54999999999765,
          "velocity": 0.8661417322834646,
          "duration": 0.04583333333332007
        },
        {
          "name": "F4",
          "midi": 65,
          "time": 161.59999999999764,
          "velocity": 1,
          "duration": 0.1999999999999602
        },
        {
          "name": "A4",
          "midi": 69,
          "time": 161.59999999999764,
          "velocity": 1,
          "duration": 0.1999999999999602
        },
        {
          "name": "C5",
          "midi": 72,
          "time": 161.59999999999764,
          "velocity": 1,
          "duration": 0.1999999999999602
        },
        {
          "name": "D2",
          "midi": 38,
          "time": 161.59999999999764,
          "velocity": 0.8661417322834646,
          "duration": 0.04583333333332007
        },
        {
          "name": "D3",
          "midi": 50,
          "time": 161.59999999999764,
          "velocity": 0.8661417322834646,
          "duration": 0.33333333333328596
        },
        {
          "name": "C6",
          "midi": 84,
          "time": 161.59999999999764,
          "velocity": 0.8661417322834646,
          "duration": 0.06666666666666288
        },
        {
          "name": "F4",
          "midi": 65,
          "time": 161.59999999999764,
          "velocity": 1,
          "duration": 0.1999999999999602
        },
        {
          "name": "A4",
          "midi": 69,
          "time": 161.59999999999764,
          "velocity": 1,
          "duration": 0.1999999999999602
        },
        {
          "name": "C5",
          "midi": 72,
          "time": 161.59999999999764,
          "velocity": 1,
          "duration": 0.1999999999999602
        },
        {
          "name": "C#2",
          "midi": 37,
          "time": 161.59999999999764,
          "velocity": 0.3543307086614173,
          "duration": 0.19583333333329733
        },
        {
          "name": "E2",
          "midi": 40,
          "time": 161.59999999999764,
          "velocity": 0.3543307086614173,
          "duration": 0.19583333333329733
        },
        {
          "name": "D2",
          "midi": 38,
          "time": 161.59999999999764,
          "velocity": 0.8661417322834646,
          "duration": 0.09583333333333144
        },
        {
          "name": "D2",
          "midi": 38,
          "time": 161.64999999999762,
          "velocity": 0.8661417322834646,
          "duration": 0.09583333333333144
        },
        {
          "name": "B5",
          "midi": 83,
          "time": 161.6666666666643,
          "velocity": 0.8661417322834646,
          "duration": 0.06666666666666288
        },
        {
          "name": "D2",
          "midi": 38,
          "time": 161.69999999999763,
          "velocity": 0.8661417322834646,
          "duration": 0.09583333333330302
        },
        {
          "name": "C6",
          "midi": 84,
          "time": 161.73333333333096,
          "velocity": 0.8661417322834646,
          "duration": 0.06666666666663446
        },
        {
          "name": "D2",
          "midi": 38,
          "time": 161.7499999999976,
          "velocity": 0.8661417322834646,
          "duration": 0.09583333333330302
        },
        {
          "name": "E4",
          "midi": 64,
          "time": 161.7999999999976,
          "velocity": 0.8661417322834646,
          "duration": 0.19583333333329733
        },
        {
          "name": "G#4",
          "midi": 68,
          "time": 161.7999999999976,
          "velocity": 0.8661417322834646,
          "duration": 0.19583333333329733
        },
        {
          "name": "C#5",
          "midi": 73,
          "time": 161.7999999999976,
          "velocity": 0.8661417322834646,
          "duration": 0.19583333333329733
        },
        {
          "name": "C#6",
          "midi": 85,
          "time": 161.7999999999976,
          "velocity": 0.8661417322834646,
          "duration": 0.06666666666666288
        },
        {
          "name": "E4",
          "midi": 64,
          "time": 161.7999999999976,
          "velocity": 0.8661417322834646,
          "duration": 0.19583333333329733
        },
        {
          "name": "G#4",
          "midi": 68,
          "time": 161.7999999999976,
          "velocity": 0.8661417322834646,
          "duration": 0.19583333333329733
        },
        {
          "name": "C#5",
          "midi": 73,
          "time": 161.7999999999976,
          "velocity": 0.8661417322834646,
          "duration": 0.19583333333329733
        },
        {
          "name": "C#2",
          "midi": 37,
          "time": 161.7999999999976,
          "velocity": 0.3543307086614173,
          "duration": 0.19583333333329733
        },
        {
          "name": "E2",
          "midi": 40,
          "time": 161.7999999999976,
          "velocity": 0.3543307086614173,
          "duration": 0.19583333333329733
        },
        {
          "name": "D2",
          "midi": 38,
          "time": 161.7999999999976,
          "velocity": 0.8661417322834646,
          "duration": 0.09583333333333144
        },
        {
          "name": "D2",
          "midi": 38,
          "time": 161.84999999999758,
          "velocity": 0.8661417322834646,
          "duration": 0.08333333333334281
        },
        {
          "name": "D2",
          "midi": 38,
          "time": 161.8999999999976,
          "velocity": 0.8661417322834646,
          "duration": 0.04583333333332007
        },
        {
          "name": "D2",
          "midi": 38,
          "time": 161.94999999999757,
          "velocity": 0.8661417322834646,
          "duration": 0.04583333333332007
        },
        {
          "name": "D4",
          "midi": 62,
          "time": 161.99999999999756,
          "velocity": 1,
          "duration": 0.3333333333333428
        },
        {
          "name": "F4",
          "midi": 65,
          "time": 161.99999999999756,
          "velocity": 1,
          "duration": 0.3333333333333428
        },
        {
          "name": "A4",
          "midi": 69,
          "time": 161.99999999999756,
          "velocity": 1,
          "duration": 0.3333333333333428
        },
        {
          "name": "D5",
          "midi": 74,
          "time": 161.99999999999756,
          "velocity": 1,
          "duration": 0.3333333333333428
        },
        {
          "name": "D2",
          "midi": 38,
          "time": 161.99999999999756,
          "velocity": 1,
          "duration": 0.3333333333333428
        },
        {
          "name": "D3",
          "midi": 50,
          "time": 161.99999999999756,
          "velocity": 1,
          "duration": 0.3333333333333428
        },
        {
          "name": "D6",
          "midi": 86,
          "time": 161.99999999999756,
          "velocity": 1,
          "duration": 0.3333333333333428
        },
        {
          "name": "D4",
          "midi": 62,
          "time": 161.99999999999756,
          "velocity": 1,
          "duration": 0.3333333333333428
        },
        {
          "name": "F4",
          "midi": 65,
          "time": 161.99999999999756,
          "velocity": 1,
          "duration": 0.3333333333333428
        },
        {
          "name": "A4",
          "midi": 69,
          "time": 161.99999999999756,
          "velocity": 1,
          "duration": 0.3333333333333428
        },
        {
          "name": "D5",
          "midi": 74,
          "time": 161.99999999999756,
          "velocity": 1,
          "duration": 0.3333333333333428
        },
        {
          "name": "C#2",
          "midi": 37,
          "time": 161.99999999999756,
          "velocity": 0.49606299212598426,
          "duration": 0.3333333333333428
        },
        {
          "name": "E2",
          "midi": 40,
          "time": 161.99999999999756,
          "velocity": 0.49606299212598426,
          "duration": 0.3333333333333428
        },
        {
          "name": "C#3",
          "midi": 49,
          "time": 161.99999999999756,
          "velocity": 0.49606299212598426,
          "duration": 0.3333333333333428
        },
        {
          "name": "D2",
          "midi": 38,
          "time": 161.99999999999756,
          "velocity": 1,
          "duration": 0.3333333333333428
        },
        {
          "name": "D3",
          "midi": 50,
          "time": 161.99999999999756,
          "velocity": 1,
          "duration": 0.3333333333333428
        },
        {
          "name": "D4",
          "midi": 62,
          "time": 163.19999999999757,
          "velocity": 1,
          "duration": 0.3333333333333428
        },
        {
          "name": "D2",
          "midi": 38,
          "time": 163.19999999999757,
          "velocity": 1,
          "duration": 0.3333333333333428
        },
        {
          "name": "D3",
          "midi": 50,
          "time": 163.19999999999757,
          "velocity": 1,
          "duration": 0.3333333333333428
        },
        {
          "name": "D5",
          "midi": 74,
          "time": 163.19999999999757,
          "velocity": 0.8661417322834646,
          "duration": 0.3333333333333428
        },
        {
          "name": "D4",
          "midi": 62,
          "time": 163.19999999999757,
          "velocity": 1,
          "duration": 0.3333333333333428
        },
        {
          "name": "C#2",
          "midi": 37,
          "time": 163.19999999999757,
          "velocity": 0.49606299212598426,
          "duration": 0.3333333333333428
        },
        {
          "name": "E2",
          "midi": 40,
          "time": 163.19999999999757,
          "velocity": 0.49606299212598426,
          "duration": 0.3333333333333428
        },
        {
          "name": "D2",
          "midi": 38,
          "time": 163.19999999999757,
          "velocity": 1,
          "duration": 0.3333333333333428
        },
        {
          "name": "D3",
          "midi": 50,
          "time": 163.19999999999757,
          "velocity": 1,
          "duration": 0.3333333333333428
        }
      ],
      "controlChanges": {
        "7": [
          {
            "number": 7,
            "time": 0,
            "value": 1
          },
          {
            "number": 7,
            "time": 0,
            "value": 1
          },
          {
            "number": 7,
            "time": 0,
            "value": 1
          },
          {
            "number": 7,
            "time": 0,
            "value": 1
          },
          {
            "number": 7,
            "time": 0,
            "value": 1
          },
          {
            "number": 7,
            "time": 0,
            "value": 1
          },
          {
            "number": 7,
            "time": 0,
            "value": 1
          },
          {
            "number": 7,
            "time": 0,
            "value": 1
          },
          {
            "number": 7,
            "time": 0,
            "value": 1
          }
        ],
        "10": [
          {
            "number": 10,
            "time": 0,
            "value": 0.5039370078740157
          },
          {
            "number": 10,
            "time": 0,
            "value": 0.5039370078740157
          },
          {
            "number": 10,
            "time": 0,
            "value": 0.5039370078740157
          },
          {
            "number": 10,
            "time": 0,
            "value": 0.5039370078740157
          },
          {
            "number": 10,
            "time": 0,
            "value": 0.5039370078740157
          },
          {
            "number": 10,
            "time": 0,
            "value": 0.5039370078740157
          },
          {
            "number": 10,
            "time": 0,
            "value": 0.5039370078740157
          },
          {
            "number": 10,
            "time": 0,
            "value": 0.5039370078740157
          },
          {
            "number": 10,
            "time": 0,
            "value": 0.5039370078740157
          }
        ]
      },
      "id": 0,
      "name": "Man of La Mancha",
      "instrumentNumber": 72,
      "instrument": "piccolo",
      "instrumentFamily": "pipe",
      "channelNumber": 4,
      "isPercussion": false
    }
  ]
}