{
  "header": {
    "PPQ": 1024,
    "timeSignature": [
      4,
      4
    ],
    "bpm": 152.00032426735845,
    "name": ""
  },
  "startTime": 0,
  "duration": 244.63763600000553,
  "tracks": [
    {
      "startTime": 0,
      "duration": 0,
      "length": 0,
      "notes": [],
      "controlChanges": {},
      "id": 0
    },
    {
      "startTime": 0,
      "duration": 244.63763600000553,
      "length": 2143,
      "notes": [
        {
          "name": "A#2",
          "midi": 46,
          "time": 0,
          "velocity": 0.8661417322834646,
          "duration": 0.5261861718749999
        },
        {
          "name": "C3",
          "midi": 48,
          "time": 0.592104,
          "velocity": 0.8661417322834646,
          "duration": 0.197368
        },
        {
          "name": "C3",
          "midi": 48,
          "time": 0.789472,
          "velocity": 0.8661417322834646,
          "duration": 0.526186171875
        },
        {
          "name": "A2",
          "midi": 45,
          "time": 1.381576,
          "velocity": 0.8661417322834646,
          "duration": 0.197368
        },
        {
          "name": "A2",
          "midi": 45,
          "time": 1.578944,
          "velocity": 0.8661417322834646,
          "duration": 0.526186171875
        },
        {
          "name": "A#2",
          "midi": 46,
          "time": 2.171048,
          "velocity": 0.8661417322834646,
          "duration": 0.197368
        },
        {
          "name": "A#2",
          "midi": 46,
          "time": 2.368416,
          "velocity": 0.8661417322834646,
          "duration": 0.526186171875
        },
        {
          "name": "A#2",
          "midi": 46,
          "time": 2.96052,
          "velocity": 0.8661417322834646,
          "duration": 0.19312767187500013
        },
        {
          "name": "A#2",
          "midi": 46,
          "time": 3.157888,
          "velocity": 0.8661417322834646,
          "duration": 0.526186171875
        },
        {
          "name": "C3",
          "midi": 48,
          "time": 3.7499919999999998,
          "velocity": 0.8661417322834646,
          "duration": 0.197368
        },
        {
          "name": "C3",
          "midi": 48,
          "time": 3.9473599999999998,
          "velocity": 0.8661417322834646,
          "duration": 0.5261861718749996
        },
        {
          "name": "A2",
          "midi": 45,
          "time": 4.539464,
          "velocity": 0.8661417322834646,
          "duration": 0.197368
        },
        {
          "name": "A2",
          "midi": 45,
          "time": 4.736832,
          "velocity": 0.8661417322834646,
          "duration": 0.5261861718749996
        },
        {
          "name": "D3",
          "midi": 50,
          "time": 5.328936,
          "velocity": 0.8661417322834646,
          "duration": 0.197368
        },
        {
          "name": "D3",
          "midi": 50,
          "time": 5.526304,
          "velocity": 0.8661417322834646,
          "duration": 0.6907879999999995
        },
        {
          "name": "D5",
          "midi": 74,
          "time": 6.118408,
          "velocity": 0.8661417322834646,
          "duration": 0.19312767187499968
        },
        {
          "name": "D5",
          "midi": 74,
          "time": 6.315776,
          "velocity": 0.8661417322834646,
          "duration": 0.19312767187499968
        },
        {
          "name": "A#2",
          "midi": 46,
          "time": 6.315776,
          "velocity": 0.8661417322834646,
          "duration": 0.5261861718749996
        },
        {
          "name": "E5",
          "midi": 76,
          "time": 6.513144,
          "velocity": 0.8661417322834646,
          "duration": 0.19312767187499968
        },
        {
          "name": "F5",
          "midi": 77,
          "time": 6.710512,
          "velocity": 0.8661417322834646,
          "duration": 0.19312767187499968
        },
        {
          "name": "G5",
          "midi": 79,
          "time": 6.90788,
          "velocity": 0.8661417322834646,
          "duration": 0.394736
        },
        {
          "name": "C3",
          "midi": 48,
          "time": 6.90788,
          "velocity": 0.8661417322834646,
          "duration": 0.197368
        },
        {
          "name": "C3",
          "midi": 48,
          "time": 7.105248,
          "velocity": 0.8661417322834646,
          "duration": 0.5261861718749996
        },
        {
          "name": "F5",
          "midi": 77,
          "time": 7.3026159999999996,
          "velocity": 0.8661417322834646,
          "duration": 0.19312767187499968
        },
        {
          "name": "E5",
          "midi": 76,
          "time": 7.4999839999999995,
          "velocity": 0.8661417322834646,
          "duration": 0.19312767187499968
        },
        {
          "name": "C5",
          "midi": 72,
          "time": 7.6973519999999995,
          "velocity": 0.8661417322834646,
          "duration": 0.197368
        },
        {
          "name": "A2",
          "midi": 45,
          "time": 7.6973519999999995,
          "velocity": 0.8661417322834646,
          "duration": 0.197368
        },
        {
          "name": "C5",
          "midi": 72,
          "time": 7.8947199999999995,
          "velocity": 0.8661417322834646,
          "duration": 0.19312767187500057
        },
        {
          "name": "A2",
          "midi": 45,
          "time": 7.8947199999999995,
          "velocity": 0.8661417322834646,
          "duration": 0.5261861718750023
        },
        {
          "name": "D5",
          "midi": 74,
          "time": 8.092088,
          "velocity": 0.8661417322834646,
          "duration": 0.19312767187500057
        },
        {
          "name": "E5",
          "midi": 76,
          "time": 8.289456000000001,
          "velocity": 0.8661417322834646,
          "duration": 0.19312767187500057
        },
        {
          "name": "F5",
          "midi": 77,
          "time": 8.486824000000002,
          "velocity": 0.8661417322834646,
          "duration": 0.5921040000000009
        },
        {
          "name": "A#2",
          "midi": 46,
          "time": 8.486824000000002,
          "velocity": 0.8661417322834646,
          "duration": 0.19736800000000088
        },
        {
          "name": "A#2",
          "midi": 46,
          "time": 8.684192000000003,
          "velocity": 0.8661417322834646,
          "duration": 0.5261861718750005
        },
        {
          "name": "D5",
          "midi": 74,
          "time": 9.276296000000004,
          "velocity": 0.8661417322834646,
          "duration": 0.19312767187500057
        },
        {
          "name": "A#2",
          "midi": 46,
          "time": 9.276296000000004,
          "velocity": 0.8661417322834646,
          "duration": 0.19312767187500057
        },
        {
          "name": "D5",
          "midi": 74,
          "time": 9.473664000000005,
          "velocity": 0.8661417322834646,
          "duration": 0.19312767187500057
        },
        {
          "name": "A#2",
          "midi": 46,
          "time": 9.473664000000005,
          "velocity": 0.8661417322834646,
          "duration": 0.5261861718750023
        },
        {
          "name": "E5",
          "midi": 76,
          "time": 9.671032000000006,
          "velocity": 0.8661417322834646,
          "duration": 0.19312767187500057
        },
        {
          "name": "F5",
          "midi": 77,
          "time": 9.868400000000007,
          "velocity": 0.8661417322834646,
          "duration": 0.19312767187500057
        },
        {
          "name": "G5",
          "midi": 79,
          "time": 10.065768000000007,
          "velocity": 0.8661417322834646,
          "duration": 0.394736
        },
        {
          "name": "C3",
          "midi": 48,
          "time": 10.065768000000007,
          "velocity": 0.8661417322834646,
          "duration": 0.1973679999999991
        },
        {
          "name": "C3",
          "midi": 48,
          "time": 10.263136000000006,
          "velocity": 0.8661417322834646,
          "duration": 0.5261861718750023
        },
        {
          "name": "F5",
          "midi": 77,
          "time": 10.460504000000007,
          "velocity": 0.8661417322834646,
          "duration": 0.19312767187500057
        },
        {
          "name": "G5",
          "midi": 79,
          "time": 10.657872000000008,
          "velocity": 0.8661417322834646,
          "duration": 0.19312767187500057
        },
        {
          "name": "A5",
          "midi": 81,
          "time": 10.855240000000009,
          "velocity": 0.8661417322834646,
          "duration": 0.19736800000000088
        },
        {
          "name": "A2",
          "midi": 45,
          "time": 10.855240000000009,
          "velocity": 0.8661417322834646,
          "duration": 0.19736800000000088
        },
        {
          "name": "A5",
          "midi": 81,
          "time": 11.05260800000001,
          "velocity": 0.8661417322834646,
          "duration": 0.19312767187500057
        },
        {
          "name": "A2",
          "midi": 45,
          "time": 11.05260800000001,
          "velocity": 0.8661417322834646,
          "duration": 0.5261861718750023
        },
        {
          "name": "A#5",
          "midi": 82,
          "time": 11.24997600000001,
          "velocity": 0.8661417322834646,
          "duration": 0.19312767187500057
        },
        {
          "name": "A5",
          "midi": 81,
          "time": 11.447344000000012,
          "velocity": 0.8661417322834646,
          "duration": 0.19312767187500057
        },
        {
          "name": "F5",
          "midi": 77,
          "time": 11.644712000000013,
          "velocity": 0.8661417322834646,
          "duration": 0.5921040000000009
        },
        {
          "name": "D3",
          "midi": 50,
          "time": 11.644712000000013,
          "velocity": 0.8661417322834646,
          "duration": 0.19736800000000088
        },
        {
          "name": "D3",
          "midi": 50,
          "time": 11.842080000000013,
          "velocity": 0.8661417322834646,
          "duration": 0.6907879999999995
        },
        {
          "name": "D5",
          "midi": 74,
          "time": 12.434184000000013,
          "velocity": 0.8661417322834646,
          "duration": 0.19312767187500057
        },
        {
          "name": "D5",
          "midi": 74,
          "time": 12.631552000000013,
          "velocity": 0.8661417322834646,
          "duration": 0.19312767187500057
        },
        {
          "name": "A#2",
          "midi": 46,
          "time": 12.631552000000013,
          "velocity": 0.8661417322834646,
          "duration": 0.5261861718750023
        },
        {
          "name": "E5",
          "midi": 76,
          "time": 12.828920000000014,
          "velocity": 0.8661417322834646,
          "duration": 0.19312767187500057
        },
        {
          "name": "F5",
          "midi": 77,
          "time": 13.026288000000015,
          "velocity": 0.8661417322834646,
          "duration": 0.19312767187500057
        },
        {
          "name": "G5",
          "midi": 79,
          "time": 13.223656000000016,
          "velocity": 0.8661417322834646,
          "duration": 0.39473600000000175
        },
        {
          "name": "C3",
          "midi": 48,
          "time": 13.223656000000016,
          "velocity": 0.8661417322834646,
          "duration": 0.19736800000000088
        },
        {
          "name": "C3",
          "midi": 48,
          "time": 13.421024000000017,
          "velocity": 0.8661417322834646,
          "duration": 0.5261861718750023
        },
        {
          "name": "F5",
          "midi": 77,
          "time": 13.618392000000018,
          "velocity": 0.8661417322834646,
          "duration": 0.19312767187500057
        },
        {
          "name": "E5",
          "midi": 76,
          "time": 13.815760000000019,
          "velocity": 0.8661417322834646,
          "duration": 0.19312767187500057
        },
        {
          "name": "E5",
          "midi": 76,
          "time": 14.01312800000002,
          "velocity": 0.8661417322834646,
          "duration": 0.19736800000000088
        },
        {
          "name": "A2",
          "midi": 45,
          "time": 14.01312800000002,
          "velocity": 0.8661417322834646,
          "duration": 0.19736800000000088
        },
        {
          "name": "E5",
          "midi": 76,
          "time": 14.21049600000002,
          "velocity": 0.8661417322834646,
          "duration": 0.19312767187500057
        },
        {
          "name": "A2",
          "midi": 45,
          "time": 14.21049600000002,
          "velocity": 0.8661417322834646,
          "duration": 0.5261861718750023
        },
        {
          "name": "F5",
          "midi": 77,
          "time": 14.407864000000021,
          "velocity": 0.8661417322834646,
          "duration": 0.19312767187500057
        },
        {
          "name": "G5",
          "midi": 79,
          "time": 14.605232000000022,
          "velocity": 0.8661417322834646,
          "duration": 0.19312767187500057
        },
        {
          "name": "G5",
          "midi": 79,
          "time": 14.802600000000023,
          "velocity": 0.8661417322834646,
          "duration": 0.19312767187500057
        },
        {
          "name": "A#2",
          "midi": 46,
          "time": 14.802600000000023,
          "velocity": 0.8661417322834646,
          "duration": 0.19736800000000088
        },
        {
          "name": "F5",
          "midi": 77,
          "time": 14.999968000000024,
          "velocity": 0.8661417322834646,
          "duration": 0.3288181718749996
        },
        {
          "name": "A#2",
          "midi": 46,
          "time": 14.999968000000024,
          "velocity": 0.8661417322834646,
          "duration": 0.5261861718750005
        },
        {
          "name": "D5",
          "midi": 74,
          "time": 15.592072000000025,
          "velocity": 0.8661417322834646,
          "duration": 0.19312767187500057
        },
        {
          "name": "A#2",
          "midi": 46,
          "time": 15.592072000000025,
          "velocity": 0.8661417322834646,
          "duration": 0.19312767187500057
        },
        {
          "name": "D5",
          "midi": 74,
          "time": 15.789440000000026,
          "velocity": 0.8661417322834646,
          "duration": 0.19312767187500057
        },
        {
          "name": "A#2",
          "midi": 46,
          "time": 15.789440000000026,
          "velocity": 0.8661417322834646,
          "duration": 0.5261861718749987
        },
        {
          "name": "E5",
          "midi": 76,
          "time": 15.986808000000027,
          "velocity": 0.8661417322834646,
          "duration": 0.1931276718749988
        },
        {
          "name": "F5",
          "midi": 77,
          "time": 16.184176000000026,
          "velocity": 0.8661417322834646,
          "duration": 0.19312767187499702
        },
        {
          "name": "G5",
          "midi": 79,
          "time": 16.381544000000023,
          "velocity": 0.8661417322834646,
          "duration": 0.39473600000000175
        },
        {
          "name": "C3",
          "midi": 48,
          "time": 16.381544000000023,
          "velocity": 0.8661417322834646,
          "duration": 0.19736800000000088
        },
        {
          "name": "C3",
          "midi": 48,
          "time": 16.578912000000024,
          "velocity": 0.8661417322834646,
          "duration": 0.5261861718750005
        },
        {
          "name": "F5",
          "midi": 77,
          "time": 16.776280000000025,
          "velocity": 0.8661417322834646,
          "duration": 0.19312767187500057
        },
        {
          "name": "G5",
          "midi": 79,
          "time": 16.973648000000026,
          "velocity": 0.8661417322834646,
          "duration": 0.19312767187499702
        },
        {
          "name": "A5",
          "midi": 81,
          "time": 17.171016000000023,
          "velocity": 0.8661417322834646,
          "duration": 0.19736800000000088
        },
        {
          "name": "A2",
          "midi": 45,
          "time": 17.171016000000023,
          "velocity": 0.8661417322834646,
          "duration": 0.19736800000000088
        },
        {
          "name": "A5",
          "midi": 81,
          "time": 17.368384000000024,
          "velocity": 0.8661417322834646,
          "duration": 0.19312767187500057
        },
        {
          "name": "A2",
          "midi": 45,
          "time": 17.368384000000024,
          "velocity": 0.8661417322834646,
          "duration": 0.5261861718750005
        },
        {
          "name": "A#5",
          "midi": 82,
          "time": 17.565752000000025,
          "velocity": 0.8661417322834646,
          "duration": 0.19312767187500057
        },
        {
          "name": "A5",
          "midi": 81,
          "time": 17.763120000000026,
          "velocity": 0.8661417322834646,
          "duration": 0.19312767187499702
        },
        {
          "name": "F5",
          "midi": 77,
          "time": 17.960488000000023,
          "velocity": 0.8661417322834646,
          "duration": 0.19312767187500057
        },
        {
          "name": "D3",
          "midi": 50,
          "time": 17.960488000000023,
          "velocity": 0.8661417322834646,
          "duration": 0.19736800000000088
        },
        {
          "name": "D3",
          "midi": 50,
          "time": 18.157856000000024,
          "velocity": 0.8661417322834646,
          "duration": 0.6907879999999977
        },
        {
          "name": "G5",
          "midi": 79,
          "time": 18.355224000000025,
          "velocity": 0.8661417322834646,
          "duration": 0.3288181718749996
        },
        {
          "name": "G5",
          "midi": 79,
          "time": 18.749960000000023,
          "velocity": 0.8661417322834646,
          "duration": 0.19312767187499702
        },
        {
          "name": "F5",
          "midi": 77,
          "time": 18.94732800000002,
          "velocity": 0.8661417322834646,
          "duration": 1.578944
        },
        {
          "name": "A#2",
          "midi": 46,
          "time": 18.94732800000002,
          "velocity": 0.8661417322834646,
          "duration": 0.5261861718750005
        },
        {
          "name": "C3",
          "midi": 48,
          "time": 19.53943200000002,
          "velocity": 0.8661417322834646,
          "duration": 0.19736800000000088
        },
        {
          "name": "C3",
          "midi": 48,
          "time": 19.73680000000002,
          "velocity": 0.8661417322834646,
          "duration": 0.5261861718750005
        },
        {
          "name": "A2",
          "midi": 45,
          "time": 20.32890400000002,
          "velocity": 0.8661417322834646,
          "duration": 0.19736800000000088
        },
        {
          "name": "A2",
          "midi": 45,
          "time": 20.52627200000002,
          "velocity": 0.8661417322834646,
          "duration": 0.5261861718750005
        },
        {
          "name": "A#2",
          "midi": 46,
          "time": 21.11837600000002,
          "velocity": 0.8661417322834646,
          "duration": 0.19736800000000088
        },
        {
          "name": "A#2",
          "midi": 46,
          "time": 21.31574400000002,
          "velocity": 0.8661417322834646,
          "duration": 0.5261861718750005
        },
        {
          "name": "A#2",
          "midi": 46,
          "time": 21.90784800000002,
          "velocity": 0.8661417322834646,
          "duration": 0.19312767187500057
        },
        {
          "name": "A#2",
          "midi": 46,
          "time": 22.10521600000002,
          "velocity": 0.8661417322834646,
          "duration": 0.5261861718750005
        },
        {
          "name": "C3",
          "midi": 48,
          "time": 22.69732000000002,
          "velocity": 0.8661417322834646,
          "duration": 0.19736800000000088
        },
        {
          "name": "C3",
          "midi": 48,
          "time": 22.89468800000002,
          "velocity": 0.8661417322834646,
          "duration": 0.5261861718750005
        },
        {
          "name": "A3",
          "midi": 57,
          "time": 23.48679200000002,
          "velocity": 0.8661417322834646,
          "duration": 0.19312767187500057
        },
        {
          "name": "D4",
          "midi": 62,
          "time": 23.48679200000002,
          "velocity": 0.8661417322834646,
          "duration": 0.19312767187500057
        },
        {
          "name": "D3",
          "midi": 50,
          "time": 23.48679200000002,
          "velocity": 0.8661417322834646,
          "duration": 0.19312767187500057
        },
        {
          "name": "A3",
          "midi": 57,
          "time": 23.68416000000002,
          "velocity": 0.8661417322834646,
          "duration": 1.085524000000003
        },
        {
          "name": "D4",
          "midi": 62,
          "time": 23.68416000000002,
          "velocity": 0.8661417322834646,
          "duration": 1.085524000000003
        },
        {
          "name": "D3",
          "midi": 50,
          "time": 23.68416000000002,
          "velocity": 0.8661417322834646,
          "duration": 0.19312767187500057
        },
        {
          "name": "D3",
          "midi": 50,
          "time": 23.88152800000002,
          "velocity": 0.8661417322834646,
          "duration": 0.19312767187500057
        },
        {
          "name": "D3",
          "midi": 50,
          "time": 24.07889600000002,
          "velocity": 0.8661417322834646,
          "duration": 0.19312767187500057
        },
        {
          "name": "D3",
          "midi": 50,
          "time": 24.276264000000022,
          "velocity": 0.8661417322834646,
          "duration": 0.19312767187500057
        },
        {
          "name": "D3",
          "midi": 50,
          "time": 24.473632000000023,
          "velocity": 0.8661417322834646,
          "duration": 0.19312767187500057
        },
        {
          "name": "D3",
          "midi": 50,
          "time": 24.671000000000024,
          "velocity": 0.8661417322834646,
          "duration": 0.19312767187499702
        },
        {
          "name": "D3",
          "midi": 50,
          "time": 24.86836800000002,
          "velocity": 0.8661417322834646,
          "duration": 0.19312767187500057
        },
        {
          "name": "C4",
          "midi": 60,
          "time": 25.065736000000022,
          "velocity": 0.8661417322834646,
          "duration": 0.19312767187500057
        },
        {
          "name": "G4",
          "midi": 67,
          "time": 25.065736000000022,
          "velocity": 0.8661417322834646,
          "duration": 0.19312767187500057
        },
        {
          "name": "D3",
          "midi": 50,
          "time": 25.065736000000022,
          "velocity": 0.8661417322834646,
          "duration": 0.19312767187500057
        },
        {
          "name": "D3",
          "midi": 50,
          "time": 25.263104000000023,
          "velocity": 0.8661417322834646,
          "duration": 0.19312767187500057
        },
        {
          "name": "C4",
          "midi": 60,
          "time": 25.460472000000024,
          "velocity": 0.8661417322834646,
          "duration": 0.19312767187500057
        },
        {
          "name": "F#4",
          "midi": 66,
          "time": 25.460472000000024,
          "velocity": 0.8661417322834646,
          "duration": 0.19312767187500057
        },
        {
          "name": "D3",
          "midi": 50,
          "time": 25.460472000000024,
          "velocity": 0.8661417322834646,
          "duration": 0.19312767187500057
        },
        {
          "name": "D3",
          "midi": 50,
          "time": 25.657840000000025,
          "velocity": 0.8661417322834646,
          "duration": 0.19312767187500057
        },
        {
          "name": "B3",
          "midi": 59,
          "time": 25.855208000000026,
          "velocity": 0.8661417322834646,
          "duration": 0.19736800000000088
        },
        {
          "name": "E4",
          "midi": 64,
          "time": 25.855208000000026,
          "velocity": 0.8661417322834646,
          "duration": 0.19736800000000088
        },
        {
          "name": "D3",
          "midi": 50,
          "time": 25.855208000000026,
          "velocity": 0.8661417322834646,
          "duration": 0.19312767187500057
        },
        {
          "name": "B3",
          "midi": 59,
          "time": 26.052576000000027,
          "velocity": 0.8661417322834646,
          "duration": 0.19312767187500057
        },
        {
          "name": "E4",
          "midi": 64,
          "time": 26.052576000000027,
          "velocity": 0.8661417322834646,
          "duration": 0.19312767187500057
        },
        {
          "name": "D3",
          "midi": 50,
          "time": 26.052576000000027,
          "velocity": 0.8661417322834646,
          "duration": 0.19312767187500057
        },
        {
          "name": "B3",
          "midi": 59,
          "time": 26.249944000000028,
          "velocity": 0.8661417322834646,
          "duration": 0.19312767187500057
        },
        {
          "name": "E4",
          "midi": 64,
          "time": 26.249944000000028,
          "velocity": 0.8661417322834646,
          "duration": 0.19312767187500057
        },
        {
          "name": "D3",
          "midi": 50,
          "time": 26.249944000000028,
          "velocity": 0.8661417322834646,
          "duration": 0.19312767187500057
        },
        {
          "name": "D3",
          "midi": 50,
          "time": 26.44731200000003,
          "velocity": 0.8661417322834646,
          "duration": 0.19312767187500057
        },
        {
          "name": "A3",
          "midi": 57,
          "time": 26.64468000000003,
          "velocity": 0.8661417322834646,
          "duration": 0.19312767187500057
        },
        {
          "name": "D4",
          "midi": 62,
          "time": 26.64468000000003,
          "velocity": 0.8661417322834646,
          "duration": 0.19312767187500057
        },
        {
          "name": "D3",
          "midi": 50,
          "time": 26.64468000000003,
          "velocity": 0.8661417322834646,
          "duration": 0.19312767187500057
        },
        {
          "name": "A3",
          "midi": 57,
          "time": 26.84204800000003,
          "velocity": 0.8661417322834646,
          "duration": 1.085524000000003
        },
        {
          "name": "D4",
          "midi": 62,
          "time": 26.84204800000003,
          "velocity": 0.8661417322834646,
          "duration": 1.085524000000003
        },
        {
          "name": "D3",
          "midi": 50,
          "time": 26.84204800000003,
          "velocity": 0.8661417322834646,
          "duration": 0.19312767187500057
        },
        {
          "name": "D3",
          "midi": 50,
          "time": 27.03941600000003,
          "velocity": 0.8661417322834646,
          "duration": 0.19312767187500057
        },
        {
          "name": "D3",
          "midi": 50,
          "time": 27.236784000000032,
          "velocity": 0.8661417322834646,
          "duration": 0.19312767187500057
        },
        {
          "name": "D3",
          "midi": 50,
          "time": 27.434152000000033,
          "velocity": 0.8661417322834646,
          "duration": 0.19312767187500057
        },
        {
          "name": "D3",
          "midi": 50,
          "time": 27.631520000000034,
          "velocity": 0.8661417322834646,
          "duration": 0.19312767187500057
        },
        {
          "name": "D3",
          "midi": 50,
          "time": 27.828888000000035,
          "velocity": 0.8661417322834646,
          "duration": 0.19312767187499702
        },
        {
          "name": "D3",
          "midi": 50,
          "time": 28.026256000000032,
          "velocity": 0.8661417322834646,
          "duration": 0.19312767187500057
        },
        {
          "name": "C4",
          "midi": 60,
          "time": 28.223624000000033,
          "velocity": 0.8661417322834646,
          "duration": 0.19312767187500057
        },
        {
          "name": "G4",
          "midi": 67,
          "time": 28.223624000000033,
          "velocity": 0.8661417322834646,
          "duration": 0.19312767187500057
        },
        {
          "name": "D3",
          "midi": 50,
          "time": 28.223624000000033,
          "velocity": 0.8661417322834646,
          "duration": 0.19312767187500057
        },
        {
          "name": "D3",
          "midi": 50,
          "time": 28.420992000000034,
          "velocity": 0.8661417322834646,
          "duration": 0.19312767187500057
        },
        {
          "name": "C4",
          "midi": 60,
          "time": 28.618360000000035,
          "velocity": 0.8661417322834646,
          "duration": 0.19312767187500057
        },
        {
          "name": "F#4",
          "midi": 66,
          "time": 28.618360000000035,
          "velocity": 0.8661417322834646,
          "duration": 0.19312767187500057
        },
        {
          "name": "D3",
          "midi": 50,
          "time": 28.618360000000035,
          "velocity": 0.8661417322834646,
          "duration": 0.19312767187500057
        },
        {
          "name": "D3",
          "midi": 50,
          "time": 28.815728000000036,
          "velocity": 0.8661417322834646,
          "duration": 0.19312767187500057
        },
        {
          "name": "A#3",
          "midi": 58,
          "time": 29.013096000000036,
          "velocity": 0.8661417322834646,
          "duration": 0.19736800000000088
        },
        {
          "name": "D4",
          "midi": 62,
          "time": 29.013096000000036,
          "velocity": 0.8661417322834646,
          "duration": 0.19736800000000088
        },
        {
          "name": "D3",
          "midi": 50,
          "time": 29.013096000000036,
          "velocity": 0.8661417322834646,
          "duration": 0.19312767187500057
        },
        {
          "name": "A#3",
          "midi": 58,
          "time": 29.210464000000037,
          "velocity": 0.8661417322834646,
          "duration": 0.6907880000000013
        },
        {
          "name": "D4",
          "midi": 62,
          "time": 29.210464000000037,
          "velocity": 0.8661417322834646,
          "duration": 0.6907880000000013
        },
        {
          "name": "D3",
          "midi": 50,
          "time": 29.210464000000037,
          "velocity": 0.8661417322834646,
          "duration": 0.19312767187500057
        },
        {
          "name": "D3",
          "midi": 50,
          "time": 29.407832000000038,
          "velocity": 0.8661417322834646,
          "duration": 0.19312767187500057
        },
        {
          "name": "D3",
          "midi": 50,
          "time": 29.60520000000004,
          "velocity": 0.8661417322834646,
          "duration": 0.19312767187500057
        },
        {
          "name": "D3",
          "midi": 50,
          "time": 29.80256800000004,
          "velocity": 0.8661417322834646,
          "duration": 0.19312767187499702
        },
        {
          "name": "D3",
          "midi": 50,
          "time": 29.999936000000037,
          "velocity": 0.8661417322834646,
          "duration": 0.19312767187500057
        },
        {
          "name": "D3",
          "midi": 50,
          "time": 30.197304000000038,
          "velocity": 0.8661417322834646,
          "duration": 0.19312767187500057
        },
        {
          "name": "D3",
          "midi": 50,
          "time": 30.39467200000004,
          "velocity": 0.8661417322834646,
          "duration": 0.19312767187500057
        },
        {
          "name": "A4",
          "midi": 69,
          "time": 30.59204000000004,
          "velocity": 0.8661417322834646,
          "duration": 0.19312767187500057
        },
        {
          "name": "D3",
          "midi": 50,
          "time": 30.59204000000004,
          "velocity": 0.8661417322834646,
          "duration": 0.19312767187500057
        },
        {
          "name": "D5",
          "midi": 74,
          "time": 30.78940800000004,
          "velocity": 0.8661417322834646,
          "duration": 0.19312767187500057
        },
        {
          "name": "D3",
          "midi": 50,
          "time": 30.78940800000004,
          "velocity": 0.8661417322834646,
          "duration": 0.19312767187500057
        },
        {
          "name": "C#5",
          "midi": 73,
          "time": 30.98677600000004,
          "velocity": 0.8661417322834646,
          "duration": 0.19312767187500057
        },
        {
          "name": "D3",
          "midi": 50,
          "time": 30.98677600000004,
          "velocity": 0.8661417322834646,
          "duration": 0.19312767187500057
        },
        {
          "name": "D5",
          "midi": 74,
          "time": 31.184144000000042,
          "velocity": 0.8661417322834646,
          "duration": 0.19312767187500057
        },
        {
          "name": "D3",
          "midi": 50,
          "time": 31.184144000000042,
          "velocity": 0.8661417322834646,
          "duration": 0.19312767187500057
        },
        {
          "name": "A4",
          "midi": 69,
          "time": 31.381512000000043,
          "velocity": 0.8661417322834646,
          "duration": 0.19736800000000088
        },
        {
          "name": "D3",
          "midi": 50,
          "time": 31.381512000000043,
          "velocity": 0.8661417322834646,
          "duration": 0.19312767187500057
        },
        {
          "name": "A4",
          "midi": 69,
          "time": 31.578880000000044,
          "velocity": 0.8661417322834646,
          "duration": 0.3288181718749996
        },
        {
          "name": "D3",
          "midi": 50,
          "time": 31.578880000000044,
          "velocity": 0.8661417322834646,
          "duration": 0.19312767187500057
        },
        {
          "name": "D3",
          "midi": 50,
          "time": 31.776248000000045,
          "velocity": 0.8661417322834646,
          "duration": 0.19312767187499702
        },
        {
          "name": "A4",
          "midi": 69,
          "time": 31.973616000000042,
          "velocity": 0.8661417322834646,
          "duration": 0.3288181718749996
        },
        {
          "name": "D3",
          "midi": 50,
          "time": 31.973616000000042,
          "velocity": 0.8661417322834646,
          "duration": 0.19312767187499702
        },
        {
          "name": "D3",
          "midi": 50,
          "time": 32.17098400000004,
          "velocity": 0.8661417322834646,
          "duration": 0.19312767187500413
        },
        {
          "name": "A4",
          "midi": 69,
          "time": 32.368352000000044,
          "velocity": 0.8661417322834646,
          "duration": 0.19312767187499702
        },
        {
          "name": "D3",
          "midi": 50,
          "time": 32.368352000000044,
          "velocity": 0.8661417322834646,
          "duration": 0.19312767187499702
        },
        {
          "name": "F#4",
          "midi": 66,
          "time": 32.56572000000004,
          "velocity": 0.8661417322834646,
          "duration": 0.19312767187499702
        },
        {
          "name": "D3",
          "midi": 50,
          "time": 32.56572000000004,
          "velocity": 0.8661417322834646,
          "duration": 0.19312767187499702
        },
        {
          "name": "G4",
          "midi": 67,
          "time": 32.76308800000004,
          "velocity": 0.8661417322834646,
          "duration": 0.19312767187499702
        },
        {
          "name": "D3",
          "midi": 50,
          "time": 32.76308800000004,
          "velocity": 0.8661417322834646,
          "duration": 0.19312767187499702
        },
        {
          "name": "F#4",
          "midi": 66,
          "time": 32.960456000000036,
          "velocity": 0.8661417322834646,
          "duration": 0.19736799999999732
        },
        {
          "name": "A4",
          "midi": 69,
          "time": 32.960456000000036,
          "velocity": 0.8661417322834646,
          "duration": 0.19736799999999732
        },
        {
          "name": "D3",
          "midi": 50,
          "time": 32.960456000000036,
          "velocity": 0.8661417322834646,
          "duration": 0.19312767187499702
        },
        {
          "name": "F#4",
          "midi": 66,
          "time": 33.15782400000003,
          "velocity": 0.8661417322834646,
          "duration": 0.6907879999999906
        },
        {
          "name": "A4",
          "midi": 69,
          "time": 33.15782400000003,
          "velocity": 0.8661417322834646,
          "duration": 0.6907879999999906
        },
        {
          "name": "G2",
          "midi": 43,
          "time": 33.15782400000003,
          "velocity": 0.8661417322834646,
          "duration": 0.19312767187499702
        },
        {
          "name": "G2",
          "midi": 43,
          "time": 33.35519200000003,
          "velocity": 0.8661417322834646,
          "duration": 0.19312767187499702
        },
        {
          "name": "G2",
          "midi": 43,
          "time": 33.55256000000003,
          "velocity": 0.8661417322834646,
          "duration": 0.19312767187499702
        },
        {
          "name": "G2",
          "midi": 43,
          "time": 33.749928000000025,
          "velocity": 0.8661417322834646,
          "duration": 0.19312767187499702
        },
        {
          "name": "G2",
          "midi": 43,
          "time": 33.94729600000002,
          "velocity": 0.8661417322834646,
          "duration": 0.19312767187499702
        },
        {
          "name": "G2",
          "midi": 43,
          "time": 34.14466400000002,
          "velocity": 0.8661417322834646,
          "duration": 0.19312767187499702
        },
        {
          "name": "G2",
          "midi": 43,
          "time": 34.34203200000002,
          "velocity": 0.8661417322834646,
          "duration": 0.19312767187499702
        },
        {
          "name": "A4",
          "midi": 69,
          "time": 34.539400000000015,
          "velocity": 0.8661417322834646,
          "duration": 0.09444367187499836
        },
        {
          "name": "G2",
          "midi": 43,
          "time": 34.539400000000015,
          "velocity": 0.8661417322834646,
          "duration": 0.19312767187499702
        },
        {
          "name": "A4",
          "midi": 69,
          "time": 34.63808400000001,
          "velocity": 0.8661417322834646,
          "duration": 0.09444367187499836
        },
        {
          "name": "A4",
          "midi": 69,
          "time": 34.73676800000001,
          "velocity": 0.8661417322834646,
          "duration": 0.19312767187499702
        },
        {
          "name": "G2",
          "midi": 43,
          "time": 34.73676800000001,
          "velocity": 0.8661417322834646,
          "duration": 0.19312767187499702
        },
        {
          "name": "G4",
          "midi": 67,
          "time": 34.93413600000001,
          "velocity": 0.8661417322834646,
          "duration": 0.3288181718749996
        },
        {
          "name": "G2",
          "midi": 43,
          "time": 34.93413600000001,
          "velocity": 0.8661417322834646,
          "duration": 0.19312767187499702
        },
        {
          "name": "G2",
          "midi": 43,
          "time": 35.13150400000001,
          "velocity": 0.8661417322834646,
          "duration": 0.19312767187500413
        },
        {
          "name": "G4",
          "midi": 67,
          "time": 35.32887200000001,
          "velocity": 0.8661417322834646,
          "duration": 0.19736799999999732
        },
        {
          "name": "G2",
          "midi": 43,
          "time": 35.32887200000001,
          "velocity": 0.8661417322834646,
          "duration": 0.19312767187499702
        },
        {
          "name": "G4",
          "midi": 67,
          "time": 35.52624000000001,
          "velocity": 0.8661417322834646,
          "duration": 0.19312767187499702
        },
        {
          "name": "G2",
          "midi": 43,
          "time": 35.52624000000001,
          "velocity": 0.8661417322834646,
          "duration": 0.19312767187499702
        },
        {
          "name": "A4",
          "midi": 69,
          "time": 35.723608000000006,
          "velocity": 0.8661417322834646,
          "duration": 0.3288181718749996
        },
        {
          "name": "G2",
          "midi": 43,
          "time": 35.723608000000006,
          "velocity": 0.8661417322834646,
          "duration": 0.19312767187499702
        },
        {
          "name": "G2",
          "midi": 43,
          "time": 35.920976,
          "velocity": 0.8661417322834646,
          "duration": 0.19312767187500413
        },
        {
          "name": "D4",
          "midi": 62,
          "time": 36.11834400000001,
          "velocity": 0.8661417322834646,
          "duration": 0.19312767187499702
        },
        {
          "name": "G2",
          "midi": 43,
          "time": 36.11834400000001,
          "velocity": 0.8661417322834646,
          "duration": 0.19312767187499702
        },
        {
          "name": "D3",
          "midi": 50,
          "time": 36.315712000000005,
          "velocity": 0.8661417322834646,
          "duration": 0.19312767187499702
        },
        {
          "name": "D3",
          "midi": 50,
          "time": 36.51308,
          "velocity": 0.8661417322834646,
          "duration": 0.19312767187499702
        },
        {
          "name": "D5",
          "midi": 74,
          "time": 36.710448,
          "velocity": 0.8661417322834646,
          "duration": 0.19312767187499702
        },
        {
          "name": "D3",
          "midi": 50,
          "time": 36.710448,
          "velocity": 0.8661417322834646,
          "duration": 0.19312767187499702
        },
        {
          "name": "C#5",
          "midi": 73,
          "time": 36.907816,
          "velocity": 0.8661417322834646,
          "duration": 0.19736799999999732
        },
        {
          "name": "D3",
          "midi": 50,
          "time": 36.907816,
          "velocity": 0.8661417322834646,
          "duration": 0.19312767187499702
        },
        {
          "name": "C#5",
          "midi": 73,
          "time": 37.105183999999994,
          "velocity": 0.8661417322834646,
          "duration": 0.19312767187499702
        },
        {
          "name": "D3",
          "midi": 50,
          "time": 37.105183999999994,
          "velocity": 0.8661417322834646,
          "duration": 0.19312767187499702
        },
        {
          "name": "D5",
          "midi": 74,
          "time": 37.30255199999999,
          "velocity": 0.8661417322834646,
          "duration": 0.3288181718749996
        },
        {
          "name": "D3",
          "midi": 50,
          "time": 37.30255199999999,
          "velocity": 0.8661417322834646,
          "duration": 0.19312767187499702
        },
        {
          "name": "D3",
          "midi": 50,
          "time": 37.49991999999999,
          "velocity": 0.8661417322834646,
          "duration": 0.19312767187500413
        },
        {
          "name": "A4",
          "midi": 69,
          "time": 37.69728799999999,
          "velocity": 0.8661417322834646,
          "duration": 0.19736799999999732
        },
        {
          "name": "D3",
          "midi": 50,
          "time": 37.69728799999999,
          "velocity": 0.8661417322834646,
          "duration": 0.19312767187499702
        },
        {
          "name": "A4",
          "midi": 69,
          "time": 37.89465599999999,
          "velocity": 0.8661417322834646,
          "duration": 0.3288181718749996
        },
        {
          "name": "D3",
          "midi": 50,
          "time": 37.89465599999999,
          "velocity": 0.8661417322834646,
          "duration": 0.19312767187499702
        },
        {
          "name": "D3",
          "midi": 50,
          "time": 38.09202399999999,
          "velocity": 0.8661417322834646,
          "duration": 0.19312767187500413
        },
        {
          "name": "A4",
          "midi": 69,
          "time": 38.28939199999999,
          "velocity": 0.8661417322834646,
          "duration": 0.3288181718749996
        },
        {
          "name": "D3",
          "midi": 50,
          "time": 38.28939199999999,
          "velocity": 0.8661417322834646,
          "duration": 0.19312767187499702
        },
        {
          "name": "D3",
          "midi": 50,
          "time": 38.48675999999999,
          "velocity": 0.8661417322834646,
          "duration": 0.19312767187500413
        },
        {
          "name": "A4",
          "midi": 69,
          "time": 38.684127999999994,
          "velocity": 0.8661417322834646,
          "duration": 0.19312767187499702
        },
        {
          "name": "D3",
          "midi": 50,
          "time": 38.684127999999994,
          "velocity": 0.8661417322834646,
          "duration": 0.19312767187499702
        },
        {
          "name": "D5",
          "midi": 74,
          "time": 38.88149599999999,
          "velocity": 0.8661417322834646,
          "duration": 0.3288181718749996
        },
        {
          "name": "D3",
          "midi": 50,
          "time": 38.88149599999999,
          "velocity": 0.8661417322834646,
          "duration": 0.19312767187499702
        },
        {
          "name": "D3",
          "midi": 50,
          "time": 39.07886399999999,
          "velocity": 0.8661417322834646,
          "duration": 0.19312767187500413
        },
        {
          "name": "F#5",
          "midi": 78,
          "time": 39.27623199999999,
          "velocity": 0.8661417322834646,
          "duration": 0.19736799999999732
        },
        {
          "name": "D3",
          "midi": 50,
          "time": 39.27623199999999,
          "velocity": 0.8661417322834646,
          "duration": 0.19312767187499702
        },
        {
          "name": "F#5",
          "midi": 78,
          "time": 39.47359999999999,
          "velocity": 0.8661417322834646,
          "duration": 0.3288181718749996
        },
        {
          "name": "G2",
          "midi": 43,
          "time": 39.47359999999999,
          "velocity": 0.8661417322834646,
          "duration": 0.19312767187499702
        },
        {
          "name": "G2",
          "midi": 43,
          "time": 39.67096799999999,
          "velocity": 0.8661417322834646,
          "duration": 0.19312767187500413
        },
        {
          "name": "G5",
          "midi": 79,
          "time": 39.86833599999999,
          "velocity": 0.8661417322834646,
          "duration": 0.19312767187499702
        },
        {
          "name": "G2",
          "midi": 43,
          "time": 39.86833599999999,
          "velocity": 0.8661417322834646,
          "duration": 0.19312767187499702
        },
        {
          "name": "F#5",
          "midi": 78,
          "time": 40.06570399999999,
          "velocity": 0.8661417322834646,
          "duration": 0.19736799999999732
        },
        {
          "name": "G2",
          "midi": 43,
          "time": 40.06570399999999,
          "velocity": 0.8661417322834646,
          "duration": 0.19312767187499702
        },
        {
          "name": "F#5",
          "midi": 78,
          "time": 40.26307199999999,
          "velocity": 0.8661417322834646,
          "duration": 0.19312767187499702
        },
        {
          "name": "G2",
          "midi": 43,
          "time": 40.26307199999999,
          "velocity": 0.8661417322834646,
          "duration": 0.19312767187499702
        },
        {
          "name": "D5",
          "midi": 74,
          "time": 40.460439999999984,
          "velocity": 0.8661417322834646,
          "duration": 0.3288181718749996
        },
        {
          "name": "G2",
          "midi": 43,
          "time": 40.460439999999984,
          "velocity": 0.8661417322834646,
          "duration": 0.19312767187499702
        },
        {
          "name": "G2",
          "midi": 43,
          "time": 40.65780799999998,
          "velocity": 0.8661417322834646,
          "duration": 0.19312767187500413
        },
        {
          "name": "D5",
          "midi": 74,
          "time": 40.855175999999986,
          "velocity": 0.8661417322834646,
          "duration": 0.19736799999999732
        },
        {
          "name": "G2",
          "midi": 43,
          "time": 40.855175999999986,
          "velocity": 0.8661417322834646,
          "duration": 0.19312767187499702
        },
        {
          "name": "D5",
          "midi": 74,
          "time": 41.05254399999998,
          "velocity": 0.8661417322834646,
          "duration": 0.6907879999999906
        },
        {
          "name": "G2",
          "midi": 43,
          "time": 41.05254399999998,
          "velocity": 0.8661417322834646,
          "duration": 0.19312767187499702
        },
        {
          "name": "G2",
          "midi": 43,
          "time": 41.24991199999998,
          "velocity": 0.8661417322834646,
          "duration": 0.19312767187499702
        },
        {
          "name": "G2",
          "midi": 43,
          "time": 41.44727999999998,
          "velocity": 0.8661417322834646,
          "duration": 0.19312767187499702
        },
        {
          "name": "G2",
          "midi": 43,
          "time": 41.644647999999975,
          "velocity": 0.8661417322834646,
          "duration": 0.19312767187499702
        },
        {
          "name": "G2",
          "midi": 43,
          "time": 41.84201599999997,
          "velocity": 0.8661417322834646,
          "duration": 0.19312767187499702
        },
        {
          "name": "G2",
          "midi": 43,
          "time": 42.03938399999997,
          "velocity": 0.8661417322834646,
          "duration": 0.19312767187499702
        },
        {
          "name": "G2",
          "midi": 43,
          "time": 42.23675199999997,
          "velocity": 0.8661417322834646,
          "duration": 0.19312767187499702
        },
        {
          "name": "G2",
          "midi": 43,
          "time": 42.434119999999965,
          "velocity": 0.8661417322834646,
          "duration": 0.19312767187499702
        },
        {
          "name": "D3",
          "midi": 50,
          "time": 42.63148799999996,
          "velocity": 0.8661417322834646,
          "duration": 0.19312767187499702
        },
        {
          "name": "D3",
          "midi": 50,
          "time": 42.82885599999996,
          "velocity": 0.8661417322834646,
          "duration": 0.19312767187499702
        },
        {
          "name": "D3",
          "midi": 50,
          "time": 43.02622399999996,
          "velocity": 0.8661417322834646,
          "duration": 0.19312767187499702
        },
        {
          "name": "A4",
          "midi": 69,
          "time": 43.223591999999954,
          "velocity": 0.8661417322834646,
          "duration": 0.19312767187499702
        },
        {
          "name": "D3",
          "midi": 50,
          "time": 43.223591999999954,
          "velocity": 0.8661417322834646,
          "duration": 0.19312767187499702
        },
        {
          "name": "D5",
          "midi": 74,
          "time": 43.42095999999995,
          "velocity": 0.8661417322834646,
          "duration": 0.19312767187499702
        },
        {
          "name": "D3",
          "midi": 50,
          "time": 43.42095999999995,
          "velocity": 0.8661417322834646,
          "duration": 0.19312767187499702
        },
        {
          "name": "C#5",
          "midi": 73,
          "time": 43.61832799999995,
          "velocity": 0.8661417322834646,
          "duration": 0.19312767187499702
        },
        {
          "name": "D3",
          "midi": 50,
          "time": 43.61832799999995,
          "velocity": 0.8661417322834646,
          "duration": 0.19312767187499702
        },
        {
          "name": "D5",
          "midi": 74,
          "time": 43.815695999999946,
          "velocity": 0.8661417322834646,
          "duration": 0.19312767187499702
        },
        {
          "name": "D3",
          "midi": 50,
          "time": 43.815695999999946,
          "velocity": 0.8661417322834646,
          "duration": 0.19312767187499702
        },
        {
          "name": "A4",
          "midi": 69,
          "time": 44.01306399999994,
          "velocity": 0.8661417322834646,
          "duration": 0.19312767187499702
        },
        {
          "name": "D3",
          "midi": 50,
          "time": 44.01306399999994,
          "velocity": 0.8661417322834646,
          "duration": 0.19312767187499702
        },
        {
          "name": "A4",
          "midi": 69,
          "time": 44.21043199999994,
          "velocity": 0.8661417322834646,
          "duration": 0.3288181718749996
        },
        {
          "name": "D3",
          "midi": 50,
          "time": 44.21043199999994,
          "velocity": 0.8661417322834646,
          "duration": 0.19312767187499702
        },
        {
          "name": "D3",
          "midi": 50,
          "time": 44.40779999999994,
          "velocity": 0.8661417322834646,
          "duration": 0.19312767187500413
        },
        {
          "name": "A4",
          "midi": 69,
          "time": 44.60516799999994,
          "velocity": 0.8661417322834646,
          "duration": 0.3288181718749996
        },
        {
          "name": "D3",
          "midi": 50,
          "time": 44.60516799999994,
          "velocity": 0.8661417322834646,
          "duration": 0.19312767187499702
        },
        {
          "name": "D3",
          "midi": 50,
          "time": 44.80253599999994,
          "velocity": 0.8661417322834646,
          "duration": 0.19312767187500413
        },
        {
          "name": "A4",
          "midi": 69,
          "time": 44.999903999999944,
          "velocity": 0.8661417322834646,
          "duration": 0.19312767187499702
        },
        {
          "name": "D3",
          "midi": 50,
          "time": 44.999903999999944,
          "velocity": 0.8661417322834646,
          "duration": 0.19312767187499702
        },
        {
          "name": "F#4",
          "midi": 66,
          "time": 45.19727199999994,
          "velocity": 0.8661417322834646,
          "duration": 0.19312767187499702
        },
        {
          "name": "D5",
          "midi": 74,
          "time": 45.19727199999994,
          "velocity": 0.8661417322834646,
          "duration": 0.19312767187499702
        },
        {
          "name": "D3",
          "midi": 50,
          "time": 45.19727199999994,
          "velocity": 0.8661417322834646,
          "duration": 0.19312767187499702
        },
        {
          "name": "G4",
          "midi": 67,
          "time": 45.39463999999994,
          "velocity": 0.8661417322834646,
          "duration": 0.19312767187499702
        },
        {
          "name": "C#5",
          "midi": 73,
          "time": 45.39463999999994,
          "velocity": 0.8661417322834646,
          "duration": 0.19312767187499702
        },
        {
          "name": "D3",
          "midi": 50,
          "time": 45.39463999999994,
          "velocity": 0.8661417322834646,
          "duration": 0.19312767187499702
        },
        {
          "name": "F#4",
          "midi": 66,
          "time": 45.592007999999936,
          "velocity": 0.8661417322834646,
          "duration": 0.19736799999999732
        },
        {
          "name": "A4",
          "midi": 69,
          "time": 45.592007999999936,
          "velocity": 0.8661417322834646,
          "duration": 0.19736799999999732
        },
        {
          "name": "D5",
          "midi": 74,
          "time": 45.592007999999936,
          "velocity": 0.8661417322834646,
          "duration": 0.19736799999999732
        },
        {
          "name": "D3",
          "midi": 50,
          "time": 45.592007999999936,
          "velocity": 0.8661417322834646,
          "duration": 0.19312767187499702
        },
        {
          "name": "F#4",
          "midi": 66,
          "time": 45.78937599999993,
          "velocity": 0.8661417322834646,
          "duration": 0.6907879999999906
        },
        {
          "name": "A4",
          "midi": 69,
          "time": 45.78937599999993,
          "velocity": 0.8661417322834646,
          "duration": 0.6907879999999906
        },
        {
          "name": "D5",
          "midi": 74,
          "time": 45.78937599999993,
          "velocity": 0.8661417322834646,
          "duration": 0.6907879999999906
        },
        {
          "name": "G2",
          "midi": 43,
          "time": 45.78937599999993,
          "velocity": 0.8661417322834646,
          "duration": 0.19312767187499702
        },
        {
          "name": "G2",
          "midi": 43,
          "time": 45.98674399999993,
          "velocity": 0.8661417322834646,
          "duration": 0.19312767187499702
        },
        {
          "name": "G2",
          "midi": 43,
          "time": 46.18411199999993,
          "velocity": 0.8661417322834646,
          "duration": 0.19312767187499702
        },
        {
          "name": "G2",
          "midi": 43,
          "time": 46.381479999999925,
          "velocity": 0.8661417322834646,
          "duration": 0.19312767187499702
        },
        {
          "name": "G2",
          "midi": 43,
          "time": 46.57884799999992,
          "velocity": 0.8661417322834646,
          "duration": 0.19312767187499702
        },
        {
          "name": "G2",
          "midi": 43,
          "time": 46.77621599999992,
          "velocity": 0.8661417322834646,
          "duration": 0.19312767187499702
        },
        {
          "name": "G2",
          "midi": 43,
          "time": 46.97358399999992,
          "velocity": 0.8661417322834646,
          "duration": 0.19312767187499702
        },
        {
          "name": "A4",
          "midi": 69,
          "time": 47.170951999999915,
          "velocity": 0.8661417322834646,
          "duration": 0.09444367187499836
        },
        {
          "name": "G2",
          "midi": 43,
          "time": 47.170951999999915,
          "velocity": 0.8661417322834646,
          "duration": 0.19312767187499702
        },
        {
          "name": "A4",
          "midi": 69,
          "time": 47.26963599999991,
          "velocity": 0.8661417322834646,
          "duration": 0.09444367187499836
        },
        {
          "name": "A4",
          "midi": 69,
          "time": 47.36831999999991,
          "velocity": 0.8661417322834646,
          "duration": 0.19312767187499702
        },
        {
          "name": "G2",
          "midi": 43,
          "time": 47.36831999999991,
          "velocity": 0.8661417322834646,
          "duration": 0.19312767187499702
        },
        {
          "name": "G4",
          "midi": 67,
          "time": 47.56568799999991,
          "velocity": 0.8661417322834646,
          "duration": 0.3288181718749996
        },
        {
          "name": "G2",
          "midi": 43,
          "time": 47.56568799999991,
          "velocity": 0.8661417322834646,
          "duration": 0.19312767187499702
        },
        {
          "name": "G2",
          "midi": 43,
          "time": 47.76305599999991,
          "velocity": 0.8661417322834646,
          "duration": 0.19312767187500413
        },
        {
          "name": "F#4",
          "midi": 66,
          "time": 47.96042399999991,
          "velocity": 0.8661417322834646,
          "duration": 0.19736799999999732
        },
        {
          "name": "G2",
          "midi": 43,
          "time": 47.96042399999991,
          "velocity": 0.8661417322834646,
          "duration": 0.19312767187499702
        },
        {
          "name": "F#4",
          "midi": 66,
          "time": 48.15779199999991,
          "velocity": 0.8661417322834646,
          "duration": 0.19312767187499702
        },
        {
          "name": "G2",
          "midi": 43,
          "time": 48.15779199999991,
          "velocity": 0.8661417322834646,
          "duration": 0.19312767187499702
        },
        {
          "name": "G4",
          "midi": 67,
          "time": 48.355159999999906,
          "velocity": 0.8661417322834646,
          "duration": 0.3288181718749996
        },
        {
          "name": "G2",
          "midi": 43,
          "time": 48.355159999999906,
          "velocity": 0.8661417322834646,
          "duration": 0.19312767187499702
        },
        {
          "name": "G2",
          "midi": 43,
          "time": 48.5525279999999,
          "velocity": 0.8661417322834646,
          "duration": 0.19312767187500413
        },
        {
          "name": "A4",
          "midi": 69,
          "time": 48.74989599999991,
          "velocity": 0.8661417322834646,
          "duration": 0.19312767187499702
        },
        {
          "name": "G2",
          "midi": 43,
          "time": 48.74989599999991,
          "velocity": 0.8661417322834646,
          "duration": 0.19312767187499702
        },
        {
          "name": "D3",
          "midi": 50,
          "time": 48.947263999999905,
          "velocity": 0.8661417322834646,
          "duration": 0.19312767187499702
        },
        {
          "name": "D3",
          "midi": 50,
          "time": 49.1446319999999,
          "velocity": 0.8661417322834646,
          "duration": 0.19312767187499702
        },
        {
          "name": "D5",
          "midi": 74,
          "time": 49.3419999999999,
          "velocity": 0.8661417322834646,
          "duration": 0.19312767187499702
        },
        {
          "name": "D3",
          "midi": 50,
          "time": 49.3419999999999,
          "velocity": 0.8661417322834646,
          "duration": 0.19312767187499702
        },
        {
          "name": "C#5",
          "midi": 73,
          "time": 49.5393679999999,
          "velocity": 0.8661417322834646,
          "duration": 0.19736799999999732
        },
        {
          "name": "D3",
          "midi": 50,
          "time": 49.5393679999999,
          "velocity": 0.8661417322834646,
          "duration": 0.19312767187499702
        },
        {
          "name": "C#5",
          "midi": 73,
          "time": 49.736735999999894,
          "velocity": 0.8661417322834646,
          "duration": 0.19312767187499702
        },
        {
          "name": "D3",
          "midi": 50,
          "time": 49.736735999999894,
          "velocity": 0.8661417322834646,
          "duration": 0.19312767187499702
        },
        {
          "name": "D5",
          "midi": 74,
          "time": 49.93410399999989,
          "velocity": 0.8661417322834646,
          "duration": 0.3288181718749996
        },
        {
          "name": "D3",
          "midi": 50,
          "time": 49.93410399999989,
          "velocity": 0.8661417322834646,
          "duration": 0.19312767187499702
        },
        {
          "name": "D3",
          "midi": 50,
          "time": 50.13147199999989,
          "velocity": 0.8661417322834646,
          "duration": 0.19312767187500413
        },
        {
          "name": "A4",
          "midi": 69,
          "time": 50.32883999999989,
          "velocity": 0.8661417322834646,
          "duration": 0.19736799999999732
        },
        {
          "name": "D3",
          "midi": 50,
          "time": 50.32883999999989,
          "velocity": 0.8661417322834646,
          "duration": 0.19312767187499702
        },
        {
          "name": "A4",
          "midi": 69,
          "time": 50.52620799999989,
          "velocity": 0.8661417322834646,
          "duration": 0.3288181718749996
        },
        {
          "name": "D3",
          "midi": 50,
          "time": 50.52620799999989,
          "velocity": 0.8661417322834646,
          "duration": 0.19312767187499702
        },
        {
          "name": "D3",
          "midi": 50,
          "time": 50.72357599999989,
          "velocity": 0.8661417322834646,
          "duration": 0.19312767187500413
        },
        {
          "name": "D5",
          "midi": 74,
          "time": 50.92094399999989,
          "velocity": 0.8661417322834646,
          "duration": 0.3288181718749996
        },
        {
          "name": "D3",
          "midi": 50,
          "time": 50.92094399999989,
          "velocity": 0.8661417322834646,
          "duration": 0.19312767187499702
        },
        {
          "name": "D3",
          "midi": 50,
          "time": 51.11831199999989,
          "velocity": 0.8661417322834646,
          "duration": 0.19312767187500413
        },
        {
          "name": "C#5",
          "midi": 73,
          "time": 51.315679999999894,
          "velocity": 0.8661417322834646,
          "duration": 0.19312767187499702
        },
        {
          "name": "D3",
          "midi": 50,
          "time": 51.315679999999894,
          "velocity": 0.8661417322834646,
          "duration": 0.19312767187499702
        },
        {
          "name": "D5",
          "midi": 74,
          "time": 51.51304799999989,
          "velocity": 0.8661417322834646,
          "duration": 0.3288181718749996
        },
        {
          "name": "D3",
          "midi": 50,
          "time": 51.51304799999989,
          "velocity": 0.8661417322834646,
          "duration": 0.19312767187499702
        },
        {
          "name": "D3",
          "midi": 50,
          "time": 51.71041599999989,
          "velocity": 0.8661417322834646,
          "duration": 0.19312767187500413
        },
        {
          "name": "F#5",
          "midi": 78,
          "time": 51.90778399999989,
          "velocity": 0.8661417322834646,
          "duration": 0.19736799999999732
        },
        {
          "name": "D3",
          "midi": 50,
          "time": 51.90778399999989,
          "velocity": 0.8661417322834646,
          "duration": 0.19312767187499702
        },
        {
          "name": "F#5",
          "midi": 78,
          "time": 52.10515199999989,
          "velocity": 0.8661417322834646,
          "duration": 0.3288181718749996
        },
        {
          "name": "G2",
          "midi": 43,
          "time": 52.10515199999989,
          "velocity": 0.8661417322834646,
          "duration": 0.19312767187499702
        },
        {
          "name": "G2",
          "midi": 43,
          "time": 52.30251999999989,
          "velocity": 0.8661417322834646,
          "duration": 0.19312767187500413
        },
        {
          "name": "G5",
          "midi": 79,
          "time": 52.49988799999989,
          "velocity": 0.8661417322834646,
          "duration": 0.19312767187499702
        },
        {
          "name": "G2",
          "midi": 43,
          "time": 52.49988799999989,
          "velocity": 0.8661417322834646,
          "duration": 0.19312767187499702
        },
        {
          "name": "F#5",
          "midi": 78,
          "time": 52.69725599999989,
          "velocity": 0.8661417322834646,
          "duration": 0.19736799999999732
        },
        {
          "name": "G2",
          "midi": 43,
          "time": 52.69725599999989,
          "velocity": 0.8661417322834646,
          "duration": 0.19312767187499702
        },
        {
          "name": "F#5",
          "midi": 78,
          "time": 52.89462399999989,
          "velocity": 0.8661417322834646,
          "duration": 0.19312767187499702
        },
        {
          "name": "G2",
          "midi": 43,
          "time": 52.89462399999989,
          "velocity": 0.8661417322834646,
          "duration": 0.19312767187499702
        },
        {
          "name": "D5",
          "midi": 74,
          "time": 53.091991999999884,
          "velocity": 0.8661417322834646,
          "duration": 0.3288181718749996
        },
        {
          "name": "G2",
          "midi": 43,
          "time": 53.091991999999884,
          "velocity": 0.8661417322834646,
          "duration": 0.19312767187499702
        },
        {
          "name": "G2",
          "midi": 43,
          "time": 53.28935999999988,
          "velocity": 0.8661417322834646,
          "duration": 0.19312767187500413
        },
        {
          "name": "F#5",
          "midi": 78,
          "time": 53.486727999999886,
          "velocity": 0.8661417322834646,
          "duration": 0.19736799999999732
        },
        {
          "name": "G2",
          "midi": 43,
          "time": 53.486727999999886,
          "velocity": 0.8661417322834646,
          "duration": 0.19312767187499702
        },
        {
          "name": "F#5",
          "midi": 78,
          "time": 53.68409599999988,
          "velocity": 0.8661417322834646,
          "duration": 0.3288181718749996
        },
        {
          "name": "G2",
          "midi": 43,
          "time": 53.68409599999988,
          "velocity": 0.8661417322834646,
          "duration": 0.19312767187499702
        },
        {
          "name": "G2",
          "midi": 43,
          "time": 53.88146399999988,
          "velocity": 0.8661417322834646,
          "duration": 0.19312767187500413
        },
        {
          "name": "G5",
          "midi": 79,
          "time": 54.078831999999885,
          "velocity": 0.8661417322834646,
          "duration": 0.19312767187499702
        },
        {
          "name": "G2",
          "midi": 43,
          "time": 54.078831999999885,
          "velocity": 0.8661417322834646,
          "duration": 0.19312767187499702
        },
        {
          "name": "F#5",
          "midi": 78,
          "time": 54.27619999999988,
          "velocity": 0.8661417322834646,
          "duration": 0.19736799999999732
        },
        {
          "name": "G2",
          "midi": 43,
          "time": 54.27619999999988,
          "velocity": 0.8661417322834646,
          "duration": 0.19312767187499702
        },
        {
          "name": "F#5",
          "midi": 78,
          "time": 54.47356799999988,
          "velocity": 0.8661417322834646,
          "duration": 0.19312767187499702
        },
        {
          "name": "G2",
          "midi": 43,
          "time": 54.47356799999988,
          "velocity": 0.8661417322834646,
          "duration": 0.19312767187499702
        },
        {
          "name": "D5",
          "midi": 74,
          "time": 54.67093599999988,
          "velocity": 0.8661417322834646,
          "duration": 0.3288181718749996
        },
        {
          "name": "G2",
          "midi": 43,
          "time": 54.67093599999988,
          "velocity": 0.8661417322834646,
          "duration": 0.19312767187499702
        },
        {
          "name": "G2",
          "midi": 43,
          "time": 54.868303999999874,
          "velocity": 0.8661417322834646,
          "duration": 0.19312767187500413
        },
        {
          "name": "D5",
          "midi": 74,
          "time": 55.06567199999988,
          "velocity": 0.8661417322834646,
          "duration": 0.19736799999999732
        },
        {
          "name": "G2",
          "midi": 43,
          "time": 55.06567199999988,
          "velocity": 0.8661417322834646,
          "duration": 0.19312767187499702
        },
        {
          "name": "D5",
          "midi": 74,
          "time": 55.263039999999876,
          "velocity": 0.8661417322834646,
          "duration": 1.0855239999999853
        },
        {
          "name": "A#2",
          "midi": 46,
          "time": 55.263039999999876,
          "velocity": 0.8661417322834646,
          "duration": 0.19312767187499702
        },
        {
          "name": "A#2",
          "midi": 46,
          "time": 55.46040799999987,
          "velocity": 0.8661417322834646,
          "duration": 0.19312767187499702
        },
        {
          "name": "A#2",
          "midi": 46,
          "time": 55.65777599999987,
          "velocity": 0.8661417322834646,
          "duration": 0.19312767187499702
        },
        {
          "name": "A#2",
          "midi": 46,
          "time": 55.85514399999987,
          "velocity": 0.8661417322834646,
          "duration": 0.19312767187499702
        },
        {
          "name": "A#2",
          "midi": 46,
          "time": 56.052511999999865,
          "velocity": 0.8661417322834646,
          "duration": 0.19312767187499702
        },
        {
          "name": "A#2",
          "midi": 46,
          "time": 56.24987999999986,
          "velocity": 0.8661417322834646,
          "duration": 0.19312767187499702
        },
        {
          "name": "A#2",
          "midi": 46,
          "time": 56.44724799999986,
          "velocity": 0.8661417322834646,
          "duration": 0.19312767187499702
        },
        {
          "name": "A4",
          "midi": 69,
          "time": 56.64461599999986,
          "velocity": 0.8661417322834646,
          "duration": 0.19736799999999732
        },
        {
          "name": "F5",
          "midi": 77,
          "time": 56.64461599999986,
          "velocity": 0.8661417322834646,
          "duration": 0.19736799999999732
        },
        {
          "name": "A#2",
          "midi": 46,
          "time": 56.64461599999986,
          "velocity": 0.8661417322834646,
          "duration": 0.19312767187499702
        },
        {
          "name": "A4",
          "midi": 69,
          "time": 56.841983999999854,
          "velocity": 0.8661417322834646,
          "duration": 0.19312767187499702
        },
        {
          "name": "F5",
          "midi": 77,
          "time": 56.841983999999854,
          "velocity": 0.8661417322834646,
          "duration": 0.19312767187499702
        },
        {
          "name": "A#2",
          "midi": 46,
          "time": 56.841983999999854,
          "velocity": 0.8661417322834646,
          "duration": 0.19312767187499702
        },
        {
          "name": "A4",
          "midi": 69,
          "time": 57.03935199999985,
          "velocity": 0.8661417322834646,
          "duration": 0.19312767187499702
        },
        {
          "name": "F5",
          "midi": 77,
          "time": 57.03935199999985,
          "velocity": 0.8661417322834646,
          "duration": 0.19312767187499702
        },
        {
          "name": "A#2",
          "midi": 46,
          "time": 57.03935199999985,
          "velocity": 0.8661417322834646,
          "duration": 0.19312767187499702
        },
        {
          "name": "G4",
          "midi": 67,
          "time": 57.23671999999985,
          "velocity": 0.8661417322834646,
          "duration": 0.19312767187499702
        },
        {
          "name": "E5",
          "midi": 76,
          "time": 57.23671999999985,
          "velocity": 0.8661417322834646,
          "duration": 0.19312767187499702
        },
        {
          "name": "A#2",
          "midi": 46,
          "time": 57.23671999999985,
          "velocity": 0.8661417322834646,
          "duration": 0.19312767187499702
        },
        {
          "name": "G4",
          "midi": 67,
          "time": 57.434087999999846,
          "velocity": 0.8661417322834646,
          "duration": 0.19312767187499702
        },
        {
          "name": "E5",
          "midi": 76,
          "time": 57.434087999999846,
          "velocity": 0.8661417322834646,
          "duration": 0.19312767187499702
        },
        {
          "name": "A#2",
          "midi": 46,
          "time": 57.434087999999846,
          "velocity": 0.8661417322834646,
          "duration": 0.19312767187499702
        },
        {
          "name": "F4",
          "midi": 65,
          "time": 57.631455999999844,
          "velocity": 0.8661417322834646,
          "duration": 0.3288181718749996
        },
        {
          "name": "D5",
          "midi": 74,
          "time": 57.631455999999844,
          "velocity": 0.8661417322834646,
          "duration": 0.3288181718749996
        },
        {
          "name": "A#2",
          "midi": 46,
          "time": 57.631455999999844,
          "velocity": 0.8661417322834646,
          "duration": 0.19312767187499702
        },
        {
          "name": "A#2",
          "midi": 46,
          "time": 57.82882399999984,
          "velocity": 0.8661417322834646,
          "duration": 0.19312767187500413
        },
        {
          "name": "A4",
          "midi": 69,
          "time": 58.026191999999845,
          "velocity": 0.8661417322834646,
          "duration": 0.39473599999999465
        },
        {
          "name": "F5",
          "midi": 77,
          "time": 58.026191999999845,
          "velocity": 0.8661417322834646,
          "duration": 0.39473599999999465
        },
        {
          "name": "A#2",
          "midi": 46,
          "time": 58.026191999999845,
          "velocity": 0.8661417322834646,
          "duration": 0.19312767187499702
        },
        {
          "name": "A#2",
          "midi": 46,
          "time": 58.22355999999984,
          "velocity": 0.8661417322834646,
          "duration": 0.19312767187499702
        },
        {
          "name": "A4",
          "midi": 69,
          "time": 58.42092799999984,
          "velocity": 0.8661417322834646,
          "duration": 0.3288181718749996
        },
        {
          "name": "F5",
          "midi": 77,
          "time": 58.42092799999984,
          "velocity": 0.8661417322834646,
          "duration": 0.3288181718749996
        },
        {
          "name": "G2",
          "midi": 43,
          "time": 58.42092799999984,
          "velocity": 0.8661417322834646,
          "duration": 0.19312767187499702
        },
        {
          "name": "G2",
          "midi": 43,
          "time": 58.61829599999984,
          "velocity": 0.8661417322834646,
          "duration": 0.19312767187500413
        },
        {
          "name": "G2",
          "midi": 43,
          "time": 58.81566399999984,
          "velocity": 0.8661417322834646,
          "duration": 0.19312767187499702
        },
        {
          "name": "G2",
          "midi": 43,
          "time": 59.01303199999984,
          "velocity": 0.8661417322834646,
          "duration": 0.19312767187499702
        },
        {
          "name": "G2",
          "midi": 43,
          "time": 59.21039999999984,
          "velocity": 0.8661417322834646,
          "duration": 0.19312767187499702
        },
        {
          "name": "G2",
          "midi": 43,
          "time": 59.407767999999834,
          "velocity": 0.8661417322834646,
          "duration": 0.19312767187499702
        },
        {
          "name": "G2",
          "midi": 43,
          "time": 59.60513599999983,
          "velocity": 0.8661417322834646,
          "duration": 0.19312767187499702
        },
        {
          "name": "A4",
          "midi": 69,
          "time": 59.80250399999983,
          "velocity": 0.8661417322834646,
          "duration": 0.19736799999999732
        },
        {
          "name": "F5",
          "midi": 77,
          "time": 59.80250399999983,
          "velocity": 0.8661417322834646,
          "duration": 0.19736799999999732
        },
        {
          "name": "G2",
          "midi": 43,
          "time": 59.80250399999983,
          "velocity": 0.8661417322834646,
          "duration": 0.19312767187499702
        },
        {
          "name": "A4",
          "midi": 69,
          "time": 59.999871999999826,
          "velocity": 0.8661417322834646,
          "duration": 0.19312767187499702
        },
        {
          "name": "F5",
          "midi": 77,
          "time": 59.999871999999826,
          "velocity": 0.8661417322834646,
          "duration": 0.19312767187499702
        },
        {
          "name": "G2",
          "midi": 43,
          "time": 59.999871999999826,
          "velocity": 0.8661417322834646,
          "duration": 0.19312767187499702
        },
        {
          "name": "A4",
          "midi": 69,
          "time": 60.19723999999982,
          "velocity": 0.8661417322834646,
          "duration": 0.19312767187499702
        },
        {
          "name": "F5",
          "midi": 77,
          "time": 60.19723999999982,
          "velocity": 0.8661417322834646,
          "duration": 0.19312767187499702
        },
        {
          "name": "G2",
          "midi": 43,
          "time": 60.19723999999982,
          "velocity": 0.8661417322834646,
          "duration": 0.19312767187499702
        },
        {
          "name": "G4",
          "midi": 67,
          "time": 60.39460799999982,
          "velocity": 0.8661417322834646,
          "duration": 0.19312767187499702
        },
        {
          "name": "E5",
          "midi": 76,
          "time": 60.39460799999982,
          "velocity": 0.8661417322834646,
          "duration": 0.19312767187499702
        },
        {
          "name": "G2",
          "midi": 43,
          "time": 60.39460799999982,
          "velocity": 0.8661417322834646,
          "duration": 0.19312767187499702
        },
        {
          "name": "G4",
          "midi": 67,
          "time": 60.59197599999982,
          "velocity": 0.8661417322834646,
          "duration": 0.19312767187499702
        },
        {
          "name": "E5",
          "midi": 76,
          "time": 60.59197599999982,
          "velocity": 0.8661417322834646,
          "duration": 0.19312767187499702
        },
        {
          "name": "G2",
          "midi": 43,
          "time": 60.59197599999982,
          "velocity": 0.8661417322834646,
          "duration": 0.19312767187499702
        },
        {
          "name": "F4",
          "midi": 65,
          "time": 60.789343999999815,
          "velocity": 0.8661417322834646,
          "duration": 0.3288181718749996
        },
        {
          "name": "D5",
          "midi": 74,
          "time": 60.789343999999815,
          "velocity": 0.8661417322834646,
          "duration": 0.3288181718749996
        },
        {
          "name": "G2",
          "midi": 43,
          "time": 60.789343999999815,
          "velocity": 0.8661417322834646,
          "duration": 0.19312767187499702
        },
        {
          "name": "G2",
          "midi": 43,
          "time": 60.98671199999981,
          "velocity": 0.8661417322834646,
          "duration": 0.19312767187500413
        },
        {
          "name": "A#4",
          "midi": 70,
          "time": 61.18407999999982,
          "velocity": 0.8661417322834646,
          "duration": 0.39473599999999465
        },
        {
          "name": "G5",
          "midi": 79,
          "time": 61.18407999999982,
          "velocity": 0.8661417322834646,
          "duration": 0.39473599999999465
        },
        {
          "name": "G2",
          "midi": 43,
          "time": 61.18407999999982,
          "velocity": 0.8661417322834646,
          "duration": 0.19312767187499702
        },
        {
          "name": "G2",
          "midi": 43,
          "time": 61.381447999999814,
          "velocity": 0.8661417322834646,
          "duration": 0.19312767187499702
        },
        {
          "name": "A#4",
          "midi": 70,
          "time": 61.57881599999981,
          "velocity": 0.8661417322834646,
          "duration": 0.19312767187499702
        },
        {
          "name": "G5",
          "midi": 79,
          "time": 61.57881599999981,
          "velocity": 0.8661417322834646,
          "duration": 0.19312767187499702
        },
        {
          "name": "F2",
          "midi": 41,
          "time": 61.57881599999981,
          "velocity": 0.8661417322834646,
          "duration": 0.19312767187499702
        },
        {
          "name": "A#4",
          "midi": 70,
          "time": 61.77618399999981,
          "velocity": 0.8661417322834646,
          "duration": 0.19312767187499702
        },
        {
          "name": "G5",
          "midi": 79,
          "time": 61.77618399999981,
          "velocity": 0.8661417322834646,
          "duration": 0.19312767187499702
        },
        {
          "name": "F2",
          "midi": 41,
          "time": 61.77618399999981,
          "velocity": 0.8661417322834646,
          "duration": 0.19312767187499702
        },
        {
          "name": "A4",
          "midi": 69,
          "time": 61.973551999999806,
          "velocity": 0.8661417322834646,
          "duration": 0.6907879999999906
        },
        {
          "name": "F5",
          "midi": 77,
          "time": 61.973551999999806,
          "velocity": 0.8661417322834646,
          "duration": 0.6907879999999906
        },
        {
          "name": "F2",
          "midi": 41,
          "time": 61.973551999999806,
          "velocity": 0.8661417322834646,
          "duration": 0.19312767187499702
        },
        {
          "name": "F2",
          "midi": 41,
          "time": 62.1709199999998,
          "velocity": 0.8661417322834646,
          "duration": 0.19312767187499702
        },
        {
          "name": "F2",
          "midi": 41,
          "time": 62.3682879999998,
          "velocity": 0.8661417322834646,
          "duration": 0.19312767187499702
        },
        {
          "name": "F2",
          "midi": 41,
          "time": 62.5656559999998,
          "velocity": 0.8661417322834646,
          "duration": 0.19312767187499702
        },
        {
          "name": "F2",
          "midi": 41,
          "time": 62.763023999999795,
          "velocity": 0.8661417322834646,
          "duration": 0.19312767187499702
        },
        {
          "name": "F5",
          "midi": 77,
          "time": 62.96039199999979,
          "velocity": 0.8661417322834646,
          "duration": 0.19736799999999732
        },
        {
          "name": "F2",
          "midi": 41,
          "time": 62.96039199999979,
          "velocity": 0.8661417322834646,
          "duration": 0.19312767187499702
        },
        {
          "name": "F5",
          "midi": 77,
          "time": 63.15775999999979,
          "velocity": 0.8661417322834646,
          "duration": 0.19312767187499702
        },
        {
          "name": "F2",
          "midi": 41,
          "time": 63.15775999999979,
          "velocity": 0.8661417322834646,
          "duration": 0.19312767187499702
        },
        {
          "name": "E5",
          "midi": 76,
          "time": 63.35512799999979,
          "velocity": 0.8661417322834646,
          "duration": 0.19312767187499702
        },
        {
          "name": "F2",
          "midi": 41,
          "time": 63.35512799999979,
          "velocity": 0.8661417322834646,
          "duration": 0.19312767187499702
        },
        {
          "name": "E5",
          "midi": 76,
          "time": 63.552495999999785,
          "velocity": 0.8661417322834646,
          "duration": 0.19312767187499702
        },
        {
          "name": "F2",
          "midi": 41,
          "time": 63.552495999999785,
          "velocity": 0.8661417322834646,
          "duration": 0.19312767187499702
        },
        {
          "name": "D5",
          "midi": 74,
          "time": 63.74986399999978,
          "velocity": 0.8661417322834646,
          "duration": 0.19312767187499702
        },
        {
          "name": "F2",
          "midi": 41,
          "time": 63.74986399999978,
          "velocity": 0.8661417322834646,
          "duration": 0.19312767187499702
        },
        {
          "name": "D5",
          "midi": 74,
          "time": 63.94723199999978,
          "velocity": 0.8661417322834646,
          "duration": 0.19312767187499702
        },
        {
          "name": "F2",
          "midi": 41,
          "time": 63.94723199999978,
          "velocity": 0.8661417322834646,
          "duration": 0.19312767187499702
        },
        {
          "name": "D5",
          "midi": 74,
          "time": 64.14459999999977,
          "velocity": 0.8661417322834646,
          "duration": 0.19312767187500413
        },
        {
          "name": "F2",
          "midi": 41,
          "time": 64.14459999999977,
          "velocity": 0.8661417322834646,
          "duration": 0.19312767187500413
        },
        {
          "name": "C5",
          "midi": 72,
          "time": 64.34196799999977,
          "velocity": 0.8661417322834646,
          "duration": 0.19312767187500413
        },
        {
          "name": "F2",
          "midi": 41,
          "time": 64.34196799999977,
          "velocity": 0.8661417322834646,
          "duration": 0.19312767187500413
        },
        {
          "name": "A4",
          "midi": 69,
          "time": 64.53933599999976,
          "velocity": 0.8661417322834646,
          "duration": 0.19736799999999732
        },
        {
          "name": "F2",
          "midi": 41,
          "time": 64.53933599999976,
          "velocity": 0.8661417322834646,
          "duration": 0.19312767187500413
        },
        {
          "name": "A4",
          "midi": 69,
          "time": 64.73670399999976,
          "velocity": 0.8661417322834646,
          "duration": 0.19312767187500413
        },
        {
          "name": "D3",
          "midi": 50,
          "time": 64.73670399999976,
          "velocity": 0.8661417322834646,
          "duration": 0.19312767187500413
        },
        {
          "name": "A#4",
          "midi": 70,
          "time": 64.93407199999976,
          "velocity": 0.8661417322834646,
          "duration": 0.19312767187500413
        },
        {
          "name": "D3",
          "midi": 50,
          "time": 64.93407199999976,
          "velocity": 0.8661417322834646,
          "duration": 0.19312767187500413
        },
        {
          "name": "A4",
          "midi": 69,
          "time": 65.13143999999976,
          "velocity": 0.8661417322834646,
          "duration": 0.19312767187500413
        },
        {
          "name": "D3",
          "midi": 50,
          "time": 65.13143999999976,
          "velocity": 0.8661417322834646,
          "duration": 0.19312767187500413
        },
        {
          "name": "A4",
          "midi": 69,
          "time": 65.32880799999975,
          "velocity": 0.8661417322834646,
          "duration": 0.19312767187500413
        },
        {
          "name": "D3",
          "midi": 50,
          "time": 65.32880799999975,
          "velocity": 0.8661417322834646,
          "duration": 0.19312767187500413
        },
        {
          "name": "G4",
          "midi": 67,
          "time": 65.52617599999975,
          "velocity": 0.8661417322834646,
          "duration": 0.19312767187500413
        },
        {
          "name": "D3",
          "midi": 50,
          "time": 65.52617599999975,
          "velocity": 0.8661417322834646,
          "duration": 0.19312767187500413
        },
        {
          "name": "F4",
          "midi": 65,
          "time": 65.72354399999975,
          "velocity": 0.8661417322834646,
          "duration": 0.19312767187500413
        },
        {
          "name": "D3",
          "midi": 50,
          "time": 65.72354399999975,
          "velocity": 0.8661417322834646,
          "duration": 0.19312767187500413
        },
        {
          "name": "F4",
          "midi": 65,
          "time": 65.92091199999975,
          "velocity": 0.8661417322834646,
          "duration": 0.19312767187500413
        },
        {
          "name": "D3",
          "midi": 50,
          "time": 65.92091199999975,
          "velocity": 0.8661417322834646,
          "duration": 0.19312767187500413
        },
        {
          "name": "A4",
          "midi": 69,
          "time": 66.11827999999974,
          "velocity": 0.8661417322834646,
          "duration": 0.19736799999999732
        },
        {
          "name": "D3",
          "midi": 50,
          "time": 66.11827999999974,
          "velocity": 0.8661417322834646,
          "duration": 0.19312767187500413
        },
        {
          "name": "A4",
          "midi": 69,
          "time": 66.31564799999974,
          "velocity": 0.8661417322834646,
          "duration": 0.19312767187500413
        },
        {
          "name": "D3",
          "midi": 50,
          "time": 66.31564799999974,
          "velocity": 0.8661417322834646,
          "duration": 0.19312767187500413
        },
        {
          "name": "A#4",
          "midi": 70,
          "time": 66.51301599999974,
          "velocity": 0.8661417322834646,
          "duration": 0.19312767187500413
        },
        {
          "name": "D3",
          "midi": 50,
          "time": 66.51301599999974,
          "velocity": 0.8661417322834646,
          "duration": 0.19312767187500413
        },
        {
          "name": "A4",
          "midi": 69,
          "time": 66.71038399999973,
          "velocity": 0.8661417322834646,
          "duration": 0.19312767187500413
        },
        {
          "name": "D3",
          "midi": 50,
          "time": 66.71038399999973,
          "velocity": 0.8661417322834646,
          "duration": 0.19312767187500413
        },
        {
          "name": "F4",
          "midi": 65,
          "time": 66.90775199999973,
          "velocity": 0.8661417322834646,
          "duration": 0.19312767187500413
        },
        {
          "name": "D3",
          "midi": 50,
          "time": 66.90775199999973,
          "velocity": 0.8661417322834646,
          "duration": 0.19312767187500413
        },
        {
          "name": "F4",
          "midi": 65,
          "time": 67.10511999999973,
          "velocity": 0.8661417322834646,
          "duration": 0.3288181718749996
        },
        {
          "name": "C3",
          "midi": 48,
          "time": 67.10511999999973,
          "velocity": 0.8661417322834646,
          "duration": 0.19312767187500413
        },
        {
          "name": "C3",
          "midi": 48,
          "time": 67.30248799999973,
          "velocity": 0.8661417322834646,
          "duration": 0.19312767187500413
        },
        {
          "name": "C3",
          "midi": 48,
          "time": 67.49985599999972,
          "velocity": 0.8661417322834646,
          "duration": 0.19312767187500413
        },
        {
          "name": "D5",
          "midi": 74,
          "time": 67.69722399999972,
          "velocity": 0.8661417322834646,
          "duration": 0.19312767187500413
        },
        {
          "name": "C3",
          "midi": 48,
          "time": 67.69722399999972,
          "velocity": 0.8661417322834646,
          "duration": 0.19312767187500413
        },
        {
          "name": "D5",
          "midi": 74,
          "time": 67.89459199999972,
          "velocity": 0.8661417322834646,
          "duration": 0.19312767187500413
        },
        {
          "name": "A#2",
          "midi": 46,
          "time": 67.89459199999972,
          "velocity": 0.8661417322834646,
          "duration": 0.19312767187500413
        },
        {
          "name": "E5",
          "midi": 76,
          "time": 68.09195999999972,
          "velocity": 0.8661417322834646,
          "duration": 0.19312767187500413
        },
        {
          "name": "A#2",
          "midi": 46,
          "time": 68.09195999999972,
          "velocity": 0.8661417322834646,
          "duration": 0.19312767187500413
        },
        {
          "name": "F5",
          "midi": 77,
          "time": 68.28932799999971,
          "velocity": 0.8661417322834646,
          "duration": 0.19312767187500413
        },
        {
          "name": "A#2",
          "midi": 46,
          "time": 68.28932799999971,
          "velocity": 0.8661417322834646,
          "duration": 0.19312767187500413
        },
        {
          "name": "E5",
          "midi": 76,
          "time": 68.48669599999971,
          "velocity": 0.8661417322834646,
          "duration": 0.19736799999999732
        },
        {
          "name": "G5",
          "midi": 79,
          "time": 68.48669599999971,
          "velocity": 0.8661417322834646,
          "duration": 0.19736799999999732
        },
        {
          "name": "C3",
          "midi": 48,
          "time": 68.48669599999971,
          "velocity": 0.8661417322834646,
          "duration": 0.19736799999999732
        },
        {
          "name": "E5",
          "midi": 76,
          "time": 68.68406399999971,
          "velocity": 0.8661417322834646,
          "duration": 0.19312767187500413
        },
        {
          "name": "G5",
          "midi": 79,
          "time": 68.68406399999971,
          "velocity": 0.8661417322834646,
          "duration": 0.19312767187500413
        },
        {
          "name": "C3",
          "midi": 48,
          "time": 68.68406399999971,
          "velocity": 0.8661417322834646,
          "duration": 0.19312767187500413
        },
        {
          "name": "F5",
          "midi": 77,
          "time": 68.8814319999997,
          "velocity": 0.8661417322834646,
          "duration": 0.19312767187500413
        },
        {
          "name": "C3",
          "midi": 48,
          "time": 68.8814319999997,
          "velocity": 0.8661417322834646,
          "duration": 0.19312767187500413
        },
        {
          "name": "E5",
          "midi": 76,
          "time": 69.0787999999997,
          "velocity": 0.8661417322834646,
          "duration": 0.19312767187500413
        },
        {
          "name": "C3",
          "midi": 48,
          "time": 69.0787999999997,
          "velocity": 0.8661417322834646,
          "duration": 0.19312767187500413
        },
        {
          "name": "C5",
          "midi": 72,
          "time": 69.2761679999997,
          "velocity": 0.8661417322834646,
          "duration": 0.19736799999999732
        },
        {
          "name": "A2",
          "midi": 45,
          "time": 69.2761679999997,
          "velocity": 0.8661417322834646,
          "duration": 0.19736799999999732
        },
        {
          "name": "C5",
          "midi": 72,
          "time": 69.4735359999997,
          "velocity": 0.8661417322834646,
          "duration": 0.19312767187500413
        },
        {
          "name": "A2",
          "midi": 45,
          "time": 69.4735359999997,
          "velocity": 0.8661417322834646,
          "duration": 0.19312767187500413
        },
        {
          "name": "G5",
          "midi": 79,
          "time": 69.6709039999997,
          "velocity": 0.8661417322834646,
          "duration": 0.19312767187500413
        },
        {
          "name": "A2",
          "midi": 45,
          "time": 69.6709039999997,
          "velocity": 0.8661417322834646,
          "duration": 0.19312767187500413
        },
        {
          "name": "E5",
          "midi": 76,
          "time": 69.86827199999969,
          "velocity": 0.8661417322834646,
          "duration": 0.19312767187500413
        },
        {
          "name": "A2",
          "midi": 45,
          "time": 69.86827199999969,
          "velocity": 0.8661417322834646,
          "duration": 0.19312767187500413
        },
        {
          "name": "D5",
          "midi": 74,
          "time": 70.06563999999969,
          "velocity": 0.8661417322834646,
          "duration": 0.19736799999999732
        },
        {
          "name": "F5",
          "midi": 77,
          "time": 70.06563999999969,
          "velocity": 0.8661417322834646,
          "duration": 0.19736799999999732
        },
        {
          "name": "A#2",
          "midi": 46,
          "time": 70.06563999999969,
          "velocity": 0.8661417322834646,
          "duration": 0.39049567187500145
        },
        {
          "name": "D5",
          "midi": 74,
          "time": 70.26300799999969,
          "velocity": 0.8661417322834646,
          "duration": 0.3288181718749996
        },
        {
          "name": "F5",
          "midi": 77,
          "time": 70.26300799999969,
          "velocity": 0.8661417322834646,
          "duration": 0.3288181718749996
        },
        {
          "name": "A#2",
          "midi": 46,
          "time": 70.46037599999968,
          "velocity": 0.8661417322834646,
          "duration": 0.19312767187500413
        },
        {
          "name": "A#2",
          "midi": 46,
          "time": 70.65774399999968,
          "velocity": 0.8661417322834646,
          "duration": 0.19312767187500413
        },
        {
          "name": "D5",
          "midi": 74,
          "time": 70.85511199999968,
          "velocity": 0.8661417322834646,
          "duration": 0.19312767187500413
        },
        {
          "name": "A#2",
          "midi": 46,
          "time": 70.85511199999968,
          "velocity": 0.8661417322834646,
          "duration": 0.19312767187500413
        },
        {
          "name": "D5",
          "midi": 74,
          "time": 71.05247999999968,
          "velocity": 0.8661417322834646,
          "duration": 0.19312767187500413
        },
        {
          "name": "A#2",
          "midi": 46,
          "time": 71.05247999999968,
          "velocity": 0.8661417322834646,
          "duration": 0.19312767187500413
        },
        {
          "name": "E5",
          "midi": 76,
          "time": 71.24984799999967,
          "velocity": 0.8661417322834646,
          "duration": 0.19312767187500413
        },
        {
          "name": "A#2",
          "midi": 46,
          "time": 71.24984799999967,
          "velocity": 0.8661417322834646,
          "duration": 0.19312767187500413
        },
        {
          "name": "F5",
          "midi": 77,
          "time": 71.44721599999967,
          "velocity": 0.8661417322834646,
          "duration": 0.19312767187500413
        },
        {
          "name": "A#2",
          "midi": 46,
          "time": 71.44721599999967,
          "velocity": 0.8661417322834646,
          "duration": 0.19312767187500413
        },
        {
          "name": "E5",
          "midi": 76,
          "time": 71.64458399999967,
          "velocity": 0.8661417322834646,
          "duration": 0.19736799999999732
        },
        {
          "name": "G5",
          "midi": 79,
          "time": 71.64458399999967,
          "velocity": 0.8661417322834646,
          "duration": 0.19736799999999732
        },
        {
          "name": "C3",
          "midi": 48,
          "time": 71.64458399999967,
          "velocity": 0.8661417322834646,
          "duration": 0.19736799999999732
        },
        {
          "name": "E5",
          "midi": 76,
          "time": 71.84195199999967,
          "velocity": 0.8661417322834646,
          "duration": 0.19312767187500413
        },
        {
          "name": "G5",
          "midi": 79,
          "time": 71.84195199999967,
          "velocity": 0.8661417322834646,
          "duration": 0.19312767187500413
        },
        {
          "name": "C3",
          "midi": 48,
          "time": 71.84195199999967,
          "velocity": 0.8661417322834646,
          "duration": 0.19312767187500413
        },
        {
          "name": "F5",
          "midi": 77,
          "time": 72.03931999999966,
          "velocity": 0.8661417322834646,
          "duration": 0.19312767187500413
        },
        {
          "name": "C3",
          "midi": 48,
          "time": 72.03931999999966,
          "velocity": 0.8661417322834646,
          "duration": 0.19312767187500413
        },
        {
          "name": "G5",
          "midi": 79,
          "time": 72.23668799999966,
          "velocity": 0.8661417322834646,
          "duration": 0.19312767187500413
        },
        {
          "name": "C3",
          "midi": 48,
          "time": 72.23668799999966,
          "velocity": 0.8661417322834646,
          "duration": 0.19312767187500413
        },
        {
          "name": "A5",
          "midi": 81,
          "time": 72.43405599999966,
          "velocity": 0.8661417322834646,
          "duration": 0.19736799999999732
        },
        {
          "name": "A2",
          "midi": 45,
          "time": 72.43405599999966,
          "velocity": 0.8661417322834646,
          "duration": 0.19736799999999732
        },
        {
          "name": "A5",
          "midi": 81,
          "time": 72.63142399999965,
          "velocity": 0.8661417322834646,
          "duration": 0.19312767187500413
        },
        {
          "name": "A2",
          "midi": 45,
          "time": 72.63142399999965,
          "velocity": 0.8661417322834646,
          "duration": 0.19312767187500413
        },
        {
          "name": "A#5",
          "midi": 82,
          "time": 72.82879199999965,
          "velocity": 0.8661417322834646,
          "duration": 0.19312767187500413
        },
        {
          "name": "A2",
          "midi": 45,
          "time": 72.82879199999965,
          "velocity": 0.8661417322834646,
          "duration": 0.19312767187500413
        },
        {
          "name": "A5",
          "midi": 81,
          "time": 73.02615999999965,
          "velocity": 0.8661417322834646,
          "duration": 0.19312767187500413
        },
        {
          "name": "C6",
          "midi": 84,
          "time": 73.02615999999965,
          "velocity": 0.8661417322834646,
          "duration": 0.19312767187500413
        },
        {
          "name": "A2",
          "midi": 45,
          "time": 73.02615999999965,
          "velocity": 0.8661417322834646,
          "duration": 0.19312767187500413
        },
        {
          "name": "F5",
          "midi": 77,
          "time": 73.22352799999965,
          "velocity": 0.8661417322834646,
          "duration": 0.19736799999999732
        },
        {
          "name": "D3",
          "midi": 50,
          "time": 73.22352799999965,
          "velocity": 0.8661417322834646,
          "duration": 0.19736799999999732
        },
        {
          "name": "F5",
          "midi": 77,
          "time": 73.42089599999964,
          "velocity": 0.8661417322834646,
          "duration": 0.3288181718749996
        },
        {
          "name": "D3",
          "midi": 50,
          "time": 73.42089599999964,
          "velocity": 0.8661417322834646,
          "duration": 0.19312767187500413
        },
        {
          "name": "D3",
          "midi": 50,
          "time": 73.61826399999964,
          "velocity": 0.8661417322834646,
          "duration": 0.19312767187500413
        },
        {
          "name": "D3",
          "midi": 50,
          "time": 73.81563199999964,
          "velocity": 0.8661417322834646,
          "duration": 0.19312767187500413
        },
        {
          "name": "D5",
          "midi": 74,
          "time": 74.01299999999964,
          "velocity": 0.8661417322834646,
          "duration": 0.19312767187500413
        },
        {
          "name": "D3",
          "midi": 50,
          "time": 74.01299999999964,
          "velocity": 0.8661417322834646,
          "duration": 0.19312767187500413
        },
        {
          "name": "D5",
          "midi": 74,
          "time": 74.21036799999963,
          "velocity": 0.8661417322834646,
          "duration": 0.19312767187500413
        },
        {
          "name": "A#2",
          "midi": 46,
          "time": 74.21036799999963,
          "velocity": 0.8661417322834646,
          "duration": 0.19312767187500413
        },
        {
          "name": "E5",
          "midi": 76,
          "time": 74.40773599999963,
          "velocity": 0.8661417322834646,
          "duration": 0.19312767187500413
        },
        {
          "name": "A#2",
          "midi": 46,
          "time": 74.40773599999963,
          "velocity": 0.8661417322834646,
          "duration": 0.19312767187500413
        },
        {
          "name": "F5",
          "midi": 77,
          "time": 74.60510399999963,
          "velocity": 0.8661417322834646,
          "duration": 0.19312767187500413
        },
        {
          "name": "A#2",
          "midi": 46,
          "time": 74.60510399999963,
          "velocity": 0.8661417322834646,
          "duration": 0.19312767187500413
        },
        {
          "name": "E5",
          "midi": 76,
          "time": 74.80247199999963,
          "velocity": 0.8661417322834646,
          "duration": 0.19736799999999732
        },
        {
          "name": "G5",
          "midi": 79,
          "time": 74.80247199999963,
          "velocity": 0.8661417322834646,
          "duration": 0.19736799999999732
        },
        {
          "name": "C3",
          "midi": 48,
          "time": 74.80247199999963,
          "velocity": 0.8661417322834646,
          "duration": 0.19736799999999732
        },
        {
          "name": "E5",
          "midi": 76,
          "time": 74.99983999999962,
          "velocity": 0.8661417322834646,
          "duration": 0.19312767187500413
        },
        {
          "name": "G5",
          "midi": 79,
          "time": 74.99983999999962,
          "velocity": 0.8661417322834646,
          "duration": 0.19312767187500413
        },
        {
          "name": "C3",
          "midi": 48,
          "time": 74.99983999999962,
          "velocity": 0.8661417322834646,
          "duration": 0.19312767187500413
        },
        {
          "name": "F5",
          "midi": 77,
          "time": 75.19720799999962,
          "velocity": 0.8661417322834646,
          "duration": 0.19312767187500413
        },
        {
          "name": "C3",
          "midi": 48,
          "time": 75.19720799999962,
          "velocity": 0.8661417322834646,
          "duration": 0.19312767187500413
        },
        {
          "name": "E5",
          "midi": 76,
          "time": 75.39457599999962,
          "velocity": 0.8661417322834646,
          "duration": 0.19312767187500413
        },
        {
          "name": "C3",
          "midi": 48,
          "time": 75.39457599999962,
          "velocity": 0.8661417322834646,
          "duration": 0.19312767187500413
        },
        {
          "name": "E5",
          "midi": 76,
          "time": 75.59194399999961,
          "velocity": 0.8661417322834646,
          "duration": 0.19736799999999732
        },
        {
          "name": "A2",
          "midi": 45,
          "time": 75.59194399999961,
          "velocity": 0.8661417322834646,
          "duration": 0.19736799999999732
        },
        {
          "name": "E5",
          "midi": 76,
          "time": 75.78931199999961,
          "velocity": 0.8661417322834646,
          "duration": 0.19312767187500413
        },
        {
          "name": "A2",
          "midi": 45,
          "time": 75.78931199999961,
          "velocity": 0.8661417322834646,
          "duration": 0.19312767187500413
        },
        {
          "name": "F5",
          "midi": 77,
          "time": 75.98667999999961,
          "velocity": 0.8661417322834646,
          "duration": 0.19312767187500413
        },
        {
          "name": "A2",
          "midi": 45,
          "time": 75.98667999999961,
          "velocity": 0.8661417322834646,
          "duration": 0.19312767187500413
        },
        {
          "name": "G5",
          "midi": 79,
          "time": 76.1840479999996,
          "velocity": 0.8661417322834646,
          "duration": 0.19312767187500413
        },
        {
          "name": "A2",
          "midi": 45,
          "time": 76.1840479999996,
          "velocity": 0.8661417322834646,
          "duration": 0.19312767187500413
        },
        {
          "name": "G5",
          "midi": 79,
          "time": 76.3814159999996,
          "velocity": 0.8661417322834646,
          "duration": 0.19312767187500413
        },
        {
          "name": "A#2",
          "midi": 46,
          "time": 76.3814159999996,
          "velocity": 0.8661417322834646,
          "duration": 0.19736799999999732
        },
        {
          "name": "D5",
          "midi": 74,
          "time": 76.5787839999996,
          "velocity": 0.8661417322834646,
          "duration": 0.3288181718749996
        },
        {
          "name": "F5",
          "midi": 77,
          "time": 76.5787839999996,
          "velocity": 0.8661417322834646,
          "duration": 0.3288181718749996
        },
        {
          "name": "A#2",
          "midi": 46,
          "time": 76.5787839999996,
          "velocity": 0.8661417322834646,
          "duration": 0.19312767187500413
        },
        {
          "name": "A#2",
          "midi": 46,
          "time": 76.7761519999996,
          "velocity": 0.8661417322834646,
          "duration": 0.19312767187500413
        },
        {
          "name": "A#2",
          "midi": 46,
          "time": 76.9735199999996,
          "velocity": 0.8661417322834646,
          "duration": 0.19312767187500413
        },
        {
          "name": "D5",
          "midi": 74,
          "time": 77.1708879999996,
          "velocity": 0.8661417322834646,
          "duration": 0.19312767187500413
        },
        {
          "name": "A#2",
          "midi": 46,
          "time": 77.1708879999996,
          "velocity": 0.8661417322834646,
          "duration": 0.19312767187500413
        },
        {
          "name": "D5",
          "midi": 74,
          "time": 77.36825599999959,
          "velocity": 0.8661417322834646,
          "duration": 0.19312767187500413
        },
        {
          "name": "A#2",
          "midi": 46,
          "time": 77.36825599999959,
          "velocity": 0.8661417322834646,
          "duration": 0.19312767187500413
        },
        {
          "name": "E5",
          "midi": 76,
          "time": 77.56562399999959,
          "velocity": 0.8661417322834646,
          "duration": 0.19312767187500413
        },
        {
          "name": "A#2",
          "midi": 46,
          "time": 77.56562399999959,
          "velocity": 0.8661417322834646,
          "duration": 0.19312767187500413
        },
        {
          "name": "F5",
          "midi": 77,
          "time": 77.76299199999958,
          "velocity": 0.8661417322834646,
          "duration": 0.19312767187500413
        },
        {
          "name": "A#2",
          "midi": 46,
          "time": 77.76299199999958,
          "velocity": 0.8661417322834646,
          "duration": 0.19312767187500413
        },
        {
          "name": "E5",
          "midi": 76,
          "time": 77.96035999999958,
          "velocity": 0.8661417322834646,
          "duration": 0.19736799999999732
        },
        {
          "name": "G5",
          "midi": 79,
          "time": 77.96035999999958,
          "velocity": 0.8661417322834646,
          "duration": 0.19736799999999732
        },
        {
          "name": "C3",
          "midi": 48,
          "time": 77.96035999999958,
          "velocity": 0.8661417322834646,
          "duration": 0.19736799999999732
        },
        {
          "name": "E5",
          "midi": 76,
          "time": 78.15772799999958,
          "velocity": 0.8661417322834646,
          "duration": 0.19312767187500413
        },
        {
          "name": "G5",
          "midi": 79,
          "time": 78.15772799999958,
          "velocity": 0.8661417322834646,
          "duration": 0.19312767187500413
        },
        {
          "name": "C3",
          "midi": 48,
          "time": 78.15772799999958,
          "velocity": 0.8661417322834646,
          "duration": 0.19312767187500413
        },
        {
          "name": "F5",
          "midi": 77,
          "time": 78.35509599999958,
          "velocity": 0.8661417322834646,
          "duration": 0.19312767187500413
        },
        {
          "name": "C3",
          "midi": 48,
          "time": 78.35509599999958,
          "velocity": 0.8661417322834646,
          "duration": 0.19312767187500413
        },
        {
          "name": "G5",
          "midi": 79,
          "time": 78.55246399999957,
          "velocity": 0.8661417322834646,
          "duration": 0.19312767187500413
        },
        {
          "name": "C3",
          "midi": 48,
          "time": 78.55246399999957,
          "velocity": 0.8661417322834646,
          "duration": 0.19312767187500413
        },
        {
          "name": "A5",
          "midi": 81,
          "time": 78.74983199999957,
          "velocity": 0.8661417322834646,
          "duration": 0.19736799999999732
        },
        {
          "name": "A2",
          "midi": 45,
          "time": 78.74983199999957,
          "velocity": 0.8661417322834646,
          "duration": 0.19312767187500413
        },
        {
          "name": "A5",
          "midi": 81,
          "time": 78.94719999999957,
          "velocity": 0.8661417322834646,
          "duration": 0.19312767187500413
        },
        {
          "name": "A2",
          "midi": 45,
          "time": 78.94719999999957,
          "velocity": 0.8661417322834646,
          "duration": 0.19312767187500413
        },
        {
          "name": "A#5",
          "midi": 82,
          "time": 79.14456799999957,
          "velocity": 0.8661417322834646,
          "duration": 0.19312767187500413
        },
        {
          "name": "A2",
          "midi": 45,
          "time": 79.14456799999957,
          "velocity": 0.8661417322834646,
          "duration": 0.19312767187500413
        },
        {
          "name": "A5",
          "midi": 81,
          "time": 79.34193599999956,
          "velocity": 0.8661417322834646,
          "duration": 0.19312767187500413
        },
        {
          "name": "A2",
          "midi": 45,
          "time": 79.34193599999956,
          "velocity": 0.8661417322834646,
          "duration": 0.19312767187500413
        },
        {
          "name": "F5",
          "midi": 77,
          "time": 79.53930399999956,
          "velocity": 0.8661417322834646,
          "duration": 0.19312767187500413
        },
        {
          "name": "D3",
          "midi": 50,
          "time": 79.53930399999956,
          "velocity": 0.8661417322834646,
          "duration": 0.19736799999999732
        },
        {
          "name": "D3",
          "midi": 50,
          "time": 79.73667199999956,
          "velocity": 0.8661417322834646,
          "duration": 0.19312767187500413
        },
        {
          "name": "G5",
          "midi": 79,
          "time": 79.93403999999956,
          "velocity": 0.8661417322834646,
          "duration": 0.3288181718749996
        },
        {
          "name": "D3",
          "midi": 50,
          "time": 79.93403999999956,
          "velocity": 0.8661417322834646,
          "duration": 0.19312767187500413
        },
        {
          "name": "D3",
          "midi": 50,
          "time": 80.13140799999955,
          "velocity": 0.8661417322834646,
          "duration": 0.19312767187500413
        },
        {
          "name": "G5",
          "midi": 79,
          "time": 80.32877599999955,
          "velocity": 0.8661417322834646,
          "duration": 0.19312767187500413
        },
        {
          "name": "D3",
          "midi": 50,
          "time": 80.32877599999955,
          "velocity": 0.8661417322834646,
          "duration": 0.19312767187500413
        },
        {
          "name": "D5",
          "midi": 74,
          "time": 80.52614399999955,
          "velocity": 0.8661417322834646,
          "duration": 1.480259999999987
        },
        {
          "name": "F5",
          "midi": 77,
          "time": 80.52614399999955,
          "velocity": 0.8661417322834646,
          "duration": 1.480259999999987
        },
        {
          "name": "A#2",
          "midi": 46,
          "time": 80.52614399999955,
          "velocity": 0.8661417322834646,
          "duration": 0.19312767187500413
        },
        {
          "name": "A#2",
          "midi": 46,
          "time": 80.72351199999954,
          "velocity": 0.8661417322834646,
          "duration": 0.19312767187500413
        },
        {
          "name": "A#2",
          "midi": 46,
          "time": 80.92087999999954,
          "velocity": 0.8661417322834646,
          "duration": 0.19312767187500413
        },
        {
          "name": "C3",
          "midi": 48,
          "time": 81.11824799999954,
          "velocity": 0.8661417322834646,
          "duration": 0.19736799999999732
        },
        {
          "name": "C3",
          "midi": 48,
          "time": 81.31561599999954,
          "velocity": 0.8661417322834646,
          "duration": 0.19312767187500413
        },
        {
          "name": "C3",
          "midi": 48,
          "time": 81.51298399999953,
          "velocity": 0.8661417322834646,
          "duration": 0.19312767187500413
        },
        {
          "name": "C3",
          "midi": 48,
          "time": 81.71035199999953,
          "velocity": 0.8661417322834646,
          "duration": 0.19312767187500413
        },
        {
          "name": "A2",
          "midi": 45,
          "time": 81.90771999999953,
          "velocity": 0.8661417322834646,
          "duration": 0.19736800000001153
        },
        {
          "name": "A2",
          "midi": 45,
          "time": 82.10508799999954,
          "velocity": 0.8661417322834646,
          "duration": 0.19312767187500413
        },
        {
          "name": "A2",
          "midi": 45,
          "time": 82.30245599999954,
          "velocity": 0.8661417322834646,
          "duration": 0.19312767187500413
        },
        {
          "name": "A2",
          "midi": 45,
          "time": 82.49982399999953,
          "velocity": 0.8661417322834646,
          "duration": 0.19312767187500413
        },
        {
          "name": "A#2",
          "midi": 46,
          "time": 82.69719199999953,
          "velocity": 0.8661417322834646,
          "duration": 0.19312767187500413
        },
        {
          "name": "A#2",
          "midi": 46,
          "time": 82.89455999999953,
          "velocity": 0.8661417322834646,
          "duration": 0.19312767187500413
        },
        {
          "name": "A#2",
          "midi": 46,
          "time": 83.09192799999953,
          "velocity": 0.8661417322834646,
          "duration": 0.19312767187500413
        },
        {
          "name": "A#2",
          "midi": 46,
          "time": 83.28929599999952,
          "velocity": 0.8661417322834646,
          "duration": 0.19312767187500413
        },
        {
          "name": "A#2",
          "midi": 46,
          "time": 83.48666399999952,
          "velocity": 0.8661417322834646,
          "duration": 0.19736799999999732
        },
        {
          "name": "D5",
          "midi": 74,
          "time": 83.68403199999952,
          "velocity": 0.8661417322834646,
          "duration": 0.19312767187500413
        },
        {
          "name": "A#2",
          "midi": 46,
          "time": 83.68403199999952,
          "velocity": 0.8661417322834646,
          "duration": 0.19312767187500413
        },
        {
          "name": "E5",
          "midi": 76,
          "time": 83.88139999999952,
          "velocity": 0.8661417322834646,
          "duration": 0.19312767187500413
        },
        {
          "name": "A#2",
          "midi": 46,
          "time": 83.88139999999952,
          "velocity": 0.8661417322834646,
          "duration": 0.19312767187500413
        },
        {
          "name": "F5",
          "midi": 77,
          "time": 84.07876799999951,
          "velocity": 0.8661417322834646,
          "duration": 0.19312767187500413
        },
        {
          "name": "A#2",
          "midi": 46,
          "time": 84.07876799999951,
          "velocity": 0.8661417322834646,
          "duration": 0.19312767187500413
        },
        {
          "name": "G5",
          "midi": 79,
          "time": 84.27613599999951,
          "velocity": 0.8661417322834646,
          "duration": 0.19736799999999732
        },
        {
          "name": "C3",
          "midi": 48,
          "time": 84.27613599999951,
          "velocity": 0.8661417322834646,
          "duration": 0.19736799999999732
        },
        {
          "name": "G5",
          "midi": 79,
          "time": 84.47350399999951,
          "velocity": 0.8661417322834646,
          "duration": 0.19312767187500413
        },
        {
          "name": "C3",
          "midi": 48,
          "time": 84.47350399999951,
          "velocity": 0.8661417322834646,
          "duration": 0.19312767187500413
        },
        {
          "name": "F5",
          "midi": 77,
          "time": 84.6708719999995,
          "velocity": 0.8661417322834646,
          "duration": 0.19312767187500413
        },
        {
          "name": "C3",
          "midi": 48,
          "time": 84.6708719999995,
          "velocity": 0.8661417322834646,
          "duration": 0.19312767187500413
        },
        {
          "name": "G5",
          "midi": 79,
          "time": 84.8682399999995,
          "velocity": 0.8661417322834646,
          "duration": 0.19312767187500413
        },
        {
          "name": "C3",
          "midi": 48,
          "time": 84.8682399999995,
          "velocity": 0.8661417322834646,
          "duration": 0.19312767187500413
        },
        {
          "name": "D5",
          "midi": 74,
          "time": 85.0656079999995,
          "velocity": 0.8661417322834646,
          "duration": 0.19736799999999732
        },
        {
          "name": "A5",
          "midi": 81,
          "time": 85.0656079999995,
          "velocity": 0.8661417322834646,
          "duration": 0.19736799999999732
        },
        {
          "name": "D3",
          "midi": 50,
          "time": 85.0656079999995,
          "velocity": 0.8661417322834646,
          "duration": 0.19736799999999732
        },
        {
          "name": "D5",
          "midi": 74,
          "time": 85.2629759999995,
          "velocity": 0.8661417322834646,
          "duration": 1.0855239999999924
        },
        {
          "name": "A5",
          "midi": 81,
          "time": 85.2629759999995,
          "velocity": 0.8661417322834646,
          "duration": 1.0855239999999924
        },
        {
          "name": "D3",
          "midi": 50,
          "time": 85.2629759999995,
          "velocity": 0.8661417322834646,
          "duration": 0.19312767187500413
        },
        {
          "name": "D3",
          "midi": 50,
          "time": 85.4603439999995,
          "velocity": 0.8661417322834646,
          "duration": 0.19312767187500413
        },
        {
          "name": "D3",
          "midi": 50,
          "time": 85.65771199999949,
          "velocity": 0.8661417322834646,
          "duration": 0.19312767187500413
        },
        {
          "name": "D3",
          "midi": 50,
          "time": 85.85507999999949,
          "velocity": 0.8661417322834646,
          "duration": 0.19312767187500413
        },
        {
          "name": "D3",
          "midi": 50,
          "time": 86.05244799999949,
          "velocity": 0.8661417322834646,
          "duration": 0.19312767187500413
        },
        {
          "name": "D3",
          "midi": 50,
          "time": 86.24981599999948,
          "velocity": 0.8661417322834646,
          "duration": 0.19312767187500413
        },
        {
          "name": "D3",
          "midi": 50,
          "time": 86.44718399999948,
          "velocity": 0.8661417322834646,
          "duration": 0.19312767187500413
        },
        {
          "name": "C4",
          "midi": 60,
          "time": 86.64455199999948,
          "velocity": 0.8661417322834646,
          "duration": 0.19312767187500413
        },
        {
          "name": "G4",
          "midi": 67,
          "time": 86.64455199999948,
          "velocity": 0.8661417322834646,
          "duration": 0.19312767187500413
        },
        {
          "name": "D3",
          "midi": 50,
          "time": 86.64455199999948,
          "velocity": 0.8661417322834646,
          "duration": 0.19312767187500413
        },
        {
          "name": "D3",
          "midi": 50,
          "time": 86.84191999999948,
          "velocity": 0.8661417322834646,
          "duration": 0.19312767187500413
        },
        {
          "name": "C4",
          "midi": 60,
          "time": 87.03928799999947,
          "velocity": 0.8661417322834646,
          "duration": 0.19312767187500413
        },
        {
          "name": "F#4",
          "midi": 66,
          "time": 87.03928799999947,
          "velocity": 0.8661417322834646,
          "duration": 0.19312767187500413
        },
        {
          "name": "D3",
          "midi": 50,
          "time": 87.03928799999947,
          "velocity": 0.8661417322834646,
          "duration": 0.19312767187500413
        },
        {
          "name": "D3",
          "midi": 50,
          "time": 87.23665599999947,
          "velocity": 0.8661417322834646,
          "duration": 0.19312767187500413
        },
        {
          "name": "A#3",
          "midi": 58,
          "time": 87.43402399999947,
          "velocity": 0.8661417322834646,
          "duration": 0.19736799999999732
        },
        {
          "name": "D4",
          "midi": 62,
          "time": 87.43402399999947,
          "velocity": 0.8661417322834646,
          "duration": 0.19736799999999732
        },
        {
          "name": "D3",
          "midi": 50,
          "time": 87.43402399999947,
          "velocity": 0.8661417322834646,
          "duration": 0.19312767187500413
        },
        {
          "name": "A#3",
          "midi": 58,
          "time": 87.63139199999947,
          "velocity": 0.8661417322834646,
          "duration": 0.6907879999999977
        },
        {
          "name": "D4",
          "midi": 62,
          "time": 87.63139199999947,
          "velocity": 0.8661417322834646,
          "duration": 0.6907879999999977
        },
        {
          "name": "D3",
          "midi": 50,
          "time": 87.63139199999947,
          "velocity": 0.8661417322834646,
          "duration": 0.19312767187500413
        },
        {
          "name": "D3",
          "midi": 50,
          "time": 87.82875999999946,
          "velocity": 0.8661417322834646,
          "duration": 0.19312767187500413
        },
        {
          "name": "D3",
          "midi": 50,
          "time": 88.02612799999946,
          "velocity": 0.8661417322834646,
          "duration": 0.19312767187500413
        },
        {
          "name": "D3",
          "midi": 50,
          "time": 88.22349599999946,
          "velocity": 0.8661417322834646,
          "duration": 0.19312767187500413
        },
        {
          "name": "D3",
          "midi": 50,
          "time": 88.42086399999945,
          "velocity": 0.8661417322834646,
          "duration": 0.19312767187500413
        },
        {
          "name": "D3",
          "midi": 50,
          "time": 88.61823199999945,
          "velocity": 0.8661417322834646,
          "duration": 0.19312767187500413
        },
        {
          "name": "D3",
          "midi": 50,
          "time": 88.81559999999945,
          "velocity": 0.8661417322834646,
          "duration": 0.19312767187500413
        },
        {
          "name": "A4",
          "midi": 69,
          "time": 89.01296799999945,
          "velocity": 0.8661417322834646,
          "duration": 0.19312767187500413
        },
        {
          "name": "D3",
          "midi": 50,
          "time": 89.01296799999945,
          "velocity": 0.8661417322834646,
          "duration": 0.19312767187500413
        },
        {
          "name": "D5",
          "midi": 74,
          "time": 89.21033599999944,
          "velocity": 0.8661417322834646,
          "duration": 0.19312767187500413
        },
        {
          "name": "D3",
          "midi": 50,
          "time": 89.21033599999944,
          "velocity": 0.8661417322834646,
          "duration": 0.19312767187500413
        },
        {
          "name": "C#5",
          "midi": 73,
          "time": 89.40770399999944,
          "velocity": 0.8661417322834646,
          "duration": 0.19312767187500413
        },
        {
          "name": "D3",
          "midi": 50,
          "time": 89.40770399999944,
          "velocity": 0.8661417322834646,
          "duration": 0.19312767187500413
        },
        {
          "name": "D5",
          "midi": 74,
          "time": 89.60507199999944,
          "velocity": 0.8661417322834646,
          "duration": 0.19312767187500413
        },
        {
          "name": "D3",
          "midi": 50,
          "time": 89.60507199999944,
          "velocity": 0.8661417322834646,
          "duration": 0.19312767187500413
        },
        {
          "name": "A4",
          "midi": 69,
          "time": 89.80243999999944,
          "velocity": 0.8661417322834646,
          "duration": 0.19312767187500413
        },
        {
          "name": "D3",
          "midi": 50,
          "time": 89.80243999999944,
          "velocity": 0.8661417322834646,
          "duration": 0.19312767187500413
        },
        {
          "name": "A4",
          "midi": 69,
          "time": 89.99980799999943,
          "velocity": 0.8661417322834646,
          "duration": 0.3288181718749996
        },
        {
          "name": "D3",
          "midi": 50,
          "time": 89.99980799999943,
          "velocity": 0.8661417322834646,
          "duration": 0.19312767187500413
        },
        {
          "name": "D3",
          "midi": 50,
          "time": 90.19717599999943,
          "velocity": 0.8661417322834646,
          "duration": 0.19312767187500413
        },
        {
          "name": "A4",
          "midi": 69,
          "time": 90.39454399999943,
          "velocity": 0.8661417322834646,
          "duration": 0.3288181718749996
        },
        {
          "name": "D3",
          "midi": 50,
          "time": 90.39454399999943,
          "velocity": 0.8661417322834646,
          "duration": 0.19312767187500413
        },
        {
          "name": "D3",
          "midi": 50,
          "time": 90.59191199999943,
          "velocity": 0.8661417322834646,
          "duration": 0.19312767187500413
        },
        {
          "name": "A4",
          "midi": 69,
          "time": 90.78927999999942,
          "velocity": 0.8661417322834646,
          "duration": 0.19312767187500413
        },
        {
          "name": "D3",
          "midi": 50,
          "time": 90.78927999999942,
          "velocity": 0.8661417322834646,
          "duration": 0.19312767187500413
        },
        {
          "name": "F#4",
          "midi": 66,
          "time": 90.98664799999942,
          "velocity": 0.8661417322834646,
          "duration": 0.19312767187500413
        },
        {
          "name": "D5",
          "midi": 74,
          "time": 90.98664799999942,
          "velocity": 0.8661417322834646,
          "duration": 0.19312767187500413
        },
        {
          "name": "D3",
          "midi": 50,
          "time": 90.98664799999942,
          "velocity": 0.8661417322834646,
          "duration": 0.19312767187500413
        },
        {
          "name": "G4",
          "midi": 67,
          "time": 91.18401599999942,
          "velocity": 0.8661417322834646,
          "duration": 0.19312767187500413
        },
        {
          "name": "C#5",
          "midi": 73,
          "time": 91.18401599999942,
          "velocity": 0.8661417322834646,
          "duration": 0.19312767187500413
        },
        {
          "name": "D3",
          "midi": 50,
          "time": 91.18401599999942,
          "velocity": 0.8661417322834646,
          "duration": 0.19312767187500413
        },
        {
          "name": "F#4",
          "midi": 66,
          "time": 91.38138399999941,
          "velocity": 0.8661417322834646,
          "duration": 0.19736799999999732
        },
        {
          "name": "A4",
          "midi": 69,
          "time": 91.38138399999941,
          "velocity": 0.8661417322834646,
          "duration": 0.19736799999999732
        },
        {
          "name": "D5",
          "midi": 74,
          "time": 91.38138399999941,
          "velocity": 0.8661417322834646,
          "duration": 0.19736799999999732
        },
        {
          "name": "D3",
          "midi": 50,
          "time": 91.38138399999941,
          "velocity": 0.8661417322834646,
          "duration": 0.19312767187500413
        },
        {
          "name": "F#4",
          "midi": 66,
          "time": 91.57875199999941,
          "velocity": 0.8661417322834646,
          "duration": 0.6907879999999977
        },
        {
          "name": "A4",
          "midi": 69,
          "time": 91.57875199999941,
          "velocity": 0.8661417322834646,
          "duration": 0.6907879999999977
        },
        {
          "name": "D5",
          "midi": 74,
          "time": 91.57875199999941,
          "velocity": 0.8661417322834646,
          "duration": 0.6907879999999977
        },
        {
          "name": "G2",
          "midi": 43,
          "time": 91.57875199999941,
          "velocity": 0.8661417322834646,
          "duration": 0.19312767187500413
        },
        {
          "name": "G2",
          "midi": 43,
          "time": 91.77611999999941,
          "velocity": 0.8661417322834646,
          "duration": 0.19312767187500413
        },
        {
          "name": "G2",
          "midi": 43,
          "time": 91.9734879999994,
          "velocity": 0.8661417322834646,
          "duration": 0.19312767187500413
        },
        {
          "name": "G2",
          "midi": 43,
          "time": 92.1708559999994,
          "velocity": 0.8661417322834646,
          "duration": 0.19312767187500413
        },
        {
          "name": "G2",
          "midi": 43,
          "time": 92.3682239999994,
          "velocity": 0.8661417322834646,
          "duration": 0.19312767187500413
        },
        {
          "name": "G2",
          "midi": 43,
          "time": 92.5655919999994,
          "velocity": 0.8661417322834646,
          "duration": 0.19312767187500413
        },
        {
          "name": "G2",
          "midi": 43,
          "time": 92.7629599999994,
          "velocity": 0.8661417322834646,
          "duration": 0.19312767187500413
        },
        {
          "name": "A4",
          "midi": 69,
          "time": 92.9603279999994,
          "velocity": 0.8661417322834646,
          "duration": 0.09444367187499836
        },
        {
          "name": "G2",
          "midi": 43,
          "time": 92.9603279999994,
          "velocity": 0.8661417322834646,
          "duration": 0.19312767187498991
        },
        {
          "name": "A4",
          "midi": 69,
          "time": 93.05901199999938,
          "velocity": 0.8661417322834646,
          "duration": 0.09444367187499836
        },
        {
          "name": "A4",
          "midi": 69,
          "time": 93.15769599999938,
          "velocity": 0.8661417322834646,
          "duration": 0.19312767187500413
        },
        {
          "name": "G2",
          "midi": 43,
          "time": 93.15769599999938,
          "velocity": 0.8661417322834646,
          "duration": 0.19312767187500413
        },
        {
          "name": "G4",
          "midi": 67,
          "time": 93.35506399999937,
          "velocity": 0.8661417322834646,
          "duration": 0.3288181718749996
        },
        {
          "name": "G2",
          "midi": 43,
          "time": 93.35506399999937,
          "velocity": 0.8661417322834646,
          "duration": 0.19312767187500413
        },
        {
          "name": "G2",
          "midi": 43,
          "time": 93.55243199999937,
          "velocity": 0.8661417322834646,
          "duration": 0.19312767187500413
        },
        {
          "name": "F#4",
          "midi": 66,
          "time": 93.74979999999937,
          "velocity": 0.8661417322834646,
          "duration": 0.19736799999999732
        },
        {
          "name": "G2",
          "midi": 43,
          "time": 93.74979999999937,
          "velocity": 0.8661417322834646,
          "duration": 0.19312767187500413
        },
        {
          "name": "F#4",
          "midi": 66,
          "time": 93.94716799999937,
          "velocity": 0.8661417322834646,
          "duration": 0.19312767187500413
        },
        {
          "name": "G2",
          "midi": 43,
          "time": 93.94716799999937,
          "velocity": 0.8661417322834646,
          "duration": 0.19312767187500413
        },
        {
          "name": "G4",
          "midi": 67,
          "time": 94.14453599999936,
          "velocity": 0.8661417322834646,
          "duration": 0.3288181718749996
        },
        {
          "name": "G2",
          "midi": 43,
          "time": 94.14453599999936,
          "velocity": 0.8661417322834646,
          "duration": 0.19312767187500413
        },
        {
          "name": "G2",
          "midi": 43,
          "time": 94.34190399999936,
          "velocity": 0.8661417322834646,
          "duration": 0.19312767187500413
        },
        {
          "name": "A4",
          "midi": 69,
          "time": 94.53927199999936,
          "velocity": 0.8661417322834646,
          "duration": 0.19312767187500413
        },
        {
          "name": "G2",
          "midi": 43,
          "time": 94.53927199999936,
          "velocity": 0.8661417322834646,
          "duration": 0.19312767187500413
        },
        {
          "name": "D3",
          "midi": 50,
          "time": 94.73663999999935,
          "velocity": 0.8661417322834646,
          "duration": 0.19312767187500413
        },
        {
          "name": "D3",
          "midi": 50,
          "time": 94.93400799999935,
          "velocity": 0.8661417322834646,
          "duration": 0.19312767187500413
        },
        {
          "name": "D5",
          "midi": 74,
          "time": 95.13137599999935,
          "velocity": 0.8661417322834646,
          "duration": 0.19312767187500413
        },
        {
          "name": "D3",
          "midi": 50,
          "time": 95.13137599999935,
          "velocity": 0.8661417322834646,
          "duration": 0.19312767187500413
        },
        {
          "name": "C#5",
          "midi": 73,
          "time": 95.32874399999935,
          "velocity": 0.8661417322834646,
          "duration": 0.19736799999999732
        },
        {
          "name": "D3",
          "midi": 50,
          "time": 95.32874399999935,
          "velocity": 0.8661417322834646,
          "duration": 0.19312767187500413
        },
        {
          "name": "C#5",
          "midi": 73,
          "time": 95.52611199999934,
          "velocity": 0.8661417322834646,
          "duration": 0.19312767187500413
        },
        {
          "name": "D3",
          "midi": 50,
          "time": 95.52611199999934,
          "velocity": 0.8661417322834646,
          "duration": 0.19312767187500413
        },
        {
          "name": "D5",
          "midi": 74,
          "time": 95.72347999999934,
          "velocity": 0.8661417322834646,
          "duration": 0.3288181718749996
        },
        {
          "name": "D3",
          "midi": 50,
          "time": 95.72347999999934,
          "velocity": 0.8661417322834646,
          "duration": 0.19312767187500413
        },
        {
          "name": "D3",
          "midi": 50,
          "time": 95.92084799999934,
          "velocity": 0.8661417322834646,
          "duration": 0.19312767187500413
        },
        {
          "name": "A4",
          "midi": 69,
          "time": 96.11821599999934,
          "velocity": 0.8661417322834646,
          "duration": 0.19736799999999732
        },
        {
          "name": "D3",
          "midi": 50,
          "time": 96.11821599999934,
          "velocity": 0.8661417322834646,
          "duration": 0.19312767187500413
        },
        {
          "name": "A4",
          "midi": 69,
          "time": 96.31558399999933,
          "velocity": 0.8661417322834646,
          "duration": 0.3288181718749996
        },
        {
          "name": "D3",
          "midi": 50,
          "time": 96.31558399999933,
          "velocity": 0.8661417322834646,
          "duration": 0.19312767187500413
        },
        {
          "name": "D3",
          "midi": 50,
          "time": 96.51295199999933,
          "velocity": 0.8661417322834646,
          "duration": 0.19312767187500413
        },
        {
          "name": "D5",
          "midi": 74,
          "time": 96.71031999999933,
          "velocity": 0.8661417322834646,
          "duration": 0.3288181718749996
        },
        {
          "name": "D3",
          "midi": 50,
          "time": 96.71031999999933,
          "velocity": 0.8661417322834646,
          "duration": 0.19312767187500413
        },
        {
          "name": "D3",
          "midi": 50,
          "time": 96.90768799999933,
          "velocity": 0.8661417322834646,
          "duration": 0.19312767187500413
        },
        {
          "name": "C#5",
          "midi": 73,
          "time": 97.10505599999932,
          "velocity": 0.8661417322834646,
          "duration": 0.19312767187500413
        },
        {
          "name": "D3",
          "midi": 50,
          "time": 97.10505599999932,
          "velocity": 0.8661417322834646,
          "duration": 0.19312767187500413
        },
        {
          "name": "D5",
          "midi": 74,
          "time": 97.30242399999932,
          "velocity": 0.8661417322834646,
          "duration": 0.3288181718749996
        },
        {
          "name": "D3",
          "midi": 50,
          "time": 97.30242399999932,
          "velocity": 0.8661417322834646,
          "duration": 0.19312767187500413
        },
        {
          "name": "D3",
          "midi": 50,
          "time": 97.49979199999932,
          "velocity": 0.8661417322834646,
          "duration": 0.19312767187500413
        },
        {
          "name": "F#5",
          "midi": 78,
          "time": 97.69715999999931,
          "velocity": 0.8661417322834646,
          "duration": 0.19736799999999732
        },
        {
          "name": "D3",
          "midi": 50,
          "time": 97.69715999999931,
          "velocity": 0.8661417322834646,
          "duration": 0.19312767187500413
        },
        {
          "name": "F#5",
          "midi": 78,
          "time": 97.89452799999931,
          "velocity": 0.8661417322834646,
          "duration": 0.3288181718749996
        },
        {
          "name": "G2",
          "midi": 43,
          "time": 97.89452799999931,
          "velocity": 0.8661417322834646,
          "duration": 0.19312767187500413
        },
        {
          "name": "G2",
          "midi": 43,
          "time": 98.09189599999931,
          "velocity": 0.8661417322834646,
          "duration": 0.19312767187500413
        },
        {
          "name": "G5",
          "midi": 79,
          "time": 98.2892639999993,
          "velocity": 0.8661417322834646,
          "duration": 0.19312767187500413
        },
        {
          "name": "G2",
          "midi": 43,
          "time": 98.2892639999993,
          "velocity": 0.8661417322834646,
          "duration": 0.19312767187500413
        },
        {
          "name": "F#5",
          "midi": 78,
          "time": 98.4866319999993,
          "velocity": 0.8661417322834646,
          "duration": 0.19736799999999732
        },
        {
          "name": "G2",
          "midi": 43,
          "time": 98.4866319999993,
          "velocity": 0.8661417322834646,
          "duration": 0.19312767187500413
        },
        {
          "name": "F#5",
          "midi": 78,
          "time": 98.6839999999993,
          "velocity": 0.8661417322834646,
          "duration": 0.19312767187500413
        },
        {
          "name": "G2",
          "midi": 43,
          "time": 98.6839999999993,
          "velocity": 0.8661417322834646,
          "duration": 0.19312767187500413
        },
        {
          "name": "D5",
          "midi": 74,
          "time": 98.8813679999993,
          "velocity": 0.8661417322834646,
          "duration": 0.3288181718749996
        },
        {
          "name": "G2",
          "midi": 43,
          "time": 98.8813679999993,
          "velocity": 0.8661417322834646,
          "duration": 0.19312767187500413
        },
        {
          "name": "G2",
          "midi": 43,
          "time": 99.0787359999993,
          "velocity": 0.8661417322834646,
          "duration": 0.19312767187500413
        },
        {
          "name": "F#5",
          "midi": 78,
          "time": 99.2761039999993,
          "velocity": 0.8661417322834646,
          "duration": 0.19736799999999732
        },
        {
          "name": "G2",
          "midi": 43,
          "time": 99.2761039999993,
          "velocity": 0.8661417322834646,
          "duration": 0.19312767187500413
        },
        {
          "name": "F#5",
          "midi": 78,
          "time": 99.47347199999929,
          "velocity": 0.8661417322834646,
          "duration": 0.3288181718749996
        },
        {
          "name": "G2",
          "midi": 43,
          "time": 99.47347199999929,
          "velocity": 0.8661417322834646,
          "duration": 0.19312767187500413
        },
        {
          "name": "G2",
          "midi": 43,
          "time": 99.67083999999929,
          "velocity": 0.8661417322834646,
          "duration": 0.19312767187500413
        },
        {
          "name": "G5",
          "midi": 79,
          "time": 99.86820799999929,
          "velocity": 0.8661417322834646,
          "duration": 0.19312767187500413
        },
        {
          "name": "G2",
          "midi": 43,
          "time": 99.86820799999929,
          "velocity": 0.8661417322834646,
          "duration": 0.19312767187500413
        },
        {
          "name": "F#5",
          "midi": 78,
          "time": 100.06557599999928,
          "velocity": 0.8661417322834646,
          "duration": 0.19736799999999732
        },
        {
          "name": "G2",
          "midi": 43,
          "time": 100.06557599999928,
          "velocity": 0.8661417322834646,
          "duration": 0.19312767187500413
        },
        {
          "name": "F#5",
          "midi": 78,
          "time": 100.26294399999928,
          "velocity": 0.8661417322834646,
          "duration": 0.19312767187500413
        },
        {
          "name": "G2",
          "midi": 43,
          "time": 100.26294399999928,
          "velocity": 0.8661417322834646,
          "duration": 0.19312767187500413
        },
        {
          "name": "D5",
          "midi": 74,
          "time": 100.46031199999928,
          "velocity": 0.8661417322834646,
          "duration": 0.3288181718749996
        },
        {
          "name": "G2",
          "midi": 43,
          "time": 100.46031199999928,
          "velocity": 0.8661417322834646,
          "duration": 0.19312767187500413
        },
        {
          "name": "G2",
          "midi": 43,
          "time": 100.65767999999927,
          "velocity": 0.8661417322834646,
          "duration": 0.19312767187500413
        },
        {
          "name": "D5",
          "midi": 74,
          "time": 100.85504799999927,
          "velocity": 0.8661417322834646,
          "duration": 0.19736799999999732
        },
        {
          "name": "G2",
          "midi": 43,
          "time": 100.85504799999927,
          "velocity": 0.8661417322834646,
          "duration": 0.19312767187500413
        },
        {
          "name": "D5",
          "midi": 74,
          "time": 101.05241599999927,
          "velocity": 0.8661417322834646,
          "duration": 1.0855239999999924
        },
        {
          "name": "A#2",
          "midi": 46,
          "time": 101.05241599999927,
          "velocity": 0.8661417322834646,
          "duration": 0.19312767187500413
        },
        {
          "name": "A#2",
          "midi": 46,
          "time": 101.24978399999927,
          "velocity": 0.8661417322834646,
          "duration": 0.19312767187500413
        },
        {
          "name": "A#2",
          "midi": 46,
          "time": 101.44715199999926,
          "velocity": 0.8661417322834646,
          "duration": 0.19312767187500413
        },
        {
          "name": "A#2",
          "midi": 46,
          "time": 101.64451999999926,
          "velocity": 0.8661417322834646,
          "duration": 0.19312767187500413
        },
        {
          "name": "A#2",
          "midi": 46,
          "time": 101.84188799999926,
          "velocity": 0.8661417322834646,
          "duration": 0.19312767187500413
        },
        {
          "name": "A#2",
          "midi": 46,
          "time": 102.03925599999926,
          "velocity": 0.8661417322834646,
          "duration": 0.19312767187500413
        },
        {
          "name": "A#2",
          "midi": 46,
          "time": 102.23662399999925,
          "velocity": 0.8661417322834646,
          "duration": 0.19312767187500413
        },
        {
          "name": "A4",
          "midi": 69,
          "time": 102.43399199999925,
          "velocity": 0.8661417322834646,
          "duration": 0.19736799999999732
        },
        {
          "name": "F5",
          "midi": 77,
          "time": 102.43399199999925,
          "velocity": 0.8661417322834646,
          "duration": 0.19736799999999732
        },
        {
          "name": "A#2",
          "midi": 46,
          "time": 102.43399199999925,
          "velocity": 0.8661417322834646,
          "duration": 0.19312767187500413
        },
        {
          "name": "A4",
          "midi": 69,
          "time": 102.63135999999925,
          "velocity": 0.8661417322834646,
          "duration": 0.19312767187500413
        },
        {
          "name": "F5",
          "midi": 77,
          "time": 102.63135999999925,
          "velocity": 0.8661417322834646,
          "duration": 0.19312767187500413
        },
        {
          "name": "A#2",
          "midi": 46,
          "time": 102.63135999999925,
          "velocity": 0.8661417322834646,
          "duration": 0.19312767187500413
        },
        {
          "name": "A4",
          "midi": 69,
          "time": 102.82872799999924,
          "velocity": 0.8661417322834646,
          "duration": 0.19312767187500413
        },
        {
          "name": "F5",
          "midi": 77,
          "time": 102.82872799999924,
          "velocity": 0.8661417322834646,
          "duration": 0.19312767187500413
        },
        {
          "name": "A#2",
          "midi": 46,
          "time": 102.82872799999924,
          "velocity": 0.8661417322834646,
          "duration": 0.19312767187500413
        },
        {
          "name": "G4",
          "midi": 67,
          "time": 103.02609599999924,
          "velocity": 0.8661417322834646,
          "duration": 0.19312767187500413
        },
        {
          "name": "E5",
          "midi": 76,
          "time": 103.02609599999924,
          "velocity": 0.8661417322834646,
          "duration": 0.19312767187500413
        },
        {
          "name": "A#2",
          "midi": 46,
          "time": 103.02609599999924,
          "velocity": 0.8661417322834646,
          "duration": 0.19312767187500413
        },
        {
          "name": "G4",
          "midi": 67,
          "time": 103.22346399999924,
          "velocity": 0.8661417322834646,
          "duration": 0.19312767187500413
        },
        {
          "name": "E5",
          "midi": 76,
          "time": 103.22346399999924,
          "velocity": 0.8661417322834646,
          "duration": 0.19312767187500413
        },
        {
          "name": "A#2",
          "midi": 46,
          "time": 103.22346399999924,
          "velocity": 0.8661417322834646,
          "duration": 0.19312767187500413
        },
        {
          "name": "F4",
          "midi": 65,
          "time": 103.42083199999924,
          "velocity": 0.8661417322834646,
          "duration": 0.3288181718749996
        },
        {
          "name": "D5",
          "midi": 74,
          "time": 103.42083199999924,
          "velocity": 0.8661417322834646,
          "duration": 0.3288181718749996
        },
        {
          "name": "A#2",
          "midi": 46,
          "time": 103.42083199999924,
          "velocity": 0.8661417322834646,
          "duration": 0.19312767187500413
        },
        {
          "name": "A#2",
          "midi": 46,
          "time": 103.61819999999923,
          "velocity": 0.8661417322834646,
          "duration": 0.19312767187500413
        },
        {
          "name": "A4",
          "midi": 69,
          "time": 103.81556799999923,
          "velocity": 0.8661417322834646,
          "duration": 0.39473599999999465
        },
        {
          "name": "F5",
          "midi": 77,
          "time": 103.81556799999923,
          "velocity": 0.8661417322834646,
          "duration": 0.39473599999999465
        },
        {
          "name": "A#2",
          "midi": 46,
          "time": 103.81556799999923,
          "velocity": 0.8661417322834646,
          "duration": 0.19312767187500413
        },
        {
          "name": "A#2",
          "midi": 46,
          "time": 104.01293599999923,
          "velocity": 0.8661417322834646,
          "duration": 0.19312767187500413
        },
        {
          "name": "A4",
          "midi": 69,
          "time": 104.21030399999923,
          "velocity": 0.8661417322834646,
          "duration": 0.3288181718749996
        },
        {
          "name": "F5",
          "midi": 77,
          "time": 104.21030399999923,
          "velocity": 0.8661417322834646,
          "duration": 0.3288181718749996
        },
        {
          "name": "G2",
          "midi": 43,
          "time": 104.21030399999923,
          "velocity": 0.8661417322834646,
          "duration": 0.19312767187500413
        },
        {
          "name": "G2",
          "midi": 43,
          "time": 104.40767199999922,
          "velocity": 0.8661417322834646,
          "duration": 0.19312767187500413
        },
        {
          "name": "G2",
          "midi": 43,
          "time": 104.60503999999922,
          "velocity": 0.8661417322834646,
          "duration": 0.19312767187500413
        },
        {
          "name": "G2",
          "midi": 43,
          "time": 104.80240799999922,
          "velocity": 0.8661417322834646,
          "duration": 0.19312767187500413
        },
        {
          "name": "G2",
          "midi": 43,
          "time": 104.99977599999922,
          "velocity": 0.8661417322834646,
          "duration": 0.19312767187500413
        },
        {
          "name": "G2",
          "midi": 43,
          "time": 105.19714399999921,
          "velocity": 0.8661417322834646,
          "duration": 0.19312767187500413
        },
        {
          "name": "G2",
          "midi": 43,
          "time": 105.39451199999921,
          "velocity": 0.8661417322834646,
          "duration": 0.19312767187500413
        },
        {
          "name": "A4",
          "midi": 69,
          "time": 105.59187999999921,
          "velocity": 0.8661417322834646,
          "duration": 0.19736799999999732
        },
        {
          "name": "F5",
          "midi": 77,
          "time": 105.59187999999921,
          "velocity": 0.8661417322834646,
          "duration": 0.19736799999999732
        },
        {
          "name": "G2",
          "midi": 43,
          "time": 105.59187999999921,
          "velocity": 0.8661417322834646,
          "duration": 0.19312767187500413
        },
        {
          "name": "A4",
          "midi": 69,
          "time": 105.7892479999992,
          "velocity": 0.8661417322834646,
          "duration": 0.19312767187500413
        },
        {
          "name": "F5",
          "midi": 77,
          "time": 105.7892479999992,
          "velocity": 0.8661417322834646,
          "duration": 0.19312767187500413
        },
        {
          "name": "G2",
          "midi": 43,
          "time": 105.7892479999992,
          "velocity": 0.8661417322834646,
          "duration": 0.19312767187500413
        },
        {
          "name": "A4",
          "midi": 69,
          "time": 105.9866159999992,
          "velocity": 0.8661417322834646,
          "duration": 0.19312767187500413
        },
        {
          "name": "F5",
          "midi": 77,
          "time": 105.9866159999992,
          "velocity": 0.8661417322834646,
          "duration": 0.19312767187500413
        },
        {
          "name": "G2",
          "midi": 43,
          "time": 105.9866159999992,
          "velocity": 0.8661417322834646,
          "duration": 0.19312767187500413
        },
        {
          "name": "G4",
          "midi": 67,
          "time": 106.1839839999992,
          "velocity": 0.8661417322834646,
          "duration": 0.19312767187500413
        },
        {
          "name": "E5",
          "midi": 76,
          "time": 106.1839839999992,
          "velocity": 0.8661417322834646,
          "duration": 0.19312767187500413
        },
        {
          "name": "G2",
          "midi": 43,
          "time": 106.1839839999992,
          "velocity": 0.8661417322834646,
          "duration": 0.19312767187500413
        },
        {
          "name": "G4",
          "midi": 67,
          "time": 106.3813519999992,
          "velocity": 0.8661417322834646,
          "duration": 0.19312767187500413
        },
        {
          "name": "E5",
          "midi": 76,
          "time": 106.3813519999992,
          "velocity": 0.8661417322834646,
          "duration": 0.19312767187500413
        },
        {
          "name": "G2",
          "midi": 43,
          "time": 106.3813519999992,
          "velocity": 0.8661417322834646,
          "duration": 0.19312767187500413
        },
        {
          "name": "F4",
          "midi": 65,
          "time": 106.5787199999992,
          "velocity": 0.8661417322834646,
          "duration": 0.3288181718749996
        },
        {
          "name": "D5",
          "midi": 74,
          "time": 106.5787199999992,
          "velocity": 0.8661417322834646,
          "duration": 0.3288181718749996
        },
        {
          "name": "G2",
          "midi": 43,
          "time": 106.5787199999992,
          "velocity": 0.8661417322834646,
          "duration": 0.19312767187500413
        },
        {
          "name": "G2",
          "midi": 43,
          "time": 106.77608799999919,
          "velocity": 0.8661417322834646,
          "duration": 0.19312767187500413
        },
        {
          "name": "A#4",
          "midi": 70,
          "time": 106.97345599999919,
          "velocity": 0.8661417322834646,
          "duration": 0.39473599999999465
        },
        {
          "name": "G5",
          "midi": 79,
          "time": 106.97345599999919,
          "velocity": 0.8661417322834646,
          "duration": 0.39473599999999465
        },
        {
          "name": "G2",
          "midi": 43,
          "time": 106.97345599999919,
          "velocity": 0.8661417322834646,
          "duration": 0.19312767187500413
        },
        {
          "name": "G2",
          "midi": 43,
          "time": 107.17082399999919,
          "velocity": 0.8661417322834646,
          "duration": 0.19312767187500413
        },
        {
          "name": "A#4",
          "midi": 70,
          "time": 107.36819199999918,
          "velocity": 0.8661417322834646,
          "duration": 0.19312767187500413
        },
        {
          "name": "G5",
          "midi": 79,
          "time": 107.36819199999918,
          "velocity": 0.8661417322834646,
          "duration": 0.19312767187500413
        },
        {
          "name": "F2",
          "midi": 41,
          "time": 107.36819199999918,
          "velocity": 0.8661417322834646,
          "duration": 0.19312767187500413
        },
        {
          "name": "A#4",
          "midi": 70,
          "time": 107.56555999999918,
          "velocity": 0.8661417322834646,
          "duration": 0.19312767187500413
        },
        {
          "name": "G5",
          "midi": 79,
          "time": 107.56555999999918,
          "velocity": 0.8661417322834646,
          "duration": 0.19312767187500413
        },
        {
          "name": "F2",
          "midi": 41,
          "time": 107.56555999999918,
          "velocity": 0.8661417322834646,
          "duration": 0.19312767187500413
        },
        {
          "name": "A4",
          "midi": 69,
          "time": 107.76292799999918,
          "velocity": 0.8661417322834646,
          "duration": 0.6907879999999977
        },
        {
          "name": "F5",
          "midi": 77,
          "time": 107.76292799999918,
          "velocity": 0.8661417322834646,
          "duration": 0.6907879999999977
        },
        {
          "name": "F2",
          "midi": 41,
          "time": 107.76292799999918,
          "velocity": 0.8661417322834646,
          "duration": 0.19312767187500413
        },
        {
          "name": "F2",
          "midi": 41,
          "time": 107.96029599999918,
          "velocity": 0.8661417322834646,
          "duration": 0.19312767187500413
        },
        {
          "name": "F2",
          "midi": 41,
          "time": 108.15766399999917,
          "velocity": 0.8661417322834646,
          "duration": 0.19312767187500413
        },
        {
          "name": "F2",
          "midi": 41,
          "time": 108.35503199999917,
          "velocity": 0.8661417322834646,
          "duration": 0.19312767187500413
        },
        {
          "name": "F2",
          "midi": 41,
          "time": 108.55239999999917,
          "velocity": 0.8661417322834646,
          "duration": 0.19312767187500413
        },
        {
          "name": "F5",
          "midi": 77,
          "time": 108.74976799999916,
          "velocity": 0.8661417322834646,
          "duration": 0.19736799999999732
        },
        {
          "name": "F2",
          "midi": 41,
          "time": 108.74976799999916,
          "velocity": 0.8661417322834646,
          "duration": 0.19312767187500413
        },
        {
          "name": "F5",
          "midi": 77,
          "time": 108.94713599999916,
          "velocity": 0.8661417322834646,
          "duration": 0.19312767187500413
        },
        {
          "name": "F2",
          "midi": 41,
          "time": 108.94713599999916,
          "velocity": 0.8661417322834646,
          "duration": 0.19312767187500413
        },
        {
          "name": "E5",
          "midi": 76,
          "time": 109.14450399999916,
          "velocity": 0.8661417322834646,
          "duration": 0.19312767187500413
        },
        {
          "name": "F2",
          "midi": 41,
          "time": 109.14450399999916,
          "velocity": 0.8661417322834646,
          "duration": 0.19312767187500413
        },
        {
          "name": "E5",
          "midi": 76,
          "time": 109.34187199999916,
          "velocity": 0.8661417322834646,
          "duration": 0.19312767187500413
        },
        {
          "name": "F2",
          "midi": 41,
          "time": 109.34187199999916,
          "velocity": 0.8661417322834646,
          "duration": 0.19312767187500413
        },
        {
          "name": "D5",
          "midi": 74,
          "time": 109.53923999999915,
          "velocity": 0.8661417322834646,
          "duration": 0.19312767187500413
        },
        {
          "name": "F2",
          "midi": 41,
          "time": 109.53923999999915,
          "velocity": 0.8661417322834646,
          "duration": 0.19312767187500413
        },
        {
          "name": "D5",
          "midi": 74,
          "time": 109.73660799999915,
          "velocity": 0.8661417322834646,
          "duration": 0.19312767187500413
        },
        {
          "name": "F2",
          "midi": 41,
          "time": 109.73660799999915,
          "velocity": 0.8661417322834646,
          "duration": 0.19312767187500413
        },
        {
          "name": "D5",
          "midi": 74,
          "time": 109.93397599999915,
          "velocity": 0.8661417322834646,
          "duration": 0.19312767187500413
        },
        {
          "name": "F2",
          "midi": 41,
          "time": 109.93397599999915,
          "velocity": 0.8661417322834646,
          "duration": 0.19312767187500413
        },
        {
          "name": "C5",
          "midi": 72,
          "time": 110.13134399999915,
          "velocity": 0.8661417322834646,
          "duration": 0.19312767187500413
        },
        {
          "name": "F2",
          "midi": 41,
          "time": 110.13134399999915,
          "velocity": 0.8661417322834646,
          "duration": 0.19312767187500413
        },
        {
          "name": "A4",
          "midi": 69,
          "time": 110.32871199999914,
          "velocity": 0.8661417322834646,
          "duration": 0.19736799999999732
        },
        {
          "name": "F2",
          "midi": 41,
          "time": 110.32871199999914,
          "velocity": 0.8661417322834646,
          "duration": 0.19312767187500413
        },
        {
          "name": "A4",
          "midi": 69,
          "time": 110.52607999999914,
          "velocity": 0.8661417322834646,
          "duration": 0.19312767187500413
        },
        {
          "name": "D3",
          "midi": 50,
          "time": 110.52607999999914,
          "velocity": 0.8661417322834646,
          "duration": 0.19312767187500413
        },
        {
          "name": "A#4",
          "midi": 70,
          "time": 110.72344799999914,
          "velocity": 0.8661417322834646,
          "duration": 0.19312767187500413
        },
        {
          "name": "D3",
          "midi": 50,
          "time": 110.72344799999914,
          "velocity": 0.8661417322834646,
          "duration": 0.19312767187500413
        },
        {
          "name": "A4",
          "midi": 69,
          "time": 110.92081599999914,
          "velocity": 0.8661417322834646,
          "duration": 0.19312767187500413
        },
        {
          "name": "D3",
          "midi": 50,
          "time": 110.92081599999914,
          "velocity": 0.8661417322834646,
          "duration": 0.19312767187500413
        },
        {
          "name": "A4",
          "midi": 69,
          "time": 111.11818399999913,
          "velocity": 0.8661417322834646,
          "duration": 0.19312767187500413
        },
        {
          "name": "D3",
          "midi": 50,
          "time": 111.11818399999913,
          "velocity": 0.8661417322834646,
          "duration": 0.19312767187500413
        },
        {
          "name": "G4",
          "midi": 67,
          "time": 111.31555199999913,
          "velocity": 0.8661417322834646,
          "duration": 0.19312767187500413
        },
        {
          "name": "D3",
          "midi": 50,
          "time": 111.31555199999913,
          "velocity": 0.8661417322834646,
          "duration": 0.19312767187500413
        },
        {
          "name": "F4",
          "midi": 65,
          "time": 111.51291999999913,
          "velocity": 0.8661417322834646,
          "duration": 0.19312767187500413
        },
        {
          "name": "D3",
          "midi": 50,
          "time": 111.51291999999913,
          "velocity": 0.8661417322834646,
          "duration": 0.19312767187500413
        },
        {
          "name": "F4",
          "midi": 65,
          "time": 111.71028799999912,
          "velocity": 0.8661417322834646,
          "duration": 0.19312767187500413
        },
        {
          "name": "D3",
          "midi": 50,
          "time": 111.71028799999912,
          "velocity": 0.8661417322834646,
          "duration": 0.19312767187500413
        },
        {
          "name": "A4",
          "midi": 69,
          "time": 111.90765599999912,
          "velocity": 0.8661417322834646,
          "duration": 0.19736799999999732
        },
        {
          "name": "D3",
          "midi": 50,
          "time": 111.90765599999912,
          "velocity": 0.8661417322834646,
          "duration": 0.19312767187500413
        },
        {
          "name": "A4",
          "midi": 69,
          "time": 112.10502399999912,
          "velocity": 0.8661417322834646,
          "duration": 0.19312767187500413
        },
        {
          "name": "D3",
          "midi": 50,
          "time": 112.10502399999912,
          "velocity": 0.8661417322834646,
          "duration": 0.19312767187500413
        },
        {
          "name": "A#4",
          "midi": 70,
          "time": 112.30239199999912,
          "velocity": 0.8661417322834646,
          "duration": 0.19312767187500413
        },
        {
          "name": "D3",
          "midi": 50,
          "time": 112.30239199999912,
          "velocity": 0.8661417322834646,
          "duration": 0.19312767187500413
        },
        {
          "name": "A4",
          "midi": 69,
          "time": 112.49975999999911,
          "velocity": 0.8661417322834646,
          "duration": 0.19312767187500413
        },
        {
          "name": "D3",
          "midi": 50,
          "time": 112.49975999999911,
          "velocity": 0.8661417322834646,
          "duration": 0.19312767187500413
        },
        {
          "name": "F4",
          "midi": 65,
          "time": 112.69712799999911,
          "velocity": 0.8661417322834646,
          "duration": 0.19312767187500413
        },
        {
          "name": "D3",
          "midi": 50,
          "time": 112.69712799999911,
          "velocity": 0.8661417322834646,
          "duration": 0.19312767187500413
        },
        {
          "name": "F4",
          "midi": 65,
          "time": 112.89449599999911,
          "velocity": 0.8661417322834646,
          "duration": 0.3288181718749996
        },
        {
          "name": "C3",
          "midi": 48,
          "time": 112.89449599999911,
          "velocity": 0.8661417322834646,
          "duration": 0.19312767187500413
        },
        {
          "name": "C3",
          "midi": 48,
          "time": 113.0918639999991,
          "velocity": 0.8661417322834646,
          "duration": 0.19312767187500413
        },
        {
          "name": "C3",
          "midi": 48,
          "time": 113.2892319999991,
          "velocity": 0.8661417322834646,
          "duration": 0.19312767187500413
        },
        {
          "name": "D5",
          "midi": 74,
          "time": 113.4865999999991,
          "velocity": 0.8661417322834646,
          "duration": 0.19312767187500413
        },
        {
          "name": "C3",
          "midi": 48,
          "time": 113.4865999999991,
          "velocity": 0.8661417322834646,
          "duration": 0.19312767187500413
        },
        {
          "name": "D5",
          "midi": 74,
          "time": 113.6839679999991,
          "velocity": 0.8661417322834646,
          "duration": 0.19312767187500413
        },
        {
          "name": "A#2",
          "midi": 46,
          "time": 113.6839679999991,
          "velocity": 0.8661417322834646,
          "duration": 0.19312767187500413
        },
        {
          "name": "E5",
          "midi": 76,
          "time": 113.8813359999991,
          "velocity": 0.8661417322834646,
          "duration": 0.19312767187500413
        },
        {
          "name": "A#2",
          "midi": 46,
          "time": 113.8813359999991,
          "velocity": 0.8661417322834646,
          "duration": 0.19312767187500413
        },
        {
          "name": "F5",
          "midi": 77,
          "time": 114.07870399999909,
          "velocity": 0.8661417322834646,
          "duration": 0.19312767187500413
        },
        {
          "name": "A#2",
          "midi": 46,
          "time": 114.07870399999909,
          "velocity": 0.8661417322834646,
          "duration": 0.19312767187500413
        },
        {
          "name": "E5",
          "midi": 76,
          "time": 114.27607199999909,
          "velocity": 0.8661417322834646,
          "duration": 0.19736799999999732
        },
        {
          "name": "G5",
          "midi": 79,
          "time": 114.27607199999909,
          "velocity": 0.8661417322834646,
          "duration": 0.19736799999999732
        },
        {
          "name": "C3",
          "midi": 48,
          "time": 114.27607199999909,
          "velocity": 0.8661417322834646,
          "duration": 0.19736799999999732
        },
        {
          "name": "E5",
          "midi": 76,
          "time": 114.47343999999909,
          "velocity": 0.8661417322834646,
          "duration": 0.19312767187500413
        },
        {
          "name": "G5",
          "midi": 79,
          "time": 114.47343999999909,
          "velocity": 0.8661417322834646,
          "duration": 0.19312767187500413
        },
        {
          "name": "C3",
          "midi": 48,
          "time": 114.47343999999909,
          "velocity": 0.8661417322834646,
          "duration": 0.19312767187500413
        },
        {
          "name": "F5",
          "midi": 77,
          "time": 114.67080799999908,
          "velocity": 0.8661417322834646,
          "duration": 0.19312767187500413
        },
        {
          "name": "C3",
          "midi": 48,
          "time": 114.67080799999908,
          "velocity": 0.8661417322834646,
          "duration": 0.19312767187500413
        },
        {
          "name": "E5",
          "midi": 76,
          "time": 114.86817599999908,
          "velocity": 0.8661417322834646,
          "duration": 0.19312767187500413
        },
        {
          "name": "C3",
          "midi": 48,
          "time": 114.86817599999908,
          "velocity": 0.8661417322834646,
          "duration": 0.19312767187500413
        },
        {
          "name": "C5",
          "midi": 72,
          "time": 115.06554399999908,
          "velocity": 0.8661417322834646,
          "duration": 0.19736799999999732
        },
        {
          "name": "A2",
          "midi": 45,
          "time": 115.06554399999908,
          "velocity": 0.8661417322834646,
          "duration": 0.19736799999999732
        },
        {
          "name": "C5",
          "midi": 72,
          "time": 115.26291199999908,
          "velocity": 0.8661417322834646,
          "duration": 0.19312767187500413
        },
        {
          "name": "A2",
          "midi": 45,
          "time": 115.26291199999908,
          "velocity": 0.8661417322834646,
          "duration": 0.19312767187500413
        },
        {
          "name": "G5",
          "midi": 79,
          "time": 115.46027999999907,
          "velocity": 0.8661417322834646,
          "duration": 0.19312767187500413
        },
        {
          "name": "A2",
          "midi": 45,
          "time": 115.46027999999907,
          "velocity": 0.8661417322834646,
          "duration": 0.19312767187500413
        },
        {
          "name": "E5",
          "midi": 76,
          "time": 115.65764799999907,
          "velocity": 0.8661417322834646,
          "duration": 0.19312767187500413
        },
        {
          "name": "A2",
          "midi": 45,
          "time": 115.65764799999907,
          "velocity": 0.8661417322834646,
          "duration": 0.19312767187500413
        },
        {
          "name": "D5",
          "midi": 74,
          "time": 115.85501599999907,
          "velocity": 0.8661417322834646,
          "duration": 0.19736799999999732
        },
        {
          "name": "F5",
          "midi": 77,
          "time": 115.85501599999907,
          "velocity": 0.8661417322834646,
          "duration": 0.19736799999999732
        },
        {
          "name": "A#2",
          "midi": 46,
          "time": 115.85501599999907,
          "velocity": 0.8661417322834646,
          "duration": 0.39049567187500145
        },
        {
          "name": "D5",
          "midi": 74,
          "time": 116.05238399999907,
          "velocity": 0.8661417322834646,
          "duration": 0.3288181718749996
        },
        {
          "name": "F5",
          "midi": 77,
          "time": 116.05238399999907,
          "velocity": 0.8661417322834646,
          "duration": 0.3288181718749996
        },
        {
          "name": "A#2",
          "midi": 46,
          "time": 116.24975199999906,
          "velocity": 0.8661417322834646,
          "duration": 0.19312767187500413
        },
        {
          "name": "A#2",
          "midi": 46,
          "time": 116.44711999999906,
          "velocity": 0.8661417322834646,
          "duration": 0.19312767187500413
        },
        {
          "name": "D5",
          "midi": 74,
          "time": 116.64448799999906,
          "velocity": 0.8661417322834646,
          "duration": 0.19312767187500413
        },
        {
          "name": "A#2",
          "midi": 46,
          "time": 116.64448799999906,
          "velocity": 0.8661417322834646,
          "duration": 0.19312767187500413
        },
        {
          "name": "D5",
          "midi": 74,
          "time": 116.84185599999905,
          "velocity": 0.8661417322834646,
          "duration": 0.19312767187500413
        },
        {
          "name": "A#2",
          "midi": 46,
          "time": 116.84185599999905,
          "velocity": 0.8661417322834646,
          "duration": 0.19312767187500413
        },
        {
          "name": "E5",
          "midi": 76,
          "time": 117.03922399999905,
          "velocity": 0.8661417322834646,
          "duration": 0.19312767187500413
        },
        {
          "name": "A#2",
          "midi": 46,
          "time": 117.03922399999905,
          "velocity": 0.8661417322834646,
          "duration": 0.19312767187500413
        },
        {
          "name": "F5",
          "midi": 77,
          "time": 117.23659199999905,
          "velocity": 0.8661417322834646,
          "duration": 0.19312767187500413
        },
        {
          "name": "A#2",
          "midi": 46,
          "time": 117.23659199999905,
          "velocity": 0.8661417322834646,
          "duration": 0.19312767187500413
        },
        {
          "name": "E5",
          "midi": 76,
          "time": 117.43395999999905,
          "velocity": 0.8661417322834646,
          "duration": 0.19736799999999732
        },
        {
          "name": "G5",
          "midi": 79,
          "time": 117.43395999999905,
          "velocity": 0.8661417322834646,
          "duration": 0.19736799999999732
        },
        {
          "name": "C3",
          "midi": 48,
          "time": 117.43395999999905,
          "velocity": 0.8661417322834646,
          "duration": 0.19736799999999732
        },
        {
          "name": "E5",
          "midi": 76,
          "time": 117.63132799999904,
          "velocity": 0.8661417322834646,
          "duration": 0.19312767187500413
        },
        {
          "name": "G5",
          "midi": 79,
          "time": 117.63132799999904,
          "velocity": 0.8661417322834646,
          "duration": 0.19312767187500413
        },
        {
          "name": "C3",
          "midi": 48,
          "time": 117.63132799999904,
          "velocity": 0.8661417322834646,
          "duration": 0.19312767187500413
        },
        {
          "name": "F5",
          "midi": 77,
          "time": 117.82869599999904,
          "velocity": 0.8661417322834646,
          "duration": 0.19312767187500413
        },
        {
          "name": "C3",
          "midi": 48,
          "time": 117.82869599999904,
          "velocity": 0.8661417322834646,
          "duration": 0.19312767187500413
        },
        {
          "name": "G5",
          "midi": 79,
          "time": 118.02606399999904,
          "velocity": 0.8661417322834646,
          "duration": 0.19312767187500413
        },
        {
          "name": "C3",
          "midi": 48,
          "time": 118.02606399999904,
          "velocity": 0.8661417322834646,
          "duration": 0.19312767187500413
        },
        {
          "name": "A5",
          "midi": 81,
          "time": 118.22343199999904,
          "velocity": 0.8661417322834646,
          "duration": 0.19736799999999732
        },
        {
          "name": "A2",
          "midi": 45,
          "time": 118.22343199999904,
          "velocity": 0.8661417322834646,
          "duration": 0.19736799999999732
        },
        {
          "name": "A5",
          "midi": 81,
          "time": 118.42079999999903,
          "velocity": 0.8661417322834646,
          "duration": 0.19312767187500413
        },
        {
          "name": "A2",
          "midi": 45,
          "time": 118.42079999999903,
          "velocity": 0.8661417322834646,
          "duration": 0.19312767187500413
        },
        {
          "name": "A#5",
          "midi": 82,
          "time": 118.61816799999903,
          "velocity": 0.8661417322834646,
          "duration": 0.19312767187500413
        },
        {
          "name": "A2",
          "midi": 45,
          "time": 118.61816799999903,
          "velocity": 0.8661417322834646,
          "duration": 0.19312767187500413
        },
        {
          "name": "A5",
          "midi": 81,
          "time": 118.81553599999903,
          "velocity": 0.8661417322834646,
          "duration": 0.19312767187500413
        },
        {
          "name": "C6",
          "midi": 84,
          "time": 118.81553599999903,
          "velocity": 0.8661417322834646,
          "duration": 0.19312767187500413
        },
        {
          "name": "A2",
          "midi": 45,
          "time": 118.81553599999903,
          "velocity": 0.8661417322834646,
          "duration": 0.19312767187500413
        },
        {
          "name": "F5",
          "midi": 77,
          "time": 119.01290399999903,
          "velocity": 0.8661417322834646,
          "duration": 0.19736799999999732
        },
        {
          "name": "D3",
          "midi": 50,
          "time": 119.01290399999903,
          "velocity": 0.8661417322834646,
          "duration": 0.19736799999999732
        },
        {
          "name": "F5",
          "midi": 77,
          "time": 119.21027199999902,
          "velocity": 0.8661417322834646,
          "duration": 0.3288181718749996
        },
        {
          "name": "D3",
          "midi": 50,
          "time": 119.21027199999902,
          "velocity": 0.8661417322834646,
          "duration": 0.19312767187500413
        },
        {
          "name": "D3",
          "midi": 50,
          "time": 119.40763999999902,
          "velocity": 0.8661417322834646,
          "duration": 0.19312767187500413
        },
        {
          "name": "D3",
          "midi": 50,
          "time": 119.60500799999902,
          "velocity": 0.8661417322834646,
          "duration": 0.19312767187500413
        },
        {
          "name": "D5",
          "midi": 74,
          "time": 119.80237599999901,
          "velocity": 0.8661417322834646,
          "duration": 0.19312767187500413
        },
        {
          "name": "D3",
          "midi": 50,
          "time": 119.80237599999901,
          "velocity": 0.8661417322834646,
          "duration": 0.19312767187500413
        },
        {
          "name": "D5",
          "midi": 74,
          "time": 119.99974399999901,
          "velocity": 0.8661417322834646,
          "duration": 0.19312767187500413
        },
        {
          "name": "A#2",
          "midi": 46,
          "time": 119.99974399999901,
          "velocity": 0.8661417322834646,
          "duration": 0.19312767187500413
        },
        {
          "name": "E5",
          "midi": 76,
          "time": 120.19711199999901,
          "velocity": 0.8661417322834646,
          "duration": 0.19312767187500413
        },
        {
          "name": "A#2",
          "midi": 46,
          "time": 120.19711199999901,
          "velocity": 0.8661417322834646,
          "duration": 0.19312767187500413
        },
        {
          "name": "F5",
          "midi": 77,
          "time": 120.394479999999,
          "velocity": 0.8661417322834646,
          "duration": 0.19312767187500413
        },
        {
          "name": "A#2",
          "midi": 46,
          "time": 120.394479999999,
          "velocity": 0.8661417322834646,
          "duration": 0.19312767187500413
        },
        {
          "name": "E5",
          "midi": 76,
          "time": 120.591847999999,
          "velocity": 0.8661417322834646,
          "duration": 0.19736799999999732
        },
        {
          "name": "G5",
          "midi": 79,
          "time": 120.591847999999,
          "velocity": 0.8661417322834646,
          "duration": 0.19736799999999732
        },
        {
          "name": "C3",
          "midi": 48,
          "time": 120.591847999999,
          "velocity": 0.8661417322834646,
          "duration": 0.19736799999999732
        },
        {
          "name": "E5",
          "midi": 76,
          "time": 120.789215999999,
          "velocity": 0.8661417322834646,
          "duration": 0.19312767187500413
        },
        {
          "name": "G5",
          "midi": 79,
          "time": 120.789215999999,
          "velocity": 0.8661417322834646,
          "duration": 0.19312767187500413
        },
        {
          "name": "C3",
          "midi": 48,
          "time": 120.789215999999,
          "velocity": 0.8661417322834646,
          "duration": 0.19312767187500413
        },
        {
          "name": "F5",
          "midi": 77,
          "time": 120.986583999999,
          "velocity": 0.8661417322834646,
          "duration": 0.19312767187500413
        },
        {
          "name": "C3",
          "midi": 48,
          "time": 120.986583999999,
          "velocity": 0.8661417322834646,
          "duration": 0.19312767187500413
        },
        {
          "name": "E5",
          "midi": 76,
          "time": 121.183951999999,
          "velocity": 0.8661417322834646,
          "duration": 0.19312767187500413
        },
        {
          "name": "C3",
          "midi": 48,
          "time": 121.183951999999,
          "velocity": 0.8661417322834646,
          "duration": 0.19312767187500413
        },
        {
          "name": "E5",
          "midi": 76,
          "time": 121.381319999999,
          "velocity": 0.8661417322834646,
          "duration": 0.19736799999999732
        },
        {
          "name": "A2",
          "midi": 45,
          "time": 121.381319999999,
          "velocity": 0.8661417322834646,
          "duration": 0.19736799999999732
        },
        {
          "name": "E5",
          "midi": 76,
          "time": 121.57868799999899,
          "velocity": 0.8661417322834646,
          "duration": 0.19312767187500413
        },
        {
          "name": "A2",
          "midi": 45,
          "time": 121.57868799999899,
          "velocity": 0.8661417322834646,
          "duration": 0.19312767187500413
        },
        {
          "name": "F5",
          "midi": 77,
          "time": 121.77605599999899,
          "velocity": 0.8661417322834646,
          "duration": 0.19312767187500413
        },
        {
          "name": "A2",
          "midi": 45,
          "time": 121.77605599999899,
          "velocity": 0.8661417322834646,
          "duration": 0.19312767187500413
        },
        {
          "name": "G5",
          "midi": 79,
          "time": 121.97342399999899,
          "velocity": 0.8661417322834646,
          "duration": 0.19312767187500413
        },
        {
          "name": "A2",
          "midi": 45,
          "time": 121.97342399999899,
          "velocity": 0.8661417322834646,
          "duration": 0.19312767187500413
        },
        {
          "name": "G5",
          "midi": 79,
          "time": 122.17079199999898,
          "velocity": 0.8661417322834646,
          "duration": 0.19312767187500413
        },
        {
          "name": "A#2",
          "midi": 46,
          "time": 122.17079199999898,
          "velocity": 0.8661417322834646,
          "duration": 0.19736799999999732
        },
        {
          "name": "D5",
          "midi": 74,
          "time": 122.36815999999898,
          "velocity": 0.8661417322834646,
          "duration": 0.3288181718749996
        },
        {
          "name": "F5",
          "midi": 77,
          "time": 122.36815999999898,
          "velocity": 0.8661417322834646,
          "duration": 0.3288181718749996
        },
        {
          "name": "A#2",
          "midi": 46,
          "time": 122.36815999999898,
          "velocity": 0.8661417322834646,
          "duration": 0.19312767187500413
        },
        {
          "name": "A#2",
          "midi": 46,
          "time": 122.56552799999898,
          "velocity": 0.8661417322834646,
          "duration": 0.19312767187500413
        },
        {
          "name": "A#2",
          "midi": 46,
          "time": 122.76289599999897,
          "velocity": 0.8661417322834646,
          "duration": 0.19312767187500413
        },
        {
          "name": "D5",
          "midi": 74,
          "time": 122.96026399999897,
          "velocity": 0.8661417322834646,
          "duration": 0.19312767187500413
        },
        {
          "name": "A#2",
          "midi": 46,
          "time": 122.96026399999897,
          "velocity": 0.8661417322834646,
          "duration": 0.19312767187500413
        },
        {
          "name": "D5",
          "midi": 74,
          "time": 123.15763199999897,
          "velocity": 0.8661417322834646,
          "duration": 0.19312767187500413
        },
        {
          "name": "A#2",
          "midi": 46,
          "time": 123.15763199999897,
          "velocity": 0.8661417322834646,
          "duration": 0.19312767187500413
        },
        {
          "name": "E5",
          "midi": 76,
          "time": 123.35499999999897,
          "velocity": 0.8661417322834646,
          "duration": 0.19312767187500413
        },
        {
          "name": "A#2",
          "midi": 46,
          "time": 123.35499999999897,
          "velocity": 0.8661417322834646,
          "duration": 0.19312767187500413
        },
        {
          "name": "F5",
          "midi": 77,
          "time": 123.55236799999896,
          "velocity": 0.8661417322834646,
          "duration": 0.19312767187500413
        },
        {
          "name": "A#2",
          "midi": 46,
          "time": 123.55236799999896,
          "velocity": 0.8661417322834646,
          "duration": 0.19312767187500413
        },
        {
          "name": "E5",
          "midi": 76,
          "time": 123.74973599999896,
          "velocity": 0.8661417322834646,
          "duration": 0.19736799999999732
        },
        {
          "name": "G5",
          "midi": 79,
          "time": 123.74973599999896,
          "velocity": 0.8661417322834646,
          "duration": 0.19736799999999732
        },
        {
          "name": "C3",
          "midi": 48,
          "time": 123.74973599999896,
          "velocity": 0.8661417322834646,
          "duration": 0.19736799999999732
        },
        {
          "name": "E5",
          "midi": 76,
          "time": 123.94710399999896,
          "velocity": 0.8661417322834646,
          "duration": 0.19312767187500413
        },
        {
          "name": "G5",
          "midi": 79,
          "time": 123.94710399999896,
          "velocity": 0.8661417322834646,
          "duration": 0.19312767187500413
        },
        {
          "name": "C3",
          "midi": 48,
          "time": 123.94710399999896,
          "velocity": 0.8661417322834646,
          "duration": 0.19312767187500413
        },
        {
          "name": "F5",
          "midi": 77,
          "time": 124.14447199999896,
          "velocity": 0.8661417322834646,
          "duration": 0.19312767187500413
        },
        {
          "name": "C3",
          "midi": 48,
          "time": 124.14447199999896,
          "velocity": 0.8661417322834646,
          "duration": 0.19312767187500413
        },
        {
          "name": "E5",
          "midi": 76,
          "time": 124.34183999999895,
          "velocity": 0.8661417322834646,
          "duration": 0.19312767187500413
        },
        {
          "name": "C3",
          "midi": 48,
          "time": 124.34183999999895,
          "velocity": 0.8661417322834646,
          "duration": 0.19312767187500413
        },
        {
          "name": "E5",
          "midi": 76,
          "time": 124.53920799999895,
          "velocity": 0.8661417322834646,
          "duration": 0.19736799999999732
        },
        {
          "name": "D3",
          "midi": 50,
          "time": 124.53920799999895,
          "velocity": 0.8661417322834646,
          "duration": 0.19736799999999732
        },
        {
          "name": "E5",
          "midi": 76,
          "time": 124.73657599999895,
          "velocity": 0.8661417322834646,
          "duration": 0.19312767187500413
        },
        {
          "name": "D3",
          "midi": 50,
          "time": 124.73657599999895,
          "velocity": 0.8661417322834646,
          "duration": 0.19312767187500413
        },
        {
          "name": "E5",
          "midi": 76,
          "time": 124.93394399999895,
          "velocity": 0.8661417322834646,
          "duration": 0.19312767187500413
        },
        {
          "name": "D3",
          "midi": 50,
          "time": 124.93394399999895,
          "velocity": 0.8661417322834646,
          "duration": 0.19312767187500413
        },
        {
          "name": "F#4",
          "midi": 66,
          "time": 125.13131199999894,
          "velocity": 0.8661417322834646,
          "duration": 0.6907879999999977
        },
        {
          "name": "A4",
          "midi": 69,
          "time": 125.13131199999894,
          "velocity": 0.8661417322834646,
          "duration": 0.6907879999999977
        },
        {
          "name": "D5",
          "midi": 74,
          "time": 125.13131199999894,
          "velocity": 0.8661417322834646,
          "duration": 0.6907879999999977
        },
        {
          "name": "D3",
          "midi": 50,
          "time": 125.13131199999894,
          "velocity": 0.8661417322834646,
          "duration": 0.19312767187500413
        },
        {
          "name": "D3",
          "midi": 50,
          "time": 125.32867999999894,
          "velocity": 0.8661417322834646,
          "duration": 0.19312767187500413
        },
        {
          "name": "D3",
          "midi": 50,
          "time": 125.52604799999894,
          "velocity": 0.8661417322834646,
          "duration": 0.19312767187500413
        },
        {
          "name": "D3",
          "midi": 50,
          "time": 125.72341599999893,
          "velocity": 0.8661417322834646,
          "duration": 0.19312767187500413
        },
        {
          "name": "D3",
          "midi": 50,
          "time": 125.92078399999893,
          "velocity": 0.8661417322834646,
          "duration": 0.19312767187500413
        },
        {
          "name": "D5",
          "midi": 74,
          "time": 126.11815199999893,
          "velocity": 0.8661417322834646,
          "duration": 0.19312767187500413
        },
        {
          "name": "D3",
          "midi": 50,
          "time": 126.11815199999893,
          "velocity": 0.8661417322834646,
          "duration": 0.19312767187500413
        },
        {
          "name": "D5",
          "midi": 74,
          "time": 126.31551999999893,
          "velocity": 0.8661417322834646,
          "duration": 0.19312767187500413
        },
        {
          "name": "A#2",
          "midi": 46,
          "time": 126.31551999999893,
          "velocity": 0.8661417322834646,
          "duration": 0.19312767187500413
        },
        {
          "name": "E5",
          "midi": 76,
          "time": 126.51288799999892,
          "velocity": 0.8661417322834646,
          "duration": 0.19312767187500413
        },
        {
          "name": "A#2",
          "midi": 46,
          "time": 126.51288799999892,
          "velocity": 0.8661417322834646,
          "duration": 0.19312767187500413
        },
        {
          "name": "F5",
          "midi": 77,
          "time": 126.71025599999892,
          "velocity": 0.8661417322834646,
          "duration": 0.19312767187500413
        },
        {
          "name": "A#2",
          "midi": 46,
          "time": 126.71025599999892,
          "velocity": 0.8661417322834646,
          "duration": 0.19312767187500413
        },
        {
          "name": "E5",
          "midi": 76,
          "time": 126.90762399999892,
          "velocity": 0.8661417322834646,
          "duration": 0.19736799999999732
        },
        {
          "name": "G5",
          "midi": 79,
          "time": 126.90762399999892,
          "velocity": 0.8661417322834646,
          "duration": 0.19736799999999732
        },
        {
          "name": "C3",
          "midi": 48,
          "time": 126.90762399999892,
          "velocity": 0.8661417322834646,
          "duration": 0.19736799999999732
        },
        {
          "name": "E5",
          "midi": 76,
          "time": 127.10499199999892,
          "velocity": 0.8661417322834646,
          "duration": 0.19312767187500413
        },
        {
          "name": "G5",
          "midi": 79,
          "time": 127.10499199999892,
          "velocity": 0.8661417322834646,
          "duration": 0.19312767187500413
        },
        {
          "name": "C3",
          "midi": 48,
          "time": 127.10499199999892,
          "velocity": 0.8661417322834646,
          "duration": 0.19312767187500413
        },
        {
          "name": "F5",
          "midi": 77,
          "time": 127.30235999999891,
          "velocity": 0.8661417322834646,
          "duration": 0.19312767187500413
        },
        {
          "name": "C3",
          "midi": 48,
          "time": 127.30235999999891,
          "velocity": 0.8661417322834646,
          "duration": 0.19312767187500413
        },
        {
          "name": "E5",
          "midi": 76,
          "time": 127.49972799999891,
          "velocity": 0.8661417322834646,
          "duration": 0.19312767187500413
        },
        {
          "name": "C3",
          "midi": 48,
          "time": 127.49972799999891,
          "velocity": 0.8661417322834646,
          "duration": 0.19312767187500413
        },
        {
          "name": "C5",
          "midi": 72,
          "time": 127.69709599999891,
          "velocity": 0.8661417322834646,
          "duration": 0.19736799999999732
        },
        {
          "name": "A2",
          "midi": 45,
          "time": 127.69709599999891,
          "velocity": 0.8661417322834646,
          "duration": 0.19736799999999732
        },
        {
          "name": "C5",
          "midi": 72,
          "time": 127.8944639999989,
          "velocity": 0.8661417322834646,
          "duration": 0.19312767187498991
        },
        {
          "name": "A2",
          "midi": 45,
          "time": 127.8944639999989,
          "velocity": 0.8661417322834646,
          "duration": 0.19312767187498991
        },
        {
          "name": "G5",
          "midi": 79,
          "time": 128.0918319999989,
          "velocity": 0.8661417322834646,
          "duration": 0.19312767187500413
        },
        {
          "name": "A2",
          "midi": 45,
          "time": 128.0918319999989,
          "velocity": 0.8661417322834646,
          "duration": 0.19312767187500413
        },
        {
          "name": "E5",
          "midi": 76,
          "time": 128.2891999999989,
          "velocity": 0.8661417322834646,
          "duration": 0.19312767187500413
        },
        {
          "name": "A2",
          "midi": 45,
          "time": 128.2891999999989,
          "velocity": 0.8661417322834646,
          "duration": 0.19312767187500413
        },
        {
          "name": "D5",
          "midi": 74,
          "time": 128.48656799999893,
          "velocity": 0.8661417322834646,
          "duration": 0.19736800000001153
        },
        {
          "name": "F5",
          "midi": 77,
          "time": 128.48656799999893,
          "velocity": 0.8661417322834646,
          "duration": 0.19736800000001153
        },
        {
          "name": "A#2",
          "midi": 46,
          "time": 128.48656799999893,
          "velocity": 0.8661417322834646,
          "duration": 0.19312767187500413
        },
        {
          "name": "D5",
          "midi": 74,
          "time": 128.68393599999894,
          "velocity": 0.8661417322834646,
          "duration": 0.32881817187501383
        },
        {
          "name": "F5",
          "midi": 77,
          "time": 128.68393599999894,
          "velocity": 0.8661417322834646,
          "duration": 0.32881817187501383
        },
        {
          "name": "A#2",
          "midi": 46,
          "time": 128.68393599999894,
          "velocity": 0.8661417322834646,
          "duration": 0.19312767187500413
        },
        {
          "name": "A#2",
          "midi": 46,
          "time": 128.88130399999895,
          "velocity": 0.8661417322834646,
          "duration": 0.19312767187500413
        },
        {
          "name": "A#2",
          "midi": 46,
          "time": 129.07867199999896,
          "velocity": 0.8661417322834646,
          "duration": 0.19312767187500413
        },
        {
          "name": "D5",
          "midi": 74,
          "time": 129.27603999999897,
          "velocity": 0.8661417322834646,
          "duration": 0.19312767187500413
        },
        {
          "name": "A#2",
          "midi": 46,
          "time": 129.27603999999897,
          "velocity": 0.8661417322834646,
          "duration": 0.19312767187500413
        },
        {
          "name": "D5",
          "midi": 74,
          "time": 129.47340799999898,
          "velocity": 0.8661417322834646,
          "duration": 0.19312767187500413
        },
        {
          "name": "A#2",
          "midi": 46,
          "time": 129.47340799999898,
          "velocity": 0.8661417322834646,
          "duration": 0.19312767187500413
        },
        {
          "name": "E5",
          "midi": 76,
          "time": 129.670775999999,
          "velocity": 0.8661417322834646,
          "duration": 0.19312767187500413
        },
        {
          "name": "A#2",
          "midi": 46,
          "time": 129.670775999999,
          "velocity": 0.8661417322834646,
          "duration": 0.19312767187500413
        },
        {
          "name": "F5",
          "midi": 77,
          "time": 129.868143999999,
          "velocity": 0.8661417322834646,
          "duration": 0.19312767187500413
        },
        {
          "name": "A#2",
          "midi": 46,
          "time": 129.868143999999,
          "velocity": 0.8661417322834646,
          "duration": 0.19312767187500413
        },
        {
          "name": "E5",
          "midi": 76,
          "time": 130.06551199999902,
          "velocity": 0.8661417322834646,
          "duration": 0.19736800000001153
        },
        {
          "name": "G5",
          "midi": 79,
          "time": 130.06551199999902,
          "velocity": 0.8661417322834646,
          "duration": 0.19736800000001153
        },
        {
          "name": "C3",
          "midi": 48,
          "time": 130.06551199999902,
          "velocity": 0.8661417322834646,
          "duration": 0.19736800000001153
        },
        {
          "name": "E5",
          "midi": 76,
          "time": 130.26287999999903,
          "velocity": 0.8661417322834646,
          "duration": 0.19312767187500413
        },
        {
          "name": "G5",
          "midi": 79,
          "time": 130.26287999999903,
          "velocity": 0.8661417322834646,
          "duration": 0.19312767187500413
        },
        {
          "name": "C3",
          "midi": 48,
          "time": 130.26287999999903,
          "velocity": 0.8661417322834646,
          "duration": 0.19312767187500413
        },
        {
          "name": "F5",
          "midi": 77,
          "time": 130.46024799999904,
          "velocity": 0.8661417322834646,
          "duration": 0.19312767187500413
        },
        {
          "name": "C3",
          "midi": 48,
          "time": 130.46024799999904,
          "velocity": 0.8661417322834646,
          "duration": 0.19312767187500413
        },
        {
          "name": "G5",
          "midi": 79,
          "time": 130.65761599999905,
          "velocity": 0.8661417322834646,
          "duration": 0.19312767187500413
        },
        {
          "name": "C3",
          "midi": 48,
          "time": 130.65761599999905,
          "velocity": 0.8661417322834646,
          "duration": 0.19312767187500413
        },
        {
          "name": "A5",
          "midi": 81,
          "time": 130.85498399999906,
          "velocity": 0.8661417322834646,
          "duration": 0.19312767187500413
        },
        {
          "name": "A2",
          "midi": 45,
          "time": 130.85498399999906,
          "velocity": 0.8661417322834646,
          "duration": 0.19736800000001153
        },
        {
          "name": "A5",
          "midi": 81,
          "time": 131.05235199999908,
          "velocity": 0.8661417322834646,
          "duration": 0.19312767187500413
        },
        {
          "name": "A2",
          "midi": 45,
          "time": 131.05235199999908,
          "velocity": 0.8661417322834646,
          "duration": 0.19312767187500413
        },
        {
          "name": "A#5",
          "midi": 82,
          "time": 131.2497199999991,
          "velocity": 0.8661417322834646,
          "duration": 0.19312767187500413
        },
        {
          "name": "A2",
          "midi": 45,
          "time": 131.2497199999991,
          "velocity": 0.8661417322834646,
          "duration": 0.19312767187500413
        },
        {
          "name": "C6",
          "midi": 84,
          "time": 131.4470879999991,
          "velocity": 0.8661417322834646,
          "duration": 0.19312767187500413
        },
        {
          "name": "A2",
          "midi": 45,
          "time": 131.4470879999991,
          "velocity": 0.8661417322834646,
          "duration": 0.19312767187500413
        },
        {
          "name": "F5",
          "midi": 77,
          "time": 131.6444559999991,
          "velocity": 0.8661417322834646,
          "duration": 0.19736800000001153
        },
        {
          "name": "D3",
          "midi": 50,
          "time": 131.6444559999991,
          "velocity": 0.8661417322834646,
          "duration": 0.19736800000001153
        },
        {
          "name": "F5",
          "midi": 77,
          "time": 131.84182399999912,
          "velocity": 0.8661417322834646,
          "duration": 0.32881817187501383
        },
        {
          "name": "D3",
          "midi": 50,
          "time": 131.84182399999912,
          "velocity": 0.8661417322834646,
          "duration": 0.19312767187500413
        },
        {
          "name": "D3",
          "midi": 50,
          "time": 132.03919199999913,
          "velocity": 0.8661417322834646,
          "duration": 0.19312767187500413
        },
        {
          "name": "D3",
          "midi": 50,
          "time": 132.23655999999914,
          "velocity": 0.8661417322834646,
          "duration": 0.19312767187500413
        },
        {
          "name": "D5",
          "midi": 74,
          "time": 132.43392799999916,
          "velocity": 0.8661417322834646,
          "duration": 0.09444367187501257
        },
        {
          "name": "D3",
          "midi": 50,
          "time": 132.43392799999916,
          "velocity": 0.8661417322834646,
          "duration": 0.19312767187503255
        },
        {
          "name": "D5",
          "midi": 74,
          "time": 132.53261199999918,
          "velocity": 0.8661417322834646,
          "duration": 0.09444367187501257
        },
        {
          "name": "D5",
          "midi": 74,
          "time": 132.6312959999992,
          "velocity": 0.8661417322834646,
          "duration": 0.19312767187500413
        },
        {
          "name": "A#2",
          "midi": 46,
          "time": 132.6312959999992,
          "velocity": 0.8661417322834646,
          "duration": 0.19312767187500413
        },
        {
          "name": "E5",
          "midi": 76,
          "time": 132.8286639999992,
          "velocity": 0.8661417322834646,
          "duration": 0.19312767187500413
        },
        {
          "name": "A#2",
          "midi": 46,
          "time": 132.8286639999992,
          "velocity": 0.8661417322834646,
          "duration": 0.19312767187500413
        },
        {
          "name": "F5",
          "midi": 77,
          "time": 133.02603199999922,
          "velocity": 0.8661417322834646,
          "duration": 0.19312767187500413
        },
        {
          "name": "A#2",
          "midi": 46,
          "time": 133.02603199999922,
          "velocity": 0.8661417322834646,
          "duration": 0.19312767187500413
        },
        {
          "name": "E5",
          "midi": 76,
          "time": 133.22339999999923,
          "velocity": 0.8661417322834646,
          "duration": 0.19736800000001153
        },
        {
          "name": "G5",
          "midi": 79,
          "time": 133.22339999999923,
          "velocity": 0.8661417322834646,
          "duration": 0.19736800000001153
        },
        {
          "name": "C3",
          "midi": 48,
          "time": 133.22339999999923,
          "velocity": 0.8661417322834646,
          "duration": 0.19736800000001153
        },
        {
          "name": "E5",
          "midi": 76,
          "time": 133.42076799999924,
          "velocity": 0.8661417322834646,
          "duration": 0.19312767187500413
        },
        {
          "name": "G5",
          "midi": 79,
          "time": 133.42076799999924,
          "velocity": 0.8661417322834646,
          "duration": 0.19312767187500413
        },
        {
          "name": "C3",
          "midi": 48,
          "time": 133.42076799999924,
          "velocity": 0.8661417322834646,
          "duration": 0.19312767187500413
        },
        {
          "name": "F5",
          "midi": 77,
          "time": 133.61813599999925,
          "velocity": 0.8661417322834646,
          "duration": 0.19312767187500413
        },
        {
          "name": "C3",
          "midi": 48,
          "time": 133.61813599999925,
          "velocity": 0.8661417322834646,
          "duration": 0.19312767187500413
        },
        {
          "name": "E5",
          "midi": 76,
          "time": 133.81550399999927,
          "velocity": 0.8661417322834646,
          "duration": 0.19312767187500413
        },
        {
          "name": "C3",
          "midi": 48,
          "time": 133.81550399999927,
          "velocity": 0.8661417322834646,
          "duration": 0.19312767187500413
        },
        {
          "name": "E5",
          "midi": 76,
          "time": 134.01287199999928,
          "velocity": 0.8661417322834646,
          "duration": 0.19736800000001153
        },
        {
          "name": "A2",
          "midi": 45,
          "time": 134.01287199999928,
          "velocity": 0.8661417322834646,
          "duration": 0.19736800000001153
        },
        {
          "name": "E5",
          "midi": 76,
          "time": 134.2102399999993,
          "velocity": 0.8661417322834646,
          "duration": 0.19312767187500413
        },
        {
          "name": "A2",
          "midi": 45,
          "time": 134.2102399999993,
          "velocity": 0.8661417322834646,
          "duration": 0.19312767187500413
        },
        {
          "name": "F5",
          "midi": 77,
          "time": 134.4076079999993,
          "velocity": 0.8661417322834646,
          "duration": 0.19312767187500413
        },
        {
          "name": "A2",
          "midi": 45,
          "time": 134.4076079999993,
          "velocity": 0.8661417322834646,
          "duration": 0.19312767187500413
        },
        {
          "name": "G5",
          "midi": 79,
          "time": 134.6049759999993,
          "velocity": 0.8661417322834646,
          "duration": 0.19312767187500413
        },
        {
          "name": "A2",
          "midi": 45,
          "time": 134.6049759999993,
          "velocity": 0.8661417322834646,
          "duration": 0.19312767187500413
        },
        {
          "name": "G5",
          "midi": 79,
          "time": 134.80234399999932,
          "velocity": 0.8661417322834646,
          "duration": 0.19312767187500413
        },
        {
          "name": "A#2",
          "midi": 46,
          "time": 134.80234399999932,
          "velocity": 0.8661417322834646,
          "duration": 0.19736800000001153
        },
        {
          "name": "D5",
          "midi": 74,
          "time": 134.99971199999933,
          "velocity": 0.8661417322834646,
          "duration": 0.32881817187501383
        },
        {
          "name": "F5",
          "midi": 77,
          "time": 134.99971199999933,
          "velocity": 0.8661417322834646,
          "duration": 0.32881817187501383
        },
        {
          "name": "A#2",
          "midi": 46,
          "time": 134.99971199999933,
          "velocity": 0.8661417322834646,
          "duration": 0.19312767187500413
        },
        {
          "name": "A#2",
          "midi": 46,
          "time": 135.19707999999935,
          "velocity": 0.8661417322834646,
          "duration": 0.19312767187500413
        },
        {
          "name": "A#2",
          "midi": 46,
          "time": 135.39444799999936,
          "velocity": 0.8661417322834646,
          "duration": 0.19312767187500413
        },
        {
          "name": "D5",
          "midi": 74,
          "time": 135.59181599999937,
          "velocity": 0.8661417322834646,
          "duration": 0.19312767187500413
        },
        {
          "name": "A#2",
          "midi": 46,
          "time": 135.59181599999937,
          "velocity": 0.8661417322834646,
          "duration": 0.19312767187500413
        },
        {
          "name": "D5",
          "midi": 74,
          "time": 135.78918399999938,
          "velocity": 0.8661417322834646,
          "duration": 0.19312767187500413
        },
        {
          "name": "A#2",
          "midi": 46,
          "time": 135.78918399999938,
          "velocity": 0.8661417322834646,
          "duration": 0.19312767187500413
        },
        {
          "name": "E5",
          "midi": 76,
          "time": 135.9865519999994,
          "velocity": 0.8661417322834646,
          "duration": 0.19312767187500413
        },
        {
          "name": "A#2",
          "midi": 46,
          "time": 135.9865519999994,
          "velocity": 0.8661417322834646,
          "duration": 0.19312767187500413
        },
        {
          "name": "F5",
          "midi": 77,
          "time": 136.1839199999994,
          "velocity": 0.8661417322834646,
          "duration": 0.19312767187500413
        },
        {
          "name": "A#2",
          "midi": 46,
          "time": 136.1839199999994,
          "velocity": 0.8661417322834646,
          "duration": 0.19312767187500413
        },
        {
          "name": "E5",
          "midi": 76,
          "time": 136.38128799999942,
          "velocity": 0.8661417322834646,
          "duration": 0.19736800000001153
        },
        {
          "name": "G5",
          "midi": 79,
          "time": 136.38128799999942,
          "velocity": 0.8661417322834646,
          "duration": 0.19736800000001153
        },
        {
          "name": "C3",
          "midi": 48,
          "time": 136.38128799999942,
          "velocity": 0.8661417322834646,
          "duration": 0.19736800000001153
        },
        {
          "name": "E5",
          "midi": 76,
          "time": 136.57865599999943,
          "velocity": 0.8661417322834646,
          "duration": 0.19312767187500413
        },
        {
          "name": "G5",
          "midi": 79,
          "time": 136.57865599999943,
          "velocity": 0.8661417322834646,
          "duration": 0.19312767187500413
        },
        {
          "name": "C3",
          "midi": 48,
          "time": 136.57865599999943,
          "velocity": 0.8661417322834646,
          "duration": 0.19312767187500413
        },
        {
          "name": "F5",
          "midi": 77,
          "time": 136.77602399999944,
          "velocity": 0.8661417322834646,
          "duration": 0.19312767187500413
        },
        {
          "name": "C3",
          "midi": 48,
          "time": 136.77602399999944,
          "velocity": 0.8661417322834646,
          "duration": 0.19312767187500413
        },
        {
          "name": "G5",
          "midi": 79,
          "time": 136.97339199999945,
          "velocity": 0.8661417322834646,
          "duration": 0.19312767187500413
        },
        {
          "name": "C3",
          "midi": 48,
          "time": 136.97339199999945,
          "velocity": 0.8661417322834646,
          "duration": 0.19312767187500413
        },
        {
          "name": "A5",
          "midi": 81,
          "time": 137.17075999999946,
          "velocity": 0.8661417322834646,
          "duration": 0.19736800000001153
        },
        {
          "name": "A2",
          "midi": 45,
          "time": 137.17075999999946,
          "velocity": 0.8661417322834646,
          "duration": 0.19736800000001153
        },
        {
          "name": "A5",
          "midi": 81,
          "time": 137.36812799999947,
          "velocity": 0.8661417322834646,
          "duration": 0.19312767187500413
        },
        {
          "name": "A2",
          "midi": 45,
          "time": 137.36812799999947,
          "velocity": 0.8661417322834646,
          "duration": 0.19312767187500413
        },
        {
          "name": "A#5",
          "midi": 82,
          "time": 137.56549599999948,
          "velocity": 0.8661417322834646,
          "duration": 0.19312767187500413
        },
        {
          "name": "A2",
          "midi": 45,
          "time": 137.56549599999948,
          "velocity": 0.8661417322834646,
          "duration": 0.19312767187500413
        },
        {
          "name": "A5",
          "midi": 81,
          "time": 137.7628639999995,
          "velocity": 0.8661417322834646,
          "duration": 0.19312767187500413
        },
        {
          "name": "A2",
          "midi": 45,
          "time": 137.7628639999995,
          "velocity": 0.8661417322834646,
          "duration": 0.19312767187500413
        },
        {
          "name": "F5",
          "midi": 77,
          "time": 137.9602319999995,
          "velocity": 0.8661417322834646,
          "duration": 0.19312767187500413
        },
        {
          "name": "D3",
          "midi": 50,
          "time": 137.9602319999995,
          "velocity": 0.8661417322834646,
          "duration": 0.19736800000001153
        },
        {
          "name": "D3",
          "midi": 50,
          "time": 138.15759999999952,
          "velocity": 0.8661417322834646,
          "duration": 0.19312767187500413
        },
        {
          "name": "G5",
          "midi": 79,
          "time": 138.35496799999953,
          "velocity": 0.8661417322834646,
          "duration": 0.32881817187501383
        },
        {
          "name": "D3",
          "midi": 50,
          "time": 138.35496799999953,
          "velocity": 0.8661417322834646,
          "duration": 0.19312767187500413
        },
        {
          "name": "D3",
          "midi": 50,
          "time": 138.55233599999954,
          "velocity": 0.8661417322834646,
          "duration": 0.19312767187500413
        },
        {
          "name": "G5",
          "midi": 79,
          "time": 138.74970399999955,
          "velocity": 0.8661417322834646,
          "duration": 0.19312767187500413
        },
        {
          "name": "D3",
          "midi": 50,
          "time": 138.74970399999955,
          "velocity": 0.8661417322834646,
          "duration": 0.19312767187500413
        },
        {
          "name": "D5",
          "midi": 74,
          "time": 138.94707199999957,
          "velocity": 0.8661417322834646,
          "duration": 1.4802600000000723
        },
        {
          "name": "F5",
          "midi": 77,
          "time": 138.94707199999957,
          "velocity": 0.8661417322834646,
          "duration": 1.4802600000000723
        },
        {
          "name": "A#2",
          "midi": 46,
          "time": 138.94707199999957,
          "velocity": 0.8661417322834646,
          "duration": 0.19312767187500413
        },
        {
          "name": "A#2",
          "midi": 46,
          "time": 139.14443999999958,
          "velocity": 0.8661417322834646,
          "duration": 0.19312767187500413
        },
        {
          "name": "A#2",
          "midi": 46,
          "time": 139.3418079999996,
          "velocity": 0.8661417322834646,
          "duration": 0.19312767187500413
        },
        {
          "name": "A#2",
          "midi": 46,
          "time": 139.5391759999996,
          "velocity": 0.8661417322834646,
          "duration": 0.19312767187500413
        },
        {
          "name": "A#2",
          "midi": 46,
          "time": 139.7365439999996,
          "velocity": 0.8661417322834646,
          "duration": 0.19312767187500413
        },
        {
          "name": "A#2",
          "midi": 46,
          "time": 139.93391199999962,
          "velocity": 0.8661417322834646,
          "duration": 0.19312767187500413
        },
        {
          "name": "A#2",
          "midi": 46,
          "time": 140.13127999999963,
          "velocity": 0.8661417322834646,
          "duration": 0.19312767187500413
        },
        {
          "name": "A#2",
          "midi": 46,
          "time": 140.32864799999965,
          "velocity": 0.8661417322834646,
          "duration": 0.19312767187500413
        },
        {
          "name": "D3",
          "midi": 50,
          "time": 140.52601599999966,
          "velocity": 0.8661417322834646,
          "duration": 0.19312767187500413
        },
        {
          "name": "D3",
          "midi": 50,
          "time": 140.72338399999967,
          "velocity": 0.8661417322834646,
          "duration": 0.19312767187500413
        },
        {
          "name": "D3",
          "midi": 50,
          "time": 140.92075199999968,
          "velocity": 0.8661417322834646,
          "duration": 0.19312767187500413
        },
        {
          "name": "D3",
          "midi": 50,
          "time": 141.1181199999997,
          "velocity": 0.8661417322834646,
          "duration": 0.19312767187500413
        },
        {
          "name": "D3",
          "midi": 50,
          "time": 141.3154879999997,
          "velocity": 0.8661417322834646,
          "duration": 0.19312767187500413
        },
        {
          "name": "D3",
          "midi": 50,
          "time": 141.51285599999972,
          "velocity": 0.8661417322834646,
          "duration": 0.19312767187500413
        },
        {
          "name": "D3",
          "midi": 50,
          "time": 141.71022399999973,
          "velocity": 0.8661417322834646,
          "duration": 0.19312767187500413
        },
        {
          "name": "D3",
          "midi": 50,
          "time": 141.90759199999974,
          "velocity": 0.8661417322834646,
          "duration": 0.19312767187500413
        },
        {
          "name": "E4",
          "midi": 64,
          "time": 142.10495999999975,
          "velocity": 0.8661417322834646,
          "duration": 1.4802600000000723
        },
        {
          "name": "G4",
          "midi": 67,
          "time": 142.10495999999975,
          "velocity": 0.8661417322834646,
          "duration": 1.4802600000000723
        },
        {
          "name": "C3",
          "midi": 48,
          "time": 142.10495999999975,
          "velocity": 0.8661417322834646,
          "duration": 0.19312767187500413
        },
        {
          "name": "C3",
          "midi": 48,
          "time": 142.30232799999976,
          "velocity": 0.8661417322834646,
          "duration": 0.19312767187500413
        },
        {
          "name": "C3",
          "midi": 48,
          "time": 142.49969599999977,
          "velocity": 0.8661417322834646,
          "duration": 0.19312767187500413
        },
        {
          "name": "C3",
          "midi": 48,
          "time": 142.69706399999978,
          "velocity": 0.8661417322834646,
          "duration": 0.19312767187500413
        },
        {
          "name": "C3",
          "midi": 48,
          "time": 142.8944319999998,
          "velocity": 0.8661417322834646,
          "duration": 0.19312767187500413
        },
        {
          "name": "C3",
          "midi": 48,
          "time": 143.0917999999998,
          "velocity": 0.8661417322834646,
          "duration": 0.19312767187500413
        },
        {
          "name": "C3",
          "midi": 48,
          "time": 143.28916799999982,
          "velocity": 0.8661417322834646,
          "duration": 0.19312767187500413
        },
        {
          "name": "C3",
          "midi": 48,
          "time": 143.48653599999983,
          "velocity": 0.8661417322834646,
          "duration": 0.19312767187500413
        },
        {
          "name": "A4",
          "midi": 69,
          "time": 143.68390399999984,
          "velocity": 0.8661417322834646,
          "duration": 0.6907880000000262
        },
        {
          "name": "F3",
          "midi": 53,
          "time": 143.68390399999984,
          "velocity": 0.8661417322834646,
          "duration": 0.19312767187500413
        },
        {
          "name": "F3",
          "midi": 53,
          "time": 143.88127199999985,
          "velocity": 0.8661417322834646,
          "duration": 0.19312767187500413
        },
        {
          "name": "F3",
          "midi": 53,
          "time": 144.07863999999987,
          "velocity": 0.8661417322834646,
          "duration": 0.19312767187500413
        },
        {
          "name": "F3",
          "midi": 53,
          "time": 144.27600799999988,
          "velocity": 0.8661417322834646,
          "duration": 0.19312767187500413
        },
        {
          "name": "G4",
          "midi": 67,
          "time": 144.4733759999999,
          "velocity": 0.8661417322834646,
          "duration": 0.6907880000000262
        },
        {
          "name": "F3",
          "midi": 53,
          "time": 144.4733759999999,
          "velocity": 0.8661417322834646,
          "duration": 0.19312767187500413
        },
        {
          "name": "F3",
          "midi": 53,
          "time": 144.6707439999999,
          "velocity": 0.8661417322834646,
          "duration": 0.19312767187500413
        },
        {
          "name": "F3",
          "midi": 53,
          "time": 144.8681119999999,
          "velocity": 0.8661417322834646,
          "duration": 0.19312767187500413
        },
        {
          "name": "F3",
          "midi": 53,
          "time": 145.06547999999992,
          "velocity": 0.8661417322834646,
          "duration": 0.19312767187500413
        },
        {
          "name": "D5",
          "midi": 74,
          "time": 145.26284799999993,
          "velocity": 0.8661417322834646,
          "duration": 1.0855240000000492
        },
        {
          "name": "A#2",
          "midi": 46,
          "time": 145.26284799999993,
          "velocity": 0.8661417322834646,
          "duration": 0.19312767187500413
        },
        {
          "name": "A#2",
          "midi": 46,
          "time": 145.46021599999995,
          "velocity": 0.8661417322834646,
          "duration": 0.19312767187500413
        },
        {
          "name": "A#2",
          "midi": 46,
          "time": 145.65758399999996,
          "velocity": 0.8661417322834646,
          "duration": 0.19312767187500413
        },
        {
          "name": "A#2",
          "midi": 46,
          "time": 145.85495199999997,
          "velocity": 0.8661417322834646,
          "duration": 0.19312767187500413
        },
        {
          "name": "A#2",
          "midi": 46,
          "time": 146.05231999999998,
          "velocity": 0.8661417322834646,
          "duration": 0.19312767187500413
        },
        {
          "name": "A#2",
          "midi": 46,
          "time": 146.249688,
          "velocity": 0.8661417322834646,
          "duration": 0.19312767187500413
        },
        {
          "name": "A#2",
          "midi": 46,
          "time": 146.447056,
          "velocity": 0.8661417322834646,
          "duration": 0.19312767187500413
        },
        {
          "name": "A4",
          "midi": 69,
          "time": 146.64442400000001,
          "velocity": 0.8661417322834646,
          "duration": 0.19736800000001153
        },
        {
          "name": "F5",
          "midi": 77,
          "time": 146.64442400000001,
          "velocity": 0.8661417322834646,
          "duration": 0.19736800000001153
        },
        {
          "name": "A#2",
          "midi": 46,
          "time": 146.64442400000001,
          "velocity": 0.8661417322834646,
          "duration": 0.19312767187500413
        },
        {
          "name": "A4",
          "midi": 69,
          "time": 146.84179200000003,
          "velocity": 0.8661417322834646,
          "duration": 0.19312767187500413
        },
        {
          "name": "F5",
          "midi": 77,
          "time": 146.84179200000003,
          "velocity": 0.8661417322834646,
          "duration": 0.19312767187500413
        },
        {
          "name": "A#2",
          "midi": 46,
          "time": 146.84179200000003,
          "velocity": 0.8661417322834646,
          "duration": 0.19312767187500413
        },
        {
          "name": "A4",
          "midi": 69,
          "time": 147.03916000000004,
          "velocity": 0.8661417322834646,
          "duration": 0.19312767187500413
        },
        {
          "name": "F5",
          "midi": 77,
          "time": 147.03916000000004,
          "velocity": 0.8661417322834646,
          "duration": 0.19312767187500413
        },
        {
          "name": "A#2",
          "midi": 46,
          "time": 147.03916000000004,
          "velocity": 0.8661417322834646,
          "duration": 0.19312767187500413
        },
        {
          "name": "G4",
          "midi": 67,
          "time": 147.23652800000005,
          "velocity": 0.8661417322834646,
          "duration": 0.19312767187500413
        },
        {
          "name": "E5",
          "midi": 76,
          "time": 147.23652800000005,
          "velocity": 0.8661417322834646,
          "duration": 0.19312767187500413
        },
        {
          "name": "A#2",
          "midi": 46,
          "time": 147.23652800000005,
          "velocity": 0.8661417322834646,
          "duration": 0.19312767187500413
        },
        {
          "name": "G4",
          "midi": 67,
          "time": 147.43389600000006,
          "velocity": 0.8661417322834646,
          "duration": 0.19312767187500413
        },
        {
          "name": "E5",
          "midi": 76,
          "time": 147.43389600000006,
          "velocity": 0.8661417322834646,
          "duration": 0.19312767187500413
        },
        {
          "name": "A#2",
          "midi": 46,
          "time": 147.43389600000006,
          "velocity": 0.8661417322834646,
          "duration": 0.19312767187500413
        },
        {
          "name": "F4",
          "midi": 65,
          "time": 147.63126400000007,
          "velocity": 0.8661417322834646,
          "duration": 0.32881817187501383
        },
        {
          "name": "D5",
          "midi": 74,
          "time": 147.63126400000007,
          "velocity": 0.8661417322834646,
          "duration": 0.32881817187501383
        },
        {
          "name": "A#2",
          "midi": 46,
          "time": 147.63126400000007,
          "velocity": 0.8661417322834646,
          "duration": 0.19312767187500413
        },
        {
          "name": "A#2",
          "midi": 46,
          "time": 147.82863200000008,
          "velocity": 0.8661417322834646,
          "duration": 0.19312767187500413
        },
        {
          "name": "A4",
          "midi": 69,
          "time": 148.0260000000001,
          "velocity": 0.8661417322834646,
          "duration": 0.39473600000002307
        },
        {
          "name": "F5",
          "midi": 77,
          "time": 148.0260000000001,
          "velocity": 0.8661417322834646,
          "duration": 0.39473600000002307
        },
        {
          "name": "A#2",
          "midi": 46,
          "time": 148.0260000000001,
          "velocity": 0.8661417322834646,
          "duration": 0.19312767187500413
        },
        {
          "name": "A#2",
          "midi": 46,
          "time": 148.2233680000001,
          "velocity": 0.8661417322834646,
          "duration": 0.19312767187500413
        },
        {
          "name": "A4",
          "midi": 69,
          "time": 148.42073600000012,
          "velocity": 0.8661417322834646,
          "duration": 0.32881817187501383
        },
        {
          "name": "F5",
          "midi": 77,
          "time": 148.42073600000012,
          "velocity": 0.8661417322834646,
          "duration": 0.32881817187501383
        },
        {
          "name": "G2",
          "midi": 43,
          "time": 148.42073600000012,
          "velocity": 0.8661417322834646,
          "duration": 0.19312767187500413
        },
        {
          "name": "G2",
          "midi": 43,
          "time": 148.61810400000013,
          "velocity": 0.8661417322834646,
          "duration": 0.19312767187500413
        },
        {
          "name": "G2",
          "midi": 43,
          "time": 148.81547200000014,
          "velocity": 0.8661417322834646,
          "duration": 0.19312767187500413
        },
        {
          "name": "G2",
          "midi": 43,
          "time": 149.01284000000015,
          "velocity": 0.8661417322834646,
          "duration": 0.19312767187500413
        },
        {
          "name": "G2",
          "midi": 43,
          "time": 149.21020800000016,
          "velocity": 0.8661417322834646,
          "duration": 0.19312767187500413
        },
        {
          "name": "G2",
          "midi": 43,
          "time": 149.40757600000018,
          "velocity": 0.8661417322834646,
          "duration": 0.19312767187500413
        },
        {
          "name": "G2",
          "midi": 43,
          "time": 149.6049440000002,
          "velocity": 0.8661417322834646,
          "duration": 0.19312767187500413
        },
        {
          "name": "A4",
          "midi": 69,
          "time": 149.8023120000002,
          "velocity": 0.8661417322834646,
          "duration": 0.19736800000001153
        },
        {
          "name": "F5",
          "midi": 77,
          "time": 149.8023120000002,
          "velocity": 0.8661417322834646,
          "duration": 0.19736800000001153
        },
        {
          "name": "G2",
          "midi": 43,
          "time": 149.8023120000002,
          "velocity": 0.8661417322834646,
          "duration": 0.19312767187500413
        },
        {
          "name": "A4",
          "midi": 69,
          "time": 149.9996800000002,
          "velocity": 0.8661417322834646,
          "duration": 0.19312767187500413
        },
        {
          "name": "F5",
          "midi": 77,
          "time": 149.9996800000002,
          "velocity": 0.8661417322834646,
          "duration": 0.19312767187500413
        },
        {
          "name": "G2",
          "midi": 43,
          "time": 149.9996800000002,
          "velocity": 0.8661417322834646,
          "duration": 0.19312767187500413
        },
        {
          "name": "A4",
          "midi": 69,
          "time": 150.19704800000022,
          "velocity": 0.8661417322834646,
          "duration": 0.19312767187500413
        },
        {
          "name": "F5",
          "midi": 77,
          "time": 150.19704800000022,
          "velocity": 0.8661417322834646,
          "duration": 0.19312767187500413
        },
        {
          "name": "G2",
          "midi": 43,
          "time": 150.19704800000022,
          "velocity": 0.8661417322834646,
          "duration": 0.19312767187500413
        },
        {
          "name": "G4",
          "midi": 67,
          "time": 150.39441600000023,
          "velocity": 0.8661417322834646,
          "duration": 0.19312767187500413
        },
        {
          "name": "E5",
          "midi": 76,
          "time": 150.39441600000023,
          "velocity": 0.8661417322834646,
          "duration": 0.19312767187500413
        },
        {
          "name": "G2",
          "midi": 43,
          "time": 150.39441600000023,
          "velocity": 0.8661417322834646,
          "duration": 0.19312767187500413
        },
        {
          "name": "G4",
          "midi": 67,
          "time": 150.59178400000025,
          "velocity": 0.8661417322834646,
          "duration": 0.19312767187500413
        },
        {
          "name": "E5",
          "midi": 76,
          "time": 150.59178400000025,
          "velocity": 0.8661417322834646,
          "duration": 0.19312767187500413
        },
        {
          "name": "G2",
          "midi": 43,
          "time": 150.59178400000025,
          "velocity": 0.8661417322834646,
          "duration": 0.19312767187500413
        },
        {
          "name": "F4",
          "midi": 65,
          "time": 150.78915200000026,
          "velocity": 0.8661417322834646,
          "duration": 0.32881817187501383
        },
        {
          "name": "D5",
          "midi": 74,
          "time": 150.78915200000026,
          "velocity": 0.8661417322834646,
          "duration": 0.32881817187501383
        },
        {
          "name": "G2",
          "midi": 43,
          "time": 150.78915200000026,
          "velocity": 0.8661417322834646,
          "duration": 0.19312767187500413
        },
        {
          "name": "G2",
          "midi": 43,
          "time": 150.98652000000027,
          "velocity": 0.8661417322834646,
          "duration": 0.19312767187500413
        },
        {
          "name": "A#4",
          "midi": 70,
          "time": 151.18388800000028,
          "velocity": 0.8661417322834646,
          "duration": 0.39473600000002307
        },
        {
          "name": "G5",
          "midi": 79,
          "time": 151.18388800000028,
          "velocity": 0.8661417322834646,
          "duration": 0.39473600000002307
        },
        {
          "name": "G2",
          "midi": 43,
          "time": 151.18388800000028,
          "velocity": 0.8661417322834646,
          "duration": 0.19312767187500413
        },
        {
          "name": "G2",
          "midi": 43,
          "time": 151.3812560000003,
          "velocity": 0.8661417322834646,
          "duration": 0.19312767187500413
        },
        {
          "name": "A#4",
          "midi": 70,
          "time": 151.5786240000003,
          "velocity": 0.8661417322834646,
          "duration": 0.19312767187500413
        },
        {
          "name": "G5",
          "midi": 79,
          "time": 151.5786240000003,
          "velocity": 0.8661417322834646,
          "duration": 0.19312767187500413
        },
        {
          "name": "F2",
          "midi": 41,
          "time": 151.5786240000003,
          "velocity": 0.8661417322834646,
          "duration": 0.19312767187500413
        },
        {
          "name": "A#4",
          "midi": 70,
          "time": 151.77599200000031,
          "velocity": 0.8661417322834646,
          "duration": 0.19312767187500413
        },
        {
          "name": "G5",
          "midi": 79,
          "time": 151.77599200000031,
          "velocity": 0.8661417322834646,
          "duration": 0.19312767187500413
        },
        {
          "name": "F2",
          "midi": 41,
          "time": 151.77599200000031,
          "velocity": 0.8661417322834646,
          "duration": 0.19312767187500413
        },
        {
          "name": "A4",
          "midi": 69,
          "time": 151.97336000000033,
          "velocity": 0.8661417322834646,
          "duration": 0.6907880000000262
        },
        {
          "name": "F5",
          "midi": 77,
          "time": 151.97336000000033,
          "velocity": 0.8661417322834646,
          "duration": 0.6907880000000262
        },
        {
          "name": "F2",
          "midi": 41,
          "time": 151.97336000000033,
          "velocity": 0.8661417322834646,
          "duration": 0.19312767187500413
        },
        {
          "name": "F2",
          "midi": 41,
          "time": 152.17072800000034,
          "velocity": 0.8661417322834646,
          "duration": 0.19312767187500413
        },
        {
          "name": "F2",
          "midi": 41,
          "time": 152.36809600000035,
          "velocity": 0.8661417322834646,
          "duration": 0.19312767187500413
        },
        {
          "name": "F2",
          "midi": 41,
          "time": 152.56546400000036,
          "velocity": 0.8661417322834646,
          "duration": 0.19312767187500413
        },
        {
          "name": "F2",
          "midi": 41,
          "time": 152.76283200000037,
          "velocity": 0.8661417322834646,
          "duration": 0.19312767187500413
        },
        {
          "name": "F5",
          "midi": 77,
          "time": 152.96020000000038,
          "velocity": 0.8661417322834646,
          "duration": 0.19736800000001153
        },
        {
          "name": "F2",
          "midi": 41,
          "time": 152.96020000000038,
          "velocity": 0.8661417322834646,
          "duration": 0.19312767187500413
        },
        {
          "name": "F5",
          "midi": 77,
          "time": 153.1575680000004,
          "velocity": 0.8661417322834646,
          "duration": 0.19312767187500413
        },
        {
          "name": "F2",
          "midi": 41,
          "time": 153.1575680000004,
          "velocity": 0.8661417322834646,
          "duration": 0.19312767187500413
        },
        {
          "name": "E5",
          "midi": 76,
          "time": 153.3549360000004,
          "velocity": 0.8661417322834646,
          "duration": 0.19312767187500413
        },
        {
          "name": "F2",
          "midi": 41,
          "time": 153.3549360000004,
          "velocity": 0.8661417322834646,
          "duration": 0.19312767187500413
        },
        {
          "name": "E5",
          "midi": 76,
          "time": 153.55230400000042,
          "velocity": 0.8661417322834646,
          "duration": 0.19312767187500413
        },
        {
          "name": "F2",
          "midi": 41,
          "time": 153.55230400000042,
          "velocity": 0.8661417322834646,
          "duration": 0.19312767187500413
        },
        {
          "name": "D5",
          "midi": 74,
          "time": 153.74967200000043,
          "velocity": 0.8661417322834646,
          "duration": 0.19312767187500413
        },
        {
          "name": "F2",
          "midi": 41,
          "time": 153.74967200000043,
          "velocity": 0.8661417322834646,
          "duration": 0.19312767187500413
        },
        {
          "name": "D5",
          "midi": 74,
          "time": 153.94704000000044,
          "velocity": 0.8661417322834646,
          "duration": 0.19312767187500413
        },
        {
          "name": "F2",
          "midi": 41,
          "time": 153.94704000000044,
          "velocity": 0.8661417322834646,
          "duration": 0.19312767187500413
        },
        {
          "name": "D5",
          "midi": 74,
          "time": 154.14440800000045,
          "velocity": 0.8661417322834646,
          "duration": 0.19312767187500413
        },
        {
          "name": "F2",
          "midi": 41,
          "time": 154.14440800000045,
          "velocity": 0.8661417322834646,
          "duration": 0.19312767187500413
        },
        {
          "name": "C5",
          "midi": 72,
          "time": 154.34177600000046,
          "velocity": 0.8661417322834646,
          "duration": 0.19312767187500413
        },
        {
          "name": "F2",
          "midi": 41,
          "time": 154.34177600000046,
          "velocity": 0.8661417322834646,
          "duration": 0.19312767187500413
        },
        {
          "name": "A4",
          "midi": 69,
          "time": 154.53914400000048,
          "velocity": 0.8661417322834646,
          "duration": 0.19736800000001153
        },
        {
          "name": "F2",
          "midi": 41,
          "time": 154.53914400000048,
          "velocity": 0.8661417322834646,
          "duration": 0.19312767187500413
        },
        {
          "name": "A4",
          "midi": 69,
          "time": 154.7365120000005,
          "velocity": 0.8661417322834646,
          "duration": 0.19312767187500413
        },
        {
          "name": "D3",
          "midi": 50,
          "time": 154.7365120000005,
          "velocity": 0.8661417322834646,
          "duration": 0.19312767187500413
        },
        {
          "name": "A#4",
          "midi": 70,
          "time": 154.9338800000005,
          "velocity": 0.8661417322834646,
          "duration": 0.19312767187500413
        },
        {
          "name": "D3",
          "midi": 50,
          "time": 154.9338800000005,
          "velocity": 0.8661417322834646,
          "duration": 0.19312767187500413
        },
        {
          "name": "A4",
          "midi": 69,
          "time": 155.1312480000005,
          "velocity": 0.8661417322834646,
          "duration": 0.19312767187500413
        },
        {
          "name": "D3",
          "midi": 50,
          "time": 155.1312480000005,
          "velocity": 0.8661417322834646,
          "duration": 0.19312767187500413
        },
        {
          "name": "A4",
          "midi": 69,
          "time": 155.32861600000052,
          "velocity": 0.8661417322834646,
          "duration": 0.19312767187500413
        },
        {
          "name": "D3",
          "midi": 50,
          "time": 155.32861600000052,
          "velocity": 0.8661417322834646,
          "duration": 0.19312767187500413
        },
        {
          "name": "G4",
          "midi": 67,
          "time": 155.52598400000053,
          "velocity": 0.8661417322834646,
          "duration": 0.19312767187500413
        },
        {
          "name": "D3",
          "midi": 50,
          "time": 155.52598400000053,
          "velocity": 0.8661417322834646,
          "duration": 0.19312767187500413
        },
        {
          "name": "F4",
          "midi": 65,
          "time": 155.72335200000055,
          "velocity": 0.8661417322834646,
          "duration": 0.19312767187500413
        },
        {
          "name": "D3",
          "midi": 50,
          "time": 155.72335200000055,
          "velocity": 0.8661417322834646,
          "duration": 0.19312767187500413
        },
        {
          "name": "F4",
          "midi": 65,
          "time": 155.92072000000056,
          "velocity": 0.8661417322834646,
          "duration": 0.19312767187500413
        },
        {
          "name": "D3",
          "midi": 50,
          "time": 155.92072000000056,
          "velocity": 0.8661417322834646,
          "duration": 0.19312767187500413
        },
        {
          "name": "A4",
          "midi": 69,
          "time": 156.11808800000057,
          "velocity": 0.8661417322834646,
          "duration": 0.19736800000001153
        },
        {
          "name": "D3",
          "midi": 50,
          "time": 156.11808800000057,
          "velocity": 0.8661417322834646,
          "duration": 0.19312767187500413
        },
        {
          "name": "A4",
          "midi": 69,
          "time": 156.31545600000058,
          "velocity": 0.8661417322834646,
          "duration": 0.19312767187500413
        },
        {
          "name": "D3",
          "midi": 50,
          "time": 156.31545600000058,
          "velocity": 0.8661417322834646,
          "duration": 0.19312767187500413
        },
        {
          "name": "A#4",
          "midi": 70,
          "time": 156.5128240000006,
          "velocity": 0.8661417322834646,
          "duration": 0.19312767187500413
        },
        {
          "name": "D3",
          "midi": 50,
          "time": 156.5128240000006,
          "velocity": 0.8661417322834646,
          "duration": 0.19312767187500413
        },
        {
          "name": "A4",
          "midi": 69,
          "time": 156.7101920000006,
          "velocity": 0.8661417322834646,
          "duration": 0.19312767187500413
        },
        {
          "name": "D3",
          "midi": 50,
          "time": 156.7101920000006,
          "velocity": 0.8661417322834646,
          "duration": 0.19312767187500413
        },
        {
          "name": "F4",
          "midi": 65,
          "time": 156.90756000000061,
          "velocity": 0.8661417322834646,
          "duration": 0.19736800000001153
        },
        {
          "name": "C3",
          "midi": 48,
          "time": 156.90756000000061,
          "velocity": 0.8661417322834646,
          "duration": 0.19736800000001153
        },
        {
          "name": "F4",
          "midi": 65,
          "time": 157.10492800000063,
          "velocity": 0.8661417322834646,
          "duration": 0.6907879999999977
        },
        {
          "name": "C3",
          "midi": 48,
          "time": 157.10492800000063,
          "velocity": 0.8661417322834646,
          "duration": 0.6907879999999977
        },
        {
          "name": "C3",
          "midi": 48,
          "time": 157.89440000000062,
          "velocity": 0.8661417322834646,
          "duration": 0.32881817187501383
        },
        {
          "name": "C3",
          "midi": 48,
          "time": 158.28913600000064,
          "velocity": 0.8661417322834646,
          "duration": 0.32881817187501383
        },
        {
          "name": "C3",
          "midi": 48,
          "time": 158.68387200000066,
          "velocity": 0.8661417322834646,
          "duration": 0.32881817187501383
        },
        {
          "name": "C3",
          "midi": 48,
          "time": 159.07860800000068,
          "velocity": 0.8661417322834646,
          "duration": 0.32881817187501383
        },
        {
          "name": "C3",
          "midi": 48,
          "time": 159.4733440000007,
          "velocity": 0.8661417322834646,
          "duration": 0.19312767187500413
        },
        {
          "name": "C3",
          "midi": 48,
          "time": 159.67071200000072,
          "velocity": 0.8661417322834646,
          "duration": 0.19312767187500413
        },
        {
          "name": "C3",
          "midi": 48,
          "time": 159.86808000000073,
          "velocity": 0.8661417322834646,
          "duration": 0.32881817187501383
        },
        {
          "name": "D5",
          "midi": 74,
          "time": 160.06544800000074,
          "velocity": 0.8661417322834646,
          "duration": 0.19312767187500413
        },
        {
          "name": "D5",
          "midi": 74,
          "time": 160.26281600000075,
          "velocity": 0.8661417322834646,
          "duration": 0.19312767187500413
        },
        {
          "name": "A#2",
          "midi": 46,
          "time": 160.26281600000075,
          "velocity": 0.8661417322834646,
          "duration": 0.19312767187500413
        },
        {
          "name": "E5",
          "midi": 76,
          "time": 160.46018400000077,
          "velocity": 0.8661417322834646,
          "duration": 0.19312767187500413
        },
        {
          "name": "A#2",
          "midi": 46,
          "time": 160.46018400000077,
          "velocity": 0.8661417322834646,
          "duration": 0.19312767187500413
        },
        {
          "name": "F5",
          "midi": 77,
          "time": 160.65755200000078,
          "velocity": 0.8661417322834646,
          "duration": 0.19312767187500413
        },
        {
          "name": "A#2",
          "midi": 46,
          "time": 160.65755200000078,
          "velocity": 0.8661417322834646,
          "duration": 0.19312767187500413
        },
        {
          "name": "E5",
          "midi": 76,
          "time": 160.8549200000008,
          "velocity": 0.8661417322834646,
          "duration": 0.19736800000001153
        },
        {
          "name": "G5",
          "midi": 79,
          "time": 160.8549200000008,
          "velocity": 0.8661417322834646,
          "duration": 0.19736800000001153
        },
        {
          "name": "C3",
          "midi": 48,
          "time": 160.8549200000008,
          "velocity": 0.8661417322834646,
          "duration": 0.19736800000001153
        },
        {
          "name": "E5",
          "midi": 76,
          "time": 161.0522880000008,
          "velocity": 0.8661417322834646,
          "duration": 0.19312767187500413
        },
        {
          "name": "G5",
          "midi": 79,
          "time": 161.0522880000008,
          "velocity": 0.8661417322834646,
          "duration": 0.19312767187500413
        },
        {
          "name": "C3",
          "midi": 48,
          "time": 161.0522880000008,
          "velocity": 0.8661417322834646,
          "duration": 0.19312767187500413
        },
        {
          "name": "F5",
          "midi": 77,
          "time": 161.2496560000008,
          "velocity": 0.8661417322834646,
          "duration": 0.19312767187500413
        },
        {
          "name": "C3",
          "midi": 48,
          "time": 161.2496560000008,
          "velocity": 0.8661417322834646,
          "duration": 0.19312767187500413
        },
        {
          "name": "E5",
          "midi": 76,
          "time": 161.44702400000082,
          "velocity": 0.8661417322834646,
          "duration": 0.19312767187500413
        },
        {
          "name": "C3",
          "midi": 48,
          "time": 161.44702400000082,
          "velocity": 0.8661417322834646,
          "duration": 0.19312767187500413
        },
        {
          "name": "C5",
          "midi": 72,
          "time": 161.64439200000083,
          "velocity": 0.8661417322834646,
          "duration": 0.19736800000001153
        },
        {
          "name": "A2",
          "midi": 45,
          "time": 161.64439200000083,
          "velocity": 0.8661417322834646,
          "duration": 0.19736800000001153
        },
        {
          "name": "C5",
          "midi": 72,
          "time": 161.84176000000085,
          "velocity": 0.8661417322834646,
          "duration": 0.19312767187500413
        },
        {
          "name": "A2",
          "midi": 45,
          "time": 161.84176000000085,
          "velocity": 0.8661417322834646,
          "duration": 0.19312767187500413
        },
        {
          "name": "G5",
          "midi": 79,
          "time": 162.03912800000086,
          "velocity": 0.8661417322834646,
          "duration": 0.19312767187500413
        },
        {
          "name": "A2",
          "midi": 45,
          "time": 162.03912800000086,
          "velocity": 0.8661417322834646,
          "duration": 0.19312767187500413
        },
        {
          "name": "E5",
          "midi": 76,
          "time": 162.23649600000087,
          "velocity": 0.8661417322834646,
          "duration": 0.19312767187500413
        },
        {
          "name": "A2",
          "midi": 45,
          "time": 162.23649600000087,
          "velocity": 0.8661417322834646,
          "duration": 0.19312767187500413
        },
        {
          "name": "D5",
          "midi": 74,
          "time": 162.43386400000088,
          "velocity": 0.8661417322834646,
          "duration": 0.19736800000001153
        },
        {
          "name": "F5",
          "midi": 77,
          "time": 162.43386400000088,
          "velocity": 0.8661417322834646,
          "duration": 0.19736800000001153
        },
        {
          "name": "A#2",
          "midi": 46,
          "time": 162.43386400000088,
          "velocity": 0.8661417322834646,
          "duration": 0.39049567187501566
        },
        {
          "name": "D5",
          "midi": 74,
          "time": 162.6312320000009,
          "velocity": 0.8661417322834646,
          "duration": 0.32881817187501383
        },
        {
          "name": "F5",
          "midi": 77,
          "time": 162.6312320000009,
          "velocity": 0.8661417322834646,
          "duration": 0.32881817187501383
        },
        {
          "name": "A#2",
          "midi": 46,
          "time": 162.8286000000009,
          "velocity": 0.8661417322834646,
          "duration": 0.19312767187500413
        },
        {
          "name": "A#2",
          "midi": 46,
          "time": 163.02596800000092,
          "velocity": 0.8661417322834646,
          "duration": 0.19312767187500413
        },
        {
          "name": "D5",
          "midi": 74,
          "time": 163.22333600000093,
          "velocity": 0.8661417322834646,
          "duration": 0.19312767187500413
        },
        {
          "name": "A#2",
          "midi": 46,
          "time": 163.22333600000093,
          "velocity": 0.8661417322834646,
          "duration": 0.19312767187500413
        },
        {
          "name": "D5",
          "midi": 74,
          "time": 163.42070400000094,
          "velocity": 0.8661417322834646,
          "duration": 0.19312767187500413
        },
        {
          "name": "A#2",
          "midi": 46,
          "time": 163.42070400000094,
          "velocity": 0.8661417322834646,
          "duration": 0.19312767187500413
        },
        {
          "name": "E5",
          "midi": 76,
          "time": 163.61807200000095,
          "velocity": 0.8661417322834646,
          "duration": 0.19312767187500413
        },
        {
          "name": "A#2",
          "midi": 46,
          "time": 163.61807200000095,
          "velocity": 0.8661417322834646,
          "duration": 0.19312767187500413
        },
        {
          "name": "F5",
          "midi": 77,
          "time": 163.81544000000096,
          "velocity": 0.8661417322834646,
          "duration": 0.19312767187500413
        },
        {
          "name": "A#2",
          "midi": 46,
          "time": 163.81544000000096,
          "velocity": 0.8661417322834646,
          "duration": 0.19312767187500413
        },
        {
          "name": "E5",
          "midi": 76,
          "time": 164.01280800000097,
          "velocity": 0.8661417322834646,
          "duration": 0.19736800000001153
        },
        {
          "name": "G5",
          "midi": 79,
          "time": 164.01280800000097,
          "velocity": 0.8661417322834646,
          "duration": 0.19736800000001153
        },
        {
          "name": "C3",
          "midi": 48,
          "time": 164.01280800000097,
          "velocity": 0.8661417322834646,
          "duration": 0.19736800000001153
        },
        {
          "name": "E5",
          "midi": 76,
          "time": 164.21017600000098,
          "velocity": 0.8661417322834646,
          "duration": 0.19312767187500413
        },
        {
          "name": "G5",
          "midi": 79,
          "time": 164.21017600000098,
          "velocity": 0.8661417322834646,
          "duration": 0.19312767187500413
        },
        {
          "name": "C3",
          "midi": 48,
          "time": 164.21017600000098,
          "velocity": 0.8661417322834646,
          "duration": 0.19312767187500413
        },
        {
          "name": "F5",
          "midi": 77,
          "time": 164.407544000001,
          "velocity": 0.8661417322834646,
          "duration": 0.19312767187500413
        },
        {
          "name": "C3",
          "midi": 48,
          "time": 164.407544000001,
          "velocity": 0.8661417322834646,
          "duration": 0.19312767187500413
        },
        {
          "name": "G5",
          "midi": 79,
          "time": 164.604912000001,
          "velocity": 0.8661417322834646,
          "duration": 0.19312767187500413
        },
        {
          "name": "C3",
          "midi": 48,
          "time": 164.604912000001,
          "velocity": 0.8661417322834646,
          "duration": 0.19312767187500413
        },
        {
          "name": "A5",
          "midi": 81,
          "time": 164.80228000000102,
          "velocity": 0.8661417322834646,
          "duration": 0.19736800000001153
        },
        {
          "name": "A2",
          "midi": 45,
          "time": 164.80228000000102,
          "velocity": 0.8661417322834646,
          "duration": 0.19736800000001153
        },
        {
          "name": "A5",
          "midi": 81,
          "time": 164.99964800000103,
          "velocity": 0.8661417322834646,
          "duration": 0.19312767187500413
        },
        {
          "name": "A2",
          "midi": 45,
          "time": 164.99964800000103,
          "velocity": 0.8661417322834646,
          "duration": 0.19312767187500413
        },
        {
          "name": "A#5",
          "midi": 82,
          "time": 165.19701600000104,
          "velocity": 0.8661417322834646,
          "duration": 0.19312767187500413
        },
        {
          "name": "A2",
          "midi": 45,
          "time": 165.19701600000104,
          "velocity": 0.8661417322834646,
          "duration": 0.19312767187500413
        },
        {
          "name": "A5",
          "midi": 81,
          "time": 165.39438400000105,
          "velocity": 0.8661417322834646,
          "duration": 0.19312767187500413
        },
        {
          "name": "C6",
          "midi": 84,
          "time": 165.39438400000105,
          "velocity": 0.8661417322834646,
          "duration": 0.19312767187500413
        },
        {
          "name": "A2",
          "midi": 45,
          "time": 165.39438400000105,
          "velocity": 0.8661417322834646,
          "duration": 0.19312767187500413
        },
        {
          "name": "F5",
          "midi": 77,
          "time": 165.59175200000107,
          "velocity": 0.8661417322834646,
          "duration": 0.19736800000001153
        },
        {
          "name": "D3",
          "midi": 50,
          "time": 165.59175200000107,
          "velocity": 0.8661417322834646,
          "duration": 0.19736800000001153
        },
        {
          "name": "F5",
          "midi": 77,
          "time": 165.78912000000108,
          "velocity": 0.8661417322834646,
          "duration": 0.32881817187501383
        },
        {
          "name": "D3",
          "midi": 50,
          "time": 165.78912000000108,
          "velocity": 0.8661417322834646,
          "duration": 0.19312767187500413
        },
        {
          "name": "D3",
          "midi": 50,
          "time": 165.9864880000011,
          "velocity": 0.8661417322834646,
          "duration": 0.19312767187500413
        },
        {
          "name": "D3",
          "midi": 50,
          "time": 166.1838560000011,
          "velocity": 0.8661417322834646,
          "duration": 0.19312767187500413
        },
        {
          "name": "D5",
          "midi": 74,
          "time": 166.3812240000011,
          "velocity": 0.8661417322834646,
          "duration": 0.19312767187500413
        },
        {
          "name": "D3",
          "midi": 50,
          "time": 166.3812240000011,
          "velocity": 0.8661417322834646,
          "duration": 0.19312767187500413
        },
        {
          "name": "D5",
          "midi": 74,
          "time": 166.57859200000112,
          "velocity": 0.8661417322834646,
          "duration": 0.19312767187500413
        },
        {
          "name": "A#2",
          "midi": 46,
          "time": 166.57859200000112,
          "velocity": 0.8661417322834646,
          "duration": 0.19312767187500413
        },
        {
          "name": "E5",
          "midi": 76,
          "time": 166.77596000000113,
          "velocity": 0.8661417322834646,
          "duration": 0.19312767187500413
        },
        {
          "name": "A#2",
          "midi": 46,
          "time": 166.77596000000113,
          "velocity": 0.8661417322834646,
          "duration": 0.19312767187500413
        },
        {
          "name": "F5",
          "midi": 77,
          "time": 166.97332800000115,
          "velocity": 0.8661417322834646,
          "duration": 0.19312767187500413
        },
        {
          "name": "A#2",
          "midi": 46,
          "time": 166.97332800000115,
          "velocity": 0.8661417322834646,
          "duration": 0.19312767187500413
        },
        {
          "name": "E5",
          "midi": 76,
          "time": 167.17069600000116,
          "velocity": 0.8661417322834646,
          "duration": 0.19736800000001153
        },
        {
          "name": "G5",
          "midi": 79,
          "time": 167.17069600000116,
          "velocity": 0.8661417322834646,
          "duration": 0.19736800000001153
        },
        {
          "name": "C3",
          "midi": 48,
          "time": 167.17069600000116,
          "velocity": 0.8661417322834646,
          "duration": 0.19736800000001153
        },
        {
          "name": "E5",
          "midi": 76,
          "time": 167.36806400000117,
          "velocity": 0.8661417322834646,
          "duration": 0.19312767187500413
        },
        {
          "name": "G5",
          "midi": 79,
          "time": 167.36806400000117,
          "velocity": 0.8661417322834646,
          "duration": 0.19312767187500413
        },
        {
          "name": "C3",
          "midi": 48,
          "time": 167.36806400000117,
          "velocity": 0.8661417322834646,
          "duration": 0.19312767187500413
        },
        {
          "name": "F5",
          "midi": 77,
          "time": 167.56543200000118,
          "velocity": 0.8661417322834646,
          "duration": 0.19312767187500413
        },
        {
          "name": "C3",
          "midi": 48,
          "time": 167.56543200000118,
          "velocity": 0.8661417322834646,
          "duration": 0.19312767187500413
        },
        {
          "name": "E5",
          "midi": 76,
          "time": 167.7628000000012,
          "velocity": 0.8661417322834646,
          "duration": 0.19312767187500413
        },
        {
          "name": "C3",
          "midi": 48,
          "time": 167.7628000000012,
          "velocity": 0.8661417322834646,
          "duration": 0.19312767187500413
        },
        {
          "name": "E5",
          "midi": 76,
          "time": 167.9601680000012,
          "velocity": 0.8661417322834646,
          "duration": 0.19736800000001153
        },
        {
          "name": "A2",
          "midi": 45,
          "time": 167.9601680000012,
          "velocity": 0.8661417322834646,
          "duration": 0.19736800000001153
        },
        {
          "name": "E5",
          "midi": 76,
          "time": 168.15753600000122,
          "velocity": 0.8661417322834646,
          "duration": 0.19312767187500413
        },
        {
          "name": "A2",
          "midi": 45,
          "time": 168.15753600000122,
          "velocity": 0.8661417322834646,
          "duration": 0.19312767187500413
        },
        {
          "name": "F5",
          "midi": 77,
          "time": 168.35490400000123,
          "velocity": 0.8661417322834646,
          "duration": 0.19312767187500413
        },
        {
          "name": "A2",
          "midi": 45,
          "time": 168.35490400000123,
          "velocity": 0.8661417322834646,
          "duration": 0.19312767187500413
        },
        {
          "name": "G5",
          "midi": 79,
          "time": 168.55227200000124,
          "velocity": 0.8661417322834646,
          "duration": 0.19312767187500413
        },
        {
          "name": "A2",
          "midi": 45,
          "time": 168.55227200000124,
          "velocity": 0.8661417322834646,
          "duration": 0.19312767187500413
        },
        {
          "name": "G5",
          "midi": 79,
          "time": 168.74964000000125,
          "velocity": 0.8661417322834646,
          "duration": 0.19312767187500413
        },
        {
          "name": "A#2",
          "midi": 46,
          "time": 168.74964000000125,
          "velocity": 0.8661417322834646,
          "duration": 0.19736800000001153
        },
        {
          "name": "D5",
          "midi": 74,
          "time": 168.94700800000126,
          "velocity": 0.8661417322834646,
          "duration": 0.32881817187501383
        },
        {
          "name": "F5",
          "midi": 77,
          "time": 168.94700800000126,
          "velocity": 0.8661417322834646,
          "duration": 0.32881817187501383
        },
        {
          "name": "A#2",
          "midi": 46,
          "time": 168.94700800000126,
          "velocity": 0.8661417322834646,
          "duration": 0.19312767187500413
        },
        {
          "name": "A#2",
          "midi": 46,
          "time": 169.14437600000127,
          "velocity": 0.8661417322834646,
          "duration": 0.19312767187500413
        },
        {
          "name": "A#2",
          "midi": 46,
          "time": 169.34174400000128,
          "velocity": 0.8661417322834646,
          "duration": 0.19312767187500413
        },
        {
          "name": "D5",
          "midi": 74,
          "time": 169.5391120000013,
          "velocity": 0.8661417322834646,
          "duration": 0.19312767187500413
        },
        {
          "name": "A#2",
          "midi": 46,
          "time": 169.5391120000013,
          "velocity": 0.8661417322834646,
          "duration": 0.19312767187500413
        },
        {
          "name": "D5",
          "midi": 74,
          "time": 169.7364800000013,
          "velocity": 0.8661417322834646,
          "duration": 0.19312767187500413
        },
        {
          "name": "A#2",
          "midi": 46,
          "time": 169.7364800000013,
          "velocity": 0.8661417322834646,
          "duration": 0.19312767187500413
        },
        {
          "name": "E5",
          "midi": 76,
          "time": 169.93384800000132,
          "velocity": 0.8661417322834646,
          "duration": 0.19312767187500413
        },
        {
          "name": "A#2",
          "midi": 46,
          "time": 169.93384800000132,
          "velocity": 0.8661417322834646,
          "duration": 0.19312767187500413
        },
        {
          "name": "F5",
          "midi": 77,
          "time": 170.13121600000133,
          "velocity": 0.8661417322834646,
          "duration": 0.19312767187500413
        },
        {
          "name": "A#2",
          "midi": 46,
          "time": 170.13121600000133,
          "velocity": 0.8661417322834646,
          "duration": 0.19312767187500413
        },
        {
          "name": "E5",
          "midi": 76,
          "time": 170.32858400000134,
          "velocity": 0.8661417322834646,
          "duration": 0.19736800000001153
        },
        {
          "name": "G5",
          "midi": 79,
          "time": 170.32858400000134,
          "velocity": 0.8661417322834646,
          "duration": 0.19736800000001153
        },
        {
          "name": "C3",
          "midi": 48,
          "time": 170.32858400000134,
          "velocity": 0.8661417322834646,
          "duration": 0.19736800000001153
        },
        {
          "name": "E5",
          "midi": 76,
          "time": 170.52595200000135,
          "velocity": 0.8661417322834646,
          "duration": 0.19312767187500413
        },
        {
          "name": "G5",
          "midi": 79,
          "time": 170.52595200000135,
          "velocity": 0.8661417322834646,
          "duration": 0.19312767187500413
        },
        {
          "name": "C3",
          "midi": 48,
          "time": 170.52595200000135,
          "velocity": 0.8661417322834646,
          "duration": 0.19312767187500413
        },
        {
          "name": "F5",
          "midi": 77,
          "time": 170.72332000000137,
          "velocity": 0.8661417322834646,
          "duration": 0.19312767187500413
        },
        {
          "name": "C3",
          "midi": 48,
          "time": 170.72332000000137,
          "velocity": 0.8661417322834646,
          "duration": 0.19312767187500413
        },
        {
          "name": "G5",
          "midi": 79,
          "time": 170.92068800000138,
          "velocity": 0.8661417322834646,
          "duration": 0.19312767187500413
        },
        {
          "name": "C3",
          "midi": 48,
          "time": 170.92068800000138,
          "velocity": 0.8661417322834646,
          "duration": 0.19312767187500413
        },
        {
          "name": "A5",
          "midi": 81,
          "time": 171.1180560000014,
          "velocity": 0.8661417322834646,
          "duration": 0.19736800000001153
        },
        {
          "name": "A2",
          "midi": 45,
          "time": 171.1180560000014,
          "velocity": 0.8661417322834646,
          "duration": 0.19312767187500413
        },
        {
          "name": "A5",
          "midi": 81,
          "time": 171.3154240000014,
          "velocity": 0.8661417322834646,
          "duration": 0.19312767187500413
        },
        {
          "name": "A2",
          "midi": 45,
          "time": 171.3154240000014,
          "velocity": 0.8661417322834646,
          "duration": 0.19312767187500413
        },
        {
          "name": "A#5",
          "midi": 82,
          "time": 171.5127920000014,
          "velocity": 0.8661417322834646,
          "duration": 0.19312767187500413
        },
        {
          "name": "A2",
          "midi": 45,
          "time": 171.5127920000014,
          "velocity": 0.8661417322834646,
          "duration": 0.19312767187500413
        },
        {
          "name": "A5",
          "midi": 81,
          "time": 171.71016000000142,
          "velocity": 0.8661417322834646,
          "duration": 0.19312767187500413
        },
        {
          "name": "A2",
          "midi": 45,
          "time": 171.71016000000142,
          "velocity": 0.8661417322834646,
          "duration": 0.19312767187500413
        },
        {
          "name": "F5",
          "midi": 77,
          "time": 171.90752800000143,
          "velocity": 0.8661417322834646,
          "duration": 0.19312767187500413
        },
        {
          "name": "D3",
          "midi": 50,
          "time": 171.90752800000143,
          "velocity": 0.8661417322834646,
          "duration": 0.19736800000001153
        },
        {
          "name": "D3",
          "midi": 50,
          "time": 172.10489600000145,
          "velocity": 0.8661417322834646,
          "duration": 0.19312767187500413
        },
        {
          "name": "G5",
          "midi": 79,
          "time": 172.30226400000146,
          "velocity": 0.8661417322834646,
          "duration": 0.32881817187501383
        },
        {
          "name": "D3",
          "midi": 50,
          "time": 172.30226400000146,
          "velocity": 0.8661417322834646,
          "duration": 0.19312767187500413
        },
        {
          "name": "D3",
          "midi": 50,
          "time": 172.49963200000147,
          "velocity": 0.8661417322834646,
          "duration": 0.19312767187500413
        },
        {
          "name": "G5",
          "midi": 79,
          "time": 172.69700000000148,
          "velocity": 0.8661417322834646,
          "duration": 0.19312767187500413
        },
        {
          "name": "D3",
          "midi": 50,
          "time": 172.69700000000148,
          "velocity": 0.8661417322834646,
          "duration": 0.19312767187500413
        },
        {
          "name": "D5",
          "midi": 74,
          "time": 172.8943680000015,
          "velocity": 0.8661417322834646,
          "duration": 1.4802600000000723
        },
        {
          "name": "F5",
          "midi": 77,
          "time": 172.8943680000015,
          "velocity": 0.8661417322834646,
          "duration": 1.4802600000000723
        },
        {
          "name": "A#2",
          "midi": 46,
          "time": 172.8943680000015,
          "velocity": 0.8661417322834646,
          "duration": 0.19312767187500413
        },
        {
          "name": "A#2",
          "midi": 46,
          "time": 173.0917360000015,
          "velocity": 0.8661417322834646,
          "duration": 0.19312767187500413
        },
        {
          "name": "A#2",
          "midi": 46,
          "time": 173.28910400000152,
          "velocity": 0.8661417322834646,
          "duration": 0.19312767187500413
        },
        {
          "name": "C3",
          "midi": 48,
          "time": 173.48647200000153,
          "velocity": 0.8661417322834646,
          "duration": 0.19736800000001153
        },
        {
          "name": "C3",
          "midi": 48,
          "time": 173.68384000000154,
          "velocity": 0.8661417322834646,
          "duration": 0.19312767187500413
        },
        {
          "name": "C3",
          "midi": 48,
          "time": 173.88120800000155,
          "velocity": 0.8661417322834646,
          "duration": 0.19312767187500413
        },
        {
          "name": "C3",
          "midi": 48,
          "time": 174.07857600000156,
          "velocity": 0.8661417322834646,
          "duration": 0.19312767187500413
        },
        {
          "name": "A2",
          "midi": 45,
          "time": 174.27594400000157,
          "velocity": 0.8661417322834646,
          "duration": 0.1973679999999831
        },
        {
          "name": "A2",
          "midi": 45,
          "time": 174.47331200000156,
          "velocity": 0.8661417322834646,
          "duration": 0.19312767187500413
        },
        {
          "name": "A2",
          "midi": 45,
          "time": 174.67068000000157,
          "velocity": 0.8661417322834646,
          "duration": 0.19312767187500413
        },
        {
          "name": "A2",
          "midi": 45,
          "time": 174.86804800000158,
          "velocity": 0.8661417322834646,
          "duration": 0.19312767187500413
        },
        {
          "name": "A#2",
          "midi": 46,
          "time": 175.0654160000016,
          "velocity": 0.8661417322834646,
          "duration": 0.19312767187500413
        },
        {
          "name": "A#2",
          "midi": 46,
          "time": 175.2627840000016,
          "velocity": 0.8661417322834646,
          "duration": 0.19312767187500413
        },
        {
          "name": "A#2",
          "midi": 46,
          "time": 175.4601520000016,
          "velocity": 0.8661417322834646,
          "duration": 0.19312767187500413
        },
        {
          "name": "A#2",
          "midi": 46,
          "time": 175.65752000000163,
          "velocity": 0.8661417322834646,
          "duration": 0.19312767187500413
        },
        {
          "name": "A#2",
          "midi": 46,
          "time": 175.85488800000164,
          "velocity": 0.8661417322834646,
          "duration": 0.19736800000001153
        },
        {
          "name": "D5",
          "midi": 74,
          "time": 176.05225600000165,
          "velocity": 0.8661417322834646,
          "duration": 0.19312767187500413
        },
        {
          "name": "A#2",
          "midi": 46,
          "time": 176.05225600000165,
          "velocity": 0.8661417322834646,
          "duration": 0.19312767187500413
        },
        {
          "name": "E5",
          "midi": 76,
          "time": 176.24962400000166,
          "velocity": 0.8661417322834646,
          "duration": 0.19312767187500413
        },
        {
          "name": "A#2",
          "midi": 46,
          "time": 176.24962400000166,
          "velocity": 0.8661417322834646,
          "duration": 0.19312767187500413
        },
        {
          "name": "F5",
          "midi": 77,
          "time": 176.44699200000167,
          "velocity": 0.8661417322834646,
          "duration": 0.19312767187500413
        },
        {
          "name": "A#2",
          "midi": 46,
          "time": 176.44699200000167,
          "velocity": 0.8661417322834646,
          "duration": 0.19312767187500413
        },
        {
          "name": "G5",
          "midi": 79,
          "time": 176.64436000000168,
          "velocity": 0.8661417322834646,
          "duration": 0.19736800000001153
        },
        {
          "name": "C3",
          "midi": 48,
          "time": 176.64436000000168,
          "velocity": 0.8661417322834646,
          "duration": 0.19736800000001153
        },
        {
          "name": "G5",
          "midi": 79,
          "time": 176.8417280000017,
          "velocity": 0.8661417322834646,
          "duration": 0.19312767187500413
        },
        {
          "name": "C3",
          "midi": 48,
          "time": 176.8417280000017,
          "velocity": 0.8661417322834646,
          "duration": 0.19312767187500413
        },
        {
          "name": "F5",
          "midi": 77,
          "time": 177.0390960000017,
          "velocity": 0.8661417322834646,
          "duration": 0.19312767187500413
        },
        {
          "name": "C3",
          "midi": 48,
          "time": 177.0390960000017,
          "velocity": 0.8661417322834646,
          "duration": 0.19312767187500413
        },
        {
          "name": "G5",
          "midi": 79,
          "time": 177.23646400000172,
          "velocity": 0.8661417322834646,
          "duration": 0.19312767187500413
        },
        {
          "name": "C3",
          "midi": 48,
          "time": 177.23646400000172,
          "velocity": 0.8661417322834646,
          "duration": 0.19312767187500413
        },
        {
          "name": "D5",
          "midi": 74,
          "time": 177.43383200000173,
          "velocity": 0.8661417322834646,
          "duration": 0.19736800000001153
        },
        {
          "name": "A5",
          "midi": 81,
          "time": 177.43383200000173,
          "velocity": 0.8661417322834646,
          "duration": 0.19736800000001153
        },
        {
          "name": "D3",
          "midi": 50,
          "time": 177.43383200000173,
          "velocity": 0.8661417322834646,
          "duration": 0.19736800000001153
        },
        {
          "name": "D5",
          "midi": 74,
          "time": 177.63120000000174,
          "velocity": 0.8661417322834646,
          "duration": 1.0855240000000492
        },
        {
          "name": "A5",
          "midi": 81,
          "time": 177.63120000000174,
          "velocity": 0.8661417322834646,
          "duration": 1.0855240000000492
        },
        {
          "name": "D3",
          "midi": 50,
          "time": 177.63120000000174,
          "velocity": 0.8661417322834646,
          "duration": 0.19312767187500413
        },
        {
          "name": "D3",
          "midi": 50,
          "time": 177.82856800000175,
          "velocity": 0.8661417322834646,
          "duration": 0.19312767187500413
        },
        {
          "name": "D3",
          "midi": 50,
          "time": 178.02593600000176,
          "velocity": 0.8661417322834646,
          "duration": 0.19312767187500413
        },
        {
          "name": "D3",
          "midi": 50,
          "time": 178.22330400000178,
          "velocity": 0.8661417322834646,
          "duration": 0.19312767187500413
        },
        {
          "name": "D3",
          "midi": 50,
          "time": 178.4206720000018,
          "velocity": 0.8661417322834646,
          "duration": 0.19312767187500413
        },
        {
          "name": "D3",
          "midi": 50,
          "time": 178.6180400000018,
          "velocity": 0.8661417322834646,
          "duration": 0.19312767187500413
        },
        {
          "name": "D3",
          "midi": 50,
          "time": 178.8154080000018,
          "velocity": 0.8661417322834646,
          "duration": 0.19312767187500413
        },
        {
          "name": "C4",
          "midi": 60,
          "time": 179.01277600000182,
          "velocity": 0.8661417322834646,
          "duration": 0.19312767187500413
        },
        {
          "name": "G4",
          "midi": 67,
          "time": 179.01277600000182,
          "velocity": 0.8661417322834646,
          "duration": 0.19312767187500413
        },
        {
          "name": "D3",
          "midi": 50,
          "time": 179.01277600000182,
          "velocity": 0.8661417322834646,
          "duration": 0.19312767187500413
        },
        {
          "name": "D3",
          "midi": 50,
          "time": 179.21014400000183,
          "velocity": 0.8661417322834646,
          "duration": 0.19312767187500413
        },
        {
          "name": "C4",
          "midi": 60,
          "time": 179.40751200000184,
          "velocity": 0.8661417322834646,
          "duration": 0.19312767187500413
        },
        {
          "name": "F#4",
          "midi": 66,
          "time": 179.40751200000184,
          "velocity": 0.8661417322834646,
          "duration": 0.19312767187500413
        },
        {
          "name": "D3",
          "midi": 50,
          "time": 179.40751200000184,
          "velocity": 0.8661417322834646,
          "duration": 0.19312767187500413
        },
        {
          "name": "D3",
          "midi": 50,
          "time": 179.60488000000186,
          "velocity": 0.8661417322834646,
          "duration": 0.19312767187500413
        },
        {
          "name": "A#3",
          "midi": 58,
          "time": 179.80224800000187,
          "velocity": 0.8661417322834646,
          "duration": 0.19736800000001153
        },
        {
          "name": "D4",
          "midi": 62,
          "time": 179.80224800000187,
          "velocity": 0.8661417322834646,
          "duration": 0.19736800000001153
        },
        {
          "name": "D3",
          "midi": 50,
          "time": 179.80224800000187,
          "velocity": 0.8661417322834646,
          "duration": 0.19312767187500413
        },
        {
          "name": "A#3",
          "midi": 58,
          "time": 179.99961600000188,
          "velocity": 0.8661417322834646,
          "duration": 0.6907880000000262
        },
        {
          "name": "D4",
          "midi": 62,
          "time": 179.99961600000188,
          "velocity": 0.8661417322834646,
          "duration": 0.6907880000000262
        },
        {
          "name": "D3",
          "midi": 50,
          "time": 179.99961600000188,
          "velocity": 0.8661417322834646,
          "duration": 0.19312767187500413
        },
        {
          "name": "D3",
          "midi": 50,
          "time": 180.1969840000019,
          "velocity": 0.8661417322834646,
          "duration": 0.19312767187500413
        },
        {
          "name": "D3",
          "midi": 50,
          "time": 180.3943520000019,
          "velocity": 0.8661417322834646,
          "duration": 0.19312767187500413
        },
        {
          "name": "D3",
          "midi": 50,
          "time": 180.5917200000019,
          "velocity": 0.8661417322834646,
          "duration": 0.19312767187500413
        },
        {
          "name": "D3",
          "midi": 50,
          "time": 180.78908800000193,
          "velocity": 0.8661417322834646,
          "duration": 0.19312767187500413
        },
        {
          "name": "D3",
          "midi": 50,
          "time": 180.98645600000194,
          "velocity": 0.8661417322834646,
          "duration": 0.19312767187500413
        },
        {
          "name": "D3",
          "midi": 50,
          "time": 181.18382400000195,
          "velocity": 0.8661417322834646,
          "duration": 0.19312767187500413
        },
        {
          "name": "A4",
          "midi": 69,
          "time": 181.38119200000196,
          "velocity": 0.8661417322834646,
          "duration": 0.19312767187500413
        },
        {
          "name": "D3",
          "midi": 50,
          "time": 181.38119200000196,
          "velocity": 0.8661417322834646,
          "duration": 0.19312767187500413
        },
        {
          "name": "D5",
          "midi": 74,
          "time": 181.57856000000197,
          "velocity": 0.8661417322834646,
          "duration": 0.19312767187500413
        },
        {
          "name": "D3",
          "midi": 50,
          "time": 181.57856000000197,
          "velocity": 0.8661417322834646,
          "duration": 0.19312767187500413
        },
        {
          "name": "C#5",
          "midi": 73,
          "time": 181.77592800000198,
          "velocity": 0.8661417322834646,
          "duration": 0.19312767187500413
        },
        {
          "name": "D3",
          "midi": 50,
          "time": 181.77592800000198,
          "velocity": 0.8661417322834646,
          "duration": 0.19312767187500413
        },
        {
          "name": "D5",
          "midi": 74,
          "time": 181.973296000002,
          "velocity": 0.8661417322834646,
          "duration": 0.19312767187500413
        },
        {
          "name": "D3",
          "midi": 50,
          "time": 181.973296000002,
          "velocity": 0.8661417322834646,
          "duration": 0.19312767187500413
        },
        {
          "name": "A4",
          "midi": 69,
          "time": 182.170664000002,
          "velocity": 0.8661417322834646,
          "duration": 0.19312767187500413
        },
        {
          "name": "D3",
          "midi": 50,
          "time": 182.170664000002,
          "velocity": 0.8661417322834646,
          "duration": 0.19312767187500413
        },
        {
          "name": "A4",
          "midi": 69,
          "time": 182.36803200000202,
          "velocity": 0.8661417322834646,
          "duration": 0.32881817187501383
        },
        {
          "name": "D3",
          "midi": 50,
          "time": 182.36803200000202,
          "velocity": 0.8661417322834646,
          "duration": 0.19312767187500413
        },
        {
          "name": "D3",
          "midi": 50,
          "time": 182.56540000000203,
          "velocity": 0.8661417322834646,
          "duration": 0.19312767187500413
        },
        {
          "name": "A4",
          "midi": 69,
          "time": 182.76276800000204,
          "velocity": 0.8661417322834646,
          "duration": 0.32881817187501383
        },
        {
          "name": "D3",
          "midi": 50,
          "time": 182.76276800000204,
          "velocity": 0.8661417322834646,
          "duration": 0.19312767187500413
        },
        {
          "name": "D3",
          "midi": 50,
          "time": 182.96013600000205,
          "velocity": 0.8661417322834646,
          "duration": 0.19312767187500413
        },
        {
          "name": "A4",
          "midi": 69,
          "time": 183.15750400000206,
          "velocity": 0.8661417322834646,
          "duration": 0.19312767187500413
        },
        {
          "name": "D3",
          "midi": 50,
          "time": 183.15750400000206,
          "velocity": 0.8661417322834646,
          "duration": 0.19312767187500413
        },
        {
          "name": "F#4",
          "midi": 66,
          "time": 183.35487200000208,
          "velocity": 0.8661417322834646,
          "duration": 0.19312767187500413
        },
        {
          "name": "D5",
          "midi": 74,
          "time": 183.35487200000208,
          "velocity": 0.8661417322834646,
          "duration": 0.19312767187500413
        },
        {
          "name": "D3",
          "midi": 50,
          "time": 183.35487200000208,
          "velocity": 0.8661417322834646,
          "duration": 0.19312767187500413
        },
        {
          "name": "G4",
          "midi": 67,
          "time": 183.5522400000021,
          "velocity": 0.8661417322834646,
          "duration": 0.19312767187500413
        },
        {
          "name": "C#5",
          "midi": 73,
          "time": 183.5522400000021,
          "velocity": 0.8661417322834646,
          "duration": 0.19312767187500413
        },
        {
          "name": "D3",
          "midi": 50,
          "time": 183.5522400000021,
          "velocity": 0.8661417322834646,
          "duration": 0.19312767187500413
        },
        {
          "name": "F#4",
          "midi": 66,
          "time": 183.7496080000021,
          "velocity": 0.8661417322834646,
          "duration": 0.19736800000001153
        },
        {
          "name": "A4",
          "midi": 69,
          "time": 183.7496080000021,
          "velocity": 0.8661417322834646,
          "duration": 0.19736800000001153
        },
        {
          "name": "D5",
          "midi": 74,
          "time": 183.7496080000021,
          "velocity": 0.8661417322834646,
          "duration": 0.19736800000001153
        },
        {
          "name": "D3",
          "midi": 50,
          "time": 183.7496080000021,
          "velocity": 0.8661417322834646,
          "duration": 0.19312767187500413
        },
        {
          "name": "F#4",
          "midi": 66,
          "time": 183.9469760000021,
          "velocity": 0.8661417322834646,
          "duration": 0.6907880000000262
        },
        {
          "name": "A4",
          "midi": 69,
          "time": 183.9469760000021,
          "velocity": 0.8661417322834646,
          "duration": 0.6907880000000262
        },
        {
          "name": "D5",
          "midi": 74,
          "time": 183.9469760000021,
          "velocity": 0.8661417322834646,
          "duration": 0.6907880000000262
        },
        {
          "name": "G2",
          "midi": 43,
          "time": 183.9469760000021,
          "velocity": 0.8661417322834646,
          "duration": 0.19312767187500413
        },
        {
          "name": "G2",
          "midi": 43,
          "time": 184.14434400000212,
          "velocity": 0.8661417322834646,
          "duration": 0.19312767187500413
        },
        {
          "name": "G2",
          "midi": 43,
          "time": 184.34171200000213,
          "velocity": 0.8661417322834646,
          "duration": 0.19312767187500413
        },
        {
          "name": "G2",
          "midi": 43,
          "time": 184.53908000000214,
          "velocity": 0.8661417322834646,
          "duration": 0.19312767187500413
        },
        {
          "name": "G2",
          "midi": 43,
          "time": 184.73644800000216,
          "velocity": 0.8661417322834646,
          "duration": 0.19312767187500413
        },
        {
          "name": "G2",
          "midi": 43,
          "time": 184.93381600000217,
          "velocity": 0.8661417322834646,
          "duration": 0.19312767187500413
        },
        {
          "name": "G2",
          "midi": 43,
          "time": 185.13118400000218,
          "velocity": 0.8661417322834646,
          "duration": 0.19312767187500413
        },
        {
          "name": "A4",
          "midi": 69,
          "time": 185.3285520000022,
          "velocity": 0.8661417322834646,
          "duration": 0.09444367187501257
        },
        {
          "name": "G2",
          "midi": 43,
          "time": 185.3285520000022,
          "velocity": 0.8661417322834646,
          "duration": 0.19312767187503255
        },
        {
          "name": "A4",
          "midi": 69,
          "time": 185.4272360000022,
          "velocity": 0.8661417322834646,
          "duration": 0.09444367187501257
        },
        {
          "name": "A4",
          "midi": 69,
          "time": 185.52592000000223,
          "velocity": 0.8661417322834646,
          "duration": 0.19312767187500413
        },
        {
          "name": "G2",
          "midi": 43,
          "time": 185.52592000000223,
          "velocity": 0.8661417322834646,
          "duration": 0.19312767187500413
        },
        {
          "name": "G4",
          "midi": 67,
          "time": 185.72328800000224,
          "velocity": 0.8661417322834646,
          "duration": 0.32881817187501383
        },
        {
          "name": "G2",
          "midi": 43,
          "time": 185.72328800000224,
          "velocity": 0.8661417322834646,
          "duration": 0.19312767187500413
        },
        {
          "name": "G2",
          "midi": 43,
          "time": 185.92065600000225,
          "velocity": 0.8661417322834646,
          "duration": 0.19312767187500413
        },
        {
          "name": "F#4",
          "midi": 66,
          "time": 186.11802400000226,
          "velocity": 0.8661417322834646,
          "duration": 0.19736800000001153
        },
        {
          "name": "G2",
          "midi": 43,
          "time": 186.11802400000226,
          "velocity": 0.8661417322834646,
          "duration": 0.19312767187500413
        },
        {
          "name": "F#4",
          "midi": 66,
          "time": 186.31539200000228,
          "velocity": 0.8661417322834646,
          "duration": 0.19312767187500413
        },
        {
          "name": "G2",
          "midi": 43,
          "time": 186.31539200000228,
          "velocity": 0.8661417322834646,
          "duration": 0.19312767187500413
        },
        {
          "name": "G4",
          "midi": 67,
          "time": 186.5127600000023,
          "velocity": 0.8661417322834646,
          "duration": 0.32881817187501383
        },
        {
          "name": "G2",
          "midi": 43,
          "time": 186.5127600000023,
          "velocity": 0.8661417322834646,
          "duration": 0.19312767187500413
        },
        {
          "name": "G2",
          "midi": 43,
          "time": 186.7101280000023,
          "velocity": 0.8661417322834646,
          "duration": 0.19312767187500413
        },
        {
          "name": "A4",
          "midi": 69,
          "time": 186.9074960000023,
          "velocity": 0.8661417322834646,
          "duration": 0.19312767187500413
        },
        {
          "name": "G2",
          "midi": 43,
          "time": 186.9074960000023,
          "velocity": 0.8661417322834646,
          "duration": 0.19312767187500413
        },
        {
          "name": "D3",
          "midi": 50,
          "time": 187.10486400000232,
          "velocity": 0.8661417322834646,
          "duration": 0.19312767187500413
        },
        {
          "name": "D3",
          "midi": 50,
          "time": 187.30223200000233,
          "velocity": 0.8661417322834646,
          "duration": 0.19312767187500413
        },
        {
          "name": "D5",
          "midi": 74,
          "time": 187.49960000000235,
          "velocity": 0.8661417322834646,
          "duration": 0.19312767187500413
        },
        {
          "name": "D3",
          "midi": 50,
          "time": 187.49960000000235,
          "velocity": 0.8661417322834646,
          "duration": 0.19312767187500413
        },
        {
          "name": "C#5",
          "midi": 73,
          "time": 187.69696800000236,
          "velocity": 0.8661417322834646,
          "duration": 0.19736800000001153
        },
        {
          "name": "D3",
          "midi": 50,
          "time": 187.69696800000236,
          "velocity": 0.8661417322834646,
          "duration": 0.19312767187500413
        },
        {
          "name": "C#5",
          "midi": 73,
          "time": 187.89433600000237,
          "velocity": 0.8661417322834646,
          "duration": 0.19312767187500413
        },
        {
          "name": "D3",
          "midi": 50,
          "time": 187.89433600000237,
          "velocity": 0.8661417322834646,
          "duration": 0.19312767187500413
        },
        {
          "name": "D5",
          "midi": 74,
          "time": 188.09170400000238,
          "velocity": 0.8661417322834646,
          "duration": 0.32881817187501383
        },
        {
          "name": "D3",
          "midi": 50,
          "time": 188.09170400000238,
          "velocity": 0.8661417322834646,
          "duration": 0.19312767187500413
        },
        {
          "name": "D3",
          "midi": 50,
          "time": 188.2890720000024,
          "velocity": 0.8661417322834646,
          "duration": 0.19312767187500413
        },
        {
          "name": "A4",
          "midi": 69,
          "time": 188.4864400000024,
          "velocity": 0.8661417322834646,
          "duration": 0.19736800000001153
        },
        {
          "name": "D3",
          "midi": 50,
          "time": 188.4864400000024,
          "velocity": 0.8661417322834646,
          "duration": 0.19312767187500413
        },
        {
          "name": "A4",
          "midi": 69,
          "time": 188.68380800000241,
          "velocity": 0.8661417322834646,
          "duration": 0.32881817187501383
        },
        {
          "name": "D3",
          "midi": 50,
          "time": 188.68380800000241,
          "velocity": 0.8661417322834646,
          "duration": 0.19312767187500413
        },
        {
          "name": "D3",
          "midi": 50,
          "time": 188.88117600000243,
          "velocity": 0.8661417322834646,
          "duration": 0.19312767187500413
        },
        {
          "name": "D5",
          "midi": 74,
          "time": 189.07854400000244,
          "velocity": 0.8661417322834646,
          "duration": 0.32881817187501383
        },
        {
          "name": "D3",
          "midi": 50,
          "time": 189.07854400000244,
          "velocity": 0.8661417322834646,
          "duration": 0.19312767187500413
        },
        {
          "name": "D3",
          "midi": 50,
          "time": 189.27591200000245,
          "velocity": 0.8661417322834646,
          "duration": 0.19312767187500413
        },
        {
          "name": "C#5",
          "midi": 73,
          "time": 189.47328000000246,
          "velocity": 0.8661417322834646,
          "duration": 0.19312767187500413
        },
        {
          "name": "D3",
          "midi": 50,
          "time": 189.47328000000246,
          "velocity": 0.8661417322834646,
          "duration": 0.19312767187500413
        },
        {
          "name": "D5",
          "midi": 74,
          "time": 189.67064800000247,
          "velocity": 0.8661417322834646,
          "duration": 0.32881817187501383
        },
        {
          "name": "D3",
          "midi": 50,
          "time": 189.67064800000247,
          "velocity": 0.8661417322834646,
          "duration": 0.19312767187500413
        },
        {
          "name": "D3",
          "midi": 50,
          "time": 189.86801600000248,
          "velocity": 0.8661417322834646,
          "duration": 0.19312767187500413
        },
        {
          "name": "F#5",
          "midi": 78,
          "time": 190.0653840000025,
          "velocity": 0.8661417322834646,
          "duration": 0.19736800000001153
        },
        {
          "name": "D3",
          "midi": 50,
          "time": 190.0653840000025,
          "velocity": 0.8661417322834646,
          "duration": 0.19312767187500413
        },
        {
          "name": "F#5",
          "midi": 78,
          "time": 190.2627520000025,
          "velocity": 0.8661417322834646,
          "duration": 0.32881817187501383
        },
        {
          "name": "G2",
          "midi": 43,
          "time": 190.2627520000025,
          "velocity": 0.8661417322834646,
          "duration": 0.19312767187500413
        },
        {
          "name": "G2",
          "midi": 43,
          "time": 190.46012000000252,
          "velocity": 0.8661417322834646,
          "duration": 0.19312767187500413
        },
        {
          "name": "G5",
          "midi": 79,
          "time": 190.65748800000253,
          "velocity": 0.8661417322834646,
          "duration": 0.19312767187500413
        },
        {
          "name": "G2",
          "midi": 43,
          "time": 190.65748800000253,
          "velocity": 0.8661417322834646,
          "duration": 0.19312767187500413
        },
        {
          "name": "F#5",
          "midi": 78,
          "time": 190.85485600000254,
          "velocity": 0.8661417322834646,
          "duration": 0.19736800000001153
        },
        {
          "name": "G2",
          "midi": 43,
          "time": 190.85485600000254,
          "velocity": 0.8661417322834646,
          "duration": 0.19312767187500413
        },
        {
          "name": "F#5",
          "midi": 78,
          "time": 191.05222400000255,
          "velocity": 0.8661417322834646,
          "duration": 0.19312767187500413
        },
        {
          "name": "G2",
          "midi": 43,
          "time": 191.05222400000255,
          "velocity": 0.8661417322834646,
          "duration": 0.19312767187500413
        },
        {
          "name": "D5",
          "midi": 74,
          "time": 191.24959200000256,
          "velocity": 0.8661417322834646,
          "duration": 0.32881817187501383
        },
        {
          "name": "G2",
          "midi": 43,
          "time": 191.24959200000256,
          "velocity": 0.8661417322834646,
          "duration": 0.19312767187500413
        },
        {
          "name": "G2",
          "midi": 43,
          "time": 191.44696000000258,
          "velocity": 0.8661417322834646,
          "duration": 0.19312767187500413
        },
        {
          "name": "F#5",
          "midi": 78,
          "time": 191.6443280000026,
          "velocity": 0.8661417322834646,
          "duration": 0.19736800000001153
        },
        {
          "name": "G2",
          "midi": 43,
          "time": 191.6443280000026,
          "velocity": 0.8661417322834646,
          "duration": 0.19312767187500413
        },
        {
          "name": "F#5",
          "midi": 78,
          "time": 191.8416960000026,
          "velocity": 0.8661417322834646,
          "duration": 0.32881817187501383
        },
        {
          "name": "G2",
          "midi": 43,
          "time": 191.8416960000026,
          "velocity": 0.8661417322834646,
          "duration": 0.19312767187500413
        },
        {
          "name": "G2",
          "midi": 43,
          "time": 192.0390640000026,
          "velocity": 0.8661417322834646,
          "duration": 0.19312767187500413
        },
        {
          "name": "G5",
          "midi": 79,
          "time": 192.23643200000262,
          "velocity": 0.8661417322834646,
          "duration": 0.19312767187500413
        },
        {
          "name": "G2",
          "midi": 43,
          "time": 192.23643200000262,
          "velocity": 0.8661417322834646,
          "duration": 0.19312767187500413
        },
        {
          "name": "F#5",
          "midi": 78,
          "time": 192.43380000000263,
          "velocity": 0.8661417322834646,
          "duration": 0.19736800000001153
        },
        {
          "name": "G2",
          "midi": 43,
          "time": 192.43380000000263,
          "velocity": 0.8661417322834646,
          "duration": 0.19312767187500413
        },
        {
          "name": "F#5",
          "midi": 78,
          "time": 192.63116800000265,
          "velocity": 0.8661417322834646,
          "duration": 0.19312767187500413
        },
        {
          "name": "G2",
          "midi": 43,
          "time": 192.63116800000265,
          "velocity": 0.8661417322834646,
          "duration": 0.19312767187500413
        },
        {
          "name": "D5",
          "midi": 74,
          "time": 192.82853600000266,
          "velocity": 0.8661417322834646,
          "duration": 0.32881817187501383
        },
        {
          "name": "G2",
          "midi": 43,
          "time": 192.82853600000266,
          "velocity": 0.8661417322834646,
          "duration": 0.19312767187500413
        },
        {
          "name": "G2",
          "midi": 43,
          "time": 193.02590400000267,
          "velocity": 0.8661417322834646,
          "duration": 0.19312767187500413
        },
        {
          "name": "D5",
          "midi": 74,
          "time": 193.22327200000268,
          "velocity": 0.8661417322834646,
          "duration": 0.19736800000001153
        },
        {
          "name": "G2",
          "midi": 43,
          "time": 193.22327200000268,
          "velocity": 0.8661417322834646,
          "duration": 0.19312767187500413
        },
        {
          "name": "D5",
          "midi": 74,
          "time": 193.4206400000027,
          "velocity": 0.8661417322834646,
          "duration": 1.0855240000000492
        },
        {
          "name": "A#2",
          "midi": 46,
          "time": 193.4206400000027,
          "velocity": 0.8661417322834646,
          "duration": 0.19312767187500413
        },
        {
          "name": "A#2",
          "midi": 46,
          "time": 193.6180080000027,
          "velocity": 0.8661417322834646,
          "duration": 0.19312767187500413
        },
        {
          "name": "A#2",
          "midi": 46,
          "time": 193.81537600000271,
          "velocity": 0.8661417322834646,
          "duration": 0.19312767187500413
        },
        {
          "name": "A#2",
          "midi": 46,
          "time": 194.01274400000273,
          "velocity": 0.8661417322834646,
          "duration": 0.19312767187500413
        },
        {
          "name": "A#2",
          "midi": 46,
          "time": 194.21011200000274,
          "velocity": 0.8661417322834646,
          "duration": 0.19312767187500413
        },
        {
          "name": "A#2",
          "midi": 46,
          "time": 194.40748000000275,
          "velocity": 0.8661417322834646,
          "duration": 0.19312767187500413
        },
        {
          "name": "A#2",
          "midi": 46,
          "time": 194.60484800000276,
          "velocity": 0.8661417322834646,
          "duration": 0.19312767187500413
        },
        {
          "name": "A4",
          "midi": 69,
          "time": 194.80221600000277,
          "velocity": 0.8661417322834646,
          "duration": 0.19736800000001153
        },
        {
          "name": "F5",
          "midi": 77,
          "time": 194.80221600000277,
          "velocity": 0.8661417322834646,
          "duration": 0.19736800000001153
        },
        {
          "name": "A#2",
          "midi": 46,
          "time": 194.80221600000277,
          "velocity": 0.8661417322834646,
          "duration": 0.19312767187500413
        },
        {
          "name": "A4",
          "midi": 69,
          "time": 194.99958400000278,
          "velocity": 0.8661417322834646,
          "duration": 0.19312767187500413
        },
        {
          "name": "F5",
          "midi": 77,
          "time": 194.99958400000278,
          "velocity": 0.8661417322834646,
          "duration": 0.19312767187500413
        },
        {
          "name": "A#2",
          "midi": 46,
          "time": 194.99958400000278,
          "velocity": 0.8661417322834646,
          "duration": 0.19312767187500413
        },
        {
          "name": "A4",
          "midi": 69,
          "time": 195.1969520000028,
          "velocity": 0.8661417322834646,
          "duration": 0.19312767187500413
        },
        {
          "name": "F5",
          "midi": 77,
          "time": 195.1969520000028,
          "velocity": 0.8661417322834646,
          "duration": 0.19312767187500413
        },
        {
          "name": "A#2",
          "midi": 46,
          "time": 195.1969520000028,
          "velocity": 0.8661417322834646,
          "duration": 0.19312767187500413
        },
        {
          "name": "G4",
          "midi": 67,
          "time": 195.3943200000028,
          "velocity": 0.8661417322834646,
          "duration": 0.19312767187500413
        },
        {
          "name": "E5",
          "midi": 76,
          "time": 195.3943200000028,
          "velocity": 0.8661417322834646,
          "duration": 0.19312767187500413
        },
        {
          "name": "A#2",
          "midi": 46,
          "time": 195.3943200000028,
          "velocity": 0.8661417322834646,
          "duration": 0.19312767187500413
        },
        {
          "name": "G4",
          "midi": 67,
          "time": 195.59168800000282,
          "velocity": 0.8661417322834646,
          "duration": 0.19312767187500413
        },
        {
          "name": "E5",
          "midi": 76,
          "time": 195.59168800000282,
          "velocity": 0.8661417322834646,
          "duration": 0.19312767187500413
        },
        {
          "name": "A#2",
          "midi": 46,
          "time": 195.59168800000282,
          "velocity": 0.8661417322834646,
          "duration": 0.19312767187500413
        },
        {
          "name": "F4",
          "midi": 65,
          "time": 195.78905600000283,
          "velocity": 0.8661417322834646,
          "duration": 0.32881817187501383
        },
        {
          "name": "D5",
          "midi": 74,
          "time": 195.78905600000283,
          "velocity": 0.8661417322834646,
          "duration": 0.32881817187501383
        },
        {
          "name": "A#2",
          "midi": 46,
          "time": 195.78905600000283,
          "velocity": 0.8661417322834646,
          "duration": 0.19312767187500413
        },
        {
          "name": "A#2",
          "midi": 46,
          "time": 195.98642400000284,
          "velocity": 0.8661417322834646,
          "duration": 0.19312767187500413
        },
        {
          "name": "A4",
          "midi": 69,
          "time": 196.18379200000285,
          "velocity": 0.8661417322834646,
          "duration": 0.39473600000002307
        },
        {
          "name": "F5",
          "midi": 77,
          "time": 196.18379200000285,
          "velocity": 0.8661417322834646,
          "duration": 0.39473600000002307
        },
        {
          "name": "A#2",
          "midi": 46,
          "time": 196.18379200000285,
          "velocity": 0.8661417322834646,
          "duration": 0.19312767187500413
        },
        {
          "name": "A#2",
          "midi": 46,
          "time": 196.38116000000286,
          "velocity": 0.8661417322834646,
          "duration": 0.19312767187500413
        },
        {
          "name": "A4",
          "midi": 69,
          "time": 196.57852800000288,
          "velocity": 0.8661417322834646,
          "duration": 0.32881817187501383
        },
        {
          "name": "F5",
          "midi": 77,
          "time": 196.57852800000288,
          "velocity": 0.8661417322834646,
          "duration": 0.32881817187501383
        },
        {
          "name": "G2",
          "midi": 43,
          "time": 196.57852800000288,
          "velocity": 0.8661417322834646,
          "duration": 0.19312767187500413
        },
        {
          "name": "G2",
          "midi": 43,
          "time": 196.7758960000029,
          "velocity": 0.8661417322834646,
          "duration": 0.19312767187500413
        },
        {
          "name": "G2",
          "midi": 43,
          "time": 196.9732640000029,
          "velocity": 0.8661417322834646,
          "duration": 0.19312767187500413
        },
        {
          "name": "G2",
          "midi": 43,
          "time": 197.1706320000029,
          "velocity": 0.8661417322834646,
          "duration": 0.19312767187500413
        },
        {
          "name": "G2",
          "midi": 43,
          "time": 197.36800000000292,
          "velocity": 0.8661417322834646,
          "duration": 0.19312767187500413
        },
        {
          "name": "G2",
          "midi": 43,
          "time": 197.56536800000293,
          "velocity": 0.8661417322834646,
          "duration": 0.19312767187500413
        },
        {
          "name": "G2",
          "midi": 43,
          "time": 197.76273600000295,
          "velocity": 0.8661417322834646,
          "duration": 0.19312767187500413
        },
        {
          "name": "A4",
          "midi": 69,
          "time": 197.96010400000296,
          "velocity": 0.8661417322834646,
          "duration": 0.19736800000001153
        },
        {
          "name": "F5",
          "midi": 77,
          "time": 197.96010400000296,
          "velocity": 0.8661417322834646,
          "duration": 0.19736800000001153
        },
        {
          "name": "G2",
          "midi": 43,
          "time": 197.96010400000296,
          "velocity": 0.8661417322834646,
          "duration": 0.19312767187500413
        },
        {
          "name": "A4",
          "midi": 69,
          "time": 198.15747200000297,
          "velocity": 0.8661417322834646,
          "duration": 0.19312767187500413
        },
        {
          "name": "F5",
          "midi": 77,
          "time": 198.15747200000297,
          "velocity": 0.8661417322834646,
          "duration": 0.19312767187500413
        },
        {
          "name": "G2",
          "midi": 43,
          "time": 198.15747200000297,
          "velocity": 0.8661417322834646,
          "duration": 0.19312767187500413
        },
        {
          "name": "A4",
          "midi": 69,
          "time": 198.35484000000298,
          "velocity": 0.8661417322834646,
          "duration": 0.19312767187500413
        },
        {
          "name": "F5",
          "midi": 77,
          "time": 198.35484000000298,
          "velocity": 0.8661417322834646,
          "duration": 0.19312767187500413
        },
        {
          "name": "G2",
          "midi": 43,
          "time": 198.35484000000298,
          "velocity": 0.8661417322834646,
          "duration": 0.19312767187500413
        },
        {
          "name": "G4",
          "midi": 67,
          "time": 198.552208000003,
          "velocity": 0.8661417322834646,
          "duration": 0.19312767187500413
        },
        {
          "name": "E5",
          "midi": 76,
          "time": 198.552208000003,
          "velocity": 0.8661417322834646,
          "duration": 0.19312767187500413
        },
        {
          "name": "G2",
          "midi": 43,
          "time": 198.552208000003,
          "velocity": 0.8661417322834646,
          "duration": 0.19312767187500413
        },
        {
          "name": "G4",
          "midi": 67,
          "time": 198.749576000003,
          "velocity": 0.8661417322834646,
          "duration": 0.19312767187500413
        },
        {
          "name": "E5",
          "midi": 76,
          "time": 198.749576000003,
          "velocity": 0.8661417322834646,
          "duration": 0.19312767187500413
        },
        {
          "name": "G2",
          "midi": 43,
          "time": 198.749576000003,
          "velocity": 0.8661417322834646,
          "duration": 0.19312767187500413
        },
        {
          "name": "F4",
          "midi": 65,
          "time": 198.94694400000301,
          "velocity": 0.8661417322834646,
          "duration": 0.32881817187501383
        },
        {
          "name": "D5",
          "midi": 74,
          "time": 198.94694400000301,
          "velocity": 0.8661417322834646,
          "duration": 0.32881817187501383
        },
        {
          "name": "G2",
          "midi": 43,
          "time": 198.94694400000301,
          "velocity": 0.8661417322834646,
          "duration": 0.19312767187500413
        },
        {
          "name": "G2",
          "midi": 43,
          "time": 199.14431200000303,
          "velocity": 0.8661417322834646,
          "duration": 0.19312767187500413
        },
        {
          "name": "A#4",
          "midi": 70,
          "time": 199.34168000000304,
          "velocity": 0.8661417322834646,
          "duration": 0.39473600000002307
        },
        {
          "name": "G5",
          "midi": 79,
          "time": 199.34168000000304,
          "velocity": 0.8661417322834646,
          "duration": 0.39473600000002307
        },
        {
          "name": "G2",
          "midi": 43,
          "time": 199.34168000000304,
          "velocity": 0.8661417322834646,
          "duration": 0.19312767187500413
        },
        {
          "name": "G2",
          "midi": 43,
          "time": 199.53904800000305,
          "velocity": 0.8661417322834646,
          "duration": 0.19312767187500413
        },
        {
          "name": "A#4",
          "midi": 70,
          "time": 199.73641600000306,
          "velocity": 0.8661417322834646,
          "duration": 0.19312767187500413
        },
        {
          "name": "G5",
          "midi": 79,
          "time": 199.73641600000306,
          "velocity": 0.8661417322834646,
          "duration": 0.19312767187500413
        },
        {
          "name": "F2",
          "midi": 41,
          "time": 199.73641600000306,
          "velocity": 0.8661417322834646,
          "duration": 0.19312767187500413
        },
        {
          "name": "A#4",
          "midi": 70,
          "time": 199.93378400000307,
          "velocity": 0.8661417322834646,
          "duration": 0.19312767187500413
        },
        {
          "name": "G5",
          "midi": 79,
          "time": 199.93378400000307,
          "velocity": 0.8661417322834646,
          "duration": 0.19312767187500413
        },
        {
          "name": "F2",
          "midi": 41,
          "time": 199.93378400000307,
          "velocity": 0.8661417322834646,
          "duration": 0.19312767187500413
        },
        {
          "name": "A4",
          "midi": 69,
          "time": 200.13115200000308,
          "velocity": 0.8661417322834646,
          "duration": 0.6907880000000262
        },
        {
          "name": "F5",
          "midi": 77,
          "time": 200.13115200000308,
          "velocity": 0.8661417322834646,
          "duration": 0.6907880000000262
        },
        {
          "name": "F2",
          "midi": 41,
          "time": 200.13115200000308,
          "velocity": 0.8661417322834646,
          "duration": 0.19312767187500413
        },
        {
          "name": "F2",
          "midi": 41,
          "time": 200.3285200000031,
          "velocity": 0.8661417322834646,
          "duration": 0.19312767187500413
        },
        {
          "name": "F2",
          "midi": 41,
          "time": 200.5258880000031,
          "velocity": 0.8661417322834646,
          "duration": 0.19312767187500413
        },
        {
          "name": "F2",
          "midi": 41,
          "time": 200.72325600000312,
          "velocity": 0.8661417322834646,
          "duration": 0.19312767187500413
        },
        {
          "name": "F2",
          "midi": 41,
          "time": 200.92062400000313,
          "velocity": 0.8661417322834646,
          "duration": 0.19312767187500413
        },
        {
          "name": "F5",
          "midi": 77,
          "time": 201.11799200000314,
          "velocity": 0.8661417322834646,
          "duration": 0.19736800000001153
        },
        {
          "name": "F2",
          "midi": 41,
          "time": 201.11799200000314,
          "velocity": 0.8661417322834646,
          "duration": 0.19312767187500413
        },
        {
          "name": "F5",
          "midi": 77,
          "time": 201.31536000000315,
          "velocity": 0.8661417322834646,
          "duration": 0.19312767187500413
        },
        {
          "name": "F2",
          "midi": 41,
          "time": 201.31536000000315,
          "velocity": 0.8661417322834646,
          "duration": 0.19312767187500413
        },
        {
          "name": "E5",
          "midi": 76,
          "time": 201.51272800000316,
          "velocity": 0.8661417322834646,
          "duration": 0.19312767187500413
        },
        {
          "name": "F2",
          "midi": 41,
          "time": 201.51272800000316,
          "velocity": 0.8661417322834646,
          "duration": 0.19312767187500413
        },
        {
          "name": "E5",
          "midi": 76,
          "time": 201.71009600000318,
          "velocity": 0.8661417322834646,
          "duration": 0.19312767187500413
        },
        {
          "name": "F2",
          "midi": 41,
          "time": 201.71009600000318,
          "velocity": 0.8661417322834646,
          "duration": 0.19312767187500413
        },
        {
          "name": "D5",
          "midi": 74,
          "time": 201.9074640000032,
          "velocity": 0.8661417322834646,
          "duration": 0.19312767187500413
        },
        {
          "name": "F2",
          "midi": 41,
          "time": 201.9074640000032,
          "velocity": 0.8661417322834646,
          "duration": 0.19312767187500413
        },
        {
          "name": "D5",
          "midi": 74,
          "time": 202.1048320000032,
          "velocity": 0.8661417322834646,
          "duration": 0.19312767187500413
        },
        {
          "name": "F2",
          "midi": 41,
          "time": 202.1048320000032,
          "velocity": 0.8661417322834646,
          "duration": 0.19312767187500413
        },
        {
          "name": "D5",
          "midi": 74,
          "time": 202.3022000000032,
          "velocity": 0.8661417322834646,
          "duration": 0.19312767187500413
        },
        {
          "name": "F2",
          "midi": 41,
          "time": 202.3022000000032,
          "velocity": 0.8661417322834646,
          "duration": 0.19312767187500413
        },
        {
          "name": "C5",
          "midi": 72,
          "time": 202.49956800000322,
          "velocity": 0.8661417322834646,
          "duration": 0.19312767187500413
        },
        {
          "name": "F2",
          "midi": 41,
          "time": 202.49956800000322,
          "velocity": 0.8661417322834646,
          "duration": 0.19312767187500413
        },
        {
          "name": "A4",
          "midi": 69,
          "time": 202.69693600000323,
          "velocity": 0.8661417322834646,
          "duration": 0.19736800000001153
        },
        {
          "name": "F2",
          "midi": 41,
          "time": 202.69693600000323,
          "velocity": 0.8661417322834646,
          "duration": 0.19312767187500413
        },
        {
          "name": "A4",
          "midi": 69,
          "time": 202.89430400000325,
          "velocity": 0.8661417322834646,
          "duration": 0.19312767187500413
        },
        {
          "name": "D3",
          "midi": 50,
          "time": 202.89430400000325,
          "velocity": 0.8661417322834646,
          "duration": 0.19312767187500413
        },
        {
          "name": "A#4",
          "midi": 70,
          "time": 203.09167200000326,
          "velocity": 0.8661417322834646,
          "duration": 0.19312767187500413
        },
        {
          "name": "D3",
          "midi": 50,
          "time": 203.09167200000326,
          "velocity": 0.8661417322834646,
          "duration": 0.19312767187500413
        },
        {
          "name": "A4",
          "midi": 69,
          "time": 203.28904000000327,
          "velocity": 0.8661417322834646,
          "duration": 0.19312767187500413
        },
        {
          "name": "D3",
          "midi": 50,
          "time": 203.28904000000327,
          "velocity": 0.8661417322834646,
          "duration": 0.19312767187500413
        },
        {
          "name": "A4",
          "midi": 69,
          "time": 203.48640800000328,
          "velocity": 0.8661417322834646,
          "duration": 0.19312767187500413
        },
        {
          "name": "D3",
          "midi": 50,
          "time": 203.48640800000328,
          "velocity": 0.8661417322834646,
          "duration": 0.19312767187500413
        },
        {
          "name": "G4",
          "midi": 67,
          "time": 203.6837760000033,
          "velocity": 0.8661417322834646,
          "duration": 0.19312767187500413
        },
        {
          "name": "D3",
          "midi": 50,
          "time": 203.6837760000033,
          "velocity": 0.8661417322834646,
          "duration": 0.19312767187500413
        },
        {
          "name": "F4",
          "midi": 65,
          "time": 203.8811440000033,
          "velocity": 0.8661417322834646,
          "duration": 0.19312767187500413
        },
        {
          "name": "D3",
          "midi": 50,
          "time": 203.8811440000033,
          "velocity": 0.8661417322834646,
          "duration": 0.19312767187500413
        },
        {
          "name": "F4",
          "midi": 65,
          "time": 204.07851200000331,
          "velocity": 0.8661417322834646,
          "duration": 0.19312767187500413
        },
        {
          "name": "D3",
          "midi": 50,
          "time": 204.07851200000331,
          "velocity": 0.8661417322834646,
          "duration": 0.19312767187500413
        },
        {
          "name": "A4",
          "midi": 69,
          "time": 204.27588000000333,
          "velocity": 0.8661417322834646,
          "duration": 0.19736800000001153
        },
        {
          "name": "D3",
          "midi": 50,
          "time": 204.27588000000333,
          "velocity": 0.8661417322834646,
          "duration": 0.19312767187500413
        },
        {
          "name": "A4",
          "midi": 69,
          "time": 204.47324800000334,
          "velocity": 0.8661417322834646,
          "duration": 0.19312767187500413
        },
        {
          "name": "D3",
          "midi": 50,
          "time": 204.47324800000334,
          "velocity": 0.8661417322834646,
          "duration": 0.19312767187500413
        },
        {
          "name": "A#4",
          "midi": 70,
          "time": 204.67061600000335,
          "velocity": 0.8661417322834646,
          "duration": 0.19312767187500413
        },
        {
          "name": "D3",
          "midi": 50,
          "time": 204.67061600000335,
          "velocity": 0.8661417322834646,
          "duration": 0.19312767187500413
        },
        {
          "name": "A4",
          "midi": 69,
          "time": 204.86798400000336,
          "velocity": 0.8661417322834646,
          "duration": 0.19312767187500413
        },
        {
          "name": "D3",
          "midi": 50,
          "time": 204.86798400000336,
          "velocity": 0.8661417322834646,
          "duration": 0.19312767187500413
        },
        {
          "name": "F4",
          "midi": 65,
          "time": 205.06535200000337,
          "velocity": 0.8661417322834646,
          "duration": 0.19312767187500413
        },
        {
          "name": "D3",
          "midi": 50,
          "time": 205.06535200000337,
          "velocity": 0.8661417322834646,
          "duration": 0.19312767187500413
        },
        {
          "name": "F4",
          "midi": 65,
          "time": 205.26272000000338,
          "velocity": 0.8661417322834646,
          "duration": 0.32881817187501383
        },
        {
          "name": "C3",
          "midi": 48,
          "time": 205.26272000000338,
          "velocity": 0.8661417322834646,
          "duration": 0.19312767187500413
        },
        {
          "name": "C3",
          "midi": 48,
          "time": 205.4600880000034,
          "velocity": 0.8661417322834646,
          "duration": 0.19312767187500413
        },
        {
          "name": "C3",
          "midi": 48,
          "time": 205.6574560000034,
          "velocity": 0.8661417322834646,
          "duration": 0.19312767187500413
        },
        {
          "name": "D5",
          "midi": 74,
          "time": 205.85482400000342,
          "velocity": 0.8661417322834646,
          "duration": 0.19312767187500413
        },
        {
          "name": "C3",
          "midi": 48,
          "time": 205.85482400000342,
          "velocity": 0.8661417322834646,
          "duration": 0.19312767187500413
        },
        {
          "name": "D5",
          "midi": 74,
          "time": 206.05219200000343,
          "velocity": 0.8661417322834646,
          "duration": 0.19312767187500413
        },
        {
          "name": "A#2",
          "midi": 46,
          "time": 206.05219200000343,
          "velocity": 0.8661417322834646,
          "duration": 0.19312767187500413
        },
        {
          "name": "E5",
          "midi": 76,
          "time": 206.24956000000344,
          "velocity": 0.8661417322834646,
          "duration": 0.19312767187500413
        },
        {
          "name": "A#2",
          "midi": 46,
          "time": 206.24956000000344,
          "velocity": 0.8661417322834646,
          "duration": 0.19312767187500413
        },
        {
          "name": "F5",
          "midi": 77,
          "time": 206.44692800000345,
          "velocity": 0.8661417322834646,
          "duration": 0.19312767187500413
        },
        {
          "name": "A#2",
          "midi": 46,
          "time": 206.44692800000345,
          "velocity": 0.8661417322834646,
          "duration": 0.19312767187500413
        },
        {
          "name": "E5",
          "midi": 76,
          "time": 206.64429600000346,
          "velocity": 0.8661417322834646,
          "duration": 0.19736800000001153
        },
        {
          "name": "G5",
          "midi": 79,
          "time": 206.64429600000346,
          "velocity": 0.8661417322834646,
          "duration": 0.19736800000001153
        },
        {
          "name": "C3",
          "midi": 48,
          "time": 206.64429600000346,
          "velocity": 0.8661417322834646,
          "duration": 0.19736800000001153
        },
        {
          "name": "E5",
          "midi": 76,
          "time": 206.84166400000348,
          "velocity": 0.8661417322834646,
          "duration": 0.19312767187500413
        },
        {
          "name": "G5",
          "midi": 79,
          "time": 206.84166400000348,
          "velocity": 0.8661417322834646,
          "duration": 0.19312767187500413
        },
        {
          "name": "C3",
          "midi": 48,
          "time": 206.84166400000348,
          "velocity": 0.8661417322834646,
          "duration": 0.19312767187500413
        },
        {
          "name": "F5",
          "midi": 77,
          "time": 207.0390320000035,
          "velocity": 0.8661417322834646,
          "duration": 0.19312767187500413
        },
        {
          "name": "C3",
          "midi": 48,
          "time": 207.0390320000035,
          "velocity": 0.8661417322834646,
          "duration": 0.19312767187500413
        },
        {
          "name": "E5",
          "midi": 76,
          "time": 207.2364000000035,
          "velocity": 0.8661417322834646,
          "duration": 0.19312767187500413
        },
        {
          "name": "C3",
          "midi": 48,
          "time": 207.2364000000035,
          "velocity": 0.8661417322834646,
          "duration": 0.19312767187500413
        },
        {
          "name": "C5",
          "midi": 72,
          "time": 207.4337680000035,
          "velocity": 0.8661417322834646,
          "duration": 0.19736800000001153
        },
        {
          "name": "A2",
          "midi": 45,
          "time": 207.4337680000035,
          "velocity": 0.8661417322834646,
          "duration": 0.19736800000001153
        },
        {
          "name": "C5",
          "midi": 72,
          "time": 207.63113600000352,
          "velocity": 0.8661417322834646,
          "duration": 0.19312767187500413
        },
        {
          "name": "A2",
          "midi": 45,
          "time": 207.63113600000352,
          "velocity": 0.8661417322834646,
          "duration": 0.19312767187500413
        },
        {
          "name": "G5",
          "midi": 79,
          "time": 207.82850400000353,
          "velocity": 0.8661417322834646,
          "duration": 0.19312767187500413
        },
        {
          "name": "A2",
          "midi": 45,
          "time": 207.82850400000353,
          "velocity": 0.8661417322834646,
          "duration": 0.19312767187500413
        },
        {
          "name": "E5",
          "midi": 76,
          "time": 208.02587200000355,
          "velocity": 0.8661417322834646,
          "duration": 0.19312767187500413
        },
        {
          "name": "A2",
          "midi": 45,
          "time": 208.02587200000355,
          "velocity": 0.8661417322834646,
          "duration": 0.19312767187500413
        },
        {
          "name": "D5",
          "midi": 74,
          "time": 208.22324000000356,
          "velocity": 0.8661417322834646,
          "duration": 0.19736800000001153
        },
        {
          "name": "F5",
          "midi": 77,
          "time": 208.22324000000356,
          "velocity": 0.8661417322834646,
          "duration": 0.19736800000001153
        },
        {
          "name": "A#2",
          "midi": 46,
          "time": 208.22324000000356,
          "velocity": 0.8661417322834646,
          "duration": 0.39049567187501566
        },
        {
          "name": "D5",
          "midi": 74,
          "time": 208.42060800000357,
          "velocity": 0.8661417322834646,
          "duration": 0.32881817187501383
        },
        {
          "name": "F5",
          "midi": 77,
          "time": 208.42060800000357,
          "velocity": 0.8661417322834646,
          "duration": 0.32881817187501383
        },
        {
          "name": "A#2",
          "midi": 46,
          "time": 208.61797600000358,
          "velocity": 0.8661417322834646,
          "duration": 0.19312767187500413
        },
        {
          "name": "A#2",
          "midi": 46,
          "time": 208.8153440000036,
          "velocity": 0.8661417322834646,
          "duration": 0.19312767187500413
        },
        {
          "name": "D5",
          "midi": 74,
          "time": 209.0127120000036,
          "velocity": 0.8661417322834646,
          "duration": 0.19312767187500413
        },
        {
          "name": "A#2",
          "midi": 46,
          "time": 209.0127120000036,
          "velocity": 0.8661417322834646,
          "duration": 0.19312767187500413
        },
        {
          "name": "D5",
          "midi": 74,
          "time": 209.21008000000361,
          "velocity": 0.8661417322834646,
          "duration": 0.19312767187500413
        },
        {
          "name": "A#2",
          "midi": 46,
          "time": 209.21008000000361,
          "velocity": 0.8661417322834646,
          "duration": 0.19312767187500413
        },
        {
          "name": "E5",
          "midi": 76,
          "time": 209.40744800000363,
          "velocity": 0.8661417322834646,
          "duration": 0.19312767187500413
        },
        {
          "name": "A#2",
          "midi": 46,
          "time": 209.40744800000363,
          "velocity": 0.8661417322834646,
          "duration": 0.19312767187500413
        },
        {
          "name": "F5",
          "midi": 77,
          "time": 209.60481600000364,
          "velocity": 0.8661417322834646,
          "duration": 0.19312767187500413
        },
        {
          "name": "A#2",
          "midi": 46,
          "time": 209.60481600000364,
          "velocity": 0.8661417322834646,
          "duration": 0.19312767187500413
        },
        {
          "name": "E5",
          "midi": 76,
          "time": 209.80218400000365,
          "velocity": 0.8661417322834646,
          "duration": 0.19736800000001153
        },
        {
          "name": "G5",
          "midi": 79,
          "time": 209.80218400000365,
          "velocity": 0.8661417322834646,
          "duration": 0.19736800000001153
        },
        {
          "name": "C3",
          "midi": 48,
          "time": 209.80218400000365,
          "velocity": 0.8661417322834646,
          "duration": 0.19736800000001153
        },
        {
          "name": "E5",
          "midi": 76,
          "time": 209.99955200000366,
          "velocity": 0.8661417322834646,
          "duration": 0.19312767187500413
        },
        {
          "name": "G5",
          "midi": 79,
          "time": 209.99955200000366,
          "velocity": 0.8661417322834646,
          "duration": 0.19312767187500413
        },
        {
          "name": "C3",
          "midi": 48,
          "time": 209.99955200000366,
          "velocity": 0.8661417322834646,
          "duration": 0.19312767187500413
        },
        {
          "name": "F5",
          "midi": 77,
          "time": 210.19692000000367,
          "velocity": 0.8661417322834646,
          "duration": 0.19312767187500413
        },
        {
          "name": "C3",
          "midi": 48,
          "time": 210.19692000000367,
          "velocity": 0.8661417322834646,
          "duration": 0.19312767187500413
        },
        {
          "name": "G5",
          "midi": 79,
          "time": 210.39428800000368,
          "velocity": 0.8661417322834646,
          "duration": 0.19312767187500413
        },
        {
          "name": "C3",
          "midi": 48,
          "time": 210.39428800000368,
          "velocity": 0.8661417322834646,
          "duration": 0.19312767187500413
        },
        {
          "name": "A5",
          "midi": 81,
          "time": 210.5916560000037,
          "velocity": 0.8661417322834646,
          "duration": 0.19736800000001153
        },
        {
          "name": "A2",
          "midi": 45,
          "time": 210.5916560000037,
          "velocity": 0.8661417322834646,
          "duration": 0.19736800000001153
        },
        {
          "name": "A5",
          "midi": 81,
          "time": 210.7890240000037,
          "velocity": 0.8661417322834646,
          "duration": 0.19312767187500413
        },
        {
          "name": "A2",
          "midi": 45,
          "time": 210.7890240000037,
          "velocity": 0.8661417322834646,
          "duration": 0.19312767187500413
        },
        {
          "name": "A#5",
          "midi": 82,
          "time": 210.98639200000372,
          "velocity": 0.8661417322834646,
          "duration": 0.19312767187500413
        },
        {
          "name": "A2",
          "midi": 45,
          "time": 210.98639200000372,
          "velocity": 0.8661417322834646,
          "duration": 0.19312767187500413
        },
        {
          "name": "A5",
          "midi": 81,
          "time": 211.18376000000373,
          "velocity": 0.8661417322834646,
          "duration": 0.19312767187500413
        },
        {
          "name": "C6",
          "midi": 84,
          "time": 211.18376000000373,
          "velocity": 0.8661417322834646,
          "duration": 0.19312767187500413
        },
        {
          "name": "A2",
          "midi": 45,
          "time": 211.18376000000373,
          "velocity": 0.8661417322834646,
          "duration": 0.19312767187500413
        },
        {
          "name": "F5",
          "midi": 77,
          "time": 211.38112800000374,
          "velocity": 0.8661417322834646,
          "duration": 0.19736800000001153
        },
        {
          "name": "D3",
          "midi": 50,
          "time": 211.38112800000374,
          "velocity": 0.8661417322834646,
          "duration": 0.19736800000001153
        },
        {
          "name": "F5",
          "midi": 77,
          "time": 211.57849600000375,
          "velocity": 0.8661417322834646,
          "duration": 0.32881817187501383
        },
        {
          "name": "D3",
          "midi": 50,
          "time": 211.57849600000375,
          "velocity": 0.8661417322834646,
          "duration": 0.19312767187500413
        },
        {
          "name": "D3",
          "midi": 50,
          "time": 211.77586400000376,
          "velocity": 0.8661417322834646,
          "duration": 0.19312767187500413
        },
        {
          "name": "D3",
          "midi": 50,
          "time": 211.97323200000378,
          "velocity": 0.8661417322834646,
          "duration": 0.19312767187500413
        },
        {
          "name": "D5",
          "midi": 74,
          "time": 212.1706000000038,
          "velocity": 0.8661417322834646,
          "duration": 0.19312767187500413
        },
        {
          "name": "D3",
          "midi": 50,
          "time": 212.1706000000038,
          "velocity": 0.8661417322834646,
          "duration": 0.19312767187500413
        },
        {
          "name": "D5",
          "midi": 74,
          "time": 212.3679680000038,
          "velocity": 0.8661417322834646,
          "duration": 0.19312767187500413
        },
        {
          "name": "A#2",
          "midi": 46,
          "time": 212.3679680000038,
          "velocity": 0.8661417322834646,
          "duration": 0.19312767187500413
        },
        {
          "name": "E5",
          "midi": 76,
          "time": 212.5653360000038,
          "velocity": 0.8661417322834646,
          "duration": 0.19312767187500413
        },
        {
          "name": "A#2",
          "midi": 46,
          "time": 212.5653360000038,
          "velocity": 0.8661417322834646,
          "duration": 0.19312767187500413
        },
        {
          "name": "F5",
          "midi": 77,
          "time": 212.76270400000382,
          "velocity": 0.8661417322834646,
          "duration": 0.19312767187500413
        },
        {
          "name": "A#2",
          "midi": 46,
          "time": 212.76270400000382,
          "velocity": 0.8661417322834646,
          "duration": 0.19312767187500413
        },
        {
          "name": "E5",
          "midi": 76,
          "time": 212.96007200000383,
          "velocity": 0.8661417322834646,
          "duration": 0.19736800000001153
        },
        {
          "name": "G5",
          "midi": 79,
          "time": 212.96007200000383,
          "velocity": 0.8661417322834646,
          "duration": 0.19736800000001153
        },
        {
          "name": "C3",
          "midi": 48,
          "time": 212.96007200000383,
          "velocity": 0.8661417322834646,
          "duration": 0.19736800000001153
        },
        {
          "name": "E5",
          "midi": 76,
          "time": 213.15744000000385,
          "velocity": 0.8661417322834646,
          "duration": 0.19312767187500413
        },
        {
          "name": "G5",
          "midi": 79,
          "time": 213.15744000000385,
          "velocity": 0.8661417322834646,
          "duration": 0.19312767187500413
        },
        {
          "name": "C3",
          "midi": 48,
          "time": 213.15744000000385,
          "velocity": 0.8661417322834646,
          "duration": 0.19312767187500413
        },
        {
          "name": "F5",
          "midi": 77,
          "time": 213.35480800000386,
          "velocity": 0.8661417322834646,
          "duration": 0.19312767187500413
        },
        {
          "name": "C3",
          "midi": 48,
          "time": 213.35480800000386,
          "velocity": 0.8661417322834646,
          "duration": 0.19312767187500413
        },
        {
          "name": "E5",
          "midi": 76,
          "time": 213.55217600000387,
          "velocity": 0.8661417322834646,
          "duration": 0.19312767187500413
        },
        {
          "name": "C3",
          "midi": 48,
          "time": 213.55217600000387,
          "velocity": 0.8661417322834646,
          "duration": 0.19312767187500413
        },
        {
          "name": "E5",
          "midi": 76,
          "time": 213.74954400000388,
          "velocity": 0.8661417322834646,
          "duration": 0.19736800000001153
        },
        {
          "name": "A2",
          "midi": 45,
          "time": 213.74954400000388,
          "velocity": 0.8661417322834646,
          "duration": 0.19736800000001153
        },
        {
          "name": "E5",
          "midi": 76,
          "time": 213.9469120000039,
          "velocity": 0.8661417322834646,
          "duration": 0.19312767187500413
        },
        {
          "name": "A2",
          "midi": 45,
          "time": 213.9469120000039,
          "velocity": 0.8661417322834646,
          "duration": 0.19312767187500413
        },
        {
          "name": "F5",
          "midi": 77,
          "time": 214.1442800000039,
          "velocity": 0.8661417322834646,
          "duration": 0.19312767187500413
        },
        {
          "name": "A2",
          "midi": 45,
          "time": 214.1442800000039,
          "velocity": 0.8661417322834646,
          "duration": 0.19312767187500413
        },
        {
          "name": "G5",
          "midi": 79,
          "time": 214.34164800000391,
          "velocity": 0.8661417322834646,
          "duration": 0.19312767187500413
        },
        {
          "name": "A2",
          "midi": 45,
          "time": 214.34164800000391,
          "velocity": 0.8661417322834646,
          "duration": 0.19312767187500413
        },
        {
          "name": "G5",
          "midi": 79,
          "time": 214.53901600000393,
          "velocity": 0.8661417322834646,
          "duration": 0.19312767187500413
        },
        {
          "name": "A#2",
          "midi": 46,
          "time": 214.53901600000393,
          "velocity": 0.8661417322834646,
          "duration": 0.19736800000001153
        },
        {
          "name": "D5",
          "midi": 74,
          "time": 214.73638400000394,
          "velocity": 0.8661417322834646,
          "duration": 0.32881817187501383
        },
        {
          "name": "F5",
          "midi": 77,
          "time": 214.73638400000394,
          "velocity": 0.8661417322834646,
          "duration": 0.32881817187501383
        },
        {
          "name": "A#2",
          "midi": 46,
          "time": 214.73638400000394,
          "velocity": 0.8661417322834646,
          "duration": 0.19312767187500413
        },
        {
          "name": "A#2",
          "midi": 46,
          "time": 214.93375200000395,
          "velocity": 0.8661417322834646,
          "duration": 0.19312767187500413
        },
        {
          "name": "A#2",
          "midi": 46,
          "time": 215.13112000000396,
          "velocity": 0.8661417322834646,
          "duration": 0.19312767187500413
        },
        {
          "name": "D5",
          "midi": 74,
          "time": 215.32848800000397,
          "velocity": 0.8661417322834646,
          "duration": 0.19312767187500413
        },
        {
          "name": "A#2",
          "midi": 46,
          "time": 215.32848800000397,
          "velocity": 0.8661417322834646,
          "duration": 0.19312767187500413
        },
        {
          "name": "D5",
          "midi": 74,
          "time": 215.52585600000398,
          "velocity": 0.8661417322834646,
          "duration": 0.19312767187500413
        },
        {
          "name": "A#2",
          "midi": 46,
          "time": 215.52585600000398,
          "velocity": 0.8661417322834646,
          "duration": 0.19312767187500413
        },
        {
          "name": "E5",
          "midi": 76,
          "time": 215.723224000004,
          "velocity": 0.8661417322834646,
          "duration": 0.19312767187500413
        },
        {
          "name": "A#2",
          "midi": 46,
          "time": 215.723224000004,
          "velocity": 0.8661417322834646,
          "duration": 0.19312767187500413
        },
        {
          "name": "F5",
          "midi": 77,
          "time": 215.920592000004,
          "velocity": 0.8661417322834646,
          "duration": 0.19312767187500413
        },
        {
          "name": "A#2",
          "midi": 46,
          "time": 215.920592000004,
          "velocity": 0.8661417322834646,
          "duration": 0.19312767187500413
        },
        {
          "name": "E5",
          "midi": 76,
          "time": 216.11796000000402,
          "velocity": 0.8661417322834646,
          "duration": 0.19736800000001153
        },
        {
          "name": "G5",
          "midi": 79,
          "time": 216.11796000000402,
          "velocity": 0.8661417322834646,
          "duration": 0.19736800000001153
        },
        {
          "name": "C3",
          "midi": 48,
          "time": 216.11796000000402,
          "velocity": 0.8661417322834646,
          "duration": 0.19736800000001153
        },
        {
          "name": "E5",
          "midi": 76,
          "time": 216.31532800000403,
          "velocity": 0.8661417322834646,
          "duration": 0.19312767187500413
        },
        {
          "name": "G5",
          "midi": 79,
          "time": 216.31532800000403,
          "velocity": 0.8661417322834646,
          "duration": 0.19312767187500413
        },
        {
          "name": "C3",
          "midi": 48,
          "time": 216.31532800000403,
          "velocity": 0.8661417322834646,
          "duration": 0.19312767187500413
        },
        {
          "name": "F5",
          "midi": 77,
          "time": 216.51269600000404,
          "velocity": 0.8661417322834646,
          "duration": 0.19312767187500413
        },
        {
          "name": "C3",
          "midi": 48,
          "time": 216.51269600000404,
          "velocity": 0.8661417322834646,
          "duration": 0.19312767187500413
        },
        {
          "name": "E5",
          "midi": 76,
          "time": 216.71006400000405,
          "velocity": 0.8661417322834646,
          "duration": 0.19312767187500413
        },
        {
          "name": "C3",
          "midi": 48,
          "time": 216.71006400000405,
          "velocity": 0.8661417322834646,
          "duration": 0.19312767187500413
        },
        {
          "name": "E5",
          "midi": 76,
          "time": 216.90743200000406,
          "velocity": 0.8661417322834646,
          "duration": 0.19736800000001153
        },
        {
          "name": "D3",
          "midi": 50,
          "time": 216.90743200000406,
          "velocity": 0.8661417322834646,
          "duration": 0.19736800000001153
        },
        {
          "name": "E5",
          "midi": 76,
          "time": 217.10480000000408,
          "velocity": 0.8661417322834646,
          "duration": 0.19312767187500413
        },
        {
          "name": "D3",
          "midi": 50,
          "time": 217.10480000000408,
          "velocity": 0.8661417322834646,
          "duration": 0.19312767187500413
        },
        {
          "name": "E5",
          "midi": 76,
          "time": 217.3021680000041,
          "velocity": 0.8661417322834646,
          "duration": 0.19312767187500413
        },
        {
          "name": "D3",
          "midi": 50,
          "time": 217.3021680000041,
          "velocity": 0.8661417322834646,
          "duration": 0.19312767187500413
        },
        {
          "name": "F#4",
          "midi": 66,
          "time": 217.4995360000041,
          "velocity": 0.8661417322834646,
          "duration": 0.6907880000000262
        },
        {
          "name": "A4",
          "midi": 69,
          "time": 217.4995360000041,
          "velocity": 0.8661417322834646,
          "duration": 0.6907880000000262
        },
        {
          "name": "D5",
          "midi": 74,
          "time": 217.4995360000041,
          "velocity": 0.8661417322834646,
          "duration": 0.6907880000000262
        },
        {
          "name": "D3",
          "midi": 50,
          "time": 217.4995360000041,
          "velocity": 0.8661417322834646,
          "duration": 0.19312767187500413
        },
        {
          "name": "D3",
          "midi": 50,
          "time": 217.6969040000041,
          "velocity": 0.8661417322834646,
          "duration": 0.19312767187500413
        },
        {
          "name": "D3",
          "midi": 50,
          "time": 217.89427200000412,
          "velocity": 0.8661417322834646,
          "duration": 0.19312767187500413
        },
        {
          "name": "D3",
          "midi": 50,
          "time": 218.09164000000413,
          "velocity": 0.8661417322834646,
          "duration": 0.19312767187500413
        },
        {
          "name": "D3",
          "midi": 50,
          "time": 218.28900800000415,
          "velocity": 0.8661417322834646,
          "duration": 0.19312767187500413
        },
        {
          "name": "D5",
          "midi": 74,
          "time": 218.48637600000416,
          "velocity": 0.8661417322834646,
          "duration": 0.19312767187500413
        },
        {
          "name": "D3",
          "midi": 50,
          "time": 218.48637600000416,
          "velocity": 0.8661417322834646,
          "duration": 0.19312767187500413
        },
        {
          "name": "D5",
          "midi": 74,
          "time": 218.68374400000417,
          "velocity": 0.8661417322834646,
          "duration": 0.19312767187500413
        },
        {
          "name": "A#2",
          "midi": 46,
          "time": 218.68374400000417,
          "velocity": 0.8661417322834646,
          "duration": 0.19312767187500413
        },
        {
          "name": "E5",
          "midi": 76,
          "time": 218.88111200000418,
          "velocity": 0.8661417322834646,
          "duration": 0.19312767187500413
        },
        {
          "name": "A#2",
          "midi": 46,
          "time": 218.88111200000418,
          "velocity": 0.8661417322834646,
          "duration": 0.19312767187500413
        },
        {
          "name": "F5",
          "midi": 77,
          "time": 219.0784800000042,
          "velocity": 0.8661417322834646,
          "duration": 0.19312767187500413
        },
        {
          "name": "A#2",
          "midi": 46,
          "time": 219.0784800000042,
          "velocity": 0.8661417322834646,
          "duration": 0.19312767187500413
        },
        {
          "name": "E5",
          "midi": 76,
          "time": 219.2758480000042,
          "velocity": 0.8661417322834646,
          "duration": 0.19736800000001153
        },
        {
          "name": "G5",
          "midi": 79,
          "time": 219.2758480000042,
          "velocity": 0.8661417322834646,
          "duration": 0.19736800000001153
        },
        {
          "name": "C3",
          "midi": 48,
          "time": 219.2758480000042,
          "velocity": 0.8661417322834646,
          "duration": 0.19736800000001153
        },
        {
          "name": "E5",
          "midi": 76,
          "time": 219.47321600000421,
          "velocity": 0.8661417322834646,
          "duration": 0.19312767187500413
        },
        {
          "name": "G5",
          "midi": 79,
          "time": 219.47321600000421,
          "velocity": 0.8661417322834646,
          "duration": 0.19312767187500413
        },
        {
          "name": "C3",
          "midi": 48,
          "time": 219.47321600000421,
          "velocity": 0.8661417322834646,
          "duration": 0.19312767187500413
        },
        {
          "name": "F5",
          "midi": 77,
          "time": 219.67058400000423,
          "velocity": 0.8661417322834646,
          "duration": 0.19312767187500413
        },
        {
          "name": "C3",
          "midi": 48,
          "time": 219.67058400000423,
          "velocity": 0.8661417322834646,
          "duration": 0.19312767187500413
        },
        {
          "name": "E5",
          "midi": 76,
          "time": 219.86795200000424,
          "velocity": 0.8661417322834646,
          "duration": 0.19312767187500413
        },
        {
          "name": "C3",
          "midi": 48,
          "time": 219.86795200000424,
          "velocity": 0.8661417322834646,
          "duration": 0.19312767187500413
        },
        {
          "name": "C5",
          "midi": 72,
          "time": 220.06532000000425,
          "velocity": 0.8661417322834646,
          "duration": 0.19736800000001153
        },
        {
          "name": "A2",
          "midi": 45,
          "time": 220.06532000000425,
          "velocity": 0.8661417322834646,
          "duration": 0.19736800000001153
        },
        {
          "name": "C5",
          "midi": 72,
          "time": 220.26268800000426,
          "velocity": 0.8661417322834646,
          "duration": 0.19312767187500413
        },
        {
          "name": "A2",
          "midi": 45,
          "time": 220.26268800000426,
          "velocity": 0.8661417322834646,
          "duration": 0.19312767187500413
        },
        {
          "name": "G5",
          "midi": 79,
          "time": 220.46005600000427,
          "velocity": 0.8661417322834646,
          "duration": 0.19312767187500413
        },
        {
          "name": "A2",
          "midi": 45,
          "time": 220.46005600000427,
          "velocity": 0.8661417322834646,
          "duration": 0.19312767187500413
        },
        {
          "name": "E5",
          "midi": 76,
          "time": 220.65742400000428,
          "velocity": 0.8661417322834646,
          "duration": 0.19312767187500413
        },
        {
          "name": "A2",
          "midi": 45,
          "time": 220.65742400000428,
          "velocity": 0.8661417322834646,
          "duration": 0.19312767187500413
        },
        {
          "name": "D5",
          "midi": 74,
          "time": 220.8547920000043,
          "velocity": 0.8661417322834646,
          "duration": 0.19736800000001153
        },
        {
          "name": "F5",
          "midi": 77,
          "time": 220.8547920000043,
          "velocity": 0.8661417322834646,
          "duration": 0.19736800000001153
        },
        {
          "name": "A#2",
          "midi": 46,
          "time": 220.8547920000043,
          "velocity": 0.8661417322834646,
          "duration": 0.19312767187500413
        },
        {
          "name": "D5",
          "midi": 74,
          "time": 221.0521600000043,
          "velocity": 0.8661417322834646,
          "duration": 0.32881817187501383
        },
        {
          "name": "F5",
          "midi": 77,
          "time": 221.0521600000043,
          "velocity": 0.8661417322834646,
          "duration": 0.32881817187501383
        },
        {
          "name": "A#2",
          "midi": 46,
          "time": 221.0521600000043,
          "velocity": 0.8661417322834646,
          "duration": 0.19312767187500413
        },
        {
          "name": "A#2",
          "midi": 46,
          "time": 221.24952800000432,
          "velocity": 0.8661417322834646,
          "duration": 0.19312767187500413
        },
        {
          "name": "A#2",
          "midi": 46,
          "time": 221.44689600000433,
          "velocity": 0.8661417322834646,
          "duration": 0.19312767187500413
        },
        {
          "name": "D5",
          "midi": 74,
          "time": 221.64426400000434,
          "velocity": 0.8661417322834646,
          "duration": 0.19312767187500413
        },
        {
          "name": "A#2",
          "midi": 46,
          "time": 221.64426400000434,
          "velocity": 0.8661417322834646,
          "duration": 0.19312767187500413
        },
        {
          "name": "D5",
          "midi": 74,
          "time": 221.84163200000435,
          "velocity": 0.8661417322834646,
          "duration": 0.19312767187500413
        },
        {
          "name": "A#2",
          "midi": 46,
          "time": 221.84163200000435,
          "velocity": 0.8661417322834646,
          "duration": 0.19312767187500413
        },
        {
          "name": "E5",
          "midi": 76,
          "time": 222.03900000000436,
          "velocity": 0.8661417322834646,
          "duration": 0.19312767187500413
        },
        {
          "name": "A#2",
          "midi": 46,
          "time": 222.03900000000436,
          "velocity": 0.8661417322834646,
          "duration": 0.19312767187500413
        },
        {
          "name": "F5",
          "midi": 77,
          "time": 222.23636800000438,
          "velocity": 0.8661417322834646,
          "duration": 0.19312767187500413
        },
        {
          "name": "A#2",
          "midi": 46,
          "time": 222.23636800000438,
          "velocity": 0.8661417322834646,
          "duration": 0.19312767187500413
        },
        {
          "name": "E5",
          "midi": 76,
          "time": 222.4337360000044,
          "velocity": 0.8661417322834646,
          "duration": 0.19736800000001153
        },
        {
          "name": "G5",
          "midi": 79,
          "time": 222.4337360000044,
          "velocity": 0.8661417322834646,
          "duration": 0.19736800000001153
        },
        {
          "name": "C3",
          "midi": 48,
          "time": 222.4337360000044,
          "velocity": 0.8661417322834646,
          "duration": 0.19736800000001153
        },
        {
          "name": "E5",
          "midi": 76,
          "time": 222.6311040000044,
          "velocity": 0.8661417322834646,
          "duration": 0.19312767187500413
        },
        {
          "name": "G5",
          "midi": 79,
          "time": 222.6311040000044,
          "velocity": 0.8661417322834646,
          "duration": 0.19312767187500413
        },
        {
          "name": "C3",
          "midi": 48,
          "time": 222.6311040000044,
          "velocity": 0.8661417322834646,
          "duration": 0.19312767187500413
        },
        {
          "name": "F5",
          "midi": 77,
          "time": 222.8284720000044,
          "velocity": 0.8661417322834646,
          "duration": 0.19312767187500413
        },
        {
          "name": "C3",
          "midi": 48,
          "time": 222.8284720000044,
          "velocity": 0.8661417322834646,
          "duration": 0.19312767187500413
        },
        {
          "name": "G5",
          "midi": 79,
          "time": 223.02584000000442,
          "velocity": 0.8661417322834646,
          "duration": 0.19312767187500413
        },
        {
          "name": "C3",
          "midi": 48,
          "time": 223.02584000000442,
          "velocity": 0.8661417322834646,
          "duration": 0.19312767187500413
        },
        {
          "name": "A5",
          "midi": 81,
          "time": 223.22320800000443,
          "velocity": 0.8661417322834646,
          "duration": 0.19312767187500413
        },
        {
          "name": "A2",
          "midi": 45,
          "time": 223.22320800000443,
          "velocity": 0.8661417322834646,
          "duration": 0.19736800000001153
        },
        {
          "name": "A5",
          "midi": 81,
          "time": 223.42057600000444,
          "velocity": 0.8661417322834646,
          "duration": 0.19312767187500413
        },
        {
          "name": "A2",
          "midi": 45,
          "time": 223.42057600000444,
          "velocity": 0.8661417322834646,
          "duration": 0.19312767187500413
        },
        {
          "name": "A#5",
          "midi": 82,
          "time": 223.61794400000446,
          "velocity": 0.8661417322834646,
          "duration": 0.19312767187500413
        },
        {
          "name": "A2",
          "midi": 45,
          "time": 223.61794400000446,
          "velocity": 0.8661417322834646,
          "duration": 0.19312767187500413
        },
        {
          "name": "C6",
          "midi": 84,
          "time": 223.81531200000447,
          "velocity": 0.8661417322834646,
          "duration": 0.19312767187500413
        },
        {
          "name": "A2",
          "midi": 45,
          "time": 223.81531200000447,
          "velocity": 0.8661417322834646,
          "duration": 0.19312767187500413
        },
        {
          "name": "F5",
          "midi": 77,
          "time": 224.01268000000448,
          "velocity": 0.8661417322834646,
          "duration": 0.19736800000001153
        },
        {
          "name": "D3",
          "midi": 50,
          "time": 224.01268000000448,
          "velocity": 0.8661417322834646,
          "duration": 0.19736800000001153
        },
        {
          "name": "F5",
          "midi": 77,
          "time": 224.2100480000045,
          "velocity": 0.8661417322834646,
          "duration": 0.32881817187501383
        },
        {
          "name": "D3",
          "midi": 50,
          "time": 224.2100480000045,
          "velocity": 0.8661417322834646,
          "duration": 0.19312767187500413
        },
        {
          "name": "D3",
          "midi": 50,
          "time": 224.4074160000045,
          "velocity": 0.8661417322834646,
          "duration": 0.19312767187500413
        },
        {
          "name": "D3",
          "midi": 50,
          "time": 224.6047840000045,
          "velocity": 0.8661417322834646,
          "duration": 0.19312767187500413
        },
        {
          "name": "D5",
          "midi": 74,
          "time": 224.80215200000453,
          "velocity": 0.8661417322834646,
          "duration": 0.09444367187501257
        },
        {
          "name": "D3",
          "midi": 50,
          "time": 224.80215200000453,
          "velocity": 0.8661417322834646,
          "duration": 0.19312767187503255
        },
        {
          "name": "D5",
          "midi": 74,
          "time": 224.90083600000455,
          "velocity": 0.8661417322834646,
          "duration": 0.09444367187501257
        },
        {
          "name": "D5",
          "midi": 74,
          "time": 224.99952000000457,
          "velocity": 0.8661417322834646,
          "duration": 0.19312767187500413
        },
        {
          "name": "A#2",
          "midi": 46,
          "time": 224.99952000000457,
          "velocity": 0.8661417322834646,
          "duration": 0.19312767187500413
        },
        {
          "name": "E5",
          "midi": 76,
          "time": 225.19688800000458,
          "velocity": 0.8661417322834646,
          "duration": 0.19312767187500413
        },
        {
          "name": "A#2",
          "midi": 46,
          "time": 225.19688800000458,
          "velocity": 0.8661417322834646,
          "duration": 0.19312767187500413
        },
        {
          "name": "F5",
          "midi": 77,
          "time": 225.3942560000046,
          "velocity": 0.8661417322834646,
          "duration": 0.19312767187500413
        },
        {
          "name": "A#2",
          "midi": 46,
          "time": 225.3942560000046,
          "velocity": 0.8661417322834646,
          "duration": 0.19312767187500413
        },
        {
          "name": "E5",
          "midi": 76,
          "time": 225.5916240000046,
          "velocity": 0.8661417322834646,
          "duration": 0.19736800000001153
        },
        {
          "name": "G5",
          "midi": 79,
          "time": 225.5916240000046,
          "velocity": 0.8661417322834646,
          "duration": 0.19736800000001153
        },
        {
          "name": "C3",
          "midi": 48,
          "time": 225.5916240000046,
          "velocity": 0.8661417322834646,
          "duration": 0.19736800000001153
        },
        {
          "name": "E5",
          "midi": 76,
          "time": 225.7889920000046,
          "velocity": 0.8661417322834646,
          "duration": 0.19312767187500413
        },
        {
          "name": "G5",
          "midi": 79,
          "time": 225.7889920000046,
          "velocity": 0.8661417322834646,
          "duration": 0.19312767187500413
        },
        {
          "name": "C3",
          "midi": 48,
          "time": 225.7889920000046,
          "velocity": 0.8661417322834646,
          "duration": 0.19312767187500413
        },
        {
          "name": "F5",
          "midi": 77,
          "time": 225.98636000000462,
          "velocity": 0.8661417322834646,
          "duration": 0.19312767187500413
        },
        {
          "name": "C3",
          "midi": 48,
          "time": 225.98636000000462,
          "velocity": 0.8661417322834646,
          "duration": 0.19312767187500413
        },
        {
          "name": "E5",
          "midi": 76,
          "time": 226.18372800000463,
          "velocity": 0.8661417322834646,
          "duration": 0.19312767187500413
        },
        {
          "name": "C3",
          "midi": 48,
          "time": 226.18372800000463,
          "velocity": 0.8661417322834646,
          "duration": 0.19312767187500413
        },
        {
          "name": "E5",
          "midi": 76,
          "time": 226.38109600000465,
          "velocity": 0.8661417322834646,
          "duration": 0.19736800000001153
        },
        {
          "name": "A2",
          "midi": 45,
          "time": 226.38109600000465,
          "velocity": 0.8661417322834646,
          "duration": 0.19736800000001153
        },
        {
          "name": "E5",
          "midi": 76,
          "time": 226.57846400000466,
          "velocity": 0.8661417322834646,
          "duration": 0.19312767187500413
        },
        {
          "name": "A2",
          "midi": 45,
          "time": 226.57846400000466,
          "velocity": 0.8661417322834646,
          "duration": 0.19312767187500413
        },
        {
          "name": "F5",
          "midi": 77,
          "time": 226.77583200000467,
          "velocity": 0.8661417322834646,
          "duration": 0.19312767187500413
        },
        {
          "name": "A2",
          "midi": 45,
          "time": 226.77583200000467,
          "velocity": 0.8661417322834646,
          "duration": 0.19312767187500413
        },
        {
          "name": "G5",
          "midi": 79,
          "time": 226.97320000000468,
          "velocity": 0.8661417322834646,
          "duration": 0.19312767187500413
        },
        {
          "name": "A2",
          "midi": 45,
          "time": 226.97320000000468,
          "velocity": 0.8661417322834646,
          "duration": 0.19312767187500413
        },
        {
          "name": "G5",
          "midi": 79,
          "time": 227.1705680000047,
          "velocity": 0.8661417322834646,
          "duration": 0.19312767187500413
        },
        {
          "name": "A#2",
          "midi": 46,
          "time": 227.1705680000047,
          "velocity": 0.8661417322834646,
          "duration": 0.19736800000001153
        },
        {
          "name": "D5",
          "midi": 74,
          "time": 227.3679360000047,
          "velocity": 0.8661417322834646,
          "duration": 0.32881817187501383
        },
        {
          "name": "F5",
          "midi": 77,
          "time": 227.3679360000047,
          "velocity": 0.8661417322834646,
          "duration": 0.32881817187501383
        },
        {
          "name": "A#2",
          "midi": 46,
          "time": 227.3679360000047,
          "velocity": 0.8661417322834646,
          "duration": 0.19312767187500413
        },
        {
          "name": "A#2",
          "midi": 46,
          "time": 227.56530400000472,
          "velocity": 0.8661417322834646,
          "duration": 0.19312767187500413
        },
        {
          "name": "A#2",
          "midi": 46,
          "time": 227.76267200000473,
          "velocity": 0.8661417322834646,
          "duration": 0.19312767187500413
        },
        {
          "name": "D5",
          "midi": 74,
          "time": 227.96004000000474,
          "velocity": 0.8661417322834646,
          "duration": 0.19312767187500413
        },
        {
          "name": "A#2",
          "midi": 46,
          "time": 227.96004000000474,
          "velocity": 0.8661417322834646,
          "duration": 0.19312767187500413
        },
        {
          "name": "D5",
          "midi": 74,
          "time": 228.15740800000475,
          "velocity": 0.8661417322834646,
          "duration": 0.19312767187500413
        },
        {
          "name": "A#2",
          "midi": 46,
          "time": 228.15740800000475,
          "velocity": 0.8661417322834646,
          "duration": 0.19312767187500413
        },
        {
          "name": "E5",
          "midi": 76,
          "time": 228.35477600000476,
          "velocity": 0.8661417322834646,
          "duration": 0.19312767187500413
        },
        {
          "name": "A#2",
          "midi": 46,
          "time": 228.35477600000476,
          "velocity": 0.8661417322834646,
          "duration": 0.19312767187500413
        },
        {
          "name": "F5",
          "midi": 77,
          "time": 228.55214400000477,
          "velocity": 0.8661417322834646,
          "duration": 0.19312767187500413
        },
        {
          "name": "A#2",
          "midi": 46,
          "time": 228.55214400000477,
          "velocity": 0.8661417322834646,
          "duration": 0.19312767187500413
        },
        {
          "name": "E5",
          "midi": 76,
          "time": 228.74951200000478,
          "velocity": 0.8661417322834646,
          "duration": 0.19736800000001153
        },
        {
          "name": "G5",
          "midi": 79,
          "time": 228.74951200000478,
          "velocity": 0.8661417322834646,
          "duration": 0.19736800000001153
        },
        {
          "name": "C3",
          "midi": 48,
          "time": 228.74951200000478,
          "velocity": 0.8661417322834646,
          "duration": 0.19736800000001153
        },
        {
          "name": "E5",
          "midi": 76,
          "time": 228.9468800000048,
          "velocity": 0.8661417322834646,
          "duration": 0.19312767187500413
        },
        {
          "name": "G5",
          "midi": 79,
          "time": 228.9468800000048,
          "velocity": 0.8661417322834646,
          "duration": 0.19312767187500413
        },
        {
          "name": "C3",
          "midi": 48,
          "time": 228.9468800000048,
          "velocity": 0.8661417322834646,
          "duration": 0.19312767187500413
        },
        {
          "name": "F5",
          "midi": 77,
          "time": 229.1442480000048,
          "velocity": 0.8661417322834646,
          "duration": 0.19312767187500413
        },
        {
          "name": "C3",
          "midi": 48,
          "time": 229.1442480000048,
          "velocity": 0.8661417322834646,
          "duration": 0.19312767187500413
        },
        {
          "name": "G5",
          "midi": 79,
          "time": 229.34161600000482,
          "velocity": 0.8661417322834646,
          "duration": 0.19312767187500413
        },
        {
          "name": "C3",
          "midi": 48,
          "time": 229.34161600000482,
          "velocity": 0.8661417322834646,
          "duration": 0.19312767187500413
        },
        {
          "name": "A5",
          "midi": 81,
          "time": 229.53898400000483,
          "velocity": 0.8661417322834646,
          "duration": 0.19736800000001153
        },
        {
          "name": "A2",
          "midi": 45,
          "time": 229.53898400000483,
          "velocity": 0.8661417322834646,
          "duration": 0.19736800000001153
        },
        {
          "name": "A5",
          "midi": 81,
          "time": 229.73635200000484,
          "velocity": 0.8661417322834646,
          "duration": 0.19312767187500413
        },
        {
          "name": "A2",
          "midi": 45,
          "time": 229.73635200000484,
          "velocity": 0.8661417322834646,
          "duration": 0.19312767187500413
        },
        {
          "name": "A#5",
          "midi": 82,
          "time": 229.93372000000485,
          "velocity": 0.8661417322834646,
          "duration": 0.19312767187500413
        },
        {
          "name": "A2",
          "midi": 45,
          "time": 229.93372000000485,
          "velocity": 0.8661417322834646,
          "duration": 0.19312767187500413
        },
        {
          "name": "A5",
          "midi": 81,
          "time": 230.13108800000487,
          "velocity": 0.8661417322834646,
          "duration": 0.19312767187500413
        },
        {
          "name": "A2",
          "midi": 45,
          "time": 230.13108800000487,
          "velocity": 0.8661417322834646,
          "duration": 0.19312767187500413
        },
        {
          "name": "F5",
          "midi": 77,
          "time": 230.32845600000488,
          "velocity": 0.8661417322834646,
          "duration": 0.19312767187500413
        },
        {
          "name": "D3",
          "midi": 50,
          "time": 230.32845600000488,
          "velocity": 0.8661417322834646,
          "duration": 0.19736800000001153
        },
        {
          "name": "D3",
          "midi": 50,
          "time": 230.5258240000049,
          "velocity": 0.8661417322834646,
          "duration": 0.19312767187500413
        },
        {
          "name": "G5",
          "midi": 79,
          "time": 230.7231920000049,
          "velocity": 0.8661417322834646,
          "duration": 0.32881817187501383
        },
        {
          "name": "D3",
          "midi": 50,
          "time": 230.7231920000049,
          "velocity": 0.8661417322834646,
          "duration": 0.19312767187500413
        },
        {
          "name": "D3",
          "midi": 50,
          "time": 230.9205600000049,
          "velocity": 0.8661417322834646,
          "duration": 0.19312767187500413
        },
        {
          "name": "G5",
          "midi": 79,
          "time": 231.11792800000492,
          "velocity": 0.8661417322834646,
          "duration": 0.19312767187500413
        },
        {
          "name": "D3",
          "midi": 50,
          "time": 231.11792800000492,
          "velocity": 0.8661417322834646,
          "duration": 0.19312767187500413
        },
        {
          "name": "D5",
          "midi": 74,
          "time": 231.31529600000493,
          "velocity": 0.8661417322834646,
          "duration": 1.4802600000000723
        },
        {
          "name": "F5",
          "midi": 77,
          "time": 231.31529600000493,
          "velocity": 0.8661417322834646,
          "duration": 1.4802600000000723
        },
        {
          "name": "A#2",
          "midi": 46,
          "time": 231.31529600000493,
          "velocity": 0.8661417322834646,
          "duration": 0.19312767187500413
        },
        {
          "name": "A#2",
          "midi": 46,
          "time": 231.51266400000495,
          "velocity": 0.8661417322834646,
          "duration": 0.19312767187500413
        },
        {
          "name": "A#2",
          "midi": 46,
          "time": 231.71003200000496,
          "velocity": 0.8661417322834646,
          "duration": 0.19312767187500413
        },
        {
          "name": "A#2",
          "midi": 46,
          "time": 231.90740000000497,
          "velocity": 0.8661417322834646,
          "duration": 0.19736800000001153
        },
        {
          "name": "A#2",
          "midi": 46,
          "time": 232.10476800000498,
          "velocity": 0.8661417322834646,
          "duration": 0.19312767187500413
        },
        {
          "name": "A#2",
          "midi": 46,
          "time": 232.302136000005,
          "velocity": 0.8661417322834646,
          "duration": 0.19312767187500413
        },
        {
          "name": "A#2",
          "midi": 46,
          "time": 232.499504000005,
          "velocity": 0.8661417322834646,
          "duration": 0.19312767187500413
        },
        {
          "name": "A2",
          "midi": 45,
          "time": 232.69687200000502,
          "velocity": 0.8661417322834646,
          "duration": 0.1973679999999831
        },
        {
          "name": "A2",
          "midi": 45,
          "time": 232.894240000005,
          "velocity": 0.8661417322834646,
          "duration": 0.19312767187500413
        },
        {
          "name": "A2",
          "midi": 45,
          "time": 233.091608000005,
          "velocity": 0.8661417322834646,
          "duration": 0.19312767187500413
        },
        {
          "name": "A2",
          "midi": 45,
          "time": 233.28897600000502,
          "velocity": 0.8661417322834646,
          "duration": 0.19312767187500413
        },
        {
          "name": "A#2",
          "midi": 46,
          "time": 233.48634400000503,
          "velocity": 0.8661417322834646,
          "duration": 0.19736800000001153
        },
        {
          "name": "A#2",
          "midi": 46,
          "time": 233.68371200000504,
          "velocity": 0.8661417322834646,
          "duration": 0.19312767187500413
        },
        {
          "name": "A#2",
          "midi": 46,
          "time": 233.88108000000506,
          "velocity": 0.8661417322834646,
          "duration": 0.19312767187500413
        },
        {
          "name": "A#2",
          "midi": 46,
          "time": 234.07844800000507,
          "velocity": 0.8661417322834646,
          "duration": 0.19312767187500413
        },
        {
          "name": "A#2",
          "midi": 46,
          "time": 234.27581600000508,
          "velocity": 0.8661417322834646,
          "duration": 0.19312767187500413
        },
        {
          "name": "D4",
          "midi": 62,
          "time": 234.4731840000051,
          "velocity": 0.8661417322834646,
          "duration": 0.5261861718750254
        },
        {
          "name": "F4",
          "midi": 65,
          "time": 234.4731840000051,
          "velocity": 0.8661417322834646,
          "duration": 0.5261861718750254
        },
        {
          "name": "A#2",
          "midi": 46,
          "time": 234.4731840000051,
          "velocity": 0.8661417322834646,
          "duration": 0.19312767187500413
        },
        {
          "name": "A#2",
          "midi": 46,
          "time": 234.6705520000051,
          "velocity": 0.8661417322834646,
          "duration": 0.19312767187500413
        },
        {
          "name": "A#2",
          "midi": 46,
          "time": 234.8679200000051,
          "velocity": 0.8661417322834646,
          "duration": 0.19312767187500413
        },
        {
          "name": "E4",
          "midi": 64,
          "time": 235.06528800000513,
          "velocity": 0.8661417322834646,
          "duration": 0.19312767187500413
        },
        {
          "name": "G4",
          "midi": 67,
          "time": 235.06528800000513,
          "velocity": 0.8661417322834646,
          "duration": 0.19312767187500413
        },
        {
          "name": "C3",
          "midi": 48,
          "time": 235.06528800000513,
          "velocity": 0.8661417322834646,
          "duration": 0.19736800000001153
        },
        {
          "name": "E4",
          "midi": 64,
          "time": 235.26265600000514,
          "velocity": 0.8661417322834646,
          "duration": 0.5261861718750254
        },
        {
          "name": "G4",
          "midi": 67,
          "time": 235.26265600000514,
          "velocity": 0.8661417322834646,
          "duration": 0.5261861718750254
        },
        {
          "name": "C3",
          "midi": 48,
          "time": 235.26265600000514,
          "velocity": 0.8661417322834646,
          "duration": 0.19312767187500413
        },
        {
          "name": "C3",
          "midi": 48,
          "time": 235.46002400000515,
          "velocity": 0.8661417322834646,
          "duration": 0.19312767187500413
        },
        {
          "name": "C3",
          "midi": 48,
          "time": 235.65739200000516,
          "velocity": 0.8661417322834646,
          "duration": 0.19312767187500413
        },
        {
          "name": "E4",
          "midi": 64,
          "time": 235.85476000000517,
          "velocity": 0.8661417322834646,
          "duration": 0.19736800000001153
        },
        {
          "name": "G4",
          "midi": 67,
          "time": 235.85476000000517,
          "velocity": 0.8661417322834646,
          "duration": 0.19736800000001153
        },
        {
          "name": "A2",
          "midi": 45,
          "time": 235.85476000000517,
          "velocity": 0.8661417322834646,
          "duration": 0.19736800000001153
        },
        {
          "name": "E4",
          "midi": 64,
          "time": 236.05212800000518,
          "velocity": 0.8661417322834646,
          "duration": 0.5261861718750254
        },
        {
          "name": "G4",
          "midi": 67,
          "time": 236.05212800000518,
          "velocity": 0.8661417322834646,
          "duration": 0.5261861718750254
        },
        {
          "name": "A2",
          "midi": 45,
          "time": 236.05212800000518,
          "velocity": 0.8661417322834646,
          "duration": 0.19312767187500413
        },
        {
          "name": "A2",
          "midi": 45,
          "time": 236.2494960000052,
          "velocity": 0.8661417322834646,
          "duration": 0.19312767187500413
        },
        {
          "name": "A2",
          "midi": 45,
          "time": 236.4468640000052,
          "velocity": 0.8661417322834646,
          "duration": 0.19312767187500413
        },
        {
          "name": "D4",
          "midi": 62,
          "time": 236.64423200000522,
          "velocity": 0.8661417322834646,
          "duration": 0.19312767187500413
        },
        {
          "name": "F4",
          "midi": 65,
          "time": 236.64423200000522,
          "velocity": 0.8661417322834646,
          "duration": 0.19312767187500413
        },
        {
          "name": "D3",
          "midi": 50,
          "time": 236.64423200000522,
          "velocity": 0.8661417322834646,
          "duration": 0.19736800000001153
        },
        {
          "name": "D3",
          "midi": 50,
          "time": 236.84160000000523,
          "velocity": 0.8661417322834646,
          "duration": 0.19312767187500413
        },
        {
          "name": "G5",
          "midi": 79,
          "time": 237.03896800000524,
          "velocity": 0.8661417322834646,
          "duration": 0.32881817187501383
        },
        {
          "name": "D3",
          "midi": 50,
          "time": 237.03896800000524,
          "velocity": 0.8661417322834646,
          "duration": 0.19312767187500413
        },
        {
          "name": "D3",
          "midi": 50,
          "time": 237.23633600000525,
          "velocity": 0.8661417322834646,
          "duration": 0.19312767187500413
        },
        {
          "name": "G5",
          "midi": 79,
          "time": 237.43370400000526,
          "velocity": 0.8661417322834646,
          "duration": 0.19312767187500413
        },
        {
          "name": "D3",
          "midi": 50,
          "time": 237.43370400000526,
          "velocity": 0.8661417322834646,
          "duration": 0.19312767187500413
        },
        {
          "name": "D5",
          "midi": 74,
          "time": 237.63107200000528,
          "velocity": 0.8661417322834646,
          "duration": 0.7894720000000461
        },
        {
          "name": "F5",
          "midi": 77,
          "time": 237.63107200000528,
          "velocity": 0.8661417322834646,
          "duration": 0.7894720000000461
        },
        {
          "name": "A#2",
          "midi": 46,
          "time": 237.63107200000528,
          "velocity": 0.8661417322834646,
          "duration": 0.19312767187500413
        },
        {
          "name": "A#2",
          "midi": 46,
          "time": 237.8284400000053,
          "velocity": 0.8661417322834646,
          "duration": 0.19312767187500413
        },
        {
          "name": "A#2",
          "midi": 46,
          "time": 238.0258080000053,
          "velocity": 0.8661417322834646,
          "duration": 0.19312767187500413
        },
        {
          "name": "C3",
          "midi": 48,
          "time": 238.2231760000053,
          "velocity": 0.8661417322834646,
          "duration": 0.19736800000001153
        },
        {
          "name": "D5",
          "midi": 74,
          "time": 238.42054400000532,
          "velocity": 0.8661417322834646,
          "duration": 0.6907880000000262
        },
        {
          "name": "F5",
          "midi": 77,
          "time": 238.42054400000532,
          "velocity": 0.8661417322834646,
          "duration": 0.6907880000000262
        },
        {
          "name": "C3",
          "midi": 48,
          "time": 238.42054400000532,
          "velocity": 0.8661417322834646,
          "duration": 0.19312767187500413
        },
        {
          "name": "C3",
          "midi": 48,
          "time": 238.61791200000533,
          "velocity": 0.8661417322834646,
          "duration": 0.19312767187500413
        },
        {
          "name": "C3",
          "midi": 48,
          "time": 238.81528000000534,
          "velocity": 0.8661417322834646,
          "duration": 0.19312767187500413
        },
        {
          "name": "A2",
          "midi": 45,
          "time": 239.01264800000536,
          "velocity": 0.8661417322834646,
          "duration": 0.1973679999999831
        },
        {
          "name": "A2",
          "midi": 45,
          "time": 239.21001600000534,
          "velocity": 0.8661417322834646,
          "duration": 0.19312767187500413
        },
        {
          "name": "A2",
          "midi": 45,
          "time": 239.40738400000535,
          "velocity": 0.8661417322834646,
          "duration": 0.19312767187500413
        },
        {
          "name": "A2",
          "midi": 45,
          "time": 239.60475200000536,
          "velocity": 0.8661417322834646,
          "duration": 0.19312767187500413
        },
        {
          "name": "A#2",
          "midi": 46,
          "time": 239.80212000000537,
          "velocity": 0.8661417322834646,
          "duration": 0.19736800000001153
        },
        {
          "name": "A#2",
          "midi": 46,
          "time": 239.99948800000539,
          "velocity": 0.8661417322834646,
          "duration": 0.19312767187500413
        },
        {
          "name": "D5",
          "midi": 74,
          "time": 240.1968560000054,
          "velocity": 0.8661417322834646,
          "duration": 0.32881817187501383
        },
        {
          "name": "A#2",
          "midi": 46,
          "time": 240.1968560000054,
          "velocity": 0.8661417322834646,
          "duration": 0.19312767187500413
        },
        {
          "name": "A#2",
          "midi": 46,
          "time": 240.3942240000054,
          "velocity": 0.8661417322834646,
          "duration": 0.19312767187500413
        },
        {
          "name": "D5",
          "midi": 74,
          "time": 240.59159200000542,
          "velocity": 0.8661417322834646,
          "duration": 0.19312767187500413
        },
        {
          "name": "A#2",
          "midi": 46,
          "time": 240.59159200000542,
          "velocity": 0.8661417322834646,
          "duration": 0.19312767187500413
        },
        {
          "name": "C5",
          "midi": 72,
          "time": 240.78896000000543,
          "velocity": 0.8661417322834646,
          "duration": 0.19312767187500413
        },
        {
          "name": "A#2",
          "midi": 46,
          "time": 240.78896000000543,
          "velocity": 0.8661417322834646,
          "duration": 0.19312767187500413
        },
        {
          "name": "F4",
          "midi": 65,
          "time": 240.98632800000544,
          "velocity": 0.8661417322834646,
          "duration": 0.19312767187500413
        },
        {
          "name": "A#2",
          "midi": 46,
          "time": 240.98632800000544,
          "velocity": 0.8661417322834646,
          "duration": 0.19312767187500413
        },
        {
          "name": "E4",
          "midi": 64,
          "time": 241.18369600000545,
          "velocity": 0.8661417322834646,
          "duration": 0.19312767187500413
        },
        {
          "name": "A#2",
          "midi": 46,
          "time": 241.18369600000545,
          "velocity": 0.8661417322834646,
          "duration": 0.19312767187500413
        },
        {
          "name": "F4",
          "midi": 65,
          "time": 241.38106400000547,
          "velocity": 0.8661417322834646,
          "duration": 0.19312767187500413
        },
        {
          "name": "C3",
          "midi": 48,
          "time": 241.38106400000547,
          "velocity": 0.8661417322834646,
          "duration": 0.19736800000001153
        },
        {
          "name": "G4",
          "midi": 67,
          "time": 241.57843200000548,
          "velocity": 0.8661417322834646,
          "duration": 0.19312767187500413
        },
        {
          "name": "C3",
          "midi": 48,
          "time": 241.57843200000548,
          "velocity": 0.8661417322834646,
          "duration": 0.19312767187500413
        },
        {
          "name": "F4",
          "midi": 65,
          "time": 241.7758000000055,
          "velocity": 0.8661417322834646,
          "duration": 0.19312767187500413
        },
        {
          "name": "C3",
          "midi": 48,
          "time": 241.7758000000055,
          "velocity": 0.8661417322834646,
          "duration": 0.19312767187500413
        },
        {
          "name": "E4",
          "midi": 64,
          "time": 241.9731680000055,
          "velocity": 0.8661417322834646,
          "duration": 0.19312767187500413
        },
        {
          "name": "C3",
          "midi": 48,
          "time": 241.9731680000055,
          "velocity": 0.8661417322834646,
          "duration": 0.19312767187500413
        },
        {
          "name": "F4",
          "midi": 65,
          "time": 242.1705360000055,
          "velocity": 0.8661417322834646,
          "duration": 0.19736800000001153
        },
        {
          "name": "F2",
          "midi": 41,
          "time": 242.1705360000055,
          "velocity": 0.8661417322834646,
          "duration": 0.19736800000001153
        },
        {
          "name": "F4",
          "midi": 65,
          "time": 242.36790400000552,
          "velocity": 0.8661417322834646,
          "duration": 2.2697320000000047
        },
        {
          "name": "C5",
          "midi": 72,
          "time": 242.36790400000552,
          "velocity": 0.8661417322834646,
          "duration": 2.2697320000000047
        },
        {
          "name": "F2",
          "midi": 41,
          "time": 242.36790400000552,
          "velocity": 0.8661417322834646,
          "duration": 2.2697320000000047
        }
      ],
      "controlChanges": {},
      "id": 1,
      "name": "Acoustic Grand Piano",
      "instrumentNumber": 0,
      "instrument": "acoustic grand piano",
      "instrumentFamily": "piano",
      "channelNumber": 0,
      "isPercussion": false
    }
  ]
}